<svg width="355" height="218" viewBox="0 0 355 218" fill="none" xmlns="http://www.w3.org/2000/svg">
<path d="M43.116 37.6661H301.608C302.512 37.6661 303.38 38.0254 304.019 38.665C304.659 39.3046 305.018 40.172 305.018 41.0765V206.116C305.018 208.072 304.242 209.947 302.859 211.329C301.476 212.712 299.601 213.489 297.646 213.489H46.5871C45.6173 213.491 44.6565 213.303 43.7597 212.933C42.8629 212.564 42.0478 212.021 41.361 211.337C40.6743 210.652 40.1295 209.838 39.7577 208.942C39.3859 208.047 39.1946 207.086 39.1946 206.116V41.5926C39.1939 41.0773 39.2949 40.5668 39.4916 40.0904C39.6884 39.6141 39.9772 39.1812 40.3414 38.8165C40.7056 38.4518 41.1381 38.1625 41.6142 37.9651C42.0903 37.7677 42.6006 37.6661 43.116 37.6661Z" fill="#455A64"/>
<path d="M28.0779 200.464H316.094V208.899C316.094 210.741 315.363 212.506 314.061 213.808C312.759 215.11 310.993 215.842 309.152 215.842H35.0201C33.1789 215.842 31.4131 215.11 30.1112 213.808C28.8093 212.506 28.0779 210.741 28.0779 208.899V200.464Z" fill="#455A64"/>
<path d="M297.15 44.6538H46.3291V193.112H297.15V44.6538Z" fill="#E0E0E0"/>
<path d="M145.908 200.464L149.481 206.147H199.771L203.091 200.464H145.908Z" fill="#263238"/>
<path d="M290.314 53.2557H53.772V193.112H290.314V53.2557Z" fill="#263238"/>
<path d="M71.9221 189.004C71.8007 189.004 71.6995 159.221 71.6995 122.486C71.6995 85.7507 71.8007 55.9527 71.9221 55.9527C72.0435 55.9527 72.1447 85.7355 72.1447 122.486C72.1447 159.236 72.0435 189.004 71.9221 189.004Z" fill="#E0E0E0"/>
<path d="M67.1506 68.0155C67.1506 68.137 65.4303 68.2382 63.3102 68.2382C61.19 68.2382 59.4646 68.137 59.4646 68.0155C59.4646 67.8941 61.185 67.7929 63.3102 67.7929C65.4353 67.7929 67.1506 67.8941 67.1506 68.0155Z" fill="#E0E0E0"/>
<path d="M67.4442 60.4662C67.4442 60.5876 65.7238 60.6888 63.6037 60.6888C61.4836 60.6888 59.7632 60.5876 59.7632 60.4662C59.7632 60.3447 61.4836 60.2435 63.6037 60.2435C65.7238 60.2435 67.4442 60.3447 67.4442 60.4662Z" fill="#E0E0E0"/>
<path d="M67.1506 76.152C67.1506 76.2734 65.4303 76.3746 63.3102 76.3746C61.19 76.3746 59.4646 76.2734 59.4646 76.152C59.4646 76.0305 61.185 75.9293 63.3102 75.9293C65.4353 75.9293 67.1506 76.0305 67.1506 76.152Z" fill="#E0E0E0"/>
<path d="M67.1506 84.2883C67.1506 84.4148 65.4303 84.511 63.3102 84.511C61.19 84.511 59.4646 84.4148 59.4646 84.2883C59.4646 84.1618 61.185 84.0707 63.3102 84.0707C65.4353 84.0707 67.1506 84.1719 67.1506 84.2883Z" fill="#E0E0E0"/>
<path d="M67.1506 92.4298C67.1506 92.5512 65.4303 92.6524 63.3102 92.6524C61.19 92.6524 59.4646 92.5512 59.4646 92.4298C59.4646 92.3084 61.185 92.2072 63.3102 92.2072C65.4353 92.2072 67.1506 92.3033 67.1506 92.4298Z" fill="#E0E0E0"/>
<path d="M67.1506 100.566C67.1506 100.688 65.4303 100.789 63.3102 100.789C61.19 100.789 59.4646 100.688 59.4646 100.566C59.4646 100.445 61.185 100.344 63.3102 100.344C65.4353 100.344 67.1506 100.445 67.1506 100.566Z" fill="#E0E0E0"/>
<path d="M67.1506 108.703C67.1506 108.824 65.4303 108.925 63.3102 108.925C61.19 108.925 59.4646 108.824 59.4646 108.703C59.4646 108.581 61.185 108.48 63.3102 108.48C65.4353 108.48 67.1506 108.581 67.1506 108.703Z" fill="#E0E0E0"/>
<path d="M67.1506 116.839C67.1506 116.965 65.4303 117.062 63.3102 117.062C61.19 117.062 59.4646 116.965 59.4646 116.839C59.4646 116.712 61.185 116.621 63.3102 116.621C65.4353 116.621 67.1506 116.717 67.1506 116.839Z" fill="#E0E0E0"/>
<path d="M67.1506 124.98C67.1506 125.102 65.4303 125.198 63.3102 125.198C61.19 125.198 59.4646 125.102 59.4646 124.98C59.4646 124.859 61.185 124.758 63.3102 124.758C65.4353 124.758 67.1506 124.854 67.1506 124.98Z" fill="#E0E0E0"/>
<path d="M67.1506 133.117C67.1506 133.238 65.4303 133.339 63.3102 133.339C61.19 133.339 59.4646 133.238 59.4646 133.117C59.4646 132.995 61.185 132.894 63.3102 132.894C65.4353 132.894 67.1506 132.995 67.1506 133.117Z" fill="#E0E0E0"/>
<path d="M67.1506 141.253C67.1506 141.374 65.4303 141.476 63.3102 141.476C61.19 141.476 59.4646 141.374 59.4646 141.253C59.4646 141.132 61.185 141.03 63.3102 141.03C65.4353 141.03 67.1506 141.132 67.1506 141.253Z" fill="#E0E0E0"/>
<path d="M67.1506 149.389C67.1506 149.516 65.4303 149.612 63.3102 149.612C61.19 149.612 59.4646 149.516 59.4646 149.389C59.4646 149.263 61.185 149.172 63.3102 149.172C65.4353 149.172 67.1506 149.268 67.1506 149.389Z" fill="#E0E0E0"/>
<path d="M67.1506 157.541C67.1506 157.662 65.4303 157.759 63.3102 157.759C61.19 157.759 59.4646 157.662 59.4646 157.541C59.4646 157.42 61.185 157.318 63.3102 157.318C65.4353 157.318 67.1506 157.404 67.1506 157.541Z" fill="#E0E0E0"/>
<path d="M67.1506 165.667C67.1506 165.789 65.4303 165.89 63.3102 165.89C61.19 165.89 59.4646 165.789 59.4646 165.667C59.4646 165.546 61.185 165.445 63.3102 165.445C65.4353 165.445 67.1506 165.546 67.1506 165.667Z" fill="#E0E0E0"/>
<path d="M67.1506 173.804C67.1506 173.925 65.4303 174.026 63.3102 174.026C61.19 174.026 59.4646 173.925 59.4646 173.804C59.4646 173.682 61.185 173.581 63.3102 173.581C65.4353 173.581 67.1506 173.682 67.1506 173.804Z" fill="#E0E0E0"/>
<path d="M67.1506 181.94C67.1506 182.066 65.4303 182.163 63.3102 182.163C61.19 182.163 59.4646 182.066 59.4646 181.94C59.4646 181.813 61.185 181.717 63.3102 181.717C65.4353 181.717 67.1506 181.829 67.1506 181.94Z" fill="#E0E0E0"/>
<path d="M97.9505 67.5348C97.9505 67.6563 93.4876 67.7575 87.9824 67.7575C82.4772 67.7575 78.0093 67.6563 78.0093 67.5348C78.0093 67.4134 82.4721 67.3122 87.9824 67.3122C93.4927 67.3122 97.9505 67.4134 97.9505 67.5348Z" fill="#347683"/>
<path d="M97.9505 181.94C97.9505 182.066 93.4876 182.163 87.9824 182.163C82.4772 182.163 78.0093 182.066 78.0093 181.94C78.0093 181.813 82.4721 181.717 87.9824 181.717C93.4927 181.717 97.9505 181.829 97.9505 181.94Z" fill="#347683"/>
<path d="M125.724 84.2883C125.724 84.4148 117.37 84.511 107.068 84.511C96.7663 84.511 88.4124 84.4148 88.4124 84.2883C88.4124 84.1618 96.7612 84.0707 107.068 84.0707C117.375 84.0707 125.724 84.1719 125.724 84.2883Z" fill="#347683"/>
<path d="M168.875 84.2883C168.875 84.4148 160.521 84.511 150.219 84.511C139.917 84.511 131.558 84.4148 131.558 84.2883C131.558 84.1618 139.912 84.0707 150.219 84.0707C160.526 84.0707 168.875 84.1719 168.875 84.2883Z" fill="#E0E0E0"/>
<path d="M152.385 92.4298C152.385 92.5512 140.075 92.6524 124.89 92.6524C109.705 92.6524 97.394 92.5512 97.394 92.4298C97.394 92.3084 109.7 92.2072 124.89 92.2072C140.08 92.2072 152.385 92.3033 152.385 92.4298Z" fill="#E0E0E0"/>
<path d="M152.385 100.566C152.385 100.688 140.075 100.789 124.89 100.789C109.705 100.789 97.394 100.688 97.394 100.566C97.394 100.445 109.7 100.344 124.89 100.344C140.08 100.344 152.385 100.445 152.385 100.566Z" fill="#E0E0E0"/>
<path d="M190.239 124.98C190.239 125.102 177.923 125.198 162.743 125.198C147.563 125.198 135.242 125.102 135.242 124.98C135.242 124.859 147.553 124.758 162.743 124.758C177.933 124.758 190.239 124.854 190.239 124.98Z" fill="#E0E0E0"/>
<path d="M173.9 108.703C173.9 108.824 161.589 108.925 146.409 108.925C131.23 108.925 118.909 108.824 118.909 108.703C118.909 108.581 131.22 108.48 146.409 108.48C161.599 108.48 173.9 108.581 173.9 108.703Z" fill="#E0E0E0"/>
<path d="M241.101 108.703C241.101 108.824 228.79 108.925 213.611 108.925C198.431 108.925 186.11 108.824 186.11 108.703C186.11 108.581 198.421 108.48 213.611 108.48C228.801 108.48 241.101 108.581 241.101 108.703Z" fill="#E0E0E0"/>
<path d="M217.734 92.4298C217.734 92.5512 205.418 92.6524 190.238 92.6524C175.059 92.6524 162.743 92.5512 162.743 92.4298C162.743 92.3084 175.048 92.2072 190.238 92.2072C205.428 92.2072 217.734 92.3033 217.734 92.4298Z" fill="#FAFAFA"/>
<path d="M255.719 124.98C255.719 125.102 243.408 125.198 228.223 125.198C213.039 125.198 200.728 125.102 200.728 124.98C200.728 124.859 213.034 124.758 228.223 124.758C243.413 124.758 255.719 124.854 255.719 124.98Z" fill="#FAFAFA"/>
<path d="M248.134 100.566C248.134 100.688 229.018 100.789 205.438 100.789C181.859 100.789 162.743 100.688 162.743 100.566C162.743 100.445 181.854 100.344 205.438 100.344C229.023 100.344 248.134 100.445 248.134 100.566Z" fill="#455A64"/>
<path d="M97.9505 76.152C97.9505 76.2734 93.4876 76.3746 87.9824 76.3746C82.4772 76.3746 78.0093 76.2734 78.0093 76.152C78.0093 76.0305 82.4721 75.9293 87.9824 75.9293C93.4927 75.9293 97.9505 76.0305 97.9505 76.152Z" fill="#FAFAFA"/>
<path d="M97.9505 173.804C97.9505 173.925 93.4876 174.026 87.9824 174.026C82.4772 174.026 78.0093 173.925 78.0093 173.804C78.0093 173.682 82.4721 173.581 87.9824 173.581C93.4927 173.581 97.9505 173.682 97.9505 173.804Z" fill="#FAFAFA"/>
<path d="M107.812 108.703C107.812 108.824 103.35 108.925 97.8393 108.925C92.3291 108.925 87.8662 108.824 87.8662 108.703C87.8662 108.581 92.3341 108.48 97.8393 108.48C103.345 108.48 107.812 108.581 107.812 108.703Z" fill="#FAFAFA"/>
<path d="M267.671 108.703C267.671 108.824 263.208 108.925 257.703 108.925C252.197 108.925 247.729 108.824 247.729 108.703C247.729 108.581 252.192 108.48 257.703 108.48C263.213 108.48 267.671 108.581 267.671 108.703Z" fill="#347683"/>
<path d="M125.724 141.208C125.724 141.329 117.37 141.43 107.068 141.43C96.7663 141.43 88.4124 141.329 88.4124 141.208C88.4124 141.086 96.7612 140.985 107.068 140.985C117.375 140.985 125.724 141.081 125.724 141.208Z" fill="#347683"/>
<path d="M168.875 141.208C168.875 141.329 160.521 141.43 150.219 141.43C139.917 141.43 131.558 141.329 131.558 141.208C131.558 141.086 139.912 140.985 150.219 140.985C160.526 140.985 168.875 141.081 168.875 141.208Z" fill="#E0E0E0"/>
<path d="M152.385 149.344C152.385 149.465 140.075 149.566 124.89 149.566C109.705 149.566 97.394 149.465 97.394 149.344C97.394 149.222 109.7 149.121 124.89 149.121C140.08 149.121 152.385 149.222 152.385 149.344Z" fill="#E0E0E0"/>
<path d="M152.385 157.48C152.385 157.602 140.075 157.703 124.89 157.703C109.705 157.703 97.394 157.602 97.394 157.48C97.394 157.359 109.7 157.258 124.89 157.258C140.08 157.258 152.385 157.359 152.385 157.48Z" fill="#E0E0E0"/>
<path d="M173.9 165.637C173.9 165.763 161.589 165.86 146.409 165.86C131.23 165.86 118.909 165.763 118.909 165.637C118.909 165.51 131.22 165.419 146.409 165.419C161.599 165.419 173.9 165.495 173.9 165.637Z" fill="#E0E0E0"/>
<path d="M241.101 165.637C241.101 165.763 228.79 165.86 213.611 165.86C198.431 165.86 186.11 165.763 186.11 165.637C186.11 165.51 198.421 165.419 213.611 165.419C228.801 165.419 241.101 165.495 241.101 165.637Z" fill="#E0E0E0"/>
<path d="M217.734 149.344C217.734 149.465 205.418 149.566 190.238 149.566C175.059 149.566 162.743 149.465 162.743 149.344C162.743 149.222 175.048 149.121 190.238 149.121C205.428 149.121 217.734 149.222 217.734 149.344Z" fill="#FAFAFA"/>
<path d="M248.134 157.48C248.134 157.602 229.018 157.703 205.438 157.703C181.859 157.703 162.743 157.602 162.743 157.48C162.743 157.359 181.854 157.258 205.438 157.258C229.023 157.258 248.134 157.359 248.134 157.48Z" fill="#455A64"/>
<path d="M107.812 165.637C107.812 165.763 103.35 165.86 97.8393 165.86C92.3291 165.86 87.8662 165.763 87.8662 165.637C87.8662 165.51 92.3341 165.419 97.8393 165.419C103.345 165.419 107.812 165.495 107.812 165.637Z" fill="#FAFAFA"/>
<path d="M267.671 165.637C267.671 165.763 263.208 165.86 257.703 165.86C252.197 165.86 247.729 165.763 247.729 165.637C247.729 165.51 252.192 165.419 257.703 165.419C263.213 165.419 267.671 165.495 267.671 165.637Z" fill="#347683"/>
<path d="M272.989 205.61C272.989 205.681 222.066 205.742 159.262 205.742C96.4577 205.742 45.5244 205.671 45.5244 205.61C45.5244 205.55 96.4375 205.479 159.262 205.479C222.086 205.479 272.989 205.529 272.989 205.61Z" fill="#263238"/>
<path d="M37.0084 160.997C33.4668 157.454 29.0645 154.894 24.234 153.568C19.4035 152.242 14.311 152.195 9.45703 153.432C17.6811 159.036 27.3859 162.067 37.3373 162.141" fill="#347683"/>
<path d="M27.6627 127.905C28.8113 119.784 25.6387 110.651 19.5668 104.751C19.3694 112.796 22.7646 121.848 27.6627 127.905Z" fill="#347683"/>
<path d="M32.5253 143.242C28.1346 134.902 21.1444 128.221 12.6145 124.211C13.9478 128.886 16.5023 133.121 20.015 136.48C23.5278 139.84 27.8721 142.204 32.6012 143.328" fill="#347683"/>
<path d="M33.5321 146.197C28.629 146.338 23.6652 146.166 18.9241 144.912C14.1829 143.657 9.64921 141.243 6.48169 137.489C16.0874 137.518 25.4708 140.382 33.4562 145.721" fill="#347683"/>
<path d="M31.0427 136.451C33.5322 127.121 37.6206 120.669 44.9727 115.442C45.5347 120.03 44.4401 124.667 41.8862 128.519C39.3323 132.37 35.4869 135.183 31.0427 136.451Z" fill="#347683"/>
<path d="M49.552 152.542C49.5705 149.82 48.784 147.154 47.2913 144.878C45.7986 142.602 43.6663 140.818 41.1626 139.75C41.5725 144.567 45.3573 150.138 49.552 152.542Z" fill="#347683"/>
<path d="M51.8945 144.674C52.2364 140.768 53.6866 137.041 56.0746 133.931C58.4626 130.822 61.689 128.459 65.3742 127.121C63.6791 134.918 59.1758 141.41 51.8945 144.674Z" fill="#347683"/>
<path d="M48.3628 158.634C50.0933 156.16 52.9167 154.622 55.8363 153.857C58.7559 153.093 61.807 153.023 64.8228 152.962C62.7681 155.192 60.2554 156.95 57.4569 158.117C54.6585 159.284 51.6407 159.831 48.6107 159.722" fill="#347683"/>
<path d="M44.8613 178.514C50.3645 176.816 56.3042 177.243 61.5086 179.709C66.7129 182.175 70.8039 186.503 72.9743 191.837C62.7786 189.925 52.684 185.371 44.8613 178.514Z" fill="#347683"/>
<path d="M33.6536 171.608C35.3487 176.622 35.0198 182.684 31.2501 187.005C30.4988 184.419 30.3247 181.7 30.74 179.039C31.1553 176.379 32.15 173.842 33.6536 171.608Z" fill="#347683"/>
<path d="M27.0249 168.82C26.7516 172.052 25.6491 175.16 23.8241 177.842C21.9991 180.524 19.5132 182.69 16.6065 184.131C16.4713 184.217 16.32 184.275 16.1617 184.301C16.0034 184.328 15.8414 184.321 15.6856 184.283C15.2252 184.096 15.1796 183.468 15.2404 182.972C15.9791 176.551 20.7405 170.322 27.0249 168.804" fill="#347683"/>
<path d="M22.6989 168.167C21.2594 169.722 19.5158 170.965 17.5761 171.819C15.6364 172.673 13.542 173.119 11.4228 173.13C9.30361 173.141 7.20475 172.716 5.25638 171.882C3.308 171.049 1.55164 169.824 0.0961914 168.283C7.2813 167.499 15.5695 166.973 22.6989 168.167Z" fill="#347683"/>
<path d="M21.6211 110.732C21.6211 110.732 21.6211 110.807 21.6869 110.944L21.9095 111.551C22.1119 112.098 22.4155 112.877 22.7748 113.879C23.134 114.881 23.6096 116.125 24.1258 117.568L24.9556 119.875L25.8411 122.471C27.1162 126.109 28.5279 130.475 30.056 135.338C31.5841 140.201 33.1274 145.584 34.6757 151.262C36.2241 156.939 37.5548 162.393 38.7237 167.342C39.8925 172.291 40.8084 176.799 41.5016 180.594C41.6804 181.542 41.849 182.443 42.0076 183.296C42.1661 184.15 42.3027 184.954 42.4174 185.71C42.6755 187.228 42.8981 188.518 43.0499 189.586C43.2017 190.653 43.3383 191.463 43.4244 192.04C43.4716 192.306 43.507 192.519 43.5306 192.677C43.5399 192.751 43.5551 192.824 43.5762 192.895C43.5829 192.821 43.5829 192.746 43.5762 192.672C43.5762 192.515 43.5306 192.303 43.4952 192.035C43.4193 191.458 43.313 190.628 43.1714 189.57C43.0297 188.513 42.8323 187.197 42.5844 185.684C42.463 184.93 42.3314 184.121 42.1948 183.266C42.0582 182.411 41.876 181.505 41.6888 180.559C41.0158 176.759 40.0747 172.265 38.9665 167.286C37.8584 162.307 36.4669 156.873 34.949 151.186C33.431 145.498 31.8219 140.135 30.309 135.277C28.7961 130.42 27.3338 126.053 26.0384 122.425C25.7011 121.514 25.3958 120.649 25.1226 119.829L24.2674 117.527C23.7614 116.09 23.2555 114.855 22.876 113.854C22.4965 112.852 22.1726 112.088 21.9601 111.546C21.8538 111.293 21.7729 111.096 21.7172 110.949C21.6909 110.874 21.6588 110.801 21.6211 110.732Z" fill="#263238"/>
<path d="M61.0887 131.285C61.0887 131.285 61.0432 131.32 60.9622 131.401L60.6182 131.761C60.3196 132.079 59.8845 132.56 59.3431 133.193C57.8021 134.966 56.3886 136.846 55.113 138.819C53.2083 141.755 51.72 144.941 50.6906 148.286C49.5015 152.051 48.7678 156.332 48.0341 160.81C46.5768 169.766 44.7806 177.791 43.4802 183.579C42.8274 186.469 42.2961 188.811 41.9217 190.451C41.7446 191.245 41.608 191.873 41.5119 192.318C41.4663 192.52 41.436 192.682 41.4107 192.824C41.4019 192.879 41.4019 192.936 41.4107 192.991C41.4107 192.991 41.4107 192.935 41.4613 192.829C41.5119 192.723 41.5372 192.546 41.5878 192.348L42.0533 190.491C42.4429 188.852 43.0045 186.519 43.6927 183.635C45.0386 177.841 46.8653 169.822 48.3276 160.865C49.0613 156.387 49.7848 152.117 50.9486 148.367C51.9625 145.041 53.4247 141.868 55.2951 138.936C56.5559 136.957 57.9418 135.061 59.4443 133.258C59.9503 132.621 60.3955 132.13 60.6789 131.801L61.0027 131.422L61.0887 131.285Z" fill="#263238"/>
<path d="M20.5535 167.863C20.6367 167.891 20.7237 167.907 20.8115 167.909L21.5553 167.995L22.0917 168.045L22.7292 168.142C23.1846 168.207 23.7058 168.278 24.2472 168.4L25.1428 168.582L26.0992 168.82C26.762 168.971 27.4502 169.214 28.1838 169.437C29.7536 169.989 31.2765 170.665 32.7378 171.461C34.1848 172.273 35.5505 173.222 36.8161 174.295C37.3652 174.771 37.8872 175.278 38.3796 175.812C38.8196 176.264 39.2335 176.741 39.6193 177.239C39.9465 177.645 40.2522 178.067 40.5351 178.504C40.7671 178.827 40.9767 179.165 41.1626 179.516L41.5421 180.159C41.6332 180.306 41.6838 180.382 41.6939 180.377C41.6734 180.292 41.6392 180.212 41.5927 180.139L41.2537 179.466C41.0819 179.114 40.8841 178.776 40.6616 178.454C40.3905 178.005 40.0931 177.572 39.7711 177.158C39.3945 176.644 38.9855 176.154 38.5466 175.691C38.0526 175.158 37.5307 174.651 36.9831 174.173C35.7209 173.047 34.3477 172.052 32.8845 171.203C31.4104 170.398 29.8699 169.721 28.28 169.179C27.5412 168.966 26.848 168.729 26.1751 168.587L25.2086 168.359L24.3231 168.212C23.7513 168.096 23.2251 168.04 22.7647 167.99L22.1271 167.914L21.5857 167.889L20.8368 167.858C20.7426 167.846 20.6471 167.848 20.5535 167.863Z" fill="#263238"/>
<path d="M18.5039 131.457C18.6546 131.643 18.8242 131.812 19.0099 131.963L20.5026 133.253C21.7574 134.326 23.5082 135.783 25.4461 137.408C27.3841 139.032 29.1601 140.444 30.4454 141.496L31.9633 142.715C32.1465 142.871 32.3429 143.009 32.5503 143.13C32.3984 142.946 32.2289 142.776 32.0443 142.624L30.5668 141.349C29.3119 140.277 27.5662 138.819 25.6232 137.2C23.6802 135.581 21.9143 134.164 20.6291 133.112L19.1111 131.892C18.9247 131.726 18.7212 131.58 18.5039 131.457Z" fill="#263238"/>
<path d="M16.7332 140.96C16.7332 141.035 20.4876 142.209 25.1579 143.591C29.8283 144.972 33.6435 146.035 33.6637 145.964C33.6839 145.893 29.9143 144.709 25.2389 143.328C20.5635 141.946 16.7635 140.889 16.7332 140.96Z" fill="#263238"/>
<path d="M30.6682 137.175C30.8183 137.01 30.949 136.828 31.0578 136.633L32.0698 135.115C32.9098 133.84 34.0938 132.079 35.5257 130.243C36.9577 128.406 38.3087 126.777 39.3106 125.623L40.5047 124.262C40.663 124.109 40.8038 123.94 40.9247 123.756C40.74 123.885 40.5703 124.034 40.4187 124.201C40.11 124.505 39.68 124.95 39.1588 125.512C38.1114 126.63 36.7199 128.234 35.2981 130.091C33.8762 131.948 32.6972 133.719 31.8927 135.024C31.493 135.677 31.1793 136.213 30.9718 136.588C30.8527 136.774 30.7511 136.97 30.6682 137.175Z" fill="#263238"/>
<path d="M43.7686 142.452C44.0327 142.956 44.3285 143.443 44.654 143.91C45.2208 144.795 45.9848 146.025 46.7742 147.416C47.5635 148.808 48.2365 150.093 48.7071 151.034C48.9401 151.557 49.2071 152.064 49.5065 152.552C49.3518 152.003 49.1434 151.471 48.8841 150.963C48.4541 150.002 47.8114 148.696 47.012 147.295C46.2125 145.893 45.4232 144.674 44.816 143.813C44.5113 143.327 44.1605 142.871 43.7686 142.452Z" fill="#263238"/>
<path d="M48.2515 158.892C48.2515 158.927 48.9902 158.578 50.1692 158.047C51.3481 157.516 52.9926 156.823 54.8496 156.175C56.7066 155.527 58.427 155.036 59.6819 154.718C60.9367 154.399 61.7058 154.212 61.7058 154.186C61.5169 154.179 61.3279 154.197 61.1442 154.242C60.7849 154.298 60.2688 154.394 59.6262 154.53C56.3203 155.254 53.1142 156.375 50.0781 157.87C49.4962 158.158 49.0307 158.406 48.717 158.588C48.5495 158.669 48.3931 158.771 48.2515 158.892Z" fill="#263238"/>
<path d="M44.7249 178.545C44.7249 178.545 44.8008 178.585 44.9576 178.626L45.6356 178.798L48.1656 179.38C50.9316 179.958 53.666 180.68 56.3576 181.54C59.0374 182.436 61.6033 183.642 64.0032 185.133C64.9191 185.715 65.6325 186.231 66.1132 186.6C66.3551 186.802 66.6086 186.989 66.8722 187.162C66.8722 187.162 66.8165 187.091 66.7001 186.98C66.5838 186.868 66.4117 186.706 66.1942 186.514C65.5341 185.961 64.8431 185.446 64.1246 184.971C61.7384 183.42 59.164 182.181 56.4639 181.282C53.7624 180.414 51.0096 179.714 48.2213 179.187L45.6913 178.681C45.3724 178.616 45.0496 178.57 44.7249 178.545Z" fill="#263238"/>
<path d="M31.9636 183.392C32.0395 183.392 32.4696 180.756 32.9756 177.482C33.4816 174.208 33.7852 171.542 33.7093 171.532C33.6334 171.522 33.2033 174.168 32.6973 177.442C32.1913 180.715 31.913 183.382 31.9636 183.392Z" fill="#263238"/>
<path d="M18.676 178.57C19.1068 178.123 19.5074 177.648 19.8752 177.148C20.5937 176.253 21.5855 175.023 22.7139 173.682C23.8422 172.341 24.8795 171.152 25.6385 170.292C26.0731 169.843 26.4787 169.366 26.8529 168.865C26.7105 168.957 26.5812 169.068 26.4683 169.194C26.2356 169.412 25.9117 169.746 25.512 170.16C24.7176 170.99 23.6499 172.184 22.5216 173.505C21.3932 174.826 20.4217 176.101 19.7437 177.047C19.3996 177.513 19.1314 177.892 18.9543 178.155C18.8432 178.28 18.7496 178.42 18.676 178.57Z" fill="#263238"/>
<path d="M53.8376 190.891V197.454H52.1931L46.359 215.872H33.4208L27.7688 197.636L25.5779 197.454V190.891H53.8376Z" fill="#347683"/>
<g opacity="0.3">
<path d="M53.8376 190.891V197.454H52.1931L46.359 215.872H33.4208L27.7688 197.636L25.5779 197.454V190.891H53.8376Z" fill="black"/>
</g>
<path d="M26.6709 197.636C26.6709 197.712 32.3886 197.773 39.4321 197.773C46.4755 197.773 52.1932 197.712 52.1932 197.636C52.1932 197.56 46.4805 197.499 39.4321 197.499C32.3836 197.499 26.6709 197.56 26.6709 197.636Z" fill="#263238"/>
<path d="M17.3655 155.411C17.6353 155.508 17.9129 155.583 18.1953 155.633L20.4672 156.185C22.3799 156.656 25.0212 157.374 27.8598 158.335C30.6984 159.297 33.2436 160.309 35.055 161.088L37.1954 162.024C37.4512 162.153 37.7169 162.261 37.9898 162.348C37.7526 162.187 37.5021 162.046 37.2409 161.928C36.7349 161.675 36.0316 161.326 35.1309 160.916C32.7872 159.849 30.3908 158.901 27.9509 158.077C25.5091 157.256 23.0264 156.562 20.5128 155.998C19.5463 155.785 18.762 155.628 18.2155 155.537C17.9365 155.47 17.652 155.428 17.3655 155.411Z" fill="#263238"/>
<path d="M30.9666 207.862C30.9666 207.938 34.9791 207.999 39.9226 207.999C44.8662 207.999 48.8737 207.938 48.8737 207.862C48.8737 207.786 44.8662 207.725 39.9226 207.725C34.9791 207.725 30.9666 207.786 30.9666 207.862Z" fill="#FAFAFA"/>
<path d="M30.4658 206.339C30.4658 206.415 34.7162 206.476 39.9532 206.476C45.1902 206.476 49.4406 206.415 49.4406 206.339C49.4406 206.263 45.1953 206.202 39.9532 206.202C34.7111 206.202 30.4658 206.263 30.4658 206.339Z" fill="#FAFAFA"/>
<path d="M346.874 215.973C346.874 216.049 269.74 216.11 174.613 216.11C79.4864 216.11 2.33252 216.049 2.33252 215.973C2.33252 215.897 79.4763 215.842 174.603 215.842C269.73 215.842 346.874 215.902 346.874 215.973Z" fill="#263238"/>
<path d="M299.604 23.5186H164.003V107.493H278.155L285.224 123.751L291.488 107.493H299.604V23.5186Z" fill="#FAFAFA"/>
<path d="M299.584 23.5135C299.584 24.3282 299.619 55.8971 299.685 107.508V107.61H291.488L291.584 107.544C289.626 112.639 287.511 118.129 285.325 123.801L285.229 124.059L285.117 123.806C282.901 118.716 280.508 113.206 278.033 107.549L278.14 107.62H174.917H163.871V107.488C163.871 77.5587 163.871 49.1573 163.871 23.4933V23.3769H163.993L299.599 23.4933L163.993 23.6147L164.114 23.4933C164.114 49.1421 164.114 77.5435 164.114 107.488L163.982 107.357H174.902H278.124H278.2L278.231 107.427L285.315 123.69H285.107L291.392 107.448L291.417 107.377H299.584L299.482 107.478C299.584 55.8768 299.584 24.3282 299.584 23.5135Z" fill="#263238"/>
<path d="M299.533 31.7106C299.533 31.8118 269.234 31.8978 231.872 31.8978C194.509 31.8978 164.205 31.8118 164.205 31.7106C164.205 31.6094 194.499 31.5487 231.872 31.5487C269.244 31.5487 299.533 31.6094 299.533 31.7106Z" fill="#263238"/>
<path d="M171.208 28.0067C171.208 28.2271 171.143 28.4425 171.02 28.6257C170.898 28.8088 170.723 28.9515 170.52 29.0356C170.316 29.1197 170.092 29.1415 169.876 29.0981C169.66 29.0547 169.461 28.9482 169.306 28.792C169.15 28.6358 169.045 28.437 169.002 28.2207C168.96 28.0045 168.983 27.7805 169.068 27.5772C169.153 27.3739 169.296 27.2004 169.48 27.0786C169.664 26.9569 169.88 26.8925 170.1 26.8935C170.394 26.8948 170.676 27.0127 170.884 27.2213C171.091 27.43 171.208 27.7123 171.208 28.0067Z" fill="#263238"/>
<path d="M175.231 28.0067C175.231 28.2271 175.165 28.4425 175.043 28.6257C174.92 28.8088 174.746 28.9515 174.542 29.0356C174.339 29.1197 174.115 29.1415 173.899 29.0981C173.682 29.0547 173.484 28.9482 173.329 28.792C173.173 28.6358 173.068 28.437 173.025 28.2207C172.983 28.0045 173.006 27.7805 173.091 27.5772C173.176 27.3739 173.319 27.2004 173.503 27.0786C173.687 26.9569 173.902 26.8925 174.123 26.8935C174.417 26.8948 174.699 27.0127 174.907 27.2213C175.114 27.43 175.231 27.7123 175.231 28.0067Z" fill="#263238"/>
<path d="M179.253 28.0067C179.253 28.2269 179.188 28.4421 179.066 28.6252C178.943 28.8083 178.769 28.9509 178.566 29.0352C178.363 29.1194 178.139 29.1415 177.923 29.0985C177.707 29.0556 177.509 28.9496 177.353 28.7939C177.197 28.6382 177.091 28.4398 177.048 28.2239C177.005 28.008 177.027 27.7841 177.112 27.5807C177.196 27.3773 177.339 27.2035 177.522 27.0812C177.705 26.9588 177.92 26.8936 178.14 26.8936C178.435 26.8936 178.718 27.0108 178.927 27.2196C179.136 27.4284 179.253 27.7115 179.253 28.0067Z" fill="#263238"/>
<path d="M178.793 46.7285L175.575 47.9732L178.793 49.2129V49.9668L174.745 48.3628V47.5887L178.793 45.9796V46.7285Z" fill="#263238"/>
<path d="M182.142 43.5154H182.932L179.936 52.0565H179.157L182.142 43.5154Z" fill="#263238"/>
<path d="M187.253 47.5887V48.3679L183.205 49.9719V49.218L186.433 47.9783L183.205 46.7285V45.9745L187.253 47.5887Z" fill="#263238"/>
<path d="M188.295 50.5791C188.294 50.4977 188.309 50.4168 188.339 50.3413C188.37 50.2658 188.415 50.1972 188.473 50.1396C188.531 50.082 188.599 50.0366 188.675 50.006C188.75 49.9755 188.831 49.9604 188.913 49.9618C188.993 49.9611 189.073 49.9767 189.147 50.0076C189.222 50.0386 189.289 50.0843 189.345 50.142C189.402 50.1996 189.446 50.2681 189.475 50.3432C189.504 50.4184 189.517 50.4986 189.515 50.5791C189.517 50.6601 189.504 50.7409 189.475 50.8165C189.446 50.8922 189.402 50.9613 189.346 51.0198C189.29 51.0783 189.223 51.1249 189.148 51.157C189.074 51.1891 188.994 51.2059 188.913 51.2066C188.831 51.2066 188.75 51.1903 188.674 51.1586C188.598 51.127 188.53 51.0806 188.472 51.0222C188.415 50.9638 188.37 50.8945 188.339 50.8185C188.309 50.7424 188.294 50.661 188.295 50.5791Z" fill="#263238"/>
<path d="M190.36 50.5791C190.358 50.4974 190.372 50.4162 190.403 50.3404C190.433 50.2645 190.478 50.1957 190.536 50.1379C190.594 50.0802 190.663 50.0348 190.738 50.0045C190.814 49.9742 190.895 49.9597 190.977 49.9617C191.057 49.9617 191.137 49.9778 191.21 50.009C191.284 50.0403 191.351 50.0861 191.407 50.1437C191.462 50.2013 191.506 50.2696 191.535 50.3443C191.563 50.4191 191.577 50.499 191.574 50.5791C191.577 50.6596 191.564 50.7399 191.535 50.8153C191.506 50.8907 191.463 50.9595 191.407 51.0179C191.352 51.0764 191.285 51.1231 191.211 51.1555C191.137 51.1879 191.058 51.2052 190.977 51.2065C190.895 51.2072 190.814 51.1914 190.738 51.16C190.662 51.1285 190.593 51.0822 190.535 51.0237C190.478 50.9651 190.433 50.8956 190.402 50.8192C190.372 50.7428 190.358 50.6612 190.36 50.5791Z" fill="#263238"/>
<path d="M192.419 50.5791C192.417 50.4974 192.432 50.4162 192.462 50.3404C192.492 50.2645 192.538 50.1957 192.595 50.1379C192.653 50.0802 192.722 50.0348 192.798 50.0045C192.874 49.9742 192.955 49.9597 193.036 49.9617C193.117 49.9617 193.196 49.9778 193.27 50.009C193.344 50.0403 193.41 50.0861 193.466 50.1437C193.522 50.2013 193.565 50.2696 193.594 50.3443C193.623 50.4191 193.636 50.499 193.634 50.5791C193.636 50.6596 193.623 50.7399 193.594 50.8153C193.566 50.8907 193.522 50.9595 193.467 51.0179C193.411 51.0764 193.344 51.1231 193.27 51.1555C193.197 51.1879 193.117 51.2052 193.036 51.2065C192.954 51.2072 192.873 51.1914 192.797 51.16C192.721 51.1285 192.652 51.0822 192.595 51.0237C192.537 50.9651 192.492 50.8956 192.462 50.8192C192.432 50.7428 192.417 50.6612 192.419 50.5791Z" fill="#263238"/>
<path d="M264.417 58.7256C264.417 58.8268 244.375 58.9077 219.652 58.9077C194.929 58.9077 174.882 58.8268 174.882 58.7256C174.882 58.6244 194.924 58.5383 219.652 58.5383C244.38 58.5383 264.417 58.6193 264.417 58.7256Z" fill="#455A64"/>
<path d="M279.04 58.9887C279.04 59.0899 277.118 59.1759 274.739 59.1759C272.361 59.1759 270.438 59.0899 270.438 58.9887C270.438 58.8875 272.366 58.8015 274.739 58.8015C277.113 58.8015 279.04 58.8723 279.04 58.9887Z" fill="#263238"/>
<path d="M291.614 58.9887C291.614 59.0899 289.509 59.1759 286.919 59.1759C284.328 59.1759 282.218 59.0899 282.218 58.9887C282.218 58.8875 284.323 58.8015 286.919 58.8015C289.514 58.8015 291.614 58.8723 291.614 58.9887Z" fill="#263238"/>
<path d="M231.897 66.27C231.897 66.3712 219.156 66.4521 203.44 66.4521C187.724 66.4521 174.988 66.3712 174.988 66.27C174.988 66.1688 187.724 66.0828 203.44 66.0828C219.156 66.0828 231.897 66.1637 231.897 66.27Z" fill="#455A64"/>
<path d="M231.487 94.4184C231.487 94.5196 218.746 94.6006 203.035 94.6006C187.324 94.6006 174.578 94.5196 174.578 94.4184C174.578 94.3172 187.319 94.2312 203.035 94.2312C218.751 94.2312 231.487 94.3172 231.487 94.4184Z" fill="#455A64"/>
<path d="M252.572 66.27C252.572 66.3712 249.106 66.4521 244.83 66.4521C240.554 66.4521 237.088 66.3712 237.088 66.27C237.088 66.1688 240.554 66.0828 244.83 66.0828C249.106 66.0828 252.572 66.1637 252.572 66.27Z" fill="#263238"/>
<path d="M252.41 94.4184C252.41 94.5196 248.944 94.6006 244.668 94.6006C240.393 94.6006 236.927 94.5196 236.927 94.4184C236.927 94.3172 240.393 94.2312 244.668 94.2312C248.944 94.2312 252.41 94.3172 252.41 94.4184Z" fill="#263238"/>
<path d="M178.722 70.1054C178.722 70.2066 177.862 70.2926 176.799 70.2926C175.737 70.2926 174.882 70.2066 174.882 70.1054C174.882 70.0042 175.742 69.9232 176.799 69.9232C177.857 69.9232 178.722 70.0042 178.722 70.1054Z" fill="#347683"/>
<path d="M191.954 70.1864C191.954 70.2876 190.087 70.3685 187.784 70.3685C185.482 70.3685 183.615 70.2876 183.615 70.1864C183.615 70.0852 185.482 69.9991 187.784 69.9991C190.087 69.9991 191.954 70.0852 191.954 70.1864Z" fill="#263238"/>
<path d="M200.409 70.1864C200.409 70.2876 198.81 70.3685 196.836 70.3685C194.863 70.3685 193.264 70.2876 193.264 70.1864C193.264 70.0852 194.863 69.9991 196.836 69.9991C198.81 69.9991 200.409 70.0852 200.409 70.1864Z" fill="#263238"/>
<path d="M211.146 70.1864C211.146 70.2876 209.517 70.3685 207.508 70.3685C205.499 70.3685 203.865 70.2876 203.865 70.1864C203.865 70.0852 205.494 69.9991 207.508 69.9991C209.522 69.9991 211.146 70.0852 211.146 70.1864Z" fill="#263238"/>
<path d="M220.542 70.1864C220.542 70.2876 219.06 70.3685 217.233 70.3685C215.407 70.3685 213.924 70.2876 213.924 70.1864C213.924 70.0852 215.407 69.9991 217.233 69.9991C219.06 69.9991 220.542 70.0852 220.542 70.1864Z" fill="#263238"/>
<path d="M251.646 70.1864C251.646 70.2876 245.129 70.3685 237.088 70.3685C229.048 70.3685 222.526 70.2876 222.526 70.1864C222.526 70.0852 229.043 69.9991 237.088 69.9991C245.134 69.9991 251.646 70.0852 251.646 70.1864Z" fill="#263238"/>
<path d="M178.191 75.0034C178.191 75.1046 177.452 75.1906 176.536 75.1906C175.62 75.1906 174.882 75.1046 174.882 75.0034C174.882 74.9022 175.62 74.8162 176.536 74.8162C177.452 74.8162 178.191 74.9022 178.191 75.0034Z" fill="#347683"/>
<path d="M178.322 80.033C178.322 80.1342 177.553 80.2202 176.602 80.2202C175.651 80.2202 174.882 80.1342 174.882 80.033C174.882 79.9318 175.651 79.8458 176.602 79.8458C177.553 79.8458 178.322 79.9318 178.322 80.033Z" fill="#347683"/>
<path d="M178.322 85.7254C178.322 85.8266 177.553 85.9076 176.602 85.9076C175.651 85.9076 174.882 85.8266 174.882 85.7254C174.882 85.6242 175.651 85.5382 176.602 85.5382C177.553 85.5382 178.322 85.6192 178.322 85.7254Z" fill="#347683"/>
<path d="M209.689 85.4572C209.689 85.5635 203.941 85.6445 196.852 85.6445C189.763 85.6445 184.015 85.5635 184.015 85.4572C184.015 85.351 189.763 85.2751 196.852 85.2751C203.941 85.2751 209.689 85.356 209.689 85.4572Z" fill="#263238"/>
<path d="M207.442 80.033C207.442 80.1342 201.957 80.2202 195.197 80.2202C188.437 80.2202 182.957 80.1342 182.957 80.033C182.957 79.9318 188.437 79.8458 195.197 79.8458C201.957 79.8458 207.442 79.9318 207.442 80.033Z" fill="#263238"/>
<path d="M266.603 74.7403C266.603 74.8415 247.932 74.9225 224.914 74.9225C201.896 74.9225 183.22 74.8415 183.22 74.7403C183.22 74.6391 201.881 74.5531 224.914 74.5531C247.947 74.5531 266.603 74.6341 266.603 74.7403Z" fill="#263238"/>
<path d="M307.933 57.8604V129.226L296.836 138.48H307.933H309.026H354.869V57.8604H307.933Z" fill="#FAFAFA"/>
<path d="M307.933 57.8604C307.933 57.8604 308.211 57.8604 308.752 57.8604H311.181H320.527L354.869 57.8098H354.97V57.911C354.97 79.4511 354.97 107.584 355 138.531V138.662H346.732H296.836H296.502L296.76 138.445L307.862 129.19L307.816 129.281C307.842 107.944 307.862 90.0921 307.877 77.5688C307.877 71.3198 307.902 66.4015 307.907 63.0417C307.907 61.372 307.907 60.0918 307.907 59.2164C307.907 58.7914 307.907 58.4625 307.907 58.2399C307.907 58.0172 307.907 57.916 307.907 57.916C307.907 57.916 307.907 58.0324 307.907 58.255C307.907 58.4777 307.907 58.8116 307.907 59.267C307.907 60.1424 307.907 61.4327 307.907 63.1126C307.907 66.4774 307.907 71.4058 307.938 77.6599C307.938 90.168 307.968 108.019 307.993 129.302V129.352L307.953 129.388L296.861 138.652L296.781 138.435H346.677H354.813L354.681 138.566C354.681 107.62 354.681 79.4865 354.712 57.9464L354.813 58.0425L320.532 57.9919L311.222 57.8604H308.773H307.933Z" fill="#263238"/>
<path d="M312.198 61.4023C312.198 61.5905 312.142 61.7744 312.038 61.9308C311.933 62.0873 311.785 62.2092 311.611 62.2812C311.437 62.3532 311.246 62.372 311.061 62.3353C310.877 62.2986 310.707 62.208 310.574 62.075C310.441 61.9419 310.351 61.7724 310.314 61.5879C310.277 61.4034 310.296 61.2121 310.368 61.0383C310.44 60.8645 310.562 60.7159 310.718 60.6114C310.875 60.5068 311.059 60.451 311.247 60.451C311.499 60.451 311.741 60.5513 311.92 60.7297C312.098 60.9081 312.198 61.15 312.198 61.4023Z" fill="#263238"/>
<path d="M315.639 61.4023C315.639 61.5905 315.583 61.7744 315.478 61.9308C315.374 62.0873 315.225 62.2092 315.051 62.2812C314.878 62.3532 314.686 62.372 314.502 62.3353C314.317 62.2986 314.148 62.208 314.015 62.075C313.882 61.9419 313.791 61.7724 313.754 61.5879C313.718 61.4034 313.737 61.2121 313.808 61.0383C313.88 60.8645 314.002 60.7159 314.159 60.6114C314.315 60.5068 314.499 60.451 314.687 60.451C314.94 60.451 315.182 60.5513 315.36 60.7297C315.538 60.9081 315.639 61.15 315.639 61.4023Z" fill="#263238"/>
<path d="M319.08 61.4023C319.08 61.5905 319.024 61.7744 318.919 61.9308C318.815 62.0873 318.666 62.2092 318.492 62.2812C318.318 62.3532 318.127 62.372 317.943 62.3353C317.758 62.2986 317.589 62.208 317.456 62.075C317.323 61.9419 317.232 61.7724 317.195 61.5879C317.159 61.4034 317.177 61.2121 317.249 61.0383C317.321 60.8645 317.443 60.7159 317.6 60.6114C317.756 60.5068 317.94 60.451 318.128 60.451C318.381 60.451 318.623 60.5513 318.801 60.7297C318.979 60.9081 319.08 61.15 319.08 61.4023Z" fill="#263238"/>
<path d="M341.966 83.3978C341.966 83.4839 336.015 83.5496 328.678 83.5496C321.341 83.5496 315.391 83.4839 315.391 83.3978C315.391 83.3118 321.336 83.246 328.678 83.246C336.02 83.246 341.966 83.3118 341.966 83.3978Z" fill="#347683"/>
<path d="M347.511 89.8543C347.511 89.9352 340.27 90.0061 331.319 90.0061C322.368 90.0061 315.128 89.9352 315.128 89.8543C315.128 89.7733 322.368 89.7025 331.319 89.7025C340.27 89.7025 347.511 89.7682 347.511 89.8543Z" fill="#347683"/>
<path d="M348.827 113.94C348.827 114.026 341.106 114.091 331.583 114.091C322.06 114.091 314.339 114.026 314.339 113.94C314.339 113.854 322.06 113.788 331.583 113.788C341.106 113.788 348.827 113.859 348.827 113.94Z" fill="#347683"/>
<path d="M317.88 93.1382C316.795 93.3406 315.681 93.3406 314.596 93.1382C315.681 92.9358 316.795 92.9358 317.88 93.1382Z" fill="#347683"/>
<path d="M329.209 93.204C329.209 93.29 327.61 93.3558 325.667 93.3558C323.724 93.3558 322.125 93.29 322.125 93.204C324.499 93.0016 326.886 93.0016 329.26 93.204H329.209Z" fill="#347683"/>
<path d="M336.455 93.2039C336.455 93.2899 335.089 93.3557 333.419 93.3557C331.75 93.3557 330.358 93.2899 330.358 93.2039C332.392 93.0015 334.441 93.0015 336.476 93.2039H336.455Z" fill="#347683"/>
<path d="M317.43 97.3278C316.496 97.5302 315.53 97.5302 314.596 97.3278C315.53 97.1255 316.496 97.1255 317.43 97.3278Z" fill="#347683"/>
<path d="M317.541 101.634C316.57 101.836 315.567 101.836 314.596 101.634C315.567 101.425 316.571 101.425 317.541 101.634Z" fill="#347683"/>
<path d="M317.541 106.502C316.57 106.704 315.567 106.704 314.596 106.502C315.567 106.299 316.57 106.299 317.541 106.502Z" fill="#347683"/>
<path d="M344.384 106.274C344.384 106.36 339.466 106.426 333.399 106.426C327.332 106.426 322.414 106.36 322.414 106.274C322.414 106.188 327.332 106.122 333.399 106.122C339.466 106.122 344.384 106.193 344.384 106.274Z" fill="#347683"/>
<path d="M342.457 101.634C342.457 101.715 337.766 101.786 331.983 101.786C326.199 101.786 321.509 101.715 321.509 101.634C321.509 101.553 326.194 101.477 331.983 101.477C337.771 101.477 342.457 101.548 342.457 101.634Z" fill="#347683"/>
<path d="M319.687 120.371C318.716 120.573 317.713 120.573 316.742 120.371C317.713 120.168 318.716 120.168 319.687 120.371Z" fill="#347683"/>
<path d="M319.687 125.243C318.716 125.446 317.713 125.446 316.742 125.243C317.712 125.034 318.716 125.034 319.687 125.243Z" fill="#347683"/>
<path d="M346.53 125.016C346.53 125.097 341.612 125.168 335.545 125.168C329.478 125.168 324.56 125.097 324.56 125.016C324.56 124.935 329.473 124.864 335.545 124.864C341.617 124.864 346.53 124.93 346.53 125.016Z" fill="#347683"/>
<path d="M344.617 120.371C344.617 120.457 339.926 120.523 334.143 120.523C328.359 120.523 323.664 120.457 323.664 120.371C323.664 120.285 328.354 120.219 334.143 120.219C339.931 120.219 344.617 120.285 344.617 120.371Z" fill="#347683"/>
<path d="M350.249 97.1002C350.249 97.1862 343.863 97.252 335.99 97.252C328.117 97.252 321.731 97.1862 321.731 97.1002C321.731 97.0141 328.117 96.9484 335.99 96.9484C343.863 96.9484 350.249 97.0192 350.249 97.1002Z" fill="#347683"/>
<path d="M354.428 65.1365C354.428 65.2175 344.121 65.2883 331.411 65.2883C318.7 65.2883 308.393 65.2175 308.393 65.1365C308.393 65.0556 318.695 64.9847 331.411 64.9847C344.126 64.9847 354.428 65.0505 354.428 65.1365Z" fill="#263238"/>
<path d="M325.101 79.5067C321.862 79.7091 318.614 79.7091 315.376 79.5067C315.376 79.4207 317.551 79.3549 320.238 79.3549C322.925 79.3549 325.101 79.4207 325.101 79.5067Z" fill="#347683"/>
<path d="M319.596 70.6973C319.596 70.7834 318.584 70.8491 317.304 70.8491C316.023 70.8491 315.011 70.7834 315.011 70.6973C316.533 70.4949 318.074 70.4949 319.596 70.6973Z" fill="#347683"/>
<path d="M77.1487 25.2693H0.0859375V76.8654H77.1487V25.2693Z" fill="white"/>
<path d="M77.1438 76.8705C77.1438 76.8705 77.1438 76.5467 77.1438 75.9294C77.1438 75.3121 77.1438 74.4114 77.1438 73.2071C77.1438 70.8188 77.1438 67.3174 77.1185 62.8292C77.1185 53.8681 77.0831 40.9804 77.0578 25.2693L77.1691 25.3806L0.116378 25.411L0.252997 25.2693C0.252997 43.652 0.252997 61.1341 0.252997 76.8806L0.126498 76.7541L55.6441 76.8149L71.5019 76.8503H75.7219H76.8098H77.1842H76.825H75.7523H71.5576L55.7251 76.8806L0.126498 76.9464H0V76.8199C0 61.0835 0 43.6014 0 25.2086V25.072H0.146738L77.1994 25.1023H77.3107V25.2086C77.2854 40.95 77.2652 53.8579 77.2551 62.8393C77.2551 67.3123 77.2298 70.8087 77.2247 73.1919C77.2247 74.3709 77.2247 75.2766 77.2247 75.8939C77.2247 76.5113 77.1438 76.8705 77.1438 76.8705Z" fill="#E0E0E0"/>
<path d="M0.0859375 29.8739C0.0859375 29.798 17.3201 29.7372 38.5819 29.7372C59.8438 29.7372 77.083 29.798 77.083 29.8739C77.083 29.9498 59.8488 30.0155 38.5819 30.0155C17.315 30.0155 0.0859375 29.9548 0.0859375 29.8739Z" fill="#E0E0E0"/>
<g opacity="0.3">
<path d="M3.12208 27.5513C3.12208 27.7151 3.05704 27.8721 2.94127 27.9878C2.8255 28.1036 2.66848 28.1686 2.50476 28.1686C2.34104 28.1686 2.18403 28.1036 2.06826 27.9878C1.95249 27.8721 1.88745 27.7151 1.88745 27.5513C1.88745 27.3876 1.95249 27.2306 2.06826 27.1148C2.18403 26.9991 2.34104 26.934 2.50476 26.934C2.66848 26.934 2.8255 26.9991 2.94127 27.1148C3.05704 27.2306 3.12208 27.3876 3.12208 27.5513Z" fill="#E0E0E0"/>
</g>
<g opacity="0.3">
<path d="M5.24219 27.5513C5.24219 27.6734 5.20599 27.7928 5.13816 27.8943C5.07033 27.9958 4.97391 28.0749 4.86112 28.1217C4.74832 28.1684 4.6242 28.1806 4.50445 28.1568C4.3847 28.133 4.27471 28.0742 4.18837 27.9878C4.10204 27.9015 4.04325 27.7915 4.01943 27.6718C3.99561 27.552 4.00784 27.4279 4.05456 27.3151C4.10128 27.2023 4.1804 27.1059 4.28192 27.0381C4.38344 26.9702 4.50279 26.934 4.62488 26.934C4.7886 26.934 4.94562 26.9991 5.06139 27.1148C5.17715 27.2306 5.24219 27.3876 5.24219 27.5513Z" fill="#E0E0E0"/>
</g>
<g opacity="0.3">
<path d="M7.32667 27.5513C7.32667 27.6734 7.29046 27.7928 7.22263 27.8943C7.1548 27.9958 7.05839 28.0749 6.94559 28.1217C6.83279 28.1684 6.70867 28.1806 6.58892 28.1568C6.46917 28.133 6.35918 28.0742 6.27285 27.9878C6.18652 27.9015 6.12772 27.7915 6.1039 27.6718C6.08008 27.552 6.09231 27.4279 6.13903 27.3151C6.18575 27.2023 6.26488 27.1059 6.36639 27.0381C6.46791 26.9702 6.58726 26.934 6.70935 26.934C6.87307 26.934 7.03009 26.9991 7.14586 27.1148C7.26163 27.2306 7.32667 27.3876 7.32667 27.5513Z" fill="#E0E0E0"/>
</g>
<path d="M27.2629 35.2576H6.70947V55.8161H27.2629V35.2576Z" fill="#E0E0E0"/>
<path d="M66.5784 41.0664C66.5784 41.1423 58.5584 41.203 48.6713 41.203C38.7842 41.203 30.7642 41.1423 30.7642 41.0664C30.7642 40.9905 38.7842 40.9298 48.6713 40.9298C58.5584 40.9298 66.5784 40.9905 66.5784 41.0664Z" fill="#E0E0E0"/>
<path d="M66.5784 44.8867C66.5784 44.9626 58.5584 45.0233 48.6713 45.0233C38.7842 45.0233 30.7642 44.9626 30.7642 44.8867C30.7642 44.8108 38.7842 44.7501 48.6713 44.7501C58.5584 44.7501 66.5784 44.8108 66.5784 44.8867Z" fill="#E0E0E0"/>
<path d="M66.5784 48.7069C66.5784 48.7828 58.5584 48.8435 48.6713 48.8435C38.7842 48.8435 30.7642 48.7828 30.7642 48.7069C30.7642 48.631 38.7842 48.5703 48.6713 48.5703C58.5584 48.5703 66.5784 48.631 66.5784 48.7069Z" fill="#E0E0E0"/>
<path d="M51.9299 52.5272C51.6553 52.569 51.3777 52.5877 51.1 52.5828L48.8332 52.6233C46.9155 52.6233 44.2792 52.6638 41.3495 52.6638C38.4198 52.6638 35.7836 52.6638 33.8659 52.6233L31.599 52.5828C31.3197 52.5874 31.0404 52.5688 30.7642 52.5272C31.0404 52.4856 31.3197 52.467 31.599 52.4715L33.8659 52.431C35.7786 52.4057 38.4198 52.3906 41.3495 52.3906C44.2792 52.3906 46.9155 52.3906 48.8332 52.431L51.1 52.4715C51.3777 52.4667 51.6553 52.4853 51.9299 52.5272Z" fill="#E0E0E0"/>
<path d="M17.6543 62.7432H7.99487V72.4026H17.6543V62.7432Z" fill="#E0E0E0"/>
<path d="M35.1714 62.7432H25.512V72.4026H35.1714V62.7432Z" fill="#E0E0E0"/>
<path d="M52.6941 62.7432H43.0347V72.4026H52.6941V62.7432Z" fill="#E0E0E0"/>
<path d="M70.2117 62.7432H60.5522V72.4026H70.2117V62.7432Z" fill="#E0E0E0"/>
<path d="M154.9 0.197327H88.5183V27.1617H154.9V0.197327Z" fill="white"/>
<path d="M154.9 27.1617C154.9 27.1617 154.9 26.9947 154.9 26.6557C154.9 26.3167 154.9 25.8664 154.9 25.2541C154.9 24.0246 154.9 22.2182 154.9 19.8906C154.9 15.2355 154.874 8.50575 154.859 0.156858L154.935 0.232757L88.5539 0.263117L88.6551 0.156858C88.6551 9.59869 88.6551 18.7167 88.6551 27.1212L88.5589 27.0201L136.153 27.0656L149.956 27.0959H153.655H149.981L136.198 27.1212L88.5387 27.1718H88.4375V27.0706C88.4375 18.6661 88.4375 9.5481 88.4375 0.106259V0H88.5438L154.925 0.0354194H154.996V0.177098C154.996 8.53105 154.966 15.2759 154.955 19.9412C154.955 22.2586 154.955 24.065 154.955 25.2895C154.955 25.8967 154.955 26.3572 154.955 26.676C154.955 26.9947 154.9 27.1617 154.9 27.1617Z" fill="#E0E0E0"/>
<path d="M88.5842 3.83545C88.5842 3.77473 103.42 3.72919 121.717 3.72919C140.013 3.72919 154.859 3.77473 154.859 3.83545C154.859 3.89616 140.024 3.9417 121.717 3.9417C103.41 3.9417 88.5842 3.8911 88.5842 3.83545Z" fill="#E0E0E0"/>
<g opacity="0.3">
<path d="M91.3623 2.20109C91.3621 2.29506 91.3345 2.38693 91.2827 2.46533C91.2309 2.54374 91.1573 2.60526 91.0709 2.64227C90.9845 2.67927 90.8892 2.69016 90.7967 2.67357C90.7042 2.65698 90.6186 2.61365 90.5505 2.54893C90.4824 2.48421 90.4347 2.40094 90.4134 2.30942C90.3921 2.21791 90.3981 2.12215 90.4306 2.03399C90.4631 1.94584 90.5208 1.86915 90.5965 1.81342C90.6721 1.75768 90.7624 1.72534 90.8563 1.7204C90.9862 1.72024 91.1112 1.77006 91.2054 1.85955C91.2996 1.94903 91.3558 2.07133 91.3623 2.20109Z" fill="#EBEBEB"/>
</g>
<g opacity="0.3">
<path d="M93.0117 2.20109C93.0117 2.29616 92.9835 2.3891 92.9307 2.46815C92.8778 2.5472 92.8028 2.60881 92.7149 2.6452C92.6271 2.68158 92.5305 2.6911 92.4372 2.67255C92.344 2.654 92.2583 2.60822 92.1911 2.54099C92.1239 2.47377 92.0781 2.38812 92.0595 2.29487C92.041 2.20163 92.0505 2.10497 92.0869 2.01714C92.1233 1.9293 92.1849 1.85423 92.2639 1.80141C92.343 1.74859 92.4359 1.7204 92.531 1.7204C92.6565 1.72653 92.7752 1.77914 92.8641 1.868C92.9529 1.95685 93.0055 2.07559 93.0117 2.20109Z" fill="#EBEBEB"/>
</g>
<g opacity="0.3">
<path d="M94.1604 2.68679C94.4259 2.68679 94.6411 2.47157 94.6411 2.2061C94.6411 1.94062 94.4259 1.7254 94.1604 1.7254C93.8949 1.7254 93.6797 1.94062 93.6797 2.2061C93.6797 2.47157 93.8949 2.68679 94.1604 2.68679Z" fill="#EBEBEB"/>
</g>
<path d="M110.195 8.21735H94.1602V24.2523H110.195V8.21735Z" fill="#E0E0E0"/>
<path d="M150.315 12.5132C150.315 12.574 142.063 12.6195 131.887 12.6195C121.711 12.6195 113.459 12.574 113.459 12.5132C113.459 12.4525 121.711 12.407 131.887 12.407C142.063 12.407 150.315 12.4576 150.315 12.5132Z" fill="#E0E0E0"/>
<path d="M150.315 15.7819C150.315 15.8376 142.063 15.8831 131.887 15.8831C121.711 15.8831 113.459 15.8376 113.459 15.7819C113.459 15.7263 121.711 15.6757 131.887 15.6757C142.063 15.6757 150.315 15.7212 150.315 15.7819Z" fill="#E0E0E0"/>
<path d="M137.16 19.0456C137.079 19.0577 136.998 19.0577 136.917 19.0456H136.229L133.699 19.081L125.315 19.1113L116.92 19.1215L114.39 19.086H113.697C113.616 19.0977 113.535 19.0977 113.454 19.086C113.535 19.0776 113.616 19.0776 113.697 19.086H114.39L116.92 19.0557L125.31 19.0203L133.694 19.0557L136.224 19.086H136.912C136.993 19.0632 137.076 19.0497 137.16 19.0456Z" fill="#E0E0E0"/>
<path d="M333.991 36.1836C334.098 36.0256 334.224 35.8812 334.365 35.7535C334.664 35.46 335.028 35.0906 335.458 34.6605C336.384 33.7396 337.68 32.4848 339.122 31.1186L339.157 31.0882V31.2704C337.705 29.9244 336.399 28.6949 335.468 27.7942L334.37 26.7215C334.229 26.5961 334.101 26.4553 333.991 26.3015C334.153 26.3977 334.302 26.5132 334.436 26.6456L335.59 27.6576C336.551 28.5228 337.877 29.7322 339.329 31.0781L339.43 31.1742L339.329 31.2653L339.299 31.2957C337.857 32.672 336.541 33.9066 335.58 34.787L334.436 35.8294C334.299 35.961 334.15 36.0795 333.991 36.1836Z" fill="#E0E0E0"/>
<path d="M322.793 26.2965C322.684 26.4508 322.558 26.5932 322.419 26.7215L321.341 27.8195C320.415 28.7354 319.12 29.9903 317.678 31.3615L317.642 31.3919V31.2046C319.095 32.5556 320.4 33.7852 321.331 34.6859L322.429 35.7586C322.572 35.8824 322.7 36.0234 322.809 36.1786C322.648 36.0792 322.498 35.9621 322.363 35.8294L321.21 34.8174C320.248 33.9522 318.923 32.7429 317.47 31.3919L317.369 31.3008L317.47 31.2097L317.501 31.1743C318.943 29.803 320.258 28.5684 321.22 27.6829L322.353 26.6507C322.485 26.5154 322.633 26.3965 322.793 26.2965Z" fill="#E0E0E0"/>
<path d="M325.673 38.5112C325.607 38.4859 326.781 35.1817 328.299 31.1287C329.817 27.0757 331.097 23.807 331.163 23.8323C331.228 23.8576 330.049 27.1617 328.536 31.2147C327.024 35.2677 325.738 38.5365 325.673 38.5112Z" fill="#E0E0E0"/>
<path d="M346.737 45.585C346.737 45.585 346.737 45.3927 346.737 45.0335C346.737 44.6742 346.737 44.1328 346.737 43.4446C346.737 42.0481 346.737 40.0089 346.737 37.4183C346.737 32.2318 346.707 24.819 346.682 15.8832L346.788 15.9894H310.356L310.483 15.8629C310.483 26.6001 310.483 36.7402 310.483 45.5648L310.371 45.4534L336.683 45.5091L344.141 45.5395H346.125H346.813H346.646H346.14H344.182L336.744 45.5698L310.346 45.6255H310.235V45.5091C310.235 36.6846 310.235 26.5445 310.235 15.8073V15.6808H310.366H346.798H346.904V15.8629C346.904 24.8241 346.864 32.2622 346.849 37.4638C346.849 40.0494 346.849 42.0734 346.849 43.4649C346.849 44.148 346.849 44.6742 346.849 45.0385C346.849 45.4028 346.737 45.585 346.737 45.585Z" fill="#E0E0E0"/>
<path d="M347.026 20.2903C347.026 20.3612 338.793 20.4168 328.643 20.4168C318.493 20.4168 310.265 20.3612 310.265 20.2903C310.265 20.2195 318.493 20.1638 328.643 20.1638C338.793 20.1638 347.026 20.2195 347.026 20.2903Z" fill="#E0E0E0"/>
<path d="M313.245 18.1196C313.245 18.2197 313.216 18.3175 313.16 18.4008C313.105 18.484 313.025 18.5488 312.933 18.5871C312.841 18.6254 312.739 18.6354 312.641 18.6159C312.543 18.5964 312.452 18.5482 312.382 18.4774C312.311 18.4067 312.263 18.3165 312.243 18.2184C312.224 18.1202 312.234 18.0185 312.272 17.926C312.31 17.8335 312.375 17.7545 312.458 17.6989C312.541 17.6433 312.639 17.6136 312.739 17.6136C312.874 17.6136 313.002 17.667 313.097 17.7618C313.192 17.8567 313.245 17.9854 313.245 18.1196Z" fill="#E0E0E0"/>
<path d="M315.047 18.1196C315.047 18.2197 315.017 18.3175 314.961 18.4008C314.906 18.484 314.827 18.5488 314.734 18.5871C314.642 18.6254 314.54 18.6354 314.442 18.6159C314.344 18.5964 314.254 18.5482 314.183 18.4774C314.112 18.4067 314.064 18.3165 314.044 18.2184C314.025 18.1202 314.035 18.0185 314.073 17.926C314.111 17.8335 314.176 17.7545 314.26 17.6989C314.343 17.6433 314.441 17.6136 314.541 17.6136C314.675 17.6136 314.804 17.667 314.898 17.7618C314.993 17.8567 315.047 17.9854 315.047 18.1196Z" fill="#E0E0E0"/>
<path d="M316.833 18.1196C316.833 18.2197 316.803 18.3175 316.748 18.4008C316.692 18.484 316.613 18.5488 316.52 18.5871C316.428 18.6254 316.326 18.6354 316.228 18.6159C316.13 18.5964 316.04 18.5482 315.969 18.4774C315.898 18.4067 315.85 18.3165 315.831 18.2184C315.811 18.1202 315.821 18.0185 315.859 17.926C315.898 17.8335 315.962 17.7545 316.046 17.6989C316.129 17.6433 316.227 17.6136 316.327 17.6136C316.461 17.6136 316.59 17.667 316.685 17.7618C316.779 17.8567 316.833 17.9854 316.833 18.1196Z" fill="#E0E0E0"/>
<path d="M338.337 176.212C340.442 175.124 342.927 174.983 345.265 175.372C346.519 175.58 347.83 175.954 348.685 176.89C349.54 177.826 349.697 179.491 348.72 180.306C348.086 180.731 347.325 180.924 346.565 180.852C344.733 180.852 342.699 180.508 341.237 181.611C340.402 182.239 339.85 183.281 338.849 183.59C338.349 183.706 337.826 183.656 337.357 183.447C336.889 183.239 336.501 182.884 336.253 182.436C335.779 181.518 335.674 180.454 335.959 179.461C336.08 178.773 336.358 178.123 336.77 177.559C337.182 176.996 337.719 176.535 338.337 176.212Z" fill="#EBEBEB"/>
<path d="M333.511 166.897C334.801 168.734 337.305 168.126 338.464 167.003C339.623 165.88 340.114 164.251 340.564 162.702C341.576 159.16 342.588 155.436 341.854 151.823C341.67 150.728 341.189 149.704 340.463 148.863C340.097 148.447 339.628 148.134 339.103 147.956C338.578 147.778 338.016 147.742 337.472 147.851C336.207 148.185 335.448 149.42 334.856 150.594C333.186 154.068 332.312 157.871 332.296 161.726C332.296 163.517 332.499 165.394 333.511 166.877" fill="#EBEBEB"/>
<path d="M329.974 169.533C331.37 167.873 331.638 165.455 331.016 163.375C330.31 161.309 329.048 159.478 327.368 158.083C325.461 156.386 323.242 155.076 320.835 154.227C319.903 153.849 318.901 153.677 317.896 153.721C317.391 153.753 316.903 153.909 316.472 154.173C316.042 154.438 315.683 154.804 315.426 155.239C314.743 156.549 315.426 158.143 316.115 159.439C317.371 161.727 318.806 163.913 320.405 165.976C321.691 167.631 323.163 169.27 325.126 170.024C327.09 170.778 329.124 170.687 330.161 169.326" fill="#EBEBEB"/>
<path d="M333.424 194.651C333.491 194.375 333.53 194.094 333.541 193.811C333.601 193.204 333.672 192.439 333.763 191.529C333.854 190.618 334.011 189.429 334.269 188.184C334.57 186.837 334.978 185.515 335.489 184.232C335.991 182.952 336.673 181.749 337.513 180.66C338.19 179.776 339.054 179.052 340.043 178.54C340.72 178.205 341.446 177.98 342.193 177.872C342.473 177.861 342.752 177.821 343.023 177.75C342.742 177.723 342.459 177.723 342.178 177.75C341.402 177.808 340.643 178.005 339.936 178.332C338.889 178.828 337.969 179.559 337.25 180.468C336.375 181.574 335.669 182.803 335.155 184.116C334.638 185.416 334.236 186.759 333.951 188.128C333.734 189.248 333.585 190.381 333.505 191.519C333.434 192.49 333.404 193.274 333.389 193.816C333.37 194.095 333.382 194.374 333.424 194.651Z" fill="#E0E0E0"/>
<path d="M333.581 192.895C333.596 192.765 333.596 192.635 333.581 192.505V191.397C333.581 190.431 333.581 189.039 333.632 187.319C333.713 183.878 334.011 180.174 334.583 174.957C335.124 170.049 335.853 164.332 336.607 160.618C336.769 159.773 336.936 159.014 337.113 158.351C337.29 157.688 337.386 157.106 337.508 156.64C337.629 156.175 337.7 155.846 337.771 155.563C337.808 155.438 337.83 155.308 337.837 155.178C337.781 155.295 337.735 155.417 337.7 155.542C337.619 155.819 337.513 156.173 337.381 156.605C337.24 157.071 337.093 157.617 336.926 158.305C336.759 158.993 336.567 159.727 336.384 160.567C335.434 164.96 334.72 169.4 334.244 173.869C333.672 179.101 333.414 183.868 333.389 187.314C333.389 189.039 333.389 190.436 333.45 191.397C333.48 191.847 333.5 192.217 333.52 192.505C333.528 192.637 333.548 192.767 333.581 192.895Z" fill="#E0E0E0"/>
<path d="M333.607 183.706C333.632 183.32 333.632 182.933 333.607 182.547C333.566 181.803 333.46 180.726 333.252 179.41C333 177.874 332.662 176.354 332.24 174.856C331.742 173.005 331.103 171.195 330.328 169.442C328.999 166.211 327.096 163.247 324.711 160.693C324.298 160.257 323.857 159.848 323.391 159.469C323.188 159.297 323.006 159.125 322.824 158.988L322.318 158.634C322.01 158.401 321.683 158.193 321.341 158.012C322.465 158.896 323.533 159.849 324.539 160.865C326.847 163.437 328.699 166.383 330.014 169.579C330.776 171.321 331.42 173.113 331.942 174.942C332.364 176.426 332.71 177.931 332.979 179.451C333.222 180.756 333.359 181.819 333.445 182.557C333.466 182.944 333.52 183.328 333.607 183.706Z" fill="#E0E0E0"/>
<path d="M324.727 199.913L325.647 212.522H341.849L342.77 199.913H324.727Z" fill="#E0E0E0"/>
<path d="M344.698 194.939H323.158V199.908H344.698V194.939Z" fill="#E0E0E0"/>
<path d="M323.158 212.042V213.418H324.17H344.344V212.042H323.158Z" fill="#EBEBEB"/>
<path d="M325.161 215.847L324.17 213.418H343.575L342.416 215.847H325.161Z" fill="#E0E0E0"/>
<path d="M342.467 204.032C342.467 204.032 342.467 204.077 342.391 204.148L342.148 204.472L341.207 205.676L341.166 205.732L341.121 205.676C340.529 204.857 339.739 203.759 338.803 202.468H338.94L336.653 205.702L336.582 205.803L336.501 205.707L333.794 202.488H333.951L333.804 202.676L331.38 205.712L331.299 205.813L331.229 205.707C330.404 204.543 329.635 203.46 328.941 202.473H329.073L326.265 205.676L326.214 205.732L326.174 205.671L325.293 204.189L325.066 203.794C325.039 203.751 325.017 203.705 325 203.657C325 203.657 325.035 203.693 325.091 203.779L325.344 204.158L326.27 205.61H326.179L328.947 202.367L329.017 202.286L329.078 202.372L331.385 205.59H331.229L333.647 202.554L333.794 202.367L333.87 202.271L333.951 202.367L336.648 205.595H336.521L338.829 202.377L338.899 202.286L338.965 202.377L341.232 205.621H341.151L342.133 204.442L342.396 204.138C342.416 204.1 342.439 204.064 342.467 204.032Z" fill="#F5F5F5"/>
<path d="M342.993 199.827C342.993 199.883 338.945 199.928 333.925 199.928C328.906 199.928 324.858 199.883 324.858 199.827C324.858 199.771 328.906 199.726 333.925 199.726C338.945 199.726 342.993 199.771 342.993 199.827Z" fill="#F5F5F5"/>
<path d="M343.812 213.555C343.812 213.61 339.4 213.656 333.961 213.656C328.521 213.656 324.104 213.61 324.104 213.555C324.104 213.499 328.516 213.453 333.961 213.453C339.405 213.453 343.812 213.499 343.812 213.555Z" fill="#F5F5F5"/>
<path d="M293.636 186.626C316.334 186.59 324.362 179.122 327.084 156.155C324.279 144.081 319.263 141.405 316.223 139.323C317.252 128.138 315.273 128.141 315.273 128.141C305.546 144.409 301.29 130.544 290.638 146.515C283.746 133.852 272.282 141.027 266.313 128.218C266.313 128.218 264.208 131.049 265.546 138.657C259.616 142.245 257.906 146.721 255.025 156.269C256.527 177.439 268.962 188.305 293.636 186.626Z" fill="#6DDBE8"/>
<path d="M290.77 146.513C294.539 140.646 298.668 137.851 305.264 136.947C298.633 135.752 293.527 140.397 290.757 140.848C287.987 141.299 283.221 135.045 276.496 136.992C282.964 138.026 287.684 141.777 290.77 146.513Z" fill="#48929A"/>
<path d="M311.171 179.585C301.159 187.056 287.104 190.651 265.246 179.657C259.368 205.164 273.775 214.684 291.722 214.656C309.67 214.627 328.24 198.793 311.171 179.585Z" fill="#6DDBE8"/>
<path d="M279.059 216.912C278.003 216.616 276.939 213.337 277.858 211.099C278.758 210.154 279.703 210.202 281.025 211.094C281.035 215.418 280.116 217.209 279.059 216.912Z" fill="#F99224"/>
<path d="M282.449 217.298C281.393 217.002 280.33 213.723 281.248 211.485C282.149 210.54 283.093 210.587 284.415 211.48C284.425 215.804 283.506 217.595 282.449 217.298Z" fill="#F99224"/>
<path d="M285.924 217.796C284.894 217.526 283.776 214.058 284.672 212.016C285.549 211.153 286.47 211.197 287.757 212.011C288.03 215.855 286.953 218.067 285.924 217.796Z" fill="#F99224"/>
<path d="M302.896 216.992C303.923 216.691 304.944 213.397 304.039 211.153C303.157 210.208 302.237 210.258 300.953 211.158C300.963 215.499 301.868 217.293 302.896 216.992Z" fill="#F7921E"/>
<path d="M299.465 217.296C300.493 216.995 301.513 213.701 300.608 211.457C299.726 210.511 298.806 210.562 297.522 211.462C297.532 215.802 298.437 217.597 299.465 217.296Z" fill="#F7921E"/>
<path d="M295.979 217.907C297 217.628 298.093 214.088 297.195 212.008C296.319 211.132 295.406 211.179 294.132 212.013C293.879 215.933 294.959 218.186 295.979 217.907Z" fill="#F7921E"/>
<path d="M336.551 163.549C328.139 177.145 321.421 178.143 308.666 182.527C308.726 208.046 334.989 189.894 338.226 184.95C341.462 180.006 328.492 189.081 330.431 184.962C334.322 182.486 342.083 168.068 338.196 172.602C334.31 177.136 330.415 178.377 330.415 178.377C332.812 172.586 341.09 160.248 336.551 163.549Z" fill="#48929A"/>
<path d="M260.176 205.205C254.71 189.99 262.178 176.821 266.177 179.86C273.589 186.313 261.961 194.272 274.864 207.355C271.259 206.716 268.749 205.092 266.617 201.087C266.617 201.087 266.356 204.576 268.855 206.476C271.354 208.375 265.846 207.875 263.61 201.261C260.033 196.903 268.245 215.434 260.176 205.205Z" fill="#48929A"/>
<ellipse cx="14.7803" cy="16.7001" rx="14.7803" ry="16.7001" transform="matrix(0.999999 -0.00157418 0.00235806 0.999997 261.589 141.645)" fill="white"/>
<ellipse cx="14.7803" cy="16.7001" rx="14.7803" ry="16.7001" transform="matrix(0.999999 -0.00157418 0.00235806 0.999997 290.886 141.599)" fill="#FEFFFF"/>
<ellipse cx="10.5573" cy="11.9287" rx="10.5573" ry="11.9287" transform="matrix(0.999999 -0.00157418 0.00235806 0.999997 295.12 146.364)" fill="#120C0E"/>
<ellipse cx="3.959" cy="4.47325" rx="3.959" ry="4.47325" transform="matrix(0.999999 -0.00157418 0.00235806 0.999997 306.738 148.433)" fill="#FEFFFF"/>
<ellipse cx="10.5573" cy="11.9287" rx="10.5573" ry="11.9287" transform="matrix(0.999999 -0.00157418 0.00235806 0.999997 266.087 146.409)" fill="#120C0E"/>
<ellipse cx="3.959" cy="4.47325" rx="3.959" ry="4.47325" transform="matrix(0.999999 -0.00157418 0.00235806 0.999997 278.233 148.478)" fill="#FEFFFF"/>
<path d="M277.756 192.659L275.102 185.161L282.327 186.463L277.756 192.659Z" fill="#48929A"/>
<path d="M290.016 193.607L286.3 187.363L293.556 187.244L290.016 193.607Z" fill="#48929A"/>
<path d="M285.813 201.665L282.097 195.421L289.353 195.302L285.813 201.665Z" fill="#48929A"/>
<path d="M302.748 192.164L297.622 187.36L304.549 184.927L302.748 192.164Z" fill="#48929A"/>
<path d="M298.545 200.222L293.418 195.419L300.346 192.985L298.545 200.222Z" fill="#48929A"/>
<path d="M291.063 160.386C291.037 160.741 290.993 161.098 290.932 161.456C291.452 164.381 295.892 171.702 296.577 171.459L296.631 171.412C296.617 171.436 296.599 171.451 296.577 171.459L291.495 175.893L285.417 171.432C285.416 171.431 285.415 171.43 285.414 171.429L285.417 171.432C285.924 171.788 290.074 166.519 290.932 161.456C290.841 160.942 290.87 160.564 291.063 160.386Z" fill="#F6931E"/>
<path d="M273.806 137.207V131.091L290.171 134.504L306.362 131.091V137.207L291.912 141.19L273.806 137.207Z" fill="#0F0B0C"/>
<path d="M289.997 136.496L258.312 128.246L289.997 119L321.681 128.246L289.997 136.496Z" fill="#0F0B0C"/>
<path d="M311.933 143.892C309.495 143.323 313.5 135.785 312.281 128.957L314.022 128.53C313.674 135.642 316.807 142.897 314.892 143.892H311.933Z" fill="#0F0B0C"/>
<ellipse cx="313.325" cy="132.94" rx="2.0891" ry="1.7069" fill="#0F0B0C"/>
</svg>
