<svg width="318" height="227" viewBox="0 0 318 227" fill="none" xmlns="http://www.w3.org/2000/svg">
<path d="M43.9929 29.8959C103.921 -22.3348 168.212 69.8892 236.67 68.3226C280.778 67.3176 327.227 92.9098 316.414 146.281C300.689 223.903 175.926 214.462 110.093 192.529C44.259 170.597 -9.07727 76.1617 43.9929 29.8959Z" fill="#F0F0F0"/>
<path d="M29.2315 204.294C36.6094 199.464 38.4835 190.212 38.4066 181.829C38.4066 180.434 38.584 178.968 37.9396 177.726C37.2952 176.485 35.7522 175.616 34.4694 176.171C33.4112 176.633 32.9264 177.827 32.3116 178.808C31.4918 180.122 30.3176 181.177 28.9241 181.853C28.0137 182.29 26.8964 182.544 26.0214 182.042C24.839 181.35 24.7149 179.677 24.7563 178.3C24.839 175.714 24.9179 173.131 24.9928 170.549C25.1139 169.162 25.0061 167.764 24.6735 166.411C24.4972 165.741 24.1632 165.124 23.6994 164.609C23.2355 164.095 22.6553 163.699 22.0073 163.455C20.6771 163.053 19.01 163.774 18.6908 165.122C18.6246 165.695 18.597 166.272 18.608 166.849C18.6092 167.138 18.5244 167.421 18.3644 167.662C18.2044 167.903 17.9765 168.091 17.7094 168.202C17.4188 168.229 17.1263 168.181 16.8593 168.063C16.5924 167.945 16.36 167.761 16.1842 167.528C14.8382 166.023 13.7478 164.308 12.9563 162.45C12.1661 160.595 11.1579 158.841 9.95315 157.224C8.6762 155.663 6.88493 154.41 4.87492 154.268C2.86491 154.126 0.695278 155.285 0.145481 157.224C-0.404316 159.163 0.695278 161.179 1.91902 162.787C3.7301 165.185 5.87865 167.307 8.29784 169.089C8.76885 169.361 9.14148 169.775 9.36197 170.271C9.63982 171.206 8.72941 172.098 7.80126 172.382C6.74304 172.701 5.60798 172.565 4.5143 172.666C3.42062 172.766 2.21461 173.216 1.77713 174.226C1.18595 175.633 2.33284 177.147 3.48564 178.146C5.81091 180.156 8.4619 181.756 11.3247 182.875C12.3803 183.191 13.3699 183.696 14.2451 184.365C15.0609 185.098 15.5339 186.357 15.0077 187.321C14.4816 188.285 13.181 188.568 12.0991 188.344C11.056 188.033 10.0413 187.634 9.06638 187.15C7.15096 186.387 4.65618 186.458 3.37923 188.078C2.98492 188.631 2.726 189.269 2.62332 189.941C2.52064 190.612 2.57706 191.298 2.78805 191.944C3.22961 193.228 3.92526 194.411 4.83353 195.42C7.81464 199.131 11.7246 201.986 16.1664 203.697C20.6062 205.34 24.7504 205.855 29.2374 204.353" fill="#347683"/>
<path d="M2.21436 155.397L2.35032 155.533L2.75824 155.906C3.11886 156.237 3.64501 156.722 4.31304 157.366C6.19824 159.182 7.94511 161.137 9.53907 163.213C10.55 164.519 11.6023 166.003 12.7019 167.611C13.8015 169.219 14.9543 170.957 16.1071 172.82C17.3229 174.759 18.4301 176.764 19.4236 178.826C19.9438 179.896 20.399 181.019 20.8602 182.16C21.3213 183.301 21.7942 184.46 22.2672 185.636C24.0796 190.029 25.6409 194.521 26.9434 199.092C27.9916 202.829 28.6824 206.657 29.0066 210.525C29.2186 213.133 29.1988 215.754 28.9475 218.358C28.8529 219.274 28.7642 219.99 28.6874 220.475C28.6519 220.705 28.6283 220.888 28.6046 221.024C28.6006 221.087 28.6006 221.15 28.6046 221.213C28.6245 221.154 28.6403 221.092 28.6519 221.03C28.6519 220.894 28.711 220.711 28.7524 220.48C28.847 220.002 28.9534 219.298 29.0657 218.37C29.3555 215.761 29.403 213.131 29.2076 210.513C28.9106 206.63 28.2355 202.785 27.1917 199.032C25.8983 194.447 24.3409 189.941 22.5273 185.536C22.0465 184.353 21.5775 183.197 21.1203 182.066C20.6532 180.925 20.1921 179.795 19.6719 178.714C18.6686 176.645 17.5515 174.634 16.3258 172.689C15.1435 170.827 13.9966 169.101 12.897 167.493C11.7974 165.885 10.7273 164.407 9.69869 163.101C8.08101 161.028 6.30192 159.087 4.37807 157.295C3.69821 156.663 3.15433 156.184 2.78189 155.87L2.36215 155.51C2.26756 155.433 2.22027 155.392 2.21436 155.397Z" fill="#263238"/>
<path d="M19.5834 178.702C19.6537 178.51 19.7032 178.312 19.7312 178.11C19.814 177.726 19.9204 177.176 20.0327 176.485C20.2633 175.107 20.5234 173.198 20.7953 171.093C21.0673 168.989 21.351 167.085 21.6052 165.713C21.7294 165.034 21.8358 164.478 21.9126 164.094C21.966 163.901 21.9978 163.702 22.0072 163.502C21.9177 163.691 21.8522 163.889 21.8121 164.094C21.7057 164.466 21.5698 165.016 21.422 165.696C21.1264 167.061 20.8308 168.965 20.5411 171.075C20.2514 173.186 20.0327 175.036 19.8553 176.479C19.7667 177.123 19.6898 177.661 19.6366 178.11C19.5961 178.305 19.5782 178.503 19.5834 178.702Z" fill="#263238"/>
<path d="M1.60596 174.942C1.84073 174.998 2.08022 175.031 2.32128 175.042C2.7824 175.095 3.45635 175.166 4.27809 175.285C5.92748 175.497 8.19761 175.876 10.6806 176.396C13.1635 176.916 15.41 177.502 16.9884 177.957C17.7925 178.181 18.4368 178.382 18.8802 178.518C19.1078 178.603 19.3436 178.665 19.5837 178.702C19.3678 178.594 19.1446 178.501 18.9157 178.424C18.4782 178.258 17.8398 178.034 17.0417 177.785C15.4514 177.277 13.2226 176.674 10.7338 176.148C8.60874 175.691 6.462 175.342 4.30174 175.101C3.46818 175.007 2.79423 174.965 2.33311 174.948C2.09154 174.921 1.84792 174.919 1.60596 174.942Z" fill="#263238"/>
<path d="M26.9614 198.695C27.0139 198.631 27.0576 198.559 27.0915 198.483L27.4166 197.844C27.6945 197.288 28.0788 196.479 28.5399 195.479C29.4621 193.458 30.6445 190.626 31.9037 187.487C33.1629 184.348 34.3275 181.504 35.2025 179.47L36.2489 177.058L36.5326 176.402C36.5917 176.248 36.6213 176.166 36.6095 176.166C36.5608 176.232 36.5192 176.303 36.4853 176.378L36.1602 177.017C35.8764 177.573 35.4981 178.383 35.0369 179.382C34.1147 181.403 32.9323 184.235 31.6672 187.374C30.4021 190.514 29.2493 193.357 28.3684 195.391C27.9428 196.384 27.5881 197.2 27.322 197.803L27.0442 198.459C27.0065 198.534 26.9787 198.613 26.9614 198.695Z" fill="#263238"/>
<path d="M3.1543 190.49C3.1543 190.49 3.23115 190.537 3.38486 190.596L4.07654 190.839L6.63043 191.725C8.78233 192.47 11.7441 193.535 15.0134 194.717C18.2826 195.899 21.2562 196.934 23.4258 197.637C24.5136 197.992 25.3886 198.264 26.0034 198.441L26.7069 198.642C26.8724 198.69 26.9611 198.707 26.9611 198.696C26.8859 198.654 26.8067 198.62 26.7246 198.595L26.0329 198.347L23.485 197.466C21.3331 196.721 18.3713 195.657 15.102 194.474C11.8328 193.292 8.85327 192.252 6.68955 191.548C5.60178 191.199 4.72092 190.921 4.11201 190.744L3.40259 190.543C3.3218 190.517 3.23862 190.499 3.1543 190.49Z" fill="#263238"/>
<path d="M269.138 141.913L233.472 141.747C232.451 141.745 231.441 141.541 230.499 141.147C229.557 140.753 228.703 140.177 227.984 139.452C227.266 138.727 226.698 137.867 226.312 136.922C225.927 135.976 225.732 134.964 225.739 133.943L226.118 44.7758C226.123 43.7568 226.329 42.7487 226.725 41.8094C227.12 40.87 227.696 40.0178 228.421 39.3013C229.146 38.5848 230.004 38.0182 230.948 37.6338C231.892 37.2494 232.902 37.0547 233.921 37.0609L269.587 37.2206C271.644 37.2284 273.614 38.0519 275.065 39.5104C276.516 40.9689 277.329 42.9433 277.326 45.0005L276.947 134.174C276.944 135.195 276.74 136.206 276.345 137.148C275.951 138.09 275.374 138.945 274.649 139.664C273.923 140.383 273.063 140.952 272.117 141.338C271.172 141.723 270.159 141.919 269.138 141.913Z" fill="#455A64"/>
<path d="M269.54 40.3243H262.623C262.399 40.3274 262.176 40.3749 261.97 40.464C261.763 40.553 261.577 40.682 261.42 40.8435C261.264 41.005 261.14 41.1958 261.058 41.405C260.975 41.6141 260.935 41.8375 260.939 42.0624V43.3157C260.943 43.7695 260.769 44.207 260.454 44.5334C260.139 44.8597 259.707 45.0488 259.254 45.0597L245.769 44.9947C245.542 44.9893 245.319 44.939 245.113 44.8467C244.906 44.7544 244.719 44.6218 244.564 44.4568C244.409 44.2918 244.288 44.0975 244.209 43.8854C244.129 43.6733 244.093 43.4475 244.102 43.2211V41.956C244.11 41.7299 244.073 41.5044 243.993 41.2926C243.913 41.0808 243.793 40.8869 243.638 40.722C243.483 40.5572 243.297 40.4246 243.09 40.332C242.884 40.2394 242.661 40.1886 242.435 40.1825H239.999H233.945C233.232 40.1786 232.525 40.3152 231.864 40.5847C231.203 40.8541 230.602 41.251 230.095 41.7528C229.588 42.2546 229.184 42.8513 228.908 43.509C228.631 44.1666 228.487 44.8724 228.483 45.5858L228.11 132.625C228.107 134.067 228.676 135.45 229.693 136.472C230.709 137.494 232.09 138.071 233.531 138.076L269.126 138.241C270.567 138.248 271.952 137.683 272.977 136.67C274.002 135.657 274.584 134.279 274.595 132.838L274.961 45.7987C274.967 45.0827 274.831 44.3728 274.561 43.7096C274.291 43.0464 273.893 42.4431 273.389 41.9344C272.885 41.4257 272.286 41.0215 271.625 40.7452C270.965 40.4689 270.256 40.3259 269.54 40.3243Z" fill="white"/>
<path d="M268.955 99.5487H233.732V101.908H268.955V99.5487Z" fill="#455A64"/>
<path d="M267.702 108.824C267.702 108.907 260.182 108.978 250.912 108.978C241.642 108.978 234.117 108.907 234.117 108.824C234.117 108.742 241.637 108.671 250.912 108.671C260.188 108.671 267.702 108.742 267.702 108.824Z" fill="#455A64"/>
<path d="M267.702 52.9519C267.702 53.0405 260.182 53.1056 250.912 53.1056C241.642 53.1056 234.117 53.0405 234.117 52.9519C234.117 52.8632 241.637 52.7982 250.912 52.7982C260.188 52.7982 267.702 52.8514 267.702 52.9519Z" fill="#455A64"/>
<path d="M267.702 113.116C267.702 113.199 260.182 113.27 250.912 113.27C241.642 113.27 234.117 113.199 234.117 113.116C234.117 113.034 241.637 112.963 250.912 112.963C260.188 112.963 267.702 113.028 267.702 113.116Z" fill="#455A64"/>
<path d="M267.702 117.39C267.702 117.473 260.182 117.544 250.912 117.544C241.642 117.544 234.117 117.473 234.117 117.39C234.117 117.308 241.637 117.237 250.912 117.237C260.188 117.237 267.702 117.32 267.702 117.39Z" fill="#455A64"/>
<path d="M267.702 121.694C267.702 121.777 260.182 121.848 250.912 121.848C241.642 121.848 234.117 121.777 234.117 121.694C234.117 121.612 241.637 121.541 250.912 121.541C260.188 121.541 267.702 121.606 267.702 121.694Z" fill="#455A64"/>
<path d="M267.702 125.98C267.702 126.069 260.182 126.134 250.912 126.134C241.642 126.134 234.117 126.069 234.117 125.98C234.117 125.892 241.637 125.827 250.912 125.827C260.188 125.827 267.702 125.898 267.702 125.98Z" fill="#455A64"/>
<path d="M268.18 130.846C268.18 130.928 260.66 130.999 251.391 130.999C242.121 130.999 234.595 130.928 234.595 130.846C234.595 130.763 242.115 130.692 251.391 130.692C260.666 130.692 268.18 130.757 268.18 130.846Z" fill="#455A64"/>
<path d="M269.428 57.8292H234.117V91.9934H269.428V57.8292Z" fill="#E0E0E0"/>
<path d="M236.854 89.0671L246.626 71.4854L254.613 82.7237L259.466 76.7528L266.69 89.0671H236.854Z" fill="#347683"/>
<path d="M258.018 68.0684C258.018 68.5712 257.869 69.0626 257.59 69.4807C257.31 69.8987 256.913 70.2245 256.449 70.4169C255.984 70.6093 255.473 70.6597 254.98 70.5616C254.487 70.4635 254.034 70.2214 253.679 69.8659C253.323 69.5104 253.081 69.0574 252.983 68.5643C252.885 68.0712 252.935 67.5601 253.128 67.0956C253.32 66.6311 253.646 66.234 254.064 65.9547C254.482 65.6754 254.973 65.5263 255.476 65.5263C256.15 65.5279 256.796 65.7962 257.272 66.2726C257.748 66.749 258.017 67.3947 258.018 68.0684Z" fill="#347683"/>
<path d="M266.691 89.1617C266.691 89.1617 266.691 89.1144 266.691 89.0198C266.691 88.9252 266.691 88.7892 266.691 88.6237C266.691 88.2572 266.691 87.7487 266.691 87.0866C266.691 85.7328 266.691 83.7701 266.65 81.2812C266.65 76.2917 266.608 69.1857 266.579 60.655L266.72 60.7969H236.89C236.848 60.8323 237.203 60.4776 237.055 60.6313V68.3167C237.055 70.8292 237.055 73.2885 237.055 75.6769C237.055 80.4654 237.055 84.9879 237.055 89.1498L236.907 89.002L258.479 89.0789L264.569 89.1144H266.182H266.596H266.744H266.614H266.212H264.628L258.574 89.1498L236.907 89.2267H236.759V89.0789C236.759 84.9406 236.759 80.3945 236.759 75.6059C236.759 73.2412 236.759 70.7582 236.759 68.2457V60.5604C236.606 60.7082 236.96 60.3476 236.931 60.389H266.762H266.821V60.6372C266.786 69.2094 266.762 76.3449 266.744 81.3581C266.744 83.8292 266.744 85.7801 266.709 87.128C266.709 87.7783 266.709 88.2808 266.709 88.6355C266.709 88.7951 266.709 88.9193 266.709 89.0198C266.71 89.0677 266.704 89.1155 266.691 89.1617Z" fill="#455A64"/>
<path d="M83.8149 6.82808V85.585C83.8149 89.3561 86.872 92.4131 90.6431 92.4131L209.612 92.4131C213.383 92.4131 216.44 89.3561 216.44 85.585V6.82808C216.44 3.05701 213.383 -3.8147e-05 209.612 -3.8147e-05L90.6431 -3.8147e-05C86.872 -3.8147e-05 83.8149 3.05701 83.8149 6.82808Z" fill="#455A64"/>
<path d="M92.8833 2.9145V89.4987H203.641V2.9145H92.8833Z" fill="white"/>
<path d="M209.772 42.6595C210.473 42.6595 211.159 42.8675 211.742 43.2573C212.326 43.647 212.78 44.201 213.049 44.8492C213.317 45.4973 213.387 46.2105 213.251 46.8986C213.114 47.5866 212.776 48.2187 212.28 48.7147C211.784 49.2108 211.152 49.5486 210.464 49.6855C209.776 49.8224 209.062 49.7521 208.414 49.4836C207.766 49.2152 207.212 48.7605 206.822 48.1772C206.433 47.5939 206.225 46.9081 206.225 46.2066C206.225 45.2658 206.598 44.3636 207.264 43.6984C207.929 43.0332 208.831 42.6595 209.772 42.6595Z" fill="#263238"/>
<path d="M87.6338 33.0114V59.4017C87.6338 59.8 87.9567 60.1229 88.355 60.1229H88.3787C88.777 60.1229 89.0999 59.8 89.0999 59.4017V33.0114C89.0999 32.6131 88.777 32.2902 88.3787 32.2902H88.355C87.9567 32.2902 87.6338 32.6131 87.6338 33.0114Z" fill="#263238"/>
<path d="M178.628 9.41742H143.406V11.7762H178.628V9.41742Z" fill="#455A64"/>
<path d="M132.747 49.931H97.5244V52.2898H132.747V49.931Z" fill="#455A64"/>
<path d="M187.206 18.1906C187.206 18.2792 177.404 18.3443 165.332 18.3443C153.261 18.3443 143.429 18.2792 143.429 18.1906C143.429 18.1019 153.231 18.0369 165.332 18.0369C177.434 18.0369 187.206 18.1078 187.206 18.1906Z" fill="#455A64"/>
<path d="M187.206 23.3397C187.206 23.4225 177.404 23.4934 165.332 23.4934C153.261 23.4934 143.429 23.4225 143.429 23.3397C143.429 23.257 153.231 23.186 165.332 23.186C177.434 23.186 187.206 23.2511 187.206 23.3397Z" fill="#455A64"/>
<path d="M187.206 28.4831C187.206 28.5659 177.404 28.6368 165.332 28.6368C153.261 28.6368 143.429 28.5659 143.429 28.4831C143.429 28.4003 153.231 28.3294 165.332 28.3294C177.434 28.3294 187.206 28.4003 187.206 28.4831Z" fill="#455A64"/>
<path d="M187.206 33.6263C187.206 33.715 177.404 33.78 165.332 33.78C153.261 33.78 143.429 33.715 143.429 33.6263C143.429 33.5376 153.231 33.4726 165.332 33.4726C177.434 33.4726 187.206 33.5435 187.206 33.6263Z" fill="#455A64"/>
<path d="M187.206 38.7636C187.206 38.8464 177.404 38.9173 165.332 38.9173C153.261 38.9173 143.429 38.8464 143.429 38.7636C143.429 38.6809 153.231 38.6099 165.332 38.6099C177.434 38.6099 187.206 38.6868 187.206 38.7636Z" fill="#455A64"/>
<path d="M177.6 43.9187C177.6 44.0015 169.944 44.0724 160.503 44.0724C151.062 44.0724 143.406 44.0015 143.406 43.9187C143.406 43.836 151.056 43.765 160.503 43.765C169.95 43.765 177.6 43.836 177.6 43.9187Z" fill="#455A64"/>
<path d="M155.371 59.2067C155.371 59.2894 142.507 59.3604 126.64 59.3604C110.773 59.3604 97.9087 59.2894 97.9087 59.2067C97.9087 59.1239 110.773 59.053 126.64 59.053C142.507 59.053 155.371 59.118 155.371 59.2067Z" fill="#455A64"/>
<path d="M155.371 63.4927C155.371 63.5814 142.507 63.6464 126.64 63.6464C110.773 63.6464 97.9087 63.5814 97.9087 63.4927C97.9087 63.404 110.773 63.339 126.64 63.339C142.507 63.339 155.371 63.4099 155.371 63.4927Z" fill="#455A64"/>
<path d="M155.371 67.7847C155.371 67.8675 142.507 67.9384 126.64 67.9384C110.773 67.9384 97.9087 67.8675 97.9087 67.7847C97.9087 67.7019 110.773 67.631 126.64 67.631C142.507 67.631 155.371 67.696 155.371 67.7847Z" fill="#455A64"/>
<path d="M155.371 72.0706C155.371 72.1593 142.507 72.2243 126.64 72.2243C110.773 72.2243 97.9087 72.1593 97.9087 72.0706C97.9087 71.982 110.773 71.9169 126.64 71.9169C142.507 71.9169 155.371 71.9879 155.371 72.0706Z" fill="#455A64"/>
<path d="M155.371 76.3626C155.371 76.4454 142.507 76.5163 126.64 76.5163C110.773 76.5163 97.9087 76.4454 97.9087 76.3626C97.9087 76.2799 110.773 76.2089 126.64 76.2089C142.507 76.2089 155.371 76.2799 155.371 76.3626Z" fill="#455A64"/>
<path d="M133.22 8.20557H97.9087V42.3698H133.22V8.20557Z" fill="#347683"/>
<path d="M100.646 39.4494L110.419 21.8677L118.406 33.1001L123.259 27.1351L130.483 39.4494H100.646Z" fill="#E0E0E0"/>
<path d="M121.81 18.4448C121.811 18.9478 121.663 19.4399 121.385 19.8587C121.106 20.2775 120.709 20.6043 120.245 20.7976C119.781 20.9909 119.269 21.0421 118.776 20.9446C118.282 20.8472 117.829 20.6056 117.473 20.2503C117.117 19.895 116.874 19.4421 116.775 18.9488C116.677 18.4555 116.727 17.9441 116.919 17.4793C117.111 17.0144 117.437 16.6171 117.855 16.3375C118.273 16.0579 118.765 15.9086 119.268 15.9086C119.941 15.9086 120.587 16.1756 121.064 16.6511C121.54 17.1265 121.809 17.7716 121.81 18.4448Z" fill="#E0E0E0"/>
<path d="M130.483 39.5441C130.483 39.5441 130.483 39.4909 130.483 39.4022C130.483 39.3135 130.483 39.1716 130.483 39.0061C130.483 38.6396 130.483 38.1252 130.483 37.469C130.483 36.1093 130.483 34.1525 130.447 31.6636C130.447 26.6741 130.406 19.5681 130.376 11.0374L130.518 11.1793H100.687C100.646 11.2147 101.001 10.8659 100.853 11.0197V14.8801C100.853 16.157 100.853 17.428 100.853 18.6813V26.0415C100.853 30.8301 100.853 35.3526 100.853 39.5145L100.705 39.3667L122.277 39.4377L128.361 39.479H129.974H130.394H130.542H130.412H130.01H128.426L122.372 39.5204L100.705 39.5914H100.557V39.4436C100.557 35.3053 100.557 30.7591 100.557 25.9706C100.557 23.5783 100.557 21.1249 100.557 18.6104V10.9251C100.404 11.0729 100.758 10.7122 100.729 10.7477H130.56H130.708V10.8955C130.678 19.4617 130.654 26.6031 130.637 31.6164C130.637 34.0875 130.607 36.0384 130.601 37.3863C130.601 38.0306 130.601 38.5686 130.601 38.8938C130.601 39.0534 130.601 39.1775 130.601 39.278C130.597 39.3785 130.555 39.4736 130.483 39.5441Z" fill="#455A64"/>
<path d="M188.288 54.4594H163.299V78.6387H188.288V54.4594Z" fill="#347683"/>
<path d="M165.238 76.5696L172.149 64.1312L177.807 72.0825L181.241 67.8556L186.349 76.5696H165.238Z" fill="#E0E0E0"/>
<path d="M180.213 61.7073C180.213 62.0581 180.109 62.401 179.914 62.6926C179.719 62.9843 179.442 63.2116 179.118 63.3459C178.794 63.4801 178.437 63.5152 178.093 63.4468C177.749 63.3783 177.433 63.2094 177.185 62.9614C176.937 62.7134 176.768 62.3973 176.7 62.0533C176.631 61.7093 176.666 61.3527 176.801 61.0286C176.935 60.7045 177.162 60.4276 177.454 60.2327C177.745 60.0378 178.088 59.9338 178.439 59.9338C178.909 59.9338 179.361 60.1206 179.693 60.4532C180.026 60.7858 180.213 61.2369 180.213 61.7073Z" fill="#E0E0E0"/>
<path d="M186.349 76.6346C186.349 76.6346 186.349 76.5992 186.349 76.54C186.349 76.4809 186.349 76.3745 186.349 76.2563C186.349 75.9962 186.349 75.6651 186.349 75.1685C186.349 74.2108 186.349 72.8038 186.349 71.0303C186.349 67.4832 186.319 62.47 186.296 56.434L186.396 56.5345H165.285C165.256 56.5345 165.51 56.3099 165.404 56.4222V61.8492C165.404 63.6228 165.404 65.3589 165.404 67.0575C165.404 70.445 165.404 73.6433 165.404 76.5873L165.303 76.4868L180.508 76.5992H184.812H185.959H186.355C186.355 76.5992 186.325 76.5992 186.266 76.5992H185.982H184.859L180.573 76.6287L165.244 76.6819H165.137V76.5755C165.137 73.6196 165.137 70.4332 165.137 67.0457V56.4991C165.031 56.5996 165.285 56.3453 165.262 56.3749H186.373H186.479V56.4754C186.479 62.5409 186.438 67.5896 186.426 71.1367C186.426 72.9102 186.426 74.2699 186.396 75.2217C186.396 75.6828 186.396 76.0375 186.396 76.2917C186.396 76.4041 186.396 76.4928 186.396 76.5637C186.396 76.6346 186.355 76.6405 186.349 76.6346Z" fill="#455A64"/>
<path d="M206.278 101.754H38.1169C33.3598 101.754 29.5034 105.61 29.5034 110.367V215.733C29.5034 220.49 33.3598 224.347 38.1169 224.347H206.278C211.035 224.347 214.891 220.49 214.891 215.733V110.367C214.891 105.61 211.035 101.754 206.278 101.754Z" fill="#263238"/>
<path d="M21.7529 215.284H222.606V215.491C222.606 218.282 221.498 220.958 219.524 222.932C217.551 224.905 214.874 226.014 212.083 226.014H32.2759C29.485 226.014 26.8085 224.905 24.835 222.932C22.8616 220.958 21.7529 218.282 21.7529 215.491V215.284Z" fill="#263238"/>
<path d="M209.399 106.625H34.481V210.153H209.399V106.625Z" fill="#E0E0E0"/>
<path d="M103.921 215.284L106.416 219.251H141.485L143.802 215.284H103.921Z" fill="#455A64"/>
<path d="M201.359 113.524H40.3159V210.117H201.359V113.524Z" fill="#FAFAFA"/>
<path d="M47.1915 118.283C47.1927 118.551 47.1142 118.814 46.9662 119.037C46.8182 119.26 46.6071 119.435 46.3599 119.538C46.1126 119.642 45.8402 119.669 45.5772 119.618C45.3142 119.566 45.0724 119.438 44.8825 119.249C44.6926 119.059 44.5631 118.818 44.5103 118.555C44.4576 118.293 44.4841 118.02 44.5864 117.772C44.6887 117.525 44.8622 117.313 45.0849 117.164C45.3077 117.015 45.5697 116.935 45.8377 116.935C46.1957 116.935 46.5392 117.077 46.7929 117.33C47.0466 117.582 47.1899 117.925 47.1915 118.283Z" fill="#455A64"/>
<path d="M52.7012 118.283C52.7024 118.552 52.6239 118.814 52.4756 119.038C52.3272 119.261 52.1159 119.436 51.8683 119.539C51.6206 119.642 51.3479 119.669 51.0848 119.617C50.8216 119.565 50.5799 119.436 50.3902 119.246C50.2005 119.057 50.0714 118.815 50.0194 118.552C49.9673 118.289 49.9946 118.016 50.0978 117.768C50.201 117.521 50.3755 117.309 50.599 117.161C50.8225 117.013 51.0851 116.934 51.3534 116.935C51.7108 116.935 52.0537 117.077 52.3064 117.33C52.5592 117.583 52.7012 117.926 52.7012 118.283Z" fill="#455A64"/>
<path d="M58.2169 118.283C58.218 118.551 58.1396 118.814 57.9916 119.037C57.8435 119.26 57.6325 119.435 57.3852 119.538C57.138 119.642 56.8656 119.669 56.6026 119.618C56.3396 119.566 56.0978 119.438 55.9079 119.249C55.718 119.059 55.5884 118.818 55.5357 118.555C55.483 118.293 55.5095 118.02 55.6118 117.772C55.7141 117.525 55.8876 117.313 56.1103 117.164C56.3331 117.015 56.5951 116.935 56.8631 116.935C57.0406 116.935 57.2165 116.969 57.3807 117.036C57.5449 117.104 57.6942 117.203 57.82 117.328C57.9458 117.453 58.0456 117.602 58.1137 117.766C58.1818 117.93 58.2169 118.106 58.2169 118.283Z" fill="#455A64"/>
<path d="M201.359 124.195C201.359 124.284 165.297 124.349 120.84 124.349C76.3838 124.349 40.3159 124.284 40.3159 124.195C40.3159 124.106 76.3779 124.041 120.84 124.041C165.303 124.041 201.359 124.112 201.359 124.195Z" fill="#455A64"/>
<path d="M214.891 215.367H29.5034V215.958H214.891V215.367Z" fill="#455A64"/>
<path d="M88.7396 171.129H53.5171V173.488H88.7396V171.129Z" fill="#455A64"/>
<path d="M134.237 138.413H99.0142V140.772H134.237V138.413Z" fill="#455A64"/>
<path d="M186.627 147.192C186.627 147.275 167.012 147.346 142.821 147.346C118.63 147.346 99.0142 147.275 99.0142 147.192C99.0142 147.109 118.624 147.032 142.821 147.032C167.018 147.032 186.627 147.103 186.627 147.192Z" fill="#455A64"/>
<path d="M186.627 152.335C186.627 152.418 167.012 152.489 142.821 152.489C118.63 152.489 99.0142 152.418 99.0142 152.335C99.0142 152.252 118.624 152.182 142.821 152.182C167.018 152.182 186.627 152.27 186.627 152.335Z" fill="#455A64"/>
<path d="M186.627 157.478C186.627 157.567 167.012 157.632 142.821 157.632C118.63 157.632 99.0142 157.567 99.0142 157.478C99.0142 157.39 118.624 157.325 142.821 157.325C167.018 157.325 186.627 157.396 186.627 157.478Z" fill="#455A64"/>
<path d="M186.627 162.628C186.627 162.71 167.012 162.781 142.821 162.781C118.63 162.781 99.0142 162.71 99.0142 162.628C99.0142 162.545 118.624 162.468 142.821 162.468C167.018 162.468 186.627 162.539 186.627 162.628Z" fill="#455A64"/>
<path d="M186.627 167.771C186.627 167.854 167.012 167.925 142.821 167.925C118.63 167.925 99.0142 167.854 99.0142 167.771C99.0142 167.688 118.624 167.617 142.821 167.617C167.018 167.617 186.627 167.682 186.627 167.771Z" fill="#455A64"/>
<path d="M133.214 172.914C133.214 172.997 125.558 173.068 116.117 173.068C106.676 173.068 99.0142 172.997 99.0142 172.914C99.0142 172.831 106.699 172.76 116.117 172.76C125.534 172.76 133.214 172.831 133.214 172.914Z" fill="#455A64"/>
<path d="M185.983 182.899C185.983 182.988 173.089 183.053 157.192 183.053C141.295 183.053 128.402 182.988 128.402 182.899C128.402 182.81 141.29 182.745 157.192 182.745C173.095 182.745 185.983 182.816 185.983 182.899Z" fill="#455A64"/>
<path d="M185.983 188.362C185.983 188.444 173.089 188.515 157.192 188.515C141.295 188.515 128.402 188.444 128.402 188.362C128.402 188.279 141.29 188.208 157.192 188.208C173.095 188.208 185.983 188.279 185.983 188.362Z" fill="#455A64"/>
<path d="M185.983 193.824C185.983 193.907 173.089 193.978 157.192 193.978C141.295 193.978 128.402 193.907 128.402 193.824C128.402 193.741 141.29 193.67 157.192 193.67C173.095 193.67 185.983 193.736 185.983 193.824Z" fill="#455A64"/>
<path d="M185.983 199.287C185.983 199.369 173.089 199.44 157.192 199.44C141.295 199.44 128.402 199.369 128.402 199.287C128.402 199.204 141.29 199.133 157.192 199.133C173.095 199.133 185.983 199.198 185.983 199.287Z" fill="#455A64"/>
<path d="M88.8285 182.379C88.8285 182.462 81.1431 182.533 71.6842 182.533C62.2254 182.533 54.54 182.462 54.54 182.379C54.54 182.296 62.2254 182.225 71.6842 182.225C81.1431 182.225 88.8285 182.29 88.8285 182.379Z" fill="#455A64"/>
<path d="M88.8285 186.665C88.8285 186.754 81.1431 186.819 71.6842 186.819C62.2254 186.819 54.54 186.754 54.54 186.665C54.54 186.576 62.2254 186.511 71.6842 186.511C81.1431 186.511 88.8285 186.559 88.8285 186.665Z" fill="#455A64"/>
<path d="M88.8285 190.957C88.8285 191.04 81.1431 191.111 71.6842 191.111C62.2254 191.111 54.54 191.04 54.54 190.957C54.54 190.874 62.2254 190.803 71.6842 190.803C81.1431 190.803 88.8285 190.874 88.8285 190.957Z" fill="#455A64"/>
<path d="M88.8285 195.243C88.8285 195.332 81.1431 195.397 71.6842 195.397C62.2254 195.397 54.54 195.332 54.54 195.243C54.54 195.154 62.2254 195.089 71.6842 195.089C81.1431 195.089 88.8285 195.16 88.8285 195.243Z" fill="#455A64"/>
<path d="M88.8285 199.565C88.8285 199.647 81.1431 199.718 71.6842 199.718C62.2254 199.718 54.54 199.647 54.54 199.565C54.54 199.482 62.2254 199.411 71.6842 199.411C81.1431 199.411 88.8285 199.452 88.8285 199.565Z" fill="#455A64"/>
<path d="M88.8282 130.716H53.5171V164.88H88.8282V130.716Z" fill="#E0E0E0"/>
<path d="M56.2539 161.954L66.0261 144.372L74.0129 155.61L78.8724 149.645L86.0907 161.954H56.2539Z" fill="#347683"/>
<path d="M77.4181 140.955C77.4181 141.458 77.269 141.949 76.9897 142.367C76.7104 142.785 76.3134 143.111 75.8489 143.304C75.3844 143.496 74.8732 143.546 74.3801 143.448C73.887 143.35 73.434 143.108 73.0785 142.753C72.723 142.397 72.4809 141.944 72.3828 141.451C72.2847 140.958 72.3351 140.447 72.5275 139.982C72.7199 139.518 73.0457 139.121 73.4638 138.841C73.8818 138.562 74.3733 138.413 74.8761 138.413C75.5503 138.413 76.1968 138.681 76.6736 139.157C77.1503 139.634 77.4181 140.281 77.4181 140.955Z" fill="#347683"/>
<path d="M86.091 162.048C86.0885 162.003 86.0885 161.958 86.091 161.912C86.091 161.806 86.091 161.676 86.091 161.51C86.091 161.15 86.091 160.635 86.091 159.973C86.091 158.619 86.091 156.663 86.0497 154.174C86.0497 149.184 86.0083 142.078 85.9787 133.542L86.1206 133.689H56.2897C56.2483 133.725 56.603 133.37 56.4552 133.524V141.209C56.4552 143.716 56.4552 146.175 56.4552 148.569C56.4552 153.352 56.4552 157.874 56.4552 162.036L56.3074 161.895L77.8796 161.965L83.9687 162.007H85.5826H86.1442C86.1442 162.007 86.1029 162.007 86.0142 162.007H85.6122H84.0278L77.9741 162.048L56.3074 162.119H56.1655V161.971C56.1655 157.833 56.1655 153.287 56.1655 148.504C56.1655 146.11 56.1655 143.651 56.1655 141.144V133.459L56.337 133.287H86.1679H86.3157V133.429C86.3157 142.001 86.2566 149.137 86.2388 154.15C86.2388 156.627 86.2388 158.572 86.2034 159.92C86.2034 160.57 86.2034 161.073 86.2034 161.433C86.2034 161.593 86.2034 161.717 86.2034 161.812C86.2034 161.906 86.0969 162.054 86.091 162.048Z" fill="#455A64"/>
<path d="M123.98 180.292H98.9907V204.471H123.98V180.292Z" fill="#E0E0E0"/>
<path d="M100.93 202.402L107.841 189.964L113.499 197.915L116.933 193.688L122.047 202.402H100.93Z" fill="#347683"/>
<path d="M115.904 187.54C115.904 187.891 115.8 188.234 115.605 188.525C115.41 188.817 115.133 189.044 114.809 189.178C114.485 189.313 114.129 189.348 113.784 189.279C113.44 189.211 113.124 189.042 112.876 188.794C112.628 188.546 112.459 188.23 112.391 187.886C112.323 187.542 112.358 187.185 112.492 186.861C112.626 186.537 112.853 186.26 113.145 186.065C113.437 185.87 113.78 185.766 114.13 185.766C114.601 185.766 115.052 185.953 115.385 186.286C115.717 186.618 115.904 187.07 115.904 187.54Z" fill="#347683"/>
<path d="M122.046 202.473C122.044 202.44 122.044 202.406 122.046 202.373C122.046 202.302 122.046 202.207 122.046 202.089C122.046 201.835 122.046 201.498 122.046 201.001C122.046 200.043 122.046 198.636 122.017 196.892C122.017 193.345 122.017 188.332 121.969 182.296L122.07 182.397H100.953C100.953 182.397 101.178 182.172 101.071 182.284V192.926C101.071 196.313 101.071 199.511 101.071 202.461L100.965 202.355L116.235 202.408L120.539 202.438H121.68H120.556H116.276L100.941 202.491H100.841V202.39C100.841 199.434 100.841 196.242 100.841 192.855C100.841 191.164 100.841 189.42 100.841 187.646V182.231C100.734 182.332 100.982 182.077 100.959 182.107H122.076H122.176V182.207C122.176 188.273 122.135 193.322 122.123 196.875C122.123 198.648 122.123 200.002 122.123 200.954C122.123 201.415 122.123 201.77 122.123 202.024C122.123 202.136 122.123 202.225 122.123 202.296C122.109 202.359 122.083 202.42 122.046 202.473Z" fill="#455A64"/>
<path d="M250.85 197.947C269.214 197.912 275.711 191.754 277.92 172.821C275.655 162.868 271.597 160.664 269.138 158.947C269.974 149.727 268.372 149.73 268.372 149.73C260.498 163.143 257.059 151.714 248.436 164.883C242.863 154.445 233.586 160.363 228.761 149.805C228.761 149.805 227.057 152.14 228.137 158.411C223.338 161.37 221.954 165.06 219.62 172.931C220.829 190.383 230.887 199.337 250.85 197.947Z" fill="#6DDBE8"/>
<path d="M248.542 164.881C251.593 160.044 254.935 157.739 260.272 156.991C254.907 156.008 250.775 159.838 248.533 160.211C246.292 160.583 242.438 155.429 236.996 157.036C242.229 157.886 246.046 160.978 248.542 164.881Z" fill="#48929A"/>
<path d="M265.039 192.138C256.936 198.299 245.564 201.266 227.883 192.208C223.119 213.236 234.773 221.081 249.293 221.053C263.814 221.025 278.843 207.968 265.039 192.138Z" fill="#6DDBE8"/>
<path d="M239.046 222.916C238.192 222.672 237.332 219.969 238.076 218.124C238.805 217.345 239.569 217.384 240.638 218.119C240.645 221.684 239.901 223.16 239.046 222.916Z" fill="#F99224"/>
<path d="M241.789 223.233C240.934 222.989 240.075 220.287 240.819 218.441C241.548 217.662 242.312 217.701 243.381 218.437C243.388 222.001 242.644 223.477 241.789 223.233Z" fill="#F99224"/>
<path d="M244.6 223.643C243.767 223.42 242.864 220.562 243.589 218.878C244.299 218.167 245.044 218.203 246.085 218.874C246.305 222.042 245.433 223.866 244.6 223.643Z" fill="#F99224"/>
<path d="M258.33 222.976C259.162 222.728 259.989 220.012 259.257 218.163C258.544 217.383 257.799 217.425 256.76 218.167C256.768 221.745 257.499 223.224 258.33 222.976Z" fill="#F7921E"/>
<path d="M255.554 223.227C256.386 222.979 257.213 220.263 256.481 218.414C255.768 217.634 255.023 217.676 253.985 218.418C253.992 221.996 254.723 223.475 255.554 223.227Z" fill="#F7921E"/>
<path d="M252.734 223.731C253.56 223.501 254.445 220.583 253.719 218.869C253.011 218.147 252.272 218.186 251.241 218.874C251.036 222.105 251.909 223.962 252.734 223.731Z" fill="#F7921E"/>
<path d="M223.772 213.27C219.354 200.729 225.4 189.872 228.635 192.376C234.63 197.693 225.22 204.257 235.655 215.039C232.739 214.513 230.708 213.174 228.984 209.874C228.984 209.874 228.773 212.75 230.794 214.315C232.816 215.88 228.359 215.47 226.552 210.018C223.659 206.426 230.298 221.7 223.772 213.27Z" fill="#48929A"/>
<path d="M273.388 214.285C278.761 203.984 271.175 192.996 267.748 193.383C261.435 194.725 272.2 206.371 261.297 210.114C264.486 211.361 266.651 211.334 268.365 209.314C268.365 209.314 268.764 212.093 266.622 212.335C264.48 212.577 269.377 214.847 271.059 210.892C274.047 209.299 268.255 218.584 273.388 214.285Z" fill="#48929A"/>
<ellipse cx="11.9581" cy="13.7666" rx="11.9581" ry="13.7666" transform="matrix(0.999998 -0.00189698 0.00196265 0.999998 224.934 160.875)" fill="white"/>
<ellipse cx="11.9581" cy="13.7666" rx="11.9581" ry="13.7666" transform="matrix(0.999998 -0.00189698 0.00196265 0.999998 248.638 160.829)" fill="#FEFFFF"/>
<ellipse cx="8.54153" cy="9.83326" rx="8.54153" ry="9.83326" transform="matrix(0.999998 -0.00189698 0.00196265 0.999998 252.062 164.756)" fill="#120C0E"/>
<ellipse cx="3.20307" cy="3.68747" rx="3.20307" ry="3.68747" transform="matrix(0.999998 -0.00189698 0.00196265 0.999998 261.461 166.459)" fill="#FEFFFF"/>
<ellipse cx="8.54153" cy="9.83326" rx="8.54153" ry="9.83326" transform="matrix(0.999998 -0.00189698 0.00196265 0.999998 228.573 164.801)" fill="#120C0E"/>
<ellipse cx="3.20307" cy="3.68747" rx="3.20307" ry="3.68747" transform="matrix(0.999998 -0.00189698 0.00196265 0.999998 238.399 166.503)" fill="#FEFFFF"/>
<path d="M237.999 202.923L235.855 196.743L241.7 197.815L237.999 202.923Z" fill="#48929A"/>
<path d="M247.918 203.702L244.914 198.555L250.784 198.456L247.918 203.702Z" fill="#48929A"/>
<path d="M244.515 210.346L241.511 205.199L247.381 205.1L244.515 210.346Z" fill="#48929A"/>
<path d="M258.22 202.509L254.074 198.55L259.679 196.543L258.22 202.509Z" fill="#48929A"/>
<path d="M254.817 209.153L250.67 205.195L256.276 203.187L254.817 209.153Z" fill="#48929A"/>
<path d="M248.775 176.317C248.754 176.609 248.718 176.904 248.669 177.199C249.089 179.61 252.679 185.643 253.233 185.443L253.277 185.404C253.265 185.424 253.251 185.437 253.233 185.443L249.12 189.1L244.204 185.423C244.203 185.423 244.202 185.422 244.201 185.422L244.204 185.423C244.614 185.717 247.973 181.373 248.669 177.199C248.595 176.775 248.619 176.464 248.775 176.317Z" fill="#F6931E"/>
<path d="M237.116 157.209V152.167L248.231 154.981L259.229 152.167V157.209L249.414 160.492L237.116 157.209Z" fill="#0F0B0C"/>
<path d="M248.113 156.623L226.592 149.822L248.113 142.201L269.635 149.822L248.113 156.623Z" fill="#0F0B0C"/>
<path d="M263.013 162.72C261.358 162.251 264.078 156.037 263.25 150.408L264.432 150.057C264.196 155.919 266.324 161.899 265.024 162.72H263.013Z" fill="#0F0B0C"/>
<ellipse cx="263.959" cy="153.692" rx="1.41901" ry="1.40705" fill="#0F0B0C"/>
</svg>
