<svg width="83" height="103" viewBox="0 0 83 103" fill="none" xmlns="http://www.w3.org/2000/svg">
<path d="M43.3229 70.0458C66.398 70.0021 74.5615 62.2638 77.3369 38.4744C74.4903 25.9692 69.3917 23.1988 66.3019 21.0425C67.3524 9.45702 65.34 9.46084 65.34 9.46084C55.4454 26.3142 51.1242 11.9538 40.2899 28.5C33.288 15.3853 21.6309 22.8208 15.5678 9.55525C15.5678 9.55525 13.427 12.4886 14.784 20.368C8.75426 24.0861 7.01445 28.7228 4.08238 38.6133C5.60116 60.5413 18.2389 71.7923 43.3229 70.0458Z" fill="#6DDBE8"/>
<path d="M40.4233 28.4977C44.2567 22.4199 48.4552 19.524 55.1613 18.5849C48.4201 17.3497 43.2282 22.162 40.4118 22.6301C37.5954 23.0981 32.753 16.6217 25.9148 18.6404C32.4907 19.7091 37.2871 23.5935 40.4233 28.4977Z" fill="#64ADB5"/>
<path d="M61.1505 62.7467C50.9697 70.4883 36.6802 74.216 14.4637 62.8353C8.47847 89.257 23.1211 99.1138 41.3664 99.0792C59.6118 99.0446 78.496 82.6374 61.1505 62.7467Z" fill="#6DDBE8"/>
<path d="M28.4909 101.42C27.4171 101.113 26.3372 97.7174 27.2717 95.3989C28.1878 94.4199 29.148 94.4688 30.4913 95.3929C30.5001 99.8718 29.5647 101.727 28.4909 101.42Z" fill="#F99224"/>
<path d="M31.9383 101.819C30.8645 101.512 29.7845 98.1163 30.719 95.7978C31.635 94.8188 32.5952 94.8678 33.9386 95.7918C33.9475 100.271 33.0121 102.126 31.9383 101.819Z" fill="#F99224"/>
<path d="M35.4701 102.333C34.4238 102.054 33.2885 98.4619 34.1993 96.3462C35.0919 95.4528 36.0275 95.4973 37.3363 96.3404C37.6125 100.322 36.5163 102.613 35.4701 102.333Z" fill="#F99224"/>
<path d="M52.7225 101.495C53.7675 101.183 54.8064 97.7705 53.8868 95.4469C52.9905 94.4676 52.0551 94.5203 50.7499 95.4529C50.7588 99.9486 51.6774 101.807 52.7225 101.495Z" fill="#F7921E"/>
<path d="M49.2342 101.81C50.2792 101.498 51.3181 98.086 50.3986 95.7623C49.5022 94.7831 48.5668 94.8357 47.2616 95.7683C47.2705 100.264 48.1891 102.122 49.2342 101.81Z" fill="#F7921E"/>
<path d="M45.6917 102.444C46.7288 102.155 47.8412 98.4883 46.9289 96.3344C46.0395 95.4268 45.1112 95.4758 43.8157 96.3404C43.5575 100.401 44.6545 102.734 45.6917 102.444Z" fill="#F7921E"/>
<path d="M9.29955 89.2997C3.74774 73.5416 11.3449 59.8999 15.409 63.0465C22.9417 69.7275 11.1178 77.9746 24.2306 91.5225C20.566 90.8611 18.0144 89.1794 15.8485 85.0327C15.8485 85.0327 15.5823 88.6465 18.1224 90.6132C20.6625 92.5798 15.0623 92.0637 12.7924 85.2131C9.15701 80.7007 17.4989 99.8923 9.29955 89.2997Z" fill="#64ADB5"/>
<path d="M71.641 90.5743C78.3915 77.6315 68.8608 63.8248 64.5546 64.3118C56.6217 65.9974 70.1476 80.6305 56.4483 85.3336C60.4559 86.9013 63.1764 86.8667 65.3298 84.3291C65.3298 84.3291 65.8308 87.8204 63.1394 88.1248C60.448 88.4292 66.6008 91.2813 68.714 86.3117C72.4686 84.3102 65.1909 95.9766 71.641 90.5743Z" fill="#64ADB5"/>
<ellipse cx="15.0255" cy="17.2978" rx="15.0255" ry="17.2978" transform="matrix(0.999998 -0.00189698 0.00196265 0.999998 10.7598 23.4648)" fill="white"/>
<ellipse cx="15.0255" cy="17.2978" rx="15.0255" ry="17.2978" transform="matrix(0.999998 -0.00189698 0.00196265 0.999998 40.543 23.4077)" fill="#FEFFFF"/>
<ellipse cx="10.7325" cy="12.3556" rx="10.7325" ry="12.3556" transform="matrix(0.999998 -0.00189698 0.00196265 0.999998 44.8457 28.3418)" fill="#120C0E"/>
<ellipse cx="4.02469" cy="4.63335" rx="4.02469" ry="4.63335" transform="matrix(0.999998 -0.00189698 0.00196265 0.999998 56.6562 30.4814)" fill="#FEFFFF"/>
<ellipse cx="10.7325" cy="12.3556" rx="10.7325" ry="12.3556" transform="matrix(0.999998 -0.00189698 0.00196265 0.999998 15.3301 28.3979)" fill="#120C0E"/>
<ellipse cx="4.02469" cy="4.63335" rx="4.02469" ry="4.63335" transform="matrix(0.999998 -0.00189698 0.00196265 0.999998 27.6777 30.5371)" fill="#FEFFFF"/>
<path d="M27.1758 76.2991L24.4808 68.5339L31.8251 69.8799L27.1758 76.2991Z" fill="#64ADB5"/>
<path d="M39.6397 77.2776L35.8647 70.8108L43.2411 70.6861L39.6397 77.2776Z" fill="#64ADB5"/>
<path d="M35.3623 85.6252L31.5873 79.1585L38.9637 79.0337L35.3623 85.6252Z" fill="#64ADB5"/>
<path d="M52.5841 75.7783L47.3744 70.8045L54.4175 68.2818L52.5841 75.7783Z" fill="#64ADB5"/>
<path d="M48.3067 84.1264L43.0971 79.1526L50.1401 76.6299L48.3067 84.1264Z" fill="#64ADB5"/>
<path d="M40.714 42.868C40.6882 43.2348 40.6431 43.6048 40.5812 43.976C41.109 47.0055 45.6197 54.5866 46.3159 54.3353L46.371 54.2863C46.3567 54.311 46.3383 54.3272 46.3159 54.3353L41.148 58.9296L34.9707 54.3102C35.4862 54.6788 39.7072 49.2203 40.5812 43.976C40.4885 43.4439 40.5187 43.0522 40.714 42.868Z" fill="#F6931E"/>
<path d="M26.0664 18.8582V12.5229L40.0332 16.0589L53.8514 12.5229V18.8582L41.519 22.9834L26.0664 18.8582Z" fill="#0F0B0C"/>
<path d="M39.8839 18.1217L12.8418 9.57651L39.8839 0L66.926 9.57651L39.8839 18.1217Z" fill="#0F0B0C"/>
<path d="M58.6053 25.7828C56.5252 25.1935 59.9426 17.385 58.9025 10.3131L60.3883 9.87109C60.0912 17.2376 62.7657 24.7515 61.1312 25.7828H58.6053Z" fill="#0F0B0C"/>
<ellipse cx="59.7947" cy="14.4384" rx="1.783" ry="1.76797" fill="#0F0B0C"/>
</svg>
