<svg width="264" height="223" viewBox="0 0 264 223" fill="none" xmlns="http://www.w3.org/2000/svg">
<path d="M131.498 214.365C200.487 214.365 256.413 187.091 256.413 153.446C256.413 119.802 200.487 92.5272 131.498 92.5272C62.5102 92.5272 6.58417 119.802 6.58417 153.446C6.58417 187.091 62.5102 214.365 131.498 214.365Z" fill="#F0F0F0"/>
<path d="M34.848 171.955L14.1081 161.845C13.3742 161.488 13.3742 160.908 14.1081 160.551L128.378 104.81C128.788 104.636 129.24 104.546 129.698 104.546C130.156 104.546 130.608 104.636 131.018 104.81L151.752 114.921C152.481 115.278 152.481 115.857 151.752 116.214L37.488 171.955C37.0786 172.13 36.6265 172.221 36.168 172.221C35.7095 172.221 35.2574 172.13 34.848 171.955Z" fill="#E0E0E0"/>
<path d="M106.756 156.122L123.452 147.969C125.173 147.127 126.034 146.029 126.034 144.928C126.034 143.826 126.034 142.965 126.034 142.965L105.954 133.354C105.47 133.086 105.068 132.726 104.779 132.304C104.49 131.881 104.323 131.406 104.291 130.919V113.525L75.1292 127.757V145.151C75.1624 145.637 75.3302 146.111 75.619 146.533C75.9079 146.955 76.3097 147.314 76.7924 147.581L94.2956 156.118C97.7381 157.799 103.319 157.799 106.756 156.122Z" fill="#347683"/>
<g opacity="0.5">
<path d="M106.756 156.122L123.452 147.969C125.173 147.127 126.034 146.029 126.034 144.928C126.034 143.826 126.034 142.965 126.034 142.965L105.954 133.354C105.47 133.086 105.068 132.726 104.779 132.304C104.49 131.881 104.323 131.406 104.291 130.919V113.525L75.1292 127.757V145.151C75.1624 145.637 75.3302 146.111 75.619 146.533C75.9079 146.955 76.3097 147.314 76.7924 147.581L94.2956 156.118C97.7381 157.799 103.319 157.799 106.756 156.122Z" fill="black"/>
</g>
<path d="M82.1304 148.233V150.186L76.787 147.586C76.3037 147.318 75.9014 146.958 75.6126 146.535C75.3237 146.112 75.1563 145.638 75.1238 145.151V127.757L80.6837 125.049C80.7946 126.24 80.9213 127.471 81.0374 128.671L77.1408 130.575V144.161C77.1706 144.647 77.3363 145.121 77.6245 145.544C77.9126 145.966 78.315 146.325 78.7987 146.591L82.1304 148.233Z" fill="#347683"/>
<path opacity="0.7" d="M82.1304 148.233V150.186L76.787 147.586C76.3037 147.318 75.9014 146.958 75.6126 146.535C75.3237 146.112 75.1563 145.638 75.1238 145.151V127.757L80.6837 125.049C80.7946 126.24 80.9213 127.471 81.0374 128.671L77.1408 130.575V144.161C77.1706 144.647 77.3363 145.121 77.6245 145.544C77.9126 145.966 78.315 146.325 78.7987 146.591L82.1304 148.233Z" fill="black"/>
<path d="M77.1408 144.174C77.1716 144.661 77.3383 145.135 77.6274 145.558C77.9164 145.98 78.3196 146.339 78.804 146.605L94.2902 154.16C97.7328 155.841 103.314 155.841 106.756 154.16L123.462 146.007C126.905 144.33 126.905 141.609 123.462 139.932L107.965 132.373C107.481 132.107 107.078 131.748 106.789 131.326C106.5 130.903 106.333 130.429 106.302 129.942V116.357L77.1408 130.589V144.174Z" fill="#347683"/>
<path opacity="0.3" d="M77.1408 144.174C77.1716 144.661 77.3383 145.135 77.6274 145.558C77.9164 145.98 78.3196 146.339 78.804 146.605L94.2902 154.16C97.7328 155.841 103.314 155.841 106.756 154.16L123.462 146.007C126.905 144.33 126.905 141.609 123.462 139.932L107.965 132.373C107.481 132.107 107.078 131.748 106.789 131.326C106.5 130.903 106.333 130.429 106.302 129.942V116.357L77.1408 130.589V144.174Z" fill="black"/>
<path opacity="0.7" d="M111.35 134.027L107.965 132.377C107.481 132.111 107.078 131.753 106.789 131.33C106.5 130.908 106.333 130.434 106.302 129.947V116.357L77.1408 130.589V144.174C77.1716 144.661 77.3383 145.135 77.6274 145.558C77.9164 145.98 78.3196 146.339 78.804 146.605L82.1304 148.228L111.35 134.027Z" fill="#347683"/>
<path opacity="0.6" d="M111.35 134.027L107.965 132.377C107.481 132.111 107.078 131.753 106.789 131.33C106.5 130.908 106.333 130.434 106.302 129.947V116.357L77.1408 130.589V144.174C77.1716 144.661 77.3383 145.135 77.6274 145.558C77.9164 145.98 78.3196 146.339 78.804 146.605L82.1304 148.228L111.35 134.027Z" fill="black"/>
<path d="M126.039 142.97V144.95C126.039 146.052 125.173 147.144 123.457 147.987L106.762 156.1C104.932 156.928 102.887 157.357 100.811 157.349V155.395C102.887 155.404 104.932 154.974 106.762 154.146L123.457 145.989C125.173 145.173 126.039 144.058 126.039 142.97Z" fill="#347683"/>
<path opacity="0.2" d="M126.039 142.97V144.95C126.039 146.052 125.173 147.144 123.457 147.987L106.762 156.1C104.932 156.928 102.887 157.357 100.811 157.349V155.395C102.887 155.404 104.932 154.974 106.762 154.146L123.457 145.989C125.173 145.173 126.039 144.058 126.039 142.97Z" fill="black"/>
<path d="M30.3182 162.933C30.9485 163.19 31.6415 163.318 32.3414 163.308C33.0412 163.297 33.7282 163.147 34.3469 162.87L147.117 107.874C147.721 107.54 148.224 107.091 148.584 106.562C148.944 106.034 149.153 105.441 149.192 104.832V21.4571C149.168 20.8666 148.978 20.2894 148.64 19.7725C148.301 19.2555 147.823 18.8135 147.244 18.4822C146.615 18.224 145.923 18.095 145.223 18.1059C144.524 18.1167 143.838 18.2671 143.22 18.5447L30.4502 73.5409C29.8458 73.8735 29.3428 74.322 28.9822 74.8497C28.6217 75.3775 28.4137 75.9697 28.3752 76.5782V159.98C28.4056 160.566 28.597 161.138 28.9342 161.65C29.2715 162.163 29.7453 162.602 30.3182 162.933Z" fill="#347683"/>
<path opacity="0.3" d="M30.3182 162.933C30.9485 163.19 31.6415 163.318 32.3414 163.308C33.0412 163.297 33.7282 163.147 34.3469 162.87L147.117 107.874C147.721 107.54 148.224 107.091 148.584 106.562C148.944 106.034 149.153 105.441 149.192 104.832V21.4571C149.168 20.8666 148.978 20.2894 148.64 19.7725C148.301 19.2555 147.823 18.8135 147.244 18.4822C146.615 18.224 145.923 18.095 145.223 18.1059C144.524 18.1167 143.838 18.2671 143.22 18.5447L30.4502 73.5409C29.8458 73.8735 29.3428 74.322 28.9822 74.8497C28.6217 75.3775 28.4137 75.9697 28.3752 76.5782V159.98C28.4056 160.566 28.597 161.138 28.9342 161.65C29.2715 162.163 29.7453 162.602 30.3182 162.933Z" fill="black"/>
<path d="M34.3464 162.866L147.117 107.87C147.722 107.537 148.226 107.089 148.587 106.561C148.948 106.033 149.157 105.441 149.197 104.832V21.4526C149.197 20.3331 148.262 19.8827 147.117 20.4402L34.3464 75.4364C33.7396 75.7722 33.2354 76.2244 32.8748 76.7561C32.5142 77.2878 32.3074 77.884 32.2714 78.496V161.853C32.2714 162.973 33.2006 163.428 34.3464 162.866Z" fill="#347683"/>
<path d="M34.3464 162.866L147.117 107.87C147.722 107.537 148.226 107.089 148.587 106.561C148.948 106.033 149.157 105.441 149.197 104.832V21.4526C149.197 20.3331 148.262 19.8827 147.117 20.4402L34.3464 75.4364C33.7396 75.7722 33.2354 76.2244 32.8748 76.7561C32.5142 77.2878 32.3074 77.884 32.2714 78.496V161.853C32.2714 162.973 33.2006 163.428 34.3464 162.866Z" fill="#347683"/>
<path opacity="0.5" d="M34.3464 162.866L147.117 107.87C147.722 107.537 148.226 107.089 148.587 106.561C148.948 106.033 149.157 105.441 149.197 104.832V21.4526C149.197 20.3331 148.262 19.8827 147.117 20.4402L34.3464 75.4364C33.7396 75.7722 33.2354 76.2244 32.8748 76.7561C32.5142 77.2878 32.3074 77.884 32.2714 78.496V161.853C32.2714 162.973 33.2006 163.428 34.3464 162.866Z" fill="black"/>
<path d="M34.0401 163C33.4539 163.211 32.821 163.315 32.1836 163.303C31.5462 163.292 30.919 163.165 30.3441 162.933C29.7649 162.601 29.2865 162.158 28.948 161.64C28.6095 161.122 28.4203 160.544 28.3958 159.953V150.587L32.2925 152.492V161.858C32.2661 162.879 33.0317 163.339 34.0401 163Z" fill="#347683"/>
<path opacity="0.7" d="M34.0401 163C33.4539 163.211 32.821 163.315 32.1836 163.303C31.5462 163.292 30.919 163.165 30.3441 162.933C29.7649 162.601 29.2865 162.158 28.948 161.64C28.6095 161.122 28.4203 160.544 28.3958 159.953V150.587L32.2925 152.492V161.858C32.2661 162.879 33.0317 163.339 34.0401 163Z" fill="black"/>
<path d="M32.2714 152.478V161.844C32.2714 162.964 33.2006 163.419 34.3464 162.857L147.117 107.87C147.722 107.537 148.226 107.089 148.587 106.561C148.948 106.033 149.157 105.441 149.197 104.832V95.444L32.2714 152.478Z" fill="#347683"/>
<g opacity="0.5">
<path d="M32.2714 152.478V161.844C32.2714 162.964 33.2006 163.419 34.3464 162.857L147.117 107.87C147.722 107.537 148.226 107.089 148.587 106.561C148.948 106.033 149.157 105.441 149.197 104.832V95.444L32.2714 152.478Z" fill="black"/>
</g>
<path d="M36.168 145.561V79.5531C36.1902 79.1874 36.3146 78.8315 36.5312 78.5144C36.7479 78.1973 37.0504 77.9281 37.4141 77.7289L144.07 25.7209C144.757 25.3864 145.316 25.6584 145.316 26.3319V92.322C145.293 92.6874 145.168 93.043 144.951 93.3599C144.735 93.6769 144.433 93.9462 144.07 94.1462L37.4141 146.15C36.7224 146.502 36.168 146.23 36.168 145.561Z" fill="#FAFAFA"/>
<path d="M90.7315 127.77C90.164 128.082 89.6917 128.503 89.3531 128.998C89.0145 129.493 88.8193 130.049 88.7832 130.62C88.7832 131.668 89.6544 132.096 90.7315 131.57C91.2985 131.258 91.7703 130.837 92.1088 130.342C92.4473 129.847 92.643 129.291 92.6798 128.72C92.6798 127.667 91.8086 127.244 90.7315 127.77Z" fill="#347683"/>
<path opacity="0.5" d="M90.7315 127.77C90.164 128.082 89.6917 128.503 89.3531 128.998C89.0145 129.493 88.8193 130.049 88.7832 130.62C88.7832 131.668 89.6544 132.096 90.7315 131.57C91.2985 131.258 91.7703 130.837 92.1088 130.342C92.4473 129.847 92.643 129.291 92.6798 128.72C92.6798 127.667 91.8086 127.244 90.7315 127.77Z" fill="#FEFFFF"/>
<path d="M32.8786 76.7388C32.5052 77.2726 32.2947 77.8764 32.2661 78.496V152.478L28.3694 150.574V76.5782C28.3998 75.9659 28.6103 75.3696 28.9819 74.8433L32.8786 76.7388Z" fill="#347683"/>
<path opacity="0.7" d="M32.8786 76.7388C32.5052 77.2726 32.2947 77.8764 32.2661 78.496V152.478L28.3694 150.574V76.5782C28.3998 75.9659 28.6103 75.3696 28.9819 74.8433L32.8786 76.7388Z" fill="black"/>
<path d="M73.3392 181.941L101.513 195.723C102.004 195.934 102.547 196.044 103.097 196.044C103.648 196.044 104.191 195.934 104.681 195.723L187.915 155.208C188.792 154.762 188.792 154.093 187.915 153.665L159.736 139.883C159.245 139.672 158.703 139.562 158.152 139.562C157.601 139.562 157.058 139.672 156.568 139.883L73.3392 180.403C72.468 180.826 72.4627 181.522 73.3392 181.941Z" fill="#E0E0E0"/>
<path d="M186.21 151.194C186.191 151.028 186.121 150.869 186.006 150.733C185.891 150.598 185.735 150.49 185.555 150.422L159.086 137.52C158.596 137.308 158.053 137.198 157.502 137.198C156.952 137.198 156.409 137.308 155.918 137.52L75.1344 176.973C74.9554 177.042 74.8012 177.15 74.6871 177.285C74.5731 177.42 74.5034 177.579 74.485 177.744V180.09C74.5026 180.256 74.5727 180.415 74.6879 180.55C74.8031 180.685 74.9592 180.791 75.1397 180.857L101.598 193.765C102.089 193.975 102.631 194.085 103.182 194.085C103.732 194.085 104.275 193.975 104.766 193.765L185.55 154.37C185.73 154.302 185.885 154.196 186 154.061C186.115 153.926 186.186 153.768 186.205 153.602L186.21 151.194Z" fill="#347683"/>
<path opacity="0.5" d="M186.21 151.194C186.191 151.028 186.121 150.869 186.006 150.733C185.891 150.598 185.735 150.49 185.555 150.422L159.086 137.52C158.596 137.308 158.053 137.198 157.502 137.198C156.952 137.198 156.409 137.308 155.918 137.52L75.1344 176.973C74.9554 177.042 74.8012 177.15 74.6871 177.285C74.5731 177.42 74.5034 177.579 74.485 177.744V180.09C74.5026 180.256 74.5727 180.415 74.6879 180.55C74.8031 180.685 74.9592 180.791 75.1397 180.857L101.598 193.765C102.089 193.975 102.631 194.085 103.182 194.085C103.732 194.085 104.275 193.975 104.766 193.765L185.55 154.37C185.73 154.302 185.885 154.196 186 154.061C186.115 153.926 186.186 153.768 186.205 153.602L186.21 151.194Z" fill="black"/>
<path d="M101.614 191.365L75.1556 178.516C74.2844 178.092 74.2791 177.406 75.1556 176.977L155.94 137.524C156.43 137.313 156.973 137.203 157.524 137.203C158.074 137.203 158.617 137.313 159.108 137.524L185.576 150.432C186.447 150.878 186.447 151.547 185.576 151.975L104.792 191.37C104.3 191.581 103.755 191.691 103.202 191.69C102.65 191.689 102.105 191.578 101.614 191.365Z" fill="#347683"/>
<path opacity="0.3" d="M101.614 191.365L75.1556 178.516C74.2844 178.092 74.2791 177.406 75.1556 176.977L155.94 137.524C156.43 137.313 156.973 137.203 157.524 137.203C158.074 137.203 158.617 137.313 159.108 137.524L185.576 150.432C186.447 150.878 186.447 151.547 185.576 151.975L104.792 191.37C104.3 191.581 103.755 191.691 103.202 191.69C102.65 191.689 102.105 191.578 101.614 191.365Z" fill="black"/>
<path d="M103.092 191.682V194.081C102.576 194.076 102.068 193.971 101.608 193.774L75.1606 180.866C74.9793 180.799 74.8226 180.692 74.7066 180.556C74.5906 180.421 74.5195 180.261 74.5006 180.095V177.744C74.5211 177.911 74.5928 178.069 74.7086 178.205C74.8244 178.34 74.9803 178.447 75.1606 178.516L101.608 191.37C102.066 191.573 102.575 191.68 103.092 191.682Z" fill="#347683"/>
<path opacity="0.7" d="M103.092 191.682V194.081C102.576 194.076 102.068 193.971 101.608 193.774L75.1606 180.866C74.9793 180.799 74.8226 180.692 74.7066 180.556C74.5906 180.421 74.5195 180.261 74.5006 180.095V177.744C74.5211 177.911 74.5928 178.069 74.7086 178.205C74.8244 178.34 74.9803 178.447 75.1606 178.516L101.608 191.37C102.066 191.573 102.575 191.68 103.092 191.682Z" fill="black"/>
<path d="M136.879 154.138L139.894 155.609C139.954 155.636 140.021 155.65 140.089 155.65L142.866 154.343L139.624 152.8L136.879 154.138Z" fill="#37474F"/>
<path d="M140.506 152.372L143.537 153.848C143.593 153.871 143.654 153.881 143.716 153.879H143.827L146.494 152.577L143.252 151.038L140.506 152.372Z" fill="#37474F"/>
<path d="M130.77 157.121L133.795 158.598C133.851 158.62 133.913 158.631 133.975 158.629L138.473 156.484L135.231 154.945L130.77 157.121Z" fill="#37474F"/>
<path d="M127.142 158.892L130.163 160.364C130.22 160.388 130.283 160.4 130.347 160.399L133.13 159.093L129.888 157.554L127.142 158.892Z" fill="#37474F"/>
<path d="M110.563 182.048L113.346 180.741L110.104 179.203L107.358 180.541L110.384 182.021C110.441 182.04 110.502 182.049 110.563 182.048Z" fill="#37474F"/>
<path d="M123.51 160.658L126.525 162.13C126.584 162.158 126.652 162.172 126.72 162.17L129.497 160.863L126.255 159.32L123.51 160.658Z" fill="#37474F"/>
<path d="M143.727 154.802L140.981 156.14L144.001 157.612C144.058 157.638 144.122 157.65 144.186 157.648L146.969 156.341L143.727 154.802Z" fill="#37474F"/>
<path d="M133.584 166.804L136.367 165.497L133.119 163.958L130.374 165.296L133.399 166.773C133.457 166.796 133.52 166.806 133.584 166.804Z" fill="#37474F"/>
<path d="M147.84 155.881L150.617 154.575L147.375 153.031L144.63 154.369L147.66 155.846C147.716 155.87 147.778 155.882 147.84 155.881Z" fill="#37474F"/>
<path d="M129.957 168.588L132.734 167.281L129.492 165.738L126.746 167.076L129.761 168.548C129.821 168.576 129.888 168.59 129.957 168.588Z" fill="#37474F"/>
<path d="M126.329 170.372L129.107 169.065L125.865 167.522L123.119 168.86L126.145 170.336C126.202 170.36 126.265 170.372 126.329 170.372Z" fill="#37474F"/>
<path d="M140.839 163.281L146.673 160.484L139.334 156.943L136.224 158.468L140.063 160.337C140.094 160.349 140.12 160.368 140.14 160.391C140.159 160.415 140.171 160.442 140.173 160.471C140.172 160.496 140.162 160.521 140.145 160.542C140.129 160.563 140.106 160.58 140.078 160.591L137.655 161.773L140.664 163.241C140.718 163.265 140.778 163.279 140.839 163.281Z" fill="#37474F"/>
<path d="M116.255 164.199L119.281 165.676C119.336 165.698 119.398 165.709 119.46 165.707L122.243 164.4L118.995 162.861L116.255 164.199Z" fill="#37474F"/>
<path d="M137.211 165.051L139.994 163.745L136.752 162.206L134.006 163.544L137.011 165.007C137.072 165.037 137.141 165.052 137.211 165.051Z" fill="#37474F"/>
<path d="M95.869 181.214L98.6515 179.908L95.4044 178.364L92.6588 179.702L95.6736 181.17C95.7333 181.198 95.8005 181.213 95.869 181.214Z" fill="#37474F"/>
<path d="M87.2256 178.355L90.2564 179.836C90.3114 179.856 90.3706 179.867 90.4306 179.867H90.5415L93.2132 178.565L89.966 177.026L87.2256 178.355Z" fill="#37474F"/>
<path d="M100.927 182.748H101.038L103.678 181.446L100.436 179.907L97.6906 181.245L100.721 182.722C100.787 182.744 100.857 182.753 100.927 182.748Z" fill="#37474F"/>
<path d="M103.309 185.585L106.091 184.278L102.844 182.74L100.098 184.078L103.113 185.545C103.172 185.574 103.24 185.588 103.309 185.585Z" fill="#37474F"/>
<path d="M90.853 176.585L93.8784 178.065C93.9354 178.085 93.9963 178.096 94.0579 178.097L96.8405 176.79L93.5933 175.251L90.853 176.585Z" fill="#37474F"/>
<path d="M106.936 183.819L109.713 182.508L106.471 180.969L103.731 182.307L106.756 183.783C106.812 183.807 106.873 183.819 106.936 183.819Z" fill="#37474F"/>
<path d="M101.74 171.264L104.761 172.74C104.818 172.763 104.882 172.773 104.945 172.772L107.728 171.469L104.481 169.926L101.74 171.264Z" fill="#37474F"/>
<path d="M105.368 169.507L108.383 170.979C108.441 171.006 108.506 171.02 108.573 171.019L111.355 169.712L108.113 168.169L105.368 169.507Z" fill="#37474F"/>
<path d="M108.995 167.736L112.005 169.208C112.065 169.235 112.132 169.249 112.2 169.248L114.983 167.941L111.741 166.403L108.995 167.736Z" fill="#37474F"/>
<path d="M98.1077 173.048L101.123 174.515C101.18 174.544 101.246 174.559 101.313 174.56L104.101 173.249L100.848 171.71L98.1077 173.048Z" fill="#37474F"/>
<path d="M112.628 165.97L115.653 167.446C115.71 167.467 115.771 167.478 115.833 167.477L118.615 166.171L115.368 164.632L112.628 165.97Z" fill="#37474F"/>
<path d="M94.4803 174.832L97.5058 176.304C97.5633 176.328 97.6265 176.34 97.6906 176.34L100.468 175.033L97.2259 173.494L94.4803 174.832Z" fill="#37474F"/>
<path d="M119.882 162.429L122.913 163.91C122.968 163.93 123.027 163.94 123.087 163.941L125.87 162.634L122.628 161.091L119.882 162.429Z" fill="#37474F"/>
<path d="M128.948 162.01L131.963 163.477C132.023 163.505 132.09 163.518 132.158 163.517H132.269L134.936 162.215L131.694 160.676L128.948 162.01Z" fill="#37474F"/>
<path d="M148.532 148.46L151.547 149.927C151.605 149.954 151.67 149.968 151.737 149.968L154.519 148.661L151.272 147.122L148.532 148.46Z" fill="#37474F"/>
<path d="M152.159 146.689L155.174 148.157C155.232 148.184 155.298 148.198 155.364 148.197L158.147 146.89L154.905 145.351L152.159 146.689Z" fill="#37474F"/>
<path d="M125.321 163.776L128.336 165.247C128.394 165.274 128.459 165.288 128.526 165.288L131.308 163.981L128.066 162.438L125.321 163.776Z" fill="#37474F"/>
<path d="M155.786 144.919L158.801 146.391C158.86 146.417 158.925 146.431 158.991 146.431L161.774 145.12L158.532 143.581L155.786 144.919Z" fill="#37474F"/>
<path d="M135.786 161.746H135.897L138.563 160.444L135.321 158.905L132.576 160.243L135.59 161.711C135.651 161.736 135.718 161.749 135.786 161.746Z" fill="#37474F"/>
<path d="M152.629 150.458L155.639 151.925C155.7 151.954 155.769 151.969 155.839 151.97L158.616 150.663L155.375 149.12L152.629 150.458Z" fill="#37474F"/>
<path d="M159.889 146.917L162.899 148.384C162.958 148.414 163.025 148.429 163.094 148.429L165.876 147.122L162.624 145.583L159.889 146.917Z" fill="#37474F"/>
<path d="M159.456 150.199L162.239 148.893L158.991 147.349L156.246 148.687L159.271 150.164C159.329 150.188 159.392 150.2 159.456 150.199Z" fill="#37474F"/>
<path d="M170.655 148.63C170.708 148.649 170.766 148.66 170.824 148.661H170.94L173.606 147.363L166.262 143.822L163.516 145.16L170.655 148.63Z" fill="#37474F"/>
<path d="M121.688 165.546L124.708 167.018C124.766 167.046 124.832 167.06 124.898 167.058H125.009L127.681 165.76L124.434 164.217L121.688 165.546Z" fill="#37474F"/>
<path d="M163.569 152.197H163.68L166.346 150.895L163.104 149.356L160.359 150.694L163.374 152.162C163.434 152.187 163.501 152.2 163.569 152.197Z" fill="#37474F"/>
<path d="M167.197 150.427L169.979 149.12L166.732 147.581L163.986 148.919L166.996 150.387C167.058 150.414 167.127 150.428 167.197 150.427Z" fill="#37474F"/>
<path d="M103.546 174.386L106.561 175.853C106.621 175.882 106.688 175.897 106.756 175.898L109.534 174.591L106.292 173.048L103.546 174.386Z" fill="#37474F"/>
<path d="M96.2914 177.954L99.301 179.421C99.3608 179.449 99.4282 179.463 99.4963 179.461H99.6072L102.279 178.159L99.0317 176.616L96.2914 177.954Z" fill="#37474F"/>
<path d="M108.182 179.212L110.964 177.905L107.712 176.362L104.972 177.7L108.002 179.176C108.058 179.201 108.119 179.213 108.182 179.212Z" fill="#37474F"/>
<path d="M104.544 180.978L107.327 179.671L104.079 178.132L101.334 179.47L104.365 180.947C104.42 180.969 104.482 180.98 104.544 180.978Z" fill="#37474F"/>
<path d="M111.809 177.441H111.925L114.592 176.143L111.35 174.6L108.604 175.938L111.614 177.405C111.674 177.432 111.742 177.444 111.809 177.441Z" fill="#37474F"/>
<path d="M118.061 167.317L121.081 168.789C121.14 168.813 121.205 168.826 121.271 168.824H121.382L124.048 167.522L120.806 165.983L118.061 167.317Z" fill="#37474F"/>
<path d="M119.069 173.9L121.852 172.593L118.605 171.054L115.859 172.392L118.874 173.86C118.934 173.887 119.001 173.9 119.069 173.9Z" fill="#37474F"/>
<path d="M115.442 175.67L118.219 174.386L114.977 172.847L112.232 174.185L115.262 175.666C115.321 175.677 115.382 175.679 115.442 175.67Z" fill="#37474F"/>
<path d="M110.806 170.858L113.816 172.325C113.875 172.353 113.943 172.367 114.011 172.366L116.794 171.059L113.552 169.52L110.806 170.858Z" fill="#37474F"/>
<path d="M99.9188 176.17L102.928 177.637C102.99 177.665 103.059 177.679 103.129 177.678L105.906 176.371L102.664 174.832L99.9188 176.17Z" fill="#37474F"/>
<path d="M114.433 169.088L117.448 170.555C117.508 170.583 117.576 170.596 117.644 170.595L120.421 169.288L117.179 167.75L114.433 169.088Z" fill="#37474F"/>
<path d="M107.184 172.624L110.194 174.096C110.253 174.124 110.321 174.138 110.389 174.136H110.5L113.172 172.838L109.924 171.295L107.184 172.624Z" fill="#37474F"/>
<path d="M122.697 172.129L125.479 170.823L122.232 169.284L119.492 170.622L122.512 172.094C122.568 172.119 122.632 172.132 122.697 172.129Z" fill="#37474F"/>
<path d="M144.144 150.601L147.169 152.077C147.226 152.099 147.287 152.11 147.349 152.108L150.132 150.802L146.884 149.263L144.144 150.601Z" fill="#37474F"/>
<path d="M86.3386 178.788L83.593 180.126L86.6237 181.602C86.6795 181.625 86.7412 181.636 86.8032 181.634H86.9141L89.5858 180.331L86.3386 178.788Z" fill="#37474F"/>
<path d="M91.777 180.135L87.6956 182.124L90.7263 183.605C90.7813 183.625 90.8405 183.636 90.9005 183.636H91.0167L95.0189 181.683L91.777 180.135Z" fill="#37474F"/>
<path d="M81.9351 176.081L78.614 177.7L81.6341 179.167C81.692 179.195 81.7577 179.209 81.8242 179.207L85.177 177.624L81.9351 176.081Z" fill="#37474F"/>
<path d="M99.2165 184.51L95.9006 186.129L98.9102 187.597C98.9704 187.623 99.0375 187.637 99.1056 187.637L102.458 186.049L99.2165 184.51Z" fill="#37474F"/>
<path d="M96.8299 181.674L91.7981 184.127L94.8235 185.603C94.8798 185.625 94.9412 185.635 95.0031 185.634H95.1139L100.077 183.217L96.8299 181.674Z" fill="#37474F"/>
<path d="M87.6058 176.389L90.3831 175.082L87.12 173.543L84.3745 174.881L87.3893 176.353C87.4558 176.382 87.5311 176.395 87.6058 176.389Z" fill="#37474F"/>
<path d="M99.9979 188.127L103.013 189.599C103.072 189.623 103.137 189.635 103.203 189.635L107.321 187.677L104.079 186.138L99.9979 188.127Z" fill="#37474F"/>
<path d="M91.2332 174.618L94.0157 173.311L90.7685 171.772L88.0282 173.11L91.0536 174.587C91.1099 174.609 91.1713 174.619 91.2332 174.618Z" fill="#37474F"/>
<path d="M107.327 166.773H107.437L110.109 165.47L106.862 163.932L104.122 165.27L107.137 166.742C107.196 166.766 107.261 166.777 107.327 166.773Z" fill="#37474F"/>
<path d="M110.954 165.02L113.736 163.713L110.495 162.17L107.749 163.508L110.769 164.98C110.825 165.007 110.889 165.021 110.954 165.02Z" fill="#37474F"/>
<path d="M103.699 168.539H103.81L106.45 167.237L103.208 165.698L100.463 167.036L103.488 168.499C103.553 168.528 103.626 168.542 103.699 168.539Z" fill="#37474F"/>
<path d="M98.4879 171.081H98.604L101.27 169.783L98.0285 168.24L95.2829 169.578L98.3031 171.05C98.36 171.075 98.424 171.085 98.4879 171.081Z" fill="#37474F"/>
<path d="M94.8605 172.852L97.643 171.545L94.4011 170.002L91.6555 171.34L94.681 172.816C94.7364 172.84 94.7981 172.853 94.8605 172.852Z" fill="#37474F"/>
<path d="M172.197 152.92L175.227 154.401C175.283 154.42 175.342 154.429 175.402 154.428H175.512L178.152 153.125L174.911 151.587L172.197 152.92Z" fill="#37474F"/>
<path d="M153.284 162.139L156.293 163.606C156.352 163.637 156.42 163.652 156.489 163.651L159.271 162.344L156.029 160.801L153.284 162.139Z" fill="#37474F"/>
<path d="M164.937 156.461L167.952 157.929C168.01 157.955 168.075 157.969 168.142 157.969H168.252L174.552 154.896L171.31 153.357L164.937 156.461Z" fill="#37474F"/>
<path d="M156.911 160.373L159.921 161.836C159.981 161.866 160.051 161.882 160.121 161.88L162.904 160.573L159.657 159.035L156.911 160.373Z" fill="#37474F"/>
<path d="M160.544 158.602L163.543 160.06C163.603 160.095 163.676 160.112 163.749 160.11L166.531 158.803L163.284 157.264L160.544 158.602Z" fill="#37474F"/>
<path d="M114.576 163.236H114.692L117.359 161.934L114.117 160.391L111.371 161.729L114.381 163.196C114.441 163.223 114.508 163.237 114.576 163.236Z" fill="#37474F"/>
<path d="M174.467 147.809L171.721 149.147L178.855 152.626C178.91 152.646 178.969 152.657 179.029 152.657H179.14L181.806 151.355L174.467 147.809Z" fill="#37474F"/>
<path d="M109.169 183.658L112.179 185.126C112.239 185.153 112.306 185.166 112.374 185.166L115.727 183.578L112.464 182.039L109.169 183.658Z" fill="#37474F"/>
<path d="M113.367 181.607L116.376 183.074C116.438 183.103 116.507 183.119 116.577 183.119H116.688L137.312 173.048L134.064 171.505L113.367 181.607Z" fill="#37474F"/>
<path d="M114.191 180.278L116.973 178.971L113.731 177.432L110.986 178.77L114.011 180.242C114.067 180.265 114.128 180.278 114.191 180.278Z" fill="#37474F"/>
<path d="M104.966 185.706L107.976 187.173C108.036 187.201 108.103 187.216 108.171 187.217L111.524 185.63L108.282 184.087L104.966 185.706Z" fill="#37474F"/>
<path d="M134.952 171.081L137.966 172.553C138.025 172.578 138.09 172.592 138.157 172.593H138.273L141.509 171.014L138.267 169.48L134.952 171.081Z" fill="#37474F"/>
<path d="M143.352 166.982L146.377 168.459C146.435 168.483 146.498 168.496 146.562 168.494H146.673L149.915 166.915L146.673 165.372L143.352 166.982Z" fill="#37474F"/>
<path d="M139.149 169.034L142.18 170.51C142.236 170.532 142.298 170.543 142.359 170.542L145.712 168.954L142.47 167.415L139.149 169.034Z" fill="#37474F"/>
<path d="M147.555 164.935L150.57 166.403C150.63 166.43 150.697 166.444 150.765 166.443H150.876L154.878 164.489L151.636 162.951L147.555 164.935Z" fill="#37474F"/>
<path d="M151.446 154.111H151.557L154.229 152.813L151.008 151.261L148.262 152.599L151.288 154.075C151.337 154.096 151.391 154.108 151.446 154.111Z" fill="#37474F"/>
<path d="M156.019 159.882H156.13L158.801 158.58L155.559 157.041L152.814 158.379L155.834 159.855C155.892 159.877 155.955 159.886 156.019 159.882Z" fill="#37474F"/>
<path d="M143.225 166.122L150.781 162.482L147.534 160.944L140.015 164.61L143.046 166.086C143.101 166.111 143.163 166.123 143.225 166.122Z" fill="#37474F"/>
<path d="M164.039 155.966H164.155L166.822 154.664L163.58 153.125L160.834 154.463L163.86 155.94C163.916 155.96 163.978 155.969 164.039 155.966Z" fill="#37474F"/>
<path d="M167.672 154.2H167.783L170.449 152.902L167.207 151.359L164.461 152.697L167.482 154.173C167.542 154.195 167.607 154.204 167.672 154.2Z" fill="#37474F"/>
<path d="M139.593 167.892L142.375 166.586L139.133 165.042L136.388 166.38L139.403 167.852C139.461 167.878 139.526 167.892 139.593 167.892Z" fill="#37474F"/>
<path d="M159.942 153.968H160.053L162.719 152.666L159.456 151.123L156.71 152.461L159.72 153.924C159.786 153.958 159.864 153.974 159.942 153.968Z" fill="#37474F"/>
<path d="M121.44 176.736L124.223 175.43L120.975 173.891L118.235 175.229L121.26 176.705C121.316 176.728 121.378 176.739 121.44 176.736Z" fill="#37474F"/>
<path d="M135.965 169.658L138.748 168.352L135.501 166.804L132.76 168.142L135.791 169.623C135.846 169.644 135.905 169.656 135.965 169.658Z" fill="#37474F"/>
<path d="M117.823 178.507H117.934L120.574 177.205L117.332 175.666L114.587 177.004L117.617 178.48C117.682 178.505 117.753 178.515 117.823 178.507Z" fill="#37474F"/>
<path d="M125.078 174.97L127.861 173.664L124.608 172.12L121.862 173.458L124.898 174.939C124.954 174.962 125.016 174.972 125.078 174.97Z" fill="#37474F"/>
<path d="M128.711 173.2H128.832L131.498 171.897L128.246 170.372L125.5 171.71L128.515 173.182C128.577 173.202 128.645 173.209 128.711 173.2Z" fill="#37474F"/>
<path d="M132.338 171.429H132.449L135.12 170.127L131.873 168.588L129.128 169.926L132.158 171.402C132.215 171.421 132.277 171.43 132.338 171.429Z" fill="#37474F"/>
<path d="M123.42 158.923L126.192 157.616L122.945 156.073L120.199 157.411L123.214 158.879C123.276 158.911 123.348 158.927 123.42 158.923Z" fill="#37474F"/>
<path d="M171.299 152.429H171.41L174.082 151.132L170.834 149.588L168.089 150.926L171.12 152.407C171.177 152.425 171.238 152.432 171.299 152.429Z" fill="#37474F"/>
<path d="M130.68 155.382L133.457 154.075L130.215 152.532L127.47 153.87L130.479 155.337C130.541 155.367 130.61 155.382 130.68 155.382Z" fill="#37474F"/>
<path d="M138.737 151.453L141.52 150.146L138.273 148.603L135.532 149.941L138.547 151.413C138.605 151.44 138.671 151.454 138.737 151.453Z" fill="#37474F"/>
<path d="M135.11 153.223L137.887 151.917L134.64 150.373L131.894 151.711L134.909 153.183C134.971 153.211 135.04 153.225 135.11 153.223Z" fill="#37474F"/>
<path d="M119.793 160.694L122.575 159.383L119.328 157.844L116.588 159.182L119.603 160.654C119.661 160.679 119.727 160.693 119.793 160.694Z" fill="#37474F"/>
<path d="M127.047 157.153H127.164L129.804 155.85L126.588 154.316L123.842 155.654L126.852 157.121C126.913 157.145 126.98 157.156 127.047 157.153Z" fill="#37474F"/>
<path d="M142.365 149.682L145.147 148.375L141.905 146.837L139.16 148.175L142.175 149.642C142.232 149.67 142.298 149.683 142.365 149.682Z" fill="#37474F"/>
<path d="M156.594 141.717L159.372 140.41L157.608 139.598L154.862 140.936L156.404 141.672C156.463 141.699 156.528 141.714 156.594 141.717Z" fill="#37474F"/>
<path d="M162.624 144.66L165.407 143.353L162.159 141.828L159.414 143.166L162.429 144.638C162.491 144.658 162.558 144.666 162.624 144.66Z" fill="#37474F"/>
<path d="M145.728 147.028H145.839L148.505 145.726L146.742 144.923L143.996 146.261L145.533 146.997C145.594 147.019 145.661 147.03 145.728 147.028Z" fill="#37474F"/>
<path d="M149.334 145.258H149.445L152.085 143.96L150.353 143.166L147.608 144.504L149.155 145.24C149.212 145.257 149.274 145.263 149.334 145.258Z" fill="#37474F"/>
<path d="M152.962 143.487L155.744 142.18L153.981 141.382L151.235 142.72L152.787 143.46C152.843 143.479 152.902 143.488 152.962 143.487Z" fill="#37474F"/>
<g opacity="0.8">
<path d="M157.09 27.9912V94.1999C157.06 94.677 156.897 95.1412 156.615 95.5551C156.332 95.9689 155.938 96.3206 155.464 96.5816L49.8167 148.202C49.6578 148.285 49.4756 148.331 49.2887 148.335C49.2203 148.342 49.1512 148.342 49.0828 148.335C49.0353 148.327 48.9892 148.313 48.9455 148.295L48.8557 148.251L48.7607 148.197C48.7284 148.177 48.6983 148.155 48.6709 148.13C48.5433 148.028 48.441 147.905 48.37 147.769C48.2573 147.549 48.1998 147.312 48.201 147.073V81.1722C48.2327 80.6944 48.3968 80.2295 48.6802 79.815C48.9636 79.4005 49.3583 79.0481 49.8325 78.7861L155.464 27.2063C155.622 27.1138 155.803 27.055 155.994 27.0348C156.184 27.0146 156.377 27.0336 156.557 27.0903C156.607 27.1091 156.655 27.1315 156.7 27.1572C156.741 27.1827 156.777 27.2145 156.805 27.2509C156.824 27.2651 156.84 27.2817 156.853 27.2999C156.875 27.3209 156.893 27.3451 156.906 27.3713C156.948 27.4247 156.98 27.4834 157.001 27.5452C157.019 27.5854 157.032 27.6273 157.038 27.6701C157.04 27.6743 157.041 27.6788 157.041 27.6835C157.041 27.6881 157.04 27.6927 157.038 27.6969C157.052 27.7375 157.061 27.7794 157.064 27.8217C157.085 27.8708 157.09 27.9288 157.09 27.9912Z" fill="#455A64"/>
<path d="M156.188 27.4558C156.242 27.456 156.296 27.4651 156.346 27.4825H156.378L156.42 27.5316L156.462 27.5806C156.462 27.5806 156.462 27.5806 156.462 27.6029L156.51 27.7323C156.509 27.7427 156.509 27.7531 156.51 27.7635C156.51 27.8081 156.51 27.8527 156.51 27.9018V94.1997C156.481 94.5989 156.343 94.9871 156.106 95.3337C155.87 95.6804 155.542 95.9761 155.147 96.1977L49.5528 147.818C49.4708 147.863 49.3758 147.887 49.2782 147.889H49.1673H49.1304L49.0617 147.849V147.827C48.986 147.769 48.9265 147.697 48.8875 147.617C48.8021 147.454 48.7589 147.278 48.7608 147.1V81.172C48.7896 80.7722 48.9282 80.3835 49.1656 80.0367C49.4029 79.69 49.7325 79.3946 50.1283 79.1739L155.723 27.5806C155.864 27.508 156.023 27.4652 156.188 27.4558ZM156.188 27.0098C155.932 27.0164 155.682 27.0794 155.464 27.1926L49.8168 78.7904C49.3433 79.0519 48.949 79.4036 48.6656 79.8172C48.3823 80.2309 48.2177 80.6949 48.1853 81.172V147.046C48.184 147.285 48.2416 147.522 48.3542 147.742C48.4253 147.878 48.5276 148.001 48.6552 148.103C48.6826 148.128 48.7126 148.15 48.7449 148.17L48.84 148.224L48.9297 148.268C48.9734 148.286 49.0195 148.3 49.067 148.308C49.1354 148.315 49.2045 148.315 49.2729 148.308H49.2993C49.4863 148.304 49.6685 148.258 49.8273 148.175L155.464 96.5813C155.938 96.3203 156.332 95.9686 156.615 95.5548C156.897 95.141 157.06 94.6767 157.091 94.1997V27.991C157.091 27.9285 157.091 27.8705 157.091 27.817C157.087 27.7747 157.078 27.7328 157.064 27.6921C157.066 27.688 157.068 27.6834 157.068 27.6788C157.068 27.6741 157.066 27.6696 157.064 27.6654C157.058 27.6226 157.046 27.5807 157.027 27.5405C157.006 27.4787 156.974 27.42 156.932 27.3666C156.92 27.3403 156.902 27.3162 156.879 27.2952C156.866 27.277 156.85 27.2604 156.832 27.2461C156.804 27.2098 156.768 27.178 156.726 27.1525C156.681 27.1268 156.633 27.1044 156.584 27.0856C156.468 27.0404 156.342 27.0176 156.214 27.0187L156.188 27.0098Z" fill="#455A64"/>
<g opacity="0.7">
<path d="M157.09 27.9912V94.1999C157.06 94.677 156.897 95.1412 156.615 95.5551C156.332 95.9689 155.938 96.3206 155.464 96.5816L49.8167 148.202C49.6578 148.285 49.4756 148.331 49.2887 148.335C49.2203 148.342 49.1512 148.342 49.0828 148.335C49.0353 148.327 48.9892 148.313 48.9455 148.295L48.8557 148.251L48.7607 148.197C48.7284 148.177 48.6983 148.155 48.6709 148.13C48.5433 148.028 48.441 147.905 48.37 147.769C48.2573 147.549 48.1998 147.312 48.201 147.073V81.1722C48.2327 80.6944 48.3968 80.2295 48.6802 79.815C48.9636 79.4005 49.3583 79.0481 49.8325 78.7861L155.464 27.2063C155.622 27.1138 155.803 27.055 155.994 27.0348C156.184 27.0146 156.377 27.0336 156.557 27.0903C156.607 27.1091 156.655 27.1315 156.7 27.1572C156.741 27.1827 156.777 27.2145 156.805 27.2509C156.824 27.2651 156.84 27.2817 156.853 27.2999C156.875 27.3209 156.893 27.3451 156.906 27.3713C156.948 27.4247 156.98 27.4834 157.001 27.5452C157.019 27.5854 157.032 27.6273 157.038 27.6701C157.04 27.6743 157.041 27.6788 157.041 27.6835C157.041 27.6881 157.04 27.6927 157.038 27.6969C157.052 27.7375 157.061 27.7794 157.064 27.8217C157.085 27.8708 157.09 27.9288 157.09 27.9912Z" fill="#455A64"/>
</g>
</g>
<path d="M156.557 27.0769C156.378 27.0203 156.184 27.0012 155.994 27.0214C155.804 27.0416 155.622 27.1004 155.464 27.1929L49.8168 78.7906C49.3433 79.0521 48.949 79.4039 48.6657 79.8175C48.3823 80.2311 48.2178 80.6951 48.1853 81.1722V85.6679L46.105 84.6377V80.1777C46.136 79.7014 46.2994 79.238 46.582 78.825C46.8645 78.412 47.2582 78.061 47.7312 77.8005L153.384 26.2028C153.553 26.0976 153.753 26.0343 153.962 26.0201C154.171 26.006 154.38 26.0414 154.567 26.1225C154.857 26.2697 156.209 26.9253 156.557 27.0769Z" fill="#347683"/>
<path d="M157.091 27.9776C157.091 27.1124 156.357 26.76 155.464 27.1971L49.8115 78.7949C49.3385 79.0554 48.9448 79.4064 48.6623 79.8194C48.3798 80.2324 48.2163 80.6958 48.1853 81.172V85.6677L157.091 32.4911V27.9776Z" fill="#347683"/>
<g opacity="0.4">
<path d="M155.464 27.206L49.8168 78.7948C49.3343 79.0511 48.9394 79.4093 48.6711 79.834L46.6013 78.8261C46.8707 78.4146 47.2596 78.0678 47.7312 77.8181L153.384 26.2025C153.553 26.098 153.753 26.0349 153.961 26.0199C154.17 26.005 154.379 26.0388 154.567 26.1178C154.857 26.2694 156.209 26.9206 156.552 27.0767C156.372 27.02 156.179 27.0021 155.989 27.0247C155.799 27.0473 155.619 27.1096 155.464 27.206Z" fill="#FEFFFF"/>
</g>
<path opacity="0.15" d="M46.105 84.6463V80.1863C46.1277 79.7 46.2987 79.2268 46.6013 78.8126L48.6763 79.8161C48.3728 80.2281 48.2035 80.7004 48.1853 81.1853V85.681L46.105 84.6463Z" fill="black"/>
<path d="M147.312 33.0976C147.02 33.294 146.785 33.5446 146.625 33.83C146.466 34.1154 146.387 34.4279 146.393 34.7434C146.393 35.4035 146.805 35.738 147.312 35.4927C147.604 35.2963 147.839 35.0457 147.999 34.7603C148.158 34.4749 148.237 34.1624 148.231 33.8469C148.204 33.1868 147.792 32.8523 147.312 33.0976Z" fill="#455A64"/>
<path d="M150.596 31.4831C150.304 31.6784 150.068 31.9281 149.909 32.2128C149.75 32.4975 149.67 32.8095 149.677 33.1244C149.677 33.7845 150.089 34.119 150.596 33.8737C150.892 33.6791 151.131 33.4294 151.294 33.1439C151.457 32.8584 151.54 32.5449 151.536 32.228C151.536 31.5679 151.103 31.22 150.596 31.4831Z" fill="#455A64"/>
<path d="M153.907 29.8821C153.613 30.0778 153.378 30.3282 153.218 30.6138C153.059 30.8993 152.98 31.2122 152.988 31.5278C152.988 32.1879 153.4 32.5224 153.907 32.2726C154.2 32.0769 154.436 31.8265 154.595 31.5409C154.754 31.2554 154.833 30.9425 154.825 30.6269C154.825 29.949 154.414 29.6145 153.907 29.8821Z" fill="#455A64"/>
<path opacity="0.9" d="M48.7819 148.206L48.5813 148.108C48.4335 148.032 48.2592 147.952 48.0533 147.871L47.7787 147.742L47.351 147.537C47.2138 147.465 47.0923 147.407 46.992 147.363C46.8917 147.318 46.8231 147.283 46.7914 147.269C46.6833 147.222 46.588 147.157 46.5115 147.077C46.4222 146.996 46.3491 146.902 46.295 146.801C46.1678 146.574 46.1029 146.325 46.105 146.074V84.6418L48.1853 85.6721V147.051C48.1936 147.289 48.2508 147.524 48.3543 147.746C48.4253 147.882 48.5276 148.005 48.6552 148.108C48.6787 148.135 48.7094 148.158 48.745 148.175L48.7819 148.206Z" fill="#37474F"/>
<path d="M83.5032 108.588C83.5032 108.588 79.6594 106.487 79.1631 106.474L68.2335 106.184L72.5789 108.137V108.298L83.5032 108.588Z" fill="#263238"/>
<path d="M64.7698 114.916V109.118L83.5032 89.4453V97.1165L72.5789 108.119V108.28L83.5032 108.57V116.241L64.7698 114.916Z" fill="#FAFAFA"/>
<path d="M83.5032 89.4632L79.163 87.3491L60.4243 107.022L64.7698 109.136L83.5032 89.4632Z" fill="#455A64"/>
<path d="M60.4243 107.022V112.802L64.7698 114.916V109.136L60.4243 107.022Z" fill="#37474F"/>
<path d="M94.8446 112.459L89.0366 115.296L103.535 70.4056L109.143 67.6716L94.8446 112.459Z" fill="#FAFAFA"/>
<path d="M109.138 67.6715L104.792 65.5575L99.1848 68.2915L103.525 70.4055L109.138 67.6715Z" fill="#455A64"/>
<path d="M99.1848 68.2915L103.525 70.4055L89.0314 115.295L84.6859 113.181L99.1848 68.2915Z" fill="#37474F"/>
<path d="M110.32 91.2784L114.66 93.3924L125.585 82.287L121.245 80.173L110.32 91.2784Z" fill="#263238"/>
<path d="M125.585 82.287L114.66 81.9391V74.2679L133.394 75.6684V81.4664L114.66 101.09V93.3924L125.585 82.4476V82.287Z" fill="#FAFAFA"/>
<path d="M110.32 72.1539L114.66 74.268L133.399 75.6684L129.054 73.5544L110.32 72.1539Z" fill="#455A64"/>
<path d="M114.66 74.268V81.9392L110.32 79.8251V72.1539" fill="#37474F"/>
<path d="M110.32 91.2783L114.66 93.3924V101.064L110.32 98.9495V91.2783Z" fill="#37474F"/>
<g opacity="0.8">
<path d="M191.205 39.4088V105.617C191.174 106.096 191.011 106.561 190.727 106.976C190.444 107.39 190.048 107.742 189.573 108.004L144.54 129.947C144.382 130.032 144.199 130.079 144.012 130.081C143.943 130.08 143.874 130.072 143.806 130.058L143.664 130.018L143.579 129.974L143.484 129.92C143.452 129.9 143.422 129.878 143.394 129.853C143.265 129.752 143.162 129.629 143.093 129.492C142.981 129.272 142.923 129.035 142.924 128.796V62.9219C142.955 62.4443 143.118 61.9796 143.401 61.5651C143.683 61.1506 144.077 60.798 144.551 60.5358L189.552 38.6149C189.71 38.521 189.892 38.461 190.084 38.44C190.275 38.419 190.469 38.4377 190.65 38.4945C190.699 38.514 190.745 38.5379 190.788 38.5658C190.828 38.5912 190.863 38.6212 190.893 38.655C190.912 38.6693 190.928 38.6859 190.941 38.7041C190.963 38.7251 190.981 38.7493 190.993 38.7755C191.038 38.8298 191.072 38.8901 191.094 38.9539C191.112 38.9925 191.125 39.033 191.131 39.0743C191.133 39.0785 191.134 39.083 191.134 39.0877C191.134 39.0923 191.133 39.0969 191.131 39.101C191.145 39.1417 191.154 39.1836 191.157 39.2259C191.199 39.2928 191.205 39.3508 191.205 39.4088Z" fill="#455A64"/>
<path d="M190.297 38.8734C190.352 38.8725 190.406 38.8833 190.455 38.9046H190.487L190.534 38.9536L190.571 39.0072L190.624 39.1365C190.627 39.1468 190.627 39.1574 190.624 39.1677C190.627 39.2123 190.627 39.257 190.624 39.3015V105.617C190.594 106.017 190.455 106.405 190.218 106.752C189.981 107.098 189.652 107.394 189.257 107.615L144.282 129.563C144.2 129.608 144.105 129.632 144.007 129.634H143.896H143.859L143.791 129.599C143.718 129.539 143.661 129.468 143.622 129.389C143.536 129.226 143.493 129.05 143.495 128.872V62.9217C143.524 62.5224 143.662 62.1343 143.898 61.7876C144.135 61.441 144.463 61.1452 144.857 60.9236L189.89 39.0027C190.028 38.9272 190.186 38.8827 190.35 38.8734M190.35 38.4274C190.093 38.4364 189.844 38.5009 189.626 38.6147L144.593 60.5356C144.12 60.7978 143.726 61.1504 143.443 61.5648C143.161 61.9793 142.998 62.4441 142.967 62.9217V128.796C142.966 129.035 143.023 129.272 143.136 129.492C143.205 129.629 143.307 129.752 143.437 129.853C143.464 129.878 143.494 129.9 143.527 129.92L143.622 129.973L143.706 130.018L143.849 130.058C143.916 130.072 143.985 130.08 144.055 130.08C144.242 130.078 144.425 130.032 144.583 129.947L189.552 108.003C190.027 107.742 190.422 107.389 190.705 106.975C190.989 106.56 191.153 106.095 191.184 105.617V39.4086C191.184 39.3506 191.184 39.2926 191.184 39.2346C191.181 39.1923 191.172 39.1504 191.157 39.1097C191.16 39.1056 191.161 39.101 191.161 39.0964C191.161 39.0917 191.16 39.0872 191.157 39.083C191.151 39.0417 191.139 39.0012 191.12 38.9626C191.099 38.8988 191.065 38.8385 191.02 38.7842C191.008 38.7579 190.99 38.7338 190.967 38.7128C190.954 38.6946 190.938 38.678 190.92 38.6637C190.89 38.6299 190.854 38.5999 190.814 38.5745C190.772 38.5466 190.726 38.5227 190.677 38.5032C190.559 38.4579 190.431 38.4351 190.302 38.4363L190.35 38.4274Z" fill="#455A64"/>
<g opacity="0.8">
<path d="M191.205 39.4088V105.617C191.174 106.096 191.011 106.561 190.727 106.976C190.444 107.39 190.048 107.742 189.573 108.004L144.54 129.947C144.382 130.032 144.199 130.079 144.012 130.081C143.943 130.08 143.874 130.072 143.806 130.058L143.664 130.018L143.579 129.974L143.484 129.92C143.452 129.9 143.422 129.878 143.394 129.853C143.265 129.752 143.162 129.629 143.093 129.492C142.981 129.272 142.923 129.035 142.924 128.796V62.9219C142.955 62.4443 143.118 61.9796 143.401 61.5651C143.683 61.1506 144.077 60.798 144.551 60.5358L189.552 38.6149C189.71 38.521 189.892 38.461 190.084 38.44C190.275 38.419 190.469 38.4377 190.65 38.4945C190.699 38.514 190.745 38.5379 190.788 38.5658C190.828 38.5912 190.863 38.6212 190.893 38.655C190.912 38.6693 190.928 38.6859 190.941 38.7041C190.963 38.7251 190.981 38.7493 190.993 38.7755C191.038 38.8298 191.072 38.8901 191.094 38.9539C191.112 38.9925 191.125 39.033 191.131 39.0743C191.133 39.0785 191.134 39.083 191.134 39.0877C191.134 39.0923 191.133 39.0969 191.131 39.101C191.145 39.1417 191.154 39.1836 191.157 39.2259C191.199 39.2928 191.205 39.3508 191.205 39.4088Z" fill="#455A64"/>
</g>
</g>
<path d="M190.671 38.4943C190.49 38.4375 190.296 38.4188 190.105 38.4398C189.913 38.4608 189.731 38.5208 189.573 38.6147L144.54 60.5356C144.066 60.7978 143.673 61.1504 143.39 61.5649C143.108 61.9793 142.944 62.4441 142.914 62.9217V67.4174L140.833 66.3871V61.9271C140.864 61.4508 141.028 60.9874 141.31 60.5744C141.593 60.1615 141.987 59.8105 142.46 59.5499L187.498 37.6246C187.667 37.5217 187.866 37.4598 188.074 37.4456C188.281 37.4315 188.489 37.4656 188.676 37.5443C188.971 37.687 190.323 38.356 190.671 38.4943Z" fill="#347683"/>
<path d="M191.199 39.3996C191.199 38.5076 190.471 38.1776 189.573 38.6147L144.54 60.54C144.066 60.801 143.672 61.1527 143.39 61.5665C143.107 61.9803 142.944 62.4446 142.914 62.9217V67.4173L191.199 43.9131V39.3996Z" fill="#347683"/>
<g opacity="0.4">
<path d="M189.552 38.6147L144.524 60.5401C144.045 60.7911 143.649 61.141 143.373 61.557L141.309 60.549C141.577 60.1379 141.966 59.7922 142.439 59.5455L187.493 37.6201C187.663 37.5168 187.862 37.4548 188.071 37.4406C188.279 37.4265 188.488 37.4608 188.676 37.5399C188.971 37.6915 190.318 38.3382 190.661 38.4943C190.479 38.4344 190.282 38.414 190.088 38.4351C189.895 38.4561 189.71 38.5179 189.552 38.6147Z" fill="#FEFFFF"/>
</g>
<path opacity="0.15" d="M140.833 66.3915V61.9315C140.857 61.4453 141.028 60.9723 141.33 60.5579L143.4 61.5614C143.1 61.9745 142.933 62.4463 142.914 62.9306V67.4263L140.833 66.3915Z" fill="black"/>
<path d="M181.394 44.5197C181.102 44.715 180.867 44.9647 180.707 45.2494C180.548 45.5341 180.469 45.8461 180.476 46.161C180.476 46.8211 180.887 47.1556 181.394 46.9103C181.687 46.7139 181.922 46.4633 182.081 46.1779C182.24 45.8926 182.32 45.58 182.313 45.2645C182.313 44.6 181.901 44.27 181.394 44.5197Z" fill="#455A64"/>
<path d="M184.705 42.9008C184.412 43.0969 184.177 43.3475 184.018 43.6329C183.858 43.9184 183.779 44.231 183.786 44.5465C183.786 45.2066 184.198 45.5411 184.705 45.2914C184.999 45.0964 185.235 44.846 185.395 44.5603C185.554 44.2746 185.633 43.9614 185.624 43.6456C185.624 42.9855 185.217 42.651 184.705 42.9008Z" fill="#455A64"/>
<path d="M188.016 41.2818C187.723 41.4782 187.488 41.7288 187.329 42.0142C187.17 42.2996 187.09 42.6121 187.097 42.9276C187.097 43.5876 187.509 43.9221 188.016 43.6724C188.31 43.4781 188.546 43.2286 188.707 42.9438C188.867 42.6589 188.947 42.3465 188.94 42.0311C188.94 41.371 188.528 41.0321 188.016 41.2818Z" fill="#455A64"/>
<path opacity="0.9" d="M143.51 129.951L143.31 129.853L142.808 129.617L142.534 129.483L142.106 129.278C141.969 129.206 141.842 129.148 141.747 129.104C141.652 129.059 141.578 129.023 141.546 129.01C141.438 128.963 141.343 128.898 141.266 128.818C141.177 128.736 141.104 128.643 141.05 128.542C140.923 128.314 140.858 128.066 140.86 127.815V66.3871L142.94 67.4173V128.796C142.948 129.034 143.006 129.27 143.109 129.492C143.178 129.629 143.281 129.752 143.41 129.853C143.434 129.881 143.464 129.904 143.5 129.92C143.501 129.931 143.505 129.941 143.51 129.951Z" fill="#37474F"/>
<path d="M146.911 71.1504C146.915 71.0613 146.944 70.9743 146.995 70.8962L148.167 68.849C148.178 68.8258 148.196 68.8057 148.22 68.7911V68.7688C148.234 68.7601 148.251 68.7554 148.268 68.7554C148.285 68.7554 148.302 68.7601 148.315 68.7688C148.329 68.7819 148.34 68.7975 148.346 68.8144C148.353 68.8314 148.355 68.8492 148.352 68.8669V69.576C148.362 69.6471 148.362 69.719 148.352 69.7901C148.33 69.8543 148.302 69.9169 148.268 69.9774L147.65 71.0567L148.268 71.5384C148.304 71.5674 148.333 71.6023 148.352 71.641C148.363 71.7046 148.363 71.7692 148.352 71.8328V72.5196C148.353 72.5675 148.34 72.6148 148.315 72.6579C148.295 72.6963 148.262 72.7289 148.22 72.7515C148.212 72.7547 148.203 72.7564 148.194 72.7564C148.185 72.7564 148.176 72.7547 148.167 72.7515L146.995 71.8595C146.966 71.8381 146.943 71.8112 146.929 71.781C146.914 71.7508 146.908 71.7181 146.911 71.6856V71.1504Z" fill="#347683"/>
<path d="M151.193 66.008C151.213 65.9384 151.244 65.871 151.283 65.8073C151.319 65.7405 151.38 65.6857 151.457 65.6512L151.895 65.4371C151.901 65.4321 151.908 65.4282 151.916 65.4255C151.923 65.4228 151.932 65.4214 151.94 65.4214C151.948 65.4214 151.957 65.4228 151.964 65.4255C151.972 65.4282 151.979 65.4321 151.985 65.4371C152 65.4499 152.011 65.4653 152.019 65.4823C152.026 65.4992 152.029 65.5173 152.027 65.5352C152.032 65.5604 152.032 65.5859 152.027 65.6111L150.021 72.8363C150.003 72.9045 149.974 72.9704 149.936 73.0325C149.901 73.1019 149.839 73.1597 149.762 73.1975L149.34 73.4027C149.327 73.4118 149.311 73.4168 149.295 73.4168C149.278 73.4168 149.262 73.4118 149.25 73.4027C149.22 73.3745 149.205 73.3377 149.208 73.3001C149.206 73.2749 149.206 73.2495 149.208 73.2243L151.193 66.008Z" fill="#347683"/>
<path d="M154.297 68.0596C154.295 68.1485 154.268 68.2357 154.218 68.3139L153.046 70.361C153.032 70.3837 153.014 70.4047 152.993 70.4234H152.962C152.949 70.4318 152.933 70.4363 152.917 70.4363C152.901 70.4363 152.885 70.4318 152.872 70.4234C152.844 70.3946 152.831 70.3578 152.835 70.3209V69.634C152.825 69.5629 152.825 69.4911 152.835 69.4199C152.855 69.3551 152.883 69.2923 152.919 69.2326L153.537 68.1533L152.919 67.6761C152.882 67.646 152.854 67.6095 152.835 67.569C152.824 67.5054 152.824 67.4409 152.835 67.3773V66.6904C152.835 66.6426 152.848 66.5954 152.872 66.5522C152.892 66.515 152.923 66.4828 152.962 66.4585H152.993C152.993 66.4585 153.025 66.4585 153.046 66.4585L154.218 67.3505C154.247 67.373 154.269 67.4009 154.283 67.4318C154.296 67.4628 154.301 67.496 154.297 67.5289V68.0596Z" fill="#347683"/>
<path d="M157.55 67.5824C157.567 67.5716 157.587 67.5657 157.608 67.5657C157.629 67.5657 157.649 67.5716 157.666 67.5824C157.683 67.5995 157.697 67.6194 157.705 67.6408C157.713 67.6622 157.716 67.6848 157.714 67.7073V68.461C157.714 68.5199 157.697 68.5779 157.666 68.6305C157.643 68.6801 157.603 68.7222 157.55 68.7509L157.022 69.0185C157.007 69.0308 156.987 69.0377 156.966 69.0377C156.946 69.0377 156.926 69.0308 156.911 69.0185C156.893 69.0025 156.88 68.9835 156.872 68.9627C156.863 68.9419 156.861 68.9199 156.864 68.8981V68.1399C156.864 68.0811 156.88 68.0232 156.911 67.9704C156.933 67.9233 156.972 67.8829 157.022 67.8545L157.55 67.5824Z" fill="#347683"/>
<path d="M159.398 66.686C159.414 66.6744 159.435 66.668 159.456 66.668C159.477 66.668 159.498 66.6744 159.514 66.686C159.531 66.7031 159.545 66.7229 159.553 66.7444C159.561 66.7658 159.564 66.7884 159.562 66.8109V67.5646C159.562 67.6234 159.545 67.6815 159.514 67.7341C159.492 67.7836 159.451 67.8258 159.398 67.8545L158.87 68.1221C158.853 68.133 158.833 68.1388 158.812 68.1388C158.791 68.1388 158.77 68.133 158.754 68.1221C158.736 68.105 158.723 68.0851 158.715 68.0637C158.707 68.0423 158.704 68.0197 158.706 67.9972V67.239C158.708 67.1803 158.724 67.1225 158.754 67.0695C158.776 67.0211 158.817 66.9804 158.87 66.9536L159.398 66.686Z" fill="#347683"/>
<path d="M161.246 65.785C161.261 65.7727 161.281 65.7659 161.301 65.7659C161.322 65.7659 161.342 65.7727 161.357 65.785C161.374 65.8021 161.387 65.8219 161.395 65.8434C161.404 65.8648 161.407 65.8874 161.404 65.9099V66.6636C161.404 66.7238 161.388 66.7832 161.357 66.8376C161.333 66.8839 161.295 66.924 161.246 66.9535L160.692 67.2211C160.676 67.2324 160.656 67.2386 160.636 67.2386C160.616 67.2386 160.596 67.2324 160.581 67.2211C160.563 67.204 160.55 67.1842 160.542 67.1627C160.534 67.1413 160.531 67.1187 160.533 67.0962V66.338C160.534 66.2793 160.551 66.2215 160.581 66.1686C160.605 66.1222 160.643 66.0821 160.692 66.0526L161.246 65.785Z" fill="#347683"/>
<path d="M147.407 76.6674L174.462 63.4747C174.784 63.3186 175.043 63.4301 175.043 63.72C175.029 63.8845 174.969 64.0438 174.868 64.1848C174.767 64.3259 174.628 64.4448 174.462 64.5318L147.407 77.7289C147.085 77.885 146.826 77.7735 146.826 77.4791C146.841 77.3148 146.901 77.1556 147.002 77.0146C147.103 76.8736 147.241 76.7546 147.407 76.6674Z" fill="#347683"/>
<path d="M156.087 85.137L183.142 71.9398C183.464 71.7837 183.723 71.8952 183.723 72.1896C183.708 72.3539 183.648 72.5131 183.547 72.6541C183.447 72.7951 183.308 72.9141 183.142 73.0013L156.087 86.194C155.765 86.3501 155.507 86.2386 155.507 85.9487C155.521 85.7842 155.581 85.625 155.682 85.4839C155.782 85.3428 155.922 85.2239 156.087 85.137Z" fill="#E0E0E0"/>
<path d="M156.087 89.3695L169.039 83.0586C169.356 82.9025 169.615 83.014 169.615 83.3084C169.601 83.4717 169.542 83.63 169.442 83.7703C169.342 83.9105 169.204 84.0289 169.039 84.1156L156.087 90.431C155.765 90.5826 155.507 90.4756 155.507 90.1812C155.521 90.0169 155.581 89.8577 155.682 89.7167C155.783 89.5756 155.922 89.4567 156.087 89.3695Z" fill="#E0E0E0"/>
<path d="M156.087 93.602L169.039 87.2911C169.356 87.1395 169.615 87.2465 169.615 87.5409C169.6 87.7046 169.54 87.8633 169.441 88.0042C169.341 88.1451 169.203 88.2644 169.039 88.3526L156.087 94.6635C155.765 94.8196 155.507 94.7081 155.507 94.4137C155.521 94.2494 155.581 94.0902 155.682 93.9492C155.783 93.8082 155.922 93.6892 156.087 93.602Z" fill="#E0E0E0"/>
<path d="M176.706 62.382L187.482 57.088C187.804 56.9319 188.063 57.0434 188.063 57.3333C188.049 57.4978 187.989 57.657 187.888 57.7981C187.787 57.9392 187.648 58.0581 187.482 58.145L176.706 63.4212C176.384 63.5773 176.125 63.4658 176.125 63.1759C176.142 63.0146 176.204 62.8589 176.304 62.7211C176.405 62.5833 176.543 62.4672 176.706 62.382Z" fill="#347683"/>
<path d="M147.407 123.234L174.462 110.042C174.784 109.886 175.043 109.997 175.043 110.287C175.029 110.451 174.969 110.611 174.868 110.752C174.767 110.893 174.628 111.012 174.462 111.099L147.407 124.296C147.085 124.447 146.826 124.34 146.826 124.046C146.841 123.882 146.901 123.723 147.002 123.582C147.103 123.44 147.241 123.322 147.407 123.234Z" fill="#347683"/>
<path d="M176.706 108.944L187.482 103.668C187.804 103.512 188.063 103.624 188.063 103.918C188.049 104.082 187.989 104.241 187.888 104.383C187.787 104.524 187.648 104.642 187.482 104.73L176.706 110.006C176.384 110.162 176.125 110.05 176.125 109.756C176.139 109.592 176.2 109.433 176.3 109.292C176.401 109.151 176.54 109.032 176.706 108.944Z" fill="#347683"/>
<path d="M176.706 96.2691L187.482 90.984C187.804 90.8279 188.063 90.9394 188.063 91.2293C188.049 91.3938 187.989 91.553 187.888 91.6941C187.787 91.8352 187.648 91.9541 187.482 92.041L176.706 97.3172C176.384 97.4733 176.125 97.3618 176.125 97.0719C176.141 96.909 176.201 96.7515 176.302 96.6121C176.403 96.4727 176.541 96.3552 176.706 96.2691Z" fill="#347683"/>
<path d="M176.706 100.502L187.482 95.2255C187.804 95.0694 188.063 95.1809 188.063 95.4708C188.049 95.6352 187.989 95.7945 187.888 95.9356C187.787 96.0767 187.648 96.1956 187.482 96.2825L176.706 101.559C176.384 101.715 176.125 101.603 176.125 101.313C176.139 101.149 176.199 100.99 176.3 100.849C176.401 100.707 176.54 100.589 176.706 100.502Z" fill="#347683"/>
<path d="M147.407 119.006L174.462 105.809C174.784 105.657 175.043 105.764 175.043 106.059C175.028 106.223 174.968 106.382 174.867 106.523C174.766 106.664 174.627 106.783 174.462 106.871L147.407 120.063C147.085 120.219 146.826 120.108 146.826 119.818C146.84 119.653 146.9 119.494 147.001 119.353C147.102 119.212 147.241 119.093 147.407 119.006Z" fill="#F5F5F5"/>
<path d="M167.513 100.738L173.569 97.7855C173.886 97.6294 174.145 97.7409 174.145 98.0308C174.131 98.1948 174.072 98.3537 173.972 98.4947C173.872 98.6357 173.734 98.7548 173.569 98.8425L167.513 101.795C167.191 101.951 166.932 101.844 166.932 101.55C166.947 101.385 167.006 101.226 167.107 101.085C167.208 100.944 167.347 100.825 167.513 100.738Z" fill="#347683"/>
<path d="M147.407 80.9134L163.189 73.2109C163.506 73.0548 163.764 73.1663 163.764 73.4562C163.751 73.6202 163.691 73.7791 163.591 73.9201C163.491 74.0611 163.354 74.1803 163.189 74.268L147.407 81.9704C147.085 82.1265 146.826 82.015 146.826 81.7251C146.84 81.5607 146.9 81.4014 147.001 81.2603C147.102 81.1192 147.241 81.0003 147.407 80.9134Z" fill="#347683"/>
<path opacity="0.6" d="M147.407 80.9134L163.189 73.2109C163.506 73.0548 163.764 73.1663 163.764 73.4562C163.751 73.6202 163.691 73.7791 163.591 73.9201C163.491 74.0611 163.354 74.1803 163.189 74.268L147.407 81.9704C147.085 82.1265 146.826 82.015 146.826 81.7251C146.84 81.5607 146.9 81.4014 147.001 81.2603C147.102 81.1192 147.241 81.0003 147.407 80.9134Z" fill="#FEFFFF"/>
<path d="M147.407 85.137L152.761 82.51C153.078 82.3539 153.336 82.4654 153.336 82.7598C153.322 82.9235 153.262 83.0822 153.162 83.2231C153.062 83.364 152.925 83.4833 152.761 83.5715L147.407 86.1851C147.085 86.3412 146.826 86.2296 146.826 85.9353C146.843 85.7733 146.904 85.6168 147.005 85.4782C147.106 85.3397 147.244 85.2228 147.407 85.137Z" fill="#347683"/>
<path opacity="0.6" d="M147.407 85.137L152.761 82.51C153.078 82.3539 153.336 82.4654 153.336 82.7598C153.322 82.9235 153.262 83.0822 153.162 83.2231C153.062 83.364 152.925 83.4833 152.761 83.5715L147.407 86.1851C147.085 86.3412 146.826 86.2296 146.826 85.9353C146.843 85.7733 146.904 85.6168 147.005 85.4782C147.106 85.3397 147.244 85.2228 147.407 85.137Z" fill="#FEFFFF"/>
<path d="M147.407 89.374L152.761 86.756C153.078 86.5999 153.336 86.7114 153.336 87.0057C153.322 87.1695 153.262 87.3281 153.162 87.469C153.062 87.6099 152.925 87.7292 152.761 87.8175L147.407 90.431C147.085 90.5871 146.826 90.4756 146.826 90.1813C146.84 90.0174 146.9 89.8587 147.001 89.7184C147.102 89.578 147.241 89.46 147.407 89.374Z" fill="#347683"/>
<path opacity="0.6" d="M147.407 89.374L152.761 86.756C153.078 86.5999 153.336 86.7114 153.336 87.0057C153.322 87.1695 153.262 87.3281 153.162 87.469C153.062 87.6099 152.925 87.7292 152.761 87.8175L147.407 90.431C147.085 90.5871 146.826 90.4756 146.826 90.1813C146.84 90.0174 146.9 89.8587 147.001 89.7184C147.102 89.578 147.241 89.46 147.407 89.374Z" fill="#FEFFFF"/>
<path d="M147.407 93.6065L152.761 90.984C153.078 90.8279 153.336 90.935 153.336 91.2293C153.323 91.3933 153.263 91.5522 153.163 91.6932C153.063 91.8342 152.926 91.9534 152.761 92.0411L147.407 94.6546C147.085 94.8107 146.826 94.6992 146.826 94.4093C146.842 94.2464 146.903 94.0889 147.003 93.9495C147.104 93.8101 147.243 93.6926 147.407 93.6065Z" fill="#347683"/>
<path opacity="0.6" d="M147.407 93.6065L152.761 90.984C153.078 90.8279 153.336 90.935 153.336 91.2293C153.323 91.3933 153.263 91.5522 153.163 91.6932C153.063 91.8342 152.926 91.9534 152.761 92.0411L147.407 94.6546C147.085 94.8107 146.826 94.6992 146.826 94.4093C146.842 94.2464 146.903 94.0889 147.003 93.9495C147.104 93.8101 147.243 93.6926 147.407 93.6065Z" fill="#FEFFFF"/>
<path d="M147.407 97.839L152.761 95.2255C153.078 95.0694 153.336 95.1809 153.336 95.4708C153.323 95.6347 153.263 95.7936 153.163 95.9346C153.063 96.0756 152.926 96.1948 152.761 96.2825L147.407 98.8961C147.085 99.0522 146.826 98.9407 146.826 98.6508C146.84 98.4863 146.9 98.327 147.001 98.1859C147.102 98.0449 147.241 97.926 147.407 97.839Z" fill="#347683"/>
<path opacity="0.6" d="M147.407 97.839L152.761 95.2255C153.078 95.0694 153.336 95.1809 153.336 95.4708C153.323 95.6347 153.263 95.7936 153.163 95.9346C153.063 96.0756 152.926 96.1948 152.761 96.2825L147.407 98.8961C147.085 99.0522 146.826 98.9407 146.826 98.6508C146.84 98.4863 146.9 98.327 147.001 98.1859C147.102 98.0449 147.241 97.926 147.407 97.839Z" fill="#FEFFFF"/>
<path d="M165.428 72.1182L172.292 68.7821C172.608 68.626 172.872 68.7375 172.872 69.0274C172.858 69.1917 172.797 69.3507 172.696 69.4917C172.596 69.6326 172.457 69.7517 172.292 69.8391L165.428 73.1752C165.111 73.3313 164.852 73.2198 164.852 72.9299C164.866 72.766 164.925 72.6071 165.025 72.4661C165.125 72.3251 165.263 72.2059 165.428 72.1182Z" fill="#347683"/>
<path opacity="0.6" d="M165.428 72.1182L172.292 68.7821C172.608 68.626 172.872 68.7375 172.872 69.0274C172.858 69.1917 172.797 69.3507 172.696 69.4917C172.596 69.6326 172.457 69.7517 172.292 69.8391L165.428 73.1752C165.111 73.3313 164.852 73.2198 164.852 72.9299C164.866 72.766 164.925 72.6071 165.025 72.4661C165.125 72.3251 165.263 72.2059 165.428 72.1182Z" fill="#FEFFFF"/>
<path d="M162.624 94.6545L178.38 86.97C178.696 86.8139 178.955 86.9254 178.955 87.2197C178.94 87.3835 178.881 87.5421 178.781 87.683C178.681 87.8239 178.544 87.9432 178.38 88.0315L162.624 95.716C162.307 95.8721 162.043 95.7606 162.043 95.4663C162.058 95.3019 162.118 95.1428 162.219 95.0017C162.32 94.8607 162.458 94.7418 162.624 94.6545Z" fill="#F5F5F5"/>
<path d="M171.7 94.4673L187.482 86.7649C187.804 86.6088 188.063 86.7203 188.063 87.0102C188.049 87.1746 187.989 87.3339 187.888 87.475C187.787 87.6161 187.648 87.735 187.482 87.8219L171.7 95.5243C171.384 95.6804 171.125 95.5689 171.125 95.279C171.139 95.1151 171.198 94.9562 171.298 94.8152C171.398 94.6742 171.536 94.555 171.7 94.4673Z" fill="#F5F5F5"/>
<path d="M180.624 85.8595L187.488 82.5234C187.81 82.3673 188.068 82.4788 188.068 82.7732C188.054 82.9375 187.994 83.0967 187.893 83.2377C187.792 83.3788 187.653 83.4977 187.488 83.5849L180.624 86.921C180.301 87.0726 180.043 86.9656 180.043 86.6712C180.057 86.5069 180.117 86.3477 180.218 86.2067C180.319 86.0657 180.458 85.9467 180.624 85.8595Z" fill="#F5F5F5"/>
<path d="M156.087 80.9044L171.869 73.202C172.186 73.0459 172.445 73.1574 172.445 73.4518C172.43 73.6156 172.371 73.7742 172.271 73.9151C172.171 74.056 172.033 74.1753 171.869 74.2635L156.087 81.9615C155.765 82.1176 155.507 82.0105 155.507 81.7162C155.521 81.5518 155.581 81.3927 155.682 81.2516C155.783 81.1106 155.922 80.9916 156.087 80.9044Z" fill="#347683"/>
<path opacity="0.6" d="M156.087 80.9044L171.869 73.202C172.186 73.0459 172.445 73.1574 172.445 73.4518C172.43 73.6156 172.371 73.7742 172.271 73.9151C172.171 74.056 172.033 74.1753 171.869 74.2635L156.087 81.9615C155.765 82.1176 155.507 82.0105 155.507 81.7162C155.521 81.5518 155.581 81.3927 155.682 81.2516C155.783 81.1106 155.922 80.9916 156.087 80.9044Z" fill="#FEFFFF"/>
<path d="M174.108 72.1093L180.972 68.7732C181.294 68.6171 181.553 68.7286 181.553 69.0185C181.539 69.1829 181.479 69.3422 181.378 69.4833C181.277 69.6244 181.138 69.7433 180.972 69.8302L174.108 73.1663C173.791 73.3224 173.532 73.2109 173.532 72.921C173.546 72.7571 173.606 72.5982 173.706 72.4572C173.806 72.3162 173.943 72.197 174.108 72.1093Z" fill="#347683"/>
<path opacity="0.6" d="M174.108 72.1093L180.972 68.7732C181.294 68.6171 181.553 68.7286 181.553 69.0185C181.539 69.1829 181.479 69.3422 181.378 69.4833C181.277 69.6244 181.138 69.7433 180.972 69.8302L174.108 73.1663C173.791 73.3224 173.532 73.2109 173.532 72.921C173.546 72.7571 173.606 72.5982 173.706 72.4572C173.806 72.3162 173.943 72.197 174.108 72.1093Z" fill="#FEFFFF"/>
<path d="M224.511 42.5617V37.4639L219.437 37.0938C219.364 37.0841 219.289 37.0967 219.226 37.1294C219.025 37.2186 214.22 39.5423 214.162 39.5735C214.114 39.5971 214.073 39.6295 214.042 39.6682C214.011 39.7069 213.991 39.751 213.983 39.7972C213.975 39.8435 213.979 39.8907 213.996 39.9353C214.012 39.9799 214.04 40.0209 214.078 40.0552L219.458 44.9835L224.511 42.5617Z" fill="#347683"/>
<path d="M219.458 45.0014L214.077 40.0731C214.028 40.026 213.996 39.9676 213.986 39.9053C213.976 39.8429 213.988 39.7795 214.021 39.723C214.054 39.6665 214.106 39.6196 214.171 39.5882C214.235 39.5568 214.309 39.5424 214.384 39.5468L219.458 39.9214V45.0014Z" fill="#347683"/>
<path d="M224.506 37.464L219.458 39.9081L214.368 39.5468C214.309 39.5375 214.248 39.5375 214.188 39.5468C214.595 39.3461 219.025 37.2053 219.204 37.125C219.27 37.093 219.346 37.0804 219.421 37.0893L224.506 37.464Z" fill="#347683"/>
<path opacity="0.5" d="M224.506 37.464L219.458 39.9081L214.368 39.5468C214.309 39.5375 214.248 39.5375 214.188 39.5468C214.595 39.3461 219.025 37.2053 219.204 37.125C219.27 37.093 219.346 37.0804 219.421 37.0893L224.506 37.464Z" fill="#FEFFFF"/>
<path d="M219.469 34.1948C219.504 33.6591 219.688 33.138 220.005 32.6732C220.322 32.2085 220.764 31.8131 221.295 31.5188L222.784 30.774C223.351 30.53 223.978 30.4028 224.614 30.4028C225.25 30.4028 225.877 30.53 226.443 30.774L242.32 38.5344C242.854 38.8268 243.298 39.2217 243.616 39.6868C243.935 40.1518 244.118 40.6739 244.153 41.2104V56.7044C244.118 57.2408 243.934 57.7627 243.616 58.2277C243.297 58.6927 242.854 59.0877 242.32 59.3804L240.831 60.1074C240.264 60.3493 239.637 60.4753 239.002 60.4753C238.366 60.4753 237.74 60.3493 237.172 60.1074L232.489 57.8194L226.396 54.858L221.295 52.3693C220.763 52.0761 220.32 51.6809 220.003 51.2159C219.685 50.751 219.502 50.2293 219.469 49.6933V34.1948Z" fill="#347683"/>
<path opacity="0.2" d="M244.152 56.7044C244.118 57.2408 243.934 57.7627 243.616 58.2277C243.297 58.6927 242.854 59.0877 242.32 59.3804L240.831 60.1074C240.315 60.326 239.75 60.4502 239.173 60.4717C238.597 60.4932 238.021 60.4116 237.484 60.2323C238.35 60.5043 239.004 60.094 239.004 59.2154V43.708C238.986 43.1698 238.804 42.6447 238.476 42.1827L243.614 39.694C243.941 40.156 244.123 40.6811 244.142 41.2193L244.152 56.7044Z" fill="black"/>
<path opacity="0.5" d="M219.527 33.7532C219.743 33.0976 220.451 32.888 221.295 33.3072L237.178 41.0319C237.719 41.3158 238.163 41.714 238.466 42.1871L243.609 39.6939C243.305 39.2221 242.861 38.8254 242.32 38.5432L226.449 30.7739C225.885 30.5357 225.263 30.4116 224.632 30.4116C224.002 30.4116 223.38 30.5357 222.816 30.7739L221.322 31.5009C220.856 31.7529 220.457 32.0828 220.148 32.4702C219.84 32.8575 219.628 33.2942 219.527 33.7532Z" fill="#FEFFFF"/>
<path d="M229.236 39.8501L223.191 39.1365L224.036 48.5605L229.236 54.2648V39.8501Z" fill="#455A64"/>
<path d="M229.237 39.8501L235.282 45.0371L234.432 53.6315L229.237 54.2648V39.8501Z" fill="#37474F"/>
<path d="M231.723 52.1106L233.112 52.7885L229.247 41.2861L225.387 49.0198L226.771 49.6977L227.605 48.0207L230.889 49.6219L231.723 52.1106ZM228.096 47.0083L229.236 44.7159L230.377 48.1233L228.096 47.0083Z" fill="#FAFAFA"/>
<path d="M224.511 71.4804V66.4049L219.437 66.0303C219.364 66.0252 219.291 66.0376 219.226 66.066C219.025 66.1552 214.22 68.4788 214.162 68.51C214.114 68.5341 214.073 68.5669 214.042 68.606C214.011 68.6451 213.991 68.6896 213.983 68.7361C213.975 68.7827 213.979 68.8302 213.995 68.8752C214.012 68.9202 214.04 68.9615 214.078 68.9962L219.458 73.9022L224.511 71.4804Z" fill="#347683"/>
<path d="M219.458 73.92L214.078 69.014C214.025 68.9678 213.991 68.9091 213.979 68.8458C213.968 68.7826 213.98 68.7179 214.013 68.6604C214.046 68.603 214.1 68.5557 214.166 68.5248C214.233 68.4939 214.309 68.4809 214.384 68.4877L219.458 68.8624V73.92Z" fill="#EBEBEB"/>
<path d="M224.506 66.4005L219.458 68.8446L214.384 68.4699C214.325 68.4585 214.263 68.4585 214.204 68.4699C214.611 68.2648 219.041 66.1284 219.22 66.0437C219.287 66.0137 219.362 66.0013 219.437 66.008L224.506 66.4005Z" fill="#347683"/>
<path d="M224.506 66.4005L219.458 68.8446L214.384 68.4699C214.325 68.4585 214.263 68.4585 214.204 68.4699C214.611 68.2648 219.041 66.1284 219.22 66.0437C219.287 66.0137 219.362 66.0013 219.437 66.008L224.506 66.4005Z" fill="#F5F5F5"/>
<path d="M219.469 63.1135C219.502 62.5775 219.685 62.0558 220.003 61.5908C220.32 61.1259 220.763 60.7307 221.295 60.4375L222.784 59.7105C223.351 59.4665 223.978 59.3394 224.614 59.3394C225.25 59.3394 225.877 59.4665 226.443 59.7105L242.32 67.4531C242.854 67.7458 243.297 68.1407 243.616 68.6057C243.934 69.0707 244.118 69.5927 244.153 70.1291V85.632C244.118 86.1685 243.935 86.6906 243.616 87.1556C243.298 87.6207 242.854 88.0156 242.32 88.308L240.831 89.035C240.265 89.279 239.638 89.4061 239.002 89.4061C238.366 89.4061 237.739 89.279 237.172 89.035L232.489 86.7515L226.396 83.7767L221.295 81.2924C220.764 80.9987 220.321 80.6034 220.004 80.1385C219.687 79.6737 219.503 79.1523 219.469 78.6164V63.1135Z" fill="#EBEBEB"/>
<path d="M244.152 85.632C244.118 86.1684 243.935 86.6905 243.616 87.1556C243.298 87.6206 242.854 88.0155 242.32 88.308L240.831 89.035C240.316 89.2547 239.751 89.3794 239.173 89.401C238.596 89.4225 238.02 89.3403 237.484 89.1598C238.35 89.4364 239.004 89.026 239.004 88.143V72.64C238.986 72.1031 238.804 71.5793 238.476 71.1191L243.624 68.6082C243.952 69.0683 244.134 69.5921 244.152 70.129V85.632Z" fill="#E0E0E0"/>
<path d="M219.527 62.6719C219.743 62.0163 220.451 61.8067 221.295 62.2259L237.178 69.9685C237.719 70.2524 238.163 70.6505 238.466 71.1236L243.609 68.6171C243.305 68.144 242.861 67.7459 242.32 67.462L226.449 59.7149C225.881 59.4731 225.255 59.347 224.619 59.347C223.984 59.347 223.357 59.4731 222.79 59.7149L221.295 60.4419C220.838 60.6937 220.445 61.021 220.141 61.4042C219.837 61.7875 219.628 62.2187 219.527 62.6719Z" fill="#F5F5F5"/>
<path d="M229.236 72.5864L230.567 70.4635L235.282 72.7648L229.236 82.3672L223.191 66.8643L227.901 69.1612L229.236 72.5864Z" fill="#347683"/>
<path opacity="0.15" d="M229.236 72.5864L230.567 70.4635L235.282 72.7648L229.236 82.3672L223.191 66.8643L227.901 69.1612L229.236 72.5864Z" fill="black"/>
<path d="M229.236 72.5865L227.901 69.1657L225.789 68.1399C227.473 72.4616 229.226 76.9484 229.226 76.9484L232.658 71.4894L230.546 70.4636L229.236 72.5865Z" fill="#37474F"/>
<path d="M224.511 100.403V95.3235L219.437 94.9489C219.364 94.9438 219.291 94.9562 219.226 94.9845L214.162 97.4286C214.114 97.4527 214.073 97.4855 214.042 97.5246C214.011 97.5637 213.991 97.6082 213.983 97.6547C213.975 97.7013 213.979 97.7488 213.995 97.7938C214.012 97.8387 214.04 97.8801 214.078 97.9148L219.458 102.821L224.511 100.403Z" fill="#347683"/>
<path d="M219.458 102.839L214.078 97.9327C214.025 97.8865 213.991 97.8278 213.979 97.7645C213.968 97.7013 213.98 97.6366 214.013 97.5791C214.046 97.5217 214.1 97.4744 214.166 97.4435C214.233 97.4126 214.309 97.3996 214.384 97.4064L219.458 97.7811V102.839Z" fill="#37474F"/>
<path d="M224.506 95.3236L219.458 97.7632L214.384 97.3886C214.325 97.3771 214.263 97.3771 214.204 97.3886L219.22 94.9623C219.287 94.9342 219.362 94.9219 219.437 94.9266L224.506 95.3236Z" fill="#347683"/>
<path d="M224.506 95.3236L219.458 97.7632L214.384 97.3886C214.325 97.3771 214.263 97.3771 214.204 97.3886L219.22 94.9623C219.287 94.9342 219.362 94.9219 219.437 94.9266L224.506 95.3236Z" fill="#455A64"/>
<path d="M219.469 92.0321C219.503 91.4963 219.687 90.9749 220.004 90.51C220.321 90.0451 220.764 89.6499 221.295 89.3561L222.784 88.6291C223.352 88.3872 223.978 88.2612 224.614 88.2612C225.249 88.2612 225.876 88.3872 226.443 88.6291L242.32 96.3717C242.853 96.6649 243.296 97.06 243.615 97.5249C243.933 97.9898 244.117 98.5115 244.153 99.0477V114.537C244.118 115.074 243.935 115.596 243.616 116.061C243.298 116.526 242.854 116.921 242.32 117.213L240.831 117.94C240.265 118.184 239.638 118.311 239.002 118.311C238.366 118.311 237.739 118.184 237.172 117.94L232.489 115.657L226.396 112.682L221.295 110.198C220.763 109.904 220.32 109.509 220.003 109.044C219.685 108.579 219.502 108.058 219.469 107.522V92.0321Z" fill="#37474F"/>
<path d="M244.152 114.542C244.118 115.078 243.935 115.6 243.616 116.065C243.298 116.53 242.854 116.925 242.32 117.218L240.831 117.945C240.316 118.164 239.751 118.289 239.173 118.311C238.596 118.332 238.02 118.25 237.484 118.07C238.35 118.346 239.004 117.936 239.004 117.053V101.563C238.986 101.025 238.804 100.5 238.476 100.038L243.624 97.5269C243.952 97.9889 244.134 98.514 244.152 99.0522V114.542Z" fill="#263238"/>
<path d="M219.527 91.595C219.743 90.9394 220.451 90.7298 221.295 91.149L237.178 98.896C237.718 99.1783 238.162 99.5749 238.466 100.047L243.609 97.5402C243.305 97.0671 242.861 96.669 242.32 96.3851L226.449 88.638C225.881 88.3962 225.255 88.2701 224.619 88.2701C223.984 88.2701 223.357 88.3962 222.79 88.638L221.295 89.3695C220.838 89.6202 220.445 89.9466 220.141 90.3292C219.837 90.7117 219.628 91.1423 219.527 91.595Z" fill="#455A64"/>
<path d="M232.769 103.869C233.144 102.263 232.991 100.787 232.241 99.9486C232.08 99.7518 231.866 99.5907 231.616 99.4789C231.366 99.3671 231.088 99.3079 230.805 99.3063H230.673C230.168 99.348 229.685 99.5019 229.273 99.7523C228.217 98.0665 227.161 97.0317 226.406 97.0317H226.296C226.194 97.0483 226.099 97.0842 226.016 97.1368C225.934 97.1894 225.867 97.2572 225.82 97.335C225.456 97.8479 225.435 98.9585 225.709 100.417C225.055 100.262 224.356 100.304 223.735 100.537C223.536 100.635 223.373 100.778 223.265 100.95C223.157 101.122 223.107 101.315 223.122 101.51C223.122 102.477 224.131 103.806 225.699 105.078C225.324 106.683 225.477 108.159 226.227 108.998C226.389 109.178 226.592 109.33 226.824 109.444C227.077 109.568 227.365 109.633 227.658 109.631C227.847 109.63 228.035 109.608 228.217 109.564C228.581 109.464 228.922 109.314 229.226 109.118C230.076 110.456 230.926 111.424 231.607 111.759C231.766 111.842 231.948 111.888 232.135 111.892C232.17 111.897 232.206 111.897 232.241 111.892C232.343 111.876 232.439 111.84 232.522 111.787C232.606 111.735 232.674 111.667 232.721 111.589C233.086 111.076 233.101 109.966 232.827 108.498C233.104 108.542 233.385 108.566 233.666 108.57C234.042 108.583 234.415 108.512 234.749 108.365C234.947 108.266 235.11 108.123 235.218 107.952C235.326 107.78 235.375 107.586 235.361 107.392C235.345 106.465 234.337 105.136 232.769 103.869ZM230.958 106.451C230.781 106.72 230.587 106.98 230.377 107.232C230.028 107.089 229.659 106.928 229.268 106.737C228.877 106.545 228.503 106.349 228.149 106.144C227.943 105.698 227.737 105.225 227.542 104.734C227.346 104.244 227.177 103.789 227.014 103.343C227.161 103.066 227.32 102.79 227.499 102.518C227.679 102.245 227.88 101.978 228.075 101.737C228.429 101.88 228.798 102.04 229.189 102.232C229.58 102.424 229.992 102.642 230.366 102.856C230.572 103.302 230.773 103.749 230.974 104.261C231.174 104.774 231.317 105.153 231.459 105.573C231.322 105.863 231.148 106.148 230.958 106.451ZM231.486 104.172C231.37 103.878 231.248 103.588 231.127 103.307C231.48 103.53 231.813 103.753 232.125 103.994C232.03 104.302 231.919 104.618 231.781 104.935C231.676 104.685 231.581 104.431 231.475 104.172H231.486ZM229.279 101.657C229.008 101.526 228.744 101.406 228.487 101.295C228.715 101.056 228.966 100.832 229.236 100.626C229.485 101.05 229.738 101.518 229.992 102.022C229.749 101.898 229.511 101.773 229.268 101.657H229.279ZM227.035 102.049C226.94 102.196 226.845 102.344 226.76 102.495C226.618 102.027 226.496 101.603 226.401 101.18C226.76 101.265 227.112 101.368 227.457 101.487C227.288 101.688 227.151 101.853 227.04 102.049H227.035ZM227.035 104.823C227.156 105.122 227.278 105.412 227.404 105.715C227.029 105.479 226.676 105.234 226.348 104.988C226.451 104.649 226.575 104.314 226.718 103.985C226.824 104.252 226.929 104.533 227.04 104.81L227.035 104.823ZM229.189 107.312C229.458 107.441 229.717 107.557 229.976 107.669C229.758 107.9 229.52 108.116 229.263 108.316C229.02 107.905 228.777 107.459 228.54 106.978C228.761 107.089 228.978 107.205 229.2 107.312H229.189ZM231.433 106.92C231.544 106.755 231.644 106.59 231.739 106.42C231.892 106.911 232.019 107.374 232.119 107.803C231.75 107.714 231.386 107.607 231.032 107.482C231.18 107.303 231.317 107.116 231.444 106.92H231.433ZM230.715 102.46C230.361 101.697 229.992 100.997 229.622 100.368C229.888 100.2 230.186 100.073 230.504 99.9932C230.65 99.9586 230.801 99.9406 230.952 99.9397C231.165 99.9352 231.375 99.98 231.56 100.069C231.699 100.14 231.82 100.232 231.919 100.341C232.42 100.903 232.558 102.085 232.241 103.463C231.76 103.104 231.258 102.766 230.736 102.451L230.715 102.46ZM227.795 101.037C227.294 100.846 226.777 100.686 226.248 100.56C225.984 99.177 226.016 98.227 226.28 97.8568C226.298 97.8128 226.329 97.7732 226.369 97.7413C226.41 97.7095 226.459 97.6864 226.512 97.674H226.56C226.661 97.6787 226.76 97.7064 226.845 97.7543C227.346 97.9996 228.07 98.7934 228.856 100.033C228.464 100.331 228.112 100.665 227.806 101.028L227.795 101.037ZM226.412 103.12C226.173 103.594 225.977 104.083 225.826 104.583C224.474 103.476 223.666 102.406 223.666 101.75C223.66 101.629 223.695 101.509 223.766 101.403C223.837 101.298 223.941 101.211 224.067 101.153C224.346 101.036 224.654 100.981 224.965 100.992C225.256 100.995 225.546 101.024 225.831 101.077C225.984 101.688 226.179 102.384 226.422 103.111L226.412 103.12ZM227.79 106.563C228.138 107.294 228.497 107.977 228.846 108.601C228.48 108.846 228.042 109 227.579 109.047C227.377 109.064 227.173 109.036 226.988 108.967C226.803 108.897 226.643 108.788 226.523 108.65C226.021 108.084 225.884 106.902 226.2 105.528C226.711 105.895 227.245 106.237 227.8 106.554L227.79 106.563ZM230.652 107.95C231.164 108.148 231.693 108.312 232.236 108.44C232.505 109.827 232.473 110.782 232.209 111.157C232.186 111.196 232.152 111.231 232.111 111.259C232.07 111.287 232.022 111.306 231.972 111.317C231.491 111.388 230.588 110.483 229.601 108.909C229.996 108.618 230.352 108.29 230.662 107.932L230.652 107.95ZM232.067 105.809C232.281 105.352 232.457 104.882 232.595 104.404C233.946 105.51 234.754 106.581 234.754 107.236C234.759 107.357 234.724 107.477 234.653 107.583C234.582 107.688 234.478 107.775 234.353 107.834C233.81 108.022 233.208 108.052 232.642 107.919C232.531 107.259 232.32 106.549 232.077 105.8L232.067 105.809Z" fill="#347683"/>
<path d="M230.308 105.006C230.308 105.675 229.828 105.983 229.252 105.693C228.928 105.494 228.664 105.233 228.48 104.932C228.297 104.63 228.2 104.297 228.196 103.958C228.196 103.294 228.677 102.986 229.252 103.276C229.576 103.475 229.84 103.735 230.023 104.035C230.207 104.336 230.304 104.668 230.308 105.006Z" fill="#347683"/>
<g opacity="0.65">
<path d="M232.769 103.869C233.144 102.263 232.991 100.787 232.241 99.9486C232.08 99.7518 231.866 99.5907 231.616 99.4789C231.366 99.3671 231.088 99.3079 230.805 99.3063H230.673C230.168 99.348 229.685 99.5019 229.273 99.7523C228.217 98.0665 227.161 97.0317 226.406 97.0317H226.296C226.194 97.0483 226.099 97.0842 226.016 97.1368C225.934 97.1894 225.867 97.2572 225.82 97.335C225.456 97.8479 225.435 98.9585 225.709 100.417C225.055 100.262 224.356 100.304 223.735 100.537C223.536 100.635 223.373 100.778 223.265 100.95C223.157 101.122 223.107 101.315 223.122 101.51C223.122 102.477 224.131 103.806 225.699 105.078C225.324 106.683 225.477 108.159 226.227 108.998C226.389 109.178 226.592 109.33 226.824 109.444C227.077 109.568 227.365 109.633 227.658 109.631C227.847 109.63 228.035 109.608 228.217 109.564C228.581 109.464 228.922 109.314 229.226 109.118C230.076 110.456 230.926 111.424 231.607 111.759C231.766 111.842 231.948 111.888 232.135 111.892C232.17 111.897 232.206 111.897 232.241 111.892C232.343 111.876 232.439 111.84 232.522 111.787C232.606 111.735 232.674 111.667 232.721 111.589C233.086 111.076 233.101 109.966 232.827 108.498C233.104 108.542 233.385 108.566 233.666 108.57C234.042 108.583 234.415 108.512 234.749 108.365C234.947 108.266 235.11 108.123 235.218 107.952C235.326 107.78 235.375 107.586 235.361 107.392C235.345 106.465 234.337 105.136 232.769 103.869ZM230.958 106.451C230.781 106.72 230.587 106.98 230.377 107.232C230.028 107.089 229.659 106.928 229.268 106.737C228.877 106.545 228.503 106.349 228.149 106.144C227.943 105.698 227.737 105.225 227.542 104.734C227.346 104.244 227.177 103.789 227.014 103.343C227.161 103.066 227.32 102.79 227.499 102.518C227.679 102.245 227.88 101.978 228.075 101.737C228.429 101.88 228.798 102.04 229.189 102.232C229.58 102.424 229.992 102.642 230.366 102.856C230.572 103.302 230.773 103.749 230.974 104.261C231.174 104.774 231.317 105.153 231.459 105.573C231.322 105.863 231.148 106.148 230.958 106.451ZM231.486 104.172C231.37 103.878 231.248 103.588 231.127 103.307C231.48 103.53 231.813 103.753 232.125 103.994C232.03 104.302 231.919 104.618 231.781 104.935C231.676 104.685 231.581 104.431 231.475 104.172H231.486ZM229.279 101.657C229.008 101.526 228.744 101.406 228.487 101.295C228.715 101.056 228.966 100.832 229.236 100.626C229.485 101.05 229.738 101.518 229.992 102.022C229.749 101.898 229.511 101.773 229.268 101.657H229.279ZM227.035 102.049C226.94 102.196 226.845 102.344 226.76 102.495C226.618 102.027 226.496 101.603 226.401 101.18C226.76 101.265 227.112 101.368 227.457 101.487C227.288 101.688 227.151 101.853 227.04 102.049H227.035ZM227.035 104.823C227.156 105.122 227.278 105.412 227.404 105.715C227.029 105.479 226.676 105.234 226.348 104.988C226.451 104.649 226.575 104.314 226.718 103.985C226.824 104.252 226.929 104.533 227.04 104.81L227.035 104.823ZM229.189 107.312C229.458 107.441 229.717 107.557 229.976 107.669C229.758 107.9 229.52 108.116 229.263 108.316C229.02 107.905 228.777 107.459 228.54 106.978C228.761 107.089 228.978 107.205 229.2 107.312H229.189ZM231.433 106.92C231.544 106.755 231.644 106.59 231.739 106.42C231.892 106.911 232.019 107.374 232.119 107.803C231.75 107.714 231.386 107.607 231.032 107.482C231.18 107.303 231.317 107.116 231.444 106.92H231.433ZM230.715 102.46C230.361 101.697 229.992 100.997 229.622 100.368C229.888 100.2 230.186 100.073 230.504 99.9932C230.65 99.9586 230.801 99.9406 230.952 99.9397C231.165 99.9352 231.375 99.98 231.56 100.069C231.699 100.14 231.82 100.232 231.919 100.341C232.42 100.903 232.558 102.085 232.241 103.463C231.76 103.104 231.258 102.766 230.736 102.451L230.715 102.46ZM227.795 101.037C227.294 100.846 226.777 100.686 226.248 100.56C225.984 99.177 226.016 98.227 226.28 97.8568C226.298 97.8128 226.329 97.7732 226.369 97.7413C226.41 97.7095 226.459 97.6864 226.512 97.674H226.56C226.661 97.6787 226.76 97.7064 226.845 97.7543C227.346 97.9996 228.07 98.7934 228.856 100.033C228.464 100.331 228.112 100.665 227.806 101.028L227.795 101.037ZM226.412 103.12C226.173 103.594 225.977 104.083 225.826 104.583C224.474 103.476 223.666 102.406 223.666 101.75C223.66 101.629 223.695 101.509 223.766 101.403C223.837 101.298 223.941 101.211 224.067 101.153C224.346 101.036 224.654 100.981 224.965 100.992C225.256 100.995 225.546 101.024 225.831 101.077C225.984 101.688 226.179 102.384 226.422 103.111L226.412 103.12ZM227.79 106.563C228.138 107.294 228.497 107.977 228.846 108.601C228.48 108.846 228.042 109 227.579 109.047C227.377 109.064 227.173 109.036 226.988 108.967C226.803 108.897 226.643 108.788 226.523 108.65C226.021 108.084 225.884 106.902 226.2 105.528C226.711 105.895 227.245 106.237 227.8 106.554L227.79 106.563ZM230.652 107.95C231.164 108.148 231.693 108.312 232.236 108.44C232.505 109.827 232.473 110.782 232.209 111.157C232.186 111.196 232.152 111.231 232.111 111.259C232.07 111.287 232.022 111.306 231.972 111.317C231.491 111.388 230.588 110.483 229.601 108.909C229.996 108.618 230.352 108.29 230.662 107.932L230.652 107.95ZM232.067 105.809C232.281 105.352 232.457 104.882 232.595 104.404C233.946 105.51 234.754 106.581 234.754 107.236C234.759 107.357 234.724 107.477 234.653 107.583C234.582 107.688 234.478 107.775 234.353 107.834C233.81 108.022 233.208 108.052 232.642 107.919C232.531 107.259 232.32 106.549 232.077 105.8L232.067 105.809Z" fill="#FEFFFF"/>
<path d="M230.308 105.006C230.308 105.675 229.828 105.983 229.252 105.693C228.928 105.494 228.664 105.233 228.48 104.932C228.297 104.63 228.2 104.297 228.196 103.958C228.196 103.294 228.677 102.986 229.252 103.276C229.576 103.475 229.84 103.735 230.023 104.035C230.207 104.336 230.304 104.668 230.308 105.006Z" fill="#FEFFFF"/>
</g>
</svg>
