<svg width="249" height="170" viewBox="0 0 249 170" fill="none" xmlns="http://www.w3.org/2000/svg">
<g clip-path="url(#clip0_890_10242)">
<path fill-rule="evenodd" clip-rule="evenodd" d="M41.627 9.41699H207.372V151.166H41.627V9.41699Z" fill="#5DBCC7"/>
<path fill-rule="evenodd" clip-rule="evenodd" d="M34.668 0.000488281H214.33V9.41721H34.668V0.000488281Z" fill="#AECCCA"/>
<path fill-rule="evenodd" clip-rule="evenodd" d="M41.627 9.41699H48.6032V151.166H41.627V9.41699Z" fill="#65CAD6"/>
<path fill-rule="evenodd" clip-rule="evenodd" d="M48.6035 9.95557H51.1587V150.629H48.6035V9.95557Z" fill="#BBDBD9"/>
<path fill-rule="evenodd" clip-rule="evenodd" d="M207.373 9.41699H200.397V151.166H207.373V9.41699Z" fill="#65CAD6"/>
<path fill-rule="evenodd" clip-rule="evenodd" d="M200.396 9.95508H197.841V150.628H200.396V9.95508Z" fill="#BBDBD9"/>
<path fill-rule="evenodd" clip-rule="evenodd" d="M34.668 118.884H214.33V123.998H34.668V118.884Z" fill="#AECCCA"/>
<path fill-rule="evenodd" clip-rule="evenodd" d="M34.668 66.1665H214.33V71.28H34.668V66.1665Z" fill="#AECCCA"/>
<path fill-rule="evenodd" clip-rule="evenodd" d="M54.2656 18.0801H76.849V56.3707H54.2656V18.0801Z" fill="#C4E5E3"/>
<path fill-rule="evenodd" clip-rule="evenodd" d="M53.8418 17.6577V18.4797V36.4036V37.2256V38.0475V56.7934H66.3827H77.2733V36.4036V17.6577H66.3827H64.7324H53.8418ZM55.4921 19.3016H64.7324V36.4036H55.4921V19.3016ZM66.3827 19.3016H75.6231V36.4036H66.3827V19.3016ZM55.4921 38.0475H64.7324V55.1495H55.4921V38.0475ZM66.3827 38.0475H75.6231V55.1495H66.3827V38.0475Z" fill="#A1BDBB"/>
<path fill-rule="evenodd" clip-rule="evenodd" d="M83.7363 18.0801H106.32V56.3707H83.7363V18.0801Z" fill="#C4E5E3"/>
<path fill-rule="evenodd" clip-rule="evenodd" d="M83.3125 17.6577V18.4797V36.4036V37.2256V38.0475V56.7934H95.8534H106.744V36.4036V17.6577H95.8534H94.2031H83.3125ZM84.9628 19.3016H94.2031V36.4036H84.9628V19.3016ZM95.8534 19.3016H105.094V36.4036H95.8534V19.3016ZM84.9628 38.0475H94.2031V55.1495H84.9628V38.0475ZM95.8534 38.0475H105.094V55.1495H95.8534V38.0475Z" fill="#A1BDBB"/>
<path fill-rule="evenodd" clip-rule="evenodd" d="M113.209 18.0801H135.792V56.3707H113.209V18.0801Z" fill="#C4E5E3"/>
<path fill-rule="evenodd" clip-rule="evenodd" d="M112.785 17.6577V18.4797V36.4036V37.2256V38.0475V56.7934H125.326H136.217V36.4036V17.6577H125.326H123.676H112.785ZM114.435 19.3016H123.676V36.4036H114.435V19.3016ZM125.326 19.3016H134.566V36.4036H125.326V19.3016ZM114.435 38.0475H123.676V55.1495H114.435V38.0475ZM125.326 38.0475H134.566V55.1495H125.326V38.0475Z" fill="#A1BDBB"/>
<path fill-rule="evenodd" clip-rule="evenodd" d="M142.68 18.0801H165.263V56.3707H142.68V18.0801Z" fill="#C4E5E3"/>
<path fill-rule="evenodd" clip-rule="evenodd" d="M142.256 17.6577V18.4797V36.4036V37.2256V38.0475V56.7934H154.797H165.687V36.4036V17.6577H154.797H153.146H142.256ZM143.906 19.3016H153.146V36.4036H143.906V19.3016ZM154.797 19.3016H164.037V36.4036H154.797V19.3016ZM143.906 38.0475H153.146V55.1495H143.906V38.0475ZM154.797 38.0475H164.037V55.1495H154.797V38.0475Z" fill="#A1BDBB"/>
<path fill-rule="evenodd" clip-rule="evenodd" d="M172.15 18.0801H194.734V56.3707H172.15V18.0801Z" fill="#C4E5E3"/>
<path fill-rule="evenodd" clip-rule="evenodd" d="M171.727 17.6577V18.4797V36.4036V37.2256V38.0475V56.7934H184.267H195.158V36.4036V17.6577H184.267H182.617H171.727ZM173.377 19.3016H182.617V36.4036H173.377V19.3016ZM184.267 19.3016H193.508V36.4036H184.267V19.3016ZM173.377 38.0475H182.617V55.1495H173.377V38.0475ZM184.267 38.0475H193.508V55.1495H184.267V38.0475Z" fill="#A1BDBB"/>
<path fill-rule="evenodd" clip-rule="evenodd" d="M75.0195 66.5322H173.981V151.166H75.0195V66.5322Z" fill="#54A8B2"/>
<path fill-rule="evenodd" clip-rule="evenodd" d="M65.2402 56.7065H183.758V66.5319H65.2402V56.7065Z" fill="#A1BDBB"/>
<path fill-rule="evenodd" clip-rule="evenodd" d="M74.1309 46.8813H175.759V56.707H74.1309V46.8813Z" fill="#AECCCA"/>
<path fill-rule="evenodd" clip-rule="evenodd" d="M90.1309 37.2256H159.757V47.0512H90.1309V37.2256Z" fill="#AECCCA"/>
<path fill-rule="evenodd" clip-rule="evenodd" d="M0 160.583H249V170H0V160.583Z" fill="#AECCCA"/>
<path fill-rule="evenodd" clip-rule="evenodd" d="M107.582 100.181H141.419V151.166H107.582V100.181Z" fill="#C4E5E3"/>
<path fill-rule="evenodd" clip-rule="evenodd" d="M106.344 100.428V101.66V153.878H142.656V100.428H106.344ZM108.819 102.893H140.18V151.413H108.819V102.893Z" fill="#94ADAC"/>
<path fill-rule="evenodd" clip-rule="evenodd" d="M34.668 151.167H214.33V160.584H34.668V151.167Z" fill="#AECCCA"/>
<path fill-rule="evenodd" clip-rule="evenodd" d="M85.0195 66.5322H98.1976V151.167H85.0195V66.5322Z" fill="#5DBCC7"/>
<path fill-rule="evenodd" clip-rule="evenodd" d="M150.801 66.5322H163.979V151.167H150.801V66.5322Z" fill="#5DBCC7"/>
<path fill-rule="evenodd" clip-rule="evenodd" d="M81.6074 66.5322H101.61V75.0135H81.6074V66.5322Z" fill="#65CAD6"/>
<path fill-rule="evenodd" clip-rule="evenodd" d="M147.389 66.5322H167.391V75.0135H147.389V66.5322Z" fill="#65CAD6"/>
<path fill-rule="evenodd" clip-rule="evenodd" d="M81.6074 142.685H101.61V151.166H81.6074V142.685Z" fill="#65CAD6"/>
<path fill-rule="evenodd" clip-rule="evenodd" d="M147.389 142.685H167.391V151.166H147.389V142.685Z" fill="#65CAD6"/>
<path fill-rule="evenodd" clip-rule="evenodd" d="M59.584 85.3042H71.5309V105.56H59.584V85.3042Z" fill="#C4E5E3"/>
<path fill-rule="evenodd" clip-rule="evenodd" d="M59.3594 85.0811V85.5161V94.9981V95.4331V95.8678V105.785H65.994H71.7552V94.9981V85.0811H65.994H65.1209H59.3594ZM60.2325 85.9508H65.1209V94.9981H60.2325V85.9508ZM65.994 85.9508H70.8822V94.9981H65.994V85.9508ZM60.2325 95.8678H65.1209V104.915H60.2325V95.8678ZM65.994 95.8678H70.8822V104.915H65.994V95.8678Z" fill="#A1BDBB"/>
<path fill-rule="evenodd" clip-rule="evenodd" d="M177.469 85.3042H189.416V105.56H177.469V85.3042Z" fill="#C4E5E3"/>
<path fill-rule="evenodd" clip-rule="evenodd" d="M177.244 85.0811V85.5161V94.9981V95.4331V95.8678V105.785H183.879H189.64V94.9981V85.0811H183.879H183.005H177.244ZM178.117 85.9508H183.005V94.9981H178.117V85.9508ZM183.879 85.9508H188.767V94.9981H183.879V85.9508ZM178.117 95.8678H183.005V104.915H178.117V95.8678ZM183.879 95.8678H188.767V104.915H183.879V95.8678Z" fill="#A1BDBB"/>
<path fill-rule="evenodd" clip-rule="evenodd" d="M59.584 127.99H71.5309V148.246H59.584V127.99Z" fill="#C4E5E3"/>
<path fill-rule="evenodd" clip-rule="evenodd" d="M59.3594 127.766V128.201V137.683V138.118V138.553V148.47H65.994H71.7552V137.683V127.766H65.994H65.1209H59.3594ZM60.2325 128.636H65.1209V137.683H60.2325V128.636ZM65.994 128.636H70.8822V137.683H65.994V128.636ZM60.2325 138.553H65.1209V147.6H60.2325V138.553ZM65.994 138.553H70.8822V147.6H65.994V138.553Z" fill="#A1BDBB"/>
<path fill-rule="evenodd" clip-rule="evenodd" d="M177.469 127.99H189.416V148.246H177.469V127.99Z" fill="#C4E5E3"/>
<path fill-rule="evenodd" clip-rule="evenodd" d="M177.244 127.766V128.201V137.683V138.118V138.553V148.47H183.879H189.64V137.683V127.766H183.879H183.005H177.244ZM178.117 128.636H183.005V137.683H178.117V128.636ZM183.879 128.636H188.767V137.683H183.879V128.636ZM178.117 138.553H183.005V147.6H178.117V138.553ZM183.879 138.553H188.767V147.6H183.879V138.553Z" fill="#A1BDBB"/>
<path fill-rule="evenodd" clip-rule="evenodd" d="M135.849 126.854C135.849 126.994 135.821 127.133 135.767 127.263C135.713 127.393 135.634 127.511 135.535 127.61C135.435 127.709 135.316 127.788 135.186 127.842C135.056 127.896 134.916 127.923 134.775 127.923C134.634 127.923 134.494 127.896 134.364 127.842C134.234 127.788 134.115 127.709 134.016 127.61C133.916 127.511 133.837 127.393 133.783 127.263C133.729 127.133 133.701 126.994 133.701 126.854C133.701 126.713 133.729 126.574 133.783 126.444C133.837 126.314 133.916 126.196 134.016 126.097C134.115 125.998 134.234 125.919 134.364 125.865C134.494 125.811 134.634 125.784 134.775 125.784C134.916 125.784 135.056 125.811 135.186 125.865C135.316 125.919 135.435 125.998 135.535 126.097C135.634 126.196 135.713 126.314 135.767 126.444C135.821 126.574 135.849 126.713 135.849 126.854Z" fill="#65CAD6"/>
<path fill-rule="evenodd" clip-rule="evenodd" d="M134.775 124.551C133.513 124.551 132.463 125.597 132.463 126.854C132.463 128.111 133.513 129.156 134.775 129.156C136.037 129.156 137.086 128.111 137.086 126.854C137.086 125.597 136.037 124.551 134.775 124.551ZM134.775 126.691C134.851 126.691 134.939 126.778 134.939 126.854C134.939 126.929 134.851 127.017 134.775 127.017C134.699 127.017 134.611 126.929 134.611 126.854C134.611 126.778 134.699 126.691 134.775 126.691Z" fill="#94ADAC"/>
<path d="M107.728 42.7847H109.232V48.688H112.796V49.9819H107.728V42.7847ZM118.851 46.8374H115.355V48.688H119.339V49.9819H113.885V42.7847H119.163V44.0591H115.355V45.5874H118.851V46.8374ZM119.979 42.7847H121.585L123.148 48.2485L124.725 42.7847H126.287L123.831 49.9819H122.411L119.979 42.7847ZM132.191 46.8374H128.695V48.688H132.679V49.9819H127.225V42.7847H132.503V44.0591H128.695V45.5874H132.191V46.8374ZM133.851 42.7847H135.355V48.688H138.919V49.9819H133.851V42.7847ZM145.594 49.9819H144.168V45.0991H142.503V44.1519C142.943 44.1323 143.25 44.103 143.426 44.064C143.706 44.0021 143.934 43.8784 144.11 43.6929C144.23 43.5659 144.321 43.3966 144.383 43.1851C144.419 43.0581 144.437 42.9637 144.437 42.9019H145.594V49.9819Z" fill="white"/>
</g>
<defs>
<clipPath id="clip0_890_10242">
<rect width="249" height="170" fill="white"/>
</clipPath>
</defs>
</svg>
