<svg width="259" height="259" viewBox="0 0 259 259" fill="none" xmlns="http://www.w3.org/2000/svg">
<path d="M129.5 249.111C192.138 249.111 242.916 219.795 242.916 183.631C242.916 147.467 192.138 118.151 129.5 118.151C66.862 118.151 16.0839 147.467 16.0839 183.631C16.0839 219.795 66.862 249.111 129.5 249.111Z" fill="#F5F5F5"/>
<path d="M201.688 217.819C216.808 217.819 229.065 210.743 229.065 202.015C229.065 193.286 216.808 186.211 201.688 186.211C186.569 186.211 174.312 193.286 174.312 202.015C174.312 210.743 186.569 217.819 201.688 217.819Z" fill="#E0E0E0"/>
<path d="M175.053 193.214L109.381 231.111C107.532 232.178 104.304 232.043 102.17 230.81L32.5925 190.577C30.4584 189.345 30.2305 187.469 32.0745 186.433L97.7466 148.495C99.5958 147.428 102.823 147.563 104.957 148.796L174.535 189.029C176.669 190.256 176.897 192.121 175.053 193.214Z" fill="#E0E0E0"/>
<path d="M195.068 40.2745L198.518 42.2326V41.0153C198.518 40.9272 198.518 40.8392 198.518 40.7563C198.518 40.6734 198.518 40.5905 198.518 40.5076V40.4766C198.643 38.8552 199.865 38.2336 201.362 39.0987C202.037 39.5174 202.614 40.0755 203.056 40.7356C203.393 38.5392 205.185 37.7467 207.355 38.9951C209.764 40.3885 211.712 43.7659 211.712 46.5475V49.1375C211.71 49.3464 211.763 49.552 211.866 49.7338C211.968 49.9157 212.117 50.0673 212.297 50.1735L214.328 51.3649C214.768 51.6227 215.133 51.9911 215.386 52.4337C215.64 52.8763 215.773 53.3775 215.773 53.8876C215.772 54.0989 215.716 54.3064 215.61 54.4891C215.504 54.6719 215.352 54.8235 215.169 54.9285C214.985 55.0336 214.777 55.0885 214.566 55.0876C214.355 55.0867 214.147 55.0302 213.965 54.9236L195.12 44.03C194.62 43.7412 194.204 43.326 193.915 42.826C193.626 42.3259 193.474 41.7587 193.473 41.181C193.476 40.996 193.528 40.815 193.623 40.656C193.717 40.4969 193.852 40.3652 194.013 40.2737C194.174 40.1823 194.356 40.1343 194.541 40.1344C194.726 40.1346 194.908 40.1829 195.068 40.2745Z" fill="#E6E6E6"/>
<path d="M181.756 22.8904L184.149 24.2476V23.4032C184.149 23.3411 184.149 23.2841 184.149 23.2219C184.149 23.1598 184.149 23.108 184.149 23.051C184.237 21.9321 185.087 21.497 186.123 22.0979C186.592 22.3879 186.995 22.7746 187.304 23.2323C187.537 21.7094 188.78 21.1603 190.282 22.0253C191.162 22.5995 191.894 23.3728 192.42 24.2826C192.945 25.1924 193.249 26.2132 193.307 27.2623V29.0753C193.307 29.2192 193.344 29.3608 193.416 29.4854C193.488 29.6101 193.592 29.7135 193.716 29.785L195.12 30.6138C195.426 30.7927 195.679 31.0483 195.856 31.3555C196.032 31.6626 196.125 32.0105 196.125 32.3646C196.125 32.5112 196.086 32.6552 196.013 32.782C195.939 32.9088 195.834 33.0141 195.707 33.0871C195.579 33.1601 195.435 33.1983 195.289 33.1979C195.142 33.1974 194.998 33.1584 194.872 33.0846L181.818 25.5115C181.472 25.3098 181.184 25.0211 180.985 24.6739C180.785 24.3268 180.679 23.9333 180.678 23.5327C180.68 23.4069 180.714 23.2835 180.776 23.1745C180.839 23.0654 180.929 22.9743 181.037 22.9099C181.145 22.8454 181.268 22.8098 181.394 22.8064C181.52 22.803 181.644 22.8319 181.756 22.8904Z" fill="#E6E6E6"/>
<path d="M118.436 19.5182C118.273 18.8103 117.969 18.1425 117.541 17.555C117.114 16.9675 116.573 16.4724 115.949 16.0994L115.737 15.9751C114.233 15.0799 112.514 14.6075 110.764 14.6076C110.206 14.6 109.656 14.7451 109.174 15.0272L48.7853 49.8989C46.8742 51.0008 45.4083 52.736 44.6413 54.8044C44.6413 54.8406 44.6154 54.8717 44.6051 54.9028C44.4921 55.2131 44.397 55.5296 44.3202 55.8507C44.3202 55.8974 44.3202 55.944 44.2839 55.9854C44.2114 56.3066 44.1544 56.6329 44.113 56.9593V57.0836C44.074 57.4276 44.0533 57.7734 44.0508 58.1196V188.718V189.806C44.0491 190.327 44.1829 190.84 44.439 191.294C44.695 191.748 45.0646 192.127 45.5116 192.396L47.9203 193.825C48.7551 194.323 49.7091 194.586 50.6812 194.587H51.8674C52.4273 194.593 52.9785 194.448 53.4629 194.167L113.831 159.285C115.275 158.452 116.474 157.253 117.308 155.809C118.142 154.365 118.581 152.727 118.581 151.059V20.72V20.4506C118.577 20.1345 118.528 19.8205 118.436 19.5182ZM115.794 17.3737C115.726 17.3737 115.654 17.3737 115.581 17.3737C115.654 17.3582 115.726 17.3685 115.794 17.3737ZM115.421 17.3737C115.347 17.3685 115.272 17.3685 115.198 17.3737C115.272 17.3634 115.346 17.3582 115.421 17.3582V17.3737ZM114.286 17.6068C114.159 17.6578 114.036 17.7184 113.919 17.7881C114.037 17.7202 114.16 17.6613 114.286 17.612V17.6068Z" fill="#37474F"/>
<path d="M48.7801 60.8597C48.7792 59.1928 49.2178 57.5552 50.0518 56.1119C50.8857 54.6686 52.0855 53.4707 53.5301 52.6391L113.919 17.7725C114.321 17.54 114.771 17.4007 115.234 17.365C115.698 17.3292 116.163 17.3978 116.597 17.5658C117.03 17.7338 117.42 17.9969 117.738 18.3357C118.057 18.6745 118.295 19.0803 118.436 19.5233C118.273 18.8154 117.969 18.1476 117.541 17.5601C117.114 16.9727 116.573 16.4775 115.949 16.1045L115.737 15.9802C114.232 15.0851 112.514 14.6126 110.764 14.6127C110.206 14.6052 109.656 14.7502 109.174 15.0323L48.7853 49.8989C47.3404 50.7307 46.1401 51.9284 45.3053 53.3716C44.4705 54.8147 44.0307 56.4523 44.03 58.1195V188.718C44.0297 189.263 44.173 189.8 44.4457 190.272C44.7183 190.745 45.1106 191.138 45.5832 191.411C46.0557 191.684 46.5918 191.828 47.1375 191.828C47.6833 191.828 48.2194 191.684 48.692 191.411L48.7697 191.365L48.7801 60.8597Z" fill="#37484F"/>
<path d="M113.831 159.285L53.4473 194.152C52.9747 194.424 52.4385 194.568 51.8928 194.568C51.347 194.568 50.8109 194.424 50.3384 194.151C49.8659 193.878 49.4736 193.485 49.2009 193.013C48.9283 192.54 48.7849 192.004 48.7853 191.458V60.8598C48.7844 59.1929 49.223 57.5553 50.0569 56.112C50.8909 54.6687 52.0907 53.4708 53.5353 52.6392L113.919 17.7726C114.391 17.4997 114.927 17.3561 115.473 17.3562C116.019 17.3563 116.555 17.5001 117.027 17.7731C117.5 18.0461 117.892 18.4387 118.165 18.9115C118.438 19.3842 118.581 19.9205 118.581 20.4662V151.059C118.581 152.727 118.142 154.365 117.308 155.809C116.474 157.253 115.275 158.452 113.831 159.285Z" fill="#455A64"/>
<path d="M48.7801 191.458V60.8598C48.7836 59.4367 49.1076 58.0327 49.728 56.752L45.066 53.8719C44.3934 55.1911 44.0386 56.6492 44.03 58.1299V189.806C44.0284 190.327 44.1622 190.84 44.4182 191.294C44.6743 191.748 45.0439 192.127 45.4908 192.396L47.8995 193.825C48.7344 194.323 49.6883 194.586 50.6604 194.587H51.8467C51.026 194.576 50.2429 194.241 49.6684 193.654C49.0939 193.068 48.7746 192.279 48.7801 191.458Z" fill="#253239"/>
<path d="M111.753 30.3237V140.093C111.751 141.563 111.363 143.007 110.627 144.279C109.892 145.552 108.835 146.609 107.563 147.345L54.2346 178.14C53.8339 178.376 53.3785 178.503 52.9137 178.508C53.0683 178.863 53.2961 179.181 53.5822 179.442C53.8683 179.703 54.2063 179.901 54.574 180.022C54.9417 180.143 55.3308 180.185 55.716 180.146C56.1011 180.106 56.4736 179.986 56.8091 179.793L110.163 149.003C111.437 148.268 112.494 147.211 113.23 145.938C113.966 144.665 114.353 143.221 114.354 141.751V33.064C114.353 32.3612 114.083 31.6853 113.6 31.1755C113.116 30.6657 112.455 30.3609 111.753 30.3237Z" fill="#37484F"/>
<path d="M52.9138 178.508C53.3786 178.503 53.834 178.376 54.2347 178.14L107.589 147.355C108.861 146.62 109.918 145.562 110.653 144.29C111.389 143.017 111.777 141.573 111.779 140.103V30.3237C111.241 30.3277 110.71 30.4516 110.225 30.6863L56.8817 61.4711C55.6092 62.2069 54.5523 63.2641 53.8169 64.5369C53.0814 65.8096 52.6932 67.2531 52.6911 68.7231V177.415C52.69 177.796 52.7676 178.174 52.919 178.524L52.9138 178.508Z" fill="#347683"/>
<g opacity="0.5">
<path d="M52.9138 178.508C53.3786 178.503 53.834 178.376 54.2347 178.14L107.589 147.355C108.861 146.62 109.918 145.562 110.653 144.29C111.389 143.017 111.777 141.573 111.779 140.103V30.3237C111.241 30.3277 110.71 30.4516 110.225 30.6863L56.8817 61.4711C55.6092 62.2069 54.5523 63.2641 53.8169 64.5369C53.0814 65.8096 52.6932 67.2531 52.6911 68.7231V177.415C52.69 177.796 52.7676 178.174 52.919 178.524L52.9138 178.508Z" fill="#FEFFFF"/>
</g>
<path d="M75.2291 45.3872C75.2111 45.7201 75.115 46.0441 74.9485 46.333C74.782 46.6218 74.5499 46.8674 74.2709 47.0499C73.7529 47.3556 73.3074 47.1069 73.3074 46.4957C73.3255 46.1622 73.4223 45.8377 73.5897 45.5488C73.7572 45.2598 73.9906 45.0145 74.2709 44.8329C74.7992 44.548 75.2291 44.7707 75.2291 45.3872Z" fill="#253239"/>
<path d="M78.8034 43.3256C78.7848 43.6589 78.6879 43.9833 78.5205 44.2722C78.3531 44.5611 78.1199 44.8064 77.8399 44.9883C77.3219 45.294 76.8816 45.0453 76.8816 44.4341C76.8996 44.1005 76.9957 43.7757 77.1622 43.486C77.3286 43.1963 77.5607 42.9497 77.8399 42.7661C78.3734 42.476 78.8034 42.7091 78.8034 43.3256Z" fill="#253239"/>
<path d="M93.2401 36.1045L81.6265 42.8385C81.1655 43.1027 80.7977 42.8385 80.7977 42.2118C80.8009 41.9001 80.8776 41.5937 81.0216 41.3174C81.1657 41.041 81.3729 40.8026 81.6265 40.6215L93.2401 33.8875C93.7011 33.6233 94.0741 33.8875 94.0741 34.5195C94.0691 34.8306 93.991 35.1361 93.8461 35.4115C93.7013 35.6868 93.4937 35.9242 93.2401 36.1045Z" fill="#253239"/>
<path d="M91.2562 163.403C91.9503 163.403 92.3958 164.139 92.3958 165.278C92.3958 167.065 91.2769 169.225 89.956 169.992L84.3978 173.198C84.149 173.356 83.8632 173.445 83.569 173.457C82.8749 173.457 82.4294 172.722 82.4294 171.582C82.4294 169.79 83.5483 167.635 84.8744 166.868L90.4274 163.688C90.6765 163.531 90.9621 163.442 91.2562 163.429M91.2562 162.958C90.8785 162.97 90.5107 163.08 90.1891 163.279L84.6361 166.485C83.1546 167.34 81.9529 169.635 81.9529 171.608C81.9529 173.079 82.6211 173.955 83.569 173.955C83.9467 173.943 84.3145 173.832 84.6361 173.634L90.1891 170.422C91.6706 169.567 92.8723 167.273 92.8723 165.299C92.8723 163.828 92.2093 162.952 91.2562 162.952V162.958Z" fill="#253239"/>
<path d="M126.941 33.7891L124.134 32.116C123.677 31.8097 123.142 31.6388 122.592 31.6232C122.042 31.6077 121.499 31.748 121.026 32.0279L100.906 43.8332V44.7759C100.906 47.6871 98.5444 51.4063 95.6332 53.0639L89.2877 56.7262C87.1173 57.9797 85.2577 57.7622 84.4496 56.3377L86.5216 55.1256L84.03 53.7062L63.512 65.729C62.2837 66.4479 61.2652 67.4761 60.5581 68.7113C59.851 69.9465 59.4799 71.3454 59.482 72.7686V197.876C59.479 198.389 59.611 198.893 59.8646 199.339C60.1183 199.784 60.4848 200.155 60.9272 200.414L60.9842 200.445L63.7192 201.999V200.466L63.9109 200.368C78.8811 191.349 109.117 173.302 120.741 166.366C122.176 165.511 123.364 164.297 124.189 162.844C125.013 161.391 125.446 159.749 125.444 158.078V35.281L126.941 33.7891Z" fill="#EBEBEB"/>
<path d="M63.6052 202.201L60.7977 200.595C60.3196 200.312 59.9245 199.907 59.6517 199.423C59.379 198.938 59.2383 198.39 59.2437 197.835V72.7945C59.2462 71.3301 59.6296 69.8916 60.3561 68.6202C61.0827 67.3488 62.1274 66.2882 63.3877 65.5425L83.9057 53.5197H84.1647L86.6614 54.939V55.3845L84.8122 56.462C85.0916 56.8463 85.4965 57.1211 85.9569 57.239C86.8375 57.4721 87.9771 57.239 89.1582 56.5448L95.5089 52.8826C98.3423 51.2457 100.647 47.6145 100.647 44.7914V43.8331L100.777 43.6104L120.896 31.8155C121.411 31.513 122.002 31.3618 122.599 31.3792C123.196 31.3966 123.777 31.5819 124.273 31.9139L127.076 33.5664L127.128 33.9704L125.713 35.3845V158.104C125.71 159.817 125.264 161.5 124.418 162.989C123.572 164.479 122.355 165.724 120.886 166.604C114.235 170.572 80.2279 190.862 64.0559 200.601L63.9886 200.642V201.973L63.6052 202.201ZM61.0515 200.171L63.4706 201.533V200.497L63.6156 200.264L63.6778 200.233L63.7865 200.176C79.9637 190.432 113.965 170.132 120.621 166.174C122.014 165.34 123.167 164.16 123.969 162.749C124.77 161.337 125.193 159.743 125.195 158.119V35.2758L125.273 35.0945L126.522 33.8409L123.999 32.3542C123.582 32.0713 123.094 31.9124 122.59 31.8959C122.087 31.8794 121.589 32.006 121.155 32.261L101.165 43.9833V44.7759C101.165 47.7647 98.7412 51.5928 95.7679 53.3177L89.4172 56.98C88.1118 57.7362 86.8272 58.016 85.8223 57.7259C85.4865 57.6381 85.1717 57.4837 84.8968 57.272C84.6218 57.0602 84.3922 56.7953 84.2216 56.493L84.3149 56.1408L85.9932 55.1618L84.0196 54.0377L63.6311 65.9828C62.444 66.6814 61.4598 67.6778 60.7757 68.8733C60.0916 70.0689 59.7314 71.4222 59.7306 72.7997V197.876C59.7272 198.343 59.8476 198.803 60.0796 199.209C60.3116 199.615 60.6469 199.952 61.0515 200.186V200.171Z" fill="#EBEBEB"/>
<path d="M127.946 35.9957V159.544C127.949 161.214 127.517 162.857 126.694 164.31C125.87 165.763 124.682 166.977 123.248 167.832C111.624 174.768 81.3881 192.815 66.4179 201.833C65.9715 202.101 65.4621 202.245 64.9417 202.252C64.4213 202.258 63.9085 202.126 63.4556 201.87C63.0027 201.614 62.6259 201.242 62.3637 200.792C62.1015 200.342 61.9633 199.831 61.9631 199.311V74.2138C61.9626 72.7908 62.3343 71.3925 63.0413 70.1576C63.7482 68.9227 64.7659 67.8942 65.9932 67.1741L86.506 55.1514V55.9439C86.506 58.8551 88.868 59.8548 91.7792 58.1713L98.1247 54.5091C101.036 52.8307 103.393 49.1063 103.393 46.2211V45.2524L123.512 33.4575C123.959 33.1945 124.468 33.0544 124.986 33.0513C125.505 33.0482 126.015 33.1823 126.465 33.44C126.916 33.6977 127.29 34.0698 127.55 34.5186C127.81 34.9675 127.946 35.477 127.946 35.9957Z" fill="#FAFAFA"/>
<path d="M127.687 35.9958V154.55C127.687 156.622 127.905 158.886 127.578 160.963C127.107 163.988 125.242 166.309 122.662 167.848L118.14 170.546L105.993 177.798C96.5967 183.413 87.2036 189.032 77.814 194.654L71.6446 198.358C69.8161 199.456 68.0186 200.735 66.0968 201.683C65.683 201.879 65.2264 201.967 64.7695 201.939C64.3126 201.911 63.8703 201.767 63.4836 201.522C63.097 201.277 62.7786 200.938 62.558 200.537C62.3375 200.136 62.2219 199.686 62.2222 199.228C62.2222 199.031 62.2222 198.829 62.2222 198.627V74.4988C62.1906 73.0611 62.5414 71.6408 63.2385 70.3831C63.9356 69.1253 64.9542 68.0752 66.1901 67.34C71.3701 64.232 76.5915 61.2431 81.7922 58.1973L86.6407 55.3535L86.2522 55.1307C86.2522 56.1098 86.2522 57.1199 86.7702 57.9797C87.0498 58.4009 87.4382 58.7384 87.8943 58.9563C88.3503 59.1743 88.8569 59.2647 89.3602 59.2178C91.0644 59.1193 92.634 57.9487 94.074 57.1458C95.5141 56.3429 96.8609 55.5607 98.218 54.7422C100.807 53.1842 102.678 50.6705 103.429 47.7441C103.547 47.2342 103.609 46.7132 103.616 46.1901C103.641 45.9681 103.641 45.7438 103.616 45.5218C103.559 45.2577 103.709 45.325 103.507 45.4908C103.719 45.3442 103.943 45.2143 104.175 45.1023L107.848 42.9474L118.689 36.5915L122.953 34.0948C123.17 33.9653 123.388 33.8306 123.61 33.7114C124.019 33.4805 124.48 33.3597 124.949 33.3608C125.418 33.362 125.878 33.4852 126.285 33.7182C126.692 33.9512 127.032 34.2861 127.27 34.69C127.509 35.0938 127.638 35.5528 127.646 36.0217C127.646 36.3532 128.164 36.3532 128.164 36.0217C128.152 35.4627 127.997 34.9161 127.712 34.4352C127.426 33.9543 127.022 33.5554 126.537 33.2774C126.051 32.9994 125.503 32.8517 124.944 32.8488C124.384 32.8459 123.834 32.9878 123.346 33.2608C122.673 33.6286 122.02 34.043 121.357 34.4315L111.168 40.404L106.19 43.31C105.278 43.828 104.279 44.346 103.424 44.9313C103.134 45.1385 103.129 45.2525 103.129 45.6462C103.149 47.0636 102.823 48.4646 102.181 49.728C101.046 51.8696 99.301 53.6257 97.1665 54.7733C95.3949 55.8093 93.6234 56.8453 91.8518 57.8399C90.7692 58.4563 89.3499 59.0934 88.1118 58.5288C86.7806 57.9228 86.7702 56.4102 86.7702 55.1566C86.7699 55.1113 86.7578 55.0668 86.7349 55.0277C86.7121 54.9885 86.6794 54.9561 86.64 54.9335C86.6007 54.911 86.5562 54.8991 86.5108 54.8992C86.4655 54.8993 86.421 54.9112 86.3817 54.9339L71.3597 63.7399C69.5312 64.8122 67.6871 65.8585 65.8741 66.9515C64.5884 67.7347 63.5297 68.8403 62.8028 70.1587C62.076 71.477 61.7062 72.9624 61.7301 74.4677C61.7301 76.9541 61.7301 79.4353 61.7301 81.9217V198.86C61.7301 199 61.7301 199.14 61.7301 199.275C61.7356 199.729 61.8368 200.178 62.027 200.591C62.2172 201.004 62.4923 201.373 62.8343 201.673C63.1762 201.973 63.5775 202.198 64.012 202.332C64.4464 202.467 64.9044 202.509 65.3561 202.455C66.3921 202.32 67.3349 201.58 68.2206 201.046L70.9401 199.409L77.1561 195.669C81.8492 192.858 86.544 190.047 91.2406 187.236C100.129 181.897 109.032 176.574 117.949 171.266C121.575 169.091 125.967 167.252 127.568 163.015C128.05 161.604 128.266 160.116 128.205 158.627V35.9958C128.205 35.9271 128.178 35.8613 128.129 35.8127C128.081 35.7641 128.015 35.7368 127.946 35.7368C127.877 35.7368 127.811 35.7641 127.763 35.8127C127.714 35.8613 127.687 35.9271 127.687 35.9958Z" fill="#EBEBEB"/>
<path d="M76.4816 79.6336C77.9006 77.1646 77.8948 74.4986 76.4686 73.679C75.0425 72.8593 72.7361 74.1964 71.3171 76.6654C69.8981 79.1345 69.9039 81.8004 71.3301 82.6201C72.7562 83.4397 75.0627 82.1026 76.4816 79.6336Z" fill="#347683"/>
<path d="M80.6837 73.3281C80.569 73.3289 80.4573 73.2916 80.3661 73.2221C80.2749 73.1525 80.2093 73.0547 80.1797 72.9439C80.1501 72.8331 80.158 72.7156 80.2024 72.6098C80.2467 72.504 80.3249 72.416 80.4247 72.3594L97.151 62.7039C97.2705 62.6352 97.4124 62.6168 97.5455 62.6527C97.6786 62.6887 97.7919 62.776 97.8606 62.8955C97.9293 63.0151 97.9477 63.157 97.9118 63.2901C97.8758 63.4232 97.7885 63.5365 97.669 63.6052L80.9427 73.2607C80.8638 73.3055 80.7745 73.3287 80.6837 73.3281Z" fill="#347683"/>
<path d="M80.6837 76.493C80.569 76.4938 80.4573 76.4565 80.3661 76.387C80.2749 76.3175 80.2093 76.2196 80.1797 76.1088C80.1501 75.998 80.158 75.8805 80.2024 75.7747C80.2467 75.6689 80.3249 75.5809 80.4247 75.5243L90.6811 69.6036C90.7403 69.5693 90.8056 69.5471 90.8733 69.5382C90.9411 69.5293 91.0099 69.5339 91.0759 69.5517C91.1418 69.5695 91.2036 69.6002 91.2577 69.642C91.3117 69.6838 91.3569 69.7359 91.3908 69.7953C91.4583 69.9142 91.4761 70.055 91.4402 70.187C91.4043 70.319 91.3176 70.4314 91.1991 70.4997L80.9427 76.4257C80.8638 76.4704 80.7745 76.4936 80.6837 76.493Z" fill="#347683"/>
<path d="M120.492 100.678L71.6705 128.863C70.7226 129.412 69.9559 128.832 69.9559 127.568V91.5824C69.9657 90.9399 70.1259 90.3087 70.4237 89.7392C70.7214 89.1698 71.1484 88.6781 71.6705 88.3035L120.492 60.1139C121.44 59.5959 122.212 60.1502 122.212 61.4141V97.384C122.204 98.0296 122.044 98.6642 121.745 99.2366C121.446 99.8089 121.017 100.303 120.492 100.678Z" fill="#E0E0E0"/>
<path d="M74.9805 92.4785C74.8901 92.4779 74.8014 92.4537 74.7233 92.4083C74.6451 92.3629 74.5802 92.2978 74.535 92.2195C74.4671 92.1011 74.4485 91.9608 74.4834 91.8289C74.5184 91.697 74.6039 91.5842 74.7215 91.515L116.923 67.169C117.042 67.1003 117.184 67.0819 117.317 67.1178C117.451 67.1538 117.564 67.2411 117.633 67.3606C117.701 67.4802 117.72 67.6221 117.684 67.7552C117.648 67.8883 117.56 68.0016 117.441 68.0703L75.2395 92.4163C75.1601 92.4592 75.0708 92.4807 74.9805 92.4785Z" fill="#FEFFFF"/>
<path d="M74.9805 97.3839C74.8658 97.3847 74.7541 97.3474 74.6629 97.2779C74.5716 97.2084 74.5061 97.1105 74.4764 96.9997C74.4468 96.8889 74.4548 96.7714 74.4991 96.6657C74.5435 96.5599 74.6217 96.4718 74.7215 96.4153L116.923 72.0693C117.041 72.0073 117.179 71.9935 117.307 72.0308C117.436 72.068 117.545 72.1534 117.612 72.269C117.678 72.3847 117.698 72.5217 117.666 72.6515C117.634 72.7813 117.554 72.8937 117.441 72.9654L75.2395 97.3114C75.161 97.358 75.0717 97.383 74.9805 97.3839Z" fill="#FEFFFF"/>
<path d="M74.9805 102.289C74.8658 102.29 74.7541 102.253 74.6629 102.183C74.5716 102.114 74.5061 102.016 74.4764 101.905C74.4468 101.794 74.4548 101.677 74.4991 101.571C74.5435 101.465 74.6217 101.377 74.7215 101.321L116.923 76.9747C117.041 76.9068 117.182 76.8882 117.314 76.9231C117.445 76.958 117.558 77.0436 117.627 77.1612C117.662 77.22 117.684 77.2851 117.694 77.3526C117.703 77.4201 117.699 77.4888 117.681 77.5547C117.664 77.6207 117.634 77.6825 117.593 77.7368C117.551 77.791 117.5 77.8366 117.441 77.8709L75.2395 102.217C75.161 102.263 75.0717 102.288 74.9805 102.289Z" fill="#FEFFFF"/>
<path d="M74.9805 107.19C74.8658 107.191 74.7541 107.153 74.6629 107.084C74.5716 107.014 74.5061 106.916 74.4764 106.806C74.4468 106.695 74.4548 106.577 74.4991 106.471C74.5435 106.366 74.6217 106.278 74.7215 106.221L116.923 81.875C117.042 81.8075 117.183 81.7898 117.315 81.8257C117.447 81.8616 117.559 81.9482 117.627 82.0667C117.695 82.185 117.714 82.3254 117.679 82.4573C117.644 82.5892 117.559 82.702 117.441 82.7712L75.2395 107.117C75.161 107.164 75.0717 107.189 74.9805 107.19Z" fill="#FEFFFF"/>
<path d="M74.9805 112.095C74.8658 112.096 74.7541 112.059 74.6629 111.989C74.5716 111.92 74.5061 111.822 74.4764 111.711C74.4468 111.6 74.4548 111.483 74.4991 111.377C74.5435 111.271 74.6217 111.183 74.7215 111.127L116.923 86.7805C117.041 86.7125 117.182 86.694 117.314 86.7289C117.445 86.7638 117.558 86.8494 117.627 86.967C117.662 87.0258 117.684 87.0908 117.694 87.1584C117.703 87.2259 117.699 87.2946 117.681 87.3605C117.664 87.4265 117.634 87.4883 117.593 87.5426C117.551 87.5968 117.5 87.6424 117.441 87.6766L75.2395 112.023C75.161 112.069 75.0717 112.094 74.9805 112.095Z" fill="#FEFFFF"/>
<path d="M74.9805 116.995C74.8674 116.994 74.7579 116.956 74.6685 116.887C74.5791 116.818 74.5149 116.721 74.4855 116.612C74.4562 116.503 74.4634 116.387 74.506 116.282C74.5486 116.178 74.6243 116.09 74.7215 116.032L116.923 91.686C117.042 91.6184 117.183 91.6007 117.315 91.6366C117.447 91.6725 117.559 91.7591 117.627 91.8776C117.695 91.9959 117.714 92.1363 117.679 92.2682C117.644 92.4001 117.559 92.5129 117.441 92.5821L75.2395 116.928C75.1605 116.973 75.0712 116.996 74.9805 116.995Z" fill="#FEFFFF"/>
<path d="M74.9805 121.901C74.8658 121.902 74.7541 121.864 74.6629 121.795C74.5716 121.725 74.5061 121.628 74.4764 121.517C74.4468 121.406 74.4548 121.288 74.4991 121.183C74.5435 121.077 74.6217 120.989 74.7215 120.932L116.923 96.5863C117.041 96.5183 117.182 96.4998 117.314 96.5347C117.445 96.5696 117.558 96.6552 117.627 96.7728C117.662 96.8316 117.684 96.8966 117.694 96.9642C117.703 97.0317 117.699 97.1004 117.681 97.1663C117.664 97.2322 117.634 97.2941 117.593 97.3484C117.551 97.4026 117.5 97.4482 117.441 97.4824L75.2395 121.828C75.161 121.875 75.0717 121.9 74.9805 121.901Z" fill="#FEFFFF"/>
<path d="M77.2183 135.716C77.1502 136.976 76.7865 138.202 76.1566 139.296C75.5267 140.389 74.6482 141.319 73.5923 142.01C71.5825 143.165 69.9663 142.227 69.9663 139.912C70.0327 138.651 70.3957 137.424 71.0258 136.331C71.6559 135.237 72.5352 134.308 73.5923 133.618C75.5918 132.442 77.2183 133.38 77.2183 135.716Z" fill="#347683"/>
<path opacity="0.6" d="M76.4816 79.6336C77.9006 77.1646 77.8948 74.4986 76.4686 73.679C75.0425 72.8593 72.7361 74.1964 71.3171 76.6654C69.8981 79.1345 69.9039 81.8004 71.3301 82.6201C72.7562 83.4397 75.0627 82.1026 76.4816 79.6336Z" fill="#FEFFFF"/>
<path opacity="0.6" d="M77.2183 135.716C77.1502 136.976 76.7865 138.202 76.1566 139.296C75.5267 140.389 74.6482 141.319 73.5923 142.01C71.5825 143.165 69.9663 142.227 69.9663 139.912C70.0327 138.651 70.3957 137.424 71.0258 136.331C71.6559 135.237 72.5352 134.308 73.5923 133.618C75.5918 132.442 77.2183 133.38 77.2183 135.716Z" fill="#FEFFFF"/>
<path d="M80.6837 132.675C80.569 132.676 80.4573 132.639 80.3661 132.569C80.2749 132.5 80.2093 132.402 80.1797 132.291C80.1501 132.18 80.158 132.063 80.2024 131.957C80.2467 131.851 80.3249 131.763 80.4247 131.707L97.151 122.051C97.2693 121.989 97.4071 121.975 97.5354 122.013C97.6637 122.05 97.7727 122.135 97.8395 122.251C97.9064 122.367 97.926 122.504 97.8942 122.633C97.8624 122.763 97.7817 122.876 97.669 122.947L80.9427 132.608C80.8638 132.653 80.7745 132.676 80.6837 132.675Z" fill="#347683"/>
<path d="M80.6837 135.84C80.569 135.841 80.4573 135.804 80.3661 135.734C80.2749 135.665 80.2093 135.567 80.1797 135.456C80.1501 135.345 80.158 135.228 80.2024 135.122C80.2467 135.016 80.3249 134.928 80.4247 134.872L90.6811 128.951C90.7403 128.917 90.8056 128.894 90.8733 128.886C90.9411 128.877 91.0099 128.881 91.0759 128.899C91.1418 128.917 91.2036 128.948 91.2577 128.989C91.3117 129.031 91.3569 129.083 91.3908 129.143C91.4583 129.261 91.4761 129.402 91.4402 129.534C91.4043 129.666 91.3176 129.779 91.1991 129.847L80.9427 135.773C80.8638 135.818 80.7745 135.841 80.6837 135.84Z" fill="#347683"/>
<path d="M120.492 160.026L71.6705 188.215C70.7226 188.733 69.9559 188.179 69.9559 186.915V150.93C69.9657 150.287 70.1259 149.656 70.4237 149.086C70.7214 148.517 71.1484 148.025 71.6705 147.651L120.492 119.461C121.44 118.917 122.212 119.497 122.212 120.761V156.747C122.201 157.39 122.04 158.021 121.742 158.591C121.443 159.16 121.015 159.652 120.492 160.026Z" fill="#E0E0E0"/>
<path d="M74.9805 151.826C74.8901 151.825 74.8014 151.801 74.7233 151.756C74.6451 151.71 74.5802 151.645 74.535 151.567C74.4671 151.448 74.4485 151.308 74.4834 151.176C74.5184 151.044 74.6039 150.931 74.7215 150.862L116.923 126.516C117.042 126.448 117.184 126.429 117.317 126.465C117.451 126.501 117.564 126.588 117.633 126.708C117.701 126.827 117.72 126.969 117.684 127.102C117.648 127.236 117.56 127.349 117.441 127.418L75.2395 151.764C75.1601 151.807 75.0708 151.828 74.9805 151.826Z" fill="#FEFFFF"/>
<path d="M74.9805 156.731C74.8658 156.732 74.7541 156.695 74.6629 156.625C74.5716 156.556 74.5061 156.458 74.4764 156.347C74.4468 156.236 74.4548 156.119 74.4991 156.013C74.5435 155.907 74.6217 155.819 74.7215 155.763L116.923 131.417C117.041 131.355 117.179 131.341 117.307 131.378C117.436 131.415 117.545 131.501 117.612 131.616C117.678 131.732 117.698 131.869 117.666 131.999C117.634 132.129 117.554 132.241 117.441 132.313L75.2395 156.659C75.161 156.705 75.0717 156.73 74.9805 156.731Z" fill="#FEFFFF"/>
<path d="M74.9805 161.616C74.8658 161.617 74.7541 161.579 74.6629 161.51C74.5716 161.44 74.5061 161.343 74.4764 161.232C74.4468 161.121 74.4548 161.003 74.4991 160.898C74.5435 160.792 74.6217 160.704 74.7215 160.647L116.923 136.301C117.041 136.233 117.182 136.215 117.314 136.25C117.445 136.285 117.558 136.37 117.627 136.488C117.662 136.547 117.684 136.612 117.694 136.679C117.703 136.747 117.699 136.815 117.681 136.881C117.664 136.947 117.634 137.009 117.593 137.063C117.551 137.118 117.5 137.163 117.441 137.197L75.2395 161.543C75.161 161.59 75.0717 161.615 74.9805 161.616Z" fill="#FEFFFF"/>
<path d="M74.9805 166.537C74.8658 166.538 74.7541 166.501 74.6629 166.431C74.5716 166.361 74.5061 166.264 74.4764 166.153C74.4468 166.042 74.4548 165.924 74.4991 165.819C74.5435 165.713 74.6217 165.625 74.7215 165.568L116.923 141.222C117.042 141.155 117.183 141.137 117.315 141.173C117.447 141.209 117.559 141.296 117.627 141.414C117.695 141.532 117.714 141.673 117.679 141.805C117.644 141.936 117.559 142.049 117.441 142.118L75.2395 166.464C75.161 166.511 75.0717 166.536 74.9805 166.537Z" fill="#FEFFFF"/>
<path d="M74.9805 171.458C74.8658 171.459 74.7541 171.421 74.6629 171.352C74.5716 171.282 74.5061 171.185 74.4764 171.074C74.4468 170.963 74.4548 170.845 74.4991 170.74C74.5435 170.634 74.6217 170.546 74.7215 170.489L116.923 146.143C117.041 146.075 117.182 146.057 117.314 146.092C117.445 146.127 117.558 146.212 117.627 146.33C117.662 146.389 117.684 146.454 117.694 146.521C117.703 146.589 117.699 146.657 117.681 146.723C117.664 146.789 117.634 146.851 117.593 146.905C117.551 146.96 117.5 147.005 117.441 147.039L75.2395 171.385C75.161 171.432 75.0717 171.457 74.9805 171.458Z" fill="#FEFFFF"/>
<path d="M74.9805 176.343C74.8674 176.342 74.7579 176.303 74.6685 176.234C74.5791 176.165 74.5149 176.068 74.4855 175.959C74.4562 175.85 74.4634 175.734 74.506 175.63C74.5486 175.525 74.6243 175.437 74.7215 175.379L116.923 151.033C117.042 150.966 117.183 150.948 117.315 150.984C117.447 151.02 117.559 151.106 117.627 151.225C117.695 151.343 117.714 151.484 117.679 151.615C117.644 151.747 117.559 151.86 117.441 151.929L75.2395 176.275C75.1605 176.32 75.0712 176.343 74.9805 176.343Z" fill="#FEFFFF"/>
<path d="M74.9805 181.248C74.8658 181.249 74.7541 181.212 74.6629 181.142C74.5716 181.073 74.5061 180.975 74.4764 180.864C74.4468 180.753 74.4548 180.636 74.4991 180.53C74.5435 180.424 74.6217 180.336 74.7215 180.279L116.923 155.933C117.041 155.866 117.182 155.847 117.314 155.882C117.445 155.917 117.558 156.002 117.627 156.12C117.662 156.179 117.684 156.244 117.694 156.311C117.703 156.379 117.699 156.448 117.681 156.513C117.664 156.579 117.634 156.641 117.593 156.696C117.551 156.75 117.5 156.795 117.441 156.83L75.2395 181.176C75.161 181.222 75.0717 181.247 74.9805 181.248Z" fill="#FEFFFF"/>
<path d="M147.469 45.4855L144.879 44.0041C144.727 43.8949 144.564 43.8012 144.392 43.7243C143.966 43.5257 143.497 43.4341 143.026 43.4576C142.556 43.481 142.099 43.6188 141.694 43.859L121.575 55.6539V56.5966C121.575 59.5078 119.213 63.227 116.301 64.8846L109.956 68.5469C107.785 69.8005 105.926 69.5829 105.118 68.1532L107.19 66.9463L104.698 65.527L84.175 77.5756C82.9474 78.2941 81.9294 79.3215 81.2223 80.5557C80.5153 81.7899 80.1438 83.1877 80.145 84.6101V209.676C80.1418 210.188 80.2738 210.692 80.5275 211.137C80.7812 211.581 81.1478 211.951 81.5902 212.209L81.6471 212.24L84.3822 213.794V212.297C84.4486 212.269 84.5127 212.237 84.5739 212.199C99.5648 203.185 129.8 185.133 141.414 178.192C142.849 177.336 144.037 176.123 144.861 174.67C145.686 173.217 146.119 171.575 146.117 169.904V46.8272L147.469 45.4855Z" fill="#EBEBEB"/>
<path d="M84.2786 214.022L81.4762 212.468V212.432C80.9978 212.15 80.6023 211.746 80.3295 211.262C80.0566 210.779 79.9162 210.231 79.9222 209.676V84.6101C79.9242 83.1456 80.3074 81.7069 81.034 80.4354C81.7606 79.1639 82.8055 78.1034 84.0662 77.3581L104.584 65.3353H104.843L107.34 66.7546V67.2053L105.511 68.2776C105.791 68.6603 106.196 68.9333 106.656 69.0494C107.537 69.2877 108.676 69.0494 109.857 68.3553L116.203 64.6982C119.042 63.0561 121.347 59.4301 121.347 56.607V55.6643L121.476 55.4415L141.569 43.6363C142.014 43.3761 142.516 43.2287 143.03 43.207C143.545 43.1853 144.057 43.29 144.522 43.512C144.704 43.5961 144.878 43.6985 145.04 43.8176L147.604 45.2835L147.661 45.6928L146.392 46.9619V169.904C146.388 171.617 145.941 173.299 145.095 174.789C144.249 176.278 143.033 177.523 141.564 178.404C137.513 180.818 101.523 202.289 84.7344 212.401L84.6671 212.437V213.773L84.2786 214.022ZM81.7248 211.991L84.1439 213.354V212.318L84.2838 212.09L84.3563 212.054L84.4599 212.002C101.253 201.89 137.244 180.404 141.295 178C142.692 177.162 143.848 175.975 144.65 174.556C145.452 173.137 145.872 171.534 145.869 169.904V46.8272L145.946 46.6459L147.05 45.5425L144.755 44.2268C144.61 44.1206 144.453 44.0303 144.289 43.9575C143.9 43.7763 143.472 43.6929 143.043 43.7146C142.614 43.7362 142.197 43.8623 141.828 44.0818L121.839 55.7989V56.5967C121.839 59.5855 119.415 63.4135 116.436 65.1333L110.091 68.7956C108.785 69.5518 107.501 69.8316 106.496 69.5415C106.16 69.4537 105.845 69.2994 105.57 69.0876C105.295 68.8758 105.066 68.6109 104.895 68.3086L104.988 67.9564L106.667 66.9774L104.693 65.8533L84.3045 77.7984C83.1181 78.4966 82.1344 79.4921 81.4503 80.6867C80.7663 81.8812 80.4056 83.2336 80.4039 84.6101V209.676C80.401 210.143 80.5217 210.603 80.7536 211.009C80.9856 211.415 81.3206 211.752 81.7248 211.986V211.991Z" fill="#EBEBEB"/>
<path d="M148.619 47.8165V171.344C148.622 173.014 148.191 174.657 147.367 176.11C146.543 177.563 145.356 178.777 143.921 179.632C132.297 186.552 102.046 204.61 87.0914 213.618C86.6453 213.887 86.1355 214.033 85.6145 214.04C85.0934 214.047 84.5798 213.916 84.1264 213.659C83.673 213.402 83.296 213.03 83.0342 212.579C82.7724 212.129 82.6352 211.616 82.6366 211.095V86.0294C82.6365 84.6072 83.0084 83.2098 83.7154 81.9758C84.4223 80.7418 85.4398 79.7142 86.6666 78.995L107.185 66.9722V67.7647C107.185 70.6759 109.547 71.6756 112.458 69.9921L118.803 66.3299C121.715 64.6464 124.071 60.9271 124.071 58.016V57.0732L144.191 45.2783C144.637 45.0166 145.146 44.8776 145.664 44.8752C146.181 44.8727 146.691 45.0071 147.14 45.2646C147.59 45.5222 147.963 45.8937 148.223 46.3418C148.482 46.7899 148.619 47.2986 148.619 47.8165Z" fill="#FAFAFA"/>
<path d="M148.36 47.8165V166.371C148.36 168.443 148.578 170.707 148.252 172.779C147.78 175.809 145.915 178.13 143.336 179.668L138.824 182.367L126.677 189.619C117.28 195.227 107.887 200.846 98.4978 206.475L92.3284 210.173C90.4998 211.271 88.7024 212.556 86.7806 213.504C86.3668 213.7 85.9102 213.788 85.4533 213.759C84.9964 213.731 84.5541 213.588 84.1674 213.343C83.7807 213.098 83.4623 212.759 83.2418 212.358C83.0212 211.957 82.9057 211.506 82.906 211.049C82.906 210.852 82.906 210.65 82.906 210.448V86.3142C82.879 84.8809 83.2319 83.466 83.9288 82.2132C84.6258 80.9604 85.6418 79.9144 86.8739 79.1814C92.0539 76.0734 97.2753 73.0845 102.476 70.0387L107.324 67.1949L106.936 66.9721C106.936 67.9511 106.936 68.9561 107.454 69.8211C107.734 70.2422 108.122 70.5797 108.578 70.7977C109.034 71.0157 109.541 71.106 110.044 71.0591C111.748 70.9607 113.318 69.7849 114.753 68.9561C116.187 68.1273 117.545 67.371 118.897 66.5577C121.497 65.0092 123.382 62.4987 124.144 59.5699C124.262 59.0601 124.324 58.5391 124.33 58.0159C124.356 57.7939 124.356 57.5697 124.33 57.3477C124.273 57.0783 124.424 57.1508 124.222 57.3166C124.434 57.1701 124.657 57.0402 124.89 56.9281L128.562 54.7732L139.404 48.4174L143.667 45.9206C143.885 45.7911 144.097 45.6512 144.32 45.5321C144.729 45.3029 145.191 45.1836 145.66 45.1859C146.129 45.1882 146.589 45.3119 146.996 45.5451C147.403 45.7784 147.743 46.113 147.982 46.5165C148.221 46.9201 148.351 47.3786 148.36 47.8476C148.36 48.1791 148.878 48.1791 148.878 47.8476C148.869 47.288 148.714 46.7405 148.429 46.2587C148.144 45.7769 147.739 45.3772 147.254 45.0989C146.768 44.8206 146.219 44.6732 145.659 44.671C145.099 44.6689 144.549 44.8121 144.061 45.0866C143.388 45.4544 142.735 45.8636 142.072 46.2521L131.841 52.2506L126.874 55.1617C125.962 55.6797 124.962 56.1718 124.108 56.7831C123.818 56.9903 123.812 57.1042 123.812 57.4979C123.829 58.9144 123.5 60.3136 122.854 61.5746C121.72 63.7162 119.974 65.4723 117.84 66.6199L112.525 69.6813C111.443 70.3029 110.023 70.94 108.785 70.3754C107.454 69.7693 107.444 68.2568 107.444 67.0032C107.443 66.9579 107.431 66.9134 107.408 66.8743C107.385 66.8351 107.353 66.8026 107.313 66.7801C107.274 66.7575 107.23 66.7457 107.184 66.7458C107.139 66.7458 107.094 66.7578 107.055 66.7805L92.0331 75.5865C90.2046 76.6587 88.3605 77.7103 86.5475 78.8032C85.2604 79.5849 84.2005 80.6901 83.4735 82.0089C82.7464 83.3276 82.3775 84.8138 82.4035 86.3194C82.4035 88.8006 82.4035 91.287 82.4035 93.7734V210.681C82.4035 210.821 82.4035 210.955 82.4035 211.095C82.409 211.55 82.5102 211.999 82.7004 212.412C82.8907 212.825 83.1657 213.194 83.5077 213.494C83.8496 213.794 84.2509 214.018 84.6854 214.153C85.1198 214.288 85.5778 214.33 86.0295 214.276C87.0655 214.141 88.0083 213.4 88.894 212.862L91.6135 211.23C93.6855 209.983 95.7575 208.737 97.8295 207.49C102.523 204.676 107.217 201.865 111.914 199.057C120.817 193.728 129.728 188.403 138.648 183.082C142.274 180.911 146.667 179.073 148.267 174.835C148.749 173.425 148.965 171.937 148.904 170.448V47.8165C148.904 47.7444 148.876 47.6752 148.825 47.6242C148.774 47.5732 148.705 47.5445 148.632 47.5445C148.56 47.5445 148.491 47.5732 148.44 47.6242C148.389 47.6752 148.36 47.7444 148.36 47.8165Z" fill="#EBEBEB"/>
<path d="M110.795 189.826L91.9812 200.704C90.6137 201.497 89.5 200.652 89.5 198.829C89.5 197.001 90.6137 194.882 91.9812 194.089L110.795 183.211C112.168 182.419 113.276 183.258 113.276 185.087C113.276 186.91 112.168 189.034 110.795 189.826Z" fill="#347683"/>
<path d="M139.275 172.535L120.461 183.413C119.093 184.206 117.98 183.367 117.98 181.538C117.98 179.715 119.093 177.591 120.461 176.799L139.275 165.921C140.647 165.128 141.756 165.972 141.756 167.796C141.756 169.624 140.647 171.748 139.275 172.535Z" fill="#347683"/>
<path opacity="0.6" d="M110.795 189.826L91.9812 200.704C90.6137 201.497 89.5 200.652 89.5 198.829C89.5 197.001 90.6137 194.882 91.9812 194.089L110.795 183.211C112.168 182.419 113.276 183.258 113.276 185.087C113.276 186.91 112.168 189.034 110.795 189.826Z" fill="#FEFFFF"/>
<path opacity="0.6" d="M139.275 172.535L120.461 183.413C119.093 184.206 117.98 183.367 117.98 181.538C117.98 179.715 119.093 177.591 120.461 176.799L139.275 165.921C140.647 165.128 141.756 165.972 141.756 167.796C141.756 169.624 140.647 171.748 139.275 172.535Z" fill="#FEFFFF"/>
<path d="M140.041 106.734L91.2146 134.923C90.2666 135.472 89.5 134.892 89.5 133.628V92.235C89.509 91.5923 89.6688 90.9608 89.9666 90.3912C90.2645 89.8217 90.6919 89.3301 91.2146 88.956L140.041 60.7665C140.989 60.2174 141.756 60.7976 141.756 62.0615V103.46C141.746 104.102 141.586 104.732 141.288 105.301C140.99 105.869 140.563 106.36 140.041 106.734Z" fill="#347683"/>
<path opacity="0.6" d="M140.041 106.734L91.2146 134.923C90.2666 135.472 89.5 134.892 89.5 133.628V92.235C89.509 91.5923 89.6688 90.9608 89.9666 90.3912C90.2645 89.8217 90.6919 89.3301 91.2146 88.956L140.041 60.7665C140.989 60.2174 141.756 60.7976 141.756 62.0615V103.46C141.746 104.102 141.586 104.732 141.288 105.301C140.99 105.869 140.563 106.36 140.041 106.734Z" fill="#FEFFFF"/>
<path d="M140.041 160.176L91.2146 188.366C90.2666 188.909 89.5 188.329 89.5 187.065V145.672C89.5098 145.029 89.67 144.398 89.9677 143.829C90.2655 143.259 90.6925 142.768 91.2146 142.393L140.041 114.203C140.989 113.66 141.756 114.24 141.756 115.498V156.897C141.746 157.54 141.586 158.171 141.288 158.74C140.99 159.31 140.563 159.801 140.041 160.176Z" fill="#347683"/>
<path opacity="0.6" d="M140.041 160.176L91.2146 188.366C90.2666 188.909 89.5 188.329 89.5 187.065V145.672C89.5098 145.029 89.67 144.398 89.9677 143.829C90.2655 143.259 90.6925 142.768 91.2146 142.393L140.041 114.203C140.989 113.66 141.756 114.24 141.756 115.498V156.897C141.746 157.54 141.586 158.171 141.288 158.74C140.99 159.31 140.563 159.801 140.041 160.176Z" fill="#FEFFFF"/>
<path d="M168.158 57.498L165.314 55.8248C164.861 55.533 164.335 55.3736 163.796 55.3644C163.257 55.3553 162.726 55.4968 162.263 55.773L142.144 67.5627V68.5055C142.144 71.4166 139.782 75.1411 136.876 76.8194L130.536 80.4868C128.366 81.7404 126.506 81.5228 125.698 80.0983L127.77 78.8862L125.278 77.4669L104.74 89.4897C103.511 90.2085 102.493 91.2368 101.786 92.472C101.078 93.7071 100.707 95.106 100.71 96.5293V221.595C100.707 222.107 100.839 222.611 101.093 223.055C101.346 223.5 101.713 223.87 102.155 224.128L102.212 224.159L104.947 225.713V224.216L105.138 224.118C120.109 215.099 150.344 197.052 161.968 190.116C163.403 189.261 164.592 188.048 165.416 186.595C166.241 185.142 166.674 183.499 166.672 181.828V58.9691L168.158 57.498Z" fill="#EBEBEB"/>
<path d="M104.843 225.936L102.046 224.382V224.351C101.568 224.068 101.173 223.665 100.9 223.181C100.627 222.697 100.486 222.15 100.492 221.595V96.5293C100.495 95.0649 100.878 93.6264 101.604 92.355C102.331 91.0835 103.376 90.0229 104.636 89.2773L125.154 77.2545H125.413L127.91 78.6738V79.1193L126.076 80.1916C126.355 80.5759 126.76 80.8507 127.221 80.9686C128.101 81.2068 129.241 80.9686 130.422 80.2744L136.752 76.6018C139.585 74.9649 141.891 71.3338 141.891 68.5107V67.5679L142.02 67.3452L162.134 55.5503C162.639 55.2538 163.217 55.1026 163.803 55.1136C164.389 55.1246 164.96 55.2972 165.454 55.6125L168.288 57.2804L168.34 57.6896L166.951 59.0779V181.818C166.953 183.533 166.51 185.22 165.666 186.713C164.821 188.207 163.605 189.456 162.134 190.339C155.514 194.291 121.647 214.493 105.304 224.341L105.237 224.377V225.713L104.843 225.936ZM102.289 223.905L104.708 225.268V224.232L104.854 223.999L104.921 223.968L105.03 223.911C121.373 214.069 155.234 193.867 161.859 189.909C163.257 189.072 164.414 187.886 165.216 186.468C166.017 185.05 166.437 183.447 166.433 181.818V58.9691L166.511 58.7878L167.739 57.5601L165.185 56.0528C164.771 55.7836 164.29 55.636 163.796 55.6269C163.303 55.6177 162.817 55.7473 162.393 56.001L142.403 67.7181V68.5107C142.403 71.4995 139.979 75.3275 137.006 77.0525L130.655 80.7096C129.355 81.4658 128.065 81.7456 127.06 81.4555C126.726 81.3677 126.412 81.2138 126.138 81.003C125.864 80.7921 125.635 80.5286 125.465 80.2278L125.558 79.8756L127.231 78.8914L125.258 77.7673L104.869 89.7124C103.683 90.4122 102.7 91.4088 102.016 92.6041C101.332 93.7994 100.971 95.1522 100.969 96.5293V221.595C100.967 222.062 101.088 222.522 101.32 222.927C101.551 223.333 101.886 223.67 102.289 223.905Z" fill="#EBEBEB"/>
<path d="M169.189 59.7305V183.258C169.191 184.929 168.758 186.571 167.934 188.024C167.109 189.477 165.921 190.691 164.486 191.546C152.862 198.472 122.626 216.524 107.656 225.537C107.21 225.805 106.7 225.949 106.18 225.956C105.659 225.962 105.146 225.83 104.694 225.574C104.241 225.317 103.864 224.945 103.602 224.496C103.34 224.046 103.201 223.535 103.201 223.015V97.9486C103.2 96.5261 103.571 95.1282 104.277 93.8933C104.983 92.6585 106 91.6297 107.226 90.909L127.744 78.8862V79.6787C127.744 82.5899 130.106 83.5896 133.017 81.9061L139.363 78.2439C142.274 76.5655 144.636 72.8411 144.636 69.93V68.9872L164.755 57.1975C165.202 56.9347 165.71 56.7946 166.228 56.7913C166.746 56.788 167.256 56.9217 167.706 57.1787C168.156 57.4358 168.531 57.8072 168.791 58.2553C169.051 58.7034 169.189 59.2123 169.189 59.7305Z" fill="#FAFAFA"/>
<path d="M168.93 59.7306V178.285C168.93 180.357 169.143 182.626 168.821 184.698C168.345 187.723 166.48 190.044 163.9 191.582L159.378 194.281L147.231 201.533C137.828 207.148 128.435 212.767 119.052 218.389L112.883 222.092C111.054 223.191 109.257 224.475 107.335 225.418C106.921 225.614 106.465 225.701 106.009 225.674C105.552 225.646 105.11 225.503 104.724 225.258C104.337 225.014 104.019 224.676 103.798 224.275C103.577 223.875 103.461 223.425 103.46 222.968C103.46 222.766 103.46 222.564 103.46 222.367V98.2335C103.432 96.7993 103.785 95.3833 104.482 94.1295C105.179 92.8758 106.195 91.8289 107.428 91.0955C112.608 87.9875 117.829 85.0038 123.03 81.9528L127.884 79.109L127.49 78.8862C127.49 79.8652 127.49 80.8753 128.008 81.7352C128.288 82.1563 128.676 82.4938 129.132 82.7118C129.588 82.9298 130.095 83.0201 130.598 82.9732C132.302 82.8748 133.872 81.7041 135.312 80.8753C136.752 80.0465 138.099 79.2903 139.456 78.4718C142.058 76.9244 143.945 74.4136 144.709 71.484C144.825 70.9739 144.89 70.4532 144.9 69.93C144.921 69.7077 144.921 69.4841 144.9 69.2618C144.838 68.9976 144.988 69.0649 144.786 69.2307C144.999 69.0853 145.223 68.9554 145.454 68.8422L149.127 66.6873L159.969 60.3315L164.232 57.8347C164.449 57.7052 164.667 57.5705 164.89 57.4514C165.298 57.2208 165.76 57.1002 166.229 57.1015C166.698 57.1028 167.159 57.2259 167.566 57.4588C167.974 57.6917 168.313 58.0264 168.552 58.43C168.792 58.8337 168.922 59.2926 168.93 59.7617C168.93 60.0932 169.448 60.0932 169.448 59.7617C169.437 59.2024 169.28 58.6556 168.995 58.1747C168.709 57.6937 168.303 57.2951 167.818 57.0175C167.332 56.74 166.783 56.593 166.223 56.591C165.664 56.5889 165.113 56.7319 164.626 57.0059C163.952 57.3685 163.3 57.7829 162.636 58.1714L152.406 64.1647L147.438 67.081C146.527 67.599 145.527 68.0859 144.672 68.7023C144.382 68.9044 144.382 69.0183 144.382 69.412C144.396 70.8289 144.066 72.2281 143.419 73.4887C142.284 75.6303 140.539 77.3864 138.404 78.534C136.633 79.57 134.861 80.606 133.09 81.6005C132.007 82.2221 130.588 82.8541 129.35 82.2895C128.019 81.6834 128.008 80.1709 128.008 78.9173C128.008 78.872 127.996 78.8275 127.973 78.7884C127.95 78.7492 127.917 78.7167 127.878 78.6942C127.839 78.6716 127.794 78.6598 127.749 78.6599C127.703 78.6599 127.659 78.6719 127.62 78.6946L112.598 87.5006C110.769 88.5728 108.925 89.6192 107.112 90.7173C105.826 91.499 104.767 92.6035 104.04 93.9211C103.313 95.2387 102.943 96.7237 102.968 98.2283C102.968 100.715 102.968 103.201 102.968 105.682V222.6C102.968 222.735 102.968 222.875 102.968 223.009C102.974 223.464 103.075 223.913 103.265 224.326C103.455 224.739 103.73 225.108 104.072 225.408C104.414 225.708 104.815 225.932 105.25 226.067C105.684 226.202 106.142 226.244 106.594 226.19C107.63 226.055 108.573 225.314 109.459 224.781L112.178 223.149L118.394 219.404C123.087 216.59 127.782 213.779 132.479 210.971C141.388 205.646 150.299 200.323 159.213 195.001C162.839 192.826 167.231 190.987 168.837 186.749C169.317 185.34 169.533 183.855 169.474 182.367V59.7306C169.474 59.6585 169.445 59.5893 169.394 59.5383C169.343 59.4873 169.274 59.4586 169.202 59.4586C169.13 59.4586 169.061 59.4873 169.01 59.5383C168.959 59.5893 168.93 59.6585 168.93 59.7306Z" fill="#EBEBEB"/>
<path d="M160.606 83.0146L111.779 111.204C110.837 111.753 110.065 111.168 110.065 109.909V104.817C110.077 104.175 110.238 103.545 110.536 102.976C110.833 102.407 111.259 101.915 111.779 101.538L160.606 73.3488C161.554 72.8308 162.321 73.385 162.321 74.6489V79.7357C162.311 80.3782 162.151 81.0095 161.853 81.5789C161.555 82.1483 161.128 82.64 160.606 83.0146Z" fill="#347683"/>
<path opacity="0.6" d="M160.606 83.0146L111.779 111.204C110.837 111.753 110.065 111.168 110.065 109.909V104.817C110.077 104.175 110.238 103.545 110.536 102.976C110.833 102.407 111.259 101.915 111.779 101.538L160.606 73.3488C161.554 72.8308 162.321 73.385 162.321 74.6489V79.7357C162.311 80.3782 162.151 81.0095 161.853 81.5789C161.555 82.1483 161.128 82.64 160.606 83.0146Z" fill="#FEFFFF"/>
<path d="M156.685 78.0004C156.795 77.9012 156.934 77.8395 157.082 77.8239C157.229 77.8084 157.378 77.84 157.507 77.9141C157.636 77.9882 157.738 78.1011 157.798 78.2366C157.859 78.3721 157.875 78.5233 157.845 78.6687C157.832 79.0744 157.716 79.4702 157.508 79.8186C157.311 80.1714 157.027 80.4689 156.685 80.6837C156.567 80.769 156.429 80.8216 156.284 80.8361C156.139 80.8507 155.993 80.8267 155.861 80.7666C155.41 80.5024 155.41 79.6529 155.861 78.8655C156.059 78.5127 156.342 78.2153 156.685 78.0004ZM156.685 77.3011C156.161 77.6256 155.731 78.0808 155.436 78.622C154.742 79.8186 154.742 81.1085 155.436 81.5073C155.636 81.6002 155.858 81.6377 156.077 81.6158C156.297 81.594 156.507 81.5135 156.685 81.383C157.208 81.0585 157.639 80.6033 157.933 80.0621C158.627 78.8655 158.627 77.5757 157.933 77.1768C157.733 77.0839 157.511 77.0465 157.292 77.0683C157.072 77.0902 156.863 77.1706 156.685 77.3011Z" fill="#FEFFFF"/>
<path d="M159.202 82.3619C159.121 82.3606 159.044 82.3292 158.985 82.2739L157.301 80.5904C157.253 80.5317 157.229 80.4574 157.233 80.3819C157.237 80.3063 157.269 80.2349 157.322 80.1814C157.376 80.1279 157.447 80.0962 157.523 80.0923C157.598 80.0884 157.672 80.1127 157.731 80.1604L159.415 81.8439C159.471 81.9012 159.503 81.9784 159.503 82.0589C159.503 82.1394 159.471 82.2167 159.415 82.2739C159.357 82.3284 159.281 82.3598 159.202 82.3619Z" fill="#FEFFFF"/>
<path d="M116.268 119.776C117.687 117.318 117.687 114.661 116.267 113.842C114.848 113.022 112.546 114.35 111.128 116.808C109.709 119.265 109.709 121.922 111.129 122.742C112.548 123.562 114.85 122.234 116.268 119.776Z" fill="#347683"/>
<path d="M120.798 113.178C120.706 113.178 120.617 113.154 120.537 113.109C120.458 113.063 120.393 112.998 120.347 112.919C120.279 112.8 120.262 112.659 120.298 112.527C120.333 112.395 120.42 112.283 120.539 112.214L137.27 102.564C137.329 102.527 137.395 102.501 137.464 102.49C137.533 102.479 137.603 102.481 137.671 102.498C137.739 102.515 137.803 102.545 137.859 102.587C137.915 102.629 137.961 102.681 137.996 102.742C138.031 102.802 138.054 102.869 138.062 102.939C138.071 103.008 138.065 103.078 138.045 103.145C138.026 103.213 137.993 103.275 137.949 103.329C137.905 103.383 137.85 103.428 137.788 103.46L121.057 113.11C120.978 113.155 120.888 113.178 120.798 113.178Z" fill="#347683"/>
<path d="M120.798 116.343C120.706 116.343 120.617 116.319 120.537 116.274C120.458 116.228 120.393 116.163 120.347 116.084C120.279 115.965 120.262 115.824 120.298 115.692C120.333 115.56 120.42 115.448 120.539 115.379L130.795 109.453C130.854 109.419 130.92 109.397 130.987 109.389C131.055 109.38 131.124 109.384 131.19 109.402C131.255 109.42 131.317 109.451 131.371 109.492C131.425 109.534 131.471 109.586 131.505 109.645C131.539 109.704 131.561 109.77 131.569 109.837C131.578 109.905 131.574 109.974 131.556 110.04C131.538 110.105 131.507 110.167 131.466 110.221C131.424 110.275 131.372 110.321 131.313 110.355L121.057 116.275C120.978 116.32 120.888 116.343 120.798 116.343Z" fill="#347683"/>
<path d="M131.36 144.087L112.546 154.965C111.178 155.757 110.065 154.918 110.065 153.09V132.235C110.065 130.406 111.178 128.288 112.546 127.495L131.36 116.617C132.732 115.825 133.841 116.664 133.841 118.492V139.342C133.841 141.176 132.732 143.294 131.36 144.087Z" fill="#347683"/>
<path opacity="0.3" d="M131.36 144.087L112.546 154.965C111.178 155.757 110.065 154.918 110.065 153.09V132.235C110.065 130.406 111.178 128.288 112.546 127.495L131.36 116.617C132.732 115.825 133.841 116.664 133.841 118.492V139.342C133.841 141.176 132.732 143.294 131.36 144.087Z" fill="#FEFFFF"/>
<path d="M132.245 137.855L111.8 149.66L117.84 133.944L122.621 138.332L126.299 132.82L132.245 137.855Z" fill="#347683"/>
<path d="M124.607 129.882C125.335 128.621 125.335 127.258 124.606 126.837C123.878 126.416 122.697 127.098 121.969 128.359C121.241 129.62 121.241 130.983 121.97 131.404C122.698 131.824 123.879 131.143 124.607 129.882Z" fill="#347683"/>
<path d="M159.844 127.749L141.026 138.627C139.658 139.42 138.544 138.58 138.544 136.752V115.897C138.544 114.074 139.658 111.95 141.026 111.158L159.844 100.28C161.212 99.4922 162.321 100.331 162.321 102.155V122.994C162.321 124.838 161.212 126.962 159.844 127.749Z" fill="#347683"/>
<path opacity="0.3" d="M159.844 127.749L141.026 138.627C139.658 139.42 138.544 138.58 138.544 136.752V115.897C138.544 114.074 139.658 111.95 141.026 111.158L159.844 100.28C161.212 99.4922 162.321 100.331 162.321 102.155V122.994C162.321 124.838 161.212 126.962 159.844 127.749Z" fill="#FEFFFF"/>
<path d="M160.658 121.041L140.212 132.846L146.252 117.13L151.033 121.518L154.711 116.006L160.658 121.041Z" fill="#347683"/>
<path d="M153.566 111.235C153.53 111.882 153.342 112.512 153.018 113.073C152.694 113.635 152.243 114.112 151.701 114.468C150.665 115.058 149.837 114.576 149.837 113.39C149.873 112.743 150.061 112.114 150.385 111.552C150.709 110.991 151.16 110.513 151.701 110.158C152.732 109.562 153.566 110.044 153.566 111.235Z" fill="#347683"/>
<path d="M131.36 202.02L112.546 212.898C111.178 213.69 110.065 212.851 110.065 211.023C110.065 209.194 111.178 207.076 112.546 206.283L131.36 195.405C132.732 194.613 133.841 195.452 133.841 197.28C133.841 199.114 132.732 201.238 131.36 202.02Z" fill="#347683"/>
<path d="M159.844 185.346L141.026 196.224C139.658 197.016 138.544 196.177 138.544 194.348C138.544 192.52 139.658 190.401 141.026 189.609L159.844 178.731C161.212 177.938 162.321 178.777 162.321 180.606C162.321 182.434 161.212 184.553 159.844 185.346Z" fill="#347683"/>
<path d="M160.606 172.919L111.779 201.108C110.837 201.652 110.065 201.072 110.065 199.808V163.823C110.075 163.181 110.235 162.551 110.533 161.982C110.831 161.414 111.258 160.923 111.779 160.549L160.606 132.359C161.554 131.81 162.321 132.39 162.321 133.654V169.64C162.311 170.282 162.151 170.914 161.853 171.483C161.555 172.052 161.128 172.544 160.606 172.919Z" fill="#E0E0E0"/>
<path d="M115.094 164.724C114.98 164.725 114.868 164.687 114.777 164.618C114.686 164.548 114.62 164.451 114.59 164.34C114.561 164.229 114.569 164.111 114.613 164.006C114.657 163.9 114.736 163.812 114.835 163.755L157.037 139.409C157.155 139.341 157.296 139.323 157.427 139.358C157.559 139.393 157.672 139.478 157.741 139.596C157.776 139.655 157.798 139.72 157.808 139.787C157.817 139.855 157.813 139.923 157.795 139.989C157.778 140.055 157.748 140.117 157.707 140.171C157.665 140.226 157.614 140.271 157.555 140.305L115.353 164.651C115.275 164.698 115.186 164.723 115.094 164.724Z" fill="#FEFFFF"/>
<path d="M115.094 169.624C114.981 169.623 114.872 169.585 114.783 169.516C114.693 169.446 114.629 169.35 114.6 169.241C114.57 169.132 114.577 169.016 114.62 168.911C114.663 168.806 114.738 168.718 114.835 168.661L157.037 144.315C157.155 144.253 157.293 144.239 157.421 144.276C157.55 144.313 157.659 144.399 157.726 144.514C157.792 144.63 157.812 144.767 157.78 144.897C157.748 145.027 157.668 145.139 157.555 145.211L115.353 169.557C115.275 169.602 115.185 169.625 115.094 169.624Z" fill="#FEFFFF"/>
<path d="M115.094 174.53C114.98 174.531 114.868 174.493 114.777 174.424C114.686 174.354 114.62 174.256 114.59 174.146C114.561 174.035 114.569 173.917 114.613 173.811C114.657 173.706 114.736 173.618 114.835 173.561L157.037 149.215C157.155 149.147 157.296 149.129 157.427 149.163C157.559 149.198 157.672 149.284 157.741 149.402C157.776 149.46 157.798 149.525 157.808 149.593C157.817 149.66 157.813 149.729 157.795 149.795C157.778 149.861 157.748 149.923 157.707 149.977C157.665 150.031 157.614 150.077 157.555 150.111L115.353 174.457C115.275 174.504 115.186 174.529 115.094 174.53Z" fill="#FEFFFF"/>
<path d="M115.094 179.43C114.981 179.429 114.872 179.391 114.783 179.321C114.693 179.252 114.629 179.156 114.6 179.047C114.57 178.937 114.577 178.822 114.62 178.717C114.663 178.612 114.738 178.524 114.835 178.467L157.037 154.121C157.096 154.087 157.161 154.064 157.229 154.056C157.297 154.047 157.366 154.052 157.431 154.069C157.497 154.087 157.559 154.118 157.613 154.159C157.667 154.201 157.713 154.253 157.747 154.312C157.781 154.371 157.803 154.437 157.811 154.504C157.82 154.572 157.816 154.641 157.798 154.707C157.78 154.773 157.749 154.834 157.708 154.888C157.666 154.942 157.614 154.988 157.555 155.022L115.353 179.368C115.274 179.411 115.185 179.432 115.094 179.43Z" fill="#FEFFFF"/>
<path d="M115.094 184.335C114.98 184.336 114.868 184.299 114.777 184.229C114.686 184.16 114.62 184.062 114.59 183.951C114.561 183.84 114.569 183.723 114.613 183.617C114.657 183.511 114.736 183.423 114.835 183.367L157.037 159.021C157.155 158.959 157.293 158.945 157.421 158.982C157.55 159.02 157.659 159.105 157.725 159.221C157.792 159.336 157.812 159.473 157.78 159.603C157.748 159.733 157.668 159.845 157.555 159.917L115.353 184.263C115.276 184.311 115.186 184.336 115.094 184.335Z" fill="#FEFFFF"/>
<path d="M115.094 189.236C115.004 189.235 114.915 189.211 114.837 189.165C114.759 189.12 114.694 189.055 114.649 188.977C114.581 188.858 114.562 188.718 114.597 188.586C114.632 188.454 114.718 188.341 114.835 188.272L157.037 163.926C157.096 163.892 157.161 163.87 157.229 163.861C157.297 163.853 157.365 163.857 157.431 163.875C157.497 163.893 157.559 163.923 157.613 163.965C157.667 164.007 157.713 164.059 157.747 164.118C157.781 164.177 157.803 164.242 157.811 164.31C157.82 164.378 157.815 164.446 157.798 164.512C157.78 164.578 157.749 164.64 157.708 164.694C157.666 164.748 157.614 164.793 157.555 164.828L115.353 189.174C115.274 189.216 115.185 189.238 115.094 189.236Z" fill="#FEFFFF"/>
<path d="M115.094 194.141C114.98 194.142 114.868 194.105 114.777 194.035C114.686 193.966 114.62 193.868 114.59 193.757C114.561 193.646 114.569 193.529 114.613 193.423C114.657 193.317 114.736 193.229 114.835 193.172L157.037 168.826C157.155 168.765 157.293 168.751 157.421 168.788C157.55 168.825 157.659 168.911 157.725 169.026C157.792 169.142 157.812 169.279 157.78 169.409C157.748 169.538 157.668 169.651 157.555 169.723L115.353 194.069C115.275 194.115 115.186 194.14 115.094 194.141Z" fill="#FEFFFF"/>
<path d="M201.549 177.58H194.25V179.532C194.251 181.034 194.455 182.529 194.856 183.977L200.72 205.215C200.768 205.398 200.876 205.561 201.027 205.677C201.177 205.792 201.361 205.855 201.551 205.855C201.741 205.855 201.926 205.792 202.076 205.677C202.226 205.561 202.334 205.398 202.383 205.215L208.246 183.977C208.645 182.527 208.847 181.031 208.847 179.527V177.58H201.549Z" fill="#FFA8A7"/>
<path d="M203.465 200.144C202.872 200.445 202.216 200.602 201.551 200.602C200.886 200.602 200.23 200.445 199.637 200.144C199.492 200.06 199.357 199.957 199.238 199.838L200.72 205.204C200.768 205.388 200.876 205.55 201.027 205.666C201.177 205.782 201.361 205.845 201.551 205.845C201.741 205.845 201.926 205.782 202.076 205.666C202.226 205.55 202.334 205.388 202.383 205.204L203.864 199.838C203.744 199.956 203.61 200.058 203.465 200.144Z" fill="#37474F"/>
<path d="M194.25 81.1642V180.071C194.25 181.149 194.965 182.226 196.389 183.05C199.238 184.692 203.859 184.692 206.708 183.05C208.132 182.226 208.847 181.149 208.847 180.071V81.1642H194.25Z" fill="#347683"/>
<path d="M206.708 97.6677C209.562 99.3098 209.562 101.977 206.708 103.625C203.854 105.272 199.238 105.272 196.389 103.625C193.54 101.977 193.54 99.3098 196.389 97.6677C199.238 96.0256 203.859 96.0205 206.708 97.6677Z" fill="#E6E6E6"/>
<path d="M208.842 84.4484H194.25V100.646H208.842V84.4484Z" fill="#E6E6E6"/>
<path d="M206.708 97.7972C203.859 99.4445 199.238 99.4445 196.389 97.7972C194.965 96.9736 194.25 95.8962 194.25 94.8187V96.8337C194.25 97.9112 194.965 98.9886 196.389 99.8122C199.238 101.459 203.859 101.459 206.708 99.8122C208.132 98.9886 208.847 97.9112 208.847 96.8337V94.8187C208.847 95.8962 208.132 96.9943 206.708 97.7972Z" fill="#347683"/>
<path d="M206.708 91.6433C203.859 93.2854 199.238 93.2854 196.389 91.6433C194.965 90.8197 194.25 89.7423 194.25 88.6597V90.6747C194.25 91.7521 194.965 92.8296 196.389 93.6532C199.238 95.3004 203.859 95.3004 206.708 93.6532C208.132 92.8296 208.847 91.7521 208.847 90.6747V88.6597C208.847 89.7423 208.132 90.8197 206.708 91.6433Z" fill="#347683"/>
<path d="M206.708 81.4543C209.562 83.1016 209.562 85.7693 206.708 87.4113C203.854 89.0534 199.238 89.0586 196.389 87.4113C193.54 85.7641 193.54 83.1016 196.389 81.4543C199.238 79.8071 203.859 79.8226 206.708 81.4543Z" fill="#F28F8F"/>
<path d="M208.842 72.063H194.25V84.4484H208.842V72.063Z" fill="#F28F8F"/>
<path d="M206.708 69.0844C209.562 70.7317 209.562 73.3994 206.708 75.0414C203.854 76.6835 199.238 76.6887 196.389 75.0414C193.54 73.3942 193.54 70.7265 196.389 69.0793C199.238 67.432 203.859 67.4683 206.708 69.0844Z" fill="#FFA8A7"/>
</svg>
