<svg width="220" height="247" viewBox="0 0 220 247" fill="none" xmlns="http://www.w3.org/2000/svg">
<path d="M106.15 168.366C162.661 168.277 182.647 149.683 189.423 92.5039C182.441 62.4442 169.952 55.7817 162.383 50.5964C164.946 22.7501 160.018 22.7579 160.018 22.7579C135.8 63.2601 125.205 28.74 98.6859 68.5033C81.5267 36.9755 52.9847 54.8395 38.1246 22.9498C38.1246 22.9498 32.8843 29.999 36.2146 48.9389C21.4507 57.8716 17.1939 69.0152 10.0218 92.7863C13.7602 145.494 44.7198 172.546 106.15 168.366Z" fill="#6DDBE8"/>
<path d="M99.0143 68.497C108.397 53.8914 118.677 46.9339 135.099 44.6813C118.589 41.7078 105.878 53.2708 98.981 54.3938C92.0841 55.5168 80.2194 39.9468 63.4746 44.7942C79.5798 47.3675 91.3294 56.7073 99.0143 68.497Z" fill="#48929A"/>
<path d="M149.805 150.835C124.879 169.436 89.887 178.386 35.4689 151.015C20.8338 214.519 56.7021 238.221 101.385 238.151C146.068 238.08 192.302 198.657 149.805 150.835Z" fill="#6DDBE8"/>
<path d="M69.8575 243.769C67.2273 243.03 64.5796 234.868 66.8664 229.296C69.109 226.943 71.4608 227.061 74.7516 229.283C74.777 240.049 72.4877 244.507 69.8575 243.769Z" fill="#F99224"/>
<path d="M78.2989 244.729C75.6687 243.991 73.021 235.828 75.3078 230.256C77.5505 227.904 79.9022 228.022 83.193 230.244C83.2184 241.01 80.9291 245.467 78.2989 244.729Z" fill="#F99224"/>
<path d="M86.9481 245.97C84.3855 245.296 81.6021 236.662 83.831 231.578C86.0165 229.431 88.3079 229.538 91.5139 231.566C92.1936 241.135 89.5107 246.643 86.9481 245.97Z" fill="#F99224"/>
<path d="M129.202 243.968C131.761 243.218 134.303 235.017 132.049 229.431C129.853 227.077 127.562 227.203 124.366 229.443C124.391 240.249 126.643 244.717 129.202 243.968Z" fill="#F7921E"/>
<path d="M120.661 244.723C123.22 243.974 125.761 235.772 123.507 230.187C121.311 227.832 119.02 227.958 115.824 230.199C115.85 241.005 118.101 245.472 120.661 244.723Z" fill="#F7921E"/>
<path d="M111.983 246.244C114.523 245.549 117.245 236.737 115.009 231.559C112.83 229.377 110.556 229.494 107.384 231.572C106.755 241.331 109.444 246.939 111.983 246.244Z" fill="#F7921E"/>
<path d="M212.994 110.912C192.051 144.762 175.326 147.247 143.568 158.161C143.718 221.696 209.106 176.503 217.162 164.193C225.219 151.883 192.929 174.479 197.757 164.224C207.445 158.06 226.766 122.162 217.09 133.45C207.414 144.738 197.718 147.828 197.718 147.828C203.684 133.411 224.294 102.695 212.994 110.912Z" fill="#48929A"/>
<path d="M22.8453 214.622C9.23555 176.741 27.8291 143.956 37.7846 151.522C56.2377 167.587 27.2885 187.401 59.4128 219.975C50.4379 218.383 44.1876 214.339 38.8798 204.37C38.8798 204.37 38.2311 213.056 44.4533 217.785C50.6756 222.514 36.9604 221.27 31.3956 204.802C22.4888 193.953 42.9345 240.089 22.8453 214.622Z" fill="#48929A"/>
<ellipse cx="36.7979" cy="41.5777" rx="36.7979" ry="41.5777" transform="matrix(0.999999 -0.00157418 0.00235806 0.999997 26.3638 56.3789)" fill="white"/>
<ellipse cx="36.7979" cy="41.5777" rx="36.7979" ry="41.5777" transform="matrix(0.999999 -0.00157418 0.00235806 0.999997 99.3025 56.2634)" fill="#FEFFFF"/>
<ellipse cx="26.2842" cy="29.6984" rx="26.2842" ry="29.6984" transform="matrix(0.999999 -0.00157418 0.00235806 0.999997 109.843 68.1266)" fill="#120C0E"/>
<ellipse cx="9.85659" cy="11.1369" rx="9.85659" ry="11.1369" transform="matrix(0.999999 -0.00157418 0.00235806 0.999997 138.769 73.2777)" fill="#FEFFFF"/>
<ellipse cx="26.2842" cy="29.6984" rx="26.2842" ry="29.6984" transform="matrix(0.999999 -0.00157418 0.00235806 0.999997 37.5625 68.2396)" fill="#120C0E"/>
<ellipse cx="9.85659" cy="11.1369" rx="9.85659" ry="11.1369" transform="matrix(0.999999 -0.00157418 0.00235806 0.999997 67.8013 73.3899)" fill="#FEFFFF"/>
<path d="M66.6134 183.386L60.0069 164.719L77.9936 167.959L66.6134 183.386Z" fill="#48929A"/>
<path d="M97.1371 185.746L87.8865 170.2L105.951 169.905L97.1371 185.746Z" fill="#48929A"/>
<path d="M86.672 205.808L77.4214 190.262L95.4863 189.967L86.672 205.808Z" fill="#48929A"/>
<path d="M128.836 182.153L116.073 170.194L133.319 164.135L128.836 182.153Z" fill="#48929A"/>
<path d="M118.37 202.216L105.608 190.257L122.854 184.198L118.37 202.216Z" fill="#48929A"/>
<path d="M99.7418 103.038C99.6788 103.92 99.5687 104.809 99.4176 105.701C100.713 112.984 111.766 131.209 113.471 130.606L113.606 130.488C113.571 130.547 113.526 130.586 113.471 130.606L100.818 141.645L85.6861 130.537C86.9488 131.424 97.2815 118.306 99.4176 105.701C99.1901 104.422 99.2636 103.481 99.7418 103.038Z" fill="#F6931E"/>
<path d="M56.7805 45.3292V30.1014L97.5229 38.6007L137.832 30.1014V45.3292L101.857 55.245L56.7805 45.3292Z" fill="#0F0B0C"/>
<path d="M97.0887 43.5585L18.2046 23.0187L97.0887 0L175.973 23.0187L97.0887 43.5585Z" fill="#0F0B0C"/>
<path d="M151.702 61.9735C145.634 60.557 155.603 41.7879 152.569 24.7895L156.903 23.7271C156.036 41.4338 163.838 59.4946 159.07 61.9735H151.702Z" fill="#0F0B0C"/>
<ellipse cx="155.168" cy="34.7052" rx="5.20115" ry="4.24961" fill="#0F0B0C"/>
</svg>
