<svg width="293" height="289" viewBox="0 0 293 289" fill="none" xmlns="http://www.w3.org/2000/svg">
<path d="M229.997 10.8179H240.814L240.085 50.6778H230.726L229.997 10.8179Z" fill="#EBEBEB"/>
<path d="M240.084 55.6683H230.731V65.0213H240.084V55.6683Z" fill="#EBEBEB"/>
<path d="M255.115 43.4882L263.911 46.0487L253.888 78.2863L246.277 76.0696L255.115 43.4882Z" fill="#EBEBEB"/>
<path d="M252.699 82.3492L245.095 80.136L242.882 87.739L250.485 89.9523L252.699 82.3492Z" fill="#EBEBEB"/>
<path d="M149.043 30.2825L156.049 26.9692L167.773 53.0249L161.709 55.8936L149.043 30.2825Z" fill="#EBEBEB"/>
<path d="M169.301 56.2732L163.239 59.1349L166.1 65.197L172.163 62.3353L169.301 56.2732Z" fill="#EBEBEB"/>
<path d="M256.188 193.681H200.9C200.9 193.681 206.383 178.71 214.823 178.71C223.263 178.71 225.901 189.041 225.901 189.041C225.901 189.041 231.591 183.428 236.267 183.428C240.944 183.428 245.01 190.848 245.01 190.848C245.01 190.848 251.612 186.859 256.188 193.681Z" fill="#EBEBEB"/>
<path d="M185.49 170.844H156.34C156.34 170.844 162.86 161.402 167.987 161.402C173.114 161.402 174.625 167.703 174.625 167.703C174.625 167.703 178.253 164.769 181.607 165.291C184.962 165.812 185.49 170.844 185.49 170.844Z" fill="#EBEBEB"/>
<path d="M84.7048 93.3115H27.9111C27.9111 93.3115 35.6875 75.951 44.0092 74.8604C52.3309 73.7698 56.308 87.7637 56.308 87.7637C56.308 87.7637 61.6424 82.8205 65.8921 82.8205C70.1419 82.8205 73.3722 89.3403 73.3722 89.3403C73.3722 89.3403 81.8124 84.8713 84.7048 93.3115Z" fill="#EBEBEB"/>
<path d="M200.966 63.2303H194.857V229.309H200.966V63.2303Z" fill="#DBDBDB"/>
<path d="M203.107 43.8176C200.798 39.8177 195.024 39.8177 192.715 43.8176L155.107 108.954C152.798 112.954 155.685 117.954 160.304 117.954H235.519C240.138 117.954 243.024 112.954 240.715 108.954L203.107 43.8176Z" fill="#347683"/>
<path d="M200.51 51.3615C199.355 49.3615 196.468 49.3616 195.313 51.3616L162.944 107.433C161.789 109.433 163.232 111.933 165.542 111.933H230.286C232.595 111.933 234.039 109.433 232.884 107.433L200.51 51.3615Z" fill="white"/>
<path d="M194.108 65.6904H201.718L201.206 93.7442H194.62L194.108 65.6904Z" fill="#347683"/>
<path d="M201.201 97.2599H194.621V103.84H201.201V97.2599Z" fill="#347683"/>
<path d="M241.911 122.792H153.911C151.702 122.792 149.911 124.583 149.911 126.792V150.91C149.911 153.119 151.702 154.91 153.911 154.91H241.911C244.12 154.91 245.911 153.119 245.911 150.91V126.792C245.911 124.583 244.12 122.792 241.911 122.792Z" fill="#347683"/>
<path d="M243.754 148.768C243.754 150.977 241.963 152.768 239.754 152.768H156.069C153.86 152.768 152.069 150.977 152.069 148.768V128.934C152.069 126.725 153.86 124.934 156.069 124.934H239.754C241.963 124.934 243.754 126.725 243.754 128.934V148.768ZM152.581 148.255C152.581 150.465 154.372 152.255 156.581 152.255H239.241C241.45 152.255 243.241 150.465 243.241 148.255V129.447C243.241 127.238 241.45 125.447 239.241 125.447H156.581C154.372 125.447 152.581 127.238 152.581 129.447V148.255Z" fill="white"/>
<path d="M162.779 136.352H163.748L165.89 141.989H164.763L164.25 140.585H162.282L161.77 141.989H160.642L162.779 136.352ZM164.04 139.806L163.266 137.597L162.457 139.811L164.04 139.806Z" fill="white"/>
<path d="M170.16 137.31H168.361V141.979H167.264V137.31H165.465V136.352H170.149L170.16 137.31Z" fill="white"/>
<path d="M175.064 137.31H173.265V141.979H172.179V137.31H170.38V136.352H175.064V137.31Z" fill="white"/>
<path d="M179.667 141.021V141.979H175.762V136.342H179.595V137.3H176.853V138.658H179.226V139.545H176.853V141.01L179.667 141.021Z" fill="white"/>
<path d="M190.777 137.31H188.978V141.979H187.892V137.31H186.093V136.352H190.777V137.31Z" fill="white"/>
<path d="M191.474 141.979V136.342H192.57V141.979H191.474Z" fill="white"/>
<path d="M196.143 142.02C195.755 142.024 195.372 141.94 195.021 141.774C194.694 141.62 194.401 141.402 194.16 141.133C193.917 140.867 193.728 140.558 193.601 140.221C193.469 139.885 193.402 139.526 193.401 139.165C193.401 138.796 193.473 138.431 193.611 138.089C193.746 137.751 193.942 137.442 194.191 137.177C194.437 136.91 194.735 136.695 195.067 136.546C195.413 136.389 195.789 136.308 196.169 136.311C196.554 136.308 196.934 136.394 197.281 136.562C197.608 136.722 197.901 136.945 198.142 137.218C198.38 137.488 198.567 137.799 198.695 138.135C198.892 138.643 198.942 139.195 198.839 139.73C198.737 140.265 198.486 140.76 198.116 141.159C197.871 141.424 197.575 141.636 197.245 141.784C196.899 141.941 196.523 142.021 196.143 142.02ZM194.508 139.165C194.51 139.405 194.548 139.644 194.621 139.872C194.691 140.09 194.801 140.293 194.944 140.472C195.084 140.646 195.259 140.789 195.456 140.892C195.673 140.999 195.912 141.054 196.153 141.054C196.395 141.054 196.633 140.999 196.85 140.892C197.05 140.787 197.225 140.641 197.363 140.462C197.504 140.28 197.611 140.076 197.681 139.857C197.752 139.635 197.788 139.403 197.788 139.17C197.788 138.93 197.748 138.691 197.67 138.463C197.598 138.246 197.489 138.043 197.348 137.863C197.208 137.69 197.033 137.549 196.835 137.448C196.619 137.342 196.381 137.287 196.141 137.287C195.9 137.287 195.662 137.342 195.446 137.448C195.246 137.553 195.071 137.7 194.934 137.879C194.796 138.059 194.69 138.262 194.621 138.478C194.548 138.7 194.51 138.932 194.508 139.165Z" fill="white"/>
<path d="M200.828 138.371V141.958H199.731V136.321H200.576L203.508 140.016V136.331H204.6V141.969H203.713L200.828 138.371Z" fill="white"/>
<path d="M181.603 138.371V141.958H180.506V136.321H181.352L184.283 140.016V136.331H185.375V141.969H184.488L181.603 138.371Z" fill="white"/>
<path d="M207.679 141.979V136.342H210.067C210.316 136.34 210.561 136.397 210.784 136.506C210.997 136.611 211.188 136.756 211.348 136.931C211.506 137.11 211.633 137.314 211.722 137.536C211.808 137.751 211.853 137.98 211.856 138.212C211.856 138.449 211.813 138.683 211.727 138.904C211.648 139.124 211.528 139.328 211.374 139.504C211.218 139.678 211.03 139.821 210.82 139.924C210.597 140.032 210.351 140.086 210.103 140.083H208.775V141.969L207.679 141.979ZM208.775 139.135H210.041C210.14 139.137 210.238 139.116 210.327 139.073C210.416 139.03 210.494 138.967 210.554 138.889C210.7 138.699 210.773 138.462 210.759 138.222C210.761 138.091 210.739 137.961 210.692 137.838C210.655 137.733 210.6 137.636 210.528 137.551C210.464 137.472 210.381 137.411 210.287 137.372C210.199 137.332 210.103 137.311 210.005 137.31H208.775V139.135Z" fill="white"/>
<path d="M212.62 141.979V136.342H213.711V141.01H216.581V141.969L212.62 141.979Z" fill="white"/>
<path d="M221.152 141.021V141.979H217.247V136.342H221.075V137.3H218.334V138.658H220.701V139.545H218.334V141.01L221.152 141.021Z" fill="white"/>
<path d="M223.609 136.352H224.577L226.714 141.989H225.592L225.08 140.585H223.127L222.614 141.989H221.487L223.609 136.352ZM224.869 139.811L224.09 137.602L223.286 139.811H224.869Z" fill="white"/>
<path d="M230.598 137.828C230.537 137.77 230.47 137.718 230.398 137.674C230.283 137.604 230.163 137.543 230.039 137.489C229.892 137.425 229.739 137.374 229.583 137.336C229.416 137.292 229.243 137.27 229.071 137.269C228.833 137.251 228.596 137.311 228.394 137.438C228.322 137.492 228.264 137.563 228.226 137.644C228.187 137.725 228.169 137.815 228.174 137.905C228.169 138.008 228.198 138.111 228.256 138.197C228.321 138.28 228.403 138.348 228.497 138.397C228.624 138.463 228.758 138.516 228.896 138.555L229.455 138.704C229.732 138.781 229.967 138.858 230.208 138.945C230.414 139.02 230.606 139.127 230.777 139.263C230.93 139.384 231.052 139.538 231.136 139.714C231.227 139.92 231.271 140.144 231.264 140.37C231.271 140.638 231.213 140.903 231.095 141.144C230.986 141.35 230.828 141.526 230.634 141.656C230.431 141.793 230.205 141.892 229.967 141.948C229.708 142.006 229.444 142.036 229.178 142.035C228.754 142.036 228.332 141.972 227.928 141.846C227.533 141.726 227.159 141.544 226.821 141.308L227.302 140.365C227.382 140.434 227.467 140.496 227.559 140.549C227.7 140.635 227.848 140.712 227.999 140.78C228.181 140.861 228.37 140.927 228.563 140.974C228.769 141.027 228.981 141.055 229.194 141.056C229.798 141.056 230.101 140.862 230.101 140.477C230.102 140.365 230.066 140.255 229.998 140.165C229.915 140.072 229.814 139.997 229.701 139.944C229.554 139.872 229.402 139.814 229.245 139.77L228.64 139.596C228.4 139.533 228.166 139.452 227.938 139.355C227.751 139.281 227.578 139.177 227.425 139.047C227.297 138.933 227.196 138.791 227.128 138.632C227.056 138.455 227.022 138.265 227.026 138.074C227.022 137.812 227.076 137.553 227.185 137.315C227.287 137.098 227.438 136.907 227.625 136.757C227.822 136.607 228.045 136.495 228.281 136.423C228.54 136.344 228.81 136.304 229.081 136.306C229.453 136.303 229.823 136.368 230.172 136.495C230.48 136.606 230.773 136.754 231.044 136.936L230.598 137.828Z" fill="white"/>
<path d="M236.009 141.021V141.979H232.104V136.342H235.938V137.3H233.196V138.658H235.564V139.545H233.196V141.01L236.009 141.021Z" fill="white"/>
<path d="M123.65 67.199L131.278 56.2618L135.031 60.0854L141.916 51.8412L145.848 55.9633L134.688 63.1468L131.697 59.4185L123.65 67.199Z" fill="#455A64"/>
<path d="M121.218 73.2836L131.742 70.9336L131.749 74.2935L139.396 74.808L139.472 78.4029L129.208 76.5483L130.015 73.2582L121.218 73.2836Z" fill="#455A64"/>
<path d="M117.686 67.1989L116.911 57.0684L120.519 57.5066L120.443 49.2498L124.463 48.8179L122.183 59.5137L118.975 58.9103L117.686 67.1989Z" fill="#455A64"/>
<path d="M6 229.859L37.4841 229.7L68.9745 229.649L131.955 229.541L194.936 229.649L226.427 229.7L257.911 229.859L226.427 230.011L194.936 230.068L131.955 230.176L68.9745 230.068L37.4841 230.011L6 229.859Z" fill="#263238"/>
<path d="M8.51869 22.6683C8.51481 26.8457 9.67249 30.9419 11.8624 34.4992C14.0523 38.0566 17.1881 40.9351 20.9196 42.813C24.6511 44.6909 28.8312 45.4944 32.993 45.1336C37.1548 44.7728 41.1343 43.262 44.4869 40.7699L55.5321 43.5899L50.9336 33.307C52.5507 30.2856 53.4577 26.9354 53.5855 23.5109C53.7134 20.0864 53.0587 16.6778 51.6714 13.5443C50.2841 10.4108 48.2006 7.6349 45.5793 5.42757C42.9579 3.22025 39.8679 1.63965 36.544 0.805931C33.22 -0.0277855 29.7498 -0.092664 26.397 0.616224C23.0443 1.32511 19.8973 2.7891 17.1953 4.8969C14.4933 7.0047 12.3075 9.70081 10.804 12.7803C9.30052 15.8597 8.51894 19.2414 8.51869 22.6683Z" fill="white"/>
<path d="M8.51855 22.6683C8.5402 26.8287 9.70706 30.9028 11.8912 34.4439C12.4393 35.3257 13.0395 36.1741 13.6886 36.9844C14.3643 37.7691 15.0853 38.5135 15.8481 39.2138C16.2218 39.5708 16.614 39.9079 17.0231 40.2237L18.2934 41.151C18.7126 41.4559 19.1763 41.6909 19.6145 41.9703L20.2497 42.3641C20.472 42.4911 20.7133 42.5928 20.942 42.7071L22.3456 43.3422L23.8065 43.863C24.2899 44.0454 24.7868 44.1898 25.2927 44.295C25.7945 44.4093 26.2899 44.5744 26.798 44.6443C27.8139 44.8261 28.841 44.9386 29.8721 44.9809C30.9006 45.0487 31.9328 45.0338 32.9589 44.9364C35.0122 44.7445 37.0295 44.2722 38.9547 43.5328C40.8723 42.7821 42.6798 41.7758 44.328 40.5412L44.4105 40.4777H44.5185L55.5764 43.247L55.2525 43.6344L50.635 33.4022L50.5715 33.2688L50.6477 33.1355C52.2381 30.153 53.1308 26.8484 53.2584 23.4707C53.386 20.0931 52.7453 16.7305 51.3844 13.6365C50.0012 10.5496 47.9591 7.80293 45.4014 5.58927C42.8182 3.38923 39.7656 1.80972 36.4776 0.971766C33.1811 0.122725 29.7355 0.029369 26.3979 0.698659C23.0596 1.40685 19.9217 2.85208 17.2137 4.92872C14.5157 7.03422 12.3312 9.72499 10.8249 12.798C9.31867 15.871 8.53005 19.246 8.51855 22.6683ZM8.51855 22.6683C8.52112 19.242 9.30165 15.8611 10.8013 12.7804C12.3009 9.69975 14.4805 6.99983 17.1756 4.88426C19.8692 2.73927 23.0206 1.24315 26.3854 0.511816C29.7502 -0.219524 33.2382 -0.166459 36.5792 0.666899C39.938 1.48081 43.0663 3.05148 45.7253 5.25899C48.3872 7.48237 50.5062 10.2843 51.9206 13.4511C53.335 16.6179 54.0076 20.0659 53.8869 23.5321C53.7778 27.0054 52.8577 30.4051 51.2002 33.4594V33.1863L55.7733 43.482L56.0083 44.0091L55.4494 43.863L44.4169 40.9922L44.6074 40.9541C41.2165 43.4516 37.1952 44.9519 32.997 45.2858C31.957 45.3684 30.9121 45.3684 29.8721 45.2858C28.8314 45.2341 27.7956 45.1089 26.7726 44.911C26.2518 44.8348 25.7564 44.6633 25.2546 44.5427C24.7448 44.4259 24.2438 44.2731 23.7557 44.0854L22.2948 43.5391C21.8248 43.3232 21.3612 43.0882 20.8912 42.8595C20.6562 42.7388 20.4212 42.6372 20.1925 42.5102L19.5574 42.0974C19.1255 41.8179 18.6618 41.5702 18.2426 41.259L16.9723 40.3189C16.5617 40.0004 16.1694 39.659 15.7973 39.2964C15.0313 38.5927 14.31 37.8418 13.6378 37.048C12.9896 36.2398 12.3935 35.3912 11.8531 34.5074C9.67201 30.9436 8.51805 26.8465 8.51855 22.6683Z" fill="#263238"/>
<path d="M28.0497 9.05713H33.3214L32.9657 28.4925H28.4054L28.0497 9.05713Z" fill="#306167"/>
<path d="M32.9652 30.9252H28.4049V35.4855H32.9652V30.9252Z" fill="#306167"/>
<path d="M146.295 288.376C227.091 288.376 292.589 280.009 292.589 269.688C292.589 259.367 227.091 251 146.295 251C65.4983 251 0 259.367 0 269.688C0 280.009 65.4983 288.376 146.295 288.376Z" fill="#EBEBEB"/>
<path d="M95.5321 178.942C130.42 178.887 142.758 167.408 146.942 132.108C142.631 113.55 134.921 109.437 130.248 106.236C131.83 89.045 128.788 89.0497 128.788 89.0497C113.837 114.054 107.296 92.7428 90.9244 117.291C80.3311 97.8271 62.7105 108.856 53.5365 89.1682C53.5365 89.1682 50.3014 93.5201 52.3574 105.213C43.2428 110.727 40.6148 117.607 36.1871 132.282C38.495 164.822 57.6081 181.522 95.5321 178.942Z" fill="#6DDBE8"/>
<path d="M91.127 117.287C96.9195 108.27 103.266 103.975 113.404 102.584C103.211 100.749 95.3644 107.887 91.1065 108.58C86.8486 109.274 79.5239 99.6614 69.1864 102.654C79.1291 104.243 86.3827 110.009 91.127 117.287Z" fill="#48929A"/>
<path d="M122.483 168.119C107.095 179.602 85.4923 185.128 51.8969 168.23C42.8619 207.434 65.0054 222.067 92.5907 222.024C120.176 221.98 148.719 197.642 122.483 168.119Z" fill="#6DDBE8"/>
<path d="M73.127 225.492C71.5033 225.036 69.8687 219.997 71.2805 216.557C72.665 215.105 74.1169 215.178 76.1485 216.549C76.1641 223.196 74.7508 225.948 73.127 225.492Z" fill="#F99224"/>
<path d="M78.3382 226.085C76.7145 225.629 75.0799 220.59 76.4916 217.15C77.8762 215.698 79.3281 215.771 81.3596 217.142C81.3753 223.789 79.962 226.541 78.3382 226.085Z" fill="#F99224"/>
<path d="M83.6779 226.851C82.0959 226.435 80.3775 221.105 81.7535 217.966C83.1028 216.641 84.5174 216.707 86.4966 217.959C86.9162 223.866 85.26 227.267 83.6779 226.851Z" fill="#F99224"/>
<path d="M109.764 225.615C111.344 225.152 112.913 220.089 111.521 216.641C110.165 215.187 108.751 215.265 106.778 216.648C106.794 223.319 108.184 226.077 109.764 225.615Z" fill="#F7921E"/>
<path d="M104.491 226.081C106.071 225.619 107.64 220.556 106.248 217.107C104.892 215.654 103.478 215.731 101.505 217.115C101.521 223.786 102.911 226.544 104.491 226.081Z" fill="#F7921E"/>
<path d="M99.1338 227.02C100.702 226.591 102.382 221.151 101.001 217.955C99.6561 216.607 98.2526 216.68 96.2943 217.962C95.9059 223.987 97.5657 227.449 99.1338 227.02Z" fill="#F7921E"/>
<path d="M161.493 143.472C148.564 164.37 138.238 165.904 118.633 172.641C118.725 211.865 159.093 183.965 164.066 176.366C169.04 168.766 149.106 182.716 152.086 176.385C158.067 172.579 169.995 150.418 164.022 157.386C158.048 164.355 152.062 166.262 152.062 166.262C155.745 157.362 168.47 138.399 161.493 143.472Z" fill="#48929A"/>
<path d="M44.1037 207.498C35.7017 184.112 47.1805 163.872 53.3266 168.543C64.7187 178.461 46.8468 190.693 66.6789 210.803C61.1382 209.82 57.2795 207.323 54.0027 201.169C54.0027 201.169 53.6023 206.532 57.4436 209.451C61.2849 212.37 52.8178 211.602 49.3823 201.435C43.8837 194.738 56.5059 223.22 44.1037 207.498Z" fill="#48929A"/>
<ellipse cx="22.7174" cy="25.6683" rx="22.7174" ry="25.6683" transform="matrix(0.999999 -0.00157418 0.00235806 0.999997 46.2759 109.806)" fill="white"/>
<ellipse cx="22.7174" cy="25.6683" rx="22.7174" ry="25.6683" transform="matrix(0.999999 -0.00157418 0.00235806 0.999997 91.3048 109.735)" fill="#FEFFFF"/>
<ellipse cx="16.2267" cy="18.3345" rx="16.2267" ry="18.3345" transform="matrix(0.999999 -0.00157418 0.00235806 0.999997 97.8126 117.058)" fill="#120C0E"/>
<ellipse cx="6.08502" cy="6.87543" rx="6.08502" ry="6.87543" transform="matrix(0.999999 -0.00157418 0.00235806 0.999997 115.67 120.239)" fill="#FEFFFF"/>
<ellipse cx="16.2267" cy="18.3345" rx="16.2267" ry="18.3345" transform="matrix(0.999999 -0.00157418 0.00235806 0.999997 53.1896 117.128)" fill="#120C0E"/>
<ellipse cx="6.08502" cy="6.87543" rx="6.08502" ry="6.87543" transform="matrix(0.999999 -0.00157418 0.00235806 0.999997 71.8573 120.308)" fill="#FEFFFF"/>
<path d="M71.1241 188.214L67.0456 176.69L78.1498 178.691L71.1241 188.214Z" fill="#48929A"/>
<path d="M89.9681 189.672L84.2572 180.074L95.4097 179.892L89.9681 189.672Z" fill="#48929A"/>
<path d="M83.5074 202.057L77.7965 192.459L88.949 192.277L83.5074 202.057Z" fill="#48929A"/>
<path d="M109.538 187.453L101.658 180.07L112.306 176.33L109.538 187.453Z" fill="#48929A"/>
<path d="M103.077 199.839L95.1976 192.456L105.845 188.716L103.077 199.839Z" fill="#48929A"/>
<path d="M91.5761 138.611C91.5372 139.156 91.4693 139.705 91.376 140.256C92.1755 144.751 98.9994 156.003 100.052 155.63L100.135 155.558C100.114 155.594 100.086 155.618 100.052 155.63L92.2408 162.445L82.8988 155.588C82.8972 155.587 82.8957 155.586 82.8942 155.585L82.8988 155.588C83.6783 156.135 90.0573 148.037 91.376 140.256C91.2355 139.466 91.2809 138.885 91.5761 138.611Z" fill="#F6931E"/>
<path d="M65.0537 102.984V93.5833L90.2062 98.8303L115.091 93.5833V102.984L92.882 109.106L65.0537 102.984Z" fill="#0F0B0C"/>
<path d="M89.9385 101.891L41.2389 89.2107L89.9385 75L138.638 89.2107L89.9385 101.891Z" fill="#0F0B0C"/>
<path d="M123.654 113.26C119.908 112.385 126.062 100.798 124.189 90.3038L126.865 89.6479C126.33 100.579 131.146 111.729 128.203 113.26H123.654Z" fill="#0F0B0C"/>
<ellipse cx="125.794" cy="96.4254" rx="3.21096" ry="2.62352" fill="#0F0B0C"/>
</svg>
