<svg width="403" height="243" viewBox="0 0 403 243" fill="none" xmlns="http://www.w3.org/2000/svg">
<path fill-rule="evenodd" clip-rule="evenodd" d="M0.769531 20.8682H403V52.2833H0.769531V20.8682Z" fill="#BDBDBD"/>
<path fill-rule="evenodd" clip-rule="evenodd" d="M9.29492 52.2832H394.475V225.14H9.29492V52.2832Z" fill="#A1A1A1"/>
<path fill-rule="evenodd" clip-rule="evenodd" d="M394.475 52.2832H385.291V225.14H394.475V52.2832Z" fill="#ADADAD"/>
<path fill-rule="evenodd" clip-rule="evenodd" d="M385.291 52.9395H381.927V224.484H385.291V52.9395Z" fill="#CBCBCB"/>
<path fill-rule="evenodd" clip-rule="evenodd" d="M9.29492 52.2837H18.4789V225.14H9.29492V52.2837Z" fill="#ADADAD"/>
<path fill-rule="evenodd" clip-rule="evenodd" d="M18.4785 52.9395H21.842V224.484H18.4785V52.9395Z" fill="#CBCBCB"/>
<path fill-rule="evenodd" clip-rule="evenodd" d="M21.8418 195.522H381.927V225.493H21.8418V195.522Z" fill="#AFAFAF"/>
<path fill-rule="evenodd" clip-rule="evenodd" d="M21.8418 147.153H381.927V151.845H21.8418V147.153Z" fill="#BDBDBD"/>
<path fill-rule="evenodd" clip-rule="evenodd" d="M128.559 52.2834L200.322 18.9927L275.21 52.2834V225.14H128.559V52.2834Z" fill="#909090"/>
<path fill-rule="evenodd" clip-rule="evenodd" d="M128.559 52.2832H275.21V70.4211H128.559V52.2832Z" fill="#BDBDBD"/>
<path fill-rule="evenodd" clip-rule="evenodd" d="M177.539 148.75H226.231V212.601H177.539V148.75Z" fill="#D4D4D4"/>
<path fill-rule="evenodd" clip-rule="evenodd" d="M128.559 52.2832L200.322 0L275.21 52.2832H128.559Z" fill="#AFAFAF"/>
<path fill-rule="evenodd" clip-rule="evenodd" d="M176.031 147.241V148.749V214.109H203.394V147.241H176.031ZM179.048 150.257H200.378V211.092H179.048V150.257Z" fill="#A0A0A0"/>
<path fill-rule="evenodd" clip-rule="evenodd" d="M135.404 70.4214H147.448V211.005H135.404V70.4214Z" fill="#A1A1A1"/>
<path fill-rule="evenodd" clip-rule="evenodd" d="M132.285 70.4214H150.567V84.5093H132.285V70.4214Z" fill="#ADADAD"/>
<path fill-rule="evenodd" clip-rule="evenodd" d="M132.285 196.917H150.567V211.005H132.285V196.917Z" fill="#ADADAD"/>
<path fill-rule="evenodd" clip-rule="evenodd" d="M159.504 70.4214H171.548V211.005H159.504V70.4214Z" fill="#A1A1A1"/>
<path fill-rule="evenodd" clip-rule="evenodd" d="M156.385 70.4214H174.666V84.5093H156.385V70.4214Z" fill="#ADADAD"/>
<path fill-rule="evenodd" clip-rule="evenodd" d="M156.385 196.917H174.666V211.005H156.385V196.917Z" fill="#ADADAD"/>
<path fill-rule="evenodd" clip-rule="evenodd" d="M232.223 70.4214H244.267V211.005H232.223V70.4214Z" fill="#A1A1A1"/>
<path fill-rule="evenodd" clip-rule="evenodd" d="M229.104 70.4214H247.385V84.5093H229.104V70.4214Z" fill="#ADADAD"/>
<path fill-rule="evenodd" clip-rule="evenodd" d="M229.104 196.917H247.385V211.005H229.104V196.917Z" fill="#ADADAD"/>
<path fill-rule="evenodd" clip-rule="evenodd" d="M256.32 70.4214H268.364V211.005H256.32V70.4214Z" fill="#A1A1A1"/>
<path fill-rule="evenodd" clip-rule="evenodd" d="M253.203 70.4214H271.484V84.5093H253.203V70.4214Z" fill="#ADADAD"/>
<path fill-rule="evenodd" clip-rule="evenodd" d="M253.203 196.917H271.484V211.005H253.203V196.917Z" fill="#ADADAD"/>
<path fill-rule="evenodd" clip-rule="evenodd" d="M37.3008 87.9531H57.9405V123.084H37.3008V87.9531Z" fill="#D4D4D4"/>
<path fill-rule="evenodd" clip-rule="evenodd" d="M36.9121 87.5654V88.3195V104.765V105.519V106.273V123.472H48.3737H58.327V104.765V87.5654H48.3737H46.8655H36.9121ZM38.4203 89.0737H46.8655V104.765H38.4203V89.0737ZM48.3737 89.0737H56.8188V104.765H48.3737V89.0737ZM38.4203 106.273H46.8655V121.964H38.4203V106.273ZM48.3737 106.273H56.8188V121.964H48.3737V106.273Z" fill="#AFAFAF"/>
<path fill-rule="evenodd" clip-rule="evenodd" d="M64.2344 87.9531H84.8741V123.084H64.2344V87.9531Z" fill="#D4D4D4"/>
<path fill-rule="evenodd" clip-rule="evenodd" d="M63.8477 87.5654V88.3195V104.765V105.519V106.273V123.472H75.3092H85.2626V104.765V87.5654H75.3092H73.801H63.8477ZM65.3559 89.0737H73.801V104.765H65.3559V89.0737ZM75.3092 89.0737H83.7543V104.765H75.3092V89.0737ZM65.3559 106.273H73.801V121.964H65.3559V106.273ZM75.3092 106.273H83.7543V121.964H75.3092V106.273Z" fill="#AFAFAF"/>
<path fill-rule="evenodd" clip-rule="evenodd" d="M91.1699 87.9531H111.81V123.084H91.1699V87.9531Z" fill="#D4D4D4"/>
<path fill-rule="evenodd" clip-rule="evenodd" d="M90.7832 87.5654V88.3195V104.765V105.519V106.273V123.472H102.245H112.198V104.765V87.5654H102.245H100.737H90.7832ZM92.2914 89.0737H100.737V104.765H92.2914V89.0737ZM102.245 89.0737H110.69V104.765H102.245V89.0737ZM92.2914 106.273H100.737V121.964H92.2914V106.273ZM102.245 106.273H110.69V121.964H102.245V106.273Z" fill="#AFAFAF"/>
<path fill-rule="evenodd" clip-rule="evenodd" d="M291.961 87.9531H312.601V123.084H291.961V87.9531Z" fill="#D4D4D4"/>
<path fill-rule="evenodd" clip-rule="evenodd" d="M291.572 87.5654V88.3195V104.765V105.519V106.273V123.472H303.034H312.987V104.765V87.5654H303.034H301.526H291.572ZM293.081 89.0737H301.526V104.765H293.081V89.0737ZM303.034 89.0737H311.479V104.765H303.034V89.0737ZM293.081 106.273H301.526V121.964H293.081V106.273ZM303.034 106.273H311.479V121.964H303.034V106.273Z" fill="#AFAFAF"/>
<path fill-rule="evenodd" clip-rule="evenodd" d="M318.895 87.9531H339.534V123.084H318.895V87.9531Z" fill="#D4D4D4"/>
<path fill-rule="evenodd" clip-rule="evenodd" d="M318.508 87.5654V88.3195V104.765V105.519V106.273V123.472H329.969H339.923V104.765V87.5654H329.969H328.461H318.508ZM320.016 89.0737H328.461V104.765H320.016V89.0737ZM329.969 89.0737H338.415V104.765H329.969V89.0737ZM320.016 106.273H328.461V121.964H320.016V106.273ZM329.969 106.273H338.415V121.964H329.969V106.273Z" fill="#AFAFAF"/>
<path fill-rule="evenodd" clip-rule="evenodd" d="M345.83 87.9531H366.47V123.084H345.83V87.9531Z" fill="#D4D4D4"/>
<path fill-rule="evenodd" clip-rule="evenodd" d="M345.441 87.5654V88.3195V104.765V105.519V106.273V123.472H356.903H366.856V104.765V87.5654H356.903H355.395H345.441ZM346.95 89.0737H355.395V104.765H346.95V89.0737ZM356.903 89.0737H365.348V104.765H356.903V89.0737ZM346.95 106.273H355.395V121.964H346.95V106.273ZM356.903 106.273H365.348V121.964H356.903V106.273Z" fill="#AFAFAF"/>
<path fill-rule="evenodd" clip-rule="evenodd" d="M37.3008 156.816H57.9405V191.947H37.3008V156.816Z" fill="#D4D4D4"/>
<path fill-rule="evenodd" clip-rule="evenodd" d="M36.9121 156.428V157.182V173.627V174.382V175.136V192.335H48.3737H58.327V173.627V156.428H48.3737H46.8655H36.9121ZM38.4203 157.936H46.8655V173.627H38.4203V157.936ZM48.3737 157.936H56.8188V173.627H48.3737V157.936ZM38.4203 175.136H46.8655V190.827H38.4203V175.136ZM48.3737 175.136H56.8188V190.827H48.3737V175.136Z" fill="#AFAFAF"/>
<path fill-rule="evenodd" clip-rule="evenodd" d="M64.2344 156.816H84.8741V191.947H64.2344V156.816Z" fill="#D4D4D4"/>
<path fill-rule="evenodd" clip-rule="evenodd" d="M63.8477 156.428V157.182V173.627V174.382V175.136V192.335H75.3092H85.2626V173.627V156.428H75.3092H73.801H63.8477ZM65.3559 157.936H73.801V173.627H65.3559V157.936ZM75.3092 157.936H83.7543V173.627H75.3092V157.936ZM65.3559 175.136H73.801V190.827H65.3559V175.136ZM75.3092 175.136H83.7543V190.827H75.3092V175.136Z" fill="#AFAFAF"/>
<path fill-rule="evenodd" clip-rule="evenodd" d="M91.1699 156.816H111.81V191.947H91.1699V156.816Z" fill="#D4D4D4"/>
<path fill-rule="evenodd" clip-rule="evenodd" d="M90.7832 156.428V157.182V173.627V174.382V175.136V192.335H102.245H112.198V173.627V156.428H102.245H100.737H90.7832ZM92.2914 157.936H100.737V173.627H92.2914V157.936ZM102.245 157.936H110.69V173.627H102.245V157.936ZM92.2914 175.136H100.737V190.827H92.2914V175.136ZM102.245 175.136H110.69V190.827H102.245V175.136Z" fill="#AFAFAF"/>
<path fill-rule="evenodd" clip-rule="evenodd" d="M291.961 156.816H312.601V191.947H291.961V156.816Z" fill="#D4D4D4"/>
<path fill-rule="evenodd" clip-rule="evenodd" d="M291.572 156.428V157.182V173.627V174.382V175.136V192.335H303.034H312.987V173.627V156.428H303.034H301.526H291.572ZM293.081 157.936H301.526V173.627H293.081V157.936ZM303.034 157.936H311.479V173.627H303.034V157.936ZM293.081 175.136H301.526V190.827H293.081V175.136ZM303.034 175.136H311.479V190.827H303.034V175.136Z" fill="#AFAFAF"/>
<path fill-rule="evenodd" clip-rule="evenodd" d="M318.895 156.816H339.534V191.947H318.895V156.816Z" fill="#D4D4D4"/>
<path fill-rule="evenodd" clip-rule="evenodd" d="M318.508 156.428V157.182V173.627V174.382V175.136V192.335H329.969H339.923V173.627V156.428H329.969H328.461H318.508ZM320.016 157.936H328.461V173.627H320.016V157.936ZM329.969 157.936H338.415V173.627H329.969V157.936ZM320.016 175.136H328.461V190.827H320.016V175.136ZM329.969 175.136H338.415V190.827H329.969V175.136Z" fill="#AFAFAF"/>
<path fill-rule="evenodd" clip-rule="evenodd" d="M345.83 156.816H366.47V191.947H345.83V156.816Z" fill="#D4D4D4"/>
<path fill-rule="evenodd" clip-rule="evenodd" d="M345.441 156.428V157.182V173.627V174.382V175.136V192.335H356.903H366.856V173.627V156.428H356.903H355.395H345.441ZM346.95 157.936H355.395V173.627H346.95V157.936ZM356.903 157.936H365.348V173.627H356.903V157.936ZM346.95 175.136H355.395V190.827H346.95V175.136ZM356.903 175.136H365.348V190.827H356.903V175.136Z" fill="#AFAFAF"/>
<path fill-rule="evenodd" clip-rule="evenodd" d="M148.744 52.2833L200.752 14.3936L255.023 52.2833H148.744Z" fill="#909090"/>
<path fill-rule="evenodd" clip-rule="evenodd" d="M194.664 29.2446H209.107V43.9071H194.664V29.2446Z" fill="#D4D4D4"/>
<path fill-rule="evenodd" clip-rule="evenodd" d="M194.393 29.083V29.3976V36.2611V36.576V36.8908V44.0689H202.413H209.379V36.2611V29.083H202.413H201.358H194.393ZM195.448 29.7124H201.358V36.2611H195.448V29.7124ZM202.413 29.7124H208.323V36.2611H202.413V29.7124ZM195.448 36.8908H201.358V43.4396H195.448V36.8908ZM202.413 36.8908H208.323V43.4396H202.413V36.8908Z" fill="#AFAFAF"/>
<path fill-rule="evenodd" clip-rule="evenodd" d="M200.377 147.241V148.749V214.109H227.739V147.241H200.377ZM203.393 150.257H224.723V211.092H203.393V150.257Z" fill="#A0A0A0"/>
<path fill-rule="evenodd" clip-rule="evenodd" d="M0.769531 211.005H403V242.42H0.769531V211.005Z" fill="#BDBDBD"/>
<path fill-rule="evenodd" clip-rule="evenodd" d="M178.098 97.4009H198.737V132.532H178.098V97.4009Z" fill="#D4D4D4"/>
<path fill-rule="evenodd" clip-rule="evenodd" d="M177.711 97.0132V97.7673V114.212V114.967V115.721V132.92H189.173H199.126V114.212V97.0132H189.173H187.664H177.711ZM179.219 98.5214H187.664V114.212H179.219V98.5214ZM189.173 98.5214H197.618V114.212H189.173V98.5214ZM179.219 115.721H187.664V131.412H179.219V115.721ZM189.173 115.721H197.618V131.412H189.173V115.721Z" fill="#AFAFAF"/>
<path fill-rule="evenodd" clip-rule="evenodd" d="M205.033 97.4009H225.673V132.532H205.033V97.4009Z" fill="#D4D4D4"/>
<path fill-rule="evenodd" clip-rule="evenodd" d="M204.645 97.0132V97.7673V114.212V114.967V115.721V132.92H216.106H226.059V114.212V97.0132H216.106H214.598H204.645ZM206.153 98.5214H214.598V114.212H206.153V98.5214ZM216.106 98.5214H224.551V114.212H216.106V98.5214ZM206.153 115.721H214.598V131.412H206.153V115.721ZM216.106 115.721H224.551V131.412H216.106V115.721Z" fill="#AFAFAF"/>
<path d="M182.229 55.4429H183.733V61.3462H187.297V62.6401H182.229V55.4429ZM193.352 59.4956H189.856V61.3462H193.84V62.6401H188.386V55.4429H193.664V56.7173H189.856V58.2456H193.352V59.4956ZM194.48 55.4429H196.086L197.649 60.9067L199.226 55.4429H200.788L198.332 62.6401H196.911L194.48 55.4429ZM206.691 59.4956H203.195V61.3462H207.18V62.6401H201.726V55.4429H207.004V56.7173H203.195V58.2456H206.691V59.4956ZM208.352 55.4429H209.856V61.3462H213.42V62.6401H208.352V55.4429ZM218.225 56.9712C218.068 57.1795 217.994 57.4578 218 57.8062H216.701C216.714 57.4546 216.775 57.1209 216.882 56.8052C216.996 56.5285 217.175 56.2729 217.419 56.0386C217.601 55.8726 217.818 55.7456 218.068 55.6577C218.319 55.5698 218.627 55.5259 218.991 55.5259C219.668 55.5259 220.214 55.7017 220.627 56.0532C221.044 56.4015 221.252 56.8703 221.252 57.4595C221.252 57.8761 221.128 58.2277 220.881 58.5142C220.725 58.6932 220.562 58.8153 220.393 58.8804C220.52 58.8804 220.702 58.9894 220.94 59.2075C221.294 59.5363 221.472 59.9855 221.472 60.5552C221.472 61.1541 221.263 61.6815 220.847 62.1372C220.433 62.5897 219.82 62.8159 219.006 62.8159C218.003 62.8159 217.307 62.4888 216.916 61.8345C216.711 61.4862 216.597 61.0304 216.574 60.4673H217.941C217.941 60.7505 217.987 60.9849 218.078 61.1704C218.247 61.5122 218.555 61.6831 219.001 61.6831C219.275 61.6831 219.512 61.5903 219.714 61.4048C219.919 61.216 220.022 60.9458 220.022 60.5942C220.022 60.1287 219.833 59.8179 219.455 59.6616C219.24 59.5737 218.902 59.5298 218.44 59.5298V58.5337C218.892 58.5272 219.208 58.4832 219.387 58.4019C219.696 58.2651 219.851 57.9884 219.851 57.5718C219.851 57.3016 219.771 57.0819 219.611 56.9126C219.455 56.7433 219.234 56.6587 218.947 56.6587C218.619 56.6587 218.378 56.7629 218.225 56.9712Z" fill="white"/>
</svg>
