<svg width="328" height="246" viewBox="0 0 328 246" fill="none" xmlns="http://www.w3.org/2000/svg">
<path d="M115.172 121.509L185.456 121.509V95.7924L115.172 95.7924V121.509Z" fill="#C7C7C7"/>
<path d="M185.456 95.7974V121.514H295.012V119.005H292.65V98.3066H295.012V95.7974H185.456Z" fill="#A6A6A6"/>
<path d="M188.333 118.843L292.773 118.843V98.4639L188.333 98.4639V118.843Z" fill="white"/>
<path d="M188.329 118.843C214.363 118.759 266.747 118.656 292.773 118.621L292.576 118.843V98.4639C276.731 99.1675 230.772 98.3753 214.464 98.6066L188.351 98.5377C188.425 98.0998 188.351 118.936 188.351 118.843H188.329ZM188.329 118.843C188.329 118.774 188.268 98.459 188.268 98.395C188.268 98.3311 214.425 98.3311 214.442 98.3212L292.773 98.2179H292.991V98.4639L292.97 118.843V119.064H292.773C266.743 119.034 214.355 118.931 188.329 118.843Z" fill="#DBDBDB"/>
<path d="M255.289 114.336C263.275 114.454 271.26 114.536 279.246 114.582L292.773 114.621V114.055L279.246 114.095C271.26 114.128 263.275 114.208 255.289 114.336Z" fill="#DBDBDB"/>
<path d="M188.329 109.519V110.041L205.765 110.095L231.039 110.021C239.025 109.978 247.01 109.898 254.996 109.78C247.01 109.662 239.025 109.582 231.039 109.539L205.765 109.465L188.329 109.519Z" fill="#DBDBDB"/>
<path d="M188.329 101.878V102.508L213.257 102.434C221.248 102.392 229.234 102.311 237.214 102.193C229.228 102.075 221.243 101.995 213.257 101.952L188.329 101.878Z" fill="#DBDBDB"/>
<path d="M188.329 114.39V114.912H195.024C203.01 114.872 210.997 114.792 218.986 114.67C210.994 114.559 203.007 114.479 195.024 114.429L188.329 114.39Z" fill="#DBDBDB"/>
<path d="M254.489 105.608C262.477 105.719 270.464 105.8 278.45 105.849L292.773 105.893V105.322L278.45 105.367C270.459 105.406 262.471 105.486 254.489 105.608Z" fill="#DBDBDB"/>
<path d="M285.824 107.699C280.328 107.666 274.828 107.641 269.323 107.625H251.921H234.966C229.464 107.625 223.964 107.65 218.465 107.699C223.967 107.732 229.467 107.756 234.966 107.773H251.921H269.323C274.825 107.756 280.325 107.732 285.824 107.699Z" fill="#DBDBDB"/>
<path d="M278.94 76.6831H208.656V95.7973H278.94V76.6831Z" fill="#EBEBEB"/>
<path d="M208.652 95.7973V76.6831H99.0953V78.5478H101.457V93.9326H99.0953V95.7973H208.652Z" fill="#DBDBDB"/>
<path d="M205.778 78.6659H101.339V93.8146H205.778V78.6659Z" fill="white"/>
<path d="M205.778 78.6659C179.744 78.7545 127.36 78.8578 101.339 78.8922L101.54 78.6659V93.8146C100.158 93.1356 153.854 93.8589 153.543 93.6424C166.55 93.6424 192.763 93.7113 205.765 93.7605C205.691 94.0852 205.765 78.6019 205.765 78.6659H205.778ZM205.778 78.6659L205.827 93.8146V93.8687H205.778C192.75 93.9179 166.58 93.9819 153.556 93.9868L101.339 94.0606H101.12V93.8146V78.6659V78.4396H101.321C127.351 78.474 179.74 78.5773 205.761 78.6659H205.778Z" fill="#DBDBDB"/>
<path d="M138.823 82.0164C130.837 81.9278 122.85 81.8671 114.861 81.8343L101.335 81.8048V82.223L114.861 82.1984C122.838 82.1755 130.825 82.1148 138.823 82.0164Z" fill="#DBDBDB"/>
<path d="M205.778 85.608V85.2193L188.346 85.1799L163.073 85.2341C155.087 85.2669 147.1 85.3259 139.111 85.4112C147.097 85.4997 155.084 85.5604 163.073 85.5932L188.346 85.6473L205.778 85.608Z" fill="#DBDBDB"/>
<path d="M205.778 91.2758V90.7838L180.85 90.8379C172.862 90.8707 164.875 90.9314 156.889 91.02C164.875 91.102 172.862 91.161 180.85 91.1971L205.778 91.2758Z" fill="#DBDBDB"/>
<path d="M205.778 81.9771V81.5884H199.083C191.097 81.6179 183.111 81.6786 175.126 81.7704C183.111 81.8557 191.097 81.9147 199.083 81.9475L205.778 81.9771Z" fill="#DBDBDB"/>
<path d="M139.623 88.5059C131.634 88.4239 123.646 88.3632 115.657 88.3238L101.335 88.2943V88.7174L115.657 88.683C123.649 88.6535 131.637 88.5944 139.623 88.5059Z" fill="#DBDBDB"/>
<path d="M108.284 86.9511C113.785 86.9773 119.286 86.9954 124.784 87.0052H142.19H159.141C164.643 87.0052 170.143 86.9872 175.642 86.9511C170.143 86.9216 164.643 86.9035 159.141 86.897H142.19H124.784C119.283 86.9068 113.782 86.9249 108.284 86.9511Z" fill="#DBDBDB"/>
<path d="M142.964 38.2136H45.4389V121.514H142.964V38.2136Z" fill="#EBEBEB"/>
<path d="M180.028 38.2136H142.964V121.514H180.028V38.2136Z" fill="#DBDBDB"/>
<path d="M45.4389 79.5416H142.964L66.8026 81.7015L45.4389 79.5416Z" fill="#DBDBDB"/>
<path d="M142.964 111.374H45.4389L121.605 113.534L142.964 111.374Z" fill="#DBDBDB"/>
<path d="M45.4389 56.0781H107.217L52.3007 57.8395L45.4389 56.0781Z" fill="#DBDBDB"/>
<path d="M142.964 99.015H81.1909L136.102 100.776L142.964 99.015Z" fill="#DBDBDB"/>
<path d="M151.151 43.3944H89.3778L144.294 45.1607L151.151 43.3944Z" fill="#DBDBDB"/>
<path d="M87.7291 48.6736H157.405L145.789 49.7314L87.7291 48.6736Z" fill="#DBDBDB"/>
<path d="M54.9203 88.5403H124.596L112.981 89.5981L54.9203 88.5403Z" fill="#DBDBDB"/>
<path d="M97.7659 64.0682H142.964L151.042 66.8923L97.7659 64.0682Z" fill="#EBEBEB"/>
<path d="M108.66 92.2156H153.858L161.931 95.0397L108.66 92.2156Z" fill="#EBEBEB"/>
<path d="M98.7192 104.619H143.918L151.995 107.443L98.7192 104.619Z" fill="#EBEBEB"/>
<path d="M32.988 64.0682H78.1864L86.2596 66.8923L32.988 64.0682Z" fill="#DBDBDB"/>
<path d="M90.9828 47.7928H45.7888L37.7112 50.612L90.9828 47.7928Z" fill="#EBEBEB"/>
<path d="M93.4275 97.6029H48.2291L40.1516 100.427L93.4275 97.6029Z" fill="#EBEBEB"/>
<path d="M90.9828 101.8H45.7888L37.7112 104.619L90.9828 101.8Z" fill="#DBDBDB"/>
<path d="M142.964 92.2156H179.259L187.336 95.0397L142.964 92.2156Z" fill="#DBDBDB"/>
<path d="M155.634 79.5416H183.781L180.028 77.2341L155.634 79.5416Z" fill="#DBDBDB"/>
<path d="M24.2545 121.524C113.785 121.224 214.215 121.219 303.745 121.524C214.215 121.829 113.785 121.824 24.2545 121.524Z" fill="#263238"/>
<path d="M204.431 191.176L247.863 179.167L303.046 187.816L257.738 200.716L204.431 191.176Z" fill="#DBDBDB"/>
<path d="M204.431 191.176L247.85 179.113C247.85 179.113 303.072 187.703 303.072 187.698L303.627 187.782L303.072 187.944L257.738 200.785C257.738 200.785 204.449 191.171 204.431 191.176ZM204.431 191.176C204.431 191.176 257.821 200.657 257.725 200.652L303.02 187.698V187.939C303.02 187.939 247.793 179.216 247.876 179.221L204.431 191.176Z" fill="#DBDBDB"/>
<path d="M256.011 197.371C258.683 196.446 261.438 195.585 264.202 194.734C266.966 193.882 269.773 193.066 272.59 192.274C275.406 191.481 278.275 190.679 281.153 189.927L285.491 188.8C286.969 188.446 288.417 188.072 289.913 187.737C288.601 188.205 287.21 188.633 285.859 189.085L281.726 190.37C278.971 191.231 276.154 192.042 273.338 192.83C270.521 193.617 267.652 194.424 264.775 195.176C261.897 195.929 258.993 196.682 256.011 197.371Z" fill="#C7C7C7"/>
<path d="M263.187 192.485C266.249 191.304 269.555 190.291 272.905 189.327C276.255 188.362 279.71 187.452 283.392 186.744C280.331 187.929 277.029 188.938 273.674 189.902C270.32 190.866 266.848 191.757 263.187 192.485Z" fill="#C7C7C7"/>
<path d="M242.926 195.417C245.598 194.492 248.353 193.631 251.117 192.78C253.881 191.929 256.688 191.112 259.505 190.32C262.321 189.528 265.19 188.726 268.063 187.973L272.406 186.852C273.88 186.497 275.332 186.124 276.828 185.784C275.516 186.251 274.125 186.684 272.774 187.132L268.641 188.421C265.881 189.277 263.069 190.089 260.253 190.881C257.436 191.673 254.567 192.475 251.69 193.228C248.812 193.981 245.908 194.729 242.926 195.417Z" fill="#C7C7C7"/>
<path d="M241.255 193.051C245.799 191.447 250.57 190.02 255.398 188.623C260.226 187.226 265.151 185.927 270.268 184.78C265.724 186.384 260.952 187.811 256.129 189.208C251.305 190.606 246.389 191.905 241.255 193.051Z" fill="#C7C7C7"/>
<path d="M246.932 188.598C249.437 187.575 252.18 186.724 254.965 185.917C257.751 185.11 260.651 184.382 263.743 183.811C261.237 184.839 258.495 185.686 255.713 186.493C252.932 187.299 250.028 188.028 246.932 188.598Z" fill="#C7C7C7"/>
<path d="M24.9542 140.742L85.2188 127.91L143.371 147.024L83.4082 160.318L24.9542 140.742Z" fill="#EBEBEB"/>
<path d="M24.9542 140.742L85.2231 127.846C85.2231 127.846 143.388 146.911 143.388 146.906L143.826 147.049L143.388 147.147L83.4082 160.392C83.3863 160.392 24.9717 140.756 24.9542 140.756V140.742ZM24.9542 140.742L83.4257 160.254C83.2814 160.289 143.388 146.892 143.34 146.906V147.142L85.2056 127.954C85.3193 127.925 24.9367 140.746 24.9542 140.746V140.742Z" fill="#DBDBDB"/>
<path d="M82.5641 156.422C86.5001 155.398 90.4668 154.454 94.4509 153.504C98.435 152.554 102.45 151.649 106.469 150.754C110.488 149.858 114.529 148.983 118.596 148.151L124.697 146.901C126.748 146.508 128.782 146.095 130.85 145.721C128.891 146.237 126.914 146.705 124.929 147.197L118.955 148.638C114.975 149.593 110.956 150.493 106.941 151.388C102.926 152.284 98.8811 153.16 94.8139 153.991C90.7467 154.823 86.6838 155.664 82.5641 156.422Z" fill="#DBDBDB"/>
<path d="M98.0107 149.617C102.305 148.372 106.757 147.32 111.223 146.316C115.688 145.312 120.236 144.397 124.907 143.654C120.612 144.899 116.16 145.952 111.695 146.955C107.23 147.959 102.681 148.874 98.0107 149.617Z" fill="#DBDBDB"/>
<path d="M76.6208 150.975C80.0539 150.06 83.535 149.219 87.025 148.382C90.5149 147.546 94.0223 146.754 97.5559 145.962C101.09 145.17 104.628 144.412 108.201 143.689L113.558 142.606C115.364 142.267 117.148 141.908 118.968 141.588C117.258 142.05 115.517 142.473 113.79 142.916L108.564 144.181C105.065 145.022 101.566 145.809 98.0326 146.601C94.499 147.393 90.9653 148.146 87.3923 148.874C83.8193 149.602 80.2507 150.326 76.6208 150.975Z" fill="#DBDBDB"/>
<path d="M73.8175 148.215C76.9881 147.359 80.2069 146.572 83.4388 145.794C86.6707 145.017 89.9245 144.279 93.187 143.551C96.4495 142.823 99.747 142.114 103.044 141.45L108.008 140.466C109.683 140.156 111.341 139.826 113.029 139.536C111.45 139.974 109.836 140.363 108.244 140.781L103.407 141.957C100.184 142.739 96.9218 143.472 93.6593 144.2C90.3968 144.928 87.0993 145.632 83.8018 146.301C80.5043 146.97 77.1849 147.6 73.8175 148.215Z" fill="#DBDBDB"/>
<path d="M58.8038 148.161C62.7398 147.138 66.7064 146.193 70.6905 145.238C74.6747 144.284 78.6894 143.388 82.7085 142.488C86.7276 141.588 90.7685 140.722 94.8313 139.885L100.954 138.636C103.005 138.247 105.039 137.829 107.107 137.455C105.148 137.976 103.171 138.439 101.186 138.931L95.2162 140.358C91.2365 141.307 87.2174 142.208 83.2027 143.108C79.1879 144.008 75.1426 144.874 71.0754 145.711C67.0082 146.547 62.9235 147.398 58.8038 148.161Z" fill="#DBDBDB"/>
<path d="M58.3053 144.889C61.7777 143.964 65.3026 143.113 68.8319 142.267C72.3612 141.42 75.9254 140.618 79.4897 139.807C83.054 138.995 86.6401 138.237 90.2525 137.504L95.6754 136.407C97.4991 136.063 99.3096 135.698 101.146 135.379C99.3971 135.846 97.6478 136.269 95.8984 136.722L90.6111 137.996C87.0862 138.847 83.5219 139.644 79.9576 140.456C76.3934 141.268 72.8029 142.026 69.1905 142.759C65.5781 143.492 61.9745 144.23 58.3053 144.889Z" fill="#DBDBDB"/>
<path d="M46.9215 144.028C50.8575 143.005 54.8241 142.06 58.8126 141.11C62.801 140.161 66.8114 139.236 70.848 138.36C74.8846 137.484 78.908 136.589 82.9752 135.758L89.076 134.508C91.1271 134.114 93.1651 133.701 95.2293 133.327C93.2701 133.844 91.2933 134.311 89.3122 134.803L83.3426 136.235C79.3629 137.184 75.3438 138.085 71.3247 138.98C67.3056 139.876 63.2646 140.751 59.1974 141.583C55.1302 142.414 51.0455 143.27 46.9215 144.028Z" fill="#DBDBDB"/>
<path d="M60.7281 137.588C65.2982 136.279 70.0127 135.167 74.7621 134.104C79.5116 133.042 84.3222 132.063 89.2685 131.261C84.6983 132.569 79.9882 133.676 75.2344 134.744C70.4806 135.812 65.6743 136.776 60.7281 137.588Z" fill="#DBDBDB"/>
<path d="M113.261 206.246L189.846 189.942L263.738 214.232L187.542 231.122L113.261 206.246Z" fill="#EBEBEB"/>
<path d="M113.269 206.246L189.846 189.878C189.846 189.878 263.756 214.118 263.756 214.113L264.193 214.256L263.756 214.355L187.542 231.186C187.52 231.191 113.269 206.246 113.269 206.246ZM113.269 206.246L187.568 231.063C187.432 231.063 263.76 214.104 263.725 214.113V214.35L189.829 190.001C189.943 189.961 113.243 206.271 113.261 206.237L113.269 206.246Z" fill="#DBDBDB"/>
<path d="M186.466 226.172C191.456 224.873 196.524 223.658 201.576 222.463C206.627 221.267 211.739 220.111 216.843 218.969C221.947 217.828 227.085 216.721 232.255 215.658L240.009 214.074C242.633 213.582 245.2 213.046 247.828 212.573C245.34 213.233 242.812 213.838 240.306 214.473L232.718 216.283C227.663 217.493 222.555 218.635 217.451 219.776C212.347 220.918 207.209 222.025 202.039 223.083C196.87 224.14 191.705 225.208 186.466 226.172Z" fill="#DBDBDB"/>
<path d="M206.098 217.523C211.556 215.944 217.197 214.606 222.883 213.331C228.568 212.057 234.341 210.871 240.28 209.946C234.822 211.531 229.176 212.869 223.49 214.143C217.805 215.417 212.032 216.578 206.098 217.523Z" fill="#DBDBDB"/>
<path d="M178.917 219.25C183.291 218.089 187.703 217.016 192.138 215.958C196.573 214.901 201.046 213.887 205.52 212.883C209.994 211.88 214.503 210.915 219.043 209.99L225.856 208.613C228.148 208.185 230.418 207.727 232.731 207.324C230.545 207.914 228.358 208.451 226.171 209.011L219.533 210.615C215.102 211.683 210.624 212.687 206.15 213.69C201.676 214.694 197.163 215.658 192.623 216.578C188.084 217.498 183.527 218.448 178.917 219.25Z" fill="#DBDBDB"/>
<path d="M175.371 215.742C179.399 214.655 183.492 213.656 187.616 212.672C191.74 211.688 195.855 210.743 200.001 209.813C204.147 208.883 208.311 207.993 212.527 207.147L218.842 205.877C220.967 205.489 223.071 205.066 225.218 204.697C223.211 205.252 221.164 205.749 219.135 206.276L212.99 207.752C208.897 208.736 204.751 209.676 200.605 210.605C196.459 211.535 192.295 212.426 188.08 213.272C183.864 214.118 179.63 215.004 175.371 215.742Z" fill="#DBDBDB"/>
<path d="M156.272 215.673C161.262 214.374 166.331 213.159 171.382 211.963C176.433 210.768 181.546 209.612 186.649 208.47C191.753 207.329 196.892 206.222 202.048 205.164L209.802 203.58C212.426 203.088 214.993 202.551 217.621 202.104C215.133 202.763 212.605 203.368 210.099 204.003L202.512 205.813C197.456 207.024 192.348 208.165 187.244 209.307C182.141 210.448 177.002 211.555 171.833 212.613C166.663 213.671 161.512 214.709 156.272 215.673Z" fill="#DBDBDB"/>
<path d="M155.643 211.516C160.055 210.345 164.534 209.257 169.021 208.19C173.508 207.122 178.03 206.094 182.578 205.075C187.126 204.057 191.666 203.083 196.258 202.153L203.128 200.736C205.45 200.303 207.746 199.841 210.086 199.427C207.9 200.023 205.647 200.564 203.426 201.134L196.708 202.758C192.225 203.836 187.695 204.854 183.151 205.868C178.607 206.881 174.063 207.836 169.471 208.79C164.879 209.744 160.305 210.679 155.643 211.516Z" fill="#DBDBDB"/>
<path d="M141.176 210.423C146.166 209.125 151.234 207.909 156.285 206.714C161.337 205.518 166.449 204.362 171.553 203.221C176.656 202.079 181.795 200.972 186.964 199.909L194.718 198.325C197.342 197.833 199.909 197.297 202.533 196.825C200.049 197.484 197.522 198.089 195.016 198.724L187.428 200.534C182.372 201.745 177.264 202.886 172.161 204.027C167.057 205.169 161.918 206.276 156.749 207.334C151.58 208.392 146.415 209.459 141.176 210.423Z" fill="#DBDBDB"/>
<path d="M158.721 202.237C164.529 200.579 170.529 199.166 176.551 197.809C182.574 196.451 188.705 195.211 194.989 194.192C189.182 195.855 183.181 197.267 177.155 198.62C171.129 199.973 165.006 201.228 158.721 202.237Z" fill="#DBDBDB"/>
<path d="M300.404 164.923L158.612 208.997V177.228L300.404 133.155C307.918 148.741 300.404 164.923 300.404 164.923Z" fill="#37474F"/>
<path d="M20.2485 186.96L158.612 208.997V200.943L32.9006 183.644L20.2485 184.5V186.96Z" fill="#455A64"/>
<path d="M158.616 177.376C163.786 191.373 158.616 208.997 158.616 208.997L26.9222 185.597V158.139L158.616 177.376Z" fill="#455A64"/>
<path d="M155.358 176.904C160.392 190.847 155.774 205.863 155.774 205.863L26.9222 185.484V158.129L155.358 176.904Z" fill="white"/>
<path d="M155.358 176.904C155.529 177.445 156.023 178.97 156.194 179.506C157.217 183.337 157.735 187.315 157.733 191.314C157.752 196.248 157.114 201.157 155.839 205.877C155.901 206.094 26.9354 185.651 26.8916 185.705L26.7036 185.676V185.484V158.129V157.878L26.9222 157.912L91.1665 167.374L155.332 176.894L155.358 176.904ZM155.358 176.904C123.765 172.126 57.6537 163.31 27.1147 158.139L27.1365 185.494L26.9485 185.248C26.9485 185.302 156.067 205.71 155.699 205.838C156.352 203.495 156.841 201.098 157.16 198.67C158.135 191.403 157.759 183.777 155.354 176.904H155.358Z" fill="#DBDBDB"/>
<path d="M89.2685 169.986C110.768 172.938 134.847 176.579 156.272 180.156C134.773 177.204 110.693 173.558 89.2685 169.986Z" fill="#DBDBDB"/>
<path d="M26.9222 168.146C45.3515 170.606 65.7968 173.725 84.1604 176.83C65.7181 174.37 45.2815 171.26 26.9222 168.146Z" fill="#DBDBDB"/>
<path d="M29.9923 170.847C61.3098 175.275 96.397 180.598 127.631 185.661C96.3183 181.233 61.231 175.91 29.9923 170.847Z" fill="#DBDBDB"/>
<path d="M46.9215 180.141C79.4066 184.662 115.806 190.094 148.212 195.25C115.732 190.734 79.3323 185.297 46.9215 180.141Z" fill="#DBDBDB"/>
<path d="M68.7575 185.927C97.088 189.912 128.86 194.724 157.125 199.339C128.782 195.363 97.0268 190.542 68.7575 185.927Z" fill="#DBDBDB"/>
<path d="M43.296 185.873C79.5947 191.078 120.267 197.248 156.473 203.048C120.175 197.848 79.5028 191.673 43.296 185.873Z" fill="#DBDBDB"/>
<path d="M158.616 177.376L300.404 133.155L157.125 125.854L20.2485 154.409V157.165L158.616 177.376Z" fill="#455A64"/>
<path d="M162.251 172.515C179.84 166.517 197.906 161.101 215.955 156.422C198.37 162.424 180.304 167.831 162.251 172.515Z" fill="#37474F"/>
<path d="M128.235 169.701C133.133 169.986 138.193 170.626 143.056 171.29C147.919 171.954 152.94 172.766 157.707 173.873C152.809 173.592 147.749 172.948 142.89 172.284C138.031 171.619 133.006 170.783 128.235 169.701Z" fill="#37474F"/>
<path d="M24.0533 154.946C57.3563 158.97 90.926 163.718 124.006 169.095C90.6767 165.081 57.1114 160.323 24.0533 154.946Z" fill="#37474F"/>
<path d="M254.965 151.074C268.803 146.183 282.807 141.727 296.98 137.706C283.149 142.596 269.144 147.052 254.965 151.074Z" fill="#455A64"/>
<path d="M181.445 126.842C179.608 127.246 172.025 127.703 171.872 125.858C171.636 123.084 189.772 103.404 196.28 99.7038C202.468 96.1811 222.406 88.496 227.33 88.3287L227.374 106.001C224.588 106.798 202.393 104.363 197.732 107.148C195.707 108.358 193.026 113.376 187.568 121.347C185.648 124.156 182.53 126.601 181.445 126.842Z" fill="#438890"/>
<g opacity="0.3">
<path d="M181.445 126.842C179.608 127.246 172.025 127.703 171.872 125.858C171.636 123.084 189.772 103.404 196.28 99.7038C202.468 96.1811 222.406 88.496 227.33 88.3287L227.374 106.001C224.588 106.798 202.393 104.363 197.732 107.148C195.707 108.358 193.026 113.376 187.568 121.347C185.648 124.156 182.53 126.601 181.445 126.842Z" fill="black"/>
</g>
<path d="M177.68 126.842C175.839 127.246 168.789 127.703 168.631 125.858C168.4 123.084 186.536 103.404 193.039 99.7038C199.227 96.1811 222.406 88.496 227.33 88.3287L227.374 106.001C224.588 106.798 199.157 104.363 194.495 107.148C192.47 108.358 189.247 113.376 183.798 121.347C181.883 124.156 178.764 126.601 177.68 126.842Z" fill="#438890"/>
<g opacity="0.2">
<path d="M177.68 126.842C175.839 127.246 168.789 127.703 168.631 125.858C168.4 123.084 186.536 103.404 193.039 99.7038C199.227 96.1811 222.406 88.496 227.33 88.3287L227.374 106.001C224.588 106.798 199.157 104.363 194.495 107.148C192.47 108.358 189.247 113.376 183.798 121.347C181.883 124.156 178.764 126.601 177.68 126.842Z" fill="black"/>
</g>
<path d="M249.188 150.291C250.771 151.039 256.999 151.418 258.066 149.907C259.675 147.62 240.039 116.491 228.502 110.843C217.713 105.603 65.4994 72.3436 62.3594 71.7926L62.2457 85.608C83.452 89.3373 218.011 113.455 226.333 117.534C231.76 120.186 238.675 134.178 243.643 143.846C245.65 147.772 247.351 149.425 249.188 150.291Z" fill="#438890"/>
<g opacity="0.2">
<path d="M249.188 150.291C250.771 151.039 256.999 151.418 258.066 149.907C259.675 147.62 240.039 116.491 228.502 110.843C217.713 105.603 65.4994 72.3436 62.3594 71.7926L62.2457 85.608C83.452 89.3373 218.011 113.455 226.333 117.534C231.76 120.186 238.675 134.178 243.643 143.846C245.65 147.772 247.351 149.425 249.188 150.291Z" fill="black"/>
</g>
<path d="M246.56 150.291C248.143 151.039 254.371 151.418 255.438 149.907C257.047 147.62 237.555 115.738 226.023 110.09C215.229 104.85 65.4994 72.324 62.3594 71.7926L59.6173 85.608C80.8236 89.3373 215.382 113.455 223.705 117.534C229.132 120.186 236.046 134.178 241.014 143.846C243.022 147.772 244.723 149.425 246.56 150.291Z" fill="#438890"/>
<g opacity="0.1">
<path d="M246.56 150.291C248.143 151.039 254.371 151.418 255.438 149.907C257.047 147.62 237.555 115.738 226.023 110.09C215.229 104.85 65.4994 72.324 62.3594 71.7926L59.6173 85.608C80.8236 89.3373 215.382 113.455 223.705 117.534C229.132 120.186 236.046 134.178 241.014 143.846C243.022 147.772 244.723 149.425 246.56 150.291Z" fill="black"/>
</g>
<g opacity="0.1">
<path d="M91.84 78.1689L80.3207 89.3127C70.7387 87.5907 63.3871 86.2869 59.626 85.6227L62.3637 71.7926C63.2165 71.9402 74.9677 74.474 91.84 78.1689Z" fill="black"/>
<path d="M121.299 96.7714L114.144 95.448L107.497 81.6129L118.032 83.9548L121.299 96.7714Z" fill="black"/>
<path d="M161.595 93.8047L153.504 102.774L146.319 101.416L152.065 91.6202C155.258 92.3451 158.434 93.0733 161.595 93.8047Z" fill="black"/>
<path d="M225.034 109.682L222.248 117.007C220.91 116.584 218.894 116.053 216.301 115.438L214.293 106.508C219.34 107.846 223.066 108.934 225.034 109.682Z" fill="black"/>
</g>
<path d="M91.289 157.529C75.4313 156.668 63.3652 136.461 64.3886 112.491C64.874 101.052 68.2371 90.4148 73.8525 82.5379C79.6559 74.4002 87.1474 70.1296 95.0194 70.5774C102.891 71.0251 109.985 76.0435 115.062 84.7765C119.982 93.2094 122.423 104.166 121.929 115.615C120.958 138.296 108.599 156.353 93.8299 157.499C92.9841 157.563 92.1358 157.573 91.289 157.529ZM77.8891 86.1885C72.9516 93.1011 69.9733 102.548 69.536 112.776C68.6613 133.539 78.5145 151.01 91.5295 151.713C104.545 152.417 115.858 136.097 116.755 115.305C117.192 105.076 115.045 95.3594 110.728 87.9351C106.569 80.806 100.897 76.6978 94.757 76.3682C94.1031 76.3239 93.4473 76.3239 92.7934 76.3682C87.353 76.8356 82.1225 80.2452 77.8891 86.1787V86.1885ZM64.4105 115.536C63.6101 98.0014 65.3551 95.2561 64.6466 90.0852C64.3099 87.6252 61.231 85.2636 61.231 85.2636L63.9207 72.6733C63.9207 72.6733 72.3043 73.5933 74.2373 73.6278C77.6748 73.6819 85.0963 70.8578 91.5601 70.6758C91.5601 70.6758 77.5086 77.7802 72.9909 86.838C68.4733 95.8957 64.4105 115.526 64.4105 115.526V115.536Z" fill="#438890"/>
<path opacity="0.1" d="M91.289 157.529C75.4313 156.668 63.3652 136.461 64.3886 112.491C64.874 101.052 68.2371 90.4148 73.8525 82.5379C79.6559 74.4002 87.1474 70.1296 95.0194 70.5774C102.891 71.0251 109.985 76.0435 115.062 84.7765C119.982 93.2094 122.423 104.166 121.929 115.615C120.958 138.296 108.599 156.353 93.8299 157.499C92.9841 157.563 92.1358 157.573 91.289 157.529ZM77.8891 86.1885C72.9516 93.1011 69.9733 102.548 69.536 112.776C68.6613 133.539 78.5145 151.01 91.5295 151.713C104.545 152.417 115.858 136.097 116.755 115.305C117.192 105.076 115.045 95.3594 110.728 87.9351C106.569 80.806 100.897 76.6978 94.757 76.3682C94.1031 76.3239 93.4473 76.3239 92.7934 76.3682C87.353 76.8356 82.1225 80.2452 77.8891 86.1787V86.1885ZM64.4105 115.536C63.6101 98.0014 65.3551 95.2561 64.6466 90.0852C64.3099 87.6252 61.231 85.2636 61.231 85.2636L63.9207 72.6733C63.9207 72.6733 72.3043 73.5933 74.2373 73.6278C77.6748 73.6819 85.0963 70.8578 91.5601 70.6758C91.5601 70.6758 77.5086 77.7802 72.9909 86.838C68.4733 95.8957 64.4105 115.526 64.4105 115.526V115.536Z" fill="black"/>
<path d="M89.1329 157.529C73.2708 156.668 61.2048 136.461 62.2282 112.491C62.7136 101.052 66.0767 90.4148 71.6921 82.5379C77.4955 74.4002 84.987 70.1296 92.859 70.5774C100.731 71.0251 107.825 76.0435 112.902 84.7765C117.822 93.2094 120.262 104.166 119.768 115.615C118.797 138.296 106.438 156.353 91.6694 157.499C90.8251 157.563 89.9782 157.573 89.1329 157.529ZM75.7286 86.1885C70.7911 93.111 67.8304 102.557 67.3931 112.786C66.5184 133.548 76.3671 151.019 89.3822 151.723C102.397 152.426 113.711 136.107 114.608 115.315C115.045 105.086 112.898 95.3692 108.581 87.945C104.426 80.8159 98.7499 76.7077 92.6097 76.378C91.9558 76.3337 91.3 76.3337 90.6461 76.378C85.1969 76.8356 79.962 80.2452 75.7286 86.1787V86.1885ZM62.25 115.536C61.4497 98.0014 63.1947 95.2561 62.4862 90.0852C62.1494 87.6252 59.0706 85.2636 59.0706 85.2636L61.8827 71.2317C61.8827 71.2317 70.4063 72.9291 72.3349 72.9586C75.7724 73.0177 82.9359 70.8578 89.3909 70.6954C89.3909 70.6954 75.3394 77.7999 70.8218 86.8576C66.3041 95.9154 62.25 115.526 62.25 115.526V115.536Z" fill="#438890"/>
<path d="M70.2882 77.6523C70.1876 78.5232 68.7488 79.025 67.0738 78.7741C65.3988 78.5232 64.1306 77.613 64.2355 76.7471C64.3405 75.8811 65.7749 75.3744 67.4499 75.6253C69.1249 75.8762 70.4107 76.7815 70.2882 77.6523Z" fill="#A6A6A6"/>
<path d="M64.9702 76.7766C65.1058 76.3584 66.5621 75.8861 68.154 76.3683L64.9702 76.7766Z" fill="white"/>
<path d="M61.2267 85.3767C64.253 87.2857 65.5475 90.0999 65.2064 93.9966C64.8697 100.757 64.1918 107.453 64.183 114.213C64.1418 117.587 64.3348 120.959 64.7603 124.299C62.8229 116.063 63.4002 107.379 64.0825 98.9903L64.5198 93.9523C64.9921 90.1836 63.9338 87.6055 61.2179 85.3767H61.2267Z" fill="white"/>
<path d="M77.0319 73.7705C81.2303 72.4224 85.5905 71.3105 89.9813 71.5319C85.608 71.9698 81.3615 73.0719 77.0319 73.7705Z" fill="white"/>
<path opacity="0.1" d="M77.0275 86.5378C72.2562 93.4258 69.396 102.813 68.9675 112.988C68.1147 133.652 77.6485 151.01 90.2262 151.713C102.804 152.417 113.742 136.181 114.608 115.526C115.045 105.357 112.959 95.689 108.787 88.309C104.768 81.2144 99.2834 77.1308 93.3444 76.8012C92.7124 76.7569 92.0785 76.7569 91.4464 76.8012C86.1765 77.244 81.121 80.6289 77.0275 86.5378Z" fill="#EBEBEB"/>
<g opacity="0.2">
<path d="M101.164 79.576L68.9325 116.884C68.9019 115.595 68.9325 114.301 68.9718 112.983C69.1244 109.134 69.6493 105.314 70.5375 101.593L91.9668 76.8011C92.4042 76.8011 92.8896 76.8011 93.3532 76.8011C96.1218 76.9785 98.8069 77.9324 101.164 79.576Z" fill="white"/>
<path d="M112.395 96.9239L74.8584 140.372C74.168 139.168 73.543 137.918 72.9866 136.628L110.908 92.7321C111.474 94.0966 111.97 95.4961 112.395 96.9239Z" fill="white"/>
<path d="M113.855 122.882C113.397 125.685 112.727 128.438 111.852 131.113L94.3809 151.334C93.0168 151.665 91.6199 151.793 90.2262 151.713C89.8326 151.688 89.439 151.654 89.0498 151.595L113.855 122.882Z" fill="white"/>
<path d="M113.925 103.61L78.1296 145.042C77.9591 144.855 77.7972 144.658 77.6398 144.456L113.759 102.636C113.825 102.961 113.873 103.29 113.925 103.61Z" fill="white"/>
</g>
<path d="M140.699 116.688L144.198 112.412C138.573 106.557 125.335 98.3803 115.417 109.229L119.02 113.401C127.907 103.664 140.178 116.156 140.699 116.688Z" fill="#438890"/>
<path d="M174.172 162.852C164.076 160.767 155.128 154.258 149.294 144.757C143.46 135.255 141.216 123.537 143.056 112.176C144.434 103.704 148.014 95.8825 153.343 89.6997C158.673 83.5168 165.512 79.2506 172.997 77.4405C180.481 75.6304 188.274 76.3576 195.392 79.5302C202.509 82.7028 208.63 88.1784 212.981 95.2645C217.332 102.351 219.717 110.729 219.836 119.34C219.954 127.952 217.801 136.409 213.647 143.644C209.493 150.878 203.525 156.564 196.499 159.983C189.473 163.402 181.703 164.4 174.172 162.852ZM148.147 113.239C146.901 120.96 147.83 128.926 150.804 136.025C153.777 143.123 158.648 149 164.734 152.833C170.821 156.667 177.82 158.266 184.753 157.407C191.687 156.549 198.209 153.276 203.409 148.045C208.609 142.814 212.227 135.887 213.757 128.23C215.287 120.574 214.654 112.571 211.946 105.34C209.237 98.1081 204.589 92.0087 198.649 87.8934C192.71 83.7781 185.776 81.8524 178.817 82.3853C171.386 82.9697 164.339 86.3186 158.786 91.9046C153.233 97.4905 149.49 104.996 148.147 113.239Z" fill="#438890"/>
<path d="M215.605 101.411C212.942 91.4628 197.43 80.5256 197.43 80.5256C203.71 82.2624 210.637 85.795 214.005 86.5822C215.894 87.02 227.352 88.3386 227.352 88.3386L227.396 106.011C227.396 106.011 224.247 106.208 223.46 108.525C221.772 113.401 222.625 114.582 218.461 131.497C218.422 131.497 218.229 111.354 215.605 101.411Z" fill="#438890"/>
<g opacity="0.1">
<path d="M174.172 162.852C164.076 160.767 155.128 154.258 149.294 144.757C143.46 135.255 141.216 123.537 143.056 112.176C144.434 103.704 148.014 95.8825 153.343 89.6997C158.673 83.5168 165.512 79.2506 172.997 77.4405C180.481 75.6304 188.274 76.3576 195.392 79.5302C202.509 82.7028 208.63 88.1784 212.981 95.2645C217.332 102.351 219.717 110.729 219.836 119.34C219.954 127.952 217.801 136.409 213.647 143.644C209.493 150.878 203.525 156.564 196.499 159.983C189.473 163.402 181.703 164.4 174.172 162.852ZM148.147 113.239C146.901 120.96 147.83 128.926 150.804 136.025C153.777 143.123 158.648 149 164.734 152.833C170.821 156.667 177.82 158.266 184.753 157.407C191.687 156.549 198.209 153.276 203.409 148.045C208.609 142.814 212.227 135.887 213.757 128.23C215.287 120.574 214.654 112.571 211.946 105.34C209.237 98.1081 204.589 92.0087 198.649 87.8934C192.71 83.7781 185.776 81.8524 178.817 82.3853C171.386 82.9697 164.339 86.3186 158.786 91.9046C153.233 97.4905 149.49 104.996 148.147 113.239Z" fill="black"/>
<path d="M215.605 101.411C212.942 91.4628 197.43 80.5256 197.43 80.5256C203.71 82.2624 210.637 85.795 214.005 86.5822C215.894 87.02 227.352 88.3386 227.352 88.3386L227.396 106.011C227.396 106.011 224.247 106.208 223.46 108.525C221.772 113.401 222.625 114.582 218.461 131.497C218.422 131.497 218.229 111.354 215.605 101.411Z" fill="black"/>
</g>
<path d="M170.731 162.217C160.642 160.132 151.701 153.63 145.868 144.138C140.035 134.647 137.786 122.94 139.614 111.586C140.983 103.104 144.558 95.2708 149.886 89.076C155.214 82.8812 162.056 78.6037 169.545 76.7848C177.035 74.9659 184.836 75.6874 191.961 78.8579C199.086 82.0284 205.215 87.5055 209.572 94.596C213.929 101.686 216.318 110.072 216.438 118.691C216.558 127.309 214.402 135.774 210.243 143.014C206.085 150.255 200.111 155.944 193.078 159.363C186.044 162.782 178.267 163.777 170.731 162.222V162.217ZM144.705 112.629C143.454 120.356 144.379 128.33 147.353 135.437C150.326 142.543 155.199 148.427 161.29 152.266C167.381 156.106 174.386 157.708 181.326 156.85C188.266 155.992 194.795 152.717 199.999 147.481C205.204 142.246 208.824 135.312 210.355 127.648C211.886 119.985 211.251 111.975 208.538 104.738C205.825 97.5002 201.17 91.3972 195.223 87.2812C189.277 83.1652 182.336 81.242 175.371 81.7802C167.941 82.3654 160.896 85.7141 155.344 91.299C149.792 96.8839 146.049 104.388 144.705 112.629Z" fill="#438890"/>
<path d="M212.142 100.801C209.478 90.8527 193.966 79.9155 193.966 79.9155C200.246 81.6523 207.174 85.1849 210.541 85.9721C212.43 86.4099 223.888 87.7285 223.888 87.7285L223.932 103.91C223.932 103.91 220.783 104.983 219.996 107.295C218.304 112.171 219.156 113.972 214.993 130.911C214.98 130.872 214.805 110.744 212.142 100.801Z" fill="#438890"/>
<path d="M218.982 94.9954C218.877 95.8662 217.438 96.368 215.767 96.1171C214.097 95.8662 212.82 94.9609 212.924 94.0901C213.029 93.2192 214.468 92.7174 216.139 92.9683C217.809 93.2192 219.104 94.1294 218.982 94.9954Z" fill="#A6A6A6"/>
<path d="M213.659 94.1245C213.795 93.7063 215.251 93.2291 216.843 93.7161L213.659 94.1245Z" fill="white"/>
<path d="M159.99 83.084C163.306 80.2428 167.367 78.7215 171.535 78.7594C167.599 80.0582 163.812 81.4654 159.99 83.084Z" fill="white"/>
<path d="M143.612 104.796C145.571 95.994 152.113 87.5021 159.316 83.5415C152.572 88.9535 146.918 96.2154 143.612 104.796Z" fill="white"/>
<path opacity="0.1" d="M146.301 112.629C143.065 133.081 154.864 152.761 172.611 156.495C190.358 160.23 207.423 146.621 210.659 126.173C213.895 105.726 202.092 86.036 184.345 82.3067C181.676 81.7415 178.954 81.5646 176.245 81.7802C161.669 82.9364 149.039 95.3348 146.301 112.629Z" fill="#EBEBEB"/>
<g opacity="0.2">
<path d="M211.162 121.14L179.985 157.056C177.515 157.184 175.041 156.989 172.611 156.476C171.559 156.256 170.519 155.975 169.493 155.634L209.92 109.047C210.908 112.977 211.327 117.06 211.162 121.14Z" fill="white"/>
<path d="M182.674 82.0066L146.039 124.24C145.605 120.377 145.694 116.462 146.301 112.629C146.45 111.674 146.638 110.725 146.848 109.795L170.123 82.9463C172.125 82.3337 174.176 81.9431 176.245 81.7802C178.389 81.6066 180.544 81.6825 182.674 82.0066Z" fill="white"/>
<path d="M205.848 98.7887L160.589 150.941C159.555 150.167 158.563 149.324 157.619 148.417L203.666 95.3644C204.452 96.4572 205.181 97.6006 205.848 98.7887Z" fill="white"/>
<path d="M191.688 84.8946L148.558 134.587C148.016 133.173 147.551 131.724 147.167 130.247L187.922 83.271C189.206 83.7237 190.464 84.266 191.688 84.8946Z" fill="white"/>
<path d="M210.742 125.652C210.72 125.824 210.69 126.001 210.663 126.173C210.62 126.478 210.567 126.783 210.51 127.079L185.145 156.323C184.738 156.422 184.323 156.51 183.903 156.589L210.742 125.652Z" fill="white"/>
<path d="M201.09 92.1664L154.855 145.46C154.689 145.263 154.527 145.061 154.37 144.86L200.574 91.6006L201.09 92.1664Z" fill="white"/>
</g>
</svg>
