<svg width="390" height="85" viewBox="0 0 390 85" fill="none" xmlns="http://www.w3.org/2000/svg">
<rect x="392" y="16" width="69" height="392" transform="rotate(90 392 16)" fill="#D9D9D9"/>
<path d="M390.001 0H-1.00195V23.3012H390.001V0Z" fill="#6DDBE8"/>
<path d="M390.001 0H-1.00195V8.19229H390.001V0Z" fill="#306167"/>
<path d="M5.06088 0H-1.00195V24.0001H5.06088V0Z" fill="#306167"/>
<path d="M43.555 0H37.4922V24.0001H43.555V0Z" fill="#306167"/>
<path d="M82.0491 0H75.9863V24.0001H82.0491V0Z" fill="#306167"/>
<path d="M120.543 0H114.48V24.0001H120.543V0Z" fill="#306167"/>
<path d="M159.037 0H152.975V24.0001H159.037V0Z" fill="#306167"/>
<path d="M197.532 0H191.469V24.0001H197.532V0Z" fill="#306167"/>
<path d="M236.026 0H229.963V24.0001H236.026V0Z" fill="#306167"/>
<path d="M274.518 0H268.455V24.0001H274.518V0Z" fill="#306167"/>
<path d="M313.012 0H306.949V24.0001H313.012V0Z" fill="#306167"/>
<path d="M351.506 0H345.443V24.0001H351.506V0Z" fill="#306167"/>
<path d="M390 0H383.938V24.0001H390V0Z" fill="#306167"/>
</svg>
