<svg width="331" height="192" viewBox="0 0 331 192" fill="none" xmlns="http://www.w3.org/2000/svg">
<path d="M311.365 7.12443C305.741 7.96682 298.875 10.3119 295.824 10.881C279.765 13.8651 263.676 16.5015 247.557 18.7904C221.347 22.497 195.019 25.4294 168.723 25.9895C129.586 26.8546 91.1907 17.8615 52.5362 13.135C43.3428 12.0149 15.7123 5.1801 11.0996 20.3614C5.09815 40.0552 5.34404 63.7059 4.67468 84.2876C3.96434 106.24 3.27676 128.169 3.07186 150.094C2.999 157.603 3.56819 165.317 6.34581 171.883C9.82466 180.102 16.286 183.631 23.5033 184.783C36.5627 186.859 49.8451 186.203 63.032 185.693C80.8634 184.992 98.6903 183.335 116.494 181.573C147.317 178.522 178.658 173.376 209.513 174.492C231.174 175.284 252.479 179.569 273.717 183.863C282.323 185.602 290.769 188.293 299.489 189.3C306.556 190.11 317.348 190.898 323.167 184.264C328.044 178.686 328.24 165.676 328.85 158.391C330.184 142.709 330.353 126.908 330.262 111.212C330.089 81.8014 329.743 51.2066 325.33 22.3786C323.841 12.5886 320.199 5.80392 311.365 7.12443Z" fill="#347683"/>
<path opacity="0.7" d="M311.365 7.12443C305.741 7.96682 298.875 10.3119 295.824 10.881C279.765 13.8651 263.676 16.5015 247.557 18.7904C221.347 22.497 195.019 25.4294 168.723 25.9895C129.586 26.8546 91.1907 17.8615 52.5362 13.135C43.3428 12.0149 15.7123 5.1801 11.0996 20.3614C5.09815 40.0552 5.34404 63.7059 4.67468 84.2876C3.96434 106.24 3.27676 128.169 3.07186 150.094C2.999 157.603 3.56819 165.317 6.34581 171.883C9.82466 180.102 16.286 183.631 23.5033 184.783C36.5627 186.859 49.8451 186.203 63.032 185.693C80.8634 184.992 98.6903 183.335 116.494 181.573C147.317 178.522 178.658 173.376 209.513 174.492C231.174 175.284 252.479 179.569 273.717 183.863C282.323 185.602 290.769 188.293 299.489 189.3C306.556 190.11 317.348 190.898 323.167 184.264C328.044 178.686 328.24 165.676 328.85 158.391C330.184 142.709 330.353 126.908 330.262 111.212C330.089 81.8014 329.743 51.2066 325.33 22.3786C323.841 12.5886 320.199 5.80392 311.365 7.12443Z" fill="white"/>
<path opacity="0.18" d="M167.011 192C254.74 192 325.858 190.029 325.858 187.597C325.858 185.165 254.74 183.194 167.011 183.194C79.2812 183.194 8.1626 185.165 8.1626 187.597C8.1626 190.029 79.2812 192 167.011 192Z" fill="black"/>
<g opacity="0.2">
<path d="M65.1406 112.296C66.9938 111.772 70.2769 108.963 70.2769 108.958C70.2769 108.954 67.7679 107.36 67.5994 107.278C65.6096 106.345 61.2246 105.712 59.5398 107.51C59.269 107.817 59.0659 108.177 58.9435 108.567C58.8211 108.958 58.7823 109.37 58.8296 109.776C58.8768 110.182 59.0091 110.574 59.2177 110.926C59.4264 111.278 59.7068 111.582 60.0407 111.818C61.4249 112.856 63.5605 112.738 65.1406 112.296Z" fill="black"/>
<path d="M74.2202 121.052C75.8048 120.101 78.077 116.79 78.2591 116.526C80.1512 117.832 82.1288 119.01 84.1786 120.051C85.3671 120.665 86.5829 121.248 87.8214 121.813C87.2249 121.64 86.6876 121.485 86.6102 121.471C84.4427 121.098 80.0395 121.644 78.8966 123.825C78.7169 124.193 78.6165 124.593 78.6021 125.002C78.5877 125.411 78.6595 125.817 78.8129 126.196C78.9662 126.575 79.1977 126.918 79.4922 127.201C79.7868 127.485 80.1377 127.703 80.5222 127.842C82.1296 128.488 84.165 127.805 85.5629 126.958C86.9608 126.111 88.9871 123.315 89.5062 122.578C89.9616 122.792 90.4488 123.01 90.9223 123.22C93.1991 124.231 95.4758 125.232 97.6615 126.28C98.4356 126.649 99.1823 127.045 99.9382 127.432C99.41 127.277 98.9592 127.149 98.8864 127.14C96.7235 126.762 92.3203 127.313 91.1773 129.49C90.9975 129.857 90.897 130.257 90.8822 130.666C90.8675 131.074 90.9389 131.481 91.0918 131.86C91.2448 132.239 91.4757 132.581 91.7698 132.865C92.0638 133.148 92.4143 133.367 92.7984 133.506C94.4103 134.157 96.4412 133.47 97.8436 132.623C99.2461 131.776 101.072 129.258 101.691 128.374C102.447 128.798 103.208 129.221 103.923 129.663C104.378 129.977 104.888 130.246 105.352 130.574L106.741 131.553C107.606 132.204 108.499 132.873 109.323 133.533C109.897 133.989 110.439 134.444 110.985 134.877C110.22 134.499 108.708 133.793 108.567 133.747C106.486 133.051 102.051 132.923 100.589 134.904C100.356 135.24 100.196 135.621 100.12 136.022C100.043 136.424 100.053 136.837 100.147 137.235C100.241 137.633 100.418 138.006 100.666 138.331C100.914 138.656 101.228 138.925 101.587 139.121C103.08 140.004 105.188 139.635 106.705 139.011C108.376 138.324 111.03 135.528 111.358 135.177C112.269 135.915 113.13 136.643 113.94 137.345C115.73 138.884 117.292 140.3 118.594 141.52L119.841 140.496C118.475 139.262 116.804 137.809 114.878 136.229C113.967 135.473 112.979 134.685 111.955 133.889C112.552 132.802 113.086 131.681 113.553 130.533C115.374 130.788 118.899 129.982 119.35 129.872C119.696 130.988 120.019 132.072 120.31 133.101C120.921 135.259 121.417 137.199 121.822 138.875L123.188 137.773C122.783 136.256 122.278 134.553 121.727 132.691C121.381 131.557 120.989 130.355 120.579 129.126C120.998 128.907 124.413 127.104 125.529 125.674C126.535 124.381 127.464 122.455 127.013 120.775C126.921 120.376 126.747 120.002 126.501 119.675C126.254 119.349 125.942 119.078 125.584 118.88C125.226 118.683 124.831 118.563 124.424 118.528C124.016 118.494 123.606 118.545 123.22 118.68C120.921 119.55 119.846 123.857 119.955 126.048C119.955 126.18 120.188 127.577 120.347 128.452C120.174 127.951 120.014 127.464 119.832 126.949C119.477 125.925 119.095 124.918 118.685 123.83C118.466 123.315 118.23 122.792 118.029 122.264C117.829 121.735 117.537 121.203 117.287 120.665C116.69 119.436 116.026 118.216 115.324 117.023C116.235 116.708 119.372 115.552 120.575 114.423C121.777 113.293 122.974 111.531 122.788 109.805C122.757 109.397 122.641 109 122.447 108.64C122.253 108.28 121.986 107.964 121.662 107.714C121.338 107.464 120.965 107.285 120.568 107.189C120.17 107.093 119.757 107.081 119.354 107.155C116.95 107.67 115.233 111.763 115.01 113.949C115.01 114.086 115.01 115.67 115.038 116.54C114.614 115.816 114.191 115.087 113.735 114.368C112.424 112.291 111.035 110.224 109.637 108.161C109.214 107.529 108.799 106.891 108.385 106.258C108.704 106.149 112.483 104.856 113.826 103.59C115.019 102.465 116.226 100.698 116.039 98.9726C116.008 98.565 115.892 98.1684 115.698 97.8087C115.504 97.449 115.236 97.1342 114.912 96.8847C114.588 96.6352 114.216 96.4566 113.818 96.3605C113.421 96.2644 113.008 96.253 112.606 96.327C110.202 96.837 108.508 100.931 108.262 103.116C108.262 103.28 108.262 105.561 108.308 106.144C107.397 104.746 106.486 103.344 105.657 101.928C104.524 100.022 103.515 98.0448 102.638 96.0083C102.789 95.9582 106.737 94.6422 108.103 93.3263C109.296 92.2016 110.502 90.4348 110.316 88.709C110.285 88.3014 110.168 87.9049 109.974 87.5452C109.78 87.1855 109.512 86.8707 109.188 86.6212C108.865 86.3717 108.492 86.1931 108.095 86.097C107.697 86.0009 107.284 85.9895 106.882 86.0635C104.478 86.578 102.761 90.667 102.538 92.8527C102.538 93.0257 102.538 95.4801 102.588 95.9263C102.538 95.8079 102.47 95.6895 102.424 95.5711C101.601 93.5072 100.964 91.3737 100.521 89.1963C100.257 87.9941 100.066 86.833 99.9246 85.6946C100.685 85.5216 104.159 84.6974 105.525 83.6638C106.891 82.6301 108.23 81.0546 108.23 79.3152C108.245 78.9069 108.173 78.5 108.02 78.1212C107.867 77.7424 107.635 77.4001 107.341 77.1166C107.047 76.8331 106.696 76.6147 106.312 76.4757C105.928 76.3368 105.519 76.2803 105.111 76.3099C102.666 76.5558 100.507 80.4354 100.048 82.5801C100.02 82.6984 99.8972 83.9142 99.8198 84.8022C99.7606 84.2876 99.6878 83.7594 99.6423 83.2676C99.4556 81.4144 99.3964 79.7068 99.3599 78.1951C99.3599 77.3345 99.3599 76.5604 99.3599 75.8318C100.016 75.2717 102.643 72.9859 103.367 71.465C104.091 69.9442 104.565 67.9042 103.768 66.3606C103.592 65.9921 103.34 65.6646 103.03 65.3995C102.719 65.1344 102.357 64.9375 101.965 64.8215C101.573 64.7056 101.162 64.6733 100.757 64.7266C100.352 64.78 99.9631 64.9178 99.6149 65.1311C97.5522 66.4744 97.4293 70.9095 98.0075 73.0314C98.0576 73.2136 99.1732 75.9866 99.2051 75.9593L99.2461 75.9229C99.2188 76.6241 99.2006 77.3754 99.196 78.1996C99.196 79.7159 99.196 81.428 99.3645 83.2904C99.5014 85.2992 99.7538 87.2984 100.12 89.2782C100.523 91.4973 101.122 93.6763 101.91 95.7897L101.942 95.8625C101.486 95.2979 100.193 93.7588 100.079 93.6496C98.4811 92.1424 94.5059 90.1707 92.3385 91.3728C91.986 91.5795 91.681 91.858 91.4433 92.1904C91.2057 92.5227 91.0406 92.9014 90.959 93.3017C90.8774 93.702 90.881 94.1151 90.9696 94.514C91.0583 94.9128 91.2299 95.2885 91.4733 95.6167C92.4614 97.0464 94.5287 97.5929 96.1679 97.6612C98.0167 97.7431 101.737 96.2405 102.033 96.1175C102.888 98.2475 103.884 100.318 105.015 102.315C105.666 103.481 106.381 104.637 107.069 105.789C106.668 105.334 106.304 104.878 106.249 104.833C104.651 103.326 100.676 101.354 98.5084 102.556C98.1563 102.763 97.8517 103.042 97.6145 103.375C97.3773 103.707 97.2127 104.086 97.1316 104.486C97.0504 104.886 97.0544 105.299 97.1433 105.698C97.2323 106.097 97.4042 106.472 97.6478 106.8C98.6359 108.23 100.703 108.776 102.342 108.844C103.982 108.913 107.206 107.702 108.043 107.365C108.321 107.82 108.594 108.248 108.872 108.681C110.206 110.78 111.55 112.865 112.802 114.955C113.257 115.688 113.653 116.431 114.068 117.168C113.708 116.749 113.403 116.394 113.353 116.344C111.754 114.837 107.779 112.865 105.612 114.067C105.26 114.274 104.955 114.553 104.718 114.886C104.481 115.218 104.316 115.597 104.235 115.997C104.154 116.398 104.158 116.811 104.247 117.209C104.336 117.608 104.508 117.983 104.751 118.311C105.735 119.741 107.807 120.287 109.446 120.356C111.085 120.424 113.999 119.327 114.997 118.935C115.397 119.705 115.793 120.479 116.149 121.239C116.376 121.767 116.631 122.259 116.832 122.801L117.451 124.386C117.811 125.405 118.184 126.453 118.507 127.459C118.74 128.156 118.963 128.825 119.154 129.495C118.726 128.757 117.847 127.332 117.761 127.218C116.517 125.739 114.915 124.603 113.107 123.921C112.97 123.755 112.818 123.602 112.652 123.466C112.356 123.184 112.004 122.967 111.619 122.83C111.234 122.693 110.824 122.639 110.417 122.671C110.009 122.704 109.613 122.821 109.255 123.017C108.896 123.213 108.582 123.482 108.335 123.807C106.896 125.802 108.371 129.986 109.674 131.758C109.751 131.862 110.712 132.901 111.326 133.547C110.908 133.224 110.502 132.9 110.065 132.573C109.209 131.917 108.33 131.289 107.392 130.61L105.981 129.663C105.525 129.335 104.983 129.048 104.483 128.752C103.303 128.056 102.074 127.386 100.84 126.781C101.414 126.025 103.408 123.32 103.786 121.717C104.164 120.114 104.191 117.979 103.08 116.645C102.83 116.321 102.515 116.054 102.154 115.861C101.794 115.668 101.397 115.552 100.99 115.523C100.582 115.493 100.173 115.55 99.7882 115.689C99.4038 115.828 99.0531 116.047 98.7589 116.33C97.0377 118.083 97.8482 122.446 98.8818 124.39C98.9456 124.513 99.8335 125.824 100.334 126.539C99.5831 126.166 98.8272 125.793 98.0576 125.442C95.8173 124.431 93.5042 123.479 91.2274 122.519L89.1328 121.608C89.3377 121.344 91.7784 118.179 92.2019 116.38C92.5753 114.782 92.6071 112.642 91.4961 111.308C91.246 110.985 90.9306 110.718 90.5704 110.524C90.2102 110.331 89.8133 110.216 89.4056 110.186C88.9979 110.157 88.5885 110.213 88.2042 110.352C87.8198 110.491 87.4691 110.71 87.1748 110.994C85.4536 112.747 86.2641 117.109 87.2978 119.053C87.3752 119.199 88.6638 121.089 89.0053 121.553C87.4708 120.893 85.9454 120.224 84.4519 119.5C82.4542 118.534 80.521 117.441 78.6644 116.226C78.76 116.098 81.3236 112.811 81.7562 110.966C82.1296 109.368 82.1615 107.233 81.0504 105.894C80.7999 105.571 80.4843 105.305 80.1241 105.112C79.7639 104.919 79.3672 104.804 78.9598 104.774C78.5523 104.745 78.1431 104.801 77.7588 104.94C77.3746 105.079 77.0237 105.297 76.7292 105.58C75.008 107.337 75.8185 111.695 76.8521 113.639C76.9341 113.794 78.3138 115.825 78.587 116.176C78.4823 116.103 78.3639 116.044 78.2546 115.971C76.4273 114.699 74.7175 113.267 73.1456 111.69C72.2622 110.834 71.4699 109.965 70.7186 109.099C71.2559 108.535 73.6966 105.912 74.2703 104.318C74.844 102.725 75.0854 100.648 74.1291 99.2002C73.9156 98.8517 73.6312 98.5519 73.2943 98.3204C72.9574 98.0889 72.5756 97.9309 72.1736 97.8566C71.7717 97.7823 71.3586 97.7934 70.9612 97.8892C70.5639 97.985 70.1911 98.1633 69.8671 98.4125C67.9592 99.9652 68.3007 104.391 69.1021 106.436C69.1476 106.55 69.7123 107.629 70.1357 108.412C69.8033 108.016 69.4527 107.615 69.1385 107.233C67.9637 105.789 66.9756 104.396 66.1105 103.157C65.6232 102.447 65.1998 101.791 64.8082 101.181C65.045 100.352 65.9784 96.9964 65.7462 95.3298C65.514 93.6632 64.7763 91.687 63.26 90.8537C62.9101 90.6424 62.5196 90.5071 62.1139 90.4568C61.7082 90.4065 61.2965 90.4422 60.9056 90.5616C60.5146 90.6811 60.1532 90.8815 59.845 91.15C59.5367 91.4184 59.2884 91.7488 59.1163 92.1196C58.1419 94.3963 60.4824 98.1438 62.1353 99.5918C62.2764 99.7193 64.7353 101.413 64.749 101.372C64.7507 101.356 64.7507 101.339 64.749 101.322C65.1178 101.923 65.514 102.561 65.9648 103.244C66.8026 104.51 67.7861 105.926 68.9154 107.396C70.1347 108.99 71.4469 110.511 72.8451 111.95C74.4158 113.553 76.1255 115.015 77.9541 116.317L78.0224 116.362C77.3393 116.135 75.4041 115.57 75.2493 115.543C73.0864 115.169 68.6832 115.716 67.5403 117.897C67.3604 118.264 67.2599 118.664 67.2451 119.073C67.2304 119.481 67.3018 119.888 67.4547 120.267C67.6077 120.645 67.8387 120.988 68.1327 121.271C68.4267 121.555 68.7772 121.774 69.1613 121.913C70.7869 122.56 72.8132 121.877 74.2202 121.052Z" fill="black"/>
<path d="M99.542 85.3577C99.5829 85.3577 98.3307 82.6256 98.2306 82.4799C97.0876 80.6038 93.7727 77.6532 91.4004 78.2269C91.0058 78.3333 90.6381 78.5216 90.3212 78.7796C90.0043 79.0375 89.7453 79.3593 89.561 79.724C89.3767 80.0887 89.2713 80.4881 89.2517 80.8963C89.232 81.3044 89.2985 81.7121 89.4469 82.0928C90.0207 83.7321 91.8694 84.8249 93.4358 85.3076C95.2571 85.895 99.5374 85.3577 99.542 85.3577Z" fill="black"/>
</g>
<g opacity="0.2">
<path d="M247.762 89.5696C248.304 91.1041 250.863 93.7133 250.863 93.7178C250.863 93.7224 252.074 91.5094 252.133 91.3591C252.807 89.6288 253.094 85.895 251.482 84.5745C251.209 84.3639 250.894 84.2133 250.558 84.1323C250.222 84.0514 249.873 84.042 249.533 84.1046C249.194 84.1673 248.871 84.3007 248.586 84.4962C248.302 84.6917 248.061 84.9449 247.88 85.2393C247.07 86.4687 247.298 88.2673 247.762 89.5696Z" fill="black"/>
<path d="M240.9 97.7204C241.811 99.009 244.711 100.739 244.948 100.876C243.952 102.542 243.068 104.273 242.302 106.058C241.847 107.096 241.433 108.152 241.023 109.222C241.137 108.708 241.232 108.243 241.241 108.18C241.437 106.331 240.727 102.647 238.823 101.805C238.504 101.674 238.16 101.611 237.814 101.622C237.468 101.632 237.129 101.715 236.817 101.865C236.506 102.016 236.23 102.23 236.007 102.494C235.783 102.758 235.618 103.066 235.522 103.399C235.067 104.796 235.759 106.468 236.551 107.606C237.344 108.744 239.816 110.288 240.472 110.684C240.317 111.098 240.162 111.504 240.016 111.918C239.288 113.89 238.573 115.861 237.808 117.774C237.539 118.448 237.253 119.103 236.966 119.759C237.066 119.304 237.148 118.917 237.157 118.848C237.348 117 236.638 113.316 234.734 112.474C234.415 112.342 234.071 112.28 233.726 112.29C233.381 112.301 233.041 112.384 232.73 112.534C232.419 112.685 232.143 112.899 231.921 113.163C231.698 113.427 231.533 113.735 231.438 114.067C230.982 115.465 231.675 117.136 232.467 118.275C233.259 119.413 235.49 120.806 236.269 121.28C235.955 121.945 235.641 122.61 235.308 123.238C235.067 123.661 234.853 124.085 234.607 124.495L233.86 125.724C233.359 126.489 232.845 127.282 232.335 128.001C231.984 128.516 231.638 128.998 231.297 129.481C231.57 128.816 232.08 127.496 232.112 127.382C232.567 125.583 232.44 121.831 230.686 120.711C230.39 120.533 230.059 120.42 229.716 120.379C229.373 120.337 229.025 120.368 228.695 120.47C228.365 120.572 228.06 120.742 227.8 120.969C227.539 121.197 227.33 121.476 227.185 121.79C226.52 123.101 226.953 124.859 227.563 126.102C228.237 127.468 230.75 129.558 231.06 129.818C230.486 130.619 229.921 131.393 229.38 132.095C228.177 133.693 227.071 135.086 226.115 136.252L227.048 137.249C228.014 136.02 229.143 134.517 230.372 132.823C230.955 132.008 231.565 131.129 232.194 130.223C233.144 130.665 234.118 131.052 235.112 131.384C234.999 132.951 235.882 135.865 235.996 136.238C235.085 136.593 234.174 136.926 233.323 137.231C231.542 137.864 229.926 138.397 228.537 138.829L229.543 139.904C230.8 139.476 232.212 138.993 233.751 138.387C234.662 138.032 235.682 137.632 236.697 137.217C236.902 137.559 238.619 140.341 239.884 141.197C241.032 141.976 242.712 142.649 244.106 142.18C244.436 142.08 244.742 141.911 245.003 141.685C245.265 141.459 245.475 141.18 245.622 140.867C245.768 140.554 245.847 140.213 245.853 139.868C245.86 139.522 245.793 139.179 245.658 138.861C244.793 136.967 241.105 136.302 239.256 136.516C239.147 136.516 237.981 136.803 237.248 136.971C237.662 136.798 238.068 136.634 238.491 136.452C239.333 136.092 240.162 135.715 241.055 135.305L242.334 134.713C242.79 134.508 243.199 134.257 243.637 133.998C244.643 133.424 245.635 132.791 246.619 132.136C246.933 132.869 248.085 135.469 249.11 136.416C250.134 137.363 251.683 138.283 253.131 138.023C253.473 137.975 253.801 137.855 254.094 137.672C254.386 137.488 254.637 137.245 254.83 136.958C255.022 136.671 255.152 136.347 255.211 136.006C255.269 135.665 255.256 135.316 255.17 134.981C254.601 132.978 251.072 131.762 249.196 131.694C249.082 131.694 247.744 131.794 247.011 131.862C247.598 131.466 248.185 131.07 248.768 130.642C250.449 129.422 252.115 128.128 253.777 126.849C254.287 126.457 254.802 126.075 255.312 125.688C255.421 125.947 256.728 129.066 257.871 130.127C258.886 131.075 260.448 131.994 261.891 131.735C262.234 131.687 262.562 131.567 262.855 131.383C263.147 131.2 263.398 130.957 263.591 130.67C263.783 130.383 263.913 130.058 263.972 129.718C264.03 129.377 264.017 129.028 263.931 128.693C263.367 126.69 259.833 125.474 257.957 125.405C257.821 125.405 255.894 125.551 255.407 125.615C256.532 124.763 257.684 123.926 258.813 123.142C260.36 122.079 261.974 121.116 263.644 120.26C263.695 120.383 265.042 123.643 266.213 124.732C267.233 125.674 268.79 126.594 270.238 126.339C270.58 126.29 270.909 126.17 271.201 125.986C271.494 125.802 271.745 125.558 271.937 125.271C272.13 124.983 272.26 124.659 272.318 124.318C272.377 123.977 272.363 123.628 272.278 123.293C271.709 121.294 268.18 120.073 266.304 120.01C266.158 120.01 264.086 120.169 263.713 120.224C263.808 120.174 263.904 120.114 264.004 120.064C265.703 119.254 267.471 118.598 269.286 118.102C270.288 117.815 271.258 117.592 272.205 117.4C272.396 118.033 273.289 120.916 274.236 122.013C275.183 123.111 276.59 124.149 278.056 124.053C278.402 124.042 278.741 123.959 279.052 123.808C279.363 123.658 279.639 123.444 279.862 123.18C280.085 122.916 280.25 122.607 280.346 122.275C280.442 121.944 280.467 121.595 280.419 121.253C280.073 119.199 276.681 117.61 274.841 117.328C274.741 117.328 273.708 117.278 272.956 117.264C273.384 117.182 273.831 117.091 274.24 117.023C275.793 116.763 277.232 116.622 278.507 116.503C279.231 116.444 279.873 116.403 280.501 116.371C281.011 116.895 283.088 118.985 284.408 119.513C285.729 120.041 287.482 120.319 288.739 119.559C289.041 119.391 289.304 119.16 289.511 118.883C289.718 118.607 289.864 118.289 289.941 117.952C290.017 117.614 290.021 117.265 289.952 116.926C289.884 116.587 289.745 116.266 289.545 115.984C288.292 114.322 284.536 114.468 282.787 115.074C282.637 115.128 280.36 116.221 280.383 116.248L280.415 116.28C279.823 116.28 279.19 116.326 278.493 116.371C277.214 116.458 275.761 116.572 274.209 116.799C272.521 117.025 270.849 117.351 269.2 117.774C267.349 118.236 265.543 118.864 263.804 119.65L263.736 119.686C264.191 119.281 265.416 118.093 265.498 117.992C266.682 116.558 268.121 113.093 266.996 111.34C266.802 111.052 266.549 110.809 266.254 110.626C265.958 110.443 265.628 110.324 265.284 110.278C264.94 110.232 264.59 110.26 264.257 110.359C263.924 110.458 263.616 110.626 263.353 110.853C262.201 111.763 261.86 113.539 261.891 114.928C261.928 116.494 263.403 119.55 263.522 119.791C261.773 120.631 260.083 121.588 258.463 122.655C257.515 123.27 256.577 123.921 255.649 124.586C256.027 124.217 256.363 123.889 256.404 123.839C257.588 122.405 259.027 118.94 257.907 117.186C257.712 116.9 257.459 116.657 257.164 116.474C256.869 116.292 256.539 116.173 256.196 116.127C255.852 116.081 255.502 116.107 255.169 116.205C254.837 116.303 254.528 116.47 254.264 116.695C253.112 117.605 252.771 119.386 252.803 120.793C252.835 122.2 254.041 124.832 254.374 125.519L253.308 126.293C251.614 127.541 249.929 128.789 248.236 129.964C247.639 130.378 247.038 130.765 246.437 131.152C246.774 130.829 247.056 130.551 247.093 130.505C248.277 129.071 249.715 125.606 248.595 123.853C248.401 123.566 248.147 123.323 247.852 123.14C247.557 122.958 247.227 122.84 246.883 122.794C246.539 122.748 246.189 122.775 245.857 122.873C245.524 122.972 245.216 123.14 244.952 123.366C243.8 124.276 243.459 126.052 243.491 127.441C243.523 128.83 244.616 131.22 245.003 132.044C244.374 132.427 243.746 132.805 243.122 133.146C242.689 133.37 242.289 133.602 241.842 133.811L240.545 134.426C239.702 134.781 238.837 135.159 238.008 135.487C237.435 135.724 236.879 135.942 236.324 136.152C236.925 135.742 238.077 134.927 238.145 134.845C239.321 133.716 240.19 132.305 240.668 130.747C240.805 130.627 240.93 130.494 241.041 130.351C241.265 130.084 241.429 129.774 241.524 129.439C241.62 129.105 241.643 128.754 241.592 128.41C241.542 128.065 241.419 127.736 241.233 127.443C241.046 127.149 240.799 126.899 240.508 126.708C238.742 125.606 235.295 127.086 233.874 128.288C233.792 128.356 232.963 129.226 232.458 129.781C232.708 129.408 232.954 129.053 233.209 128.666C233.71 127.901 234.193 127.127 234.716 126.293C234.953 125.884 235.172 125.469 235.436 125.05C235.7 124.631 235.891 124.176 236.128 123.734C236.651 122.701 237.13 121.626 237.59 120.547C238.254 121.002 240.649 122.519 242.025 122.742C243.4 122.965 245.212 122.878 246.268 121.867C246.526 121.636 246.731 121.354 246.872 121.038C247.013 120.722 247.086 120.38 247.086 120.035C247.086 119.689 247.013 119.347 246.872 119.031C246.731 118.716 246.526 118.433 246.268 118.202C244.688 116.836 241.055 117.788 239.47 118.757C239.374 118.817 238.313 119.641 237.74 120.123C238.013 119.463 238.286 118.807 238.537 118.134C239.265 116.185 239.939 114.195 240.622 112.214C240.832 111.608 241.046 111.003 241.26 110.393C241.496 110.552 244.301 112.433 245.845 112.669C247.211 112.897 249.032 112.801 250.084 111.791C250.338 111.56 250.54 111.278 250.679 110.965C250.817 110.651 250.889 110.312 250.889 109.969C250.889 109.626 250.817 109.287 250.679 108.974C250.54 108.66 250.338 108.379 250.084 108.148C248.504 106.782 244.875 107.733 243.286 108.703C243.168 108.781 241.647 109.965 241.273 110.288C241.729 108.954 242.225 107.629 242.753 106.345C243.455 104.604 244.271 102.911 245.194 101.277C245.303 101.349 248.222 103.326 249.802 103.59C251.168 103.813 252.989 103.722 254.041 102.711C254.301 102.482 254.509 102.201 254.652 101.886C254.795 101.571 254.87 101.229 254.872 100.883C254.874 100.537 254.804 100.195 254.664 99.8781C254.525 99.5614 254.32 99.2777 254.064 99.0454C252.488 97.6794 248.855 98.6311 247.27 99.601C247.147 99.6784 245.508 100.967 245.23 101.208C245.28 101.113 245.326 101.008 245.385 100.917C246.355 99.3039 247.466 97.7802 248.705 96.3634C249.378 95.5711 250.071 94.8517 250.758 94.1687C251.264 94.5921 253.6 96.5046 254.993 96.9007C256.386 97.2969 258.135 97.3834 259.305 96.4955C259.587 96.2953 259.824 96.0381 260 95.7405C260.176 95.443 260.287 95.1118 260.327 94.7683C260.367 94.4249 260.335 94.0769 260.231 93.7469C260.128 93.4169 259.957 93.1122 259.728 92.8527C258.312 91.3318 254.597 91.8691 252.898 92.6614C252.807 92.7024 251.928 93.2443 251.291 93.645C251.605 93.3399 251.924 93.0212 252.233 92.7343C253.381 91.6642 254.51 90.749 255.498 89.9521C256.072 89.4968 256.596 89.1052 257.092 88.7409C257.807 88.8957 260.689 89.4922 262.101 89.1963C263.512 88.9003 265.111 88.1763 265.744 86.8467C265.902 86.5398 265.995 86.203 266.015 85.8581C266.035 85.5131 265.982 85.1679 265.859 84.8448C265.737 84.5217 265.548 84.2281 265.304 83.983C265.061 83.7379 264.768 83.5469 264.446 83.4225C262.483 82.7258 259.437 84.916 258.308 86.3913C258.212 86.5188 256.914 88.6908 256.942 88.6954H256.983C256.5 89.0369 255.986 89.4057 255.43 89.8246C254.415 90.6033 253.272 91.4958 252.092 92.5567C250.811 93.6774 249.594 94.8709 248.45 96.1312C247.163 97.5432 246.005 99.0671 244.989 100.685C244.977 100.703 244.966 100.723 244.957 100.744C245.107 100.156 245.476 98.4899 245.49 98.3578C245.686 96.5091 244.975 92.8254 243.072 91.983C242.752 91.8517 242.408 91.7893 242.062 91.7997C241.717 91.8102 241.377 91.8933 241.066 92.0436C240.754 92.1939 240.478 92.4081 240.255 92.6723C240.032 92.9364 239.867 93.2446 239.771 93.5767C239.415 94.9109 240.108 96.582 240.9 97.7204Z" fill="black"/>
<path d="M272.428 117.086C272.428 117.123 274.655 115.911 274.787 115.816C276.303 114.746 278.607 111.786 277.974 109.796C277.862 109.469 277.682 109.17 277.446 108.917C277.21 108.664 276.924 108.464 276.606 108.329C276.288 108.194 275.945 108.128 275.599 108.134C275.253 108.141 274.913 108.22 274.6 108.366C273.234 108.945 272.451 110.566 272.114 111.914C271.736 113.494 272.428 117.082 272.428 117.086Z" fill="black"/>
</g>
<path d="M298.88 49.2896H293.083V86.7966H298.88V49.2896Z" stroke="#263238" stroke-linejoin="round"/>
<path d="M307.066 71.7928H301.27V86.7965H307.066V71.7928Z" stroke="#263238" stroke-linejoin="round"/>
<path d="M315.249 61.2242H309.452V86.7966H315.249V61.2242Z" stroke="#263238" stroke-linejoin="round"/>
<path d="M323.432 79.297H317.635V86.7966H323.432V79.297Z" stroke="#263238" stroke-linejoin="round"/>
<path d="M288.993 49.9726H285.241" stroke="#263238" stroke-linejoin="round"/>
<path d="M288.993 56.097H285.241" stroke="#263238" stroke-linejoin="round"/>
<path d="M288.993 62.226H285.241" stroke="#263238" stroke-linejoin="round"/>
<path d="M288.993 68.3504H285.241" stroke="#263238" stroke-linejoin="round"/>
<path d="M288.993 74.4794H285.241" stroke="#263238" stroke-linejoin="round"/>
<path d="M288.993 80.6084H285.241" stroke="#263238" stroke-linejoin="round"/>
<path d="M288.993 86.7328H285.241" stroke="#263238" stroke-linejoin="round"/>
<path d="M306.233 123.06C313.971 123.06 320.244 116.787 320.244 109.049C320.244 101.311 313.971 95.0383 306.233 95.0383C298.495 95.0383 292.222 101.311 292.222 109.049C292.222 116.787 298.495 123.06 306.233 123.06Z" stroke="#263238" stroke-linejoin="round"/>
<path d="M306.233 95.0429V109.049L319.26 114.596" stroke="#263238" stroke-linejoin="round"/>
<path d="M306.233 109.049L315.636 119.158" stroke="#263238" stroke-linejoin="round"/>
<path d="M202.669 107.938L214.103 109.514L216.835 97.4608L206.225 94.0411V93.9455C206.235 90.0501 205.461 86.1926 203.948 82.6028L211.94 74.9985L204.231 65.3315L195.333 71.251C192.159 68.6901 188.48 66.8281 184.537 65.7868L183.626 55.1636H171.255L170.344 65.6366C166.365 66.5924 162.633 68.3785 159.393 70.8776L150.454 64.9581L142.736 74.6069L150.559 82.0519C148.94 85.673 148.08 89.5875 148.032 93.5539L137.413 96.9736L140.145 109.027L151.351 107.483C153.117 110.84 155.522 113.819 158.432 116.253L154.334 127.136L165.476 132.5L171.428 122.482C175.058 123.204 178.793 123.228 182.433 122.555L188.467 132.709L199.604 127.345L195.506 116.508C198.423 114.139 200.855 111.229 202.669 107.938ZM154.798 93.9455C154.793 89.5261 156.098 85.2043 158.55 81.527C161.001 77.8497 164.488 74.9822 168.57 73.2872C172.651 71.5922 177.144 71.1459 181.479 72.0048C185.814 72.8637 189.797 74.9891 192.924 78.1122C196.051 81.2354 198.181 85.2158 199.046 89.55C199.91 93.8841 199.469 98.3772 197.779 102.461C196.089 106.544 193.226 110.035 189.552 112.491C185.877 114.947 181.557 116.258 177.138 116.258C171.217 116.259 165.539 113.909 161.35 109.726C157.161 105.542 154.804 99.8659 154.798 93.9455Z" stroke="#263238" stroke-linejoin="round"/>
<path d="M258.374 47.1683C263.805 41.7375 263.805 32.9325 258.374 27.5018C252.943 22.071 244.139 22.071 238.708 27.5018C233.277 32.9325 233.277 41.7375 238.708 47.1683C244.139 52.599 252.943 52.599 258.374 47.1683Z" stroke="#263238" stroke-linejoin="round"/>
<path d="M248.54 49.4353C255.225 49.4353 260.643 44.0165 260.643 37.3322C260.643 30.6478 255.225 25.229 248.54 25.229C241.856 25.229 236.437 30.6478 236.437 37.3322C236.437 44.0165 241.856 49.4353 248.54 49.4353Z" stroke="#263238" stroke-linejoin="round"/>
<path d="M244.861 40.6516L248.54 37.3322L241.665 31.0757" stroke="#263238" stroke-linejoin="round"/>
<path d="M229.257 41.7035C222.32 34.7756 214.083 29.2864 205.018 25.5512C195.953 21.816 186.24 19.9084 176.436 19.9379C175.07 19.9379 173.704 19.9834 172.316 20.0563L170.95 14.2096L156.834 34.4498L178.476 46.3253L177.388 41.6625C191.314 41.9112 204.586 47.6155 214.349 57.5484C224.112 67.4813 229.587 80.8493 229.596 94.7772C229.605 108.705 224.147 122.08 214.397 132.025C204.646 141.971 191.382 147.692 177.456 147.959H176.455H27.2646V169.67H176.441C176.915 169.67 177.384 169.67 177.848 169.67C192.548 169.385 206.84 164.781 218.941 156.429C231.042 148.078 240.418 136.35 245.899 122.707C251.381 109.064 252.725 94.1099 249.766 79.7079C246.807 65.3058 239.674 52.0933 229.257 41.7172V41.7035Z" fill="#347683" stroke="#263238" stroke-linecap="round" stroke-linejoin="round"/>
<path d="M282.209 158.345L263.841 141.857V147.49H235.923C234.961 148.577 233.968 149.639 232.945 150.677C225.337 158.484 216.284 164.738 206.289 169.091L206.198 169.183H263.841V174.82L282.209 158.345Z" fill="#263238" stroke="#263238" stroke-linecap="round" stroke-linejoin="round"/>
<path d="M123.229 94.7515C123.243 82.9248 127.205 71.4412 134.485 62.1206C141.764 52.8 151.947 46.1756 163.418 43.2972L151.397 36.0117L162.302 21.7547C127.974 28.3072 101.946 58.5423 101.946 94.7515C101.93 112.102 108.013 128.906 119.131 142.226H152.654C143.822 137.829 136.39 131.057 131.193 122.671C125.995 114.286 123.237 104.617 123.229 94.7515Z" fill="#263238" stroke="#263238" stroke-linecap="round" stroke-linejoin="round"/>
<path d="M280.383 34.254C279.544 26.7486 276.15 19.7601 270.769 14.4608C265.388 9.16147 258.349 5.87382 250.831 5.14937C243.314 4.42492 235.776 6.30775 229.483 10.482C223.189 14.6562 218.522 20.8679 216.266 28.075C219.344 29.8701 222.294 31.877 225.095 34.081C225.756 30.1785 227.418 26.5141 229.918 23.4452C232.417 20.3764 235.67 18.0078 239.358 16.5707C243.046 15.1336 247.043 14.6769 250.961 15.2453C254.878 15.8137 258.581 17.3877 261.708 19.8138C264.836 22.2398 267.281 25.4351 268.805 29.0879C270.33 32.7407 270.881 36.7263 270.406 40.6558C269.931 44.5853 268.446 48.3246 266.095 51.5089C263.744 54.6932 260.607 57.2137 256.992 58.8246L254.852 54.1982L248.818 67.6856L263.002 71.8202L261.181 67.9179C267.531 65.0592 272.811 60.2604 276.261 54.2114C279.712 48.1624 281.155 41.175 280.383 34.254Z" fill="#263238"/>
<path d="M305.919 178.904C316.433 178.904 324.957 170.381 324.957 159.866C324.957 149.352 316.433 140.828 305.919 140.828C295.404 140.828 286.881 149.352 286.881 159.866C286.881 170.381 295.404 178.904 305.919 178.904Z" fill="#263238" stroke="#263238" stroke-linecap="round" stroke-linejoin="round"/>
<path d="M307.9 169.123L296.926 166.815V154.57L307.9 156.879V169.123Z" fill="#347683" stroke="#263238" stroke-linecap="round" stroke-linejoin="round"/>
<path d="M316.528 154.853L318.518 159.374L316.333 158.773L316.528 154.853Z" fill="#347683" stroke="#263238" stroke-linecap="round" stroke-linejoin="round"/>
<path d="M307.9 156.879L316.529 154.853V166.132L307.9 169.123V156.879Z" fill="#347683" stroke="#263238" stroke-linecap="round" stroke-linejoin="round"/>
<path d="M316.528 154.853L306.515 152.171L296.926 154.57L307.9 156.879L316.528 154.853Z" fill="#347683" stroke="#263238" stroke-linecap="round" stroke-linejoin="round"/>
<path d="M296.926 154.57L293.511 160.576L304.844 163.063L307.9 156.879L296.926 154.57Z" fill="#347683" stroke="#263238" stroke-linecap="round" stroke-linejoin="round"/>
<path d="M306.516 152.171V156.424" stroke="#263238" stroke-linecap="round" stroke-linejoin="round"/>
<path d="M296.516 149.707L299.681 152.494" stroke="white" stroke-linecap="round" stroke-linejoin="round"/>
<path d="M316.934 149.707L313.769 152.494" stroke="white" stroke-linecap="round" stroke-linejoin="round"/>
<path d="M306.561 146.215V150.582" stroke="white" stroke-linecap="round" stroke-linejoin="round"/>
<path d="M76.2778 24.3138H61.1147V4.66554H72.8217L76.2778 7.6936V24.3138Z" stroke="#263238" stroke-linejoin="round"/>
<path d="M72.8218 4.66554V7.87118H76.2779L72.8218 4.66554Z" stroke="#263238" stroke-linejoin="round"/>
<path d="M63.6465 10.4029H73.2589" stroke="#263238" stroke-linejoin="round"/>
<path d="M63.6465 12.8481H73.2589" stroke="#263238" stroke-linejoin="round"/>
<path d="M63.6465 15.2979H73.2589" stroke="#263238" stroke-linejoin="round"/>
<path d="M63.6465 17.7431H73.2589" stroke="#263238" stroke-linejoin="round"/>
<path d="M63.6465 20.1883H73.2589" stroke="#263238" stroke-linejoin="round"/>
<path d="M92.7295 31.695H77.5664V12.0467H89.2734L92.7295 15.0793V31.695Z" stroke="#263238" stroke-linejoin="round"/>
<path d="M89.2734 12.0467V15.2524H92.7295L89.2734 12.0467Z" stroke="#263238" stroke-linejoin="round"/>
<path d="M80.0984 17.7841H89.7108" stroke="#263238" stroke-linejoin="round"/>
<path d="M80.0984 20.2339H89.7108" stroke="#263238" stroke-linejoin="round"/>
<path d="M80.0984 22.6791H89.7108" stroke="#263238" stroke-linejoin="round"/>
<path d="M80.0984 25.1243H89.7108" stroke="#263238" stroke-linejoin="round"/>
<path d="M80.0984 27.5695H89.7108" stroke="#263238" stroke-linejoin="round"/>
<path d="M76.2778 46.4619H61.1147V26.8136H72.8217L76.2778 29.8417V46.4619Z" stroke="#263238" stroke-linejoin="round"/>
<path d="M72.8218 26.8136V30.0147H76.2779L72.8218 26.8136Z" stroke="#263238" stroke-linejoin="round"/>
<path d="M63.6465 32.551H73.2589" stroke="#263238" stroke-linejoin="round"/>
<path d="M63.6465 34.9963H73.2589" stroke="#263238" stroke-linejoin="round"/>
<path d="M63.6465 37.4415H73.2589" stroke="#263238" stroke-linejoin="round"/>
<path d="M63.6465 39.8867H73.2589" stroke="#263238" stroke-linejoin="round"/>
<path d="M63.6465 42.3364H73.2589" stroke="#263238" stroke-linejoin="round"/>
<path d="M92.2561 1H60.869C58.5805 1 56.7253 2.85518 56.7253 5.14366V47.0812C56.7253 49.3696 58.5805 51.2248 60.869 51.2248H92.2561C94.5446 51.2248 96.3998 49.3696 96.3998 47.0812V5.14366C96.3998 2.85518 94.5446 1 92.2561 1Z" stroke="#263238" stroke-linejoin="round"/>
<path d="M63.4326 51.4753V65.6957" stroke="#263238" stroke-linejoin="round"/>
<path d="M63.4324 66.998C63.792 66.998 64.0835 66.7065 64.0835 66.3469C64.0835 65.9873 63.792 65.6957 63.4324 65.6957C63.0728 65.6957 62.7812 65.9873 62.7812 66.3469C62.7812 66.7065 63.0728 66.998 63.4324 66.998Z" fill="#263238" stroke="#263238" stroke-linecap="round" stroke-linejoin="round"/>
<path d="M72.8765 178.904C83.3909 178.904 91.9145 170.381 91.9145 159.866C91.9145 149.352 83.3909 140.828 72.8765 140.828C62.362 140.828 53.8384 149.352 53.8384 159.866C53.8384 170.381 62.362 178.904 72.8765 178.904Z" fill="#263238" stroke="#263238" stroke-linecap="round" stroke-linejoin="round"/>
<path d="M82.152 148.605H64.6895V171.368H82.152V148.605Z" fill="white" stroke="#263238" stroke-linecap="round" stroke-linejoin="round"/>
<path d="M81.2777 149.753H65.5728V170.225H81.2777V149.753Z" fill="#347683" stroke="#263238" stroke-linecap="round" stroke-linejoin="round"/>
<path d="M75.7089 147.462H75.0578V146.657H71.7884V147.462H71.1236C70.8506 147.462 70.5889 147.571 70.3959 147.764C70.2029 147.957 70.0945 148.219 70.0945 148.492V150.481H76.7243V148.492C76.7244 148.221 76.6178 147.961 76.4278 147.769C76.2377 147.576 75.9795 147.466 75.7089 147.462Z" fill="#347683" stroke="#263238" stroke-linecap="round" stroke-linejoin="round"/>
<path d="M69.5752 154.539H66.7976V157.316H69.5752V154.539Z" fill="white" stroke="#263238" stroke-linecap="round" stroke-linejoin="round"/>
<path d="M69.5752 159.475H66.7976V162.252H69.5752V159.475Z" fill="white" stroke="#263238" stroke-linecap="round" stroke-linejoin="round"/>
<path d="M69.5752 164.411H66.7976V167.188H69.5752V164.411Z" fill="white" stroke="#263238" stroke-linecap="round" stroke-linejoin="round"/>
<path d="M70.9094 155.773H79.4472" stroke="#263238" stroke-linecap="round" stroke-linejoin="round"/>
<path d="M70.9094 161.118H79.4472" stroke="#263238" stroke-linecap="round" stroke-linejoin="round"/>
<path d="M70.9094 166.159H79.4472" stroke="#263238" stroke-linecap="round" stroke-linejoin="round"/>
<path d="M67.5991 155.363L68.2138 156.346L70.4223 153.851" stroke="#263238" stroke-linecap="round" stroke-linejoin="round"/>
<path d="M67.5991 160.358L68.2138 161.341L70.4223 158.846" stroke="#263238" stroke-linecap="round" stroke-linejoin="round"/>
<path d="M67.5991 165.353L68.2138 166.337L70.4223 163.837" stroke="#263238" stroke-linecap="round" stroke-linejoin="round"/>
<path d="M20.0381 178.904C30.5525 178.904 39.0761 170.381 39.0761 159.866C39.0761 149.352 30.5525 140.828 20.0381 140.828C9.52364 140.828 1 149.352 1 159.866C1 170.381 9.52364 178.904 20.0381 178.904Z" fill="#263238" stroke="#263238" stroke-linecap="round" stroke-linejoin="round"/>
<path d="M23.3121 166.432C23.5927 166.089 23.7384 165.655 23.7219 165.212L23.813 164.647C24.0862 163.067 24.8056 160.631 25.7983 159.37C26.6105 158.326 27.1111 157.074 27.2423 155.759C27.3735 154.443 27.13 153.117 26.5398 151.933C25.9496 150.75 25.0369 149.757 23.9069 149.071C22.7769 148.384 21.4757 148.03 20.1535 148.051C18.8313 148.072 17.542 148.467 16.4343 149.189C15.3266 149.911 14.4458 150.932 13.8934 152.133C13.341 153.335 13.1395 154.668 13.3123 155.979C13.4851 157.29 14.0251 158.526 14.8699 159.543C15.9491 160.836 16.5775 163.427 16.8006 165.094V165.212C16.7824 165.667 16.9351 166.112 17.2286 166.46" fill="#347683"/>
<path d="M23.3121 166.432C23.5927 166.089 23.7384 165.655 23.7219 165.212L23.813 164.647C24.0862 163.067 24.8056 160.631 25.7983 159.37C26.6105 158.326 27.1111 157.074 27.2423 155.759C27.3735 154.443 27.13 153.117 26.5398 151.933C25.9496 150.75 25.0369 149.757 23.9069 149.071C22.7769 148.384 21.4757 148.03 20.1535 148.051C18.8313 148.072 17.542 148.467 16.4343 149.189C15.3266 149.911 14.4458 150.932 13.8934 152.133C13.341 153.335 13.1395 154.668 13.3123 155.979C13.4851 157.29 14.0251 158.526 14.8699 159.543C15.9491 160.836 16.5775 163.427 16.8006 165.094V165.212C16.7824 165.667 16.9351 166.112 17.2286 166.46" stroke="#263238" stroke-linecap="round" stroke-linejoin="round"/>
<path d="M23.3391 166.437H17.4651C17.113 166.437 16.8276 166.722 16.8276 167.074V167.584C16.8276 167.936 17.113 168.222 17.4651 168.222H23.3391C23.6912 168.222 23.9766 167.936 23.9766 167.584V167.074C23.9766 166.722 23.6912 166.437 23.3391 166.437Z" fill="white" stroke="#263238" stroke-linecap="round" stroke-linejoin="round"/>
<path d="M23.3391 168.727H17.4651C17.113 168.727 16.8276 169.013 16.8276 169.365V169.875C16.8276 170.227 17.113 170.512 17.4651 170.512H23.3391C23.6912 170.512 23.9766 170.227 23.9766 169.875V169.365C23.9766 169.013 23.6912 168.727 23.3391 168.727Z" fill="white" stroke="#263238" stroke-linecap="round" stroke-linejoin="round"/>
<path d="M17.4746 171.059C17.8207 172.115 19 172.88 20.4025 172.88C21.805 172.88 22.9798 172.106 23.3304 171.059H17.4746Z" fill="white" stroke="#263238" stroke-linecap="round" stroke-linejoin="round"/>
<path d="M9.22363 155.376H12.0878" stroke="white" stroke-linecap="round" stroke-linejoin="round"/>
<path d="M12.5706 147.758L14.5923 149.78" stroke="white" stroke-linecap="round" stroke-linejoin="round"/>
<path d="M27.9929 155.376H30.8525" stroke="white" stroke-linecap="round" stroke-linejoin="round"/>
<path d="M25.698 150.067L27.7197 148.045" stroke="white" stroke-linecap="round" stroke-linejoin="round"/>
<path d="M20.2112 144.621V147.253" stroke="white" stroke-linecap="round" stroke-linejoin="round"/>
<path d="M45.2655 116.26C63.0135 116.232 69.2904 110.392 71.4186 92.4346C69.2258 82.994 65.3035 80.9015 62.9264 79.273C63.7312 70.5275 62.1834 70.53 62.1834 70.53C54.5776 83.2502 51.2501 72.4087 42.9214 84.8969C37.5324 74.9952 28.5684 80.6056 23.9014 70.5902C23.9014 70.5902 22.2557 72.8041 23.3016 78.7524C18.6648 81.5579 17.3279 85.0577 15.0754 92.5233C16.2495 109.077 25.9727 117.573 45.2655 116.26Z" fill="#6DDBE8"/>
<path d="M43.0244 84.8949C45.9712 80.3079 49.1997 78.1228 54.3573 77.4153C49.1721 76.4814 45.1801 80.1129 43.014 80.4656C40.8479 80.8183 37.1217 75.9284 31.8627 77.4508C36.9208 78.2589 40.6109 81.1922 43.0244 84.8949Z" fill="#48929A"/>
<path d="M58.9763 110.754C51.1479 116.596 40.1583 119.407 23.0676 110.811C18.4712 130.755 29.7361 138.199 43.7694 138.177C57.8027 138.155 72.3228 125.773 58.9763 110.754Z" fill="#6DDBE8"/>
<path d="M33.8678 139.941C33.0418 139.709 32.2103 137.146 32.9284 135.396C33.6328 134.657 34.3714 134.694 35.4049 135.392C35.4129 138.773 34.6939 140.173 33.8678 139.941Z" fill="#F99224"/>
<path d="M36.5187 140.243C35.6927 140.011 34.8611 137.447 35.5793 135.697C36.2837 134.959 37.0223 134.996 38.0558 135.694C38.0638 139.075 37.3448 140.475 36.5187 140.243Z" fill="#F99224"/>
<path d="M39.2352 140.632C38.4304 140.421 37.5562 137.709 38.2562 136.112C38.9426 135.438 39.6623 135.472 40.6691 136.109C40.8826 139.114 40.04 140.844 39.2352 140.632Z" fill="#F99224"/>
<path d="M52.5057 140.004C53.3095 139.768 54.1077 137.193 53.3998 135.438C52.7101 134.699 51.9906 134.738 50.9869 135.442C50.9949 138.836 51.702 140.239 52.5057 140.004Z" fill="#F7921E"/>
<path d="M49.8231 140.241C50.6269 140.006 51.4251 137.43 50.7172 135.676C50.0275 134.936 49.308 134.976 48.3043 135.679C48.3123 139.073 49.0193 140.476 49.8231 140.241Z" fill="#F7921E"/>
<path d="M47.098 140.719C47.8957 140.5 48.7504 137.733 48.0481 136.107C47.3638 135.421 46.6497 135.458 45.6535 136.111C45.4559 139.176 46.3003 140.937 47.098 140.719Z" fill="#F7921E"/>
<path d="M78.8214 98.2157C72.244 108.847 66.9913 109.627 57.0174 113.055C57.0644 133.009 77.6003 118.816 80.1306 114.95C82.6609 111.083 72.5199 118.18 74.036 114.959C77.0787 113.023 83.1468 101.749 80.1078 105.294C77.0689 108.839 74.0238 109.81 74.0238 109.81C75.8974 105.282 82.3705 95.6351 78.8214 98.2157Z" fill="#48929A"/>
<path d="M19.1031 130.787C14.8287 118.89 20.6683 108.594 23.7949 110.97C29.5904 116.015 20.4985 122.238 30.5875 132.469C27.7689 131.968 25.8059 130.698 24.1389 127.568C24.1389 127.568 23.9352 130.296 25.8893 131.781C27.8435 133.266 23.5361 132.875 21.7884 127.703C18.9911 124.296 25.4123 138.785 19.1031 130.787Z" fill="#48929A"/>
<ellipse cx="11.5569" cy="13.058" rx="11.5569" ry="13.058" transform="matrix(0.999999 -0.00157418 0.00235806 0.999997 20.2078 81.0891)" fill="white"/>
<ellipse cx="11.5569" cy="13.058" rx="11.5569" ry="13.058" transform="matrix(0.999999 -0.00157418 0.00235806 0.999997 43.1152 81.0528)" fill="#FEFFFF"/>
<ellipse cx="8.2549" cy="9.32715" rx="8.2549" ry="9.32715" transform="matrix(0.999999 -0.00157418 0.00235806 0.999997 46.4258 84.7786)" fill="#120C0E"/>
<ellipse cx="3.09559" cy="3.49768" rx="3.09559" ry="3.49768" transform="matrix(0.999999 -0.00157418 0.00235806 0.999997 55.51 86.3964)" fill="#FEFFFF"/>
<ellipse cx="8.2549" cy="9.32715" rx="8.2549" ry="9.32715" transform="matrix(0.999999 -0.00157418 0.00235806 0.999997 23.7249 84.8141)" fill="#120C0E"/>
<ellipse cx="3.09559" cy="3.49768" rx="3.09559" ry="3.49768" transform="matrix(0.999999 -0.00157418 0.00235806 0.999997 33.2219 86.4316)" fill="#FEFFFF"/>
<path d="M32.8487 120.977L30.7738 115.115L36.4228 116.132L32.8487 120.977Z" fill="#48929A"/>
<path d="M42.4351 121.718L39.5298 116.836L45.2033 116.743L42.4351 121.718Z" fill="#48929A"/>
<path d="M39.1485 128.019L36.2432 123.137L41.9167 123.044L39.1485 128.019Z" fill="#48929A"/>
<path d="M52.3904 120.59L48.3821 116.834L53.7985 114.931L52.3904 120.59Z" fill="#48929A"/>
<path d="M49.1038 126.891L45.0955 123.135L50.5119 121.232L49.1038 126.891Z" fill="#48929A"/>
<path d="M43.2532 95.7431C43.2334 96.02 43.1988 96.2993 43.1513 96.5794C43.5581 98.8666 47.0295 104.59 47.565 104.401L47.6073 104.364C47.5964 104.383 47.5822 104.395 47.565 104.401L43.5913 107.868L38.8388 104.379C38.838 104.379 38.8373 104.378 38.8365 104.378L38.8388 104.379C39.2354 104.658 42.4805 100.538 43.1513 96.5794C43.0799 96.1777 43.103 95.8821 43.2532 95.7431Z" fill="#F6931E"/>
<path d="M29.7605 77.6188V72.8363L42.5561 75.5056L55.2157 72.8363V77.6188L43.9174 80.7329L29.7605 77.6188Z" fill="#0F0B0C"/>
<path d="M42.4201 77.0627L17.6455 70.6119L42.4201 63.3826L67.1946 70.6119L42.4201 77.0627Z" fill="#0F0B0C"/>
<path d="M59.572 82.8461C57.6663 82.4012 60.7971 76.5066 59.8443 71.168L61.2055 70.8343C60.9333 76.3953 63.3835 82.0676 61.8861 82.8461H59.572Z" fill="#0F0B0C"/>
<ellipse cx="60.6606" cy="74.2822" rx="1.63349" ry="1.33464" fill="#0F0B0C"/>
</svg>
