<svg width="349" height="234" viewBox="0 0 349 234" fill="none" xmlns="http://www.w3.org/2000/svg">
<path fill-rule="evenodd" clip-rule="evenodd" d="M115.1 45.4013L173.19 0.910156L233.81 45.4013" fill="#BDBDBD"/>
<path fill-rule="evenodd" clip-rule="evenodd" d="M39.0273 84.0688H309.884V215.811H39.0273V84.0688Z" fill="#A1A1A1"/>
<path fill-rule="evenodd" clip-rule="evenodd" d="M22.1953 59.3687H326.713V84.0688H22.1953V59.3687Z" fill="#BDBDBD"/>
<path fill-rule="evenodd" clip-rule="evenodd" d="M309.882 84.0688H303.424V215.811H309.882V84.0688Z" fill="#ADADAD"/>
<path fill-rule="evenodd" clip-rule="evenodd" d="M303.424 84.5688H301.059V215.311H303.424V84.5688Z" fill="#CBCBCB"/>
<path fill-rule="evenodd" clip-rule="evenodd" d="M39.0273 84.0688H45.4855V215.811H39.0273V84.0688Z" fill="#ADADAD"/>
<path fill-rule="evenodd" clip-rule="evenodd" d="M45.4844 84.5688H47.8496V215.311H45.4844V84.5688Z" fill="#CBCBCB"/>
<path fill-rule="evenodd" clip-rule="evenodd" d="M47.8496 185.808H301.059V216.168H47.8496V185.808Z" fill="#AFAFAF"/>
<path fill-rule="evenodd" clip-rule="evenodd" d="M47.8496 136.812H301.059V141.564H47.8496V136.812Z" fill="#BDBDBD"/>
<path fill-rule="evenodd" clip-rule="evenodd" d="M129.537 40.9882L173.498 7.31885L219.373 40.9882V215.811H129.537V40.9882Z" fill="#909090"/>
<path fill-rule="evenodd" clip-rule="evenodd" d="M119.598 128.019H229.311V137.151H119.598V128.019Z" fill="#AFAFAF"/>
<path fill-rule="evenodd" clip-rule="evenodd" d="M127.826 109.646H221.905V128.019H127.826V109.646Z" fill="#BDBDBD"/>
<path fill-rule="evenodd" clip-rule="evenodd" d="M0.837891 224.563H348.071V233.315H0.837891V224.563Z" fill="#BDBDBD"/>
<path fill-rule="evenodd" clip-rule="evenodd" d="M158.793 168.425H190.116V215.811H158.793V168.425Z" fill="#D4D4D4"/>
<path fill-rule="evenodd" clip-rule="evenodd" d="M157.646 168.654V169.8V218.332H191.261V168.654H157.646ZM159.938 170.946H188.969V216.04H159.938V170.946Z" fill="#A0A0A0"/>
<path fill-rule="evenodd" clip-rule="evenodd" d="M27.4727 215.811H321.435V224.563H27.4727V215.811Z" fill="#BDBDBD"/>
<path fill-rule="evenodd" clip-rule="evenodd" d="M137.908 137.151H150.107V215.811H137.908V137.151Z" fill="#A1A1A1"/>
<path fill-rule="evenodd" clip-rule="evenodd" d="M198.803 137.151H211.002V215.811H198.803V137.151Z" fill="#A1A1A1"/>
<path fill-rule="evenodd" clip-rule="evenodd" d="M134.748 137.151H153.265V145.034H134.748V137.151Z" fill="#ADADAD"/>
<path fill-rule="evenodd" clip-rule="evenodd" d="M195.645 137.151H214.161V145.034H195.645V137.151Z" fill="#ADADAD"/>
<path fill-rule="evenodd" clip-rule="evenodd" d="M134.748 207.928H153.265V215.81H134.748V207.928Z" fill="#ADADAD"/>
<path fill-rule="evenodd" clip-rule="evenodd" d="M195.645 207.928H214.161V215.81H195.645V207.928Z" fill="#ADADAD"/>
<path fill-rule="evenodd" clip-rule="evenodd" d="M184.961 193.214C184.961 193.345 184.935 193.474 184.886 193.595C184.836 193.716 184.762 193.825 184.67 193.918C184.578 194.01 184.468 194.083 184.347 194.133C184.227 194.183 184.098 194.209 183.967 194.209C183.836 194.209 183.707 194.183 183.586 194.133C183.466 194.083 183.356 194.01 183.264 193.918C183.172 193.825 183.098 193.716 183.048 193.595C182.998 193.474 182.973 193.345 182.973 193.214C182.973 193.084 182.998 192.955 183.048 192.834C183.098 192.713 183.172 192.604 183.264 192.511C183.356 192.419 183.466 192.346 183.586 192.296C183.707 192.246 183.836 192.22 183.967 192.22C184.098 192.22 184.227 192.246 184.347 192.296C184.468 192.346 184.578 192.419 184.67 192.511C184.762 192.604 184.836 192.713 184.886 192.834C184.935 192.955 184.961 193.084 184.961 193.214Z" fill="#65CAD6"/>
<path fill-rule="evenodd" clip-rule="evenodd" d="M183.966 191.074C182.798 191.074 181.826 192.046 181.826 193.214C181.826 194.383 182.798 195.355 183.966 195.355C185.134 195.355 186.106 194.383 186.106 193.215C186.106 192.046 185.134 191.074 183.966 191.074ZM183.966 193.063C184.036 193.063 184.118 193.145 184.118 193.215C184.118 193.285 184.036 193.366 183.966 193.366C183.896 193.366 183.815 193.285 183.815 193.215C183.815 193.145 183.896 193.063 183.966 193.063V193.063Z" fill="#A0A0A0"/>
<path fill-rule="evenodd" clip-rule="evenodd" d="M241.092 92.6465H261.997V128.234H241.092V92.6465Z" fill="#D4D4D4"/>
<path fill-rule="evenodd" clip-rule="evenodd" d="M240.699 92.2534V93.0173V109.676V110.44V111.204V128.626H252.308H262.39V109.676V92.2534H252.308H250.781H240.699ZM242.227 93.7812H250.781V109.676H242.227V93.7812ZM252.308 93.7812H260.862V109.676H252.308V93.7812ZM242.227 111.204H250.781V127.098H242.227V111.204ZM252.308 111.204H260.862V127.098H252.308V111.204Z" fill="#AFAFAF"/>
<path fill-rule="evenodd" clip-rule="evenodd" d="M268.373 92.6465H289.279V128.234H268.373V92.6465Z" fill="#D4D4D4"/>
<path fill-rule="evenodd" clip-rule="evenodd" d="M267.98 92.2534V93.0173V109.676V110.44V111.204V128.626H279.59H289.671V109.676V92.2534H279.59H278.062H267.98ZM269.508 93.7812H278.062V109.676H269.508V93.7812ZM279.59 93.7812H288.144V109.676H279.59V93.7812ZM269.508 111.204H278.062V127.098H269.508V111.204ZM279.59 111.204H288.144V127.098H279.59V111.204Z" fill="#AFAFAF"/>
<path fill-rule="evenodd" clip-rule="evenodd" d="M136.721 60.7656H157.626V96.3531H136.721V60.7656Z" fill="#D4D4D4"/>
<path fill-rule="evenodd" clip-rule="evenodd" d="M136.328 60.373V61.137V77.7956V78.5595V79.3234V96.7459H147.937H158.019V77.7956V60.373H147.937H146.41H136.328ZM137.856 61.9009H146.41V77.7956H137.856V61.9009ZM147.937 61.9009H156.491V77.7956H147.937V61.9009ZM137.856 79.3234H146.41V95.2181H137.856V79.3234ZM147.937 79.3234H156.491V95.2181H147.937V79.3234Z" fill="#AFAFAF"/>
<path fill-rule="evenodd" clip-rule="evenodd" d="M164.002 60.7656H184.908V96.3531H164.002V60.7656Z" fill="#D4D4D4"/>
<path fill-rule="evenodd" clip-rule="evenodd" d="M163.609 60.373V61.137V77.7956V78.5595V79.3234V96.7459H175.219H185.3V77.7956V60.373H175.219H173.691H163.609ZM165.137 61.9009H173.691V77.7956H165.137V61.9009ZM175.219 61.9009H183.773V77.7956H175.219V61.9009ZM165.137 79.3234H173.691V95.2181H165.137V79.3234ZM175.219 79.3234H183.773V95.2181H175.219V79.3234Z" fill="#AFAFAF"/>
<path fill-rule="evenodd" clip-rule="evenodd" d="M191.283 60.7656H212.189V96.3531H191.283V60.7656Z" fill="#D4D4D4"/>
<path fill-rule="evenodd" clip-rule="evenodd" d="M190.891 60.373V61.137V77.7956V78.5595V79.3234V96.7459H202.5H212.581V77.7956V60.373H202.5H200.972H190.891ZM192.418 61.9009H200.972V77.7956H192.418V61.9009ZM202.5 61.9009H211.054V77.7956H202.5V61.9009ZM192.418 79.3234H200.972V95.2181H192.418V79.3234ZM202.5 79.3234H211.054V95.2181H202.5V79.3234Z" fill="#AFAFAF"/>
<path fill-rule="evenodd" clip-rule="evenodd" d="M59.6309 92.6465H80.5365V128.234H59.6309V92.6465Z" fill="#D4D4D4"/>
<path fill-rule="evenodd" clip-rule="evenodd" d="M59.2383 92.2534V93.0173V109.676V110.44V111.204V128.626H70.8475H80.9291V109.676V92.2534H70.8475H69.3199H59.2383ZM60.766 93.7812H69.3199V109.676H60.766V93.7812ZM70.8475 93.7812H79.4014V109.676H70.8475V93.7812ZM60.766 111.204H69.3199V127.098H60.766V111.204ZM70.8475 111.204H79.4014V127.098H70.8475V111.204Z" fill="#AFAFAF"/>
<path fill-rule="evenodd" clip-rule="evenodd" d="M86.9121 92.6465H107.818V128.234H86.9121V92.6465Z" fill="#D4D4D4"/>
<path fill-rule="evenodd" clip-rule="evenodd" d="M86.5195 92.2534V93.0173V109.676V110.44V111.204V128.626H98.1288H108.21V109.676V92.2534H98.1288H96.6011H86.5195ZM88.0472 93.7812H96.6011V109.676H88.0472V93.7812ZM98.1288 93.7812H106.683V109.676H98.1288V93.7812ZM88.0472 111.204H96.6011V127.098H88.0472V111.204ZM98.1288 111.204H106.683V127.098H98.1288V111.204Z" fill="#AFAFAF"/>
<path fill-rule="evenodd" clip-rule="evenodd" d="M241.092 145.426H261.997V181.014H241.092V145.426Z" fill="#D4D4D4"/>
<path fill-rule="evenodd" clip-rule="evenodd" d="M240.699 145.034V145.798V162.456V163.22V163.984V181.407H252.309H262.39V162.456V145.034H252.309H250.781H240.699ZM242.227 146.562H250.781V162.456H242.227V146.562ZM252.309 146.562H260.863V162.456H252.309V146.562ZM242.227 163.984H250.781V179.879H242.227V163.984ZM252.309 163.984H260.863V179.879H252.309V163.984Z" fill="#AFAFAF"/>
<path fill-rule="evenodd" clip-rule="evenodd" d="M268.373 145.426H289.279V181.014H268.373V145.426Z" fill="#D4D4D4"/>
<path fill-rule="evenodd" clip-rule="evenodd" d="M267.98 145.034V145.798V162.456V163.22V163.984V181.407H279.59H289.671V162.456V145.034H279.59H278.062H267.98ZM269.508 146.562H278.062V162.456H269.508V146.562ZM279.59 146.562H288.144V162.456H279.59V146.562ZM269.508 163.984H278.062V179.879H269.508V163.984ZM279.59 163.984H288.144V179.879H279.59V163.984Z" fill="#AFAFAF"/>
<path fill-rule="evenodd" clip-rule="evenodd" d="M59.6309 145.426H80.5365V181.014H59.6309V145.426Z" fill="#D4D4D4"/>
<path fill-rule="evenodd" clip-rule="evenodd" d="M59.2383 145.034V145.798V162.457V163.221V163.985V181.407H70.8475H80.9291V162.457V145.034H70.8475H69.3199H59.2383ZM60.766 146.562H69.3199V162.457H60.766V146.562ZM70.8475 146.562H79.4014V162.457H70.8475V146.562ZM60.766 163.985H69.3199V179.879H60.766V163.985ZM70.8475 163.985H79.4014V179.879H70.8475V163.985Z" fill="#AFAFAF"/>
<path fill-rule="evenodd" clip-rule="evenodd" d="M86.9121 145.426H107.818V181.014H86.9121V145.426Z" fill="#D4D4D4"/>
<path fill-rule="evenodd" clip-rule="evenodd" d="M86.5195 145.034V145.798V162.457V163.221V163.985V181.407H98.1288H108.21V162.457V145.034H98.1288H96.6011H86.5195ZM88.0472 146.562H96.6011V162.457H88.0472V146.562ZM98.1288 146.562H106.683V162.457H98.1288V146.562ZM88.0472 163.985H96.6011V179.879H88.0472V163.985ZM98.1288 163.985H106.683V179.879H98.1288V163.985Z" fill="#AFAFAF"/>
<path fill-rule="evenodd" clip-rule="evenodd" d="M164.002 30.8188H184.907V52.0435H164.002V30.8188Z" fill="#D4D4D4"/>
<path fill-rule="evenodd" clip-rule="evenodd" d="M163.609 30.5845V31.0401V40.9754V41.4311V41.8868V52.2776H175.219H185.3V40.9754V30.5845H175.219H173.691H163.609ZM165.137 31.4958H173.691V40.9754H165.137V31.4958ZM175.219 31.4958H183.773V40.9754H175.219V31.4958ZM165.137 41.8868H173.691V51.3664H165.137V41.8868ZM175.219 41.8868H183.773V51.3664H175.219V41.8868Z" fill="#AFAFAF"/>
<path d="M156.048 112.823H157.552V118.726H161.117V120.02H156.048V112.823ZM167.171 116.875H163.675V118.726H167.66V120.02H162.206V112.823H167.484V114.097H163.675V115.625H167.171V116.875ZM168.299 112.823H169.906L171.468 118.287L173.045 112.823H174.608L172.152 120.02H170.731L168.299 112.823ZM180.511 116.875H177.015V118.726H181V120.02H175.545V112.823H180.824V114.097H177.015V115.625H180.511V116.875ZM182.171 112.823H183.675V118.726H187.24V120.02H182.171V112.823ZM193.607 114.38C193.441 114.182 193.203 114.083 192.894 114.083C192.471 114.083 192.183 114.24 192.03 114.556C191.942 114.738 191.89 115.028 191.874 115.425H190.521C190.544 114.823 190.653 114.336 190.848 113.965C191.219 113.259 191.878 112.906 192.826 112.906C193.574 112.906 194.17 113.114 194.613 113.531C195.056 113.944 195.277 114.493 195.277 115.176C195.277 115.7 195.121 116.166 194.808 116.573C194.603 116.843 194.266 117.144 193.797 117.476L193.241 117.872C192.892 118.119 192.653 118.298 192.523 118.409C192.396 118.519 192.289 118.648 192.201 118.794H195.292V120.02H190.443C190.456 119.512 190.565 119.048 190.77 118.628C190.969 118.156 191.437 117.657 192.176 117.129C192.818 116.67 193.233 116.342 193.421 116.143C193.711 115.834 193.856 115.495 193.856 115.127C193.856 114.828 193.773 114.579 193.607 114.38Z" fill="white"/>
</svg>
