<svg width="335" height="304" viewBox="0 0 335 304" fill="none" xmlns="http://www.w3.org/2000/svg">
<path d="M245.357 35.0188L38.5156 92.9478C52.9767 83.7639 69.0272 76.5864 85.0001 69.4795C102.351 61.758 114.947 64.8946 134.091 62.0123C142.908 60.6771 157.644 51.465 164.977 46.9649C178.188 38.8619 191.533 30.2644 206.411 31.3312C209.759 25.4817 216.937 21.2784 224.489 20.7344C232.041 20.1904 239.685 23.3341 243.74 28.6466C243.74 28.6466 256.223 25.3758 261.147 27.8272L275.643 27.4739L245.357 35.0188Z" fill="#EBEBEB"/>
<path d="M42.2598 54.9266C64.8662 40.2818 83.3611 42.3447 104.908 32.8146C110.724 30.1327 116.385 27.1255 121.863 23.8074C133.145 17.2303 145.013 10.2435 158.4 9.45938C168.713 6.6518 179.225 4.6326 189.844 3.41922C205.386 1.64603 221.091 1.58245 236.654 0C183.027 9.04964 93.4068 37.6326 42.2598 54.9266Z" fill="#EBEBEB"/>
<path d="M53.7396 304C70.103 304 83.3682 301.207 83.3682 297.762C83.3682 294.317 70.103 291.524 53.7396 291.524C37.3762 291.524 24.1111 294.317 24.1111 297.762C24.1111 301.207 37.3762 304 53.7396 304Z" fill="#E0E0E0"/>
<path d="M296.363 229.159C312.727 229.159 325.992 226.366 325.992 222.921C325.992 219.475 312.727 216.683 296.363 216.683C280 216.683 266.735 219.475 266.735 222.921C266.735 226.366 280 229.159 296.363 229.159Z" fill="#E0E0E0"/>
<path d="M34.5878 251.638L26.1104 258.038C115.038 287.059 213.32 286.565 301.951 256.625C212.776 257.424 123.502 258.13 34.5878 251.638Z" fill="#E0E0E0"/>
<path d="M278.292 69.8891C278.826 68.501 279.562 67.199 280.475 66.0248C281.509 64.7734 282.977 63.9584 284.587 63.743C286.254 63.5663 288.119 64.3364 288.642 65.6928C288.882 62.6338 289.39 59.4972 291.185 56.8409C292.067 55.4175 293.304 54.2479 294.775 53.4471C296.246 52.6462 297.9 52.2416 299.574 52.2729C301.248 52.3043 302.886 52.7705 304.326 53.6259C305.765 54.4812 306.958 55.6963 307.786 57.1518C309.397 59.695 309.948 58.8826 310.471 61.7366C311.757 60.3944 314.462 60.8112 315.798 62.1181C317.133 63.4251 317.472 65.2336 317.754 66.9503L276.314 70.6803L278.292 69.8891Z" fill="#F5F5F5"/>
<path d="M12.3416 130.355C12.8744 128.966 13.61 127.663 14.5245 126.49C15.5546 125.238 17.0214 124.422 18.629 124.208C20.3033 124.032 22.1613 124.802 22.6911 126.158C22.9313 123.099 23.4399 119.963 25.2343 117.306C26.1893 115.877 27.4881 114.711 29.0113 113.915C30.5345 113.119 32.2334 112.718 33.9519 112.75C35.5557 112.886 37.1048 113.398 38.4744 114.243C39.8439 115.089 40.9954 116.245 41.8359 117.617C43.4396 120.16 43.9977 119.341 44.5204 122.202C45.8062 120.86 48.5048 121.277 49.8471 122.584C51.1893 123.891 51.5214 125.699 51.8039 127.416L10.3635 131.146L12.3416 130.355Z" fill="#F5F5F5"/>
<path d="M48.6109 17.8945C49.1633 16.7394 49.9007 15.6823 50.7938 14.7649C51.916 13.7056 53.3614 13.0538 54.8983 12.914C56.5655 12.7727 58.4305 13.3944 58.9604 14.4965C59.2006 12.0097 59.7092 9.46652 61.4965 7.31185C62.5877 6.08988 63.936 5.12481 65.4445 4.48597C66.953 3.84713 68.5843 3.55041 70.2212 3.61711C71.7394 3.6794 73.227 4.06296 74.586 4.74247C75.945 5.42197 77.1445 6.38197 78.1052 7.55911C79.7088 9.62901 80.2246 8.97201 80.7897 11.2821C82.0684 10.1942 84.7741 10.5333 86.1093 11.5929C87.4445 12.6526 87.7906 14.122 88.0732 15.5137L46.6328 18.5444L48.6109 17.8945Z" fill="#F5F5F5"/>
<path d="M142.993 296.278C142.993 296.377 134.311 296.462 123.601 296.462C112.891 296.462 104.18 296.363 104.18 296.278C104.18 296.194 112.863 296.095 123.572 296.095C134.282 296.095 142.993 296.158 142.993 296.278Z" fill="#263238"/>
<path d="M153.717 300.581C153.717 300.687 145.868 300.764 136.197 300.764C126.525 300.764 118.677 300.687 118.677 300.581C118.677 300.475 126.518 300.397 136.197 300.397C145.875 300.397 153.717 300.517 153.717 300.581Z" fill="#263238"/>
<path d="M280.087 287.836C280.087 287.935 273.976 288.02 266.445 288.02C258.914 288.02 252.796 287.935 252.796 287.836C252.796 287.737 258.907 287.653 266.445 287.653C273.983 287.653 280.087 287.73 280.087 287.836Z" fill="#263238"/>
<path d="M291.023 291.581C291.023 291.687 285.505 291.764 278.702 291.764C271.899 291.764 266.375 291.687 266.375 291.581C266.375 291.475 271.892 291.397 278.702 291.397C285.512 291.397 291.023 291.482 291.023 291.581Z" fill="#263238"/>
<path d="M288.084 284.226C288.084 284.332 282.566 284.41 275.756 284.41C268.946 284.41 263.429 284.332 263.429 284.226C263.429 284.12 268.946 284.043 275.756 284.043C282.566 284.043 288.084 284.128 288.084 284.226Z" fill="#263238"/>
<path d="M334.109 211.017C334.109 211.123 259.31 211.201 167.062 211.201C74.8132 211.201 0 211.123 0 211.017C0 210.911 74.7849 210.833 167.062 210.833C259.338 210.833 334.109 210.918 334.109 211.017Z" fill="#263238"/>
<path d="M326.67 220.865C326.67 223.514 314.406 225.669 299.288 225.669C284.17 225.669 271.899 223.514 271.899 220.865C271.899 220.533 271.97 218.223 271.97 218.223C274.499 216.033 286.028 216.054 299.288 216.054C312.4 216.054 324.014 215.44 326.621 218.279C326.67 218.336 326.67 220.512 326.67 220.865Z" fill="#263238"/>
<path d="M326.67 218.145C326.67 220.561 314.406 222.518 299.288 222.518C284.17 222.518 271.899 220.561 271.899 218.145C271.899 215.729 284.163 213.765 299.288 213.765C314.413 213.765 326.67 215.743 326.67 218.145Z" fill="#455A64"/>
<path d="M295.339 199.749C294.018 199.884 292.026 209.774 291.213 214.112C291.099 214.714 291.214 215.338 291.536 215.86C291.857 216.383 292.362 216.767 292.951 216.937C294.739 217.528 296.661 217.574 298.476 217.072C299.074 216.898 299.584 216.502 299.9 215.965C300.217 215.428 300.316 214.79 300.178 214.182C299.161 209.908 296.667 199.615 295.339 199.749Z" fill="#455A64"/>
<path d="M301.28 205.768C300.404 205.86 299.076 212.43 298.532 215.319C298.46 215.719 298.538 216.132 298.752 216.478C298.966 216.823 299.3 217.078 299.691 217.192C300.88 217.581 302.158 217.61 303.364 217.276C303.762 217.161 304.101 216.897 304.311 216.54C304.521 216.183 304.587 215.759 304.494 215.355C303.852 212.522 302.177 205.676 301.28 205.768Z" fill="#455A64"/>
<path d="M290.182 207.266C289.214 207.358 287.745 213.899 287.151 216.775C287.084 217.189 287.18 217.614 287.418 217.96C287.656 218.306 288.019 218.547 288.43 218.633C289.747 219.025 291.145 219.057 292.478 218.724C292.897 218.636 293.265 218.385 293.499 218.026C293.734 217.667 293.816 217.23 293.728 216.81C293.008 213.998 291.15 207.188 290.182 207.266Z" fill="#263238"/>
<path d="M299.62 213.772C299.048 213.822 298.207 217.665 297.84 219.346C297.8 219.59 297.855 219.84 297.995 220.044C298.134 220.248 298.347 220.39 298.589 220.441C299.363 220.673 300.186 220.69 300.969 220.491C301.212 220.435 301.422 220.286 301.555 220.075C301.687 219.865 301.731 219.61 301.676 219.367C301.28 217.714 300.185 213.716 299.62 213.772Z" fill="#263238"/>
<path d="M305.766 209.089C304.996 209.152 303.838 213.73 303.364 215.743C303.344 215.895 303.355 216.049 303.395 216.197C303.435 216.345 303.504 216.483 303.598 216.604C303.692 216.725 303.809 216.826 303.942 216.901C304.076 216.977 304.222 217.025 304.374 217.043C305.426 217.314 306.527 217.336 307.589 217.107C307.744 217.089 307.894 217.04 308.03 216.961C308.165 216.883 308.283 216.777 308.376 216.651C308.469 216.525 308.535 216.382 308.569 216.229C308.604 216.076 308.607 215.918 308.578 215.764C307.998 213.793 306.536 209.025 305.766 209.089Z" fill="#455A64"/>
<g opacity="0.3">
<path d="M305.766 209.089C304.996 209.152 303.838 213.73 303.364 215.743C303.344 215.895 303.355 216.049 303.395 216.197C303.435 216.345 303.504 216.483 303.598 216.604C303.692 216.725 303.809 216.826 303.942 216.901C304.076 216.977 304.222 217.025 304.374 217.043C305.426 217.314 306.527 217.336 307.589 217.107C307.744 217.089 307.894 217.04 308.03 216.961C308.165 216.883 308.283 216.777 308.376 216.651C308.469 216.525 308.535 216.382 308.569 216.229C308.604 216.076 308.607 215.918 308.578 215.764C307.998 213.793 306.536 209.025 305.766 209.089Z" fill="black"/>
</g>
<path d="M313.396 206.722C312.385 206.807 310.853 212.84 310.231 215.489C310.204 215.69 310.218 215.894 310.271 216.089C310.323 216.284 310.415 216.467 310.539 216.627C310.663 216.787 310.818 216.92 310.994 217.019C311.171 217.119 311.365 217.182 311.566 217.206C312.953 217.568 314.406 217.594 315.805 217.283C316.009 217.262 316.207 217.198 316.386 217.096C316.564 216.993 316.719 216.855 316.842 216.69C316.964 216.524 317.05 216.335 317.096 216.135C317.141 215.934 317.144 215.726 317.105 215.524C316.342 212.917 314.413 206.644 313.396 206.722Z" fill="#455A64"/>
<g opacity="0.3">
<path d="M313.396 206.722C312.385 206.807 310.853 212.84 310.231 215.489C310.204 215.69 310.218 215.894 310.271 216.089C310.323 216.284 310.415 216.467 310.539 216.627C310.663 216.787 310.818 216.92 310.994 217.019C311.171 217.119 311.365 217.182 311.566 217.206C312.953 217.568 314.406 217.594 315.805 217.283C316.009 217.262 316.207 217.198 316.386 217.096C316.564 216.993 316.719 216.855 316.842 216.69C316.964 216.524 317.05 216.335 317.096 216.135C317.141 215.934 317.144 215.726 317.105 215.524C316.342 212.917 314.413 206.644 313.396 206.722Z" fill="black"/>
</g>
<path d="M84.8659 293.743C84.8659 296.837 70.5744 299.345 52.9485 299.345C35.3225 299.345 21.0381 296.837 21.0381 293.743C21.0381 293.361 21.1158 290.67 21.1158 290.67C24.0617 288.112 37.4984 288.14 52.9485 288.14C68.2361 288.14 81.7788 287.434 84.8024 290.733C84.8659 290.797 84.8659 293.333 84.8659 293.743Z" fill="#263238"/>
<path d="M52.9485 295.678C70.5721 295.678 84.8589 293.395 84.8589 290.578C84.8589 287.761 70.5721 285.477 52.9485 285.477C35.3249 285.477 21.0381 287.761 21.0381 290.578C21.0381 293.395 35.3249 295.678 52.9485 295.678Z" fill="#455A64"/>
<path d="M48.3707 269.137C46.8307 269.292 44.4994 280.822 43.5527 285.88C43.4251 286.575 43.5576 287.292 43.925 287.895C44.2924 288.499 44.8691 288.945 45.5449 289.151C47.6291 289.841 49.8714 289.898 51.9878 289.313C52.6896 289.114 53.2873 288.652 53.656 288.023C54.0246 287.393 54.1357 286.646 53.9658 285.936C52.8355 280.977 49.8967 268.982 48.3707 269.137Z" fill="#455A64"/>
<path d="M55.294 276.152C54.2625 276.258 52.7154 283.923 52.0867 287.286C52.0033 287.751 52.095 288.231 52.3441 288.632C52.5932 289.034 52.9821 289.329 53.436 289.461C54.8212 289.919 56.3109 289.956 57.7171 289.567C58.1821 289.432 58.5778 289.124 58.8234 288.706C59.0689 288.289 59.1457 287.793 59.0381 287.321C58.261 284.022 56.3183 276.046 55.294 276.152Z" fill="#455A64"/>
<path d="M42.3376 277.911C41.2073 278.017 39.5118 285.647 38.8054 288.995C38.7259 289.479 38.8367 289.975 39.1145 290.379C39.3923 290.784 39.8157 291.065 40.296 291.164C41.834 291.62 43.4664 291.654 45.0221 291.263C45.5044 291.155 45.9242 290.86 46.1891 290.443C46.454 290.025 46.5425 289.52 46.435 289.038C45.6297 285.746 43.4679 277.805 42.3376 277.911Z" fill="#263238"/>
<path d="M53.3157 285.477C52.6516 285.533 51.6485 290.012 51.2387 291.976C51.1945 292.26 51.2607 292.55 51.4236 292.787C51.5865 293.023 51.8338 293.188 52.1147 293.248C53.0152 293.519 53.9721 293.541 54.884 293.312C55.1684 293.258 55.4202 293.095 55.5843 292.856C55.7485 292.618 55.8116 292.325 55.76 292.04C55.2655 290.076 54.0222 285.413 53.3157 285.477Z" fill="#263238"/>
<path d="M60.5005 280.03C59.6034 280.101 58.254 285.435 57.6747 287.801C57.651 287.979 57.6628 288.159 57.7095 288.332C57.7562 288.505 57.8367 288.667 57.9465 288.808C58.0563 288.949 58.1932 289.067 58.349 289.155C58.5049 289.243 58.6767 289.299 58.8545 289.32C60.0794 289.64 61.3626 289.664 62.5987 289.391C62.7798 289.371 62.9547 289.313 63.1126 289.222C63.2704 289.131 63.4077 289.009 63.5159 288.862C63.624 288.716 63.7007 288.548 63.741 288.37C63.7813 288.193 63.7845 288.009 63.7502 287.83C63.1073 285.506 61.3977 279.946 60.5005 280.03Z" fill="#455A64"/>
<g opacity="0.3">
<path d="M60.5005 280.03C59.6034 280.101 58.254 285.435 57.6747 287.801C57.651 287.979 57.6628 288.159 57.7095 288.332C57.7562 288.505 57.8367 288.667 57.9465 288.808C58.0563 288.949 58.1932 289.067 58.349 289.155C58.5049 289.243 58.6767 289.299 58.8545 289.32C60.0794 289.64 61.3626 289.664 62.5987 289.391C62.7798 289.371 62.9547 289.313 63.1126 289.222C63.2704 289.131 63.4077 289.009 63.5159 288.862C63.624 288.716 63.7007 288.548 63.741 288.37C63.7813 288.193 63.7845 288.009 63.7502 287.83C63.1073 285.506 61.3977 279.946 60.5005 280.03Z" fill="black"/>
</g>
<path d="M69.3948 277.268C68.215 277.36 66.4347 284.396 65.7071 287.483C65.5022 288.366 66.1804 289.221 67.2613 289.475C68.8783 289.901 70.5736 289.935 72.2064 289.574C73.3156 289.306 73.9867 288.416 73.7253 287.519C72.8281 284.488 70.5745 277.204 69.3948 277.268Z" fill="#455A64"/>
<g opacity="0.3">
<path d="M69.3948 277.268C68.215 277.36 66.4347 284.396 65.7071 287.483C65.5022 288.366 66.1804 289.221 67.2613 289.475C68.8783 289.901 70.5736 289.935 72.2064 289.574C73.3156 289.306 73.9867 288.416 73.7253 287.519C72.8281 284.488 70.5745 277.204 69.3948 277.268Z" fill="black"/>
</g>
<path d="M269.914 84.103L252.811 85.961V88.695C252.811 88.695 259.797 88.9917 262.793 93.9792H277.042C280.03 88.9917 287.024 88.695 287.024 88.695V85.961L269.914 84.103Z" fill="#E0E0E0"/>
<g opacity="0.3">
<path d="M269.914 84.103L252.811 85.961V88.695C252.811 88.695 259.797 88.9917 262.793 93.9792H277.042C280.03 88.9917 287.024 88.695 287.024 88.695V85.961L269.914 84.103Z" fill="black"/>
</g>
<path d="M248.325 85.961H291.291L283.365 80.3235H256.463L248.325 85.961Z" fill="#E0E0E0"/>
<path d="M264.806 75.7458C261.775 76.4947 258.173 77.8652 256.463 80.3236H283.365C283.365 80.3236 281.514 77.2082 275.685 75.6893C272.111 74.8 268.371 74.8194 264.806 75.7458Z" fill="#E0E0E0"/>
<path d="M295.784 88.0664H243.966V89.3168H295.784V88.0664Z" fill="#E0E0E0"/>
<path d="M281.973 93.9792H258.286V95.2297H281.973V93.9792Z" fill="#E0E0E0"/>
<path d="M263.619 95.2368L267.406 99.0305H272.316L276.314 95.2368H263.619Z" fill="#E0E0E0"/>
<path d="M270.041 53.2029C270.147 53.2029 270.225 58.0703 270.225 64.0681C270.225 70.0659 270.147 74.9404 270.041 74.9404C269.935 74.9404 269.857 70.0729 269.857 64.0681C269.857 58.0633 269.942 53.2029 270.041 53.2029Z" fill="#263238"/>
<path d="M263.619 225.563C263.619 225.563 266.318 133.018 266.685 127.267C267.053 121.517 267.533 97.5962 267.533 97.5962H270.359L270.649 225.598L263.619 225.563Z" fill="#E0E0E0"/>
<path d="M277.19 225.563C277.19 225.563 273.503 133.018 273.135 127.267C272.768 121.517 272.287 97.5962 272.287 97.5962H269.462L270.196 225.633L277.19 225.563Z" fill="#E0E0E0"/>
<path d="M283.315 80.2176C283.315 80.3165 277.303 80.4154 269.893 80.4295C262.482 80.4437 256.47 80.373 256.47 80.2741C256.47 80.1752 262.482 80.0763 269.893 80.0622C277.303 80.0481 283.315 80.1046 283.315 80.2176Z" fill="#263238"/>
<path d="M271.659 51.5923C271.659 51.5923 271.616 51.451 271.539 51.2179C271.43 50.8918 271.22 50.6094 270.938 50.4125C270.736 50.267 270.501 50.1745 270.254 50.1436C270.007 50.1128 269.757 50.1445 269.525 50.2359C269.249 50.3393 269.011 50.5246 268.843 50.767C268.675 51.0094 268.585 51.2973 268.585 51.5923C268.585 51.8873 268.675 52.1752 268.843 52.4176C269.011 52.66 269.249 52.8453 269.525 52.9487C269.757 53.0401 270.007 53.0718 270.254 53.041C270.501 53.0101 270.736 52.9176 270.938 52.7721C271.22 52.5752 271.43 52.2928 271.539 51.9667C271.616 51.7336 271.63 51.5923 271.659 51.5923C271.687 51.5923 271.715 51.7336 271.659 52.002C271.596 52.3871 271.392 52.7349 271.086 52.9769C270.856 53.1633 270.582 53.2877 270.29 53.3384C269.999 53.3891 269.699 53.3644 269.419 53.2666C269.072 53.1454 268.771 52.9191 268.558 52.6191C268.344 52.3191 268.23 51.9603 268.23 51.5923C268.23 51.2243 268.344 50.8655 268.558 50.5655C268.771 50.2655 269.072 50.0392 269.419 49.918C269.699 49.8202 269.999 49.7955 270.29 49.8462C270.582 49.8969 270.856 50.0213 271.086 50.2077C271.392 50.4497 271.596 50.7975 271.659 51.1826C271.715 51.451 271.68 51.5923 271.659 51.5923Z" fill="#263238"/>
<path d="M278.808 79.0872H257.53C257.892 78.7405 258.296 78.4393 258.731 78.19L278.808 78.0911V79.0872Z" fill="#347683"/>
<path d="M288.67 84.1029C288.398 84.1561 288.121 84.1798 287.844 84.1736L285.583 84.2301C283.676 84.2301 281.04 84.2866 278.13 84.2866H273.072H273.022L272.98 84.2442C271.779 83.121 270.79 82.1743 270.098 81.5032C269.718 81.1689 269.368 80.8026 269.052 80.4082C269.468 80.6933 269.861 81.0123 270.225 81.3619C270.931 81.9977 271.977 82.909 273.199 84.0111L273.086 83.9687H278.144C281.055 83.9687 283.69 83.9687 285.597 84.0252L287.858 84.0818C288.128 84.0531 288.401 84.0602 288.67 84.1029Z" fill="#263238"/>
<path d="M282.05 95.2579C282.05 95.3568 276.717 95.4416 270.133 95.4416C263.549 95.4416 258.208 95.3568 258.208 95.2579C258.208 95.159 263.549 95.0742 270.133 95.0742C276.717 95.0742 282.05 95.1519 282.05 95.2579Z" fill="#263238"/>
<path d="M282.05 93.9017C282.05 94.0006 276.717 94.0854 270.133 94.0854C263.549 94.0854 258.208 94.0006 258.208 93.9017C258.208 93.8028 263.549 93.7109 270.133 93.7109C276.717 93.7109 282.05 93.7957 282.05 93.9017Z" fill="#263238"/>
<path d="M277.19 225.563C277.19 225.563 277.19 225.344 277.148 224.913C277.105 224.482 277.098 223.839 277.056 223.005C276.985 221.31 276.872 218.837 276.738 215.651C276.477 209.251 276.102 200.01 275.636 188.573C274.739 165.684 273.517 134.028 272.104 98.9386L272.224 99.1081C271.491 98.8193 270.708 98.68 269.921 98.6984C269.063 98.7095 268.217 98.9047 267.441 99.2706L267.547 99.1152C266.48 134.169 265.52 165.783 264.827 188.637C264.46 200.053 264.163 209.286 263.958 215.665C263.852 218.852 263.768 221.317 263.711 223.005C263.676 223.839 263.655 224.475 263.633 224.913C263.612 225.351 263.598 225.563 263.598 225.563C263.598 225.563 263.598 225.344 263.598 224.913C263.598 224.482 263.598 223.839 263.633 223.005C263.676 221.317 263.739 218.844 263.817 215.665C263.994 209.307 264.248 200.046 264.566 188.63C265.23 165.776 266.156 134.162 267.18 99.101V98.988L267.279 98.9386C268.07 98.5698 268.928 98.3641 269.8 98.3338C270.673 98.3034 271.543 98.449 272.358 98.7619L272.471 98.8043V98.9244C273.806 134.014 275.007 165.67 275.869 188.559C276.286 199.996 276.625 209.244 276.858 215.644C276.964 218.83 277.049 221.296 277.105 222.998C277.105 223.832 277.148 224.475 277.162 224.913C277.176 225.351 277.19 225.563 277.19 225.563Z" fill="#263238"/>
<path d="M150.827 34.6796L129.288 20.3528V69.3452L147.888 53.6902L150.827 34.6796Z" fill="#E0E0E0"/>
<path d="M132.573 22.981C132.679 22.981 132.756 31.2464 132.756 41.4405C132.756 51.6346 132.679 59.9001 132.573 59.9001C132.467 59.9001 132.389 51.6346 132.389 41.4405C132.389 31.2464 132.474 22.981 132.573 22.981Z" fill="#263238"/>
<path d="M136.953 25.8491C137.052 25.8491 137.136 34.1146 137.136 44.3087C137.136 54.5028 137.052 62.7753 136.953 62.7753C136.854 62.7753 136.769 54.5098 136.769 44.3087C136.769 34.1075 136.854 25.8491 136.953 25.8491Z" fill="#263238"/>
<path d="M141.368 28.1025C141.467 28.1025 141.552 36.368 141.552 46.5621C141.552 56.7562 141.467 65.0217 141.368 65.0217C141.269 65.0217 141.184 56.7562 141.184 46.5621C141.184 36.368 141.269 28.1025 141.368 28.1025Z" fill="#263238"/>
<path d="M145.783 31.0486C145.882 31.0486 145.967 39.1586 145.967 49.162C145.967 59.1653 145.882 67.2754 145.783 67.2754C145.684 67.2754 145.6 59.1653 145.6 49.162C145.6 39.1586 145.677 31.0486 145.783 31.0486Z" fill="#263238"/>
<path d="M157.079 23.5249C155.575 23.5249 120.21 54.6935 123.219 118.747V245.993H157.079V23.5249Z" fill="#347683"/>
<path d="M128.963 206.241C128.864 206.241 128.779 176.153 128.779 139.051C128.779 101.948 128.864 71.8459 128.963 71.8459C129.062 71.8459 129.146 101.927 129.146 139.051C129.146 176.175 129.062 206.241 128.963 206.241Z" fill="#263238"/>
<g opacity="0.3">
<path d="M157.079 96.4236C155.751 96.5296 138.443 112.601 138.443 112.601V212.783H157.079V96.4236Z" fill="black"/>
</g>
<path d="M145.783 201.48C145.677 201.48 145.6 180.096 145.6 153.717C145.6 127.338 145.677 105.939 145.783 105.939C145.889 105.939 145.967 127.324 145.967 153.717C145.967 180.11 145.861 201.48 145.783 201.48Z" fill="#263238"/>
<path d="M150.008 197.58C149.902 197.58 149.824 176.196 149.824 149.817C149.824 123.438 149.902 102.04 150.008 102.04C150.114 102.04 150.192 123.424 150.192 149.817C150.192 176.21 150.1 197.58 150.008 197.58Z" fill="#263238"/>
<path d="M154.233 193.681C154.127 193.681 154.049 172.367 154.049 146.08C154.049 119.793 154.127 98.4653 154.233 98.4653C154.338 98.4653 154.416 119.779 154.416 146.08C154.416 172.381 154.338 193.681 154.233 193.681Z" fill="#263238"/>
<path d="M157.079 77.8508H142.018V79.7512H157.079V77.8508Z" fill="#455A64"/>
<path d="M157.079 82.012H142.018V83.7145H157.079V82.012Z" fill="#455A64"/>
<path d="M157.079 86.2224H142.018V87.925H157.079V86.2224Z" fill="#455A64"/>
<path d="M140.669 82.012H138.627V83.7145H140.669V82.012Z" fill="#455A64"/>
<path d="M137.496 82.012H135.455V83.7145H137.496V82.012Z" fill="#455A64"/>
<path d="M151.597 28.7949C151.655 29.1878 151.678 29.5849 151.668 29.9818C151.668 30.8012 151.703 31.8962 151.724 33.2102C151.724 35.9371 151.781 39.7025 151.781 43.8635C151.781 46.9719 151.781 49.8542 151.781 52.2774L151.626 52.1219H154.36H154.748V52.3621H154.338V52.1361H154.67H155.638L156.98 52.1784C157.142 52.1743 157.304 52.1909 157.461 52.2279C157.303 52.2597 157.142 52.2739 156.98 52.2703L155.638 52.3127H154.67H154.338V52.0866H154.755V52.3268H154.338H151.604H151.449V52.1714C151.449 49.7483 151.449 46.8659 151.449 43.7576C151.449 39.5966 151.449 35.8312 151.498 33.1043C151.498 31.7903 151.548 30.6953 151.562 29.8758C151.546 29.5151 151.557 29.1537 151.597 28.7949Z" fill="#263238"/>
<path d="M157.079 54.9124H151.986V56.841H157.079V54.9124Z" fill="#455A64"/>
<path d="M141.559 205.379C141.46 205.379 141.375 183.995 141.375 157.616C141.375 131.237 141.46 109.839 141.559 109.839C141.658 109.839 141.742 131.223 141.742 157.616C141.742 184.009 141.658 205.379 141.559 205.379Z" fill="#263238"/>
<path d="M234.577 64.4778C233.341 64.4778 204.355 90.0301 206.821 142.541V246.862H234.577V64.4778Z" fill="#E0E0E0"/>
<path d="M211.561 214.274C211.462 214.274 211.377 189.604 211.377 159.171C211.377 128.737 211.462 104.067 211.561 104.067C211.66 104.067 211.745 128.73 211.745 159.171C211.745 189.612 211.624 214.274 211.561 214.274Z" fill="#263238"/>
<path d="M234.577 124.237C233.461 124.328 219.332 137.475 219.332 137.475V219.636H234.605L234.577 124.237Z" fill="#455A64"/>
<path d="M234.577 109.012H222.228V110.567H234.577V109.012Z" fill="#455A64"/>
<path d="M234.577 112.425H222.228V113.824H234.577V112.425Z" fill="#455A64"/>
<path d="M234.577 115.879H222.228V117.278H234.577V115.879Z" fill="#455A64"/>
<path d="M221.126 112.425H219.452V113.824H221.126V112.425Z" fill="#455A64"/>
<path d="M218.52 112.425H216.845V113.824H218.52V112.425Z" fill="#455A64"/>
<path d="M230.084 68.8013C230.137 69.1234 230.161 69.4497 230.155 69.7762C230.155 70.4826 230.19 71.3586 230.211 72.4254C230.247 74.6578 230.268 77.7449 230.268 81.1571C230.268 83.7003 230.268 86.0599 230.232 88.0521L230.084 87.9037H232.324H232.641V88.1368H232.302V87.9108H232.571H233.362C233.863 87.9042 234.363 87.9325 234.86 87.9955C234.364 88.0683 233.863 88.099 233.362 88.0874H232.571H232.302V87.8613H232.641V88.0944H232.324H230.084H229.929V87.939C229.929 85.9468 229.929 83.5873 229.929 81.0441C229.929 77.6319 229.929 74.5447 229.978 72.3123C229.978 71.2456 230.021 70.3555 230.042 69.6631C230.029 69.3752 230.044 69.0866 230.084 68.8013Z" fill="#263238"/>
<path d="M234.577 90.2068H230.402V91.7892H234.577V90.2068Z" fill="#455A64"/>
<path d="M182.646 71.9663C182.745 71.9663 182.83 76.0637 182.83 81.1502C182.83 86.2366 182.745 90.2916 182.646 90.2916C182.547 90.2916 182.462 86.2013 182.462 81.1502C182.462 76.099 182.54 71.9663 182.646 71.9663Z" fill="#263238"/>
<path d="M187.626 48.0173C187.732 48.0173 187.81 57.4838 187.81 69.1543C187.81 80.8249 187.732 90.2984 187.626 90.2984C187.52 90.2984 187.443 80.839 187.443 69.1543C187.443 57.4696 187.542 48.0173 187.626 48.0173Z" fill="#263238"/>
<path d="M194.966 89.2036H177.651V250.741H194.966V89.2036Z" fill="#E0E0E0"/>
<path d="M194.973 237.043H183.458V109.79L194.973 100.613V237.043Z" fill="#263238"/>
<path d="M194.543 118.656C192.693 118.837 190.833 118.899 188.976 118.839C187.118 118.899 185.259 118.837 183.409 118.656C185.258 118.47 187.118 118.408 188.976 118.472C190.833 118.408 192.693 118.47 194.543 118.656Z" fill="#455A64"/>
<path d="M194.543 133.675C192.693 133.856 190.833 133.918 188.976 133.858C187.118 133.918 185.259 133.856 183.409 133.675C185.259 133.493 187.118 133.431 188.976 133.491C190.833 133.431 192.693 133.493 194.543 133.675Z" fill="#455A64"/>
<path d="M194.543 148.694C192.693 148.88 190.833 148.941 188.976 148.878C187.118 148.941 185.258 148.88 183.409 148.694C185.259 148.512 187.118 148.451 188.976 148.51C190.833 148.451 192.693 148.512 194.543 148.694Z" fill="#455A64"/>
<path d="M194.543 163.713C192.694 163.904 190.834 163.967 188.976 163.904C187.118 163.967 185.258 163.904 183.409 163.713C185.259 163.531 187.118 163.47 188.976 163.529C190.833 163.47 192.693 163.531 194.543 163.713Z" fill="#455A64"/>
<path d="M194.543 178.739C192.693 178.921 190.833 178.982 188.976 178.923C187.118 178.982 185.259 178.921 183.409 178.739C185.258 178.553 187.118 178.492 188.976 178.556C190.833 178.492 192.693 178.553 194.543 178.739Z" fill="#455A64"/>
<path d="M194.543 193.758C192.693 193.94 190.833 194.001 188.976 193.942C187.118 194.001 185.259 193.94 183.409 193.758C185.259 193.577 187.118 193.515 188.976 193.575C190.833 193.515 192.693 193.577 194.543 193.758Z" fill="#455A64"/>
<path d="M194.543 208.777C192.693 208.963 190.833 209.025 188.976 208.961C187.118 209.025 185.258 208.963 183.409 208.777C185.259 208.596 187.118 208.534 188.976 208.594C190.833 208.534 192.693 208.596 194.543 208.777Z" fill="#455A64"/>
<path d="M194.543 223.797C192.693 223.983 190.833 224.044 188.976 223.98C187.118 224.044 185.258 223.983 183.409 223.797C185.259 223.615 187.118 223.554 188.976 223.613C190.833 223.554 192.693 223.615 194.543 223.797Z" fill="#455A64"/>
<path d="M189.223 46.9013C189.223 46.9013 189.18 46.7601 189.103 46.534C188.993 46.2144 188.789 45.9359 188.516 45.7357C188.318 45.5978 188.089 45.5103 187.849 45.4808C187.609 45.4513 187.365 45.4806 187.139 45.5661C186.859 45.6607 186.615 45.8407 186.443 46.0809C186.27 46.321 186.178 46.6092 186.178 46.9049C186.178 47.2005 186.27 47.4887 186.443 47.7289C186.615 47.969 186.859 48.1491 187.139 48.2436C187.365 48.33 187.609 48.3591 187.85 48.3283C188.09 48.2975 188.319 48.2077 188.516 48.067C188.789 47.8706 188.994 47.594 189.103 47.2758C189.18 47.0497 189.195 46.9013 189.223 46.9013C189.251 46.9013 189.286 47.0497 189.223 47.3111C189.154 47.6917 188.951 48.0351 188.651 48.2789C188.423 48.4622 188.152 48.5844 187.864 48.6339C187.576 48.6833 187.28 48.6584 187.005 48.5615C186.66 48.4428 186.36 48.2193 186.148 47.9224C185.937 47.6254 185.823 47.2697 185.823 46.9049C185.823 46.5401 185.937 46.1844 186.148 45.8874C186.36 45.5904 186.66 45.367 187.005 45.2482C187.28 45.1513 187.576 45.1264 187.864 45.1759C188.152 45.2253 188.423 45.3475 188.651 45.5308C188.951 45.7746 189.154 46.118 189.223 46.4987C189.286 46.7742 189.244 46.9013 189.223 46.9013Z" fill="#263238"/>
<path d="M310.747 255.085C310.747 259.96 243.45 263.916 160.428 263.916C77.4059 263.916 10.1094 259.96 10.1094 255.085C10.1094 254.485 10.4979 250.239 10.4979 250.239C24.3656 246.198 87.6494 246.248 160.428 246.248C232.43 246.248 296.208 245.11 310.471 250.338C310.747 250.437 310.747 254.435 310.747 255.085Z" fill="#263238"/>
<path d="M160.428 259.706C243.447 259.706 310.747 255.752 310.747 250.875C310.747 245.998 243.447 242.044 160.428 242.044C77.4093 242.044 10.1094 245.998 10.1094 250.875C10.1094 255.752 77.4093 259.706 160.428 259.706Z" fill="#455A64"/>
<path d="M40.1476 148.228L25.3687 149.838V152.198C25.3687 152.198 31.4088 152.452 33.9944 156.769H46.3008C48.8935 152.452 54.9266 152.198 54.9266 152.198V149.838L40.1476 148.228Z" fill="#E0E0E0"/>
<g opacity="0.3">
<path d="M40.1476 148.228L25.3687 149.838V152.198C25.3687 152.198 31.4088 152.452 33.9944 156.769H46.3008C48.8935 152.452 54.9266 152.198 54.9266 152.198V149.838L40.1476 148.228Z" fill="black"/>
</g>
<path d="M21.4973 149.838H58.6143L51.7687 144.964H28.5265L21.4973 149.838Z" fill="#E0E0E0"/>
<path d="M35.7324 141.008C33.1185 141.658 30.0102 142.844 28.5266 144.964H51.7688C51.7688 144.964 50.1723 142.272 45.1353 140.965C42.0461 140.199 38.8146 140.213 35.7324 141.008Z" fill="#E0E0E0"/>
<path d="M62.4997 151.654H17.739V152.735H62.4997V151.654Z" fill="#E0E0E0"/>
<path d="M50.575 156.769H30.1091V157.849H50.575V156.769Z" fill="#E0E0E0"/>
<path d="M34.708 157.849L37.9859 161.127H42.2246L45.6792 157.849H34.708Z" fill="#E0E0E0"/>
<path d="M40.2606 121.538C40.3665 121.538 40.4443 125.741 40.4443 130.927C40.4443 136.112 40.3665 140.315 40.2606 140.315C40.1546 140.315 40.0769 136.112 40.0769 130.927C40.0769 125.741 40.1617 121.538 40.2606 121.538Z" fill="#263238"/>
<path d="M34.708 251.504C34.708 251.504 37.0393 190.48 37.3643 185.521C37.6892 180.562 38.0707 159.863 38.0707 159.863H40.5221L40.7694 251.511L34.708 251.504Z" fill="#E0E0E0"/>
<path d="M46.435 251.504C46.435 251.504 43.2489 190.48 42.9027 185.521C42.5565 180.562 42.1963 159.863 42.1963 159.863H39.7449L40.3807 251.511L46.435 251.504Z" fill="#E0E0E0"/>
<path d="M51.7265 144.872C51.7265 144.978 46.534 145.07 40.1265 145.084C33.719 145.098 28.5266 145.027 28.5266 144.921C28.5266 144.815 33.719 144.731 40.1265 144.716C46.534 144.702 51.7265 144.773 51.7265 144.872Z" fill="#263238"/>
<path d="M41.6525 120.146C41.5579 119.752 41.3371 119.4 41.0238 119.143C40.8546 119.023 40.6584 118.946 40.4525 118.92C40.2467 118.895 40.0376 118.92 39.844 118.995C39.6123 119.085 39.4133 119.243 39.273 119.449C39.1327 119.654 39.0576 119.897 39.0576 120.146C39.0576 120.395 39.1327 120.638 39.273 120.843C39.4133 121.049 39.6123 121.207 39.844 121.298C40.0376 121.372 40.2467 121.398 40.4525 121.372C40.6584 121.346 40.8546 121.269 41.0238 121.149C41.3371 120.892 41.5579 120.54 41.6525 120.146C41.6525 120.146 41.7161 120.273 41.6525 120.506C41.5942 120.839 41.4188 121.14 41.158 121.354C40.9584 121.519 40.7196 121.63 40.4647 121.676C40.2097 121.722 39.9473 121.701 39.7027 121.615C39.3968 121.51 39.1314 121.312 38.9436 121.048C38.7557 120.785 38.6548 120.47 38.6548 120.146C38.6548 119.823 38.7557 119.507 38.9436 119.244C39.1314 118.98 39.3968 118.782 39.7027 118.677C39.9469 118.592 40.2087 118.57 40.4633 118.615C40.718 118.659 40.9571 118.768 41.158 118.931C41.4203 119.147 41.5958 119.451 41.6525 119.786C41.7161 120.019 41.6737 120.146 41.6525 120.146Z" fill="#263238"/>
<path d="M47.8338 143.897H29.4661C29.781 143.599 30.1295 143.338 30.5045 143.12L47.8479 143.042L47.8338 143.897Z" fill="#347683"/>
<path d="M56.3535 148.228C56.1225 148.284 55.8847 148.308 55.6471 148.298L53.6902 148.362C52.0442 148.362 49.7694 148.411 47.2544 148.411H42.8885H42.825L42.7755 148.369C41.7441 147.394 40.8893 146.574 40.2959 145.988C39.9624 145.704 39.6615 145.385 39.3987 145.034C39.7598 145.261 40.1002 145.518 40.416 145.804C41.0447 146.348 41.9348 147.133 42.9874 148.079L42.8815 148.037H47.2474C49.7623 148.037 52.0371 148.037 53.6831 148.093C54.5097 148.093 55.1808 148.129 55.64 148.15C55.8801 148.147 56.1197 148.173 56.3535 148.228Z" fill="#263238"/>
<path d="M50.6384 157.864C50.6384 157.97 46.0253 158.047 40.3384 158.047C34.6515 158.047 30.0383 157.97 30.0383 157.864C30.0383 157.758 34.6515 157.68 40.3384 157.68C46.0253 157.68 50.6384 157.765 50.6384 157.864Z" fill="#263238"/>
<path d="M50.6384 156.691C50.6384 156.797 46.0253 156.874 40.3384 156.874C34.6515 156.874 30.0383 156.797 30.0383 156.691C30.0383 156.585 34.6515 156.507 40.3384 156.507C46.0253 156.507 50.6384 156.592 50.6384 156.691Z" fill="#263238"/>
<path d="M42.2175 161.043C42.1821 161.149 41.2567 160.816 40.0981 160.866C38.9395 160.915 38.0211 161.29 37.9788 161.191C38.5736 160.702 39.3286 160.45 40.0981 160.484C40.8488 160.408 41.6016 160.607 42.2175 161.043Z" fill="#263238"/>
<path d="M90.4824 204.56L123.226 195.235L123.142 201.84L90.4824 212.317V205.379" fill="#455A64"/>
<path d="M65.8909 248.431H120.938L123.226 200.053L88.2854 210.113L50.9141 225.796L48.272 232.917L65.8909 248.431Z" fill="#263238"/>
<path d="M70.3696 254.76C70.3696 254.76 41.2355 252.041 40.6986 251.574C40.1617 251.108 40.0911 232.917 40.0911 232.917L56.3394 242.92L70.3696 254.76Z" fill="#263238"/>
<path d="M87.5293 251.772C87.5293 251.772 63.0225 244.036 54.0718 233.878C54.0718 233.878 49.4445 228.424 59.0169 223.818C66.5618 220.187 102.315 208.318 102.315 208.318V201.162C102.315 201.162 53.8387 213.666 42.3518 226.877C37.9718 231.907 40.2324 236.718 42.8533 239.452C52.998 250.105 70.3484 254.746 70.3484 254.746L87.5293 251.772Z" fill="#455A64"/>
<path d="M162.773 109.776L119.207 144.632V157.397H128.136C139.821 157.715 152.297 168.948 152.297 183.981C152.297 198.047 141.813 209.131 128.136 210.572H119.207V248.07L162.773 248.417C163.028 247.654 171.865 131.146 171.83 109.776H162.773Z" fill="#E0E0E0"/>
<g opacity="0.3">
<path d="M162.773 109.776L119.207 144.632V157.397H128.136C139.821 157.715 152.297 168.948 152.297 183.981C152.297 198.047 141.813 209.131 128.136 210.572H119.207V248.07L162.773 248.417C163.028 247.654 171.865 131.146 171.83 109.776H162.773Z" fill="black"/>
</g>
<path d="M134 211.229C137.829 211.236 141.617 210.436 145.116 208.879C148.615 207.323 151.747 205.047 154.307 202.199C156.866 199.35 158.796 195.994 159.971 192.349C161.146 188.704 161.538 184.853 161.124 181.046C160.709 177.239 159.496 173.562 157.564 170.256C155.632 166.949 153.024 164.088 149.911 161.857C146.798 159.627 143.25 158.078 139.498 157.312C135.746 156.546 131.874 156.58 128.136 157.412V144.646L171.703 109.776C171.703 109.776 171.986 247.534 171.703 248.417L128.136 248.07V210.586C130.062 211.013 132.028 211.228 134 211.229Z" fill="#E0E0E0"/>
<path d="M154.586 116.324C154.586 116.324 154.776 116.324 155.165 116.324H156.875L163.515 116.282H163.6V116.374C163.6 128.115 163.657 151.294 163.699 177.927C163.699 197.383 163.657 215.001 163.642 227.767C163.642 234.125 163.6 239.296 163.586 242.878C163.586 244.644 163.586 246.029 163.551 246.982C163.551 246.029 163.551 244.644 163.551 242.878C163.551 239.296 163.551 234.139 163.487 227.767C163.487 215.001 163.487 197.39 163.438 177.927C163.473 151.294 163.515 128.115 163.529 116.374L163.621 116.459L156.981 116.416H155.271C154.776 116.338 154.586 116.324 154.586 116.324Z" fill="#263238"/>
<path d="M171.774 150.955C171.774 151.054 160.004 151.138 145.487 151.138C130.969 151.138 119.207 151.054 119.207 150.955C119.207 150.856 130.969 150.764 145.487 150.764C160.004 150.764 171.774 150.849 171.774 150.955Z" fill="#263238"/>
<path d="M150.954 229.936H158.203V229.208H150.954V229.936Z" fill="#263238"/>
<path d="M150.954 231.525H158.203V230.798H150.954V231.525Z" fill="#263238"/>
<path d="M150.954 233.122H158.203V232.394H150.954V233.122Z" fill="#263238"/>
<path d="M150.954 234.718H158.203V233.991H150.954V234.718Z" fill="#263238"/>
<path d="M150.954 236.251H158.203V235.524H150.954V236.251Z" fill="#263238"/>
<path d="M150.954 237.841H158.203V237.113H150.954V237.841Z" fill="#263238"/>
<path d="M150.954 239.438H158.203V238.71H150.954V239.438Z" fill="#263238"/>
<path d="M150.954 241.034H158.203V240.306H150.954V241.034Z" fill="#263238"/>
<path d="M150.954 154.699H158.203V153.971H150.954V154.699Z" fill="#263238"/>
<path d="M150.954 156.295H158.203V155.568H150.954V156.295Z" fill="#263238"/>
<path d="M150.954 157.885H158.203V157.157H150.954V157.885Z" fill="#263238"/>
<path d="M150.954 159.481H158.203V158.754H150.954V159.481Z" fill="#263238"/>
<path d="M119.214 145.875H140.414V144.625H119.214V145.875Z" fill="#455A64"/>
<path d="M127.931 210.452C126.484 210.638 125.023 210.699 123.565 210.635C122.11 210.699 120.652 210.638 119.207 210.452C120.652 210.27 122.11 210.209 123.565 210.268C125.023 210.209 126.483 210.27 127.931 210.452Z" fill="#263238"/>
<path d="M171.83 165.098H167.705V167.111H171.83V165.098Z" fill="#455A64"/>
<path d="M171.83 171.505H167.705V173.519H171.83V171.505Z" fill="#455A64"/>
<path d="M171.83 177.913H167.705V179.926H171.83V177.913Z" fill="#455A64"/>
<path d="M171.83 184.32H167.705V186.334H171.83V184.32Z" fill="#455A64"/>
<path d="M171.83 190.72H167.705V192.734H171.83V190.72Z" fill="#455A64"/>
<path d="M171.83 197.128H167.705V199.142H171.83V197.128Z" fill="#455A64"/>
<path d="M171.83 203.536H167.705V205.549H171.83V203.536Z" fill="#455A64"/>
<path d="M171.83 209.943H167.705V211.957H171.83V209.943Z" fill="#455A64"/>
<path d="M171.83 216.351H167.705V218.364H171.83V216.351Z" fill="#455A64"/>
<path d="M82.1461 106.123L65.043 107.988V110.715C65.043 110.715 72.0298 111.019 75.0251 116.006H89.2672C92.2625 111.019 99.2493 110.715 99.2493 110.715V107.988L82.1461 106.123Z" fill="#E0E0E0"/>
<g opacity="0.3">
<path d="M82.1461 106.123L65.043 107.988V110.715C65.043 110.715 72.0298 111.019 75.0251 116.006H89.2672C92.2625 111.019 99.2493 110.715 99.2493 110.715V107.988L82.1461 106.123Z" fill="black"/>
</g>
<path d="M60.5569 107.988H103.516L95.5969 102.344H68.6952L60.5569 107.988Z" fill="#E0E0E0"/>
<path d="M77.0385 97.7659C74.0078 98.5218 70.4049 99.8853 68.6953 102.344H95.597C95.597 102.344 93.7461 99.2353 87.9178 97.7164C84.3437 96.8284 80.6045 96.8454 77.0385 97.7659Z" fill="#E0E0E0"/>
<path d="M108.016 110.093H56.1982V111.344H108.016V110.093Z" fill="#E0E0E0"/>
<path d="M94.2054 116.006H70.5181V117.257H94.2054V116.006Z" fill="#E0E0E0"/>
<path d="M75.8518 117.264L79.6384 121.05H84.5482L88.5467 117.264H75.8518Z" fill="#E0E0E0"/>
<path d="M82.2804 75.23C82.3863 75.23 82.464 80.0974 82.464 86.0952C82.464 92.093 82.3863 96.9604 82.2804 96.9604C82.1744 96.9604 82.0967 92.1 82.0967 86.0952C82.0967 80.0904 82.1744 75.23 82.2804 75.23Z" fill="#263238"/>
<path d="M75.8518 247.59C75.8518 247.59 78.5504 155.045 78.9178 149.287C79.2852 143.53 79.7655 119.616 79.7655 119.616H82.5913L82.8739 247.618L75.8518 247.59Z" fill="#E0E0E0"/>
<path d="M89.4227 247.59C89.4227 247.59 85.735 155.045 85.3676 149.287C85.0003 143.53 84.5199 119.616 84.5199 119.616H81.6941L82.4359 247.696L89.4227 247.59Z" fill="#E0E0E0"/>
<path d="M95.5405 102.238C95.5405 102.344 89.5356 102.435 82.1179 102.457C74.7002 102.478 68.6953 102.4 68.6953 102.294C68.6953 102.188 74.7002 102.103 82.1179 102.082C89.5356 102.061 95.5405 102.139 95.5405 102.238Z" fill="#263238"/>
<path d="M83.8911 73.6194C83.8558 73.6194 83.8487 73.471 83.771 73.2379C83.6605 72.9149 83.4502 72.6354 83.1705 72.4396C82.9687 72.2941 82.7336 72.2016 82.4867 72.1707C82.2398 72.1399 81.9891 72.1716 81.7576 72.263C81.4814 72.3664 81.2432 72.5517 81.0751 72.7941C80.907 73.0365 80.8169 73.3244 80.8169 73.6194C80.8169 73.9144 80.907 74.2023 81.0751 74.4447C81.2432 74.6871 81.4814 74.8724 81.7576 74.9758C81.9891 75.0672 82.2398 75.0989 82.4867 75.0681C82.7336 75.0372 82.9687 74.9447 83.1705 74.7992C83.4507 74.6009 83.661 74.319 83.771 73.9938C83.8487 73.7607 83.8558 73.6194 83.8911 73.6194C83.9264 73.6194 83.9476 73.7607 83.8911 74.0291C83.8257 74.413 83.6221 74.7597 83.3189 75.004C83.0887 75.1904 82.8147 75.3148 82.5229 75.3655C82.2311 75.4162 81.9312 75.3915 81.6517 75.2937C81.3042 75.1725 81.0031 74.9462 80.79 74.6462C80.5769 74.3462 80.4624 73.9874 80.4624 73.6194C80.4624 73.2514 80.5769 72.8926 80.79 72.5926C81.0031 72.2926 81.3042 72.0663 81.6517 71.9451C81.9312 71.8473 82.2311 71.8226 82.5229 71.8733C82.8147 71.924 83.0887 72.0484 83.3189 72.2348C83.6221 72.4791 83.8257 72.8258 83.8911 73.2097C83.9316 73.3432 83.9316 73.4858 83.8911 73.6194Z" fill="#263238"/>
<path d="M91.0403 101.114H69.762C70.1261 100.768 70.5291 100.464 70.9629 100.21L91.0403 100.118V101.114Z" fill="#347683"/>
<path d="M100.903 106.123C100.631 106.18 100.353 106.204 100.076 106.194L97.8224 106.243C95.915 106.243 93.2799 106.292 90.3693 106.292H85.3112H85.2476L85.2052 106.25C84.0042 105.127 83.0152 104.18 82.3229 103.509C81.9449 103.171 81.593 102.805 81.2703 102.414C81.6937 102.693 82.0888 103.012 82.45 103.368C83.1565 103.997 84.202 104.915 85.4242 106.01L85.3112 105.968H90.3693C93.2799 105.968 95.915 105.968 97.8224 106.024L100.083 106.081C100.357 106.066 100.632 106.08 100.903 106.123Z" fill="#263238"/>
<path d="M94.29 117.278C94.29 117.384 88.9492 117.462 82.3722 117.462C75.7951 117.462 70.4473 117.384 70.4473 117.278C70.4473 117.172 75.788 117.094 82.3722 117.094C88.9563 117.094 94.29 117.179 94.29 117.278Z" fill="#263238"/>
<path d="M94.29 115.922C94.29 116.028 88.9492 116.105 82.3722 116.105C75.7951 116.105 70.4473 116.028 70.4473 115.922C70.4473 115.816 75.788 115.738 82.3722 115.738C88.9563 115.738 94.29 115.823 94.29 115.922Z" fill="#263238"/>
<path d="M89.4225 247.59C89.4225 247.59 89.4225 247.371 89.3801 246.94C89.3377 246.509 89.3235 245.859 89.2882 245.025C89.2105 243.337 89.1045 240.864 88.9703 237.678C88.7089 231.278 88.3345 222.03 87.8683 210.6C86.9711 187.704 85.7489 156.055 84.336 120.965L84.4561 121.128C83.7215 120.846 82.9398 120.707 82.1531 120.718C81.2945 120.731 80.4488 120.929 79.6734 121.298L79.7794 121.135C78.7127 156.196 77.7519 187.803 77.0525 210.664C76.6922 222.08 76.3955 231.306 76.1906 237.692C76.0847 240.878 75.9999 243.344 75.9434 245.032C75.9434 245.866 75.8798 246.502 75.8657 246.94C75.8515 247.378 75.8657 247.59 75.8657 247.59C75.8657 247.59 75.8657 247.371 75.8657 246.94C75.8657 246.509 75.8657 245.866 75.8657 245.032C75.908 243.344 75.9716 240.871 76.0493 237.692C76.2259 231.334 76.4803 222.073 76.7982 210.657C77.4622 187.796 78.3877 156.189 79.412 121.128V121.015L79.5109 120.965C80.335 120.574 81.2337 120.364 82.146 120.351C82.9814 120.338 83.8114 120.487 84.5903 120.789L84.6963 120.831V120.951C86.0244 156.041 87.2254 187.697 88.0943 210.586C88.5111 222.023 88.8502 231.271 89.0834 237.671C89.1893 240.857 89.2741 243.323 89.3306 245.025C89.3306 245.859 89.373 246.495 89.3871 246.94C89.4013 247.385 89.4225 247.59 89.4225 247.59Z" fill="#263238"/>
<path d="M276.364 163.275L232.309 195.256V248.077H276.364C276.512 247.632 282.919 178.782 282.884 163.261L276.364 163.275ZM253.538 225.57C252.466 225.569 251.396 225.462 250.345 225.252V225.16C242.779 223.691 238.83 217.085 238.83 209.088C238.83 201.219 242.602 194.592 249.985 192.981C251.145 192.727 252.329 192.597 253.517 192.593C257.83 192.682 261.936 194.458 264.955 197.54C267.974 200.622 269.664 204.764 269.664 209.078C269.664 213.392 267.974 217.534 264.955 220.616C261.936 223.698 257.83 225.474 253.517 225.563L253.538 225.57Z" fill="#E0E0E0"/>
<g opacity="0.3">
<path d="M276.364 163.275L232.309 195.256V248.077H276.364C276.512 247.632 282.919 178.782 282.884 163.261L276.364 163.275ZM253.538 225.57C252.466 225.569 251.396 225.462 250.345 225.252V225.16C242.779 223.691 238.83 217.085 238.83 209.088C238.83 201.219 242.602 194.592 249.985 192.981C251.145 192.727 252.329 192.597 253.517 192.593C257.83 192.682 261.936 194.458 264.955 197.54C267.974 200.622 269.664 204.764 269.664 209.078C269.664 213.392 267.974 217.534 264.955 220.616C261.936 223.698 257.83 225.474 253.517 225.563L253.538 225.57Z" fill="black"/>
</g>
<path d="M282.912 163.275L238.83 195.256V248.078H282.912C283.061 247.583 282.912 163.275 282.912 163.275ZM260.087 225.57C259.017 225.568 257.95 225.462 256.901 225.252V225.16C253.192 224.435 249.846 222.454 247.427 219.55C245.009 216.646 243.665 212.997 243.623 209.217C243.58 205.438 244.842 201.76 247.195 198.803C249.548 195.845 252.849 193.789 256.541 192.981C257.701 192.727 258.885 192.597 260.073 192.593C262.266 192.547 264.447 192.94 266.487 193.748C268.527 194.556 270.385 195.763 271.952 197.299C273.519 198.834 274.765 200.667 275.615 202.689C276.465 204.712 276.903 206.884 276.903 209.078C276.903 211.272 276.465 213.444 275.615 215.467C274.765 217.489 273.519 219.322 271.952 220.857C270.385 222.392 268.527 223.599 266.487 224.407C264.447 225.216 262.266 225.608 260.073 225.563L260.087 225.57Z" fill="#E0E0E0"/>
<path d="M270.02 168.114C270.02 168.114 270.069 168.114 270.154 168.114H270.557H272.104L277.932 168.065H278.031V168.171C278.031 176.111 278.073 189.272 278.109 204.2C278.109 216.322 278.066 227.294 278.052 235.284C278.052 239.24 278.01 242.447 277.996 244.693C277.996 245.788 277.996 246.643 277.96 247.251C277.96 247.533 277.96 247.752 277.96 247.922C277.966 247.997 277.966 248.073 277.96 248.148C277.951 248.073 277.951 247.997 277.96 247.922C277.96 247.752 277.96 247.533 277.96 247.251C277.96 246.643 277.96 245.788 277.96 244.693C277.96 242.447 277.925 239.24 277.897 235.284C277.897 227.315 277.897 216.344 277.847 204.2C277.847 189.286 277.904 176.125 277.925 168.171L278.031 168.277L272.203 168.227H270.656H270.253L270.02 168.114Z" fill="#263238"/>
<path d="M241.295 189.082C241.295 188.976 250.621 188.898 262.115 188.898C273.608 188.898 282.934 188.976 282.934 189.082C282.934 189.188 273.608 189.265 262.115 189.265C250.621 189.265 241.295 189.181 241.295 189.082Z" fill="#263238"/>
<path d="M270.331 236.894H274.718V236.449H270.331V236.894Z" fill="#263238"/>
<path d="M270.331 237.862H274.718V237.417H270.331V237.862Z" fill="#263238"/>
<path d="M270.331 238.823H274.718V238.378H270.331V238.823Z" fill="#263238"/>
<path d="M270.331 239.791H274.718V239.346H270.331V239.791Z" fill="#263238"/>
<path d="M270.331 240.716H274.718V240.271H270.331V240.716Z" fill="#263238"/>
<path d="M270.331 241.684H274.718V241.239H270.331V241.684Z" fill="#263238"/>
<path d="M270.331 242.652H274.718V242.207H270.331V242.652Z" fill="#263238"/>
<path d="M270.331 243.613H274.718V243.167H270.331V243.613Z" fill="#263238"/>
<path d="M270.331 191.349H274.718V190.904H270.331V191.349Z" fill="#263238"/>
<path d="M270.331 192.31H274.718V191.865H270.331V192.31Z" fill="#263238"/>
<path d="M270.331 193.278H274.718V192.833H270.331V193.278Z" fill="#263238"/>
<path d="M270.331 194.246H274.718V193.801H270.331V194.246Z" fill="#263238"/>
<path d="M241.225 196.429H232.309V197.651H241.225V196.429Z" fill="#455A64"/>
<path d="M241.225 200.307H232.309V201.529H241.225V200.307Z" fill="#455A64"/>
<path d="M241.225 204.186H232.309V205.408H241.225V204.186Z" fill="#455A64"/>
<path d="M241.225 208.064H232.309V209.286H241.225V208.064Z" fill="#455A64"/>
<path d="M241.225 211.942H232.309V213.165H241.225V211.942Z" fill="#455A64"/>
<path d="M241.225 215.814H232.309V217.036H241.225V215.814Z" fill="#455A64"/>
<path d="M241.225 219.692H232.309V220.914H241.225V219.692Z" fill="#455A64"/>
<path d="M241.225 223.571H232.309V224.793H241.225V223.571Z" fill="#455A64"/>
<path d="M241.225 227.449H232.309V228.671H241.225V227.449Z" fill="#455A64"/>
<path d="M105.728 180.993L108.589 142.682H103.636L86.5615 151.887V165.055L105.728 180.993Z" fill="#347683"/>
<g opacity="0.3">
<path d="M105.728 180.993L108.589 142.682H103.636L86.5615 151.887V165.055L105.728 180.993Z" fill="black"/>
</g>
<path d="M108.589 180.993V142.682L90.4612 152L90.5601 166.44L108.589 180.993Z" fill="#347683"/>
<path d="M87.8824 164.109H83.1775V247.943H87.8824V164.109Z" fill="#347683"/>
<path d="M87.8826 164.109V247.873L110.955 248.374V182.921L87.8826 164.109Z" fill="#347683"/>
<g opacity="0.3">
<path d="M110.934 186.913C110.934 186.913 93.6118 192.946 94.3394 214.514C95.0671 236.082 111.04 238.667 111.04 238.667L110.934 186.913Z" fill="black"/>
</g>
<path d="M107.96 237.912C107.861 237.912 107.776 226.976 107.776 213.49C107.776 200.003 107.861 189.061 107.96 189.061C108.059 189.061 108.143 199.996 108.143 213.49C108.143 226.983 108.066 237.912 107.96 237.912Z" fill="#263238"/>
<path d="M104.18 234.436C104.081 234.436 103.997 224.708 103.997 212.712C103.997 200.717 104.081 191.017 104.18 191.017C104.279 191.017 104.364 200.745 104.364 212.748C104.364 224.75 104.286 234.436 104.18 234.436Z" fill="#263238"/>
<path d="M100.401 231.476C100.302 231.476 100.217 223.479 100.217 213.617C100.217 203.755 100.302 195.75 100.401 195.75C100.5 195.75 100.585 203.747 100.585 213.617C100.585 223.486 100.5 231.476 100.401 231.476Z" fill="#263238"/>
<path d="M96.6214 225.104C96.5155 225.104 96.4377 219.727 96.4377 213.094C96.4377 206.46 96.5155 201.084 96.6214 201.084C96.7274 201.084 96.8051 206.46 96.8051 213.094C96.8051 219.727 96.7203 225.104 96.6214 225.104Z" fill="#263238"/>
<path d="M100.401 183.324H83.1775V185.337H100.401V183.324Z" fill="white"/>
<path d="M91.7891 186.8H83.1775V188.813H91.7891V186.8Z" fill="white"/>
<g opacity="0.3">
<path d="M87.8824 164.109H83.1775V247.943H87.8824V164.109Z" fill="black"/>
</g>
<path d="M83.1775 164.109C83.2844 164.087 83.3933 164.075 83.5025 164.073H84.4279L87.8824 164.017H87.9319C90.3692 165.953 93.8449 168.757 97.6809 171.887C101.369 174.896 104.696 177.63 107.098 179.658L109.924 182.038L110.68 182.695C110.849 182.851 110.934 182.936 110.927 182.95C110.819 182.898 110.719 182.831 110.63 182.752L109.832 182.116L106.928 179.827C104.491 177.884 101.143 175.179 97.4478 172.169C93.6118 169.04 90.1643 166.2 87.7765 164.208H87.8542L84.3996 164.172L83.4742 164.137C83.3744 164.144 83.2742 164.134 83.1775 164.109Z" fill="#263238"/>
<path d="M90.4823 151.958C89.1773 152.203 87.8382 152.203 86.5332 151.958C87.1753 151.774 87.8462 151.711 88.5113 151.774C89.174 151.712 89.8425 151.774 90.4823 151.958Z" fill="#263238"/>
<path d="M108.589 171.562H104.972V153.851L108.589 151.654V171.562Z" fill="white"/>
<path d="M94.7634 186.8H92.75V188.813H94.7634V186.8Z" fill="white"/>
<path d="M206.453 135.045C206.34 135.093 206.221 135.128 206.1 135.151L205.097 135.399L201.381 136.232L189.117 139.016L176.867 141.841L173.144 142.689L172.134 142.901C172.016 142.929 171.895 142.945 171.774 142.951C171.88 142.892 171.994 142.849 172.113 142.823L173.116 142.548L176.804 141.587C179.926 140.803 184.243 139.75 189.032 138.641C193.822 137.532 198.167 136.607 201.325 135.964C202.9 135.646 204.15 135.399 205.069 135.257L206.086 135.081C206.206 135.052 206.33 135.04 206.453 135.045Z" fill="#263238"/>
<path d="M119.221 157.468C118.758 157.732 118.264 157.938 117.751 158.083C116.833 158.415 115.554 158.846 114.134 159.305C112.714 159.764 111.422 160.16 110.482 160.428C109.982 160.608 109.463 160.732 108.935 160.795C109.395 160.531 109.886 160.324 110.397 160.181C111.316 159.849 112.601 159.418 114.021 158.959C115.441 158.499 116.734 158.104 117.674 157.835C118.174 157.655 118.693 157.532 119.221 157.468Z" fill="#263238"/>
<path d="M77.5473 172.339C77.5473 172.339 77.2436 172.48 76.6431 172.735L74.001 173.879C71.6767 174.896 68.2504 176.394 63.9411 178.527C61.7864 179.594 59.4127 180.83 56.8766 182.293C54.1179 183.845 51.5072 185.647 49.0774 187.676C47.834 188.806 46.5059 190.071 45.863 191.759C45.7116 192.178 45.6397 192.621 45.6511 193.066C45.6777 193.517 45.8161 193.954 46.0538 194.338C46.587 195.104 47.32 195.71 48.1731 196.09C49.9885 196.891 51.9117 197.422 53.8812 197.665C55.9541 197.963 58.0409 198.154 60.1333 198.237C68.7308 198.569 78.1549 197.884 88.2077 196.825C98.2605 195.765 108.963 194.147 120.175 192.197C142.59 188.284 167.041 182.879 192.416 176.154C217.792 169.428 241.734 161.968 262.948 153.745C268.247 151.675 273.376 149.556 278.278 147.323C283.046 145.201 287.688 142.807 292.181 140.153C294.316 138.891 296.345 137.459 298.25 135.872C299.165 135.1 299.992 134.228 300.715 133.272C301.089 132.835 301.373 132.327 301.548 131.779C301.724 131.23 301.789 130.653 301.74 130.079C301.727 129.941 301.689 129.807 301.627 129.683C301.585 129.55 301.533 129.42 301.471 129.295C301.335 129.051 301.169 128.826 300.977 128.624C300.791 128.412 300.58 128.225 300.348 128.066L300.002 127.818L299.634 127.614C298.642 127.078 297.582 126.676 296.484 126.42C294.35 125.896 292.176 125.558 289.984 125.409C285.905 125.127 281.813 125.068 277.727 125.233C273.856 125.36 270.211 125.607 266.806 125.883C259.995 126.455 254.146 127.161 249.377 127.783C244.609 128.405 240.9 128.956 238.399 129.33L235.573 129.761C234.93 129.86 234.598 129.895 234.598 129.895L235.566 129.726L238.392 129.26C240.893 128.864 244.588 128.285 249.356 127.642C254.125 126.999 259.953 126.271 266.784 125.678C270.197 125.395 273.849 125.134 277.72 124.971C281.815 124.797 285.916 124.847 290.005 125.12C292.213 125.271 294.403 125.606 296.554 126.123C297.673 126.391 298.753 126.799 299.769 127.338L300.157 127.557L300.51 127.818C300.76 127.983 300.985 128.18 301.181 128.405C301.387 128.62 301.569 128.857 301.725 129.111C301.789 129.249 301.846 129.391 301.895 129.535C301.958 129.677 302 129.827 302.022 129.98C302.122 130.591 302.056 131.218 301.831 131.796C301.61 132.363 301.313 132.898 300.948 133.385C300.219 134.366 299.377 135.257 298.44 136.041C296.524 137.642 294.483 139.088 292.337 140.365C287.832 143.033 283.178 145.441 278.398 147.578C273.489 149.817 268.36 151.944 263.061 154.021C241.868 162.265 217.884 169.704 192.501 176.465C167.118 183.225 142.647 188.616 120.217 192.515C109.006 194.458 98.317 196.047 88.2289 197.114C78.1408 198.181 68.7308 198.845 60.1121 198.492C58.0078 198.406 55.9093 198.213 53.8247 197.912C51.8326 197.66 49.8882 197.117 48.053 196.302C47.1563 195.903 46.3865 195.265 45.8277 194.458C45.5752 194.04 45.4274 193.568 45.3968 193.08C45.3832 192.599 45.4623 192.119 45.6299 191.667C46.3795 190.04 47.5055 188.613 48.9149 187.506C51.3676 185.473 54.0047 183.674 56.7918 182.13C59.335 180.675 61.737 179.446 63.8563 178.386C68.1798 176.267 71.6273 174.79 73.9515 173.794L76.6078 172.685L77.5473 172.339Z" fill="#263238"/>
<path d="M213.299 170.276L193.963 175.814C193.765 175.872 193.557 175.889 193.352 175.865C193.146 175.842 192.948 175.778 192.767 175.678C192.587 175.577 192.428 175.442 192.3 175.28C192.172 175.118 192.077 174.932 192.021 174.734C191.963 174.535 191.946 174.326 191.969 174.121C191.993 173.915 192.056 173.716 192.157 173.535C192.257 173.354 192.392 173.194 192.554 173.065C192.716 172.936 192.902 172.841 193.101 172.784L212.43 167.245C212.628 167.187 212.837 167.169 213.042 167.192C213.248 167.215 213.447 167.279 213.627 167.379C213.808 167.48 213.967 167.615 214.095 167.778C214.223 167.94 214.317 168.127 214.373 168.326C214.488 168.727 214.44 169.157 214.239 169.523C214.038 169.889 213.7 170.159 213.299 170.276Z" fill="#455A64"/>
<path d="M287.858 126.829C277.692 126.25 267.109 127.769 257.014 128.899C255.326 129.083 254.047 127.352 253.976 125.861C253.899 124.095 255.439 123 257.014 122.831C258.589 122.661 260.108 122.492 261.655 122.336C267.243 121.785 272.853 121.361 278.476 121.22C282.627 121.066 286.783 121.191 290.917 121.594C295.706 122.124 303.937 123.29 304.191 129.591C304.283 131.838 303.004 133.83 301.598 135.469C299.791 137.413 297.736 139.111 295.487 140.52C288.826 144.999 281.358 148.369 274.025 151.527C263.104 156.21 251.935 160.301 240.674 164.087C239.063 164.631 237.424 163.466 236.937 161.968C236.739 161.193 236.85 160.372 237.245 159.676C237.64 158.981 238.289 158.465 239.056 158.238C240.575 157.729 242.08 157.214 243.591 156.698C249.123 154.783 254.626 152.798 260.08 150.693C262.543 149.751 264.999 148.774 267.448 147.761L269.327 146.977L269.765 146.801C269.674 146.836 269.172 147.048 269.688 146.801L270.437 146.483C271.546 146.009 272.648 145.529 273.757 145.07C273.757 145.07 287.434 138.57 291.418 135.886C295 133.498 298.08 131.449 297.324 129.485C296.505 127.359 287.858 126.829 287.858 126.829Z" fill="#E0E0E0"/>
<path d="M287.858 126.829C287.858 126.829 288.126 126.829 288.642 126.871C289.157 126.914 289.935 126.977 290.938 127.112C292.177 127.261 293.405 127.497 294.611 127.818C295.39 128.008 296.133 128.325 296.808 128.758C296.991 128.885 297.151 129.043 297.282 129.224C297.406 129.424 297.488 129.648 297.522 129.881C297.573 130.365 297.455 130.851 297.19 131.259C296.62 132.111 295.902 132.855 295.07 133.456C294.237 134.113 293.311 134.748 292.351 135.398C290.246 136.795 288.059 138.064 285.802 139.199C283.393 140.464 280.8 141.763 278.031 143.127L273.792 145.19L271.532 146.179L270.38 146.68L269.801 146.928L269.652 146.991H269.582H269.546C269.546 147.055 269.334 146.511 269.44 146.737L269.723 146.617L269.843 146.864C267.335 147.938 264.707 148.948 261.987 150.043L259.932 150.863L257.812 151.633L253.482 153.215L244.439 156.514C242.885 157.079 241.302 157.595 239.706 158.146C239.308 158.26 238.922 158.414 238.554 158.605C238.207 158.811 237.899 159.077 237.643 159.389C237.379 159.698 237.19 160.063 237.091 160.456C236.991 160.85 236.985 161.261 237.071 161.657C237.273 162.461 237.779 163.155 238.484 163.593C238.836 163.814 239.236 163.947 239.651 163.98C240.065 164.014 240.482 163.946 240.864 163.784L245.923 162.053C249.323 160.875 252.771 159.639 256.265 158.344C263.245 155.758 270.394 152.904 277.558 149.732C281.542 147.973 285.434 146.143 289.143 144.081C290.994 143.063 292.803 141.961 294.548 140.845C296.292 139.743 297.958 138.523 299.535 137.193C301.084 135.903 302.37 134.327 303.322 132.551C303.773 131.677 304.015 130.709 304.028 129.726C304.024 129.489 304.003 129.253 303.965 129.019C303.945 128.781 303.907 128.545 303.852 128.313L303.64 127.606C303.559 127.381 303.457 127.163 303.336 126.956C303.115 126.532 302.848 126.134 302.538 125.769C302.211 125.42 301.854 125.101 301.471 124.816C300.705 124.234 299.863 123.759 298.97 123.403C297.2 122.718 295.355 122.244 293.474 121.99C289.841 121.463 286.174 121.208 282.503 121.227C278.935 121.227 275.438 121.347 272.125 121.538C268.812 121.728 265.548 122.004 262.447 122.301L257.897 122.767C257.53 122.809 257.148 122.838 256.795 122.894C256.445 122.954 256.105 123.061 255.785 123.212C255.147 123.494 254.63 123.995 254.329 124.625C254.104 125.257 254.087 125.945 254.28 126.588C254.473 127.231 254.867 127.796 255.403 128.2C255.657 128.396 255.949 128.538 256.26 128.616C256.571 128.693 256.895 128.706 257.212 128.652L259.154 128.433L266.374 127.62C270.882 127.126 274.774 126.808 277.967 126.667C281.16 126.525 283.619 126.532 285.314 126.589C287.01 126.645 287.872 126.723 287.872 126.723C287.872 126.723 287.653 126.723 287.222 126.723C286.791 126.723 286.155 126.674 285.314 126.674C283.633 126.638 281.153 126.674 277.974 126.815C274.795 126.956 270.91 127.324 266.396 127.832L259.183 128.673L257.24 128.892C256.893 128.953 256.538 128.942 256.196 128.858C255.854 128.774 255.534 128.619 255.255 128.404C254.69 127.961 254.268 127.362 254.04 126.681C253.8 125.991 253.818 125.239 254.089 124.561C254.417 123.875 254.978 123.326 255.672 123.014C256.015 122.853 256.379 122.736 256.753 122.668C257.134 122.604 257.494 122.583 257.869 122.541L262.418 122.061C265.52 121.757 268.776 121.481 272.104 121.276C275.431 121.071 278.928 120.944 282.51 120.944C286.192 120.953 289.869 121.234 293.509 121.785C295.417 122.043 297.289 122.517 299.09 123.198C300.01 123.55 300.877 124.025 301.669 124.611C302.07 124.908 302.444 125.242 302.785 125.607C303.115 125.992 303.4 126.414 303.633 126.864C303.763 127.089 303.872 127.325 303.958 127.571L304.184 128.277C304.242 128.526 304.282 128.779 304.304 129.033C304.343 129.286 304.364 129.541 304.367 129.796C304.364 130.829 304.123 131.847 303.661 132.77C302.688 134.591 301.373 136.207 299.79 137.532C298.203 138.874 296.524 140.104 294.767 141.212C293.015 142.364 291.199 143.438 289.341 144.469C285.618 146.525 281.719 148.355 277.727 150.121C270.542 153.293 263.4 156.154 256.406 158.739C252.917 160.03 249.467 161.264 246.057 162.441L240.956 164.172C240.526 164.346 240.062 164.419 239.6 164.384C239.134 164.341 238.685 164.191 238.286 163.946C237.497 163.463 236.928 162.689 236.703 161.791C236.604 161.345 236.61 160.882 236.72 160.438C236.831 159.994 237.043 159.582 237.339 159.234C237.623 158.888 237.965 158.594 238.35 158.365C238.735 158.166 239.14 158.005 239.558 157.885C241.154 157.334 242.744 156.818 244.291 156.26L253.34 152.975L257.671 151.399L259.79 150.629L261.853 149.824C264.566 148.736 267.208 147.705 269.695 146.673L269.815 146.921L269.518 147.048C269.61 147.281 269.356 146.751 269.398 146.8H269.433H269.511L269.659 146.737L270.239 146.49L271.39 145.995L273.644 145.013L277.883 142.957C280.647 141.615 283.237 140.32 285.653 139.072C287.907 137.945 290.094 136.687 292.202 135.306C293.17 134.657 294.088 134.028 294.922 133.378C295.739 132.803 296.445 132.085 297.006 131.259C297.256 130.882 297.368 130.43 297.324 129.98C297.298 129.77 297.228 129.568 297.119 129.386C296.996 129.217 296.846 129.068 296.674 128.948C296.023 128.523 295.307 128.206 294.555 128.009C293.355 127.678 292.135 127.428 290.902 127.26C289.906 127.119 289.136 127.034 288.621 126.984L287.858 126.829Z" fill="#263238"/>
<path d="M255.926 123.043C255.926 123.007 256.293 123.198 256.696 123.664C257.213 124.291 257.546 125.049 257.657 125.854C257.757 126.663 257.628 127.483 257.282 128.221C257.014 128.779 256.731 129.048 256.696 129.019C256.789 128.712 256.905 128.412 257.042 128.122C257.293 127.411 257.377 126.652 257.289 125.904C257.188 125.158 256.912 124.446 256.484 123.827C256.159 123.339 255.891 123.085 255.926 123.043Z" fill="#263238"/>
<path d="M239.621 164.525C239.579 164.483 239.925 164.193 240.243 163.572C240.565 162.957 240.687 162.257 240.592 161.569C240.497 160.881 240.19 160.24 239.713 159.736C239.437 159.453 239.091 159.248 238.71 159.142C238.35 159.061 237.974 159.088 237.629 159.22C237.629 159.22 237.685 159.107 237.869 159.001C238.144 158.863 238.458 158.824 238.759 158.888C239.205 158.969 239.617 159.178 239.946 159.488C240.34 159.872 240.636 160.344 240.808 160.866C240.963 161.333 241.014 161.828 240.955 162.317C240.896 162.805 240.73 163.275 240.469 163.692C240.059 164.335 239.635 164.561 239.621 164.525Z" fill="#263238"/>
<path d="M254.902 158.923C254.941 158.603 254.998 158.284 255.071 157.97C255.184 157.215 255.092 156.444 254.803 155.738C254.515 155.032 254.041 154.416 253.432 153.957C252.966 153.597 252.62 153.448 252.641 153.392C252.982 153.417 253.308 153.539 253.581 153.745C254.282 154.185 254.828 154.834 255.141 155.601C255.454 156.368 255.519 157.214 255.326 158.019C255.17 158.627 254.944 158.945 254.902 158.923Z" fill="#263238"/>
<path d="M287.455 145.261C287.455 145.261 287.49 144.957 287.455 144.392C287.444 143.581 287.241 142.784 286.862 142.067L286.989 142.11C283.859 143.523 278.568 145.79 272.556 148.355L260.158 153.576L256.378 155.123L255.34 155.532C255.223 155.587 255.1 155.625 254.972 155.645C255.08 155.574 255.193 155.513 255.311 155.462L256.322 154.995L260.059 153.335L272.443 147.995C278.448 145.43 283.746 143.198 286.939 141.898L287.031 141.863L287.066 141.94C287.445 142.693 287.627 143.529 287.596 144.37C287.59 144.589 287.564 144.807 287.519 145.02C287.49 145.19 287.469 145.268 287.455 145.261Z" fill="#263238"/>
<path d="M271.074 124.587L266.397 124.946L266.466 125.848L271.143 125.489L271.074 124.587Z" fill="#455A64"/>
<g opacity="0.3">
<path d="M255.983 123.078C255.433 123.25 254.948 123.584 254.591 124.037C254.234 124.489 254.023 125.039 253.983 125.614C253.95 126.224 254.089 126.83 254.383 127.365C254.678 127.9 255.117 128.341 255.651 128.638C255.826 128.749 256.025 128.816 256.231 128.835C256.438 128.853 256.646 128.822 256.837 128.744C257.132 128.55 257.344 128.252 257.431 127.91C257.721 127.039 257.706 126.094 257.389 125.233C257.176 124.384 256.677 123.636 255.976 123.113" fill="black"/>
</g>
<g opacity="0.3">
<path d="M238.639 159.135C238.469 159.054 238.279 159.024 238.092 159.049C237.905 159.074 237.729 159.153 237.587 159.277C237.299 159.526 237.096 159.86 237.007 160.23C236.844 160.851 236.866 161.505 237.069 162.114C237.272 162.723 237.648 163.259 238.152 163.657C238.358 163.836 238.603 163.965 238.868 164.033C239.133 164.1 239.411 164.104 239.678 164.045C240.039 163.911 240.335 163.643 240.504 163.296C240.664 162.953 240.753 162.58 240.766 162.201C240.832 161.546 240.722 160.885 240.448 160.287C240.314 159.991 240.119 159.728 239.875 159.513C239.631 159.299 239.345 159.139 239.035 159.043" fill="black"/>
</g>
<path d="M199.664 136.098L180.039 140.485C179.837 140.531 179.628 140.536 179.423 140.501C179.219 140.466 179.023 140.391 178.848 140.28C178.673 140.169 178.521 140.024 178.402 139.855C178.283 139.685 178.198 139.493 178.153 139.291C178.064 138.884 178.14 138.458 178.363 138.106C178.587 137.754 178.94 137.505 179.347 137.412L198.972 133.025C199.38 132.934 199.808 133.009 200.161 133.232C200.515 133.456 200.765 133.811 200.858 134.219C200.947 134.626 200.871 135.052 200.648 135.404C200.424 135.756 200.071 136.005 199.664 136.098Z" fill="#455A64"/>
<path d="M116.508 192.6C115.731 192.663 114.565 197.276 114.085 199.304C114.065 199.458 114.076 199.614 114.117 199.763C114.158 199.912 114.228 200.052 114.323 200.175C114.418 200.297 114.537 200.399 114.672 200.475C114.807 200.551 114.955 200.6 115.109 200.618C116.168 200.893 117.276 200.914 118.345 200.682C118.501 200.664 118.652 200.614 118.788 200.535C118.925 200.457 119.043 200.351 119.137 200.224C119.23 200.097 119.297 199.953 119.332 199.799C119.367 199.646 119.37 199.487 119.341 199.332C118.761 197.375 117.285 192.536 116.508 192.6Z" fill="#455A64"/>
<path d="M231.257 236.301C230.19 236.407 228.579 244.376 227.922 247.88C227.833 248.366 227.929 248.867 228.19 249.287C228.451 249.706 228.86 250.013 229.335 250.147C230.776 250.619 232.324 250.656 233.786 250.253C234.269 250.113 234.679 249.793 234.934 249.36C235.189 248.926 235.268 248.412 235.156 247.922C234.358 244.489 232.324 236.188 231.257 236.301Z" fill="#455A64"/>
<path d="M251.567 236.689C250.501 236.802 248.89 244.771 248.233 248.275C248.146 248.76 248.242 249.26 248.503 249.678C248.765 250.096 249.172 250.401 249.646 250.536C251.085 251.013 252.634 251.052 254.096 250.649C254.581 250.508 254.992 250.187 255.247 249.753C255.502 249.318 255.581 248.801 255.467 248.31C254.655 244.884 252.634 236.583 251.567 236.689Z" fill="#455A64"/>
<path d="M242.645 239.572C241.938 239.642 240.801 245.131 240.356 247.54C240.293 247.873 240.357 248.218 240.535 248.507C240.712 248.795 240.991 249.007 241.317 249.102C242.309 249.43 243.375 249.457 244.383 249.179C244.715 249.083 244.999 248.864 245.175 248.566C245.351 248.267 245.406 247.913 245.329 247.576C244.764 245.209 243.351 239.494 242.645 239.572Z" fill="#455A64"/>
<path d="M239.466 245.082C238.978 245.124 238.244 248.417 237.94 249.858C237.906 250.066 237.954 250.279 238.074 250.453C238.194 250.627 238.376 250.747 238.583 250.79C239.244 250.989 239.947 251.006 240.617 250.84C240.829 250.794 241.013 250.666 241.131 250.485C241.249 250.304 241.29 250.083 241.246 249.872C240.879 248.459 239.953 245.033 239.466 245.082Z" fill="#263238"/>
<path d="M165.96 241.352C165.197 241.43 164.045 247.116 163.579 249.617C163.514 249.963 163.581 250.321 163.767 250.62C163.953 250.92 164.243 251.139 164.582 251.235C165.61 251.578 166.717 251.605 167.761 251.313C168.105 251.211 168.397 250.981 168.578 250.672C168.759 250.362 168.815 249.995 168.736 249.646C168.171 247.194 166.715 241.274 165.96 241.352Z" fill="#455A64"/>
<path d="M161.961 243.93C161.473 243.973 160.739 247.265 160.435 248.706C160.403 248.914 160.452 249.126 160.572 249.3C160.691 249.473 160.872 249.594 161.078 249.639C161.739 249.838 162.442 249.855 163.112 249.688C163.324 249.642 163.508 249.515 163.626 249.334C163.744 249.152 163.785 248.932 163.741 248.72C163.374 247.307 162.448 243.881 161.961 243.93Z" fill="#263238"/>
<path d="M97.7235 236.725C96.3883 236.831 94.3678 244.799 93.5413 248.303C93.3082 249.307 94.0782 250.282 95.3004 250.571C97.1315 251.043 99.0478 251.08 100.895 250.677C102.153 250.373 102.909 249.363 102.612 248.346C101.616 244.913 99.0587 236.612 97.7235 236.725Z" fill="#455A64"/>
<path d="M92.1283 239.43C91.2735 239.515 90.0089 245.93 89.4509 248.741C89.379 249.13 89.4542 249.532 89.6617 249.869C89.8692 250.206 90.1944 250.453 90.5741 250.564C91.7355 250.946 92.9835 250.978 94.1629 250.656C94.5513 250.542 94.8817 250.284 95.0865 249.935C95.2913 249.586 95.3551 249.171 95.265 248.777C94.6221 246.015 92.9902 239.339 92.1283 239.43Z" fill="#455A64"/>
<path d="M87.0703 244.284C86.5828 244.326 85.8481 247.618 85.5443 249.059C85.5108 249.268 85.559 249.481 85.6787 249.655C85.7985 249.828 85.9806 249.949 86.1872 249.992C86.8486 250.191 87.5515 250.208 88.2218 250.041C88.4325 249.997 88.6171 249.871 88.735 249.691C88.8528 249.511 88.8944 249.291 88.8505 249.081C88.4902 247.661 87.5577 244.241 87.0703 244.284Z" fill="#263238"/>
<path d="M94.7917 246.036C94.0146 246.099 92.849 250.712 92.3686 252.74C92.3488 252.893 92.3594 253.048 92.3999 253.197C92.4403 253.346 92.5098 253.486 92.6043 253.608C92.6988 253.73 92.8165 253.832 92.9506 253.909C93.0848 253.985 93.2327 254.035 93.3859 254.054C94.4473 254.325 95.5572 254.347 96.6285 254.117C96.7852 254.099 96.9364 254.048 97.0727 253.969C97.2091 253.889 97.3276 253.783 97.421 253.655C97.5144 253.528 97.5807 253.383 97.6157 253.229C97.6507 253.075 97.6537 252.916 97.6246 252.761C97.0453 250.776 95.5688 245.972 94.7917 246.036Z" fill="#455A64"/>
<g opacity="0.3">
<path d="M94.7917 246.036C94.0146 246.099 92.849 250.712 92.3686 252.74C92.3488 252.893 92.3594 253.048 92.3999 253.197C92.4403 253.346 92.5098 253.486 92.6043 253.608C92.6988 253.73 92.8165 253.832 92.9506 253.909C93.0848 253.985 93.2327 254.035 93.3859 254.054C94.4473 254.325 95.5572 254.347 96.6285 254.117C96.7852 254.099 96.9364 254.048 97.0727 253.969C97.2091 253.889 97.3276 253.783 97.421 253.655C97.5144 253.528 97.5807 253.383 97.6157 253.229C97.6507 253.075 97.6537 252.916 97.6246 252.761C97.0453 250.776 95.5688 245.972 94.7917 246.036Z" fill="black"/>
</g>
<path d="M104.802 243.803C104.18 243.853 103.241 247.547 102.859 249.165C102.843 249.288 102.852 249.413 102.885 249.533C102.918 249.652 102.974 249.764 103.05 249.862C103.126 249.96 103.221 250.042 103.329 250.103C103.437 250.164 103.556 250.203 103.679 250.218C104.525 250.434 105.41 250.451 106.264 250.267C106.851 250.126 107.204 249.66 107.063 249.186C106.603 247.597 105.417 243.754 104.802 243.803Z" fill="#455A64"/>
<g opacity="0.3">
<path d="M104.802 243.803C104.18 243.853 103.241 247.547 102.859 249.165C102.843 249.288 102.852 249.413 102.885 249.533C102.918 249.652 102.974 249.764 103.05 249.862C103.126 249.96 103.221 250.042 103.329 250.103C103.437 250.164 103.556 250.203 103.679 250.218C104.525 250.434 105.41 250.451 106.264 250.267C106.851 250.126 107.204 249.66 107.063 249.186C106.603 247.597 105.417 243.754 104.802 243.803Z" fill="black"/>
</g>
<path d="M115.696 248.148C115.074 248.197 114.141 251.885 113.76 253.51C113.743 253.632 113.751 253.756 113.783 253.876C113.815 253.995 113.87 254.106 113.946 254.204C114.022 254.301 114.116 254.382 114.224 254.443C114.331 254.503 114.45 254.542 114.572 254.555C115.42 254.78 116.309 254.797 117.165 254.605C117.29 254.591 117.411 254.552 117.52 254.49C117.629 254.428 117.724 254.343 117.799 254.243C117.874 254.142 117.927 254.026 117.955 253.904C117.984 253.782 117.986 253.655 117.963 253.531C117.497 251.942 116.317 248.098 115.696 248.148Z" fill="#455A64"/>
<g opacity="0.3">
<path d="M115.696 248.148C115.074 248.197 114.141 251.885 113.76 253.51C113.743 253.632 113.751 253.756 113.783 253.876C113.815 253.995 113.87 254.106 113.946 254.204C114.022 254.301 114.116 254.382 114.224 254.443C114.331 254.503 114.45 254.542 114.572 254.555C115.42 254.78 116.309 254.797 117.165 254.605C117.29 254.591 117.411 254.552 117.52 254.49C117.629 254.428 117.724 254.343 117.799 254.243C117.874 254.142 117.927 254.026 117.955 253.904C117.984 253.782 117.986 253.655 117.963 253.531C117.497 251.942 116.317 248.098 115.696 248.148Z" fill="black"/>
</g>
<path d="M145.953 241.79C144.886 241.896 143.275 249.872 142.625 253.369C142.537 253.855 142.632 254.356 142.893 254.776C143.155 255.195 143.563 255.502 144.038 255.636C145.481 256.113 147.032 256.153 148.496 255.749C148.979 255.607 149.39 255.286 149.645 254.852C149.899 254.417 149.979 253.902 149.867 253.411C149.054 249.978 147.02 241.684 145.953 241.79Z" fill="#455A64"/>
<path d="M127.74 237.346C126.674 237.459 125.063 245.428 124.413 248.932C124.326 249.417 124.422 249.917 124.684 250.335C124.945 250.753 125.352 251.059 125.826 251.193C127.268 251.67 128.819 251.709 130.284 251.306C130.765 251.164 131.175 250.844 131.43 250.411C131.684 249.978 131.764 249.465 131.654 248.975C130.842 245.541 128.807 237.24 127.74 237.346Z" fill="#455A64"/>
<path d="M132.537 242.2C131.831 242.27 130.764 247.576 130.326 249.9C130.267 250.223 130.33 250.556 130.502 250.835C130.675 251.114 130.944 251.319 131.259 251.412C132.217 251.724 133.246 251.749 134.219 251.482C134.541 251.39 134.815 251.177 134.985 250.887C135.155 250.598 135.206 250.255 135.13 249.928C134.6 247.646 133.251 242.129 132.537 242.2Z" fill="#455A64"/>
<path d="M141.975 246.276C141.488 246.318 140.753 249.61 140.449 251.051C140.416 251.261 140.464 251.475 140.583 251.65C140.703 251.824 140.885 251.947 141.092 251.991C141.755 252.185 142.457 252.2 143.127 252.033C143.337 251.986 143.519 251.858 143.634 251.676C143.749 251.495 143.788 251.275 143.742 251.066C143.395 249.653 142.463 246.233 141.975 246.276Z" fill="#263238"/>
<path d="M123.58 243.415C122.795 243.485 121.616 248.763 121.135 251.08C121.081 251.414 121.158 251.757 121.35 252.036C121.542 252.315 121.835 252.509 122.167 252.577C123.228 252.895 124.355 252.922 125.43 252.655C125.769 252.584 126.066 252.381 126.256 252.091C126.445 251.801 126.512 251.447 126.441 251.108C125.854 248.833 124.364 243.344 123.58 243.415Z" fill="#263238"/>
<path d="M136.147 244.877C135.526 244.927 134.593 248.621 134.212 250.239C134.195 250.362 134.202 250.486 134.234 250.606C134.266 250.726 134.322 250.838 134.397 250.936C134.473 251.034 134.567 251.116 134.675 251.177C134.782 251.238 134.901 251.277 135.024 251.292C135.873 251.509 136.76 251.526 137.617 251.341C137.742 251.327 137.862 251.287 137.971 251.224C138.08 251.161 138.175 251.076 138.249 250.974C138.323 250.872 138.376 250.757 138.403 250.634C138.43 250.511 138.432 250.384 138.408 250.26C137.949 248.671 136.762 244.828 136.147 244.877Z" fill="#455A64"/>
<g opacity="0.3">
<path d="M136.147 244.877C135.526 244.927 134.593 248.621 134.212 250.239C134.195 250.362 134.202 250.486 134.234 250.606C134.266 250.726 134.322 250.838 134.397 250.936C134.473 251.034 134.567 251.116 134.675 251.177C134.782 251.238 134.901 251.277 135.024 251.292C135.873 251.509 136.76 251.526 137.617 251.341C137.742 251.327 137.862 251.287 137.971 251.224C138.08 251.161 138.175 251.076 138.249 250.974C138.323 250.872 138.376 250.757 138.403 250.634C138.43 250.511 138.432 250.384 138.408 250.26C137.949 248.671 136.762 244.828 136.147 244.877Z" fill="black"/>
</g>
<path d="M176.874 231.476C175.942 231.568 174.543 238.54 173.971 241.571C173.894 241.992 173.977 242.427 174.203 242.791C174.429 243.155 174.781 243.423 175.193 243.542C176.447 243.958 177.797 243.993 179.071 243.641C179.493 243.518 179.852 243.24 180.075 242.862C180.298 242.484 180.369 242.035 180.272 241.606C179.573 238.618 177.8 231.384 176.874 231.476Z" fill="#455A64"/>
<path d="M183.211 235.277C182.448 235.354 181.304 241.041 180.83 243.542C180.766 243.888 180.833 244.246 181.019 244.545C181.204 244.845 181.495 245.064 181.833 245.16C182.862 245.503 183.969 245.53 185.012 245.238C185.358 245.137 185.651 244.908 185.834 244.598C186.016 244.289 186.074 243.921 185.994 243.57C185.422 241.119 184.009 235.199 183.211 235.277Z" fill="#455A64"/>
<path d="M189.604 244.227C189.117 244.277 188.382 247.562 188.079 249.01C188.047 249.218 188.096 249.43 188.215 249.604C188.335 249.777 188.516 249.898 188.721 249.942C189.383 250.14 190.086 250.154 190.756 249.985C190.861 249.965 190.961 249.924 191.05 249.864C191.139 249.804 191.216 249.727 191.274 249.638C191.333 249.548 191.373 249.448 191.392 249.342C191.411 249.237 191.408 249.128 191.385 249.024C191.024 247.611 190.092 244.185 189.604 244.227Z" fill="#263238"/>
<path d="M179.248 243.655C178.259 243.733 176.768 249.618 176.161 252.203C176.135 252.399 176.148 252.597 176.2 252.788C176.251 252.978 176.34 253.156 176.461 253.312C176.582 253.467 176.733 253.598 176.904 253.695C177.076 253.792 177.265 253.854 177.461 253.878C178.813 254.228 180.229 254.254 181.593 253.955C181.793 253.933 181.985 253.869 182.159 253.768C182.333 253.667 182.484 253.532 182.603 253.37C182.721 253.208 182.805 253.023 182.849 252.827C182.893 252.631 182.896 252.429 182.858 252.231C182.123 249.702 180.237 243.57 179.248 243.655Z" fill="#455A64"/>
<g opacity="0.3">
<path d="M179.248 243.655C178.259 243.733 176.768 249.618 176.161 252.203C176.135 252.399 176.148 252.597 176.2 252.788C176.251 252.978 176.34 253.156 176.461 253.312C176.582 253.467 176.733 253.598 176.904 253.695C177.076 253.792 177.265 253.854 177.461 253.878C178.813 254.228 180.229 254.254 181.593 253.955C181.793 253.933 181.985 253.869 182.159 253.768C182.333 253.667 182.484 253.532 182.603 253.37C182.721 253.208 182.805 253.023 182.849 252.827C182.893 252.631 182.896 252.429 182.858 252.231C182.123 249.702 180.237 243.57 179.248 243.655Z" fill="black"/>
</g>
<path d="M194.974 164.949H190.269V248.784H194.974V164.949Z" fill="#347683"/>
<path d="M194.973 164.949V248.706L218.046 249.215V183.755L194.973 164.949Z" fill="#347683"/>
<g opacity="0.3">
<path d="M218.025 187.746C218.025 187.746 200.696 193.779 201.43 215.347C202.165 236.915 218.131 239.501 218.131 239.501L218.025 187.746Z" fill="black"/>
</g>
<path d="M215.051 238.752C214.952 238.752 214.867 227.809 214.867 214.323C214.867 200.837 214.952 189.894 215.051 189.894C215.15 189.894 215.235 200.83 215.235 214.323C215.235 227.816 215.15 238.752 215.051 238.752Z" fill="#263238"/>
<path d="M211.271 235.277C211.165 235.277 211.088 225.542 211.088 213.546C211.088 201.551 211.165 191.816 211.271 191.816C211.377 191.816 211.455 201.544 211.455 213.546C211.455 225.549 211.37 235.277 211.271 235.277Z" fill="#263238"/>
<path d="M207.492 232.309C207.386 232.309 207.308 224.312 207.308 214.45C207.308 204.588 207.386 196.591 207.492 196.591C207.598 196.591 207.675 204.581 207.675 214.45C207.675 224.32 207.591 232.309 207.492 232.309Z" fill="#263238"/>
<path d="M203.705 225.937C203.606 225.937 203.521 220.561 203.521 213.928C203.521 207.294 203.606 201.918 203.705 201.918C203.804 201.918 203.889 207.294 203.889 213.928C203.889 220.561 203.79 225.937 203.705 225.937Z" fill="#263238"/>
<g opacity="0.3">
<path d="M194.974 164.949H190.269V248.784H194.974V164.949Z" fill="black"/>
</g>
<path d="M207.979 242.27C207.785 241.261 207.494 240.272 207.11 239.317C206.845 238.807 206.45 238.375 205.965 238.065C205.48 237.755 204.923 237.578 204.348 237.551H204.2H204.044C203.469 237.578 202.912 237.755 202.427 238.065C201.942 238.375 201.547 238.807 201.282 239.317C200.901 240.272 200.612 241.261 200.42 242.27C200.033 243.494 199.824 244.767 199.798 246.05C199.791 246.657 199.914 247.26 200.157 247.816C200.401 248.373 200.76 248.871 201.211 249.278C202.086 249.896 203.155 250.177 204.221 250.07C205.436 250.07 206.46 249.935 207.23 249.278C207.681 248.871 208.039 248.372 208.283 247.816C208.527 247.259 208.649 246.657 208.643 246.05C208.601 244.765 208.378 243.493 207.979 242.27Z" fill="#455A64"/>
<path d="M215.8 237.043C214.733 237.156 213.129 245.124 212.472 248.621C212.383 249.107 212.479 249.609 212.74 250.028C213.001 250.448 213.41 250.755 213.885 250.889C215.327 251.366 216.878 251.405 218.343 251.002C218.826 250.86 219.237 250.539 219.491 250.104C219.746 249.67 219.825 249.155 219.713 248.664C218.894 245.237 216.859 236.937 215.8 237.043Z" fill="#455A64"/>
<path d="M221.14 236.817C220.561 236.873 219.692 241.19 219.339 243.083C219.29 243.344 219.34 243.614 219.48 243.84C219.62 244.066 219.839 244.232 220.095 244.305C220.874 244.565 221.712 244.587 222.504 244.369C222.765 244.291 222.986 244.117 223.124 243.883C223.262 243.648 223.305 243.37 223.246 243.104C222.815 241.246 221.713 236.753 221.14 236.817Z" fill="#455A64"/>
<path d="M224.129 238.837C223.641 238.887 222.906 242.172 222.61 243.62C222.574 243.827 222.621 244.04 222.739 244.214C222.858 244.388 223.039 244.509 223.246 244.552C223.91 244.75 224.615 244.764 225.287 244.595C225.391 244.573 225.49 244.531 225.578 244.47C225.666 244.41 225.741 244.333 225.798 244.244C225.856 244.155 225.896 244.055 225.915 243.95C225.934 243.845 225.932 243.738 225.909 243.634C225.549 242.221 224.616 238.795 224.129 238.837Z" fill="#263238"/>
<path d="M219.155 245.478C218.611 245.52 217.792 248.756 217.453 250.176C217.425 250.391 217.483 250.609 217.616 250.781C217.748 250.953 217.944 251.066 218.159 251.094C218.901 251.286 219.677 251.303 220.427 251.143C220.537 251.132 220.644 251.097 220.74 251.042C220.836 250.987 220.92 250.913 220.987 250.824C221.053 250.735 221.1 250.634 221.125 250.526C221.151 250.418 221.153 250.306 221.133 250.197C220.745 248.798 219.699 245.414 219.155 245.478Z" fill="#455A64"/>
<g opacity="0.3">
<path d="M219.155 245.478C218.611 245.52 217.792 248.756 217.453 250.176C217.425 250.391 217.483 250.609 217.616 250.781C217.748 250.953 217.944 251.066 218.159 251.094C218.901 251.286 219.677 251.303 220.427 251.143C220.537 251.132 220.644 251.097 220.74 251.042C220.836 250.987 220.92 250.913 220.987 250.824C221.053 250.735 221.1 250.634 221.125 250.526C221.151 250.418 221.153 250.306 221.133 250.197C220.745 248.798 219.699 245.414 219.155 245.478Z" fill="black"/>
</g>
<path d="M283.661 236.287C282.595 236.393 280.984 244.369 280.334 247.866C280.245 248.352 280.34 248.853 280.602 249.273C280.863 249.692 281.271 249.999 281.747 250.133C283.19 250.609 284.741 250.646 286.205 250.239C286.686 250.097 287.096 249.777 287.35 249.344C287.605 248.911 287.685 248.398 287.575 247.908C286.763 244.475 284.728 236.174 283.661 236.287Z" fill="#455A64"/>
<path d="M291.461 241.882C290.973 241.924 290.239 245.216 289.935 246.657C289.903 246.866 289.952 247.078 290.071 247.251C290.191 247.424 290.372 247.546 290.578 247.59C291.239 247.789 291.942 247.806 292.612 247.639C292.823 247.594 293.008 247.466 293.126 247.285C293.244 247.104 293.285 246.883 293.241 246.672C292.881 245.28 291.948 241.882 291.461 241.882Z" fill="#263238"/>
<path d="M279.585 244.708C279.041 244.75 278.222 247.986 277.883 249.406C277.856 249.621 277.916 249.838 278.048 250.009C278.18 250.181 278.374 250.294 278.589 250.324C279.333 250.518 280.113 250.532 280.864 250.366C280.974 250.356 281.082 250.322 281.178 250.267C281.275 250.213 281.36 250.138 281.426 250.049C281.493 249.96 281.54 249.858 281.565 249.75C281.59 249.641 281.591 249.529 281.57 249.42C281.16 248.049 280.122 244.708 279.585 244.708Z" fill="#455A64"/>
<g opacity="0.3">
<path d="M279.585 244.708C279.041 244.75 278.222 247.986 277.883 249.406C277.856 249.621 277.916 249.838 278.048 250.009C278.18 250.181 278.374 250.294 278.589 250.324C279.333 250.518 280.113 250.532 280.864 250.366C280.974 250.356 281.082 250.322 281.178 250.267C281.275 250.213 281.36 250.138 281.426 250.049C281.493 249.96 281.54 249.858 281.565 249.75C281.59 249.641 281.591 249.529 281.57 249.42C281.16 248.049 280.122 244.708 279.585 244.708Z" fill="black"/>
</g>
<path d="M55.393 214.38C54.6229 214.443 53.4502 219.056 52.9769 221.084C52.9552 221.239 52.9654 221.398 53.0068 221.549C53.0482 221.701 53.12 221.842 53.2178 221.965C53.3156 222.088 53.4374 222.19 53.5757 222.264C53.714 222.338 53.866 222.384 54.0225 222.398C55.0815 222.669 56.1891 222.691 57.258 222.461C57.4158 222.445 57.5683 222.395 57.706 222.317C57.8437 222.238 57.9635 222.131 58.0579 222.004C58.1522 221.876 58.219 221.73 58.254 221.576C58.289 221.421 58.2914 221.261 58.2612 221.105C57.6466 219.12 56.1418 214.33 55.393 214.38Z" fill="#455A64"/>
<path d="M62.9025 211.773C62.415 211.815 61.6733 214.733 61.3695 216.011C61.3566 216.108 61.3631 216.207 61.3884 216.302C61.4138 216.396 61.4577 216.485 61.5174 216.562C61.5772 216.64 61.6517 216.704 61.7366 216.753C61.8216 216.802 61.9153 216.833 62.0124 216.845C62.6833 217.016 63.3847 217.028 64.0611 216.88C64.5203 216.767 64.8028 216.4 64.6898 216.026C64.3295 214.775 63.3899 211.737 62.9025 211.773Z" fill="#455A64"/>
<path d="M70.2707 213.073C69.7762 213.073 69.0415 216.026 68.7377 217.311C68.7206 217.409 68.7241 217.508 68.7479 217.604C68.7717 217.7 68.8153 217.789 68.8759 217.867C68.9364 217.945 69.0126 218.009 69.0995 218.056C69.1865 218.103 69.2822 218.131 69.3805 218.138C70.0505 218.314 70.7526 218.328 71.4293 218.18C71.5293 218.172 71.6263 218.142 71.7139 218.092C71.8014 218.043 71.8775 217.976 71.937 217.895C71.9965 217.814 72.038 217.722 72.0589 217.623C72.0798 217.525 72.0795 217.424 72.058 217.326C71.6836 216.068 70.7299 213.03 70.2707 213.073Z" fill="#263238"/>
<path d="M66.3076 211.208C65.9332 211.243 65.368 213.468 65.142 214.45C65.1311 214.524 65.1351 214.6 65.1539 214.672C65.1726 214.744 65.2057 214.812 65.2512 214.871C65.2966 214.931 65.3535 214.98 65.4185 215.017C65.4835 215.054 65.5552 215.078 65.6294 215.086C66.1445 215.213 66.6827 215.213 67.1977 215.086C67.551 215.001 67.7629 214.719 67.6781 214.436C67.4026 213.504 66.682 211.18 66.3076 211.208Z" fill="#263238"/>
<path d="M44.3014 225.464C43.927 225.499 43.3618 227.725 43.1287 228.706C43.1188 228.781 43.1238 228.856 43.1434 228.929C43.163 229.001 43.1968 229.069 43.2428 229.128C43.2888 229.187 43.3462 229.237 43.4115 229.273C43.4768 229.31 43.5488 229.334 43.6232 229.342C44.1383 229.469 44.6765 229.469 45.1915 229.342C45.2665 229.333 45.3388 229.308 45.4041 229.27C45.4693 229.232 45.5261 229.181 45.571 229.12C45.6159 229.059 45.648 228.99 45.6654 228.917C45.6827 228.843 45.685 228.767 45.6719 228.692C45.3894 227.753 44.6758 225.436 44.3014 225.464Z" fill="#263238"/>
<path d="M50.3206 222.695C49.9462 222.695 49.381 224.955 49.1549 225.937C49.145 226.011 49.1498 226.086 49.1689 226.158C49.1881 226.23 49.2213 226.297 49.2665 226.356C49.3118 226.415 49.3684 226.465 49.4329 226.502C49.4974 226.539 49.5686 226.563 49.6424 226.573C50.1583 226.693 50.6948 226.693 51.2107 226.573C51.2868 226.565 51.3604 226.541 51.4267 226.502C51.493 226.464 51.5506 226.412 51.5958 226.35C51.641 226.289 51.6728 226.218 51.6892 226.143C51.7056 226.068 51.7063 225.991 51.6911 225.916C51.4156 224.983 50.695 222.666 50.3206 222.695Z" fill="#263238"/>
<path d="M46.8237 223.231C46.0466 223.295 44.8809 227.915 44.4005 229.943C44.3746 230.098 44.3807 230.257 44.4184 230.411C44.4562 230.564 44.5248 230.707 44.62 230.833C44.7152 230.959 44.8351 231.064 44.9723 231.141C45.1095 231.219 45.2611 231.268 45.4178 231.285C46.4783 231.563 47.5898 231.585 48.6604 231.349C48.8169 231.331 48.9679 231.281 49.1042 231.202C49.2406 231.124 49.3592 231.018 49.4527 230.891C49.5461 230.764 49.6125 230.62 49.6476 230.466C49.6827 230.313 49.6857 230.154 49.6565 229.999C49.0772 227.979 47.6008 223.175 46.8237 223.231Z" fill="#455A64"/>
<g opacity="0.3">
<path d="M46.8237 223.231C46.0466 223.295 44.8809 227.915 44.4005 229.943C44.3746 230.098 44.3807 230.257 44.4184 230.411C44.4562 230.564 44.5248 230.707 44.62 230.833C44.7152 230.959 44.8351 231.064 44.9723 231.141C45.1095 231.219 45.2611 231.268 45.4178 231.285C46.4783 231.563 47.5898 231.585 48.6604 231.349C48.8169 231.331 48.9679 231.281 49.1042 231.202C49.2406 231.124 49.3592 231.018 49.4527 230.891C49.5461 230.764 49.6125 230.62 49.6476 230.466C49.6827 230.313 49.6857 230.154 49.6565 229.999C49.0772 227.979 47.6008 223.175 46.8237 223.231Z" fill="black"/>
</g>
<path d="M58.3811 215.51C57.823 215.552 56.9682 218.901 56.6291 220.377C56.5987 220.596 56.6558 220.819 56.788 220.996C56.9202 221.173 57.1169 221.291 57.3355 221.324C58.1052 221.523 58.9107 221.54 59.688 221.374C59.8006 221.359 59.909 221.322 60.0065 221.264C60.1041 221.206 60.1886 221.128 60.2549 221.036C60.3212 220.944 60.3678 220.839 60.3918 220.728C60.4158 220.618 60.4167 220.503 60.3944 220.392C60.02 218.95 58.9674 215.461 58.3811 215.51Z" fill="#455A64"/>
<g opacity="0.3">
<path d="M58.3811 215.51C57.823 215.552 56.9682 218.901 56.6291 220.377C56.5987 220.596 56.6558 220.819 56.788 220.996C56.9202 221.173 57.1169 221.291 57.3355 221.324C58.1052 221.523 58.9107 221.54 59.688 221.374C59.8006 221.359 59.909 221.322 60.0065 221.264C60.1041 221.206 60.1886 221.128 60.2549 221.036C60.3212 220.944 60.3678 220.839 60.3918 220.728C60.4158 220.618 60.4167 220.503 60.3944 220.392C60.02 218.95 58.9674 215.461 58.3811 215.51Z" fill="black"/>
</g>
<path d="M72.708 207.668C72.1499 207.718 71.2951 211.066 70.9489 212.536C70.921 212.761 70.9834 212.987 71.1224 213.166C71.2615 213.345 71.4659 213.461 71.6907 213.49C72.4608 213.687 73.2665 213.702 74.0432 213.532C74.1558 213.518 74.2642 213.48 74.3617 213.422C74.4593 213.364 74.5438 213.287 74.6101 213.195C74.6764 213.102 74.7229 212.998 74.747 212.887C74.771 212.776 74.7719 212.661 74.7496 212.55C74.347 211.109 73.2732 207.626 72.708 207.668Z" fill="#455A64"/>
<g opacity="0.3">
<path d="M72.708 207.668C72.1499 207.718 71.2951 211.066 70.9489 212.536C70.921 212.761 70.9834 212.987 71.1224 213.166C71.2615 213.345 71.4659 213.461 71.6907 213.49C72.4608 213.687 73.2665 213.702 74.0432 213.532C74.1558 213.518 74.2642 213.48 74.3617 213.422C74.4593 213.364 74.5438 213.287 74.6101 213.195C74.6764 213.102 74.7229 212.998 74.747 212.887C74.771 212.776 74.7719 212.661 74.7496 212.55C74.347 211.109 73.2732 207.626 72.708 207.668Z" fill="black"/>
</g>
<path d="M105.247 89.5004C105.113 89.0544 104.812 88.6773 104.406 88.4478C104.097 88.3667 103.769 88.4017 103.484 88.5462C103.199 88.6907 102.977 88.9347 102.859 89.2319C102.644 89.8361 102.585 90.4852 102.69 91.1182C102.531 90.8071 102.299 90.5387 102.015 90.3353C101.731 90.1319 101.402 89.9995 101.057 89.949C100.711 89.8985 100.358 89.9315 100.028 90.0452C99.6974 90.1589 99.399 90.3499 99.1575 90.6025C98.9793 90.8711 98.7784 91.124 98.557 91.3584C98.0791 91.6791 97.5056 91.8263 96.9322 91.7752C90.5001 91.9175 84.0795 92.3891 77.6956 93.1881C78.7362 93.6128 79.8583 93.801 80.9806 93.7391C88.8787 93.9087 97.7305 93.6543 105.636 93.8168H106.342C106.23 92.3254 105.859 90.8649 105.247 89.5004Z" fill="#EBEBEB"/>
<path d="M114.968 89.0059H123.834C124.853 89.0085 125.857 89.2505 126.766 89.7123L129.591 91.1252C129.591 91.1252 132.417 91.8317 132.841 92.8207C133.265 93.8097 132.756 94.4597 131.697 94.5444C130.637 94.6292 112.658 94.5444 112.658 94.5444L114.968 89.0059Z" fill="#263238"/>
<path d="M110.581 91.1323H120.118C120.496 91.1322 120.859 91.2799 121.13 91.5439C121.4 91.8079 121.557 92.1673 121.566 92.5452C121.567 92.736 121.53 92.9251 121.458 93.1016C121.386 93.2781 121.279 93.4386 121.144 93.5738C121.01 93.7091 120.85 93.8164 120.674 93.8896C120.498 93.9628 120.309 94.0005 120.118 94.0005H113.76L110.581 91.1323Z" fill="#263238"/>
<path d="M129.613 91.1111H121.404L119.178 88.9917H124.646C125.357 88.9903 126.057 89.1677 126.681 89.5074L129.613 91.1111Z" fill="#455A64"/>
<path d="M121.375 91.1464L119.115 88.9846H124.625C125.339 88.986 126.04 89.1657 126.667 89.5074L129.662 91.1252H129.613L121.375 91.1464ZM119.2 89.027L121.39 91.1464H129.528L126.653 89.5922C126.03 89.2535 125.333 89.0762 124.625 89.0765L119.2 89.027Z" fill="#263238"/>
<path d="M114.071 94.0358C113.698 93.8385 113.347 93.6016 113.025 93.3294C112.389 92.8419 111.499 92.1284 110.475 91.2948L110.107 90.991H110.581H113.18C115.144 90.991 116.932 90.991 118.225 90.991C118.933 90.9694 119.642 91.0096 120.344 91.1111C119.644 91.2281 118.934 91.2754 118.225 91.2524C116.932 91.2877 115.144 91.316 113.18 91.3231H110.581L110.694 91.0193C111.704 91.8812 112.559 92.6229 113.159 93.1386C113.497 93.4009 113.803 93.702 114.071 94.0358Z" fill="#455A64"/>
<path d="M95.1306 93.8167C95.1306 93.7178 98.5781 93.6331 102.824 93.6331C107.07 93.6331 110.524 93.7178 110.524 93.8167C110.524 93.9156 107.077 94.0004 102.824 94.0004C98.571 94.0004 95.1306 93.9227 95.1306 93.8167Z" fill="#263238"/>
<path d="M264.7 111.598H257.636C256.823 111.598 256.022 111.789 255.297 112.156L253.037 113.308C253.037 113.308 250.797 113.894 250.444 114.664C250.091 115.434 250.515 115.971 251.355 116.077C252.196 116.183 266.544 116.077 266.544 116.077L264.7 111.598Z" fill="#347683"/>
<path d="M268.204 113.308H260.596C260.288 113.308 259.994 113.43 259.776 113.647C259.559 113.864 259.437 114.159 259.437 114.466C259.439 114.772 259.562 115.065 259.779 115.281C259.996 115.497 260.29 115.618 260.596 115.618H265.654L268.204 113.308Z" fill="#347683"/>
<path d="M253.037 113.308H259.585L261.359 111.605H257C256.432 111.605 255.873 111.748 255.375 112.022L253.037 113.308Z" fill="#E0E0E0"/>
<path d="M265.421 115.611C266.244 114.731 267.132 113.914 268.077 113.167L268.19 113.47H266.12C264.545 113.47 263.125 113.435 262.093 113.4C261.534 113.417 260.975 113.369 260.426 113.258C260.976 113.158 261.535 113.118 262.093 113.138C263.125 113.138 264.545 113.096 266.12 113.103H268.19H268.663L268.296 113.4C267.397 114.211 266.436 114.951 265.421 115.611Z" fill="#263238"/>
<path d="M280.532 115.427C278.491 115.613 276.441 115.675 274.393 115.611C272.342 115.675 270.29 115.613 268.247 115.427C270.29 115.245 272.342 115.184 274.393 115.243C276.441 115.184 278.491 115.245 280.532 115.427Z" fill="#263238"/>
<path d="M275.389 114.205C272.981 114.45 270.555 114.45 268.148 114.205C270.555 113.96 272.981 113.96 275.389 114.205Z" fill="#263238"/>
<path d="M58.9676 162.879H66.0321C66.8436 162.881 67.6438 163.069 68.3705 163.43L70.6311 164.561C70.6311 164.561 72.8635 165.14 73.2167 165.91C73.5699 166.68 73.1461 167.217 72.3054 167.323C71.4647 167.429 57.1167 167.323 57.1167 167.323L58.9676 162.879Z" fill="#263238"/>
<path d="M55.4846 164.575H63.0931C63.4004 164.575 63.6951 164.697 63.9123 164.914C64.1296 165.132 64.2517 165.426 64.2517 165.734C64.2526 165.886 64.2233 166.037 64.1654 166.178C64.1075 166.319 64.0222 166.447 63.9144 166.555C63.8067 166.663 63.6786 166.748 63.5376 166.806C63.3966 166.864 63.2455 166.893 63.0931 166.892H58.0349L55.4846 164.575Z" fill="#263238"/>
<path d="M70.6591 164.561H64.1033L62.3301 162.865H66.6889C67.2562 162.864 67.8147 163.005 68.3137 163.275L70.6591 164.561Z" fill="#455A64"/>
<path d="M64.0964 164.596L62.2878 162.865H66.689C67.2591 162.867 67.8199 163.01 68.3209 163.282L70.7229 164.582H70.6593L64.0964 164.596ZM62.3726 162.901L64.1105 164.561H70.5886L68.3068 163.331C67.81 163.063 67.254 162.922 66.689 162.922L62.3726 162.901Z" fill="#263238"/>
<path d="M58.2611 166.892C57.2442 166.239 56.2783 165.509 55.3718 164.709L55.0044 164.413H55.4777H57.5547C59.123 164.413 60.55 164.413 61.5744 164.455C62.1328 164.435 62.6919 164.475 63.2416 164.575C62.6925 164.681 62.1334 164.726 61.5744 164.709C60.55 164.752 59.123 164.773 57.5547 164.78H55.4848L55.5978 164.476C56.5444 165.214 57.4347 166.022 58.2611 166.892Z" fill="#455A64"/>
<path d="M54.1707 166.475C53.4298 166.66 52.6638 166.722 51.903 166.659C51.1421 166.722 50.3761 166.66 49.6353 166.475C50.3768 166.295 51.1421 166.233 51.903 166.292C52.6638 166.233 53.4291 166.295 54.1707 166.475Z" fill="#263238"/>
<path d="M55.6684 165.734C55.0141 165.917 54.3317 165.979 53.655 165.917C52.9783 165.98 52.2958 165.918 51.6416 165.734C52.2965 165.554 52.9783 165.491 53.655 165.55C54.3317 165.492 55.0133 165.554 55.6684 165.734Z" fill="#263238"/>
</svg>
