<svg width="369" height="375" viewBox="0 0 369 375" fill="none" xmlns="http://www.w3.org/2000/svg">
<path d="M42.8621 52.6923C42.8621 59.4897 35.7295 65 26.931 65C18.1326 65 11 59.4897 11 52.6923C11 45.895 18.1326 40.3846 26.931 40.3846C35.7295 40.3846 42.8621 45.895 42.8621 52.6923Z" fill="#347683"/>
<path d="M99 52.6923C99 59.4897 91.8674 65 83.069 65C74.2705 65 67.1379 59.4897 67.1379 52.6923C67.1379 45.895 74.2705 40.3846 83.069 40.3846C91.8674 40.3846 99 45.895 99 52.6923Z" fill="#347683"/>
<path d="M83.0689 45C83.0689 56.0457 69.9926 65 53.862 65C37.7315 65 24.6552 56.0457 24.6552 45C24.6552 33.9543 37.7315 25 53.862 25C69.9926 25 83.0689 33.9543 83.0689 45Z" fill="#347683"/>
<path d="M176.172 87.862C176.172 92.7374 170.985 96.6896 164.586 96.6896C158.187 96.6896 153 92.7374 153 87.862C153 82.9867 158.187 79.0344 164.586 79.0344C170.985 79.0344 176.172 82.9867 176.172 87.862Z" fill="#347683"/>
<path d="M217 87.862C217 92.7374 211.813 96.6896 205.414 96.6896C199.015 96.6896 193.828 92.7374 193.828 87.862C193.828 82.9867 199.015 79.0344 205.414 79.0344C211.813 79.0344 217 82.9867 217 87.862Z" fill="#347683"/>
<path d="M205.414 82.3448C205.414 90.2673 195.904 96.6897 184.172 96.6897C172.441 96.6897 162.931 90.2673 162.931 82.3448C162.931 74.4224 172.441 68 184.172 68C195.904 68 205.414 74.4224 205.414 82.3448Z" fill="#347683"/>
<path d="M19.9138 365.862C19.9138 370.737 15.4559 374.69 9.95689 374.69C4.45785 374.69 0 370.737 0 365.862C0 360.987 4.45785 357.034 9.95689 357.034C15.4559 357.034 19.9138 360.987 19.9138 365.862Z" fill="#347683"/>
<path d="M54.9997 365.862C54.9997 370.737 50.5419 374.69 45.0428 374.69C39.5438 374.69 35.0859 370.737 35.0859 365.862C35.0859 360.987 39.5438 357.034 45.0428 357.034C50.5419 357.034 54.9997 360.987 54.9997 365.862Z" fill="#347683"/>
<path d="M45.043 360.345C45.043 368.267 36.8703 374.69 26.7887 374.69C16.7072 374.69 8.53442 368.267 8.53442 360.345C8.53442 352.422 16.7072 346 26.7887 346C36.8703 346 45.043 352.422 45.043 360.345Z" fill="#347683"/>
<path d="M319.914 330.862C319.914 335.737 315.456 339.69 309.957 339.69C304.458 339.69 300 335.737 300 330.862C300 325.987 304.458 322.034 309.957 322.034C315.456 322.034 319.914 325.987 319.914 330.862Z" fill="#347683"/>
<path d="M355 330.862C355 335.737 350.542 339.69 345.043 339.69C339.544 339.69 335.086 335.737 335.086 330.862C335.086 325.987 339.544 322.034 345.043 322.034C350.542 322.034 355 325.987 355 330.862Z" fill="#347683"/>
<path d="M345.043 325.345C345.043 333.267 336.87 339.69 326.789 339.69C316.707 339.69 308.534 333.267 308.534 325.345C308.534 317.422 316.707 311 326.789 311C336.87 311 345.043 317.422 345.043 325.345Z" fill="#347683"/>
<path d="M295 36C295 44.8366 285.598 52 274 52C262.402 52 253 44.8366 253 36C253 27.1634 262.402 20 274 20C285.598 20 295 27.1634 295 36Z" fill="#347683"/>
<path d="M369 36C369 44.8366 359.598 52 348 52C336.402 52 327 44.8366 327 36C327 27.1634 336.402 20 348 20C359.598 20 369 27.1634 369 36Z" fill="#347683"/>
<path d="M348 26C348 40.3594 330.763 52 309.5 52C288.237 52 271 40.3594 271 26C271 11.6406 288.237 0 309.5 0C330.763 0 348 11.6406 348 26Z" fill="#347683"/>
</svg>
