<svg width="390" height="797" viewBox="0 0 390 797" fill="none" xmlns="http://www.w3.org/2000/svg">
<circle cx="134.5" cy="877.5" r="392.5" fill="#66B3BC"/>
<circle cx="121.5" cy="1025.5" r="392.5" fill="#77BCC4"/>
<path d="M362.799 242.147C361.773 247.877 361.174 253.447 360.396 259.074C359.618 264.701 358.866 270.156 358.113 275.691C356.574 286.922 355.137 298.13 354.06 309.235C354.009 309.716 354.984 309.418 355.026 308.971C356.112 297.797 357.591 286.521 359.071 275.233C360.541 264.208 362.491 252.966 363.218 242.147C363.218 241.987 362.842 241.918 362.799 242.147Z" fill="#89C4CB"/>
<path d="M295.743 292.537C306.406 295.059 317.248 297.339 327.885 299.895C338.522 302.45 348.886 305.075 359.3 307.779C359.728 307.894 360.404 307.195 359.925 307.069C349.595 304.395 339.215 301.793 328.783 299.264C318.035 296.697 307.295 294.062 296.162 292.056C295.812 291.999 295.359 292.446 295.743 292.537Z" fill="#89C4CB"/>
<path d="M365.158 244.199C365.252 244.867 365.398 245.52 365.594 246.147C365.773 246.784 365.979 247.408 366.21 248.015C366.253 248.141 366.407 248.187 366.595 248.129C366.783 248.072 366.928 247.923 366.886 247.797C366.655 247.19 366.432 246.559 366.244 245.929C366.056 245.299 365.919 244.68 365.714 244.073C365.663 243.901 365.133 243.935 365.158 244.199Z" fill="#89C4CB"/>
<path d="M368.604 244.313C367.98 245.299 367.442 246.284 366.894 247.281L366.039 248.771L365.62 249.55C365.478 249.785 365.349 250.034 365.235 250.295C365.141 250.559 365.62 250.696 365.834 250.387C366.112 249.943 366.369 249.476 366.604 248.989L367.347 247.579C367.912 246.525 368.459 245.471 368.921 244.416C368.998 244.256 368.69 244.107 368.562 244.313H368.604Z" fill="#89C4CB"/>
<path d="M295.403 295.861C295.198 296.136 295.352 296.296 295.454 296.479C295.557 296.663 295.711 296.892 295.839 297.098C296.096 297.499 296.343 297.912 296.583 298.325C296.822 298.737 297.036 299.138 297.25 299.562C297.37 299.768 297.481 299.986 297.583 300.204C297.686 300.422 297.754 300.662 298.079 300.72C298.168 300.735 298.257 300.717 298.339 300.669C298.42 300.62 298.49 300.543 298.541 300.445C298.618 300.17 298.456 299.998 298.353 299.803L298.011 299.161C297.789 298.749 297.541 298.347 297.293 297.946C297.045 297.545 296.771 297.121 296.497 296.709C296.224 296.296 296.061 295.872 295.557 295.803C295.53 295.799 295.502 295.801 295.476 295.811C295.449 295.821 295.424 295.838 295.403 295.861Z" fill="#89C4CB"/>
<path d="M299.02 296.422C298.943 296.273 298.669 296.319 298.464 296.422C298.265 296.553 298.079 296.715 297.908 296.904C297.557 297.27 297.215 297.649 296.89 298.05C296.232 298.806 295.625 299.574 295.061 300.342C294.787 300.72 295.514 300.743 295.762 300.342C296.241 299.677 296.754 299.012 297.284 298.359C297.532 298.05 297.797 297.752 298.062 297.442L298.43 297.018L298.652 296.766C298.729 296.675 298.824 296.615 298.926 296.594C299.054 296.594 299.045 296.422 299.02 296.365V296.422Z" fill="#89C4CB"/>
<path d="M356.308 268.574C355.341 270.007 354.46 271.54 353.674 273.158C352.691 274.957 351.673 276.757 350.502 278.544C348.415 281.707 344.901 286.567 340.626 287.598C336.487 288.652 334.059 285.65 332.648 283.472C331.317 281.261 330.255 278.782 329.501 276.126C328.09 271.726 326.936 266.786 323.251 263.853C322.176 262.993 320.984 262.43 319.745 262.196C318.506 261.962 317.244 262.061 316.034 262.489C313.157 263.464 310.511 265.396 308.338 268.104C302.874 274.74 299.83 282.922 299.061 289.477C299.061 289.684 299.565 289.695 299.634 289.477C301.344 282.716 303.293 275.553 308.672 268.78C311.664 265.01 316.367 261.836 320.249 263.291C322.243 264.033 323.994 265.647 325.226 267.875C327.62 272.058 328.364 277.158 330.356 281.547C331.964 284.985 335.641 291.208 342.703 287.426C345.749 285.614 348.455 282.912 350.621 279.519C352.939 276.081 355.41 272.104 356.41 268.677C356.41 268.62 356.41 268.54 356.308 268.62V268.574Z" fill="#89C4CB"/>
<path d="M341.088 250.8C341.019 250.836 340.959 250.897 340.914 250.976C340.869 251.055 340.841 251.148 340.832 251.247C340.772 251.545 340.721 251.854 340.678 252.152C340.601 252.679 340.55 253.195 340.481 253.722C340.353 254.788 340.233 255.854 340.062 256.931C340.02 257.172 340.55 257.172 340.592 256.931C340.746 255.888 340.857 254.857 340.96 253.814C341.011 253.298 341.071 252.783 341.131 252.278C341.191 251.774 341.371 251.132 341.131 250.857C341.131 250.857 341.131 250.857 341.088 250.857V250.8Z" fill="#89C4CB"/>
<path d="M339.925 260.002C339.856 260.038 339.796 260.099 339.751 260.178C339.705 260.257 339.677 260.35 339.668 260.449C339.608 260.747 339.557 261.056 339.514 261.354C339.437 261.881 339.386 262.397 339.318 262.924C339.189 263.99 339.07 265.056 338.899 266.133C338.856 266.374 339.386 266.374 339.429 266.133C339.583 265.09 339.694 264.059 339.797 263.016C339.848 262.5 339.908 261.985 339.968 261.469C340.027 260.953 340.207 260.323 339.968 260.059C339.968 260.059 339.968 260.059 339.925 260.059V260.002Z" fill="#89C4CB"/>
<path d="M338.762 269.205C338.694 269.241 338.633 269.302 338.588 269.381C338.543 269.459 338.515 269.553 338.506 269.652C338.446 269.949 338.395 270.259 338.352 270.557C338.275 271.084 338.224 271.6 338.155 272.127C338.027 273.193 337.907 274.258 337.736 275.336C337.694 275.565 338.215 275.576 338.267 275.336C338.42 274.293 338.523 273.261 338.634 272.219C338.685 271.703 338.745 271.187 338.805 270.671C338.865 270.156 339.045 269.525 338.805 269.25C338.791 269.244 338.776 269.244 338.762 269.25V269.205Z" fill="#89C4CB"/>
<path d="M337.6 278.407C337.531 278.444 337.471 278.504 337.426 278.583C337.381 278.662 337.353 278.755 337.344 278.854C337.284 279.152 337.233 279.461 337.19 279.759C337.113 280.286 337.062 280.802 336.993 281.329C336.865 282.395 336.745 283.461 336.574 284.538C336.532 284.767 337.053 284.779 337.096 284.538C337.258 283.495 337.361 282.464 337.472 281.421C337.523 280.905 337.583 280.39 337.643 279.874C337.703 279.358 337.883 278.728 337.643 278.453L337.6 278.407Z" fill="#89C4CB"/>
<path d="M336.436 287.609C336.367 287.646 336.306 287.707 336.261 287.786C336.216 287.864 336.188 287.958 336.179 288.056C336.119 288.354 336.068 288.664 336.025 288.962C335.948 289.489 335.897 290.005 335.828 290.52C335.7 291.598 335.58 292.663 335.409 293.741C335.367 293.97 335.888 293.981 335.931 293.741C336.094 292.698 336.196 291.655 336.307 290.624C336.359 290.108 336.418 289.592 336.478 289.076C336.538 288.561 336.718 287.93 336.478 287.655L336.436 287.609Z" fill="#89C4CB"/>
<path d="M335.274 296.812C335.205 296.848 335.145 296.909 335.099 296.988C335.054 297.067 335.026 297.16 335.017 297.259C334.957 297.557 334.906 297.866 334.863 298.164C334.786 298.691 334.735 299.207 334.667 299.723C334.538 300.8 334.41 301.866 334.248 302.943C334.205 303.172 334.726 303.184 334.769 302.943C334.932 301.9 335.034 300.857 335.145 299.826C335.197 299.31 335.257 298.794 335.316 298.279C335.376 297.763 335.556 297.133 335.316 296.858H335.274V296.812Z" fill="#89C4CB"/>
<path d="M312.554 275.954C312.606 276.081 312.717 276.115 312.871 276.161L313.504 276.321C313.957 276.436 314.418 276.527 314.889 276.631C315.821 276.825 316.753 277.02 317.651 277.272C317.715 277.291 317.782 277.291 317.847 277.274C317.912 277.256 317.973 277.22 318.027 277.169C318.121 277.055 318.07 276.929 317.967 276.906C317.069 276.665 316.146 276.482 315.214 276.287L313.837 276L313.033 275.828C312.888 275.749 312.725 275.749 312.58 275.828C312.58 275.828 312.58 275.909 312.58 275.932L312.554 275.954Z" fill="#89C4CB"/>
<path d="M320.482 277.754C320.542 277.88 320.644 277.914 320.798 277.96L321.431 278.12C321.884 278.235 322.355 278.338 322.816 278.43C323.748 278.636 324.68 278.82 325.587 279.072C325.65 279.09 325.715 279.09 325.779 279.072C325.842 279.055 325.902 279.019 325.954 278.969C326.048 278.854 325.954 278.728 325.894 278.705C325.039 278.464 324.073 278.281 323.141 278.086L321.765 277.8L320.961 277.628C320.815 277.554 320.654 277.554 320.508 277.628C320.508 277.628 320.465 277.708 320.508 277.731L320.482 277.754Z" fill="#89C4CB"/>
<path d="M328.406 279.553C328.466 279.679 328.569 279.713 328.723 279.759L329.356 279.92C329.809 280.034 330.279 280.137 330.741 280.229C331.673 280.435 332.605 280.63 333.511 280.871C333.574 280.89 333.64 280.891 333.703 280.873C333.767 280.855 333.827 280.819 333.879 280.768C333.973 280.653 333.922 280.527 333.819 280.504C332.921 280.263 331.998 280.08 331.074 279.885L329.689 279.599L328.885 279.427C328.742 279.353 328.584 279.353 328.441 279.427C328.398 279.427 328.398 279.507 328.441 279.53L328.406 279.553Z" fill="#89C4CB"/>
<path d="M336.335 281.352C336.395 281.478 336.506 281.513 336.652 281.559L337.285 281.719C337.738 281.834 338.208 281.937 338.67 282.028C339.602 282.235 340.542 282.43 341.44 282.67C341.503 282.689 341.569 282.69 341.632 282.672C341.696 282.654 341.756 282.618 341.808 282.567C341.902 282.452 341.851 282.326 341.748 282.303C340.85 282.063 339.927 281.879 339.003 281.685L337.627 281.398L336.814 281.226C336.671 281.153 336.513 281.153 336.37 281.226C336.37 281.226 336.37 281.306 336.37 281.329L336.335 281.352Z" fill="#89C4CB"/>
<path d="M344.262 283.152C344.322 283.278 344.433 283.312 344.578 283.358L345.211 283.53L346.596 283.828C347.528 284.034 348.469 284.229 349.366 284.469C349.43 284.489 349.495 284.489 349.559 284.471C349.622 284.454 349.682 284.418 349.734 284.366C349.828 284.252 349.734 284.126 349.674 284.103C348.819 283.862 347.853 283.679 346.93 283.484L345.553 283.197C345.279 283.197 345.014 283.094 344.749 283.026C344.603 282.952 344.442 282.952 344.296 283.026C344.253 283.026 344.253 283.106 344.296 283.129L344.262 283.152Z" fill="#89C4CB"/>
<path d="M352.188 284.951C352.248 285.088 352.359 285.111 352.504 285.157L353.146 285.329C353.599 285.444 354.061 285.535 354.522 285.638C355.454 285.833 356.395 286.028 357.293 286.269C357.357 286.287 357.424 286.288 357.489 286.27C357.554 286.252 357.615 286.217 357.669 286.166C357.763 286.051 357.669 285.925 357.601 285.902C356.746 285.673 355.788 285.478 354.856 285.295L353.479 285.008L352.675 284.825C352.529 284.751 352.368 284.751 352.222 284.825C352.179 284.825 352.179 284.905 352.222 284.928L352.188 284.951Z" fill="#89C4CB"/>
<path d="M312.63 276.081C313.372 276.32 314.123 276.508 314.879 276.642C315.666 276.825 316.461 277.02 317.265 277.192C317.479 277.258 317.701 277.258 317.915 277.192C318.248 277.009 317.974 276.711 317.701 276.86C317.769 276.86 317.932 276.86 317.863 276.86H317.761L317.436 276.791L316.41 276.573L313.844 276C313.477 275.92 313.109 275.828 312.724 275.771C312.502 275.771 312.511 276.035 312.622 276.081H312.63Z" fill="#89C4CB"/>
<path d="M305.065 274.362C305.74 274.614 306.535 274.74 307.262 274.912L309.674 275.462C309.874 275.536 310.082 275.567 310.289 275.553C310.426 275.553 310.52 275.393 310.503 275.29C310.486 275.187 310.341 275.152 310.204 275.175C310.323 275.175 310.392 275.175 310.204 275.175L309.887 275.107L308.93 274.809L306.364 274.236C305.98 274.155 305.603 274.064 305.202 274.006C304.979 274.006 304.988 274.27 305.099 274.316L305.065 274.362Z" fill="#89C4CB"/>
<path d="M298.129 272.791C298.805 273.044 299.626 273.181 300.37 273.353L302.755 273.892C302.967 273.987 303.194 274.007 303.414 273.949C303.747 273.766 303.474 273.468 303.191 273.628C303.268 273.628 303.422 273.628 303.354 273.628H303.251L302.926 273.559L301.9 273.33L299.335 272.769C298.967 272.688 298.6 272.597 298.224 272.539C297.993 272.539 298.001 272.803 298.121 272.849L298.129 272.791Z" fill="#89C4CB"/>
<path d="M334.582 250.88C334.813 251.362 335.176 251.703 335.593 251.831C336.01 251.96 336.448 251.865 336.813 251.568C337.038 251.4 337.231 251.166 337.379 250.885C337.528 250.603 337.626 250.28 337.668 249.94C337.756 249.643 337.781 249.319 337.739 249.005C337.697 248.691 337.591 248.398 337.432 248.16C337.273 247.922 337.068 247.748 336.839 247.658C336.61 247.567 336.368 247.564 336.138 247.648C335.904 247.717 335.685 247.856 335.497 248.055C335.309 248.253 335.157 248.506 335.052 248.794C334.838 249.375 334.727 250.014 334.727 250.662C334.727 251.31 334.838 251.949 335.052 252.53C335.301 253.24 335.701 253.836 336.201 254.243C336.701 254.651 337.28 254.852 337.865 254.822C338.096 254.822 338.122 254.547 337.985 254.501C337.547 254.409 337.131 254.189 336.764 253.857C336.397 253.524 336.09 253.087 335.864 252.577C335.638 252.067 335.498 251.497 335.455 250.906C335.413 250.316 335.467 249.72 335.616 249.161C335.673 248.856 335.778 248.57 335.924 248.324C335.996 248.18 336.106 248.08 336.232 248.043C336.358 248.007 336.49 248.038 336.599 248.13C336.803 248.273 336.966 248.502 337.063 248.781C337.161 249.061 337.187 249.375 337.138 249.677C337.138 250.089 336.933 251.235 336.155 251.327C335.926 251.344 335.698 251.289 335.489 251.165C335.279 251.042 335.094 250.854 334.949 250.616C334.864 250.513 334.573 250.616 334.616 250.765L334.582 250.88Z" fill="#89C4CB"/>
<path d="M340.422 276.86C340.964 277.159 341.424 277.675 341.739 278.338C341.899 278.656 341.999 279.022 342.03 279.404C342.056 279.605 342.038 279.813 341.977 280C341.916 280.187 341.815 280.347 341.688 280.458C341.547 280.571 341.38 280.607 341.22 280.557C341.061 280.508 340.922 280.378 340.833 280.195C340.721 280.046 340.26 279.553 340.585 279.278C340.774 279.168 340.972 279.088 341.175 279.037C341.401 278.956 341.633 278.902 341.867 278.877C342.254 278.815 342.647 278.858 343.021 279.003C343.317 279.1 343.59 279.293 343.816 279.565C344.043 279.837 344.216 280.179 344.321 280.561C344.373 280.779 344.911 280.676 344.86 280.401C344.731 279.935 344.513 279.523 344.228 279.205C343.943 278.887 343.601 278.675 343.235 278.59C342.717 278.422 342.179 278.395 341.653 278.51C341.394 278.561 341.137 278.633 340.884 278.728C340.624 278.8 340.375 278.932 340.148 279.117C339.738 279.541 340.063 279.977 340.225 280.263C340.337 280.483 340.484 280.667 340.656 280.8C340.828 280.932 341.02 281.012 341.217 281.031C341.424 281.043 341.629 280.989 341.818 280.876C342.006 280.763 342.172 280.592 342.303 280.378C342.399 280.18 342.458 279.954 342.476 279.719C342.494 279.483 342.47 279.246 342.406 279.026C342.258 278.464 342.017 277.955 341.7 277.538C341.382 277.12 340.998 276.806 340.576 276.619C340.396 276.527 340.294 276.825 340.422 276.894V276.86Z" fill="#89C4CB"/>
<path d="M303.432 267.085C303.316 266.951 303.179 266.855 303.031 266.804C302.882 266.752 302.727 266.746 302.577 266.787C302.278 266.818 301.987 266.931 301.722 267.119C301.494 267.294 301.295 267.532 301.139 267.816C300.983 268.1 300.873 268.425 300.816 268.769C300.765 268.908 300.738 269.061 300.738 269.216C300.738 269.371 300.765 269.524 300.816 269.663C300.896 269.771 300.992 269.855 301.099 269.908C301.205 269.962 301.318 269.984 301.432 269.973C301.949 269.948 302.439 269.656 302.8 269.159C302.987 268.925 303.132 268.638 303.226 268.318C303.319 267.999 303.357 267.656 303.338 267.314L302.748 267.417C302.721 267.842 302.782 268.269 302.926 268.649C303.069 269.03 303.289 269.349 303.561 269.571C303.723 269.685 303.901 269.751 304.084 269.767C304.266 269.783 304.449 269.747 304.621 269.663C305.074 269.445 305.305 268.953 305.254 268.655C305.232 268.621 305.205 268.594 305.175 268.575C305.145 268.556 305.112 268.547 305.078 268.547C305.045 268.547 305.012 268.556 304.982 268.575C304.952 268.594 304.925 268.621 304.903 268.655C304.783 268.815 304.604 269.319 304.33 269.365C304.226 269.364 304.122 269.334 304.027 269.277C303.931 269.22 303.845 269.136 303.775 269.033C303.471 268.569 303.315 267.964 303.338 267.348C303.338 267.108 302.731 267.165 302.748 267.451C302.769 267.739 302.741 268.029 302.667 268.301C302.593 268.572 302.475 268.819 302.321 269.021C302.116 269.319 301.62 269.766 301.389 269.491C301.158 269.216 301.346 268.918 301.389 268.643C301.454 268.332 301.568 268.043 301.722 267.795C301.865 267.548 302.063 267.368 302.287 267.279C302.593 267.179 302.916 267.207 303.21 267.36C303.24 267.363 303.27 267.357 303.298 267.344C303.326 267.33 303.352 267.308 303.373 267.279C303.424 267.211 303.373 267.165 303.373 267.119L303.432 267.085Z" fill="#89C4CB"/>
<path d="M352.411 435.502C353.16 435.508 353.908 435.434 354.646 435.282C354.841 435.243 355.017 435.12 355.145 434.934C355.272 434.749 355.342 434.514 355.341 434.271V432.071C356.276 431.759 357.174 431.301 358.013 430.707L359.269 432.258C359.405 432.43 359.586 432.538 359.78 432.562C359.974 432.586 360.168 432.525 360.329 432.39C361.552 431.312 362.624 429.992 363.5 428.485C363.613 428.287 363.665 428.046 363.649 427.805C363.633 427.564 363.549 427.337 363.411 427.165L362.111 425.603C362.59 424.565 362.961 423.456 363.215 422.303H364.996C365.192 422.304 365.382 422.22 365.532 422.065C365.681 421.91 365.782 421.694 365.816 421.456C366.061 419.635 366.061 417.777 365.816 415.956C365.781 415.719 365.679 415.505 365.53 415.351C365.38 415.196 365.192 415.111 364.996 415.109H363.215C362.96 413.957 362.589 412.848 362.111 411.81L363.366 410.27C363.504 410.097 363.588 409.871 363.605 409.63C363.621 409.388 363.568 409.148 363.455 408.95C362.597 407.433 361.54 406.102 360.329 405.012C360.17 404.873 359.975 404.809 359.781 404.831C359.587 404.853 359.405 404.96 359.269 405.133L358.013 406.673C357.175 406.077 356.277 405.622 355.341 405.32V403.12C355.342 402.877 355.272 402.642 355.145 402.456C355.017 402.271 354.841 402.147 354.646 402.108C353.171 401.814 351.668 401.814 350.193 402.108C349.999 402.147 349.822 402.271 349.695 402.456C349.567 402.642 349.498 402.877 349.498 403.12V405.32C348.563 405.624 347.665 406.079 346.826 406.673L345.579 405.133C345.441 404.959 345.258 404.852 345.063 404.83C344.867 404.808 344.671 404.872 344.51 405.012C343.287 406.094 342.215 407.417 341.339 408.928C341.228 409.127 341.177 409.368 341.194 409.61C341.212 409.851 341.298 410.077 341.437 410.248L342.684 411.788C342.206 412.826 341.835 413.935 341.58 415.087H339.798C339.604 415.087 339.415 415.172 339.267 415.327C339.118 415.482 339.019 415.697 338.988 415.934C338.862 416.85 338.8 417.777 338.801 418.706C338.801 419.631 338.864 420.555 338.988 421.467C339.02 421.707 339.119 421.925 339.27 422.082C339.42 422.24 339.61 422.326 339.807 422.325H341.589C341.842 423.478 342.213 424.587 342.693 425.625L341.446 427.165C341.307 427.336 341.222 427.563 341.205 427.805C341.189 428.046 341.243 428.287 341.357 428.485C342.228 429.998 343.296 431.321 344.519 432.401C344.679 432.54 344.874 432.605 345.07 432.585C345.265 432.565 345.448 432.461 345.588 432.291L346.835 430.74C347.675 431.332 348.573 431.79 349.507 432.104V434.304C349.507 434.547 349.576 434.782 349.704 434.967C349.831 435.153 350.007 435.276 350.202 435.315C350.933 435.454 351.671 435.517 352.411 435.502ZM354.433 434.194C353.092 434.447 351.729 434.447 350.389 434.194V431.202L350.041 431.092C348.962 430.78 347.931 430.257 346.986 429.541L346.683 429.299L344.973 431.411C343.869 430.437 342.903 429.244 342.114 427.88L343.824 425.79L343.637 425.416C343.049 424.254 342.621 422.979 342.372 421.643L342.283 421.214H339.843C339.737 420.388 339.683 419.553 339.683 418.717C339.682 417.881 339.735 417.046 339.843 416.22H342.257L342.346 415.791C342.596 414.456 343.024 413.182 343.611 412.019L343.798 411.634L342.087 409.533C342.879 408.172 343.844 406.979 344.947 406.002L346.657 408.114L346.96 407.872C347.903 407.152 348.935 406.628 350.015 406.321L350.362 406.222V403.23C351.702 402.966 353.066 402.966 354.406 403.23V406.222L354.753 406.321C355.833 406.628 356.865 407.152 357.808 407.872L358.111 408.114L359.848 405.991C360.951 406.97 361.92 408.162 362.716 409.522L360.997 411.623L361.184 412.008C361.77 413.173 362.2 414.447 362.458 415.78L362.538 416.209H364.952C365.177 417.862 365.177 419.55 364.952 421.203H362.538L362.458 421.632C362.212 422.96 361.794 424.231 361.22 425.394L361.033 425.768L362.752 427.891C361.955 429.247 360.987 430.435 359.884 431.411L358.174 429.299L357.871 429.541C356.927 430.258 355.895 430.782 354.816 431.092L354.468 431.202L354.433 434.194ZM352.402 426.89C353.272 426.894 354.134 426.685 354.938 426.276C355.742 425.866 356.472 425.263 357.087 424.503C357.995 423.369 358.619 421.936 358.885 420.375C359.15 418.815 359.045 417.193 358.583 415.703C358.267 414.66 357.774 413.713 357.136 412.926C356.499 412.138 355.731 411.529 354.887 411.139C353.678 410.55 352.357 410.411 351.085 410.737C349.814 411.064 348.647 411.843 347.729 412.978C346.811 414.113 346.181 415.554 345.918 417.125C345.655 418.696 345.769 420.327 346.247 421.819C346.559 422.862 347.05 423.809 347.687 424.595C348.323 425.381 349.09 425.988 349.935 426.373C350.726 426.724 351.561 426.899 352.402 426.89ZM352.402 411.678C353.138 411.682 353.867 411.846 354.557 412.162C355.277 412.496 355.931 413.016 356.475 413.688C357.019 414.359 357.44 415.166 357.71 416.055C358.125 417.347 358.225 418.76 357.997 420.121C357.77 421.481 357.224 422.73 356.429 423.712C355.633 424.695 354.622 425.368 353.52 425.649C352.419 425.93 351.274 425.807 350.228 425.295C349.509 424.961 348.855 424.44 348.311 423.769C347.767 423.097 347.346 422.29 347.075 421.401C346.664 420.102 346.565 418.683 346.793 417.317C347.021 415.95 347.564 414.694 348.358 413.702C348.891 413.044 349.525 412.523 350.222 412.17C350.919 411.817 351.666 411.638 352.42 411.645L352.402 411.678Z" fill="#89C4CB"/>
<path d="M313.254 409.885C313.768 409.89 314.28 409.838 314.786 409.731C314.919 409.707 315.039 409.624 315.126 409.499C315.213 409.374 315.26 409.214 315.258 409.049V407.542C315.883 407.334 316.482 407.023 317.04 406.618L317.931 407.718C318.023 407.836 318.147 407.909 318.28 407.923C318.412 407.937 318.544 407.891 318.652 407.795C319.489 407.056 320.223 406.153 320.825 405.122C320.903 404.987 320.939 404.822 320.927 404.657C320.916 404.492 320.858 404.337 320.763 404.22L319.872 403.12C320.2 402.43 320.455 401.691 320.629 400.92H321.841C321.975 400.92 322.105 400.861 322.207 400.755C322.31 400.648 322.379 400.5 322.402 400.337C322.483 399.711 322.525 399.079 322.527 398.445C322.526 397.812 322.484 397.179 322.402 396.553C322.381 396.389 322.312 396.24 322.209 396.133C322.106 396.026 321.975 395.968 321.841 395.97H320.629C320.455 395.2 320.2 394.461 319.872 393.771L320.763 392.671C320.855 392.551 320.911 392.397 320.922 392.233C320.933 392.069 320.899 391.905 320.825 391.769C320.226 390.735 319.492 389.832 318.652 389.096C318.544 388.999 318.412 388.954 318.28 388.968C318.147 388.982 318.023 389.055 317.931 389.173L317.04 390.273C316.481 389.868 315.882 389.554 315.258 389.338V387.842C315.26 387.676 315.213 387.514 315.127 387.387C315.04 387.26 314.919 387.175 314.786 387.149C313.771 386.95 312.737 386.95 311.722 387.149C311.591 387.178 311.472 387.263 311.387 387.39C311.303 387.517 311.257 387.677 311.259 387.842V389.338C310.636 389.554 310.037 389.869 309.478 390.273L308.587 389.173C308.492 389.056 308.367 388.984 308.233 388.97C308.1 388.956 307.966 389 307.857 389.096C307.02 389.832 306.288 390.735 305.692 391.769C305.615 391.904 305.579 392.069 305.59 392.234C305.602 392.399 305.66 392.553 305.755 392.671L306.645 393.771C306.324 394.463 306.073 395.202 305.897 395.97H304.686C304.551 395.968 304.42 396.026 304.317 396.133C304.214 396.24 304.146 396.389 304.125 396.553C304.043 397.179 304.001 397.812 304 398.445C304.002 399.079 304.044 399.711 304.125 400.337C304.148 400.5 304.217 400.648 304.319 400.755C304.422 400.861 304.552 400.92 304.686 400.92H305.897C306.073 401.689 306.324 402.427 306.645 403.12L305.755 404.22C305.66 404.337 305.602 404.492 305.59 404.657C305.579 404.822 305.615 404.987 305.692 405.122C306.291 406.153 307.022 407.056 307.857 407.795C307.966 407.89 308.1 407.935 308.233 407.92C308.367 407.906 308.492 407.835 308.587 407.718L309.478 406.618C310.037 407.02 310.635 407.331 311.259 407.542V409.049C311.257 409.212 311.303 409.371 311.388 409.496C311.473 409.621 311.592 409.704 311.722 409.731C312.228 409.837 312.741 409.889 313.254 409.885ZM314.635 408.994C313.72 409.17 312.789 409.17 311.874 408.994V406.948L311.633 406.871C310.895 406.646 310.191 406.275 309.549 405.771L309.344 405.606L308.168 407.047C307.418 406.378 306.759 405.565 306.218 404.638L307.385 403.186L307.26 402.933C306.85 402.142 306.549 401.272 306.369 400.359L306.307 400.062H304.659C304.585 399.498 304.547 398.928 304.543 398.357C304.545 397.786 304.584 397.216 304.659 396.652H306.307L306.369 396.355C306.549 395.439 306.85 394.566 307.26 393.771L307.385 393.518L306.218 392.077C306.759 391.146 307.418 390.329 308.168 389.657L309.344 391.109L309.549 390.944C310.193 390.444 310.896 390.073 311.633 389.844L311.874 389.778V387.732C312.789 387.556 313.72 387.556 314.635 387.732V389.778L314.875 389.844C315.616 390.07 316.323 390.442 316.969 390.944L317.173 391.109L318.34 389.657C319.096 390.326 319.758 391.143 320.3 392.077L319.124 393.518L319.258 393.771C319.664 394.568 319.965 395.441 320.148 396.355L320.202 396.652H321.859C322.001 397.782 322.001 398.932 321.859 400.062H320.202L320.148 400.359C319.965 401.27 319.664 402.139 319.258 402.933L319.124 403.186L320.3 404.638C319.758 405.568 319.096 406.382 318.34 407.047L317.173 405.606L316.969 405.771C316.324 406.277 315.617 406.649 314.875 406.871L314.635 406.948V408.994ZM313.254 403.978C313.848 403.984 314.437 403.843 314.986 403.563C315.536 403.283 316.034 402.871 316.452 402.35C317.077 401.573 317.506 400.59 317.688 399.518C317.87 398.446 317.796 397.332 317.476 396.311C317.26 395.598 316.922 394.95 316.486 394.411C316.049 393.872 315.525 393.455 314.947 393.188C314.12 392.783 313.216 392.687 312.346 392.91C311.476 393.132 310.677 393.665 310.05 394.442C309.422 395.218 308.991 396.205 308.812 397.28C308.633 398.355 308.713 399.471 309.041 400.491C309.259 401.201 309.597 401.845 310.031 402.381C310.466 402.918 310.988 403.335 311.562 403.604C312.104 403.85 312.677 403.977 313.254 403.978ZM313.254 393.584C313.756 393.585 314.254 393.697 314.724 393.913C315.218 394.138 315.667 394.492 316.039 394.952C316.411 395.411 316.698 395.965 316.88 396.575C317.165 397.458 317.235 398.424 317.08 399.355C316.925 400.285 316.552 401.139 316.008 401.811C315.463 402.482 314.771 402.941 314.017 403.131C313.263 403.321 312.481 403.233 311.767 402.878C311.276 402.651 310.829 402.297 310.457 401.84C310.086 401.383 309.797 400.833 309.611 400.227C309.336 399.341 309.273 398.376 309.431 397.447C309.589 396.518 309.961 395.666 310.502 394.991C310.864 394.543 311.295 394.188 311.769 393.946C312.243 393.705 312.751 393.581 313.263 393.584H313.254Z" fill="#89C4CB"/>
<path d="M208.117 154.625C209.334 154.634 210.549 154.514 211.75 154.268C212.065 154.204 212.352 154.004 212.559 153.702C212.766 153.401 212.879 153.019 212.879 152.624V149.049C214.397 148.543 215.856 147.798 217.221 146.832L219.262 149.353C219.483 149.633 219.776 149.808 220.091 149.847C220.406 149.886 220.722 149.787 220.984 149.567C222.972 147.815 224.713 145.671 226.137 143.222C226.32 142.9 226.406 142.509 226.379 142.117C226.353 141.725 226.216 141.357 225.992 141.077L223.879 138.539C224.659 136.852 225.262 135.05 225.674 133.176H228.569C228.886 133.178 229.194 133.041 229.438 132.789C229.682 132.537 229.846 132.187 229.9 131.8C230.299 128.841 230.299 125.821 229.9 122.863C229.843 122.478 229.678 122.129 229.435 121.878C229.192 121.627 228.886 121.488 228.569 121.486H225.674C225.259 119.613 224.656 117.812 223.879 116.124L225.92 113.622C226.143 113.342 226.28 112.974 226.307 112.582C226.333 112.19 226.248 111.799 226.065 111.477C224.669 109.012 222.952 106.85 220.984 105.078C220.725 104.852 220.409 104.748 220.094 104.784C219.778 104.82 219.483 104.994 219.262 105.274L217.221 107.777C215.859 106.808 214.399 106.068 212.879 105.578V102.003C212.879 101.608 212.766 101.226 212.559 100.925C212.352 100.623 212.065 100.423 211.75 100.359C209.353 99.8803 206.909 99.8803 204.513 100.359C204.197 100.423 203.91 100.623 203.703 100.925C203.496 101.226 203.383 101.608 203.384 102.003V105.578C201.864 106.072 200.404 106.811 199.041 107.777L197.015 105.274C196.791 104.992 196.494 104.818 196.176 104.782C195.858 104.746 195.539 104.851 195.278 105.078C193.29 106.836 191.549 108.986 190.125 111.441C189.944 111.765 189.861 112.157 189.89 112.549C189.919 112.941 190.059 113.308 190.284 113.586L192.311 116.088C191.533 117.776 190.93 119.578 190.516 121.451H187.621C187.305 121.45 186.999 121.588 186.758 121.84C186.516 122.092 186.356 122.442 186.304 122.827C186.1 124.315 185.999 125.822 186 127.331C186.001 128.835 186.103 130.335 186.304 131.818C186.356 132.208 186.518 132.562 186.762 132.818C187.006 133.073 187.316 133.213 187.636 133.212H190.53C190.943 135.086 191.546 136.888 192.325 138.574L190.299 141.077C190.073 141.355 189.934 141.723 189.907 142.116C189.881 142.509 189.968 142.901 190.154 143.222C191.569 145.68 193.305 147.831 195.292 149.585C195.553 149.811 195.87 149.917 196.187 149.884C196.505 149.851 196.803 149.682 197.029 149.406L199.056 146.886C200.421 147.849 201.881 148.593 203.398 149.102V152.677C203.397 153.072 203.51 153.455 203.717 153.756C203.924 154.057 204.211 154.258 204.527 154.322C205.715 154.547 206.915 154.648 208.117 154.625ZM211.402 152.498C209.225 152.91 207.009 152.91 204.831 152.498V147.637L204.266 147.458C202.513 146.952 200.837 146.101 199.302 144.938L198.81 144.544L196.031 147.976C194.236 146.394 192.666 144.455 191.384 142.239L194.164 138.842L193.86 138.235C192.904 136.346 192.209 134.274 191.804 132.104L191.659 131.407H187.694C187.521 130.065 187.434 128.708 187.433 127.349C187.432 125.99 187.519 124.633 187.694 123.292H191.616L191.761 122.595C192.168 120.425 192.862 118.354 193.816 116.464L194.12 115.838L191.341 112.424C192.627 110.212 194.196 108.274 195.987 106.686L198.766 110.118L199.258 109.725C200.791 108.556 202.468 107.705 204.223 107.205L204.788 107.044V102.182C206.964 101.753 209.182 101.753 211.359 102.182V107.044L211.923 107.205C213.678 107.705 215.356 108.556 216.888 109.725L217.38 110.118L220.203 106.669C221.995 108.26 223.569 110.197 224.863 112.406L222.07 115.82L222.374 116.446C223.326 118.339 224.025 120.409 224.443 122.577L224.574 123.274H228.496C228.863 125.96 228.863 128.703 228.496 131.389H224.574L224.443 132.086C224.044 134.244 223.364 136.308 222.432 138.199L222.128 138.807L224.921 142.256C223.627 144.46 222.053 146.391 220.26 147.976L217.481 144.544L216.989 144.938C215.456 146.104 213.779 146.955 212.025 147.458L211.46 147.637L211.402 152.498ZM208.102 140.63C209.516 140.637 210.916 140.297 212.223 139.632C213.53 138.966 214.717 137.987 215.716 136.751C217.191 134.909 218.205 132.58 218.637 130.044C219.068 127.507 218.898 124.872 218.147 122.452C217.634 120.757 216.832 119.218 215.796 117.938C214.759 116.658 213.513 115.668 212.14 115.034C210.177 114.077 208.029 113.851 205.963 114.382C203.896 114.913 202 116.178 200.508 118.022C199.017 119.866 197.994 122.209 197.566 124.762C197.138 127.314 197.324 129.966 198.1 132.39C198.607 134.084 199.406 135.623 200.44 136.901C201.474 138.178 202.721 139.164 204.093 139.79C205.379 140.36 206.736 140.644 208.102 140.63ZM208.102 115.91C209.298 115.917 210.483 116.184 211.605 116.696C212.775 117.239 213.837 118.085 214.721 119.176C215.604 120.267 216.289 121.579 216.729 123.024C217.403 125.122 217.565 127.419 217.195 129.63C216.825 131.841 215.939 133.87 214.646 135.466C213.353 137.062 211.71 138.157 209.92 138.614C208.129 139.071 206.27 138.871 204.57 138.038C203.401 137.495 202.338 136.65 201.455 135.558C200.571 134.467 199.886 133.155 199.447 131.711C198.777 129.599 198.618 127.294 198.988 125.073C199.358 122.853 200.241 120.812 201.531 119.199C202.397 118.13 203.427 117.284 204.56 116.71C205.693 116.136 206.907 115.846 208.131 115.856L208.102 115.91Z" fill="#89C4CB"/>
<path d="M33.1689 384.925C32.6675 384.09 32.2162 383.208 31.8187 382.285C31.7144 382.043 31.6813 381.762 31.7255 381.491C31.7697 381.221 31.8882 380.98 32.0595 380.811L33.6075 379.283C33.1868 378.032 32.8976 376.715 32.7475 375.367L30.8126 375.059C30.5951 375.039 30.3915 374.915 30.243 374.711C30.0945 374.506 30.0122 374.238 30.0128 373.959C29.9444 371.847 30.1508 369.736 30.6234 367.711C30.6847 367.448 30.8166 367.221 30.996 367.07C31.1753 366.919 31.3905 366.854 31.6037 366.886L33.5473 367.194C33.9515 365.942 34.4774 364.759 35.1125 363.674L33.9773 361.705C33.8356 361.495 33.7612 361.224 33.7692 360.947C33.7772 360.669 33.8669 360.406 34.0203 360.209C35.1411 358.655 36.4544 357.347 37.9075 356.338C38.0967 356.204 38.3169 356.162 38.5284 356.218C38.7398 356.275 38.9284 356.427 39.0599 356.646L40.2553 358.615C41.2322 358.083 42.2581 357.713 43.3083 357.515L43.5491 355.04C43.5768 354.768 43.6779 354.517 43.8349 354.33C43.9919 354.143 44.195 354.032 44.4091 354.017C46.06 353.928 47.7109 354.192 49.2939 354.798C49.5006 354.877 49.6784 355.048 49.7952 355.28C49.9119 355.512 49.9598 355.789 49.9303 356.063L49.6895 358.527C50.6726 359.038 51.5981 359.715 52.4415 360.539L53.9809 359.011C54.1458 358.826 54.3595 358.729 54.5785 358.739C54.7975 358.749 55.0051 358.866 55.1591 359.066C56.3732 360.501 57.3957 362.18 58.1862 364.037C58.2856 364.28 58.315 364.559 58.2694 364.827C58.2238 365.094 58.1061 365.333 57.9368 365.5L56.3975 367.04C56.8175 368.288 57.1067 369.601 57.2575 370.945L59.1838 371.253C59.3978 371.284 59.596 371.412 59.7427 371.614C59.8893 371.816 59.9748 372.078 59.9836 372.353C60.0549 374.464 59.8515 376.575 59.3817 378.601C59.3201 378.866 59.1869 379.094 59.0057 379.246C58.8245 379.397 58.6072 379.46 58.3927 379.426L56.4577 379.118C56.0554 380.371 55.5294 381.554 54.8925 382.637L56.0879 384.606C56.2273 384.817 56.3038 385.084 56.3038 385.36C56.3038 385.636 56.2273 385.903 56.0879 386.113C55.5238 386.883 54.9143 387.597 54.2647 388.247C53.6143 388.893 52.9241 389.471 52.2007 389.974C52.0098 390.106 51.7887 390.147 51.5762 390.091C51.3638 390.035 51.1738 389.884 51.0397 389.666L49.8443 387.697C48.8692 388.235 47.8426 388.605 46.7913 388.797L46.5505 391.272C46.5352 391.55 46.4379 391.81 46.2783 392C46.1186 392.19 45.9085 392.296 45.6905 392.295C44.0396 392.384 42.3887 392.12 40.8057 391.514C40.5983 391.435 40.4196 391.265 40.3015 391.033C40.1833 390.801 40.1334 390.523 40.1607 390.249L40.4015 387.785C39.4212 387.266 38.4964 386.59 37.6495 385.772L36.1101 387.312C35.9455 387.49 35.7368 387.588 35.521 387.588C35.3053 387.588 35.0966 387.49 34.9319 387.312C34.2933 386.581 33.7036 385.782 33.1689 384.925ZM32.7303 381.757C33.45 383.426 34.3699 384.941 35.4565 386.245L37.5635 384.155L37.8731 384.474C38.8202 385.455 39.8863 386.232 41.0293 386.773L41.3991 386.949L41.0637 390.326C42.4956 390.859 43.9853 391.093 45.4755 391.019L45.8109 387.642H46.1979C47.409 387.476 48.591 387.06 49.6981 386.41L50.0593 386.201L51.6933 388.885C52.3453 388.421 52.9691 387.895 53.5595 387.312C54.1468 386.732 54.6962 386.092 55.2021 385.398L53.5681 382.714L53.8175 382.318C54.5838 381.102 55.1908 379.735 55.6149 378.271L55.7525 377.798L58.3927 378.227C58.811 376.395 58.9968 374.49 58.943 372.584L56.3029 372.166V371.66C56.1746 370.111 55.8493 368.598 55.3397 367.183L55.1677 366.721L57.2747 364.631C56.5578 362.96 55.6375 361.445 54.5485 360.143L52.4415 362.244L52.1405 361.925C51.1952 360.938 50.1287 360.158 48.9843 359.616L48.6145 359.44L48.9413 356.074C47.5103 355.534 46.0206 355.292 44.5295 355.359L44.2027 358.736H43.8157C42.6024 358.905 41.418 359.321 40.3069 359.968L39.9457 360.176L38.3117 357.493C37.6608 357.949 37.0396 358.471 36.4541 359.055C35.8616 359.638 35.3091 360.286 34.8029 360.99L36.4369 363.674L36.1875 364.059C35.4226 365.275 34.8183 366.642 34.3987 368.107L34.2611 368.58L31.6123 368.151C31.1968 369.983 31.0139 371.888 31.0705 373.794L33.7021 374.223L33.7451 374.718C33.8761 376.268 34.2043 377.78 34.7169 379.195L34.8803 379.657L32.7303 381.757ZM39.2577 378.887C38.6641 377.927 38.2266 376.826 37.971 375.647C37.7155 374.468 37.6471 373.236 37.7699 372.023C37.9494 370.221 38.5318 368.523 39.4471 367.134C40.3624 365.745 41.5717 364.723 42.9299 364.191C43.8743 363.81 44.8719 363.695 45.8545 363.852C46.837 364.01 47.7814 364.437 48.6231 365.104C49.8497 366.035 50.8373 367.404 51.4646 369.042C52.0919 370.681 52.3317 372.518 52.1546 374.328C51.9774 376.138 51.3911 377.843 50.4674 379.233C49.5437 380.623 48.3229 381.638 46.9547 382.153C46.0103 382.534 45.0127 382.65 44.0301 382.492C43.0476 382.335 42.1032 381.908 41.2615 381.24C40.491 380.612 39.8128 379.815 39.2577 378.887ZM49.9303 368.239C49.4331 367.424 48.8276 366.728 48.1415 366.182C47.4204 365.616 46.6131 365.254 45.7736 365.119C44.9342 364.985 44.082 365.081 43.2739 365.401C42.0875 365.845 41.0283 366.722 40.2269 367.926C39.4254 369.13 38.9166 370.607 38.763 372.175C38.6095 373.744 38.8179 375.336 39.3627 376.755C39.9075 378.174 40.7648 379.359 41.8291 380.162C42.55 380.729 43.3577 381.091 44.1975 381.224C45.0373 381.357 45.8896 381.257 46.6967 380.932C47.8702 380.479 48.9167 379.604 49.7113 378.41C50.5059 377.216 51.0148 375.755 51.1773 374.201C51.2895 373.151 51.2371 372.083 51.023 371.059C50.8088 370.036 50.4374 369.077 49.9303 368.239Z" fill="#89C4CB"/>
<path d="M70.6141 392.625C70.2671 392.053 69.9564 391.446 69.6853 390.81C69.6148 390.645 69.5934 390.452 69.625 390.268C69.6566 390.085 69.7391 389.921 69.8573 389.809L70.9065 388.764C70.6271 387.908 70.4335 387.01 70.3303 386.091L69.0145 385.882C68.8682 385.857 68.7333 385.768 68.6328 385.629C68.5324 385.491 68.4728 385.312 68.4641 385.123C68.4204 383.682 68.5598 382.24 68.8769 380.856C68.9188 380.673 69.0104 380.517 69.1351 380.414C69.2598 380.311 69.4093 380.268 69.5563 380.295L70.8807 380.504C71.1545 379.646 71.5128 378.836 71.9471 378.095L71.1301 376.753C71.0339 376.611 70.981 376.429 70.981 376.241C70.981 376.053 71.0339 375.872 71.1301 375.73C71.5111 375.197 71.9253 374.704 72.3685 374.256C72.8168 373.817 73.2912 373.423 73.7875 373.079C73.9172 372.991 74.067 372.965 74.2104 373.005C74.3537 373.046 74.4812 373.15 74.5701 373.299L75.3871 374.641C76.0558 374.28 76.7583 374.033 77.4769 373.904L77.6403 372.21C77.6603 372.024 77.7306 371.853 77.839 371.726C77.9474 371.6 78.087 371.526 78.2337 371.517C79.3616 371.458 80.4893 371.641 81.5705 372.056C81.7112 372.109 81.8326 372.225 81.913 372.382C81.9933 372.539 82.0274 372.728 82.0091 372.914L81.8457 374.597C82.516 374.953 83.1487 375.415 83.7291 375.972L84.7783 374.872C84.8914 374.75 85.0346 374.683 85.1825 374.683C85.3304 374.683 85.4735 374.75 85.5867 374.872C86.4147 375.849 87.1119 376.994 87.6507 378.26C87.72 378.427 87.7407 378.621 87.7093 378.806C87.6778 378.991 87.5961 379.156 87.4787 379.272L86.4295 380.372C86.7124 381.226 86.9061 382.125 87.0057 383.044L88.3215 383.253C88.4685 383.277 88.6043 383.365 88.7051 383.504C88.8058 383.643 88.8648 383.823 88.8719 384.012C88.917 385.455 88.7746 386.897 88.4505 388.28C88.4088 388.46 88.3185 388.615 88.1956 388.718C88.0727 388.821 87.9253 388.865 87.7797 388.841L86.4553 388.621C86.1802 389.482 85.8219 390.295 85.3889 391.041L86.2059 392.383C86.3021 392.525 86.3551 392.707 86.3551 392.894C86.3551 393.082 86.3021 393.264 86.2059 393.406C85.8246 393.935 85.4104 394.425 84.9675 394.869C84.5199 395.309 84.0454 395.703 83.5485 396.046C83.4202 396.137 83.2704 396.166 83.1267 396.128C82.983 396.09 82.8549 395.986 82.7659 395.837L81.9059 394.495C81.2365 394.85 80.5341 395.094 79.8161 395.221L79.6527 396.915C79.6327 397.101 79.5624 397.272 79.454 397.399C79.3456 397.525 79.206 397.599 79.0593 397.608C77.9317 397.676 76.8032 397.497 75.7225 397.08C75.5808 397.028 75.4584 396.913 75.3778 396.756C75.2972 396.598 75.2638 396.408 75.2839 396.222L75.4473 394.528C74.7731 394.183 74.1393 393.72 73.5639 393.153L72.5147 394.253C72.4016 394.375 72.2584 394.441 72.1105 394.441C71.9626 394.441 71.8195 394.375 71.7063 394.253C71.3064 393.751 70.941 393.207 70.6141 392.625ZM70.3131 390.425C70.8049 391.564 71.4315 392.6 72.1707 393.494L73.6155 392.064L73.8219 392.273C74.4681 392.947 75.1976 393.479 75.9805 393.846L76.2299 393.967L76.0063 396.277C76.986 396.642 78.0053 396.801 79.0249 396.75L79.2485 394.451H79.5151C80.3423 394.34 81.1498 394.058 81.9059 393.615L82.1553 393.472L83.2733 395.309C83.7192 394.985 84.1447 394.617 84.5461 394.209C84.9495 393.814 85.3264 393.376 85.6727 392.9L84.5547 391.063L84.7267 390.799C85.2455 389.963 85.6576 389.028 85.9479 388.027L86.0425 387.708L87.8485 388.005C88.132 386.752 88.2597 385.449 88.2269 384.144L86.4209 383.858V383.517C86.331 382.456 86.1074 381.419 85.7587 380.449L85.6469 380.141L87.0831 378.711C86.5905 377.569 85.9607 376.533 85.2169 375.642L83.7807 377.072L83.5743 376.852C82.9264 376.181 82.1973 375.65 81.4157 375.279L81.1577 375.158L81.3899 372.859C80.4107 372.49 79.3913 372.327 78.3713 372.375L78.1477 374.685H77.8811C77.0508 374.8 76.2406 375.086 75.4817 375.532L75.2409 375.675L74.1229 373.838C73.6762 374.16 73.2506 374.528 72.8501 374.938C72.4445 375.334 72.0674 375.776 71.7235 376.258L72.8415 378.095L72.6695 378.359C72.1464 379.187 71.7338 380.12 71.4483 381.12L71.3537 381.439L69.5477 381.153C69.2596 382.405 69.1318 383.709 69.1693 385.013L70.9753 385.299V385.64C71.063 386.699 71.2868 387.732 71.6375 388.698L71.7493 389.017L70.3131 390.425ZM74.7679 388.5C74.3631 387.843 74.0648 387.089 73.8906 386.283C73.7163 385.476 73.6696 384.633 73.7531 383.803C73.8788 382.568 74.2809 381.405 74.911 380.455C75.5411 379.504 76.3724 378.807 77.3049 378.447C77.9513 378.186 78.634 378.107 79.3064 378.215C79.9788 378.324 80.625 378.616 81.2007 379.074C82.0339 379.711 82.7041 380.645 83.1296 381.761C83.5552 382.878 83.7177 384.128 83.5974 385.36C83.477 386.593 83.0791 387.754 82.452 388.702C81.8249 389.65 80.9957 390.344 80.0655 390.7C79.4194 390.959 78.7374 391.039 78.0654 390.932C77.3934 390.826 76.747 390.537 76.1697 390.084C75.6348 389.663 75.1606 389.127 74.7679 388.5ZM82.0607 381.208C81.7212 380.654 81.3077 380.181 80.8395 379.811C80.3481 379.423 79.7974 379.176 79.2246 379.085C78.6519 378.994 78.0705 379.061 77.5199 379.283C76.7014 379.572 75.9683 380.165 75.4128 380.986C74.8573 381.808 74.5045 382.821 74.3987 383.899C74.2929 384.976 74.439 386.07 74.8184 387.041C75.1979 388.013 75.7938 388.819 76.5309 389.358C77.021 389.749 77.5715 390 78.1445 390.093C78.7176 390.186 79.2996 390.119 79.8505 389.897C80.661 389.59 81.3847 388.989 81.9341 388.168C82.4835 387.346 82.8351 386.338 82.9465 385.266C83.0147 384.549 82.9716 383.821 82.8196 383.124C82.6676 382.428 82.4097 381.776 82.0607 381.208Z" fill="#89C4CB"/>
<path d="M61.4256 56.7006C60.4624 61.5844 60.3162 66.3252 59.8432 71.0769C59.3702 75.8287 58.8886 80.7674 58.4242 85.6072C57.9598 90.4469 57.461 95.2647 57.0224 100.093C56.7816 102.557 56.5408 105.01 56.3086 107.474L55.9474 111.203C55.8528 112.237 55.5432 113.403 55.8786 114.272C55.8786 114.36 56.2226 114.415 56.3086 114.272C56.6626 113.199 56.8467 112.048 56.8504 110.884L57.2116 107.199C57.4438 104.735 57.6846 102.282 57.9254 99.8185C58.3783 95.0741 58.837 90.3296 59.3014 85.5852C59.7658 80.8408 60.2187 76.111 60.6602 71.3959C61.116 66.5342 61.9587 61.4194 61.8727 56.7446C61.8727 56.5907 61.4686 56.5577 61.4256 56.7996V56.7006Z" fill="#89C4CB"/>
<path d="M37.4821 63.5866C36.9661 67.3044 36.9661 70.9012 36.7253 74.531C36.4845 78.1608 36.2179 81.7577 35.9169 85.3875C35.6159 89.0173 35.2977 92.4161 34.9451 95.9469C34.5925 99.4778 33.8443 103.449 33.7927 106.946C33.7927 107.221 34.4721 107.089 34.5323 106.77C35.1364 103.188 35.5502 99.557 35.7707 95.9029C36.1405 92.1961 36.4759 88.5113 36.7769 84.8265C37.0779 81.1417 37.3445 77.5889 37.5767 73.981C37.9213 70.4865 38.0765 66.9656 38.0411 63.4436C38.0411 63.2346 37.5251 63.2676 37.4821 63.5536V63.5866Z" fill="#89C4CB"/>
<path d="M34.4304 66.3363C40.1838 67.4362 46.264 68.1292 52.1894 68.9871C58.1148 69.8451 64.1003 70.703 70.0601 71.605C70.4815 71.671 71.1437 70.989 70.6707 70.923L52.8086 68.3052C46.7886 67.4582 40.9234 66.4133 34.7486 65.8523C34.439 65.8523 34.1208 66.2593 34.4304 66.3253V66.3363Z" fill="#89C4CB"/>
<path d="M24.1356 100.413C33.716 102.492 32.3314 102.03 42.3418 103.471C52.2145 104.9 62.1217 106.242 72.0289 107.628C77.8424 108.435 83.6445 109.26 89.4352 110.103C89.8394 110.169 90.5188 109.52 90.0544 109.454C70.1971 106.517 59.3697 105.362 39.5898 102.327C33.7934 101.436 30.4308 100.688 24.5398 99.9397C24.213 99.9397 23.7744 100.314 24.1356 100.402V100.413Z" fill="#89C4CB"/>
<path d="M30.2773 44.2713C31.1373 50.024 33.4163 55.1828 35.6265 60.2095C37.9076 65.1423 40.6799 69.6753 43.8739 73.6948C50.9673 82.7175 59.2801 90.0218 68.4096 95.2537C73.8964 98.5536 79.7616 101.93 87.0028 103.184C87.2952 103.184 87.5532 102.909 87.2952 102.81C84.5432 101.71 81.602 100.962 78.9532 99.7965C76.0292 98.5096 73.26 97.0466 70.5768 95.5177C65.8611 92.8381 61.3227 89.6746 57.0061 86.0582C49.074 79.5227 42.2627 70.9944 36.9853 60.9905C34.2419 55.7107 32.5219 50.002 30.8019 44.1063C30.7503 43.9303 30.2859 43.9743 30.3203 44.2273L30.2773 44.2713Z" fill="#89C4CB"/>
<path d="M56.3863 62.4642C57.0685 61.835 57.6842 61.0955 58.2181 60.2643C58.4689 59.8817 58.6988 59.4774 58.9061 59.0543C59.0179 58.8343 59.1125 58.6254 59.2071 58.4054C59.3017 58.1854 59.4565 57.9324 59.3705 57.8004C59.2917 57.73 59.1962 57.697 59.1005 57.7071C59.0047 57.7171 58.9147 57.7696 58.8459 57.8554C58.7178 58.0342 58.6184 58.2435 58.5535 58.4714C58.4675 58.6694 58.3729 58.8673 58.2783 59.0653C58.0805 59.4718 57.8622 59.8612 57.6247 60.2313C57.1355 60.9869 56.5784 61.6662 55.9649 62.2552C55.6983 62.5192 56.1369 62.6732 56.3863 62.4422V62.4642Z" fill="#89C4CB"/>
<path d="M55.3608 57.6358C55.3796 57.8998 55.4506 58.1535 55.5672 58.3727C55.6538 58.6166 55.7545 58.8518 55.8682 59.0767C56.0929 59.5094 56.3555 59.908 56.6508 60.2646C56.7798 60.4296 56.9088 60.7156 57.2184 60.6936C57.2987 60.6926 57.378 60.6695 57.4507 60.6259C57.5234 60.5822 57.5879 60.519 57.6398 60.4406C57.7344 60.2756 57.6398 60.1766 57.5366 60.0886C57.2242 59.7564 56.9364 59.3882 56.6766 58.9887C56.539 58.7577 56.4014 58.5267 56.281 58.2847C56.1733 57.9837 56.0345 57.7025 55.8682 57.4488C55.7564 57.3278 55.335 57.4488 55.3264 57.6688L55.3608 57.6358Z" fill="#89C4CB"/>
<path d="M38.8754 58.8785C38.497 59.2085 38.6604 59.5825 38.7378 59.8575C38.8152 60.1325 38.9614 60.6054 39.0818 60.9574C39.3309 61.6889 39.6182 62.3981 39.9418 63.0803C40.0364 63.2893 40.4406 63.2013 40.6728 62.9373C41.1142 62.398 41.4755 61.7607 41.7391 61.0564C42.0871 60.4777 42.3335 59.8099 42.4615 59.0985C42.4615 58.7355 41.6617 58.9665 41.6445 59.3185C41.5224 59.9734 41.2939 60.588 40.9738 61.1224C40.7366 61.7676 40.4103 62.3526 40.0106 62.8493L40.7502 62.7063C40.4492 62.0684 40.1826 61.4084 39.8902 60.7484C39.5978 60.0885 39.4774 59.5055 39.2366 58.9115C39.2324 58.9664 39.2324 59.0217 39.2366 59.0765V58.9775C39.3398 58.7685 38.9872 58.7025 38.798 58.8675L38.8754 58.8785Z" fill="#89C4CB"/>
<path d="M52.8254 90.689C52.9715 91.0554 53.1698 91.3837 53.4102 91.6569C53.6252 91.9649 53.8316 92.2619 54.0466 92.5479L54.6916 93.4278L55.0098 93.8678C55.1216 94.0108 55.285 94.1538 55.3194 94.3408C55.3631 94.2343 55.4119 94.1314 55.4656 94.0328L55.3968 94.0988L55.844 93.9228H55.7408C55.6032 93.9228 55.328 94.0218 55.3022 94.1868C55.9214 94.1868 56.1622 94.1868 56.1622 93.8898C56.1451 93.8506 56.1249 93.8138 56.102 93.7798L55.93 93.5488C55.801 93.3948 55.6806 93.2298 55.5602 93.0648L54.8808 92.1519L54.1842 91.2609C53.9624 90.9401 53.7079 90.6589 53.4274 90.425C53.2984 90.337 52.7824 90.425 52.8598 90.689H52.8254Z" fill="#89C4CB"/>
<path d="M55.439 90.7C54.5188 91.6459 53.6502 92.6139 52.773 93.5818C52.5666 93.8018 52.1194 94.2088 52.4204 94.3298C52.5386 94.3536 52.6594 94.3433 52.774 94.2995C52.8886 94.2557 52.9941 94.1796 53.0826 94.0768C53.1858 93.9778 53.2804 93.8678 53.375 93.7578L54.6822 92.2949C55.1122 91.8219 55.5422 91.3489 55.912 90.865C56.1528 90.568 55.697 90.436 55.439 90.7Z" fill="#89C4CB"/>
<path d="M66.1213 79.4255C66.5679 80.9062 67.1949 82.2872 67.9789 83.5173C68.1337 83.7813 68.9163 83.3303 68.7357 83.0223C67.9789 81.7794 67.3769 80.4485 66.6201 79.2055C66.5255 79.0515 66.0611 79.2055 66.1213 79.4255Z" fill="#89C4CB"/>
<path d="M70.1797 79.7886C69.8527 80.2788 69.5646 80.8094 69.3197 81.3725C69.0617 81.8455 68.7779 82.3295 68.4597 82.8134C68.1415 83.2974 67.8749 83.7044 67.5481 84.1444C67.1981 84.6618 66.806 85.1301 66.3785 85.5413C66.1119 85.7833 66.3355 85.9923 66.6193 85.8713C66.4387 85.8713 66.3957 85.8713 66.4989 85.8713H66.5849C66.6819 85.8409 66.7768 85.8004 66.8687 85.7503C67.0101 85.656 67.1428 85.5416 67.2643 85.4093C67.4793 85.1783 67.6685 84.9253 67.8577 84.6833C68.2619 84.1664 68.6317 83.6384 68.9757 83.1104C69.3197 82.5824 69.6551 82.0105 69.9475 81.4715C70.1195 81.1525 70.2743 80.8335 70.4291 80.5145C70.5595 80.3093 70.6428 80.0618 70.6699 79.7996C70.6699 79.6456 70.3603 79.5466 70.1797 79.7996V79.7886Z" fill="#89C4CB"/>
<path d="M72.3211 83.4623L72.8973 83.5393L73.4563 83.6163C73.8003 83.6163 74.1357 83.7263 74.4711 83.7923C74.6535 83.8054 74.8326 83.7264 74.9699 83.5723C75.0903 83.4183 74.9699 83.3083 74.8581 83.2863H74.7807H74.6689H74.4023L73.8691 83.2203C73.6541 83.2203 73.4477 83.1653 73.2241 83.1543H72.4931C72.4304 83.1482 72.3674 83.161 72.3091 83.1915C72.2509 83.2221 72.199 83.2696 72.1577 83.3303C72.1061 83.4513 72.2093 83.5283 72.3211 83.5393V83.4623Z" fill="#89C4CB"/>
<path d="M72.3292 85.1453C72.5391 85.2033 72.7517 85.2437 72.9656 85.2662L73.5676 85.3542L74.7458 85.4972C74.9505 85.5092 75.1518 85.4273 75.3134 85.2662C75.451 85.1012 75.4166 84.9253 75.2532 84.9143L73.946 84.8043C73.5074 84.8043 73.086 84.7163 72.5872 84.7273C72.4611 84.7427 72.3429 84.8126 72.2518 84.9253C72.2394 84.9455 72.2314 84.9696 72.2288 84.9951C72.2261 85.0206 72.2289 85.0465 72.2368 85.0702C72.2447 85.0938 72.2575 85.1143 72.2738 85.1295C72.29 85.1446 72.3092 85.1539 72.3292 85.1562V85.1453Z" fill="#89C4CB"/>
<path d="M80.4227 82.4175C80.2421 81.8346 79.5627 81.4386 78.7027 81.6476C78.3179 81.7413 77.9544 81.9441 77.6389 82.241C77.3234 82.538 77.0639 82.9215 76.8795 83.3635C76.6888 83.7104 76.5931 84.1281 76.6071 84.5518C76.6211 84.9754 76.744 85.3813 76.9569 85.7064C77.1969 86.0826 77.5044 86.3791 77.8533 86.5706C78.2022 86.7622 78.5821 86.843 78.9607 86.8063C79.5299 86.7574 80.0829 86.5429 80.5775 86.1794C80.9817 85.8384 81.2053 85.3544 80.9387 85.0794C80.8585 85.0322 80.7691 85.0163 80.6819 85.034C80.5946 85.0516 80.5134 85.1018 80.4485 85.1784C80.3453 85.3654 80.2937 85.6404 80.1131 85.8164C79.9467 85.9503 79.7583 86.0332 79.5627 86.0584C79.2369 86.173 78.89 86.138 78.5823 85.9594C78.2968 85.774 78.0357 85.5328 77.8083 85.2444C77.6948 85.1212 77.6037 84.9678 77.5413 84.7949C77.4789 84.6221 77.4467 84.4339 77.4471 84.2435C77.4663 83.8579 77.5514 83.4824 77.6965 83.1435C77.8367 82.799 78.0479 82.5099 78.3071 82.3076C78.5294 82.1606 78.7839 82.1141 79.0295 82.1756C79.3421 82.2408 79.6374 82.4032 79.8895 82.6485C80.0271 82.7695 80.4915 82.6485 80.4141 82.3735L80.4227 82.4175Z" fill="#89C4CB"/>
<path d="M82.117 84.2873C82.5814 84.2873 83.3468 84.1993 83.5446 84.5183C83.7424 84.8373 82.9512 85.4642 82.5642 85.6182C82.1772 85.7722 82.3836 86.0142 82.5642 86.0252C83.5532 86.0252 84.2068 86.8392 84.0434 87.7631C84.0117 87.9952 83.9103 88.2023 83.7609 88.34C83.6114 88.4777 83.4257 88.5352 83.2436 88.5001C82.7448 88.3571 82.6846 87.8621 82.332 87.5981C82.2632 87.5981 82.0224 87.5101 81.9364 87.6861C81.6268 88.3571 82.2718 88.8741 82.7964 88.9951C83.1168 89.0585 83.4445 89.0125 83.7466 88.8619C84.0486 88.7112 84.3142 88.4612 84.5164 88.1371C84.662 87.8817 84.7332 87.5692 84.7175 87.2538C84.7017 86.9383 84.6002 86.6399 84.4304 86.4102C84.2211 86.1175 83.9637 85.8877 83.6767 85.7375C83.3897 85.5872 83.0803 85.5202 82.7706 85.5412C82.7706 85.6842 82.7706 85.8162 82.7706 85.9482C83.407 85.6512 84.3014 84.8483 84.1294 84.3093C83.9574 83.7703 82.7964 83.7263 82.0052 83.9353C81.73 84.0013 81.902 84.2653 82.0568 84.2543L82.117 84.2873Z" fill="#89C4CB"/>
<path d="M60.9009 109.608C60.9519 109.646 61.0097 109.666 61.0686 109.666C61.1275 109.666 61.1853 109.646 61.2363 109.608C61.3567 109.498 61.3137 109.388 61.2363 109.344C61.0332 109.219 60.8074 109.166 60.5827 109.19C60.3677 109.208 60.156 109.267 59.9549 109.366C59.6321 109.517 59.3592 109.804 59.1809 110.18C59.0587 110.452 59.0102 110.767 59.0429 111.077C59.0755 111.388 59.1876 111.676 59.3615 111.896C59.5844 112.174 59.8636 112.366 60.1675 112.452C60.4715 112.538 60.7881 112.513 61.0815 112.38C61.3744 112.314 61.6391 112.116 61.827 111.821C62.0149 111.526 62.1135 111.154 62.1049 110.774C62.0685 110.413 61.931 110.081 61.7179 109.839C61.4342 109.48 61.0509 109.278 60.6515 109.278C60.4279 109.278 60.1957 109.542 60.3333 109.652C60.4709 109.762 60.7633 109.894 60.9353 110.048C61.0923 110.193 61.2216 110.381 61.3137 110.598C61.3997 110.815 61.4298 111.062 61.3997 111.302C61.3837 111.415 61.3504 111.523 61.3017 111.619C61.2529 111.715 61.1898 111.798 61.1159 111.863C60.9895 111.971 60.835 112.01 60.6859 111.973C60.4963 111.944 60.3157 111.853 60.1613 111.709C60.0044 111.581 59.8802 111.398 59.8038 111.181C59.7274 110.964 59.7022 110.723 59.7313 110.488C59.7584 110.242 59.8566 110.019 60.0065 109.861C60.1652 109.739 60.3418 109.661 60.5253 109.631C60.7088 109.6 60.8953 109.619 61.0729 109.685L61.1245 109.355H60.9353C60.9125 109.351 60.8891 109.357 60.8696 109.373C60.8501 109.389 60.8358 109.413 60.8295 109.441C60.8231 109.47 60.8251 109.5 60.8351 109.527C60.8451 109.554 60.8624 109.575 60.8837 109.586L60.9009 109.608Z" fill="#89C4CB"/>
<path d="M37.078 109.201C36.9318 108.673 36.1062 108.607 35.358 109.113C35.1313 109.256 34.9348 109.466 34.7851 109.727C34.6354 109.987 34.5369 110.29 34.498 110.609C34.4871 110.87 34.5233 111.131 34.6039 111.371C34.6844 111.612 34.8071 111.825 34.9624 111.995C35.1445 112.221 35.3598 112.399 35.596 112.518C35.8323 112.637 36.0846 112.695 36.3384 112.688C36.7289 112.702 37.1169 112.602 37.4729 112.396C37.829 112.191 38.1439 111.884 38.3938 111.5C38.5658 111.181 37.938 111.236 37.7402 111.5C37.5844 111.703 37.3936 111.858 37.183 111.95C36.9724 112.042 36.7478 112.07 36.5272 112.032C36.3066 111.993 36.096 111.889 35.9124 111.728C35.7288 111.567 35.5772 111.353 35.4698 111.104C35.3662 110.905 35.311 110.672 35.311 110.433C35.311 110.194 35.3662 109.961 35.4698 109.762C35.5711 109.575 35.7154 109.433 35.8826 109.355C35.954 109.345 36.0261 109.345 36.0976 109.355C36.2539 109.322 36.4142 109.357 36.5534 109.454C36.6017 109.49 36.6566 109.509 36.7125 109.509C36.7683 109.509 36.8232 109.49 36.8716 109.454C36.992 109.399 37.0694 109.3 37.0436 109.212L37.078 109.201Z" fill="#89C4CB"/>
<path d="M85.84 112.886C85.7282 113.172 85.9174 113.293 86.055 113.447C86.1926 113.601 86.4248 113.876 86.6226 114.084L87.8438 115.338L89.022 116.438L89.6068 117.01C89.7064 117.152 89.8286 117.264 89.9651 117.34C90.1016 117.416 90.2492 117.454 90.398 117.45C90.7248 117.45 90.9054 117.021 90.6044 117.021H90.4926C90.5958 117.021 90.8022 117.153 90.7936 117.021C90.785 116.889 90.7248 116.922 90.6904 116.878L90.398 116.603L89.8046 116.042L88.592 114.942C88.1878 114.557 87.7836 114.161 87.3708 113.788C87.1816 113.601 86.9838 113.425 86.7774 113.249C86.5767 113.019 86.3293 112.866 86.0636 112.809C86.0221 112.8 85.9796 112.806 85.9404 112.825C85.9012 112.845 85.8666 112.877 85.84 112.919V112.886Z" fill="#89C4CB"/>
<path d="M90.3031 112.358C89.5205 113.205 88.8239 114.074 87.9983 114.899C87.6371 115.258 87.2673 115.625 86.8889 115.999C86.4761 116.373 86.0289 116.725 85.6247 117.099C85.4785 117.231 85.5215 117.385 85.6247 117.429C85.7114 117.452 85.8008 117.454 85.8879 117.433C85.975 117.412 86.058 117.37 86.1321 117.308C87.0201 116.634 87.8655 115.873 88.6605 115.031C89.4202 114.293 90.1203 113.461 90.7503 112.545C90.9051 112.303 90.5095 112.171 90.2945 112.402L90.3031 112.358Z" fill="#89C4CB"/>
<path d="M73.2366 276.278C73.1341 276.328 73.0209 276.328 72.9184 276.278C72.9184 276.278 68.9796 274.551 66.8985 273.55C65.1097 272.681 63.6477 271.79 63.8971 269.624C64.0801 268.75 64.5128 267.996 65.1097 267.512C65.8807 266.806 66.4776 265.833 66.8297 264.707C67.5263 262.177 65.5999 260.12 64.1379 259.35C62.6759 258.58 60.1733 258.316 59.2703 260.747C58.9031 261.857 58.7898 263.078 58.9435 264.267C59.1024 265.148 58.9981 266.074 58.6511 266.863C57.6363 268.623 56.0711 267.963 54.3511 266.962C52.3215 265.807 48.6063 263.519 48.5719 263.497C48.5106 263.46 48.4565 263.407 48.4133 263.34C48.3702 263.274 48.3392 263.196 48.3225 263.112C48.3098 263.025 48.3116 262.937 48.3279 262.851C48.3442 262.766 48.3747 262.686 48.4171 262.617C48.4171 262.617 49.5953 260.758 51.7281 256.556C54.3081 251.452 53.0439 250.242 52.1065 249.352C51.7625 249.033 51.3583 249.077 50.6617 249.187C49.7429 249.403 48.7956 249.3 47.9183 248.89C46.4477 248.109 45.3383 245.711 46.4563 242.29C46.8385 240.911 47.6037 239.76 48.6063 239.056C48.9865 238.811 49.4025 238.671 49.8276 238.644C50.2528 238.618 50.6775 238.706 51.0745 238.902C51.918 239.381 52.6456 240.141 53.1815 241.102C53.6201 241.806 53.8867 242.202 54.2995 242.279C55.4605 242.499 57.0429 242.785 57.9975 236.779C58.7801 231.873 58.9607 229.509 58.9607 229.487C58.9678 229.4 58.9901 229.316 59.0258 229.242C59.0615 229.168 59.1098 229.105 59.1671 229.058C59.2273 229.02 59.2935 229 59.3606 229C59.4277 229 59.4939 229.02 59.5541 229.058C59.5541 229.058 63.4929 230.773 65.5741 231.785C67.3629 232.643 68.8248 233.534 68.5754 235.701C68.4066 236.574 67.9936 237.337 67.4145 237.846C66.6416 238.545 66.0441 239.515 65.6945 240.64C64.9979 243.192 66.6233 245.04 68.3862 246.008C70.1492 246.976 72.3508 247.042 73.2538 244.611C73.621 243.501 73.7343 242.28 73.5806 241.091C73.4217 240.209 73.526 239.284 73.873 238.495C74.8878 236.724 76.453 237.395 78.173 238.396C80.2112 239.496 83.9264 241.828 83.9608 241.85C84.0211 241.889 84.0739 241.944 84.1155 242.012C84.157 242.08 84.1863 242.159 84.2011 242.243C84.2159 242.327 84.2159 242.415 84.2011 242.499C84.1863 242.583 84.1571 242.662 84.1156 242.73C84.1156 242.73 82.9374 244.589 80.796 248.791C78.216 253.905 79.4888 255.115 80.4176 255.995C80.7616 256.325 81.1744 256.281 81.871 256.171C82.7867 255.949 83.7324 256.052 84.6058 256.468C86.085 257.249 87.1858 259.636 86.0764 263.068C84.967 266.5 82.8944 267.281 81.398 266.456C80.5506 265.985 79.8214 265.223 79.291 264.256C78.8524 263.552 78.5772 263.156 78.1644 263.079C77.0034 262.87 75.4296 262.584 74.475 268.579C74.0582 270.991 73.7367 273.429 73.5118 275.882C73.5029 275.967 73.4799 276.048 73.4442 276.12C73.4086 276.192 73.3613 276.254 73.3054 276.3L73.2366 276.278Z" fill="#89C4CB"/>
<path d="M339.217 122.854C338.506 121.051 337.504 119.461 336.278 118.189C335.053 116.917 333.63 115.992 332.104 115.473C331.051 115.111 329.961 114.955 328.871 115.011C326.913 115.095 325.007 115.834 323.343 117.157C321.679 118.479 320.316 120.336 319.391 122.544C318.465 124.752 318.009 127.232 318.068 129.736C318.128 132.24 318.7 134.68 319.729 136.812C320.185 137.801 320.456 138.911 320.522 140.055C320.587 141.2 320.446 142.349 320.107 143.412L319.703 144.721C319.675 144.822 319.677 144.933 319.711 145.031C319.745 145.129 319.806 145.207 319.884 145.249L327.624 149.132C327.703 149.168 327.789 149.165 327.866 149.122C327.943 149.079 328.004 148.999 328.037 148.901L328.441 147.581C328.777 146.493 329.303 145.518 329.978 144.729C330.653 143.94 331.459 143.358 332.337 143.027C333.915 142.444 335.373 141.422 336.608 140.036C337.843 138.65 338.823 136.933 339.48 135.007C340.137 133.081 340.454 130.993 340.409 128.893C340.363 126.792 339.956 124.73 339.217 122.854ZM322.937 145.953C324.657 140.244 325.603 135.778 325.74 132.61C326.704 132.685 327.662 132.378 328.484 131.73C328.742 132.92 329.283 133.977 330.032 134.755C328.449 137.197 326.772 141.289 325.009 146.976L322.937 145.953ZM329.301 125.791C329.782 124.691 330.359 124.966 330.548 125.065C330.737 125.164 331.313 125.45 331.081 126.682C330.674 128.167 329.92 129.457 328.922 130.377C328.672 128.821 328.804 127.203 329.301 125.747V125.791ZM332.182 142.29C331.215 142.657 330.325 143.301 329.58 144.171C328.835 145.042 328.255 146.117 327.882 147.317L327.598 148.263L325.654 147.295C327.632 140.893 329.292 137.241 330.617 135.195C331.121 135.571 331.687 135.795 332.269 135.85C332.852 135.905 333.436 135.791 333.979 135.514C334.278 135.392 334.548 135.174 334.763 134.882C334.978 134.589 335.132 134.232 335.209 133.842C335.227 133.601 335.193 133.358 335.111 133.139C335.029 132.92 334.903 132.734 334.745 132.599C334.462 132.324 334.131 132.14 333.781 132.063C333.43 131.986 333.07 132.019 332.732 132.159C331.865 132.553 331.096 133.237 330.505 134.139H330.445C329.763 133.398 329.286 132.395 329.086 131.279C330.317 130.225 331.239 128.677 331.709 126.88C331.839 126.385 331.815 125.845 331.643 125.371C331.47 124.898 331.162 124.528 330.782 124.337C330.402 124.146 329.979 124.15 329.601 124.347C329.223 124.544 328.918 124.919 328.75 125.395C328.149 127.122 328.007 129.054 328.346 130.894C327.607 131.533 326.727 131.853 325.835 131.807H325.766C325.811 130.632 325.609 129.462 325.181 128.42C325.003 128.026 324.754 127.691 324.455 127.445C324.156 127.198 323.815 127.046 323.461 127.001C323.275 126.962 323.084 126.989 322.908 127.078C322.733 127.167 322.579 127.315 322.464 127.507C322.312 127.859 322.233 128.254 322.233 128.656C322.233 129.058 322.312 129.453 322.464 129.806C322.716 130.479 323.085 131.069 323.542 131.532C324 131.995 324.534 132.319 325.104 132.478C325.001 135.129 324.244 139.243 322.343 145.678L320.4 144.71L320.684 143.764C321.058 142.587 321.215 141.315 321.14 140.047C321.065 138.78 320.762 137.552 320.254 136.46C319.283 134.451 318.742 132.15 318.684 129.789C318.627 127.428 319.054 125.089 319.925 123.006C320.796 120.923 322.078 119.168 323.645 117.918C325.212 116.667 327.008 115.965 328.854 115.88C329.88 115.827 330.907 115.976 331.898 116.32C333.341 116.8 334.688 117.669 335.846 118.871C337.005 120.072 337.949 121.576 338.615 123.283C339.282 124.977 339.663 126.832 339.733 128.727C339.802 130.623 339.559 132.515 339.019 134.282C338.434 136.193 337.513 137.907 336.327 139.289C335.142 140.672 333.723 141.688 332.182 142.257V142.29ZM331.047 134.59C331.542 133.846 332.183 133.284 332.904 132.962C333.148 132.859 333.409 132.834 333.662 132.889C333.916 132.945 334.154 133.08 334.358 133.281C334.598 133.501 334.573 133.699 334.573 133.765C334.573 134.062 334.272 134.491 333.713 134.788C333.281 134.996 332.82 135.083 332.36 135.044C331.9 135.004 331.452 134.838 331.047 134.557V134.59ZM325.121 131.62C324.671 131.468 324.253 131.193 323.895 130.813C323.537 130.433 323.248 129.958 323.049 129.421C322.944 129.197 322.883 128.944 322.869 128.684C322.856 128.424 322.891 128.164 322.971 127.925C323.02 127.849 323.085 127.792 323.158 127.761C323.231 127.73 323.309 127.726 323.384 127.749C323.534 127.769 323.681 127.813 323.823 127.881C324.159 128.061 324.441 128.378 324.622 128.783C324.98 129.644 325.152 130.612 325.121 131.587V131.62ZM327.331 150.209L319.591 146.316C319.513 146.279 319.426 146.283 319.349 146.326C319.272 146.369 319.211 146.448 319.179 146.547L318.078 150.154C318.024 150.332 317.997 150.522 318 150.712C318.003 150.903 318.036 151.091 318.096 151.266C318.156 151.441 318.242 151.598 318.349 151.73C318.457 151.862 318.584 151.966 318.723 152.035L324.966 155.159C325.104 155.229 325.251 155.263 325.399 155.259C325.547 155.256 325.694 155.216 325.829 155.14C325.965 155.064 326.088 154.955 326.191 154.819C326.293 154.683 326.374 154.522 326.428 154.345L327.538 150.726C327.568 150.627 327.568 150.518 327.538 150.418C327.522 150.359 327.495 150.306 327.459 150.264C327.423 150.222 327.379 150.192 327.331 150.176V150.209ZM325.818 154.048C325.768 154.207 325.671 154.333 325.549 154.401C325.427 154.469 325.289 154.473 325.164 154.411L318.921 151.287C318.797 151.224 318.698 151.1 318.645 150.944C318.592 150.787 318.589 150.611 318.637 150.451L319.626 147.218L326.807 150.803L325.818 154.048Z" fill="#89C4CB"/>
<path d="M211.512 37.1996C211.668 34.5108 211.335 31.9229 210.535 29.6064C209.736 27.2899 208.487 25.2972 206.872 23.7595C205.76 22.6919 204.481 21.8642 203.079 21.3047C200.571 20.2773 197.746 20.1089 194.886 20.8164C192.027 21.5239 189.233 23.0824 186.786 25.3359C184.338 27.5894 182.322 30.4588 180.939 33.6568C179.556 36.8547 178.856 40.269 178.907 43.5576C178.905 45.0705 178.6 46.6297 178.016 48.1139C177.432 49.598 176.586 50.9671 175.542 52.1145L174.273 53.5343C174.178 53.6451 174.117 53.7871 174.102 53.9307C174.087 54.0743 174.119 54.2086 174.192 54.3059L181.656 63.6902C181.734 63.782 181.845 63.8278 181.967 63.8179C182.088 63.808 182.211 63.7433 182.309 63.6372L183.585 62.2035C184.641 61.024 185.868 60.0959 187.176 59.4897C188.483 58.8834 189.835 58.615 191.129 58.7047C193.452 58.881 195.878 58.435 198.236 57.3982C200.594 56.3614 202.825 54.7594 204.771 52.7061C206.717 50.6529 208.33 48.1989 209.495 45.5188C210.66 42.8386 211.349 39.9982 211.512 37.1996ZM177.618 56.9619C183.101 50.7449 186.888 45.6503 188.904 41.7277C190.071 42.38 191.454 42.5462 192.863 42.2035C192.495 43.8554 192.56 45.5039 193.047 46.9208C189.638 49.0902 185.151 53.2893 179.626 59.4536L177.618 56.9619ZM197.346 35.1721C198.591 34.0612 199.155 34.742 199.335 34.9766C199.515 35.2111 200.072 35.9058 199.064 37.3279C197.688 38.9685 195.991 40.1622 194.201 40.748C194.792 38.6365 195.9 36.6694 197.372 35.1165L197.346 35.1721ZM191.364 57.6841C189.935 57.5888 188.443 57.8869 187.001 58.5559C185.558 59.2249 184.203 60.2474 183.036 61.5465L182.129 62.5774L180.251 60.2298C186.461 53.2866 190.672 49.6334 193.526 47.8151C193.942 48.5819 194.521 49.1919 195.221 49.5988C195.921 50.0057 196.722 50.199 197.565 50.1639C198.012 50.1826 198.477 50.0638 198.918 49.8188C199.358 49.5737 199.759 49.2105 200.083 48.7632C200.245 48.4683 200.344 48.1416 200.369 47.8177C200.394 47.4939 200.343 47.1851 200.223 46.9242C200.028 46.4123 199.719 45.9884 199.324 45.6888C198.928 45.3892 198.457 45.2228 197.95 45.2039C196.632 45.1999 195.268 45.6185 194 46.4163L193.924 46.3815C193.499 45.0505 193.484 43.5074 193.882 41.9821C196.042 41.3621 198.102 39.9408 199.737 37.9413C200.189 37.3913 200.473 36.6954 200.532 35.9976C200.59 35.2999 200.419 34.6538 200.052 34.1928C199.686 33.7319 199.153 33.4916 198.563 33.5214C197.974 33.5513 197.373 33.8492 196.885 34.3534C195.124 36.1877 193.822 38.5463 193.177 41.0677C191.876 41.4467 190.584 41.3417 189.491 40.768L189.404 40.7282C190.145 39.2687 190.572 37.674 190.641 36.1097C190.646 35.5088 190.528 34.9427 190.296 34.4579C190.064 33.9732 189.725 33.5837 189.306 33.3217C189.094 33.1654 188.838 33.0886 188.566 33.0995C188.293 33.1104 188.014 33.2086 187.758 33.3837C187.363 33.7411 187.033 34.1947 186.8 34.7024C186.566 35.2101 186.435 35.7555 186.42 36.2881C186.346 37.2843 186.465 38.2439 186.771 39.0938C187.076 39.9437 187.558 40.6615 188.182 41.1927C186.51 44.482 183.165 49.2414 177.033 56.2711L175.154 53.9235L176.061 52.8926C177.217 51.6225 178.154 50.1057 178.797 48.4614C179.441 46.8172 179.775 45.0903 179.771 43.4165C179.722 40.3159 180.38 37.0967 181.682 34.0805C182.983 31.0643 184.882 28.3569 187.188 26.2287C189.494 24.1005 192.126 22.6262 194.822 21.953C197.519 21.2798 200.184 21.4314 202.551 22.3926C203.872 22.9198 205.075 23.7014 206.12 24.7101C207.654 26.1514 208.839 28.0291 209.596 30.2169C210.352 32.4046 210.663 34.8517 210.506 37.3933C210.359 39.9201 209.758 42.4844 208.742 44.919C207.727 47.3537 206.32 49.6041 204.613 51.5237C202.766 53.5996 200.612 55.2311 198.318 56.2922C196.024 57.3532 193.651 57.8152 191.383 57.6424L191.364 57.6841ZM194.418 47.2996C195.473 46.6461 196.606 46.3072 197.699 46.3178C198.066 46.3281 198.408 46.447 198.694 46.664C198.98 46.881 199.202 47.1894 199.34 47.5618C199.514 47.9791 199.366 48.2143 199.328 48.2977C199.155 48.6729 198.527 49.0407 197.652 49.0924C196.989 49.1058 196.359 48.9489 195.804 48.6323C195.25 48.3158 194.784 47.8471 194.437 47.2579L194.418 47.2996ZM188.703 40.1187C188.226 39.6666 187.861 39.0763 187.632 38.3892C187.404 37.702 187.317 36.9345 187.379 36.1401C187.378 35.797 187.448 35.4427 187.582 35.1064C187.717 34.7702 187.912 34.4614 188.152 34.2054C188.258 34.1383 188.372 34.1044 188.482 34.1073C188.592 34.1102 188.693 34.1499 188.773 34.2219C188.95 34.3346 189.109 34.4759 189.248 34.6425C189.566 35.0648 189.735 35.6279 189.728 36.2448C189.676 37.5407 189.329 38.8633 188.722 40.077L188.703 40.1187ZM180.662 64.8828L173.204 55.4846C173.126 55.3927 173.015 55.347 172.894 55.3569C172.772 55.3667 172.649 55.4314 172.551 55.5376L169.069 59.4586C168.897 59.6517 168.754 59.876 168.646 60.1187C168.539 60.3614 168.471 60.6177 168.444 60.8731C168.418 61.1284 168.434 61.3777 168.493 61.6068C168.551 61.8359 168.65 62.0402 168.784 62.2082L174.81 69.7677C174.943 69.9352 175.108 70.0634 175.296 70.1449C175.484 70.2264 175.691 70.2597 175.905 70.2427C176.12 70.2258 176.338 70.159 176.546 70.0462C176.755 69.9334 176.95 69.7768 177.12 69.5854L180.62 65.6554C180.715 65.5474 180.779 65.4088 180.799 65.2663C180.814 65.1823 180.811 65.0994 180.79 65.0252C180.769 64.9509 180.732 64.8876 180.681 64.8411L180.662 64.8828ZM176.526 68.8569C176.372 69.0279 176.176 69.1323 175.983 69.1473C175.79 69.1623 175.614 69.0869 175.494 68.9372L169.468 61.3777C169.35 61.2256 169.297 61.0124 169.321 60.784C169.346 60.5556 169.445 60.3305 169.598 60.1573L172.722 56.644L179.657 65.3297L176.526 68.8569Z" fill="#89C4CB"/>
<path d="M78.5765 156.425L80.3554 151.482L102.347 151.051L100.839 155.241L82.9808 155.146L96.7987 166.47L95.2512 170.77L78.5765 156.425ZM129.134 152.305L108.799 184.011L104.536 182.476L124.871 150.77L129.134 152.305ZM145.473 174.915L143.694 179.858L121.703 180.289L123.21 176.099L141.069 176.194L127.251 164.87L128.799 160.57L145.473 174.915Z" fill="#89C4CB"/>
<path d="M291.454 61.7256C287.058 64.8106 283.871 64.3501 281.033 60.3051L278.274 56.372C276.568 53.9418 274.987 53.7627 272.258 55.6538L269.498 51.7207C272.189 49.8089 272.575 48.25 270.858 45.8038L268.121 41.9026C265.305 37.8896 265.968 34.7527 270.364 31.6678L271.435 30.9161L273.533 33.9059L272.846 34.3883C270.751 35.8579 270.575 37.3413 272.236 39.7076L275.466 44.3122C277.082 46.6145 276.643 48.8791 274.243 50.9682L274.569 51.4319C277.35 49.8863 279.628 50.2438 281.255 52.5621L284.531 57.2307C286.191 59.5969 287.657 59.9521 289.752 58.4825L290.439 58.0002L292.526 60.974L291.454 61.7256ZM304.073 52.872L303.001 53.6236L300.915 50.6498L301.602 50.1674C303.697 48.6978 303.878 47.1872 302.217 44.8209L298.942 40.1524C297.315 37.8341 297.738 35.5807 300.137 33.4916L299.812 33.0279C297.031 34.5735 294.768 34.2048 293.153 31.9025L289.922 27.2978C288.262 24.9316 286.807 24.5924 284.697 26.0732L284.009 26.5556L281.911 23.5658L282.983 22.8142C287.379 19.7292 290.554 20.1737 293.37 24.1867L296.107 28.0878C297.824 30.534 299.421 30.7019 302.134 28.822L304.894 32.7551C302.187 34.6782 301.817 36.2258 303.522 38.656L306.282 42.5891C309.12 46.6341 308.469 49.787 304.073 52.872Z" fill="#89C4CB"/>
<path d="M271.44 208.476C267.242 206.403 262.525 205.622 257.883 206.231C253.242 206.84 248.885 208.812 245.364 211.897C241.844 214.982 239.317 219.041 238.103 223.563C236.89 228.084 237.044 232.863 238.547 237.297C240.05 241.73 242.834 245.618 246.547 248.469C250.26 251.32 254.735 253.006 259.406 253.314C264.077 253.621 268.735 252.537 272.789 250.198C276.844 247.858 280.114 244.369 282.186 240.171C284.956 234.542 285.38 228.044 283.366 222.102C281.351 216.16 277.062 211.26 271.44 208.476ZM251.772 248.332C248.086 246.514 245.022 243.644 242.968 240.085C240.913 236.526 239.96 232.437 240.229 228.337C240.498 224.236 241.978 220.307 244.48 217.047C246.982 213.787 250.394 211.342 254.286 210.022C258.178 208.702 262.373 208.565 266.343 209.629C270.312 210.694 273.877 212.911 276.586 216.001C279.294 219.092 281.026 222.916 281.562 226.99C282.097 231.065 281.412 235.207 279.594 238.892C277.15 243.828 272.849 247.593 267.634 249.363C262.419 251.132 256.714 250.761 251.772 248.332Z" fill="#77BCC4"/>
<path d="M279.594 238.892C277.775 242.577 274.904 245.64 271.345 247.694C267.785 249.748 263.697 250.7 259.596 250.429C255.495 250.159 251.567 248.679 248.308 246.176C245.048 243.673 242.604 240.26 241.285 236.368C239.965 232.476 239.83 228.28 240.895 224.311C241.96 220.342 244.179 216.778 247.27 214.07C250.361 211.362 254.185 209.631 258.26 209.097C262.335 208.562 266.476 209.248 270.161 211.068C275.097 213.511 278.862 217.813 280.631 223.029C282.399 228.246 282.026 233.95 279.594 238.892Z" fill="#77BCC4"/>
<path d="M246.468 256.187L247.212 247.832L254.947 251.648L248.763 257.319C248.559 257.506 248.304 257.627 248.03 257.666C247.756 257.705 247.476 257.661 247.228 257.538C246.98 257.416 246.775 257.221 246.639 256.98C246.504 256.739 246.444 256.463 246.468 256.187Z" fill="#77BCC4"/>
<path d="M255.011 236.055C254.436 235.767 253.962 235.309 253.653 234.744C253.345 234.179 253.216 233.533 253.285 232.893C253.287 232.877 253.284 232.861 253.276 232.847C253.269 232.833 253.257 232.821 253.243 232.814C252.691 232.588 252.214 232.211 251.867 231.726C251.52 231.241 251.316 230.668 251.28 230.072C251.244 229.458 251.391 228.847 251.702 228.316C251.247 228.015 250.877 227.6 250.631 227.112C250.385 226.625 250.271 226.081 250.299 225.536C250.327 224.99 250.497 224.461 250.792 224.002C251.088 223.542 251.498 223.168 251.982 222.915C252.021 222.899 252.053 222.87 252.071 222.832C252.09 222.794 252.094 222.751 252.083 222.711C251.903 222.159 251.879 221.569 252.013 221.005C252.148 220.44 252.436 219.924 252.845 219.514C253.255 219.103 253.77 218.814 254.334 218.677C254.897 218.541 255.488 218.564 256.04 218.742C255.846 218.041 255.902 217.295 256.196 216.63C256.491 215.965 257.006 215.423 257.655 215.095C258.304 214.766 259.047 214.673 259.757 214.83C260.467 214.987 261.1 215.386 261.55 215.957L261.587 215.883C262.026 215.328 262.641 214.941 263.33 214.783C264.019 214.625 264.741 214.707 265.377 215.015C266.125 215.384 266.695 216.035 266.963 216.825C267.231 217.614 267.174 218.478 266.805 219.226L259.206 234.625C258.836 235.368 258.188 235.935 257.403 236.203C256.617 236.47 255.758 236.417 255.011 236.055ZM253.786 231.725C254.027 231.845 254.225 232.035 254.354 232.27C254.484 232.505 254.539 232.774 254.511 233.041C254.462 233.487 254.572 233.936 254.821 234.309C255.07 234.681 255.444 234.954 255.874 235.078C256.305 235.202 256.766 235.17 257.176 234.987C257.585 234.804 257.917 234.483 258.112 234.079L265.711 218.68C265.927 218.228 265.956 217.709 265.791 217.235C265.627 216.762 265.283 216.372 264.834 216.15C264.454 215.964 264.022 215.913 263.61 216.007C263.197 216.101 262.83 216.334 262.569 216.667L262.217 217.123C262.123 217.236 262.004 217.324 261.868 217.38C261.732 217.436 261.585 217.457 261.439 217.442C261.294 217.428 261.154 217.377 261.032 217.295C260.911 217.213 260.811 217.103 260.742 216.973C260.511 216.561 260.134 216.249 259.685 216.099C259.236 215.948 258.747 215.971 258.313 216.161C257.88 216.352 257.533 216.697 257.34 217.129C257.147 217.561 257.121 218.05 257.269 218.5C257.341 218.707 257.352 218.931 257.3 219.144C257.248 219.357 257.136 219.551 256.976 219.701C256.814 219.856 256.611 219.961 256.391 220.004C256.172 220.047 255.944 220.026 255.736 219.944C255.398 219.811 255.029 219.778 254.673 219.848C254.317 219.918 253.988 220.088 253.726 220.339C253.464 220.59 253.279 220.911 253.193 221.263C253.107 221.616 253.124 221.986 253.241 222.329C253.35 222.649 253.339 222.997 253.211 223.31C253.083 223.622 252.847 223.878 252.546 224.031C252.233 224.191 251.97 224.435 251.788 224.736C251.605 225.036 251.509 225.382 251.511 225.733C251.513 226.085 251.612 226.429 251.798 226.728C251.984 227.027 252.249 227.268 252.564 227.425C252.683 227.484 252.787 227.569 252.869 227.674C252.952 227.778 253.01 227.899 253.04 228.029C253.07 228.16 253.071 228.295 253.043 228.426C253.016 228.557 252.96 228.68 252.879 228.787C252.704 229.02 252.584 229.291 252.53 229.578C252.476 229.864 252.489 230.16 252.568 230.441C252.647 230.721 252.789 230.98 252.984 231.197C253.18 231.414 253.422 231.583 253.694 231.691L253.786 231.725Z" fill="#54AAB4"/>
<path d="M260.499 220.591C260.039 220.363 259.649 220.015 259.371 219.582C259.092 219.15 258.937 218.65 258.921 218.137C258.915 217.99 258.968 217.847 259.068 217.739C259.167 217.631 259.306 217.567 259.453 217.562C259.6 217.558 259.742 217.612 259.849 217.713C259.956 217.813 260.02 217.952 260.025 218.098C260.035 218.433 260.141 218.758 260.332 219.033C260.522 219.308 260.788 219.522 261.098 219.65C261.407 219.777 261.747 219.811 262.076 219.749C262.405 219.687 262.709 219.531 262.951 219.299C263.058 219.198 263.201 219.143 263.348 219.147C263.496 219.15 263.636 219.212 263.738 219.318C263.789 219.371 263.828 219.433 263.854 219.501C263.88 219.568 263.893 219.641 263.891 219.713C263.889 219.786 263.872 219.857 263.843 219.924C263.813 219.99 263.77 220.05 263.717 220.099C263.295 220.499 262.76 220.761 262.185 220.849C261.61 220.937 261.022 220.847 260.499 220.591Z" fill="#54AAB4"/>
<path d="M255.423 231.042C254.992 230.829 254.623 230.51 254.35 230.114C254.296 230.057 254.254 229.988 254.229 229.913C254.203 229.839 254.194 229.759 254.202 229.68C254.209 229.602 254.234 229.526 254.273 229.457C254.313 229.389 254.366 229.329 254.431 229.283C254.495 229.237 254.568 229.206 254.646 229.19C254.723 229.175 254.803 229.176 254.88 229.195C254.957 229.213 255.03 229.247 255.092 229.295C255.155 229.344 255.206 229.405 255.243 229.475C255.429 229.762 255.696 229.987 256.009 230.123C256.323 230.259 256.67 230.3 257.006 230.239C257.343 230.179 257.654 230.02 257.901 229.784C258.147 229.547 258.319 229.243 258.393 228.909C258.428 228.766 258.518 228.643 258.643 228.566C258.769 228.49 258.92 228.466 259.063 228.5C259.206 228.535 259.329 228.625 259.406 228.751C259.483 228.876 259.506 229.027 259.472 229.17C259.371 229.585 259.178 229.971 258.908 230.301C258.638 230.632 258.297 230.897 257.911 231.078C257.524 231.258 257.102 231.35 256.676 231.346C256.249 231.342 255.829 231.242 255.446 231.054L255.423 231.042Z" fill="#54AAB4"/>
<path d="M253.633 226.289C253.022 225.986 252.541 225.474 252.276 224.846C252.011 224.218 251.981 223.516 252.19 222.868C252.208 222.793 252.24 222.723 252.286 222.661C252.332 222.6 252.39 222.549 252.457 222.511C252.524 222.474 252.598 222.45 252.674 222.442C252.75 222.435 252.827 222.443 252.9 222.466C252.973 222.49 253.04 222.528 253.098 222.579C253.155 222.63 253.201 222.692 253.233 222.762C253.265 222.832 253.283 222.907 253.284 222.984C253.285 223.06 253.271 223.137 253.241 223.207C253.138 223.526 253.129 223.867 253.216 224.19C253.302 224.513 253.48 224.805 253.728 225.029C253.976 225.254 254.284 225.401 254.614 225.455C254.945 225.509 255.283 225.465 255.59 225.331C255.657 225.302 255.728 225.286 255.801 225.284C255.874 225.283 255.947 225.295 256.015 225.322C256.083 225.349 256.145 225.388 256.197 225.439C256.25 225.489 256.292 225.55 256.321 225.617C256.35 225.683 256.366 225.754 256.368 225.827C256.37 225.899 256.357 225.971 256.331 226.039C256.304 226.107 256.265 226.168 256.215 226.22C256.164 226.273 256.104 226.314 256.038 226.343C255.657 226.509 255.244 226.591 254.829 226.581C254.414 226.572 254.005 226.472 253.633 226.289Z" fill="#54AAB4"/>
<path d="M259.073 226.362L259.003 226.328C258.882 226.244 258.798 226.115 258.772 225.97C258.745 225.824 258.777 225.674 258.86 225.553C259.049 225.278 259.155 224.954 259.164 224.621C259.174 224.287 259.088 223.958 258.916 223.673C258.743 223.387 258.492 223.157 258.193 223.011C257.893 222.864 257.558 222.807 257.226 222.846C257.153 222.858 257.078 222.855 257.005 222.837C256.933 222.819 256.865 222.786 256.805 222.741C256.746 222.696 256.696 222.64 256.659 222.575C256.621 222.511 256.598 222.439 256.589 222.365C256.58 222.291 256.586 222.216 256.606 222.145C256.627 222.073 256.662 222.006 256.709 221.949C256.756 221.891 256.815 221.843 256.881 221.808C256.947 221.774 257.019 221.752 257.093 221.746C257.632 221.688 258.177 221.785 258.662 222.026C259.148 222.267 259.554 222.642 259.833 223.106C260.113 223.571 260.253 224.106 260.238 224.648C260.223 225.19 260.053 225.716 259.748 226.164C259.676 226.27 259.569 226.348 259.446 226.384C259.323 226.42 259.191 226.413 259.073 226.362Z" fill="#54AAB4"/>
<path d="M259.54 238.29C258.795 237.919 258.227 237.268 257.96 236.48C257.693 235.691 257.75 234.829 258.117 234.081L265.716 218.683C266.084 217.936 266.734 217.365 267.523 217.097C268.312 216.829 269.175 216.885 269.922 217.252C270.554 217.57 271.058 218.093 271.352 218.736C271.646 219.379 271.712 220.103 271.539 220.788L271.5 220.867C272.234 220.866 272.944 221.121 273.51 221.588C274.075 222.055 274.459 222.705 274.595 223.426C274.732 224.147 274.612 224.892 274.257 225.534C273.902 226.175 273.334 226.673 272.651 226.94C273.138 227.266 273.523 227.722 273.765 228.256C274.006 228.791 274.092 229.382 274.015 229.963C273.937 230.543 273.699 231.091 273.326 231.543C272.953 231.996 272.462 232.335 271.906 232.522C271.866 232.537 271.834 232.566 271.815 232.604C271.796 232.642 271.793 232.686 271.805 232.726C271.899 233.265 271.851 233.819 271.666 234.333C271.48 234.847 271.163 235.304 270.747 235.658C270.331 236.012 269.829 236.251 269.292 236.352C268.755 236.453 268.2 236.411 267.684 236.232C267.454 236.802 267.06 237.291 266.552 237.637C266.056 237.971 265.477 238.158 264.88 238.177C264.283 238.196 263.693 238.047 263.177 237.745C263.149 237.732 263.121 237.718 263.089 237.76C262.621 238.198 262.031 238.484 261.397 238.579C260.763 238.673 260.116 238.573 259.54 238.29ZM269.363 218.386C268.91 218.163 268.387 218.13 267.909 218.293C267.431 218.456 267.038 218.801 266.814 219.254L259.215 234.653C259.014 235.053 258.96 235.512 259.064 235.948C259.168 236.384 259.423 236.77 259.784 237.036C260.145 237.303 260.588 237.433 261.035 237.404C261.483 237.376 261.906 237.19 262.229 236.879C262.432 236.675 262.697 236.544 262.982 236.507C263.267 236.469 263.557 236.526 263.806 236.669C264.057 236.818 264.338 236.907 264.629 236.93C264.92 236.952 265.212 236.908 265.483 236.8C265.753 236.692 265.996 236.523 266.191 236.307C266.387 236.091 266.53 235.832 266.61 235.552C266.647 235.425 266.71 235.308 266.797 235.208C266.883 235.109 266.99 235.029 267.11 234.974C267.23 234.92 267.361 234.892 267.493 234.893C267.625 234.894 267.755 234.924 267.874 234.98C268.189 235.134 268.541 235.197 268.89 235.163C269.238 235.129 269.571 235 269.851 234.789C270.131 234.578 270.347 234.294 270.475 233.968C270.604 233.642 270.639 233.287 270.579 232.941C270.517 232.61 270.576 232.266 270.747 231.975C270.917 231.683 271.187 231.463 271.506 231.354C271.85 231.239 272.154 231.027 272.382 230.745C272.609 230.462 272.751 230.12 272.791 229.759C272.83 229.398 272.766 229.034 272.605 228.709C272.444 228.383 272.193 228.111 271.882 227.924C271.689 227.81 271.533 227.642 271.434 227.441C271.334 227.24 271.294 227.014 271.32 226.792C271.343 226.573 271.428 226.366 271.565 226.195C271.703 226.024 271.887 225.897 272.096 225.828C272.543 225.672 272.915 225.354 273.141 224.938C273.366 224.522 273.429 224.037 273.316 223.577C273.204 223.117 272.924 222.715 272.532 222.45C272.14 222.185 271.663 222.076 271.194 222.143C271.047 222.166 270.897 222.153 270.757 222.104C270.617 222.055 270.491 221.972 270.391 221.862C270.292 221.753 270.221 221.62 270.186 221.477C270.151 221.334 270.152 221.184 270.19 221.041L270.333 220.482C270.434 220.074 270.393 219.644 270.217 219.263C270.04 218.882 269.739 218.572 269.363 218.386Z" fill="#54AAB4"/>
<path d="M268.471 224.525C267.95 224.265 267.521 223.853 267.241 223.343C266.961 222.833 266.844 222.25 266.903 221.672C266.932 221.537 267.009 221.419 267.121 221.338C267.232 221.258 267.369 221.221 267.506 221.236C267.642 221.251 267.768 221.316 267.86 221.419C267.951 221.521 268.001 221.654 268 221.791C267.963 222.124 268.024 222.46 268.175 222.759C268.326 223.058 268.56 223.306 268.849 223.475C269.138 223.643 269.47 223.724 269.804 223.708C270.139 223.691 270.461 223.578 270.732 223.382C270.852 223.303 270.997 223.273 271.138 223.299C271.279 223.325 271.404 223.404 271.488 223.52C271.572 223.636 271.607 223.78 271.588 223.921C271.568 224.063 271.494 224.192 271.381 224.28C270.964 224.581 270.472 224.762 269.96 224.805C269.447 224.848 268.932 224.751 268.471 224.525Z" fill="#54AAB4"/>
<path d="M263.264 234.912C262.882 234.722 262.548 234.449 262.286 234.113C262.024 233.777 261.841 233.386 261.75 232.97C261.658 232.554 261.662 232.122 261.76 231.707C261.857 231.292 262.047 230.905 262.314 230.573C262.407 230.459 262.541 230.386 262.687 230.37C262.834 230.355 262.98 230.398 263.095 230.49C263.209 230.583 263.282 230.717 263.298 230.863C263.313 231.01 263.27 231.156 263.178 231.27C262.968 231.53 262.838 231.845 262.802 232.177C262.767 232.509 262.828 232.844 262.979 233.142C263.129 233.44 263.363 233.689 263.651 233.857C263.939 234.026 264.27 234.108 264.603 234.094C264.681 234.081 264.761 234.084 264.837 234.105C264.914 234.125 264.985 234.161 265.046 234.211C265.108 234.261 265.157 234.324 265.192 234.395C265.227 234.466 265.247 234.543 265.249 234.622C265.252 234.701 265.238 234.78 265.207 234.853C265.177 234.926 265.131 234.992 265.074 235.046C265.016 235.1 264.947 235.141 264.872 235.166C264.797 235.191 264.718 235.2 264.639 235.192C264.164 235.215 263.692 235.118 263.264 234.912Z" fill="#54AAB4"/>
<path d="M268.13 233.443C267.758 233.256 267.431 232.989 267.172 232.662C266.913 232.334 266.729 231.955 266.633 231.549C266.616 231.478 266.612 231.405 266.623 231.334C266.634 231.262 266.659 231.193 266.696 231.131C266.734 231.069 266.783 231.015 266.842 230.972C266.9 230.93 266.967 230.899 267.037 230.882C267.18 230.848 267.331 230.871 267.456 230.948C267.582 231.024 267.673 231.146 267.709 231.288C267.792 231.607 267.963 231.896 268.204 232.121C268.444 232.346 268.744 232.498 269.068 232.559C269.391 232.62 269.726 232.587 270.032 232.465C270.338 232.343 270.603 232.137 270.795 231.87C270.879 231.749 271.007 231.666 271.152 231.639C271.297 231.613 271.446 231.645 271.567 231.728C271.688 231.812 271.771 231.94 271.798 232.085C271.825 232.229 271.793 232.379 271.709 232.5C271.417 232.923 271.015 233.259 270.547 233.471C270.079 233.684 269.562 233.765 269.051 233.707C268.731 233.673 268.42 233.583 268.13 233.443Z" fill="#54AAB4"/>
<path d="M264.772 229.175C264.653 229.115 264.559 229.014 264.508 228.892C264.456 228.769 264.45 228.631 264.491 228.504C264.659 227.983 264.975 227.521 265.399 227.175C265.824 226.829 266.34 226.613 266.885 226.552C267.429 226.492 267.98 226.591 268.47 226.836C268.96 227.082 269.368 227.463 269.647 227.935C269.687 227.998 269.714 228.068 269.727 228.142C269.739 228.215 269.737 228.291 269.72 228.363C269.702 228.436 269.671 228.504 269.627 228.564C269.582 228.624 269.526 228.675 269.462 228.712C269.398 228.75 269.327 228.775 269.253 228.785C269.179 228.794 269.104 228.789 269.032 228.769C268.96 228.749 268.893 228.715 268.835 228.669C268.777 228.622 268.728 228.564 268.693 228.499C268.511 228.194 268.241 227.952 267.918 227.805C267.595 227.658 267.235 227.613 266.886 227.676C266.577 227.731 266.289 227.869 266.053 228.075C265.817 228.281 265.642 228.548 265.546 228.846C265.524 228.916 265.489 228.981 265.442 229.036C265.395 229.092 265.337 229.138 265.272 229.172C265.208 229.205 265.137 229.225 265.064 229.231C264.991 229.237 264.918 229.229 264.849 229.207L264.772 229.175Z" fill="#54AAB4"/>
<path d="M259.682 240.613L253.072 237.351C252.94 237.286 252.84 237.171 252.793 237.032C252.745 236.893 252.755 236.741 252.82 236.609C252.885 236.477 253 236.376 253.139 236.329C253.279 236.282 253.431 236.292 253.563 236.357L260.164 239.614C260.295 239.679 260.396 239.794 260.443 239.933C260.49 240.073 260.48 240.225 260.415 240.357C260.35 240.488 260.235 240.589 260.096 240.636C259.957 240.683 259.805 240.673 259.673 240.608L259.682 240.613Z" fill="#54AAB4"/>
<path d="M253.84 244.13C252.834 243.632 252.067 242.756 251.707 241.694C251.346 240.631 251.422 239.469 251.917 238.462C251.982 238.33 252.097 238.23 252.236 238.183C252.376 238.135 252.528 238.145 252.66 238.21L259.26 241.468C259.392 241.533 259.493 241.648 259.54 241.787C259.587 241.926 259.577 242.078 259.512 242.21C259.014 243.216 258.137 243.984 257.073 244.344C256.01 244.704 254.847 244.627 253.84 244.13ZM252.708 239.47C252.475 240.181 252.506 240.953 252.796 241.643C253.086 242.333 253.615 242.895 254.286 243.226C254.957 243.557 255.725 243.635 256.449 243.445C257.173 243.256 257.804 242.811 258.226 242.194L252.708 239.47Z" fill="#54AAB4"/>
</svg>
