<svg width="301" height="224" viewBox="0 0 301 224" fill="none" xmlns="http://www.w3.org/2000/svg">
<path d="M300.623 196.848H0V196.998H300.623V196.848Z" fill="#EBEBEB"/>
<path d="M270.5 206.522H250.587V206.672H270.5V206.522Z" fill="#EBEBEB"/>
<path d="M199.144 208.157H193.919V208.307H199.144V208.157Z" fill="#EBEBEB"/>
<path d="M249.986 200.942H238.448V201.092H249.986V200.942Z" fill="#EBEBEB"/>
<path d="M57.509 201.952H31.5413V202.103H57.509V201.952Z" fill="#EBEBEB"/>
<path d="M66.6721 201.952H62.8662V202.103H66.6721V201.952Z" fill="#EBEBEB"/>
<path d="M135.371 204.49H79.0459V204.64H135.371V204.49Z" fill="#EBEBEB"/>
<path d="M142.495 170.032H26.4007C25.4913 170.031 24.6196 169.668 23.977 169.025C23.3345 168.381 22.9736 167.509 22.9736 166.599V3.40305C22.9815 2.49879 23.3459 1.63417 23.9876 0.996996C24.6293 0.35982 25.4964 0.00154904 26.4007 0H142.495C143.406 0 144.279 0.361702 144.923 1.00554C145.567 1.64937 145.928 2.52259 145.928 3.43311V166.599C145.928 167.51 145.567 168.383 144.923 169.027C144.279 169.67 143.406 170.032 142.495 170.032ZM26.4007 0.12025C25.5311 0.121842 24.6977 0.468409 24.0833 1.08388C23.469 1.69935 23.1239 2.53344 23.1239 3.40305V166.599C23.1239 167.469 23.469 168.303 24.0833 168.918C24.6977 169.534 25.5311 169.88 26.4007 169.882H142.495C143.365 169.88 144.199 169.534 144.815 168.919C145.43 168.303 145.776 167.469 145.778 166.599V3.40305C145.776 2.53288 145.43 1.69881 144.815 1.08351C144.199 0.468214 143.365 0.121839 142.495 0.12025H26.4007Z" fill="#EBEBEB"/>
<path d="M272.55 170.032H156.45C155.54 170.031 154.667 169.668 154.024 169.025C153.38 168.381 153.018 167.509 153.017 166.599V3.40305C153.026 2.49824 153.392 1.63363 154.034 0.99662C154.677 0.35961 155.545 0.00153215 156.45 0H272.55C273.453 0.00312918 274.319 0.362099 274.959 0.999106C275.6 1.63611 275.963 2.49983 275.971 3.40305V166.599C275.971 167.508 275.611 168.379 274.97 169.022C274.329 169.666 273.459 170.029 272.55 170.032ZM156.45 0.12025C155.58 0.121839 154.745 0.468214 154.13 1.08351C153.515 1.69881 153.169 2.53288 153.167 3.40305V166.599C153.169 167.469 153.515 168.303 154.13 168.919C154.745 169.534 155.58 169.88 156.45 169.882H272.55C273.42 169.88 274.254 169.534 274.87 168.919C275.485 168.303 275.831 167.469 275.833 166.599V3.40305C275.831 2.53288 275.485 1.69881 274.87 1.08351C274.254 0.468214 273.42 0.121839 272.55 0.12025H156.45Z" fill="#EBEBEB"/>
<path d="M262.125 196.848H281.185V163.106H262.125V196.848Z" fill="#F0F0F0"/>
<path d="M245.435 196.848H264.494V170.507H245.435V196.848Z" fill="#F0F0F0"/>
<path d="M233.247 196.848H252.307V148.802H233.247V196.848Z" fill="#F0F0F0"/>
<path d="M220.585 196.848H239.645V109.848H220.585V196.848Z" fill="#F0F0F0"/>
<path d="M173.447 196.848H224.589V116.618H173.447V196.848Z" fill="#F0F0F0"/>
<path d="M43.5601 166.653H16.5762V196.848H43.5601V166.653Z" fill="#F5F5F5"/>
<path d="M67.1895 173.273H40.2056V196.842H67.1895V173.273Z" fill="#F5F5F5"/>
<path d="M84.4448 153.853H57.4609V196.848H84.4448V153.853Z" fill="#F5F5F5"/>
<path d="M102.38 118.992H75.396V196.848H102.38V118.992Z" fill="#F5F5F5"/>
<path d="M96.9329 196.848H141.088V101.737H96.9329L96.9329 196.848Z" fill="#F0F0F0"/>
<path d="M101.13 117.303H103.234V105.729H101.13V117.303Z" fill="#F5F5F5"/>
<path d="M101.13 135.394H103.234V123.82H101.13V135.394Z" fill="#F5F5F5"/>
<path d="M101.13 153.498H103.234V141.924H101.13V153.498Z" fill="#F5F5F5"/>
<path d="M101.13 171.595H103.234V160.021H101.13V171.595Z" fill="#F5F5F5"/>
<path d="M101.13 189.693H103.234V178.119H101.13V189.693Z" fill="#F5F5F5"/>
<path d="M108.585 117.303H110.689V105.729H108.585V117.303Z" fill="#F5F5F5"/>
<path d="M108.585 135.394H110.689V123.82H108.585V135.394Z" fill="#F5F5F5"/>
<path d="M108.585 153.498H110.689V141.924H108.585V153.498Z" fill="#F5F5F5"/>
<path d="M108.585 171.595H110.689V160.021H108.585V171.595Z" fill="#F5F5F5"/>
<path d="M108.585 189.693H110.689V178.119H108.585V189.693Z" fill="#F5F5F5"/>
<path d="M116.035 117.303H118.139V105.729H116.035V117.303Z" fill="#F5F5F5"/>
<path d="M116.035 135.394H118.139V123.82H116.035V135.394Z" fill="#F5F5F5"/>
<path d="M116.035 153.498H118.139V141.924H116.035V153.498Z" fill="#F5F5F5"/>
<path d="M116.035 171.595H118.139V160.021H116.035V171.595Z" fill="#F5F5F5"/>
<path d="M116.035 189.693H118.139V178.119H116.035V189.693Z" fill="#F5F5F5"/>
<path d="M123.49 117.303H125.594V105.729H123.49V117.303Z" fill="#F5F5F5"/>
<path d="M123.49 135.394H125.594V123.82H123.49V135.394Z" fill="#F5F5F5"/>
<path d="M123.49 153.498H125.594V141.924H123.49V153.498Z" fill="#F5F5F5"/>
<path d="M123.49 171.595H125.594V160.021H123.49V171.595Z" fill="#F5F5F5"/>
<path d="M123.49 189.693H125.594V178.119H123.49V189.693Z" fill="#F5F5F5"/>
<path d="M130.933 117.303H133.038V105.729H130.933V117.303Z" fill="#F5F5F5"/>
<path d="M130.933 135.394H133.038V123.82H130.933V135.394Z" fill="#F5F5F5"/>
<path d="M130.933 153.498H133.038V141.924H130.933V153.498Z" fill="#F5F5F5"/>
<path d="M130.933 171.595H133.038V160.021H130.933V171.595Z" fill="#F5F5F5"/>
<path d="M130.933 189.693H133.038V178.119H130.933V189.693Z" fill="#F5F5F5"/>
<path opacity="0.5" d="M141.088 101.737H131.985L128.029 196.848H141.088V101.737Z" fill="#E0E0E0"/>
<path d="M213.959 36.177L160.394 42.2857V196.848H213.959V36.177Z" fill="#F0F0F0"/>
<path d="M256.816 36.177H213.959V196.848H256.816V36.177Z" fill="#E6E6E6"/>
<path d="M256.816 49.4885H160.394V50.3122H256.816V49.4885Z" fill="#E0E0E0"/>
<path d="M256.816 58.2367H160.394V59.0604H256.816V58.2367Z" fill="#E0E0E0"/>
<path d="M256.816 66.9848H160.394V67.8085H256.816V66.9848Z" fill="#E0E0E0"/>
<path d="M256.816 75.7327H160.394V76.5564H256.816V75.7327Z" fill="#E0E0E0"/>
<path d="M256.816 84.481H160.394V85.3047H256.816V84.481Z" fill="#E0E0E0"/>
<path d="M256.816 93.2291H160.394V94.0528H256.816V93.2291Z" fill="#E0E0E0"/>
<path d="M256.816 101.977H160.394V102.801H256.816V101.977Z" fill="#E0E0E0"/>
<path d="M256.816 110.725H160.394V111.549H256.816V110.725Z" fill="#E0E0E0"/>
<path d="M256.816 119.473H160.394V120.297H256.816V119.473Z" fill="#E0E0E0"/>
<path d="M256.816 128.222H160.394V129.045H256.816V128.222Z" fill="#E0E0E0"/>
<path d="M256.816 136.97H160.394V137.793H256.816V136.97Z" fill="#E0E0E0"/>
<path d="M256.816 145.724H160.394V146.548H256.816V145.724Z" fill="#E0E0E0"/>
<path d="M256.816 154.472H160.394V155.296H256.816V154.472Z" fill="#E0E0E0"/>
<path d="M256.816 163.22H160.394V164.044H256.816V163.22Z" fill="#E0E0E0"/>
<path d="M256.816 171.968H160.394V172.792H256.816V171.968Z" fill="#E0E0E0"/>
<path d="M256.816 180.716H160.394V181.54H256.816V180.716Z" fill="#E0E0E0"/>
<path d="M256.816 189.464H160.394V190.288H256.816V189.464Z" fill="#E0E0E0"/>
<path d="M64.9464 196.848H90.355L90.355 64.219H64.9464L64.9464 196.848Z" fill="#F0F0F0"/>
<path d="M64.9465 64.2191H90.3551L81.0058 52.5068H44.6184L64.9465 64.2191Z" fill="#FAFAFA"/>
<path d="M64.9465 64.2191L44.6184 52.5068V196.848H64.9465V64.2191Z" fill="#EBEBEB"/>
<path d="M44.6243 71.1033H90.355V70.3999H44.6243V71.1033Z" fill="#E0E0E0"/>
<path d="M44.6243 78.6129H90.355V77.9094H44.6243V78.6129Z" fill="#E0E0E0"/>
<path d="M44.6243 86.1224H90.355V85.4189H44.6243V86.1224Z" fill="#E0E0E0"/>
<path d="M44.6243 93.6259H90.355V92.9225H44.6243V93.6259Z" fill="#E0E0E0"/>
<path d="M44.6243 101.135H90.355V100.432H44.6243V101.135Z" fill="#E0E0E0"/>
<path d="M44.6243 108.639H90.355V107.936H44.6243V108.639Z" fill="#E0E0E0"/>
<path d="M44.6243 116.149H90.355V115.445H44.6243V116.149Z" fill="#E0E0E0"/>
<path d="M44.6243 123.658H90.355V122.955H44.6243V123.658Z" fill="#E0E0E0"/>
<path d="M44.6243 131.162H90.355V130.458H44.6243V131.162Z" fill="#E0E0E0"/>
<path d="M44.6243 138.671H90.355V137.968H44.6243V138.671Z" fill="#E0E0E0"/>
<path d="M44.6243 146.175H90.355V145.471H44.6243V146.175Z" fill="#E0E0E0"/>
<path d="M44.6243 153.684H90.355V152.981H44.6243V153.684Z" fill="#E0E0E0"/>
<path d="M44.6243 161.188H90.355V160.484H44.6243V161.188Z" fill="#E0E0E0"/>
<path d="M44.6243 168.697H90.355V167.994H44.6243V168.697Z" fill="#E0E0E0"/>
<path d="M44.6243 176.207H90.355V175.503H44.6243V176.207Z" fill="#E0E0E0"/>
<path d="M44.6243 183.711H90.355V183.007H44.6243V183.711Z" fill="#E0E0E0"/>
<path d="M44.6243 191.22H90.355V190.517H44.6243V191.22Z" fill="#E0E0E0"/>
<path d="M154.737 196.842H189.002L189.002 78.5888H154.737V196.842Z" fill="#F0F0F0"/>
<path d="M176.749 103.685H182.25V84.7035H176.749V103.685Z" fill="#E6E6E6"/>
<path d="M163.262 103.685H168.763V84.7035H163.262V103.685Z" fill="#E6E6E6"/>
<path d="M176.749 128.264H182.25V109.282H176.749V128.264Z" fill="#E6E6E6"/>
<path d="M163.262 128.264H168.763V109.282H163.262V128.264Z" fill="#E6E6E6"/>
<path d="M176.749 152.843H182.25V133.861H176.749V152.843Z" fill="#E6E6E6"/>
<path d="M163.262 152.843H168.763V133.861H163.262V152.843Z" fill="#E6E6E6"/>
<path d="M176.749 177.422H182.25V158.44H176.749V177.422Z" fill="#E6E6E6"/>
<path d="M163.262 177.422H168.763V158.44H163.262V177.422Z" fill="#E6E6E6"/>
<path d="M154.731 78.5948H188.996L180.963 70.3998H146.698L154.731 78.5948Z" fill="white"/>
<path d="M154.73 78.5948L146.698 70.3998L138.659 78.5948V196.848H154.73V78.5948Z" fill="#E6E6E6"/>
<path d="M114.393 57.0702C123.511 57.0702 130.903 49.6783 130.903 40.56C130.903 31.4417 123.511 24.0498 114.393 24.0498C105.275 24.0498 97.8828 31.4417 97.8828 40.56C97.8828 49.6783 105.275 57.0702 114.393 57.0702Z" fill="#FAFAFA"/>
<path d="M236.193 15.44C232.087 15.0432 228.317 12.1392 222.966 11.3395C220.302 10.9427 218.757 11.9408 217.182 12.8787C215.21 14.0812 212.799 14.6825 209.774 14.6103C205.797 14.5045 201.86 13.7824 198.104 12.4699C194.713 11.3155 191.172 9.93262 188.484 10.4317C183.5 11.3456 183.356 14.6404 179.231 15.1093C175.107 15.5783 174.355 17.8029 177.776 17.8029H240.438C243.432 17.8029 240.306 15.8308 236.193 15.44Z" fill="#F5F5F5"/>
<path d="M59.457 14.7546C57.7254 15.7707 54.3044 15.1574 48.6887 14.2796C45.3939 13.7686 43.7585 14.8207 41.4738 15.7647C40.5599 16.1495 36.5436 17.4662 41.7864 17.4662H70.9468C79.0276 17.4662 71.512 16.0232 70.2193 15.4641H70.1532C66.2872 13.7445 61.1826 13.7445 59.457 14.7546Z" fill="#F5F5F5"/>
<path d="M78.1619 37.7823H110.028C112.818 37.7823 109.908 35.9425 106.078 35.5758C102.248 35.209 98.7365 32.5034 93.7281 31.7578C88.7198 31.0123 88.5875 35.0647 82.0099 35.0226C76.6949 34.9986 72.7507 37.7823 78.1619 37.7823Z" fill="#F5F5F5"/>
<path d="M150.311 224C214.694 224 266.886 220.953 266.886 217.194C266.886 213.435 214.694 210.388 150.311 210.388C85.928 210.388 33.7354 213.435 33.7354 217.194C33.7354 220.953 85.928 224 150.311 224Z" fill="#F5F5F5"/>
<path d="M82.4427 76.6048C82.261 76.6048 82.0866 76.5325 81.9581 76.404C81.8295 76.2755 81.7573 76.1011 81.7573 75.9193V20.8693C81.7573 20.6875 81.8295 20.5132 81.9581 20.3847C82.0866 20.2561 82.261 20.1839 82.4427 20.1839C82.6245 20.1839 82.7989 20.2561 82.9274 20.3847C83.056 20.5132 83.1282 20.6875 83.1282 20.8693V75.9193C83.1282 76.1011 83.056 76.2755 82.9274 76.404C82.7989 76.5325 82.6245 76.6048 82.4427 76.6048Z" fill="#347683"/>
<path d="M100.793 76.6047C100.611 76.6047 100.437 76.5325 100.308 76.4039C100.179 76.2754 100.107 76.101 100.107 75.9193V20.8692C100.098 20.7734 100.109 20.6768 100.14 20.5855C100.17 20.4943 100.22 20.4104 100.285 20.3392C100.349 20.2681 100.428 20.2113 100.516 20.1724C100.604 20.1335 100.699 20.1134 100.796 20.1134C100.892 20.1134 100.987 20.1335 101.075 20.1724C101.163 20.2113 101.242 20.2681 101.307 20.3392C101.372 20.4104 101.421 20.4943 101.451 20.5855C101.482 20.6768 101.493 20.7734 101.484 20.8692V75.9193C101.483 76.1016 101.409 76.2759 101.279 76.4043C101.15 76.5327 100.975 76.6047 100.793 76.6047Z" fill="#347683"/>
<path d="M100.793 39.9048C100.611 39.9053 100.436 39.834 100.306 39.7063L91.6178 31.0183L82.9298 39.6823C82.7973 39.7932 82.6281 39.8505 82.4554 39.8429C82.2828 39.8353 82.1193 39.7633 81.9971 39.6411C81.8749 39.5189 81.8029 39.3553 81.7952 39.1827C81.7876 39.01 81.8449 38.8408 81.9558 38.7083L90.6438 30.0624L81.9558 21.3563C81.8513 21.2612 81.7784 21.1363 81.747 20.9984C81.7156 20.8606 81.7272 20.7164 81.7803 20.5854C81.8334 20.4544 81.9253 20.3427 82.0438 20.2656C82.1623 20.1884 82.3015 20.1494 82.4428 20.1538H100.793C100.929 20.1541 101.063 20.1948 101.176 20.2708C101.29 20.3468 101.378 20.4546 101.43 20.5807C101.483 20.7067 101.497 20.8456 101.47 20.9795C101.443 21.1134 101.377 21.2362 101.28 21.3323L92.5919 30.0624L101.28 38.7504C101.388 38.844 101.464 38.9691 101.498 39.1081C101.531 39.2472 101.52 39.3932 101.466 39.5258C101.413 39.6584 101.319 39.7708 101.198 39.8474C101.077 39.924 100.936 39.9608 100.793 39.9529V39.9048ZM84.1023 21.5547L91.6178 29.0703L99.1334 21.5547H84.1023Z" fill="#347683"/>
<path d="M82.4428 21.5548C82.3066 21.5557 82.1731 21.516 82.0596 21.4408C81.946 21.3655 81.8574 21.2581 81.8051 21.1323C81.7529 21.0065 81.7393 20.8679 81.7661 20.7343C81.793 20.6007 81.859 20.4782 81.9558 20.3823L91.1308 11.2073C91.1946 11.143 91.2704 11.0919 91.354 11.057C91.4376 11.0222 91.5273 11.0042 91.6178 11.0042C91.7084 11.0042 91.7981 11.0222 91.8817 11.057C91.9653 11.0919 92.0411 11.143 92.1048 11.2073L101.28 20.3823C101.344 20.4461 101.395 20.5219 101.43 20.6055C101.465 20.6891 101.483 20.7788 101.483 20.8693C101.483 20.9599 101.465 21.0496 101.43 21.1332C101.395 21.2168 101.344 21.2926 101.28 21.3563C101.15 21.4834 100.975 21.5545 100.793 21.5545C100.611 21.5545 100.436 21.4834 100.306 21.3563L91.6178 12.6683L82.9298 21.3563C82.8 21.484 82.625 21.5553 82.4428 21.5548Z" fill="#347683"/>
<path d="M119.143 21.5548C118.961 21.5541 118.786 21.4829 118.656 21.3563L109.968 12.6683L101.28 21.3563C101.149 21.4834 100.975 21.5545 100.793 21.5545C100.611 21.5545 100.436 21.4834 100.306 21.3563C100.241 21.2926 100.19 21.2168 100.155 21.1332C100.12 21.0496 100.103 20.9599 100.103 20.8693C100.103 20.7788 100.12 20.6891 100.155 20.6055C100.19 20.5219 100.241 20.4461 100.306 20.3823L109.481 11.2073C109.544 11.143 109.62 11.0919 109.704 11.057C109.787 11.0222 109.877 11.0042 109.968 11.0042C110.058 11.0042 110.148 11.0222 110.231 11.057C110.315 11.0919 110.391 11.143 110.455 11.2073L119.648 20.3823C119.745 20.4782 119.811 20.6007 119.837 20.7343C119.864 20.8679 119.851 21.0065 119.798 21.1323C119.746 21.2581 119.658 21.3655 119.544 21.4408C119.43 21.516 119.297 21.5557 119.161 21.5548H119.143Z" fill="#347683"/>
<path d="M119.143 21.5548C118.961 21.5541 118.786 21.4829 118.656 21.3563C118.591 21.2926 118.54 21.2168 118.505 21.1332C118.471 21.0496 118.453 20.9599 118.453 20.8693C118.453 20.7788 118.471 20.6891 118.505 20.6055C118.54 20.5219 118.591 20.4461 118.656 20.3823L127.831 11.2073C127.894 11.143 127.97 11.0919 128.054 11.057C128.138 11.0222 128.227 11.0042 128.318 11.0042C128.408 11.0042 128.498 11.0222 128.582 11.057C128.665 11.0919 128.741 11.143 128.805 11.2073L137.98 20.3823C138.044 20.4461 138.095 20.5219 138.13 20.6055C138.165 20.6891 138.183 20.7788 138.183 20.8693C138.183 20.9599 138.165 21.0496 138.13 21.1332C138.095 21.2168 138.044 21.2926 137.98 21.3563C137.85 21.4834 137.675 21.5545 137.493 21.5545C137.311 21.5545 137.136 21.4834 137.006 21.3563L128.318 12.6683L119.648 21.3563C119.581 21.4218 119.502 21.4731 119.416 21.5072C119.329 21.5413 119.236 21.5574 119.143 21.5548Z" fill="#347683"/>
<path d="M82.4428 58.2548C82.3066 58.2557 82.1731 58.216 82.0596 58.1408C81.946 58.0655 81.8574 57.9581 81.8051 57.8323C81.7529 57.7065 81.7393 57.5679 81.7661 57.4343C81.793 57.3007 81.859 57.1782 81.9558 57.0823L100.306 38.7323C100.438 38.6214 100.608 38.5641 100.78 38.5717C100.953 38.5794 101.116 38.6514 101.239 38.7736C101.361 38.8958 101.433 39.0593 101.44 39.2319C101.448 39.4046 101.391 39.5738 101.28 39.7063L82.9298 58.0563C82.8 58.184 82.625 58.2553 82.4428 58.2548Z" fill="#347683"/>
<path d="M100.793 58.2547C100.611 58.2553 100.436 58.184 100.306 58.0563L81.9557 39.6822C81.8448 39.5497 81.7875 39.3805 81.7951 39.2078C81.8027 39.0352 81.8747 38.8717 81.9969 38.7495C82.1191 38.6273 82.2827 38.5552 82.4553 38.5476C82.628 38.54 82.7972 38.5973 82.9297 38.7082L101.28 57.0582C101.377 57.1541 101.443 57.2766 101.469 57.4102C101.496 57.5438 101.483 57.6823 101.43 57.8082C101.378 57.934 101.29 58.0414 101.176 58.1166C101.062 58.1919 100.929 58.2316 100.793 58.2306V58.2547Z" fill="#347683"/>
<path d="M100.793 76.6047H82.4428C82.3068 76.6057 82.1736 76.5662 82.0601 76.4913C81.9466 76.4163 81.858 76.3093 81.8055 76.1838C81.7544 76.0576 81.7415 75.9191 81.7682 75.7856C81.7949 75.652 81.8601 75.5292 81.9558 75.4323L90.6438 66.7383L81.9558 58.0503C81.8449 57.9178 81.7876 57.7485 81.7952 57.5759C81.8029 57.4032 81.8749 57.2397 81.9971 57.1175C82.1193 56.9953 82.2828 56.9233 82.4554 56.9157C82.6281 56.908 82.7973 56.9653 82.9298 57.0762L91.6178 65.7643L100.306 57.0762C100.438 56.9653 100.608 56.908 100.78 56.9157C100.953 56.9233 101.116 56.9953 101.239 57.1175C101.361 57.2397 101.433 57.4032 101.44 57.5759C101.448 57.7485 101.391 57.9178 101.28 58.0503L92.5919 66.7383L101.28 75.4263C101.377 75.5221 101.443 75.6447 101.47 75.7783C101.496 75.9118 101.483 76.0504 101.431 76.1762C101.378 76.302 101.29 76.4094 101.176 76.4847C101.063 76.5599 100.929 76.5996 100.793 76.5987V76.6047ZM84.1023 75.2339H99.1334L91.6178 67.7183L84.1023 75.2339Z" fill="#263238"/>
<path d="M76.0215 30.7779H66.2212L67.4537 20.8694H74.7829L76.0215 30.7779Z" fill="#347683"/>
<path d="M76.0214 31.4633H66.2211C66.1238 31.463 66.0276 31.4426 65.9386 31.4032C65.8496 31.3639 65.7698 31.3066 65.7041 31.2348C65.6406 31.1608 65.593 31.0747 65.564 30.9816C65.5351 30.8886 65.5255 30.7906 65.5357 30.6937L66.7743 20.7851C66.7948 20.6193 66.8752 20.4667 67.0003 20.356C67.1254 20.2453 67.2866 20.1841 67.4537 20.1839H74.7829C74.9506 20.1839 75.1126 20.2449 75.2387 20.3555C75.3648 20.4662 75.4464 20.6188 75.4683 20.7851L76.6708 30.6937C76.6827 30.79 76.674 30.8877 76.6453 30.9804C76.6167 31.0731 76.5686 31.1587 76.5044 31.2315C76.4402 31.3042 76.3612 31.3625 76.2728 31.4025C76.1843 31.4424 76.0884 31.4631 75.9914 31.4633H76.0214ZM67.0028 30.0864H75.2398L74.1756 21.5547H68.067L67.0028 30.0864Z" fill="#347683"/>
<path d="M137.493 21.5547H64.6699C64.5741 21.5637 64.4775 21.5526 64.3862 21.522C64.2949 21.4915 64.211 21.4423 64.1399 21.3775C64.0688 21.3127 64.0119 21.2337 63.973 21.1457C63.9342 21.0577 63.9141 20.9625 63.9141 20.8663C63.9141 20.7701 63.9342 20.6749 63.973 20.5869C64.0119 20.4989 64.0688 20.4199 64.1399 20.3551C64.211 20.2903 64.2949 20.2411 64.3862 20.2106C64.4775 20.18 64.5741 20.1689 64.6699 20.1779H137.493C137.589 20.1689 137.685 20.18 137.776 20.2106C137.868 20.2411 137.952 20.2903 138.023 20.3551C138.094 20.4199 138.151 20.4989 138.19 20.5869C138.228 20.6749 138.249 20.7701 138.249 20.8663C138.249 20.9625 138.228 21.0577 138.19 21.1457C138.151 21.2337 138.094 21.3127 138.023 21.3775C137.952 21.4423 137.868 21.4915 137.776 21.522C137.685 21.5526 137.589 21.5637 137.493 21.5547Z" fill="#263238"/>
<path d="M128.318 12.3797H91.6419C91.4704 12.3637 91.3111 12.2842 91.1951 12.1569C91.0792 12.0296 91.0149 11.8635 91.0149 11.6913C91.0149 11.5191 91.0792 11.353 91.1951 11.2257C91.3111 11.0984 91.4704 11.0189 91.6419 11.0029H128.318C128.414 10.9939 128.51 11.0051 128.602 11.0356C128.693 11.0661 128.777 11.1153 128.848 11.1801C128.919 11.2449 128.976 11.3239 129.015 11.4119C129.054 11.4999 129.074 11.5951 129.074 11.6913C129.074 11.7875 129.054 11.8827 129.015 11.9707C128.976 12.0588 128.919 12.1377 128.848 12.2025C128.777 12.2673 128.693 12.3165 128.602 12.347C128.51 12.3776 128.414 12.3887 128.318 12.3797Z" fill="#347683"/>
<path d="M147.131 51.6771H76.3822C72.6399 51.6771 69.6062 54.7109 69.6062 58.4532V207.628C69.6062 211.37 72.6399 214.404 76.3822 214.404H147.131C150.873 214.404 153.907 211.37 153.907 207.628V58.4532C153.907 54.7109 150.873 51.6771 147.131 51.6771Z" fill="#347683"/>
<path opacity="0.2" d="M147.131 51.6771H76.3822C72.6399 51.6771 69.6062 54.7109 69.6062 58.4532V207.628C69.6062 211.37 72.6399 214.404 76.3822 214.404H147.131C150.873 214.404 153.907 211.37 153.907 207.628V58.4532C153.907 54.7109 150.873 51.6771 147.131 51.6771Z" fill="black"/>
<path d="M155.789 51.6771H85.0404C81.2981 51.6771 78.2644 54.7109 78.2644 58.4532V207.628C78.2644 211.37 81.2981 214.404 85.0404 214.404H155.789C159.531 214.404 162.565 211.37 162.565 207.628V58.4532C162.565 54.7109 159.531 51.6771 155.789 51.6771Z" fill="#347683"/>
<path d="M159.739 207.628V58.4471C159.739 56.2655 157.97 54.4969 155.789 54.4969L85.034 54.4969C82.8524 54.4969 81.0839 56.2655 81.0839 58.4471L81.0839 207.628C81.0839 209.81 82.8524 211.578 85.034 211.578H155.789C157.97 211.578 159.739 209.81 159.739 207.628Z" fill="white"/>
<path opacity="0.1" d="M158.612 145.054L155.371 78.3218C155.24 75.6221 152.945 73.5397 150.245 73.6708L92.4857 76.4756C89.7859 76.6067 87.7036 78.9015 87.8347 81.6013L91.0751 148.333C91.2062 151.033 93.501 153.115 96.2008 152.984L153.961 150.179C156.66 150.048 158.743 147.753 158.612 145.054Z" fill="black"/>
<path d="M157.484 62.2169V59.391C157.484 57.9366 156.305 56.7576 154.851 56.7576L85.9783 56.7576C84.5239 56.7576 83.3448 57.9366 83.3448 59.391V62.2169C83.3448 63.6713 84.5239 64.8503 85.9783 64.8503H154.851C156.305 64.8503 157.484 63.6713 157.484 62.2169Z" fill="#347683"/>
<path d="M91.1848 62.6979C90.682 62.6979 90.1997 62.4986 89.8435 62.1436C89.4874 61.7886 89.2865 61.3068 89.2849 60.804C89.2865 60.3006 89.4872 59.8182 89.8431 59.4623C90.1991 59.1063 90.6814 58.9056 91.1848 58.9041C91.6883 58.9056 92.1706 59.1063 92.5266 59.4623C92.8825 59.8182 93.0832 60.3006 93.0848 60.804C93.0832 61.3068 92.8823 61.7886 92.5262 62.1436C92.17 62.4986 91.6877 62.6979 91.1848 62.6979Z" fill="white"/>
<path d="M96.8306 62.6979C96.3277 62.6979 95.8454 62.4986 95.4893 62.1436C95.1331 61.7886 94.9323 61.3068 94.9307 60.804C94.9322 60.3006 95.1329 59.8182 95.4889 59.4623C95.8449 59.1063 96.3272 58.9056 96.8306 58.9041C97.3335 58.9056 97.8152 59.1065 98.1702 59.4626C98.5252 59.8188 98.7245 60.3011 98.7245 60.804C98.7229 61.3058 98.5229 61.7866 98.1681 62.1414C97.8132 62.4963 97.3324 62.6963 96.8306 62.6979Z" fill="white"/>
<path d="M102.476 62.6979C101.973 62.6979 101.491 62.4986 101.135 62.1436C100.779 61.7886 100.578 61.3068 100.576 60.804C100.578 60.3006 100.778 59.8182 101.134 59.4623C101.49 59.1063 101.973 58.9056 102.476 58.9041C102.979 58.9056 103.461 59.1065 103.816 59.4626C104.171 59.8188 104.37 60.3011 104.37 60.804C104.368 61.3058 104.168 61.7866 103.814 62.1414C103.459 62.4963 102.978 62.6963 102.476 62.6979Z" fill="white"/>
<path d="M152.199 58.4472H149.566C148.995 58.4472 148.532 58.9102 148.532 59.4813V62.1148C148.532 62.6859 148.995 63.1489 149.566 63.1489H152.199C152.77 63.1489 153.233 62.6859 153.233 62.1148V59.4813C153.233 58.9102 152.77 58.4472 152.199 58.4472Z" fill="white"/>
<path d="M106.893 179.588C113.615 176.804 116.807 169.098 114.022 162.376C111.238 155.655 103.532 152.463 96.8107 155.247C90.0891 158.031 86.8972 165.737 89.6813 172.459C92.4655 179.18 100.171 182.372 106.893 179.588Z" fill="#347683"/>
<path d="M148.874 161.428H123.189C122.753 161.427 122.335 161.253 122.026 160.944C121.717 160.635 121.543 160.217 121.542 159.781C121.543 159.345 121.717 158.926 122.026 158.618C122.335 158.309 122.753 158.135 123.189 158.134H148.874C149.311 158.134 149.73 158.307 150.039 158.616C150.348 158.925 150.522 159.344 150.522 159.781C150.522 160.218 150.348 160.637 150.039 160.946C149.73 161.255 149.311 161.428 148.874 161.428Z" fill="#347683"/>
<path d="M148.874 169.064H123.189C122.753 169.063 122.335 168.888 122.026 168.58C121.717 168.271 121.543 167.853 121.542 167.417C121.543 166.98 121.717 166.562 122.026 166.254C122.335 165.945 122.753 165.771 123.189 165.769H148.874C149.311 165.769 149.73 165.943 150.039 166.252C150.348 166.561 150.522 166.98 150.522 167.417C150.522 167.854 150.348 168.273 150.039 168.582C149.73 168.891 149.311 169.064 148.874 169.064Z" fill="#347683"/>
<path d="M148.874 173.405H123.189C122.279 173.405 121.542 174.143 121.542 175.053C121.542 175.963 122.279 176.7 123.189 176.7H148.874C149.784 176.7 150.522 175.963 150.522 175.053C150.522 174.143 149.784 173.405 148.874 173.405Z" fill="#347683"/>
<path d="M146.253 187.985H94.5817C91.3209 187.985 88.6775 190.629 88.6775 193.89V201.231C88.6775 204.492 91.3209 207.135 94.5817 207.135H146.253C149.514 207.135 152.157 204.492 152.157 201.231V193.89C152.157 190.629 149.514 187.985 146.253 187.985Z" fill="#E0E0E0"/>
<path d="M165.725 140.224L160.53 73.6162C160.32 70.9214 157.965 68.9073 155.27 69.1175L97.6174 73.6143C94.9227 73.8245 92.9085 76.1795 93.1187 78.8742L98.3141 145.482C98.5243 148.177 100.879 150.191 103.574 149.981L161.227 145.484C163.921 145.274 165.936 142.919 165.725 140.224Z" fill="white"/>
<path d="M103.18 150.311C101.87 150.309 100.61 149.812 99.6514 148.92C98.6927 148.028 98.1061 146.807 98.0091 145.501L92.8144 78.8894C92.7098 77.517 93.1535 76.159 94.0484 75.1132C94.9432 74.0673 96.2161 73.4188 97.5882 73.3098L155.248 68.8125C156.62 68.708 157.978 69.1517 159.024 70.0466C160.07 70.9414 160.718 72.2143 160.827 73.5864L166.022 140.198C166.128 141.572 165.685 142.931 164.79 143.978C163.895 145.026 162.621 145.675 161.248 145.784L103.589 150.275C103.45 150.311 103.318 150.311 103.18 150.311ZM98.6104 145.501C98.7086 146.712 99.2825 147.835 100.206 148.624C101.13 149.412 102.329 149.803 103.541 149.71L161.2 145.213C162.411 145.113 163.534 144.538 164.323 143.613C165.111 142.688 165.502 141.488 165.409 140.277L160.214 73.6646C160.116 72.4526 159.541 71.3289 158.616 70.54C157.69 69.751 156.49 69.3612 155.278 69.4559L97.6243 73.9532C96.4129 74.0529 95.2902 74.6281 94.5016 75.553C93.713 76.478 93.3225 77.6775 93.4156 78.8894L98.6104 145.501Z" fill="#347683"/>
<path d="M163.219 139.044L162.067 124.28C161.901 122.152 160.041 120.561 157.912 120.727L103.005 125.009C100.876 125.175 99.2853 127.036 99.4513 129.164L100.603 143.928C100.769 146.057 102.629 147.648 104.758 147.482L159.665 143.199C161.794 143.033 163.385 141.173 163.219 139.044Z" fill="#347683"/>
<path opacity="0.2" d="M130.648 116.659L127.603 77.6125C127.435 75.4574 125.551 73.8465 123.396 74.0146L99.2273 75.8998C97.0721 76.0679 95.4613 77.9513 95.6294 80.1064L98.675 119.153C98.8431 121.308 100.726 122.919 102.882 122.751L127.05 120.866C129.206 120.698 130.816 118.814 130.648 116.659Z" fill="#347683"/>
<path opacity="0.2" d="M158.498 81.0948L157.981 74.4711C157.846 72.7397 156.333 71.4456 154.602 71.5806L133.892 73.196C132.16 73.3311 130.866 74.8441 131.001 76.5755L131.518 83.1992C131.653 84.9306 133.166 86.2247 134.897 86.0896L155.608 84.4743C157.339 84.3392 158.633 82.8262 158.498 81.0948Z" fill="#347683"/>
<path opacity="0.4" d="M159.819 98.0735L159.302 91.4498C159.167 89.7184 157.654 88.4243 155.923 88.5593L135.213 90.1747C133.481 90.3098 132.187 91.8228 132.322 93.5542L132.839 100.178C132.974 101.909 134.487 103.203 136.218 103.068L156.928 101.453C158.66 101.318 159.954 99.8049 159.819 98.0735Z" fill="#347683"/>
<path opacity="0.6" d="M161.145 115.052L160.629 108.429C160.494 106.697 158.981 105.403 157.249 105.538L136.539 107.154C134.808 107.289 133.514 108.802 133.649 110.533L134.165 117.157C134.3 118.888 135.813 120.182 137.545 120.047L158.255 118.432C159.986 118.297 161.28 116.784 161.145 115.052Z" fill="#347683"/>
<path d="M136.032 61.1106C135.951 61.1106 135.873 61.0783 135.816 61.0208C135.758 60.9633 135.726 60.8853 135.726 60.804V20.8693C135.717 20.8248 135.718 20.7788 135.729 20.7348C135.74 20.6907 135.76 20.6497 135.789 20.6145C135.818 20.5794 135.854 20.5511 135.895 20.5317C135.936 20.5123 135.981 20.5022 136.026 20.5022C136.072 20.5022 136.117 20.5123 136.158 20.5317C136.199 20.5511 136.235 20.5794 136.264 20.6145C136.292 20.6497 136.313 20.6907 136.324 20.7348C136.335 20.7788 136.336 20.8248 136.327 20.8693V60.804C136.327 60.8833 136.296 60.9595 136.241 61.0167C136.187 61.0738 136.112 61.1075 136.032 61.1106Z" fill="#263238"/>
<path d="M139.85 67.3396H132.214C131.91 67.3392 131.614 67.2408 131.37 67.0588C131.126 66.8768 130.948 66.621 130.861 66.3295L129.22 60.7499C129.159 60.5399 129.148 60.3188 129.188 60.1039C129.227 59.889 129.316 59.6861 129.447 59.5113C129.578 59.3365 129.748 59.1945 129.943 59.0965C130.139 58.9984 130.354 58.9469 130.572 58.9462H141.491C141.71 58.9469 141.925 58.9984 142.12 59.0965C142.315 59.1945 142.485 59.3365 142.616 59.5113C142.748 59.6861 142.836 59.889 142.876 60.1039C142.915 60.3188 142.904 60.5399 142.844 60.7499L141.202 66.3295C141.117 66.6215 140.938 66.8779 140.694 67.06C140.451 67.2421 140.154 67.3402 139.85 67.3396Z" fill="#263238"/>
<path d="M136.032 75.9855C135.85 75.9855 135.676 75.9132 135.547 75.7847C135.419 75.6562 135.347 75.4818 135.347 75.3C135.347 75.1183 135.419 74.9439 135.547 74.8154C135.676 74.6868 135.85 74.6146 136.032 74.6146C136.67 74.6146 137.282 74.3612 137.733 73.9102C138.184 73.4592 138.437 72.8475 138.437 72.2096C138.437 71.5718 138.184 70.9601 137.733 70.5091C137.282 70.058 136.67 69.8047 136.032 69.8047C135.85 69.8047 135.676 69.7324 135.547 69.6039C135.419 69.4754 135.347 69.301 135.347 69.1192V67.3395C135.363 67.1681 135.442 67.0087 135.57 66.8928C135.697 66.7768 135.863 66.7125 136.035 66.7125C136.207 66.7125 136.373 66.7768 136.501 66.8928C136.628 67.0087 136.707 67.1681 136.724 67.3395V68.4879C137.646 68.6629 138.471 69.1755 139.036 69.9257C139.601 70.6759 139.866 71.6097 139.78 72.5449C139.693 73.4801 139.262 74.3496 138.569 74.9836C137.876 75.6175 136.971 75.9704 136.032 75.9734V75.9855Z" fill="#263238"/>
<path d="M204.339 186.697C185.309 186.667 178.578 180.405 176.297 161.15C178.648 151.028 182.853 148.784 185.402 147.038C184.539 137.661 186.199 137.664 186.199 137.664C194.354 151.303 197.922 139.678 206.852 153.068C212.63 142.451 222.242 148.467 227.246 137.728C227.246 137.728 229.01 140.102 227.889 146.48C232.861 149.488 234.294 153.241 236.709 161.245C235.45 178.995 225.025 188.104 204.339 186.697Z" fill="#6DDBE8"/>
<path d="M206.741 153.066C203.582 148.148 200.12 145.805 194.59 145.046C200.15 144.045 204.43 147.939 206.753 148.317C209.075 148.695 213.07 143.452 218.709 145.084C213.286 145.951 209.329 149.096 206.741 153.066Z" fill="#48929A"/>
<path d="M189.638 180.793C198.031 187.057 209.815 190.071 228.14 180.854C233.068 202.238 220.99 210.22 205.943 210.196C190.896 210.173 175.327 196.897 189.638 180.793Z" fill="#6DDBE8"/>
<path d="M216.56 212.088C217.445 211.84 218.337 209.091 217.567 207.214C216.812 206.422 216.02 206.462 214.912 207.21C214.903 210.836 215.674 212.337 216.56 212.088Z" fill="#F99224"/>
<path d="M213.717 212.412C214.603 212.163 215.495 209.414 214.725 207.538C213.969 206.746 213.177 206.786 212.069 207.534C212.061 211.159 212.832 212.66 213.717 212.412Z" fill="#F99224"/>
<path d="M210.805 212.829C211.668 212.603 212.605 209.695 211.854 207.983C211.118 207.26 210.347 207.296 209.267 207.979C209.038 211.201 209.942 213.056 210.805 212.829Z" fill="#F99224"/>
<path d="M196.576 212.155C195.714 211.903 194.858 209.141 195.617 207.26C196.357 206.467 197.128 206.51 198.204 207.264C198.196 210.903 197.438 212.407 196.576 212.155Z" fill="#F7921E"/>
<path d="M199.452 212.41C198.59 212.157 197.735 209.395 198.494 207.514C199.233 206.722 200.005 206.764 201.081 207.519C201.072 211.158 200.314 212.662 199.452 212.41Z" fill="#F7921E"/>
<path d="M202.374 212.922C201.519 212.688 200.602 209.72 201.355 207.977C202.089 207.242 202.855 207.281 203.923 207.981C204.135 211.268 203.229 213.156 202.374 212.922Z" fill="#F7921E"/>
<path d="M168.359 167.349C175.412 178.748 181.044 179.585 191.738 183.26C191.688 204.655 169.669 189.437 166.956 185.292C164.243 181.146 175.116 188.755 173.491 185.302C170.228 183.226 163.722 171.138 166.98 174.939C170.239 178.74 173.504 179.78 173.504 179.78C171.495 174.926 164.554 164.582 168.359 167.349Z" fill="#48929A"/>
<path d="M232.391 202.273C236.974 189.517 230.713 178.477 227.36 181.025C221.146 186.434 230.895 193.107 220.077 204.076C223.099 203.54 225.204 202.178 226.992 198.821C226.992 198.821 227.21 201.746 225.115 203.338C223.019 204.931 227.638 204.512 229.512 198.966C232.511 195.313 225.626 210.849 232.391 202.273Z" fill="#48929A"/>
<ellipse cx="12.3916" cy="14.0011" rx="12.3916" ry="14.0011" transform="matrix(-0.999999 -0.00157418 -0.00235806 0.999997 231.206 148.985)" fill="white"/>
<ellipse cx="12.3916" cy="14.0011" rx="12.3916" ry="14.0011" transform="matrix(-0.999999 -0.00157418 -0.00235806 0.999997 206.645 148.947)" fill="#FEFFFF"/>
<ellipse cx="8.85111" cy="10.0008" rx="8.85111" ry="10.0008" transform="matrix(-0.999999 -0.00157418 -0.00235806 0.999997 203.095 152.941)" fill="#120C0E"/>
<ellipse cx="3.31917" cy="3.7503" rx="3.31917" ry="3.7503" transform="matrix(-0.999999 -0.00157418 -0.00235806 0.999997 193.354 154.676)" fill="#FEFFFF"/>
<ellipse cx="8.85111" cy="10.0008" rx="8.85111" ry="10.0008" transform="matrix(-0.999999 -0.00157418 -0.00235806 0.999997 227.435 152.979)" fill="#120C0E"/>
<ellipse cx="3.31917" cy="3.7503" rx="3.31917" ry="3.7503" transform="matrix(-0.999999 -0.00157418 -0.00235806 0.999997 217.252 154.714)" fill="#FEFFFF"/>
<path d="M217.652 191.755L219.877 185.469L213.82 186.56L217.652 191.755Z" fill="#48929A"/>
<path d="M207.374 192.549L210.489 187.314L204.405 187.215L207.374 192.549Z" fill="#48929A"/>
<path d="M210.898 199.305L214.013 194.07L207.93 193.971L210.898 199.305Z" fill="#48929A"/>
<path d="M196.699 191.339L200.997 187.312L195.189 185.272L196.699 191.339Z" fill="#48929A"/>
<path d="M200.223 198.095L204.521 194.068L198.713 192.028L200.223 198.095Z" fill="#48929A"/>
<path d="M206.496 164.698C206.518 164.995 206.555 165.294 206.606 165.595C206.169 168.047 202.447 174.184 201.873 173.981L201.828 173.941C201.84 173.961 201.855 173.974 201.873 173.981L206.134 177.698L211.23 173.958C211.23 173.957 211.231 173.957 211.232 173.956L211.23 173.958C210.804 174.256 207.325 169.839 206.606 165.595C206.682 165.164 206.657 164.847 206.496 164.698Z" fill="#F6931E"/>
<path d="M193.816 145.264V140.137L207.536 142.999L221.11 140.137V145.264L208.995 148.604L193.816 145.264Z" fill="#0F0B0C"/>
<path d="M207.39 144.668L180.826 137.751L207.39 130L233.954 137.751L207.39 144.668Z" fill="#0F0B0C"/>
<path d="M225.78 150.869C223.737 150.392 227.094 144.072 226.072 138.348L227.532 137.99C227.24 143.953 229.867 150.035 228.261 150.869H225.78Z" fill="#0F0B0C"/>
<ellipse cx="226.948" cy="141.687" rx="1.75147" ry="1.43104" fill="#0F0B0C"/>
</svg>
