<svg width="381" height="283" viewBox="0 0 381 283" fill="none" xmlns="http://www.w3.org/2000/svg">
<path d="M342.254 261.304H317.058V261.494H342.254V261.304Z" fill="#EBEBEB"/>
<path d="M251.97 263.373H245.359V263.563H251.97V263.373Z" fill="#EBEBEB"/>
<path d="M316.297 254.244H301.699V254.435H316.297V254.244Z" fill="#EBEBEB"/>
<path d="M72.764 255.522H39.908V255.713H72.764V255.522Z" fill="#EBEBEB"/>
<path d="M84.3577 255.522H79.5422V255.713H84.3577V255.522Z" fill="#EBEBEB"/>
<path d="M171.279 258.733H100.013V258.923H171.279V258.733Z" fill="#EBEBEB"/>
<path d="M181.359 215.135H34.4612C33.3092 215.135 32.2043 214.677 31.3897 213.863C30.5751 213.048 30.1174 211.943 30.1174 210.791V4.30574C30.1275 3.16031 30.5895 2.0652 31.4031 1.25879C32.2166 0.452379 33.3157 -4.3914e-05 34.4612 3.19701e-09H181.359C181.929 3.19702e-09 182.494 0.112354 183.021 0.33065C183.548 0.548945 184.027 0.868907 184.43 1.27226C184.833 1.67562 185.153 2.15448 185.372 2.68149C185.59 3.2085 185.702 3.77335 185.702 4.34378V210.791C185.702 211.362 185.59 211.927 185.372 212.454C185.153 212.981 184.833 213.459 184.43 213.863C184.027 214.266 183.548 214.586 183.021 214.804C182.494 215.023 181.929 215.135 181.359 215.135ZM34.4612 0.152147C33.3602 0.154158 32.3049 0.592413 31.5264 1.37093C30.7479 2.14944 30.3096 3.20476 30.3076 4.30574V210.791C30.3096 211.892 30.7479 212.948 31.5264 213.726C32.3049 214.505 33.3602 214.943 34.4612 214.945H181.359C182.46 214.943 183.515 214.505 184.293 213.726C185.072 212.948 185.51 211.892 185.512 210.791V4.30574C185.51 3.20476 185.072 2.14944 184.293 1.37093C183.515 0.592413 182.46 0.154158 181.359 0.152147H34.4612Z" fill="#EBEBEB"/>
<path d="M345.905 215.135H199.008C197.856 215.135 196.751 214.677 195.936 213.863C195.121 213.048 194.664 211.943 194.664 210.791V4.30574C194.674 3.16031 195.136 2.0652 195.949 1.25879C196.763 0.452379 197.862 -4.3914e-05 199.008 3.19701e-09H345.905C347.057 3.19702e-09 348.162 0.457647 348.977 1.27226C349.791 2.08688 350.249 3.19174 350.249 4.34378V210.791C350.249 211.943 349.791 213.048 348.977 213.863C348.162 214.677 347.057 215.135 345.905 215.135ZM199.008 0.152147C197.907 0.154158 196.851 0.592413 196.073 1.37093C195.294 2.14944 194.856 3.20476 194.854 4.30574V210.791C194.856 211.892 195.294 212.948 196.073 213.726C196.851 214.505 197.907 214.943 199.008 214.945H345.905C347.006 214.943 348.061 214.505 348.84 213.726C349.618 212.948 350.057 211.892 350.059 210.791V4.30574C350.057 3.20476 349.618 2.14944 348.84 1.37093C348.061 0.592413 347.006 0.154158 345.905 0.152147H199.008Z" fill="#EBEBEB"/>
<path d="M380.366 249.064H0V249.254H380.366V249.064Z" fill="#EBEBEB"/>
<path d="M101.832 45.5449C107.917 48.8693 120.279 46.3057 132.694 46.5415C150.001 46.8534 167.407 48.4053 168.099 41.8173C170.305 20.7831 150.731 36.5911 150.731 36.5911C150.731 36.5911 146.038 24.9443 136.985 22.8979C127.932 20.8516 124.661 33.6166 124.661 33.6166C124.661 33.6166 115.989 27.8199 111.653 28.535C107.316 29.25 106.168 36.7433 106.168 36.7433C106.168 36.7433 89.1273 38.6147 101.832 45.5449Z" fill="#F5F5F5"/>
<path d="M47.7665 48.8772C51.9353 51.1594 60.4099 49.9042 68.9225 50.0639C80.7899 50.2769 92.7182 50.8246 93.1974 46.3211C94.7189 31.8672 81.292 42.7381 81.292 42.7381C81.292 42.7381 78.0665 34.7504 71.8665 33.3658C65.6665 31.9813 63.4148 40.7145 63.4148 40.7145C63.4148 40.7145 57.4735 36.7435 54.499 37.2304C51.5245 37.7172 50.6953 42.8522 50.6953 42.8522C50.6953 42.8522 39.0561 44.1226 47.7665 48.8772Z" fill="#F5F5F5"/>
<path d="M288.261 43.4374C290.297 34.8095 284.954 26.1644 276.326 24.128C267.698 22.0917 259.053 27.4352 257.017 36.0631C254.98 44.691 260.324 53.3361 268.952 55.3725C277.579 57.4089 286.225 52.0653 288.261 43.4374Z" fill="#F0F0F0"/>
<path d="M273.962 12.9933C273.962 12.2665 273.373 11.6772 272.646 11.6772C271.92 11.6772 271.33 12.2665 271.33 12.9933V18.9194C271.33 19.6463 271.92 20.2355 272.646 20.2355C273.373 20.2355 273.962 19.6463 273.962 18.9194V12.9933Z" fill="#F0F0F0"/>
<path d="M273.962 60.5846C273.962 59.8578 273.373 59.2686 272.646 59.2686C271.92 59.2686 271.33 59.8578 271.33 60.5846V66.5107C271.33 67.2376 271.92 67.8268 272.646 67.8268C273.373 67.8268 273.962 67.2376 273.962 66.5107V60.5846Z" fill="#F0F0F0"/>
<path d="M299.401 38.4399H293.475C292.748 38.4399 292.159 39.0292 292.159 39.756C292.159 40.4829 292.748 41.0721 293.475 41.0721H299.401C300.128 41.0721 300.717 40.4829 300.717 39.756C300.717 39.0292 300.128 38.4399 299.401 38.4399Z" fill="#F0F0F0"/>
<path d="M251.81 38.4399H245.884C245.157 38.4399 244.568 39.0292 244.568 39.756C244.568 40.4829 245.157 41.0721 245.884 41.0721H251.81C252.537 41.0721 253.126 40.4829 253.126 39.756C253.126 39.0292 252.537 38.4399 251.81 38.4399Z" fill="#F0F0F0"/>
<path d="M256.983 25.9562L252.791 21.7645C252.546 21.5166 252.408 21.1817 252.408 20.8326C252.408 20.4836 252.546 20.1486 252.791 19.9007C253.039 19.655 253.374 19.5171 253.723 19.5171C254.072 19.5171 254.407 19.655 254.655 19.9007L258.847 24.0924C258.969 24.2146 259.067 24.3599 259.133 24.5198C259.199 24.6797 259.234 24.8511 259.234 25.0242C259.234 25.1974 259.199 25.3688 259.133 25.5287C259.067 25.6887 258.969 25.8339 258.847 25.9562C258.725 26.0787 258.579 26.176 258.419 26.2424C258.259 26.3088 258.088 26.3429 257.915 26.3429C257.742 26.3429 257.57 26.3088 257.41 26.2424C257.25 26.176 257.105 26.0787 256.983 25.9562Z" fill="#F0F0F0"/>
<path d="M290.638 59.6034L286.446 55.4118C286.324 55.2895 286.226 55.1443 286.16 54.9844C286.093 54.8245 286.059 54.653 286.059 54.4799C286.059 54.3068 286.093 54.1353 286.16 53.9754C286.226 53.8155 286.324 53.6703 286.446 53.548C286.693 53.3027 287.026 53.165 287.374 53.165C287.722 53.165 288.056 53.3027 288.302 53.548L292.494 57.7396C292.617 57.8619 292.714 58.0071 292.78 58.167C292.847 58.327 292.881 58.4984 292.881 58.6715C292.881 58.8447 292.847 59.0161 292.78 59.176C292.714 59.3359 292.617 59.4812 292.494 59.6034C292.373 59.7267 292.228 59.8247 292.069 59.8915C291.91 59.9583 291.739 59.9928 291.566 59.9928C291.393 59.9928 291.222 59.9583 291.063 59.8915C290.903 59.8247 290.759 59.7267 290.638 59.6034Z" fill="#F0F0F0"/>
<path d="M286.446 25.9562C286.324 25.834 286.226 25.6887 286.16 25.5288C286.093 25.3689 286.059 25.1975 286.059 25.0243C286.059 24.8512 286.093 24.6797 286.16 24.5198C286.226 24.3599 286.324 24.2147 286.446 24.0924L290.638 19.9008C290.884 19.6555 291.218 19.5178 291.566 19.5178C291.914 19.5178 292.247 19.6555 292.494 19.9008C292.617 20.0231 292.714 20.1683 292.78 20.3282C292.847 20.4881 292.881 20.6596 292.881 20.8327C292.881 21.0058 292.847 21.1773 292.78 21.3372C292.714 21.4971 292.617 21.6423 292.494 21.7646L288.317 25.9562C288.196 26.0818 288.051 26.1817 287.89 26.25C287.729 26.3182 287.556 26.3534 287.382 26.3534C287.207 26.3534 287.034 26.3182 286.874 26.25C286.713 26.1817 286.567 26.0818 286.446 25.9562Z" fill="#F0F0F0"/>
<path d="M252.791 59.6034C252.546 59.3555 252.408 59.0205 252.408 58.6715C252.408 58.3224 252.546 57.9875 252.791 57.7396L256.983 53.5479C257.231 53.3022 257.566 53.1643 257.915 53.1643C258.264 53.1643 258.599 53.3022 258.847 53.5479C258.969 53.6702 259.067 53.8154 259.133 53.9753C259.199 54.1353 259.234 54.3067 259.234 54.4798C259.234 54.653 259.199 54.8244 259.133 54.9843C259.067 55.1442 258.969 55.2895 258.847 55.4117L254.655 59.6034C254.533 59.726 254.388 59.8232 254.228 59.8896C254.068 59.956 253.896 59.9901 253.723 59.9901C253.55 59.9901 253.379 59.956 253.219 59.8896C253.059 59.8232 252.914 59.726 252.791 59.6034Z" fill="#F0F0F0"/>
<path d="M208.494 57.496C211.948 59.3827 218.962 58.3557 225.991 58.4774C235.804 58.66 245.686 59.1164 246.082 55.3812C247.329 43.4453 236.192 52.4143 236.192 52.4143C236.192 52.4143 233.53 45.8036 228.387 44.6549C223.244 43.5062 221.396 50.7407 221.396 50.7407C221.396 50.7407 216.474 47.4544 214.009 47.8576C211.544 48.2608 210.951 52.4904 210.951 52.4904C210.951 52.4904 201.282 53.5631 208.494 57.496Z" fill="#F5F5F5"/>
<path d="M302.376 57.6863C303.996 58.5763 307.298 58.0894 310.615 58.1503C315.225 58.234 319.873 58.447 320.055 56.6897C320.649 51.0755 315.422 55.2976 315.422 55.2976C315.422 55.2976 314.167 52.1862 311.756 51.646C309.344 51.1059 308.469 54.5064 308.469 54.5064C308.469 54.5064 306.149 52.9849 304.993 53.1523C303.836 53.3197 303.532 55.3432 303.532 55.3432C303.532 55.3432 298.968 55.8377 302.376 57.6863Z" fill="#F5F5F5"/>
<path d="M330.835 215.12C330.835 215.12 332.136 239.243 328.355 246.881C328.219 247.116 328.148 247.384 328.15 247.656C328.153 247.929 328.228 248.195 328.369 248.428C328.51 248.662 328.71 248.853 328.95 248.982C329.19 249.111 329.46 249.173 329.732 249.163H338.404C338.673 249.164 338.938 249.095 339.173 248.964C339.408 248.833 339.605 248.644 339.745 248.415C339.886 248.186 339.965 247.924 339.975 247.655C339.986 247.387 339.927 247.12 339.804 246.881C338.085 243.45 335.635 235.059 335.635 215.105L330.835 215.12Z" fill="#E0E0E0"/>
<path d="M331.436 229.597C326.575 229.155 315.833 223.191 323.638 211.696C323.638 211.696 318.039 198.985 328.035 193.195C328.035 193.195 319.439 182.804 330.637 173.896C330.637 173.896 327.64 162.797 333.84 162.196C340.04 161.595 338.64 183.215 338.64 183.215C338.64 183.215 351.436 196.535 339.834 205.968C339.834 205.968 355.399 219.038 341.242 227.535C339.089 228.828 333.961 229.825 331.436 229.597Z" fill="#F0F0F0"/>
<path d="M332.349 220.087C331.946 219.878 331.626 219.537 331.443 219.121C330.88 217.798 329.306 214.778 326.438 214.062C322.733 213.142 328.537 209.711 332.288 214.382C336.038 219.053 336.7 211.499 339.971 212.579C342.74 213.484 336.928 216.816 334.783 219.563C334.502 219.921 334.105 220.169 333.661 220.265C333.216 220.361 332.752 220.298 332.349 220.087Z" fill="#E0E0E0"/>
<path d="M332.638 200.909C332.424 200.8 332.255 200.62 332.159 200.4C331.862 199.7 331.025 198.118 329.504 197.714C327.533 197.22 330.614 195.432 332.607 197.882C334.6 200.331 334.95 196.36 336.692 196.923C338.161 197.402 335.065 199.205 333.939 200.636C333.788 200.826 333.575 200.957 333.338 201.007C333.1 201.057 332.853 201.022 332.638 200.909Z" fill="#E0E0E0"/>
<path d="M332.79 182.576C332.666 182.516 332.569 182.413 332.516 182.287C332.388 181.938 332.185 181.621 331.923 181.358C331.66 181.096 331.343 180.893 330.995 180.765C329.884 180.491 331.626 179.457 332.752 180.864C333.878 182.271 334.076 179.997 335.034 180.324C335.871 180.598 334.114 181.594 333.513 182.423C333.426 182.537 333.301 182.616 333.161 182.644C333.021 182.672 332.875 182.647 332.752 182.576H332.79Z" fill="#E0E0E0"/>
<path d="M43.0422 215.12C43.0422 215.12 44.343 239.243 40.5622 246.88C40.4258 247.116 40.3552 247.384 40.3577 247.656C40.3602 247.929 40.4357 248.195 40.5764 248.428C40.7171 248.661 40.9177 248.853 41.1574 248.982C41.3971 249.111 41.667 249.173 41.9391 249.163H50.6115C50.8804 249.164 51.145 249.095 51.3799 248.964C51.6148 248.833 51.812 248.644 51.9526 248.415C52.0932 248.186 52.1725 247.924 52.1827 247.655C52.193 247.387 52.1339 247.12 52.0112 246.88C50.292 243.434 47.8424 235.066 47.8424 215.12H43.0422Z" fill="#E0E0E0"/>
<path d="M43.6431 229.597C38.782 229.155 28.0405 223.191 35.8456 211.696C35.8456 211.696 30.2466 198.985 40.2427 193.195C40.2427 193.195 31.6464 182.804 42.8444 173.896C42.8444 173.896 39.8471 162.797 46.047 162.196C52.247 161.595 50.8473 183.215 50.8473 183.215C50.8473 183.215 63.6504 196.535 52.0492 205.968C52.0492 205.968 67.6062 219.038 53.449 227.535C51.2961 228.828 46.1383 229.825 43.6431 229.597Z" fill="#F0F0F0"/>
<path d="M44.5562 220.087C44.1479 219.87 43.8279 219.518 43.6509 219.091C43.0879 217.767 41.5132 214.747 38.6453 214.032C34.9405 213.111 40.7449 209.681 44.4953 214.351C48.2457 219.022 48.9075 211.468 52.1787 212.549C54.9478 213.454 49.1358 216.786 46.9905 219.532C46.7099 219.89 46.3128 220.139 45.8682 220.234C45.4235 220.33 44.9594 220.268 44.5562 220.057V220.087Z" fill="#E0E0E0"/>
<path d="M44.8832 200.909C44.6694 200.8 44.5001 200.62 44.4039 200.4C44.1072 199.7 43.2704 198.118 41.7489 197.714C39.7786 197.22 42.8596 195.432 44.8527 197.882C46.8458 200.331 47.1958 196.36 48.9379 196.923C50.4061 197.402 47.3099 199.205 46.184 200.636C46.033 200.826 45.8204 200.957 45.5829 201.007C45.3454 201.057 45.098 201.022 44.8832 200.909Z" fill="#E0E0E0"/>
<path d="M44.9975 182.576C44.874 182.516 44.7766 182.413 44.7236 182.287C44.5954 181.938 44.3929 181.621 44.1302 181.358C43.8675 181.096 43.5508 180.893 43.2021 180.765C42.0915 180.491 43.8336 179.457 44.9594 180.864C46.0853 182.271 46.2831 179.997 47.2416 180.324C48.0784 180.598 46.3211 181.594 45.7202 182.423C45.6337 182.537 45.5087 182.616 45.3686 182.644C45.2285 182.672 45.083 182.647 44.9594 182.576H44.9975Z" fill="#E0E0E0"/>
<path d="M190.183 283C271.644 283 337.681 279.145 337.681 274.389C337.681 269.633 271.644 265.777 190.183 265.777C108.722 265.777 42.6846 269.633 42.6846 274.389C42.6846 279.145 108.722 283 190.183 283Z" fill="#F5F5F5"/>
<path d="M213.135 98.3096V186.524V196.954V249.087H326.841V196.954V186.524V98.3096H213.135Z" fill="#347683"/>
<path d="M53.4417 189.765V196.954V249.087H167.156V196.954V189.765V98.3096H53.4417V189.765Z" fill="#347683"/>
<g opacity="0.8">
<path d="M213.135 98.3096V186.524V196.954V249.087H326.841V196.954V186.524V98.3096H213.135Z" fill="white"/>
<path d="M53.4417 189.765V196.954V249.087H167.156V196.954V189.765V98.3096H53.4417V189.765Z" fill="white"/>
</g>
<path d="M190.312 101.056H331.436L310.379 77.8762H190.312V101.056Z" fill="#347683"/>
<path opacity="0.3" d="M298.313 169.643C298.313 167.136 299.31 164.73 301.083 162.957C302.856 161.184 305.262 160.188 307.769 160.188C310.277 160.188 312.682 161.184 314.456 162.957C316.229 164.73 317.225 167.136 317.225 169.643V193.325H298.313V169.643Z" fill="black"/>
<path opacity="0.3" d="M265.1 169.643C265.064 168.382 265.282 167.125 265.74 165.949C266.198 164.773 266.887 163.701 267.767 162.795C268.647 161.89 269.699 161.171 270.862 160.679C272.025 160.188 273.275 159.935 274.537 159.935C275.799 159.935 277.049 160.188 278.211 160.679C279.374 161.171 280.427 161.89 281.307 162.795C282.186 163.701 282.876 164.773 283.334 165.949C283.792 167.125 284.01 168.382 283.974 169.643V193.325H265.1V169.643Z" fill="black"/>
<path opacity="0.3" d="M231.879 169.643C231.843 168.382 232.061 167.125 232.519 165.949C232.977 164.773 233.666 163.701 234.546 162.795C235.426 161.89 236.478 161.171 237.641 160.679C238.804 160.188 240.053 159.935 241.316 159.935C242.578 159.935 243.828 160.188 244.99 160.679C246.153 161.171 247.206 161.89 248.085 162.795C248.965 163.701 249.655 164.773 250.113 165.949C250.571 167.125 250.788 168.382 250.753 169.643V193.325H231.879V169.643Z" fill="black"/>
<path opacity="0.3" d="M298.313 119.1C298.313 116.597 299.308 114.195 301.079 112.425C302.849 110.654 305.25 109.66 307.754 109.66C310.258 109.66 312.659 110.654 314.43 112.425C316.2 114.195 317.195 116.597 317.195 119.1V142.774H298.313V119.1Z" fill="black"/>
<path opacity="0.3" d="M265.1 119.1C265.064 117.838 265.282 116.582 265.74 115.406C266.198 114.23 266.887 113.157 267.767 112.252C268.647 111.347 269.699 110.627 270.862 110.136C272.025 109.645 273.275 109.392 274.537 109.392C275.799 109.392 277.049 109.645 278.211 110.136C279.374 110.627 280.427 111.347 281.307 112.252C282.186 113.157 282.876 114.23 283.334 115.406C283.792 116.582 284.01 117.838 283.974 119.1V142.774H265.1V119.1Z" fill="black"/>
<path opacity="0.3" d="M231.879 119.1C231.843 117.838 232.061 116.582 232.519 115.406C232.977 114.23 233.666 113.157 234.546 112.252C235.426 111.347 236.478 110.627 237.641 110.136C238.804 109.645 240.053 109.392 241.316 109.392C242.578 109.392 243.828 109.645 244.99 110.136C246.153 110.627 247.206 111.347 248.085 112.252C248.965 113.157 249.655 114.23 250.113 115.406C250.571 116.582 250.788 117.838 250.753 119.1V142.774H231.879V119.1Z" fill="black"/>
<path d="M190.137 101.056H48.8467L69.9037 77.8762H190.137V101.056Z" fill="#347683"/>
<path opacity="0.3" d="M81.969 169.643C81.969 168.404 81.7248 167.176 81.2504 166.031C80.776 164.885 80.0806 163.844 79.2039 162.968C78.3273 162.091 77.2865 161.396 76.1411 160.921C74.9957 160.447 73.7681 160.203 72.5283 160.203C71.2886 160.203 70.0609 160.447 68.9155 160.921C67.7701 161.396 66.7294 162.091 65.8528 162.968C64.9761 163.844 64.2807 164.885 63.8063 166.031C63.3318 167.176 63.0876 168.404 63.0876 169.643V193.325H81.969V169.643Z" fill="black"/>
<path opacity="0.3" d="M115.183 169.643C115.218 168.382 115.001 167.125 114.543 165.949C114.084 164.773 113.395 163.701 112.515 162.795C111.635 161.89 110.583 161.171 109.42 160.679C108.257 160.188 107.008 159.935 105.746 159.935C104.483 159.935 103.234 160.188 102.071 160.679C100.908 161.171 99.8558 161.89 98.976 162.795C98.0961 163.701 97.4068 164.773 96.9486 165.949C96.4905 167.125 96.2729 168.382 96.3087 169.643V193.325H115.183V169.643Z" fill="black"/>
<path opacity="0.3" d="M148.404 169.643C148.44 168.382 148.222 167.125 147.764 165.949C147.306 164.773 146.616 163.701 145.736 162.795C144.857 161.89 143.804 161.171 142.641 160.679C141.479 160.188 140.229 159.935 138.967 159.935C137.704 159.935 136.455 160.188 135.292 160.679C134.129 161.171 133.077 161.89 132.197 162.795C131.317 163.701 130.628 164.773 130.17 165.949C129.712 167.125 129.494 168.382 129.53 169.643V193.325H148.404V169.643Z" fill="black"/>
<path opacity="0.3" d="M81.969 119.1C81.969 117.861 81.7248 116.633 81.2504 115.488C80.776 114.342 80.0806 113.301 79.2039 112.425C78.3273 111.548 77.2865 110.853 76.1411 110.378C74.9957 109.904 73.7681 109.66 72.5283 109.66C71.2886 109.66 70.0609 109.904 68.9155 110.378C67.7701 110.853 66.7294 111.548 65.8528 112.425C64.9761 113.301 64.2807 114.342 63.8063 115.488C63.3318 116.633 63.0876 117.861 63.0876 119.1V142.774H81.969V119.1Z" fill="black"/>
<path opacity="0.3" d="M115.183 119.1C115.218 117.838 115.001 116.582 114.543 115.406C114.084 114.23 113.395 113.157 112.515 112.252C111.635 111.347 110.583 110.627 109.42 110.136C108.257 109.645 107.008 109.392 105.746 109.392C104.483 109.392 103.234 109.645 102.071 110.136C100.908 110.627 99.8558 111.347 98.976 112.252C98.0961 113.157 97.4068 114.23 96.9486 115.406C96.4905 116.582 96.2729 117.838 96.3087 119.1V142.774H115.183V119.1Z" fill="black"/>
<path opacity="0.3" d="M148.404 119.1C148.44 117.838 148.222 116.582 147.764 115.406C147.306 114.23 146.616 113.157 145.736 112.252C144.857 111.347 143.804 110.627 142.641 110.136C141.479 109.645 140.229 109.392 138.967 109.392C137.704 109.392 136.455 109.645 135.292 110.136C134.129 110.627 133.077 111.347 132.197 112.252C131.317 113.157 130.628 114.23 130.17 115.406C129.712 116.582 129.494 117.838 129.53 119.1V142.774H148.404V119.1Z" fill="black"/>
<path d="M217.638 202.005H331.436V196.566H217.638V202.005Z" fill="#263238"/>
<path opacity="0.5" d="M217.638 202.005H331.436V196.566H217.638V202.005Z" fill="white"/>
<path d="M162.645 196.566H48.8467V202.005H162.645V196.566Z" fill="#263238"/>
<path opacity="0.5" d="M162.645 196.566H48.8467V202.005H162.645V196.566Z" fill="white"/>
<path d="M217.638 151.827H331.436V146.388H217.638V151.827Z" fill="#263238"/>
<g opacity="0.5">
<path d="M217.638 151.827H331.436V146.388H217.638V151.827Z" fill="white"/>
</g>
<path d="M162.645 146.388H48.8467V151.827H162.645V146.388Z" fill="#263238"/>
<path opacity="0.5" d="M162.645 146.388H48.8467V151.827H162.645V146.388Z" fill="white"/>
<path d="M190.312 46.3667L154.9 70.0255V157.228V162.226V248.919H225.732V162.226V157.228V70.0255L190.312 46.3667Z" fill="#347683"/>
<path opacity="0.7" d="M190.312 46.3667L154.9 70.0255V157.228V162.226V248.919H225.732V162.226V157.228V70.0255L190.312 46.3667Z" fill="white"/>
<path d="M151.386 73.9509C150.813 73.0684 150.609 71.9961 150.818 70.9647C151.027 69.9333 151.632 69.0251 152.504 68.4356L190.335 43.1641L228.151 68.466C229.022 69.0568 229.626 69.9649 229.835 70.9957C230.044 72.0265 229.841 73.0982 229.27 73.9813C228.991 74.4157 228.629 74.7904 228.205 75.0834C227.78 75.3765 227.302 75.5822 226.797 75.6884C226.292 75.7946 225.771 75.7992 225.264 75.7021C224.758 75.6049 224.275 75.4079 223.846 75.1224L190.313 52.7189L156.779 75.1224C156.349 75.4027 155.868 75.5948 155.363 75.6876C154.858 75.7804 154.34 75.7721 153.838 75.6631C153.336 75.5542 152.861 75.3467 152.44 75.0528C152.019 74.7589 151.661 74.3843 151.386 73.9509Z" fill="#347683"/>
<path d="M228.79 159.815H151.835V165.254H228.79V159.815Z" fill="#347683"/>
<path opacity="0.3" d="M228.79 159.815H151.835V165.254H228.79V159.815Z" fill="white"/>
<g opacity="0.3">
<path d="M188.585 215.485H174.063V229.346H188.585V215.485Z" fill="black"/>
<path d="M206.394 215.485H191.438V229.346H206.394V215.485Z" fill="black"/>
<path d="M191.438 212.587H206.394V208.365C206.424 204.252 204.9 200.281 202.127 197.244C199.354 194.207 195.536 192.329 191.438 191.986V212.587Z" fill="black"/>
<path d="M188.585 232.244H174.063V248.912H188.585V232.244Z" fill="black"/>
<path d="M188.586 212.587V192.047C184.572 192.495 180.867 194.413 178.185 197.432C175.503 200.451 174.035 204.357 174.063 208.395V212.617L188.586 212.587Z" fill="black"/>
<path d="M206.394 232.244H191.438V248.912H206.394V232.244Z" fill="black"/>
</g>
<g opacity="0.3">
<path d="M188.715 130.253H175.958V142.424H188.715V130.253Z" fill="black"/>
<path d="M204.355 130.253H191.218V142.424H204.355V130.253Z" fill="black"/>
<path d="M191.218 127.704H204.355V123.999C204.382 120.387 203.043 116.897 200.607 114.228C198.171 111.56 194.818 109.909 191.218 109.606V127.704Z" fill="black"/>
<path d="M188.715 144.973H175.958V159.617H188.715V144.973Z" fill="black"/>
<path d="M188.715 127.704V109.637C185.19 110.032 181.935 111.718 179.58 114.37C177.224 117.022 175.933 120.452 175.957 124V127.704H188.715Z" fill="black"/>
<path d="M204.355 144.973H191.218V159.617H204.355V144.973Z" fill="black"/>
</g>
<path d="M190.229 97.9216C197.817 97.9216 203.968 91.6684 203.968 83.9546C203.968 76.2408 197.817 69.9875 190.229 69.9875C182.641 69.9875 176.49 76.2408 176.49 83.9546C176.49 91.6684 182.641 97.9216 190.229 97.9216Z" fill="#347683"/>
<path opacity="0.9" d="M190.229 95.3198C196.401 95.3198 201.404 90.2314 201.404 83.9545C201.404 77.6775 196.401 72.5891 190.229 72.5891C184.057 72.5891 179.054 77.6775 179.054 83.9545C179.054 90.2314 184.057 95.3198 190.229 95.3198Z" fill="white"/>
<path opacity="0.3" d="M298.313 222.134C298.313 219.626 299.31 217.221 301.083 215.448C302.856 213.674 305.262 212.678 307.769 212.678C310.277 212.678 312.682 213.674 314.456 215.448C316.229 217.221 317.225 219.626 317.225 222.134V245.808H298.313V222.134Z" fill="black"/>
<path opacity="0.3" d="M265.1 222.134C265.064 220.872 265.282 219.616 265.74 218.44C266.198 217.263 266.887 216.191 267.767 215.286C268.647 214.381 269.699 213.661 270.862 213.17C272.025 212.678 273.275 212.425 274.537 212.425C275.799 212.425 277.049 212.678 278.211 213.17C279.374 213.661 280.427 214.381 281.307 215.286C282.186 216.191 282.876 217.263 283.334 218.44C283.792 219.616 284.01 220.872 283.974 222.134V245.808H265.1V222.134Z" fill="black"/>
<path opacity="0.3" d="M231.879 222.134C231.843 220.872 232.061 219.616 232.519 218.44C232.977 217.263 233.666 216.191 234.546 215.286C235.426 214.381 236.478 213.661 237.641 213.17C238.804 212.678 240.053 212.425 241.316 212.425C242.578 212.425 243.828 212.678 244.99 213.17C246.153 213.661 247.206 214.381 248.085 215.286C248.965 216.191 249.655 217.263 250.113 218.44C250.571 219.616 250.788 220.872 250.753 222.134V245.808H231.879V222.134Z" fill="black"/>
<path opacity="0.3" d="M81.969 222.134C81.969 220.894 81.7248 219.666 81.2504 218.521C80.776 217.376 80.0806 216.335 79.2039 215.458C78.3273 214.582 77.2865 213.886 76.1411 213.412C74.9957 212.937 73.7681 212.693 72.5283 212.693C71.2886 212.693 70.0609 212.937 68.9155 213.412C67.7701 213.886 66.7294 214.582 65.8528 215.458C64.9761 216.335 64.2807 217.376 63.8063 218.521C63.3318 219.666 63.0876 220.894 63.0876 222.134V245.808H81.969V222.134Z" fill="black"/>
<path opacity="0.3" d="M115.183 222.134C115.218 220.872 115.001 219.616 114.543 218.44C114.084 217.263 113.395 216.191 112.515 215.286C111.635 214.381 110.583 213.661 109.42 213.17C108.257 212.678 107.008 212.425 105.746 212.425C104.483 212.425 103.234 212.678 102.071 213.17C100.908 213.661 99.8558 214.381 98.976 215.286C98.0961 216.191 97.4068 217.263 96.9486 218.44C96.4905 219.616 96.2729 220.872 96.3087 222.134V245.808H115.183V222.134Z" fill="black"/>
<path opacity="0.3" d="M148.404 222.134C148.44 220.872 148.222 219.616 147.764 218.44C147.306 217.263 146.616 216.191 145.736 215.286C144.857 214.381 143.804 213.661 142.641 213.17C141.479 212.678 140.229 212.425 138.967 212.425C137.704 212.425 136.455 212.678 135.292 213.17C134.129 213.661 133.077 214.381 132.197 215.286C131.317 216.191 130.628 217.263 130.17 218.44C129.712 219.616 129.494 220.872 129.53 222.134V245.808H148.404V222.134Z" fill="black"/>
<path d="M190.434 86.4498C190.596 86.4482 190.756 86.4134 190.904 86.3477C191.052 86.282 191.185 86.1867 191.294 86.0677C191.404 85.9487 191.488 85.8085 191.542 85.6557C191.596 85.503 191.617 85.3409 191.606 85.1794L191.028 76.1647C191.018 76.0133 190.952 75.8712 190.842 75.7668C190.731 75.6624 190.586 75.6034 190.434 75.6018C190.281 75.6015 190.134 75.6596 190.022 75.7642C189.911 75.8688 189.843 76.012 189.833 76.1647L189.255 85.1794C189.244 85.3415 189.266 85.5042 189.32 85.6575C189.374 85.8108 189.459 85.9513 189.569 86.0704C189.68 86.1895 189.814 86.2847 189.962 86.3499C190.111 86.4152 190.272 86.4492 190.434 86.4498Z" fill="#347683"/>
<path d="M191.682 85.2554C191.682 84.5631 191.309 84.023 190.86 84.0686L185.033 84.6544C184.828 84.6544 184.668 84.9359 184.668 85.2554C184.668 85.5749 184.828 85.8411 185.033 85.8639L190.86 86.4497C191.309 86.4954 191.682 85.9476 191.682 85.2554Z" fill="#347683"/>
<path d="M192.486 238.989C213.563 238.946 221.019 231.37 223.554 208.076C220.954 195.832 216.297 193.119 213.475 191.008C214.435 179.664 212.597 179.668 212.597 179.668C203.559 196.17 199.612 182.109 189.716 198.31C183.32 185.469 172.673 192.749 167.135 179.76C167.135 179.76 165.179 182.632 166.419 190.347C160.911 193.988 159.322 198.528 156.644 208.212C158.031 229.683 169.575 240.699 192.486 238.989Z" fill="#6DDBE8"/>
<path d="M189.839 198.307C193.34 192.356 197.175 189.521 203.3 188.601C197.143 187.392 192.401 192.104 189.828 192.562C187.256 193.02 182.833 186.679 176.587 188.656C182.593 189.702 186.974 193.505 189.839 198.307Z" fill="#48929A"/>
<path d="M208.771 231.842C199.472 239.422 186.42 243.072 166.127 231.929C160.66 257.8 174.035 267.451 190.7 267.417C207.365 267.383 224.614 251.318 208.771 231.842Z" fill="#6DDBE8"/>
<path d="M178.94 269.709C177.959 269.408 176.973 266.083 177.826 263.813C178.663 262.855 179.54 262.903 180.767 263.807C180.775 268.193 179.921 270.009 178.94 269.709Z" fill="#F99224"/>
<path d="M182.088 270.099C181.107 269.799 180.121 266.474 180.974 264.204C181.811 263.245 182.688 263.293 183.915 264.198C183.923 268.583 183.069 270.4 182.088 270.099Z" fill="#F99224"/>
<path d="M185.314 270.603C184.358 270.329 183.321 266.812 184.153 264.741C184.968 263.866 185.823 263.91 187.018 264.735C187.271 268.633 186.269 270.877 185.314 270.603Z" fill="#F99224"/>
<path d="M201.073 269.783C202.027 269.478 202.976 266.136 202.136 263.861C201.318 262.902 200.463 262.954 199.271 263.867C199.279 268.269 200.118 270.089 201.073 269.783Z" fill="#F7921E"/>
<path d="M197.887 270.091C198.841 269.786 199.79 266.445 198.95 264.169C198.132 263.211 197.277 263.262 196.085 264.175C196.093 268.577 196.932 270.397 197.887 270.091Z" fill="#F7921E"/>
<path d="M194.65 270.712C195.598 270.429 196.614 266.839 195.78 264.73C194.968 263.841 194.12 263.889 192.937 264.736C192.701 268.712 193.703 270.996 194.65 270.712Z" fill="#F7921E"/>
<path d="M161.41 257.841C156.339 242.412 163.279 229.055 166.991 232.136C173.871 238.677 163.071 246.752 175.048 260.018C171.701 259.37 169.371 257.724 167.392 253.663C167.392 253.663 167.149 257.202 169.469 259.127C171.789 261.053 166.674 260.548 164.601 253.84C161.28 249.422 168.9 268.213 161.41 257.841Z" fill="#48929A"/>
<path d="M218.354 259.09C224.52 246.417 215.814 232.898 211.881 233.375C204.635 235.025 216.99 249.353 204.477 253.958C208.137 255.493 210.622 255.459 212.589 252.975C212.589 252.975 213.047 256.393 210.588 256.691C208.13 256.989 213.75 259.782 215.68 254.916C219.11 252.956 212.462 264.379 218.354 259.09Z" fill="#48929A"/>
<ellipse cx="13.7242" cy="16.9371" rx="13.7242" ry="16.9371" transform="matrix(0.999998 -0.00203354 0.00183085 0.999998 162.744 193.379)" fill="white"/>
<ellipse cx="13.7242" cy="16.9371" rx="13.7242" ry="16.9371" transform="matrix(0.999998 -0.00203354 0.00183085 0.999998 189.948 193.323)" fill="#FEFFFF"/>
<ellipse cx="9.80303" cy="12.098" rx="9.80303" ry="12.098" transform="matrix(0.999998 -0.00203354 0.00183085 0.999998 193.878 198.155)" fill="#120C0E"/>
<ellipse cx="3.67614" cy="4.53674" rx="3.67614" ry="4.53674" transform="matrix(0.999998 -0.00203354 0.00183085 0.999998 204.666 200.25)" fill="#FEFFFF"/>
<ellipse cx="9.80303" cy="12.098" rx="9.80303" ry="12.098" transform="matrix(0.999998 -0.00203354 0.00183085 0.999998 166.919 198.209)" fill="#120C0E"/>
<ellipse cx="3.67614" cy="4.53674" rx="3.67614" ry="4.53674" transform="matrix(0.999998 -0.00203354 0.00183085 0.999998 178.197 200.304)" fill="#FEFFFF"/>
<path d="M177.738 245.112L175.277 237.509L181.985 238.827L177.738 245.112Z" fill="#48929A"/>
<path d="M189.122 246.07L185.674 239.738L192.412 239.616L189.122 246.07Z" fill="#48929A"/>
<path d="M185.216 254.243L181.768 247.911L188.506 247.789L185.216 254.243Z" fill="#48929A"/>
<path d="M200.945 244.602L196.187 239.732L202.62 237.262L200.945 244.602Z" fill="#48929A"/>
<path d="M197.039 252.776L192.281 247.906L198.714 245.436L197.039 252.776Z" fill="#48929A"/>
<path d="M190.105 212.378C190.081 212.737 190.04 213.099 189.984 213.463C190.466 216.429 194.586 223.852 195.222 223.606L195.272 223.558C195.259 223.582 195.242 223.598 195.222 223.606L190.501 228.104L184.859 223.581C184.858 223.581 184.857 223.58 184.856 223.579L184.859 223.581C185.33 223.942 189.185 218.598 189.984 213.463C189.899 212.942 189.927 212.558 190.105 212.378Z" fill="#F6931E"/>
<path d="M176.724 188.869V182.666L189.481 186.128L202.103 182.666V188.869L190.838 192.908L176.724 188.869Z" fill="#0F0B0C"/>
<path d="M189.346 188.148L164.646 179.781L189.346 170.404L214.046 179.781L189.346 188.148Z" fill="#0F0B0C"/>
<path d="M206.446 195.649C204.546 195.072 207.668 187.426 206.718 180.502L208.075 180.069C207.803 187.282 210.246 194.639 208.753 195.649H206.446Z" fill="#0F0B0C"/>
<ellipse cx="207.531" cy="184.541" rx="1.62858" ry="1.73111" fill="#0F0B0C"/>
</svg>
