<svg width="281" height="273" viewBox="0 0 281 273" fill="none" xmlns="http://www.w3.org/2000/svg">
<path d="M39.5608 222.702H16.2822V230.111H39.5608V222.702Z" fill="#EBEBEB"/>
<path d="M53.5437 136.295H30.2651V143.703H53.5437V136.295Z" fill="#EBEBEB"/>
<path d="M26.5772 239.479C22.6975 239.546 12.9186 239.711 9.17128 239.751H3.29867H3.00073V239.479V232.071V231.74H3.33177L14.9711 231.786C17.8643 231.786 23.7105 231.872 26.6103 231.912H26.7692V232.071L26.5772 239.479ZM26.5772 239.479L26.4183 232.071L26.5772 232.23C23.6707 232.269 17.8378 232.329 14.938 232.355L3.29867 232.402L3.6297 232.071V239.479L3.32515 239.175H9.09183C12.7796 239.221 22.7836 239.387 26.6037 239.453L26.5772 239.479Z" fill="#EBEBEB"/>
<path d="M158.284 108.229C154.404 108.296 144.625 108.461 140.878 108.501H135.005H134.701V108.196V100.788V100.457H135.032L146.671 100.503C149.565 100.503 155.411 100.589 158.311 100.629H158.469V100.788L158.317 108.196L158.284 108.229ZM158.284 108.229L158.119 100.821L158.277 100.973C155.371 101.019 149.538 101.079 146.638 101.106L134.999 101.152L135.33 100.821L135.297 108.229L134.999 107.925H140.766C144.453 107.971 154.457 108.137 158.277 108.203L158.284 108.229Z" fill="#EBEBEB"/>
<path d="M145.294 117.571C141.421 117.638 131.642 117.803 127.888 117.843H122.022H121.704V117.545V110.136V109.805H122.042L133.675 109.852C136.575 109.852 142.421 109.938 145.314 109.977H145.479V110.136L145.321 117.545L145.294 117.571ZM145.294 117.571L145.142 110.163L145.294 110.315C142.394 110.361 136.561 110.421 133.655 110.447L122.022 110.494L122.353 110.163V117.571L122.055 117.267H127.822C131.51 117.313 141.514 117.479 145.327 117.545L145.294 117.571Z" fill="#EBEBEB"/>
<path d="M132.364 100.821H109.085V108.229H132.364V100.821Z" fill="#EBEBEB"/>
<path d="M277.186 232.044H253.908V239.453H277.186V232.044Z" fill="#EBEBEB"/>
<path d="M264.203 3.264H240.924V10.6726H264.203V3.264Z" fill="#EBEBEB"/>
<path d="M277.186 20.0145C273.306 20.0807 263.527 20.2462 259.78 20.286H253.907H253.61V19.988L253.576 12.5794V12.2484H253.907L265.547 12.2947C268.447 12.2947 274.286 12.3808 277.186 12.4205H277.345V12.5794L277.186 19.988V20.0145ZM277.186 20.0145L277.027 12.6059L277.186 12.7582C274.28 12.8045 268.453 12.8641 265.547 12.8906L253.907 12.9369L254.238 12.6059V20.0145L253.934 19.71H259.701C263.395 19.7563 273.399 19.9218 277.213 19.988L277.186 20.0145Z" fill="#EBEBEB"/>
<path d="M39.5604 10.6726C35.6806 10.7388 25.9018 10.9044 22.1544 10.9441H16.2818H15.9839V10.6395V3.23091V2.89987H16.3149L27.9542 2.94622C30.8541 2.94622 36.6936 3.03229 39.5935 3.07201H39.7524V3.23091L39.5935 10.6395L39.5604 10.6726ZM39.5604 10.6726L39.4015 3.26402L39.5604 3.41629C36.6539 3.46264 30.821 3.52223 27.9211 3.54871L16.2818 3.59506L16.6129 3.26402V10.6726L16.2818 10.4012H22.0485C25.7363 10.4475 35.7402 10.6131 39.5604 10.6793V10.6726Z" fill="#EBEBEB"/>
<path d="M173.79 256.495C169.91 256.561 160.131 256.726 156.384 256.766H150.511H150.213V256.462V249.053V248.748H150.544L162.183 248.795C165.083 248.795 170.923 248.881 173.823 248.921H173.982V249.079L173.829 256.488L173.79 256.495ZM173.79 256.495L173.631 249.086L173.79 249.245C170.883 249.285 165.05 249.344 162.15 249.371L150.511 249.417L150.842 249.086V256.495L150.538 256.19H156.304C159.992 256.236 169.996 256.402 173.816 256.468L173.79 256.495Z" fill="#EBEBEB"/>
<path d="M47.0818 51.2579C46.4161 55.7419 44.4767 59.9405 41.4942 63.3544C38.5117 66.7684 34.6115 69.254 30.2575 70.5158C25.9034 71.7776 21.2786 71.7625 16.9328 70.4723C12.5871 69.1821 8.70321 66.6711 5.74305 63.2378C2.78288 59.8045 0.870905 55.5934 0.234452 51.1051C-0.402 46.6167 0.263839 42.0401 2.15281 37.9191C4.04178 33.7982 7.07441 30.3065 10.8901 27.859C14.7059 25.4115 19.1442 24.1112 23.6774 24.1128V47.782L47.0818 51.2579Z" fill="#EBEBEB"/>
<path d="M52.1865 42.9687C52.1879 44.13 52.1015 45.2897 51.9283 46.438L28.5239 42.9687V19.2995C31.6326 19.2969 34.7113 19.9074 37.5838 21.0961C40.4563 22.2847 43.0662 24.0282 45.2641 26.2267C47.4619 28.4251 49.2047 31.0355 50.3925 33.9083C51.5804 36.7812 52.19 39.86 52.1865 42.9687Z" fill="#DBDBDB"/>
<path d="M51.405 56.1904H26.2395V56.8524H51.405V56.1904Z" fill="#C7C7C7"/>
<path d="M53.1728 58.6135C52.7571 58.6148 52.3504 58.4927 52.0043 58.2626C51.6581 58.0325 51.3881 57.7047 51.2284 57.321C51.0687 56.9372 51.0266 56.5147 51.1074 56.1069C51.1882 55.6992 51.3882 55.3246 51.6821 55.0307C51.976 54.7368 52.3506 54.5367 52.7583 54.456C53.1661 54.3752 53.5886 54.4173 53.9724 54.577C54.3562 54.7367 54.6839 55.0067 54.914 55.3529C55.1441 55.699 55.2662 56.1057 55.2649 56.5214C55.2632 57.0757 55.0422 57.6068 54.6502 57.9988C54.2582 58.3908 53.7271 58.6118 53.1728 58.6135ZM53.1728 55.0847C52.8883 55.0833 52.6099 55.1665 52.3728 55.3236C52.1357 55.4806 51.9505 55.7045 51.8407 55.9669C51.731 56.2294 51.7016 56.5184 51.7563 56.7976C51.8109 57.0767 51.9472 57.3333 52.1479 57.5349C52.3486 57.7365 52.6046 57.874 52.8834 57.9299C53.1623 57.9859 53.4515 57.9579 53.7144 57.8493C53.9773 57.7408 54.2021 57.5566 54.3603 57.3202C54.5184 57.0838 54.6029 56.8058 54.6029 56.5214C54.6029 56.1415 54.4524 55.777 54.1844 55.5078C53.9164 55.2385 53.5527 55.0864 53.1728 55.0847Z" fill="#C7C7C7"/>
<path d="M79.1197 55.1972H59.5686V56.0778H79.1197V55.1972Z" fill="#C7C7C7"/>
<path d="M70.6319 56.9584H59.5686V57.8389H70.6319V56.9584Z" fill="#C7C7C7"/>
<path d="M129.08 141.307H122.836V185.732H129.08V141.307Z" fill="#EBEBEB"/>
<path d="M139.812 152.059H133.569V185.732H139.812V152.059Z" fill="#EBEBEB"/>
<path d="M150.538 168.895H144.294V185.732H150.538V168.895Z" fill="#EBEBEB"/>
<path d="M161.27 159.276H155.027V185.725H161.27V159.276Z" fill="#EBEBEB"/>
<path d="M172.002 149.179H165.759V185.732H172.002V149.179Z" fill="#EBEBEB"/>
<path d="M182.728 143.24H176.485V185.732H182.728V143.24Z" fill="#EBEBEB"/>
<path d="M119.215 135.653L119.288 148.173L119.321 160.692L119.374 185.732L119.215 185.573C124.953 185.573 130.691 185.573 136.429 185.573L153.643 185.613L170.857 185.646L188.071 185.739L170.857 185.831L153.643 185.864L136.429 185.898C130.691 185.898 124.953 185.898 119.215 185.898H119.056V185.745L119.109 160.706V148.186L119.215 135.653Z" fill="#EBEBEB"/>
<path d="M117.838 138.182C118.741 137.944 119.69 137.944 120.592 138.182C119.688 138.411 118.742 138.411 117.838 138.182Z" fill="#EBEBEB"/>
<path d="M117.838 141.969C118.742 141.739 119.688 141.739 120.592 141.969C120.145 142.096 119.68 142.157 119.215 142.148C118.75 142.153 118.286 142.093 117.838 141.969Z" fill="#EBEBEB"/>
<path d="M117.838 145.776C118.742 145.546 119.688 145.546 120.592 145.776C119.69 146.014 118.741 146.014 117.838 145.776Z" fill="#EBEBEB"/>
<path d="M117.838 149.583C118.741 149.344 119.69 149.344 120.592 149.583C119.69 149.821 118.741 149.821 117.838 149.583Z" fill="#EBEBEB"/>
<path d="M117.838 153.41C118.741 153.171 119.69 153.171 120.592 153.41C119.69 153.648 118.741 153.648 117.838 153.41Z" fill="#EBEBEB"/>
<path d="M117.838 157.197C118.741 156.958 119.69 156.958 120.592 157.197C119.688 157.426 118.742 157.426 117.838 157.197Z" fill="#EBEBEB"/>
<path d="M117.838 160.997C118.742 160.767 119.688 160.767 120.592 160.997C119.69 161.235 118.741 161.235 117.838 160.997Z" fill="#EBEBEB"/>
<path d="M117.838 164.804C118.742 164.574 119.688 164.574 120.592 164.804C119.69 165.042 118.741 165.042 117.838 164.804Z" fill="#EBEBEB"/>
<path d="M117.838 168.637C118.741 168.399 119.69 168.399 120.592 168.637C119.69 168.876 118.741 168.876 117.838 168.637Z" fill="#EBEBEB"/>
<path d="M117.838 172.418C118.741 172.179 119.69 172.179 120.592 172.418C119.69 172.656 118.741 172.656 117.838 172.418Z" fill="#EBEBEB"/>
<path d="M117.838 176.225C118.741 175.986 119.69 175.986 120.592 176.225C119.688 176.454 118.742 176.454 117.838 176.225Z" fill="#EBEBEB"/>
<path d="M117.838 180.032C118.286 179.907 118.75 179.847 119.215 179.853C119.68 179.844 120.145 179.904 120.592 180.032C119.688 180.261 118.742 180.261 117.838 180.032Z" fill="#EBEBEB"/>
<path d="M2.19312 271.756C90.6332 271.352 189.852 271.352 278.279 271.756C189.839 272.166 90.6199 272.159 2.19312 271.756Z" fill="#263238"/>
<path d="M270.009 0H161.488C160.033 0.0129804 158.595 0.312575 157.256 0.881665C155.916 1.45076 154.702 2.27819 153.683 3.31667C152.663 4.35516 151.859 5.58435 151.314 6.934C150.77 8.28364 150.497 9.7273 150.511 11.1825V234.52C150.487 237.458 151.629 240.286 153.687 242.382C155.745 244.479 158.551 245.673 161.488 245.703H270.009C272.949 245.675 275.757 244.482 277.818 242.385C279.878 240.288 281.023 237.46 281 234.52V11.1825C281.024 8.24237 279.881 5.41282 277.82 3.31587C275.759 1.21892 272.949 0.0262263 270.009 0ZM274.127 227.615C274.127 233.494 269.725 238.255 264.296 238.255H167.209C161.767 238.255 157.364 233.494 157.364 227.615V19.6703C157.364 7.69332 161.767 7.09083 167.209 7.09083H186.654C187.786 7.09083 188.706 8.37526 188.706 9.96424V10.6263C188.706 14.3538 190.752 14.367 193.255 14.367H238.23C240.759 14.367 242.785 14.367 242.785 10.6263V9.96424C242.785 8.37526 243.698 7.09083 244.844 7.09083H264.282C269.711 7.09083 274.114 8.68643 274.114 19.6703L274.127 227.615Z" fill="#263238"/>
<path d="M274.101 19.6703V227.615C274.101 233.494 269.698 238.255 264.269 238.255H167.209C161.767 238.255 157.364 233.494 157.364 227.615V19.6703C157.364 7.69334 161.767 7.09085 167.209 7.09085H186.654C187.786 7.09085 188.706 8.37527 188.706 9.96426V10.6263C188.706 14.3538 190.752 14.3671 193.255 14.3671H238.23C240.759 14.3671 242.785 14.3671 242.785 10.6263V9.96426C242.785 8.37527 243.698 7.09085 244.844 7.09085H264.282C269.698 7.09085 274.101 8.67983 274.101 19.6703Z" fill="white"/>
<path d="M183.277 11.7585C183.218 11.8181 183.151 11.8776 183.092 11.9439L182.986 12.0498C182.505 11.5699 181.854 11.3003 181.175 11.3003C180.496 11.3003 179.845 11.5699 179.364 12.0498L179.258 11.9439L179.073 11.7585L179.305 11.5532C179.676 11.2532 180.114 11.0486 180.583 10.9574C180.708 10.9574 180.828 10.9243 180.947 10.9044H181.291H181.543C181.769 10.9334 181.991 10.9889 182.205 11.0699C182.36 11.126 182.511 11.1946 182.655 11.2752C182.806 11.3652 182.95 11.467 183.085 11.5797L183.284 11.7585H183.277Z" fill="#C7C7C7"/>
<path d="M179.967 12.6389L179.669 12.3476C179.993 12.0178 180.416 11.8038 180.874 11.7385C181.203 11.6903 181.539 11.7196 181.855 11.8242C182.171 11.9288 182.459 12.1058 182.694 12.341L182.396 12.6389C182.074 12.3175 181.637 12.1371 181.182 12.1371C180.726 12.1371 180.289 12.3175 179.967 12.6389Z" fill="#C7C7C7"/>
<path d="M182.112 12.9369L181.814 13.2348C181.734 13.1515 181.637 13.0856 181.53 13.0412C181.423 12.9968 181.308 12.9748 181.192 12.9766C181.076 12.9752 180.961 12.9974 180.854 13.0417C180.747 13.0861 180.65 13.1518 180.569 13.2348L180.278 12.9369C180.525 12.7002 180.853 12.568 181.195 12.568C181.537 12.568 181.865 12.7002 182.112 12.9369Z" fill="#C7C7C7"/>
<path d="M181.463 13.4997C181.465 13.5537 181.45 13.6068 181.421 13.6523C181.392 13.6978 181.35 13.7336 181.3 13.7552C181.251 13.7767 181.196 13.7831 181.143 13.7733C181.09 13.7636 181.041 13.7383 181.002 13.7006C180.964 13.6629 180.937 13.6146 180.926 13.5618C180.915 13.5089 180.92 13.454 180.94 13.404C180.961 13.354 180.996 13.3113 181.04 13.2811C181.085 13.251 181.138 13.2349 181.192 13.2349C181.227 13.234 181.262 13.2402 181.295 13.2531C181.328 13.266 181.358 13.2854 181.383 13.3101C181.409 13.3347 181.429 13.3642 181.442 13.3968C181.456 13.4294 181.463 13.4644 181.463 13.4997Z" fill="#C7C7C7"/>
<path d="M164.978 12.3212C164.978 12.168 165.023 12.0183 165.108 11.8909C165.193 11.7635 165.314 11.6642 165.456 11.6056C165.597 11.547 165.753 11.5316 165.903 11.5615C166.054 11.5914 166.192 11.6652 166.3 11.7735C166.408 11.8818 166.482 12.0199 166.512 12.1701C166.542 12.3204 166.526 12.4761 166.468 12.6177C166.409 12.7592 166.31 12.8802 166.183 12.9653C166.055 13.0504 165.905 13.0959 165.752 13.0959C165.65 13.0959 165.55 13.0758 165.456 13.0369C165.362 12.998 165.276 12.9409 165.204 12.869C165.133 12.7971 165.075 12.7117 165.037 12.6177C164.998 12.5237 164.978 12.423 164.978 12.3212Z" fill="#C7C7C7"/>
<path d="M167.387 12.3212C167.387 12.168 167.433 12.0183 167.518 11.8909C167.603 11.7635 167.724 11.6642 167.866 11.6056C168.007 11.547 168.163 11.5316 168.313 11.5615C168.463 11.5914 168.601 11.6652 168.71 11.7735C168.818 11.8818 168.892 12.0199 168.922 12.1701C168.952 12.3204 168.936 12.4761 168.878 12.6177C168.819 12.7592 168.72 12.8802 168.592 12.9653C168.465 13.0504 168.315 13.0959 168.162 13.0959C168.06 13.0959 167.96 13.0758 167.866 13.0369C167.772 12.998 167.686 12.9409 167.614 12.869C167.542 12.7971 167.485 12.7117 167.446 12.6177C167.407 12.5237 167.387 12.423 167.387 12.3212Z" fill="#C7C7C7"/>
<path d="M169.85 12.3212C169.85 12.168 169.896 12.0183 169.981 11.8909C170.066 11.7635 170.187 11.6642 170.329 11.6056C170.47 11.547 170.626 11.5316 170.776 11.5615C170.926 11.5914 171.064 11.6652 171.173 11.7735C171.281 11.8818 171.355 12.0199 171.385 12.1701C171.415 12.3204 171.399 12.4761 171.341 12.6177C171.282 12.7592 171.183 12.8802 171.055 12.9653C170.928 13.0504 170.778 13.0959 170.625 13.0959C170.523 13.0959 170.423 13.0758 170.329 13.0369C170.235 12.998 170.149 12.9409 170.077 12.869C170.005 12.7971 169.948 12.7117 169.909 12.6177C169.87 12.5237 169.85 12.423 169.85 12.3212Z" fill="#C7C7C7"/>
<path d="M172.293 12.3212C172.293 12.1677 172.339 12.0177 172.425 11.8902C172.51 11.7626 172.631 11.6634 172.773 11.6049C172.915 11.5465 173.071 11.5316 173.222 11.562C173.372 11.5924 173.51 11.6669 173.618 11.7759C173.726 11.8849 173.8 12.0235 173.829 12.1742C173.858 12.3249 173.842 12.4808 173.782 12.6223C173.722 12.7637 173.622 12.8842 173.494 12.9685C173.365 13.0528 173.215 13.0972 173.061 13.0958C172.96 13.0958 172.86 13.0758 172.766 13.0368C172.672 12.9977 172.587 12.9406 172.516 12.8686C172.445 12.7965 172.388 12.7111 172.35 12.6172C172.312 12.5232 172.293 12.4226 172.293 12.3212Z" fill="#C7C7C7"/>
<path d="M174.73 12.3212C174.73 12.1677 174.776 12.0177 174.861 11.8902C174.946 11.7626 175.068 11.6634 175.21 11.6049C175.352 11.5465 175.508 11.5316 175.658 11.562C175.809 11.5924 175.947 11.6669 176.055 11.7759C176.163 11.8849 176.236 12.0235 176.265 12.1742C176.294 12.3249 176.278 12.4808 176.218 12.6223C176.159 12.7637 176.058 12.8842 175.93 12.9685C175.802 13.0528 175.652 13.0972 175.498 13.0958C175.397 13.0958 175.296 13.0758 175.203 13.0368C175.109 12.9977 175.024 12.9406 174.953 12.8686C174.881 12.7965 174.825 12.7111 174.787 12.6172C174.748 12.5232 174.729 12.4226 174.73 12.3212Z" fill="#C7C7C7"/>
<path d="M265.374 14.0162H259.078V11.0964H265.374V14.0162ZM259.416 13.6917H265.077V11.4142H259.416V13.6917Z" fill="#C7C7C7"/>
<path d="M263.633 11.593H259.575V13.5196H263.633V11.593Z" fill="#C7C7C7"/>
<path d="M265.918 11.7717H265.355V13.3342H265.918V11.7717Z" fill="#C7C7C7"/>
<path d="M221.87 9.73912H209.608C209.406 9.73912 209.212 9.65891 209.07 9.51612C208.927 9.37333 208.847 9.17967 208.847 8.97774C208.848 8.77695 208.929 8.58499 209.072 8.44363C209.215 8.30227 209.407 8.22296 209.608 8.22297H221.87C222.071 8.22296 222.263 8.30227 222.406 8.44363C222.548 8.58499 222.629 8.77695 222.631 8.97774C222.631 9.17967 222.551 9.37333 222.408 9.51612C222.265 9.65891 222.072 9.73912 221.87 9.73912Z" fill="white"/>
<path d="M172.545 226.013H171.976V228.635H170.903V227.304H169.016V228.635H167.95V226.013H167.381L169.963 223.345L172.545 226.013Z" fill="#EBEBEB"/>
<path d="M265.017 223.345H258.794V224.232H265.017V223.345Z" fill="#EBEBEB"/>
<path d="M265.017 225.549H258.794V226.436H265.017V225.549Z" fill="#EBEBEB"/>
<path d="M265.017 227.747H258.794V228.635H265.017V227.747Z" fill="#EBEBEB"/>
<path d="M218.03 226.086L216.262 227.973L214.488 226.086L214.805 225.788L216.262 227.344L217.718 225.788L218.03 226.086Z" fill="#EBEBEB"/>
<path d="M216.262 229.926C215.625 229.927 215.002 229.739 214.472 229.387C213.942 229.034 213.529 228.532 213.284 227.944C213.04 227.356 212.975 226.709 213.099 226.084C213.222 225.46 213.528 224.886 213.978 224.435C214.427 223.984 215.001 223.677 215.625 223.553C216.249 223.428 216.897 223.491 217.485 223.735C218.073 223.978 218.576 224.39 218.93 224.92C219.284 225.449 219.473 226.071 219.473 226.708C219.471 227.56 219.133 228.376 218.531 228.979C217.929 229.582 217.114 229.922 216.262 229.926ZM216.262 223.921C215.709 223.919 215.168 224.082 214.707 224.389C214.247 224.695 213.888 225.131 213.675 225.642C213.463 226.153 213.407 226.715 213.515 227.258C213.622 227.801 213.889 228.299 214.28 228.69C214.671 229.081 215.169 229.348 215.712 229.455C216.254 229.563 216.817 229.507 217.328 229.295C217.838 229.082 218.275 228.723 218.581 228.263C218.888 227.802 219.051 227.261 219.049 226.708C219.047 225.969 218.753 225.261 218.231 224.739C217.709 224.217 217.001 223.922 216.262 223.921Z" fill="#EBEBEB"/>
<path d="M267.93 22.5834H163.547V53.0521H267.93V22.5834Z" fill="#347683"/>
<path d="M169.486 32.3755L166.037 29.1379L169.486 25.907L170.023 26.4764L167.182 29.1379L170.023 31.7995L169.486 32.3755Z" fill="white"/>
<path d="M265.448 27.1252C265.448 27.2562 265.409 27.3842 265.336 27.4931C265.263 27.6019 265.16 27.6868 265.039 27.7369C264.918 27.787 264.785 27.8001 264.656 27.7746C264.528 27.749 264.41 27.686 264.317 27.5934C264.225 27.5008 264.162 27.3828 264.136 27.2544C264.111 27.126 264.124 26.9928 264.174 26.8719C264.224 26.7509 264.309 26.6475 264.418 26.5747C264.527 26.502 264.655 26.4632 264.786 26.4632C264.961 26.4632 265.13 26.5329 265.254 26.6571C265.378 26.7812 265.448 26.9496 265.448 27.1252Z" fill="white"/>
<path d="M265.448 29.5418C265.448 29.6727 265.409 29.8008 265.336 29.9096C265.263 30.0185 265.16 30.1034 265.039 30.1535C264.918 30.2036 264.785 30.2167 264.656 30.1912C264.528 30.1656 264.41 30.1026 264.317 30.01C264.225 29.9174 264.162 29.7994 264.136 29.671C264.111 29.5425 264.124 29.4094 264.174 29.2884C264.224 29.1675 264.309 29.0641 264.418 28.9913C264.527 28.9186 264.655 28.8797 264.786 28.8797C264.961 28.8797 265.13 28.9495 265.254 29.0736C265.378 29.1978 265.448 29.3662 265.448 29.5418Z" fill="white"/>
<path d="M265.448 31.9518C265.448 32.0827 265.409 32.2107 265.336 32.3196C265.263 32.4285 265.16 32.5133 265.039 32.5635C264.918 32.6136 264.785 32.6267 264.656 32.6011C264.528 32.5756 264.41 32.5125 264.317 32.4199C264.225 32.3273 264.162 32.2094 264.136 32.0809C264.111 31.9525 264.124 31.8194 264.174 31.6984C264.224 31.5774 264.309 31.474 264.418 31.4013C264.527 31.3285 264.655 31.2897 264.786 31.2897C264.961 31.2897 265.13 31.3595 265.254 31.4836C265.378 31.6078 265.448 31.7762 265.448 31.9518Z" fill="white"/>
<path d="M174.73 29.1379C186.74 28.6943 198.836 28.6943 210.853 29.1379C198.836 29.5815 186.74 29.5815 174.73 29.1379Z" fill="white"/>
<path d="M174.73 32.3755C182.84 32.1571 191.765 32.1571 199.889 32.3755C191.778 32.594 182.854 32.5874 174.73 32.3755Z" fill="white"/>
<path d="M186.674 43.505C205.291 43.2998 226.18 43.2998 244.791 43.505C226.18 43.7102 205.291 43.7102 186.674 43.505Z" fill="white"/>
<path d="M168.301 78.0852C184.774 77.966 201.253 77.9925 217.725 77.9462C234.198 77.8998 250.677 77.9462 267.156 78.0852C250.677 78.1978 234.204 78.1713 217.725 78.2176C201.246 78.264 184.774 78.1978 168.301 78.0852Z" fill="#455A64"/>
<path d="M168.301 89.1882C184.774 89.0756 201.253 89.1021 217.725 89.0558C234.198 89.0094 250.677 89.0558 267.156 89.1882C250.677 89.3073 234.204 89.2809 217.725 89.3272C201.246 89.3736 184.774 89.3338 168.301 89.1882Z" fill="#455A64"/>
<path d="M168.301 100.351C184.774 100.238 201.253 100.265 217.725 100.218C234.198 100.172 250.677 100.218 267.156 100.351C250.677 100.47 234.204 100.444 217.725 100.49C201.246 100.536 184.774 100.444 168.301 100.351Z" fill="#455A64"/>
<path d="M168.301 111.487C184.774 111.374 201.253 111.401 217.725 111.354C234.198 111.308 250.677 111.354 267.156 111.487C250.677 111.606 234.204 111.573 217.725 111.626C201.253 111.573 184.774 111.606 168.301 111.487Z" fill="#455A64"/>
<path d="M168.301 122.623C184.774 122.504 201.253 122.537 217.725 122.491C234.198 122.444 250.677 122.491 267.156 122.623C250.677 122.742 234.204 122.709 217.725 122.762C201.253 122.709 184.774 122.742 168.301 122.623Z" fill="#455A64"/>
<path d="M188.203 70.8421C188.349 81.2499 188.309 91.6511 188.375 102.059C188.315 112.46 188.375 122.868 188.203 133.269C188.057 122.868 188.097 112.46 188.037 102.059C188.097 91.6511 188.057 81.2433 188.203 70.8421Z" fill="#455A64"/>
<path d="M205.298 70.8421C205.443 81.2499 205.404 91.6511 205.47 102.059C205.404 112.46 205.47 122.868 205.298 133.269C205.152 122.868 205.192 112.46 205.132 102.059C205.192 91.6511 205.126 81.2433 205.298 70.8421Z" fill="#455A64"/>
<path d="M222.393 70.8421C222.538 81.2499 222.499 91.6511 222.558 102.059C222.499 112.46 222.558 122.868 222.393 133.269C222.247 122.868 222.287 112.46 222.22 102.059C222.287 91.6511 222.247 81.2433 222.393 70.8421Z" fill="#455A64"/>
<path d="M239.488 70.8421C239.633 81.2499 239.593 91.6511 239.653 102.059C239.593 112.46 239.653 122.868 239.488 133.269C239.342 122.868 239.375 112.46 239.315 102.059C239.382 91.6511 239.342 81.2433 239.488 70.8421Z" fill="#455A64"/>
<path d="M256.582 70.8421C256.728 81.2499 256.688 91.6511 256.748 102.059C256.688 112.46 256.748 122.868 256.582 133.269C256.437 122.868 256.47 112.46 256.41 102.059C256.47 91.6511 256.437 81.2433 256.582 70.8421Z" fill="#455A64"/>
<path opacity="0.5" d="M170.791 114.546C173.81 114.546 175.61 103.237 179.881 103.237C184.151 103.237 184.608 111.487 188.203 111.487C191.798 111.487 191.692 96.994 196.525 96.994C201.359 96.994 200.24 102.873 205.298 102.873C210.356 102.873 208.436 89.1882 213.733 89.1882C219.029 89.1882 216.884 108.004 222.393 108.004C225.882 108.004 227.226 102.046 231.39 102.046C234.145 102.046 235.767 105.032 239.368 105.032C242.97 105.032 243.758 93.538 248.26 93.538C252.762 93.538 253.272 100.338 256.582 100.338C259.893 100.338 261.078 89.2014 267.175 89.2014V133.256H170.791V114.546Z" fill="#347683"/>
<path opacity="0.3" d="M170.791 114.546C173.81 114.546 175.61 103.237 179.881 103.237C184.151 103.237 184.608 111.487 188.203 111.487C191.798 111.487 191.692 96.994 196.525 96.994C201.359 96.994 200.24 102.873 205.298 102.873C210.356 102.873 208.436 89.1882 213.733 89.1882C219.029 89.1882 216.884 108.004 222.393 108.004C225.882 108.004 227.226 102.046 231.39 102.046C234.145 102.046 235.767 105.032 239.368 105.032C242.97 105.032 243.758 93.538 248.26 93.538C252.762 93.538 253.272 100.338 256.582 100.338C259.893 100.338 261.078 89.2014 267.175 89.2014V133.256H170.791V114.546Z" fill="#347683"/>
<path d="M170.791 115.089V114.003C171.704 114.003 172.962 111.354 173.882 109.434C175.458 106.124 177.093 102.695 179.881 102.695C182.529 102.695 183.886 105.204 185.058 107.415C185.979 109.15 186.925 110.944 188.203 110.944C189.329 110.944 190.302 107.461 191.017 104.919C192.182 100.755 193.387 96.4512 196.525 96.4512C199.326 96.4512 200.425 98.1395 201.392 99.6291C202.358 101.119 203.146 102.33 205.298 102.33C207.244 102.33 208.006 99.1392 208.741 96.0539C209.608 92.4257 210.502 88.6718 213.733 88.6718C216.964 88.6718 217.758 93.399 218.625 98.4043C219.327 102.45 220.195 107.488 222.393 107.488C223.717 107.488 224.776 106.243 225.915 104.932C227.292 103.33 228.861 101.509 231.39 101.509C232.906 101.509 234.092 102.251 235.237 102.973C236.382 103.694 237.68 104.502 239.368 104.502C240.62 104.502 241.758 101.768 242.679 99.5695C244.003 96.3452 245.413 93.0084 248.267 93.0084C251.12 93.0084 252.491 95.18 253.722 97.0934C254.623 98.4904 255.47 99.8079 256.589 99.8079C257.542 99.8079 258.615 97.6959 259.568 95.8354C261.19 92.6442 263.21 88.6784 267.162 88.6784V89.7708C264.117 89.7708 262.369 93.2136 260.82 96.2459C259.495 98.8479 258.449 100.88 256.589 100.88C254.728 100.88 253.616 99.2716 252.524 97.5701C251.431 95.8685 250.273 94.0809 248.267 94.0809C246.386 94.0809 245.102 97.1728 243.963 99.9006C242.692 102.94 241.6 105.568 239.375 105.568C237.15 105.568 235.733 104.634 234.416 103.813C233.363 103.151 232.43 102.582 231.397 102.582C229.576 102.582 228.285 104.078 227.027 105.535C225.769 106.991 224.419 108.554 222.393 108.554C219.023 108.554 218.175 103.688 217.281 98.5367C216.619 94.6172 215.759 89.7443 213.733 89.7443C211.707 89.7443 210.793 93.1938 210.071 96.2393C209.191 99.9204 208.363 103.396 205.298 103.396C202.232 103.396 201.193 101.655 200.193 100.086C199.293 98.6956 198.505 97.4906 196.525 97.4906C194.546 97.4906 193.288 101.715 192.334 105.118C191.262 108.951 190.408 111.983 188.203 111.983C185.998 111.983 184.959 109.951 183.814 107.793C182.754 105.806 181.662 103.734 179.881 103.734C178.1 103.734 176.431 107.084 175.147 109.772C173.743 112.765 172.638 115.089 170.791 115.089Z" fill="#347683"/>
<path opacity="0.5" d="M222.393 108.031V133.269H205.298V102.873C210.356 102.873 208.436 89.1882 213.733 89.1882C219.029 89.1882 216.884 108.031 222.393 108.031Z" fill="#347683"/>
<path d="M213.726 91.5717C215.221 91.5717 216.434 90.3593 216.434 88.8638C216.434 87.3682 215.221 86.1559 213.726 86.1559C212.23 86.1559 211.018 87.3682 211.018 88.8638C211.018 90.3593 212.23 91.5717 213.726 91.5717Z" fill="#263238"/>
<path d="M215.275 88.8638C215.275 89.1702 215.185 89.4697 215.014 89.7245C214.844 89.9792 214.602 90.1778 214.319 90.2951C214.036 90.4123 213.725 90.443 213.424 90.3832C213.123 90.3235 212.847 90.1759 212.631 89.9592C212.414 89.7426 212.267 89.4665 212.207 89.166C212.147 88.8655 212.178 88.554 212.295 88.2709C212.412 87.9878 212.611 87.7458 212.866 87.5756C213.12 87.4054 213.42 87.3145 213.726 87.3145C214.137 87.3145 214.531 87.4777 214.822 87.7683C215.112 88.0588 215.275 88.4529 215.275 88.8638Z" fill="#347683"/>
<path d="M218.605 77.827H208.78V83.309H218.605V77.827Z" fill="#347683"/>
<path d="M212.395 83.309H214.984L213.693 85.1694L212.395 83.309Z" fill="#347683"/>
<path d="M210.615 79.8529C212.687 79.7404 214.765 79.7404 216.838 79.8529C214.765 79.9588 212.688 79.9588 210.615 79.8529Z" fill="white"/>
<path d="M210.615 80.9123C212.687 80.7997 214.765 80.7997 216.838 80.9123C214.765 81.0215 212.688 81.0215 210.615 80.9123Z" fill="white"/>
<path d="M170.79 71.5174C170.903 81.8127 170.996 92.1014 171.002 102.397L171.108 133.269L170.79 133.018L218.97 133.077L243.063 133.13L267.156 133.269L243.063 133.408L218.97 133.461L170.79 133.527H170.473V133.269L170.579 102.397C170.585 92.1014 170.698 81.8127 170.79 71.5174Z" fill="#455A64"/>
<path d="M175.948 137.891C178.224 137.546 180.538 137.546 182.814 137.891C180.538 138.228 178.224 138.228 175.948 137.891Z" fill="#DBDBDB"/>
<path d="M163.547 78.0852C164.561 77.7411 165.659 77.7411 166.672 78.0852C165.658 78.4229 164.562 78.4229 163.547 78.0852Z" fill="#DBDBDB"/>
<path d="M163.547 89.1882C164.562 88.8504 165.658 88.8504 166.672 89.1882C165.659 89.5322 164.561 89.5322 163.547 89.1882Z" fill="#DBDBDB"/>
<path d="M163.547 100.351C164.562 100.013 165.658 100.013 166.672 100.351C165.659 100.695 164.561 100.695 163.547 100.351Z" fill="#DBDBDB"/>
<path d="M163.547 111.487C164.562 111.149 165.658 111.149 166.672 111.487C165.659 111.831 164.561 111.831 163.547 111.487Z" fill="#DBDBDB"/>
<path d="M163.547 122.623C164.561 122.282 165.659 122.282 166.672 122.623C165.659 122.964 164.561 122.964 163.547 122.623Z" fill="#DBDBDB"/>
<path d="M192.791 137.89C195.065 137.546 197.377 137.546 199.65 137.89C197.376 138.228 195.065 138.228 192.791 137.89Z" fill="#DBDBDB"/>
<path d="M209.628 137.891C211.903 137.546 214.218 137.546 216.493 137.891C214.217 138.228 211.904 138.228 209.628 137.891Z" fill="#DBDBDB"/>
<path d="M226.464 137.891C228.74 137.546 231.054 137.546 233.33 137.891C231.054 138.228 228.74 138.228 226.464 137.891Z" fill="#DBDBDB"/>
<path d="M243.301 137.891C245.577 137.546 247.891 137.546 250.167 137.891C247.891 138.228 245.577 138.228 243.301 137.891Z" fill="#DBDBDB"/>
<path d="M260.144 137.891C262.42 137.546 264.734 137.546 267.01 137.891C264.734 138.228 262.42 138.228 260.144 137.891Z" fill="#DBDBDB"/>
<path d="M163.634 60.8182C173.326 60.368 183.092 60.368 192.765 60.8182C183.065 61.2684 173.3 61.2684 163.634 60.8182Z" fill="#DBDBDB"/>
<path d="M163.634 63.8837C169.86 63.4268 176.111 63.4268 182.337 63.8837C176.111 64.3339 169.86 64.3339 163.634 63.8837Z" fill="#DBDBDB"/>
<path d="M248.452 63.8836C254.682 63.546 260.926 63.546 267.156 63.8836C260.925 64.2147 254.682 64.2147 248.452 63.8836Z" fill="#347683"/>
<path d="M164.282 148.113C174.081 147.663 183.966 147.663 193.771 148.113C183.959 148.563 174.081 148.563 164.282 148.113Z" fill="#263238"/>
<path d="M244.883 148.113C252.303 147.782 259.727 147.782 267.156 148.113C259.736 148.448 252.312 148.448 244.883 148.113Z" fill="#347683"/>
<path d="M184.357 157.382C192.074 156.929 199.812 156.929 207.529 157.382C199.812 157.831 192.074 157.831 184.357 157.382Z" fill="#263238"/>
<path d="M184.357 160.778C190.828 160.328 197.324 160.328 203.795 160.778C197.324 161.229 190.828 161.229 184.357 160.778Z" fill="#263238"/>
<path d="M267.156 171.696C266.924 171.471 163.819 172.358 164.057 171.696V153.608V153.357H164.309L215.719 153.41C232.887 153.449 250.054 153.41 267.229 153.515C267.229 153.575 267.129 171.603 267.156 171.676V171.696ZM267.156 171.696L267.083 153.608C250.405 153.913 232.728 153.668 215.719 153.78C215.951 153.602 163.097 154.264 164.527 153.608V171.696C163.124 171.08 267.493 171.888 267.182 171.696H267.156Z" fill="#DBDBDB"/>
<path d="M180.053 156.21H166.944V169.319H180.053V156.21Z" fill="#347683"/>
<path d="M264.143 162.765C264.144 164.356 263.565 165.893 262.516 167.089C261.466 168.285 260.017 169.058 258.44 169.265C256.862 169.471 255.263 169.097 253.941 168.211C252.619 167.326 251.664 165.99 251.255 164.452C250.845 162.915 251.009 161.281 251.716 159.855C252.423 158.429 253.624 157.309 255.095 156.704C256.567 156.099 258.208 156.049 259.713 156.565C261.219 157.081 262.485 158.127 263.276 159.507C263.844 160.499 264.143 161.622 264.143 162.765Z" fill="#455A64"/>
<path d="M263.276 159.507L257.589 162.765V156.21C258.743 156.211 259.876 156.516 260.875 157.095C261.873 157.674 262.702 158.506 263.276 159.507Z" fill="#347683"/>
<path d="M257.589 167.3C260.093 167.3 262.124 165.269 262.124 162.765C262.124 160.26 260.093 158.229 257.589 158.229C255.084 158.229 253.053 160.26 253.053 162.765C253.053 165.269 255.084 167.3 257.589 167.3Z" fill="white"/>
<path d="M184.357 180.627C192.074 180.178 199.812 180.178 207.529 180.627C199.812 181.077 192.074 181.077 184.357 180.627Z" fill="#263238"/>
<path d="M184.357 184.037C190.828 183.587 197.324 183.587 203.795 184.037C197.324 184.487 190.828 184.487 184.357 184.037Z" fill="#263238"/>
<path d="M267.156 194.955C266.924 194.73 163.819 195.617 164.057 194.955V176.867V176.615H164.309L215.746 176.688C232.913 176.728 250.081 176.688 267.255 176.794C267.255 176.854 267.156 194.882 267.182 194.955H267.156ZM267.156 194.955L267.083 176.867C250.405 177.171 232.728 176.926 215.719 177.039C215.951 176.86 163.097 177.522 164.527 176.867V194.955C163.124 194.339 267.493 195.147 267.182 194.955H267.156Z" fill="#DBDBDB"/>
<path d="M180.053 179.469H166.944V192.578H180.053V179.469Z" fill="#455A64"/>
<path d="M264.143 186.023C264.144 187.615 263.565 189.151 262.516 190.347C261.466 191.543 260.017 192.317 258.44 192.523C256.862 192.73 255.263 192.356 253.941 191.47C252.619 190.585 251.664 189.248 251.255 187.711C250.845 186.173 251.009 184.539 251.716 183.114C252.423 181.688 253.624 180.568 255.095 179.963C256.567 179.357 258.208 179.308 259.713 179.824C261.219 180.34 262.485 181.385 263.276 182.766C263.844 183.758 264.143 184.88 264.143 186.023Z" fill="#455A64"/>
<path d="M264.143 186.023C264.142 186.345 264.118 186.666 264.07 186.983L257.589 186.023V179.469C259.327 179.469 260.994 180.159 262.223 181.389C263.453 182.618 264.143 184.285 264.143 186.023Z" fill="#347683"/>
<path d="M262.117 186.023C262.119 186.921 261.854 187.799 261.356 188.545C260.858 189.292 260.15 189.875 259.321 190.219C258.492 190.563 257.579 190.653 256.699 190.478C255.819 190.304 255.01 189.871 254.375 189.237C253.741 188.602 253.308 187.793 253.134 186.913C252.959 186.033 253.049 185.12 253.393 184.291C253.737 183.462 254.32 182.754 255.067 182.256C255.813 181.758 256.691 181.493 257.589 181.495C258.789 181.496 259.94 181.974 260.789 182.823C261.638 183.672 262.116 184.823 262.117 186.023Z" fill="white"/>
<path d="M184.357 203.886C192.074 203.437 199.812 203.437 207.529 203.886C199.812 204.336 192.074 204.336 184.357 203.886Z" fill="#263238"/>
<path d="M184.357 207.296C190.828 206.846 197.324 206.846 203.795 207.296C197.324 207.746 190.828 207.746 184.357 207.296Z" fill="#263238"/>
<path d="M267.156 218.214C266.924 217.988 163.819 218.876 164.057 218.214V200.126V199.874H164.309L215.746 199.947C232.913 199.987 250.081 199.947 267.255 200.053C267.255 200.112 267.156 218.141 267.182 218.214H267.156ZM267.156 218.214L267.083 200.126C250.405 200.43 232.728 200.185 215.719 200.298C215.951 200.119 163.097 200.781 164.527 200.126V218.214C163.124 217.598 267.493 218.406 267.182 218.214H267.156Z" fill="#DBDBDB"/>
<path d="M180.053 202.727H166.944V215.837H180.053V202.727Z" fill="#347683"/>
<path d="M264.143 209.282C264.144 210.607 263.742 211.902 262.992 212.994C262.241 214.086 261.177 214.925 259.939 215.4C259.19 215.69 258.393 215.838 257.589 215.837C256.292 215.837 255.025 215.452 253.947 214.732C252.869 214.012 252.029 212.988 251.533 211.79C251.037 210.593 250.907 209.275 251.16 208.003C251.413 206.732 252.037 205.564 252.954 204.647C253.871 203.731 255.039 203.106 256.31 202.853C257.581 202.601 258.899 202.73 260.097 203.226C261.295 203.723 262.318 204.563 263.039 205.641C263.759 206.718 264.143 207.986 264.143 209.282Z" fill="#455A64"/>
<path d="M264.143 209.282C264.144 210.607 263.742 211.902 262.992 212.994C262.241 214.086 261.177 214.925 259.939 215.4L257.589 209.282V202.727C259.327 202.727 260.994 203.418 262.223 204.647C263.453 205.876 264.143 207.544 264.143 209.282Z" fill="#347683"/>
<path d="M262.117 209.282C262.119 210.18 261.854 211.057 261.356 211.804C260.858 212.551 260.15 213.133 259.321 213.477C258.492 213.822 257.579 213.912 256.699 213.737C255.819 213.562 255.01 213.13 254.375 212.496C253.741 211.861 253.308 211.052 253.134 210.172C252.959 209.292 253.049 208.379 253.393 207.55C253.737 206.721 254.32 206.013 255.067 205.515C255.813 205.017 256.691 204.752 257.589 204.753C258.789 204.755 259.94 205.233 260.789 206.082C261.638 206.931 262.116 208.082 262.117 209.282Z" fill="white"/>
<path d="M277.292 211.851C269.109 222.941 260.568 235.805 258.489 249.715C258.484 249.739 258.484 249.764 258.489 249.787C258.494 249.811 258.503 249.834 258.517 249.854C258.53 249.875 258.548 249.892 258.568 249.906C258.588 249.919 258.611 249.929 258.635 249.933C258.659 249.938 258.683 249.938 258.707 249.934C258.731 249.929 258.754 249.919 258.774 249.906C258.795 249.892 258.812 249.875 258.826 249.855C258.839 249.834 258.849 249.812 258.853 249.788C259.793 245.995 261.001 242.273 262.468 238.652C267.851 237.169 273.141 235.95 275.961 230.607C278.848 225.119 278.484 217.955 277.948 211.97C277.875 211.672 277.438 211.672 277.292 211.851Z" fill="#347683"/>
<path d="M262.534 238.546C266.209 230.29 270.936 221.994 276.934 215.214C276.974 215.168 277.04 215.214 277.001 215.28C273.068 220.114 270.082 225.384 267.169 230.74C269.883 227.986 272.849 225.523 275.418 222.603C275.471 222.543 275.551 222.603 275.504 222.682C272.949 225.741 270.168 229.071 266.844 231.336C265.951 232.978 265.057 234.646 264.143 236.275C264.368 236.149 264.6 236.037 264.805 235.924C264.845 235.924 264.885 235.964 264.845 235.984C264.587 236.116 264.335 236.248 264.077 236.361C263.647 237.142 263.216 237.923 262.753 238.698C262.726 238.87 262.455 238.718 262.534 238.546Z" fill="#263238"/>
<path d="M265.269 235.666C267.47 234.434 269.571 233.03 271.552 231.468C271.605 231.428 271.684 231.501 271.631 231.548C269.712 233.207 267.608 234.64 265.362 235.818C265.352 235.824 265.34 235.828 265.329 235.83C265.317 235.832 265.306 235.831 265.294 235.829C265.283 235.826 265.272 235.821 265.263 235.814C265.253 235.807 265.245 235.798 265.239 235.788C265.233 235.778 265.229 235.767 265.227 235.756C265.225 235.744 265.226 235.732 265.229 235.721C265.231 235.709 265.236 235.699 265.243 235.689C265.25 235.68 265.259 235.672 265.269 235.666Z" fill="#263238"/>
<path d="M257.523 247.649C257.523 247.815 257.827 247.815 257.82 247.649C257.867 243.068 257.821 238.466 257.893 233.865C259.065 231.501 261.588 230.19 263.336 228.29C264.596 226.906 265.692 225.379 266.6 223.742C268.713 219.834 270.005 215.535 270.393 211.109C270.877 206.21 269.016 190.049 266.951 190.585C265.878 190.87 262.415 198.881 261.495 201.529C260.005 205.906 258.915 210.409 258.238 214.983C256.563 225.735 256.702 236.831 257.523 247.649Z" fill="#347683"/>
<path d="M257.489 227.893C257.741 222.1 259.045 216.247 260.27 210.626C261.594 204.575 263.124 198.874 266.229 193.472C266.282 193.372 266.434 193.472 266.381 193.564C264.304 197.764 262.696 202.181 261.588 206.733C261.793 206.402 262.044 206.071 262.25 205.786C262.336 205.667 262.534 205.786 262.455 205.905C262.175 206.394 261.847 206.853 261.475 207.276C261.469 207.279 261.462 207.28 261.455 207.28C261.448 207.28 261.442 207.279 261.435 207.276C260.363 211.606 259.595 216.029 258.939 220.445C258.986 220.392 259.032 220.332 259.085 220.279C259.138 220.226 259.171 220.279 259.151 220.325C259.072 220.478 258.979 220.617 258.886 220.769C258.555 223.007 258.224 225.245 257.94 227.463C261.912 224.053 265.335 220.028 267.262 215.075C267.262 215.075 267.308 215.075 267.295 215.075C265.414 220.213 262.448 224.781 257.873 227.9C257.794 228.495 257.708 229.091 257.622 229.687C257.622 229.806 257.41 229.78 257.41 229.654C257.41 229.131 257.41 228.601 257.456 228.072C257.446 228.058 257.439 228.042 257.436 228.026C257.432 228.009 257.432 227.992 257.435 227.975C257.438 227.959 257.444 227.943 257.454 227.929C257.463 227.914 257.475 227.902 257.489 227.893Z" fill="#263238"/>
<path d="M259.37 219.498C262.422 214.943 265.269 210.527 267.5 205.495C267.506 205.482 267.516 205.471 267.529 205.466C267.542 205.46 267.557 205.46 267.57 205.465C267.583 205.47 267.594 205.481 267.599 205.494C267.605 205.507 267.605 205.522 267.6 205.535C265.719 210.533 263.084 215.598 259.522 219.617C259.505 219.631 259.483 219.639 259.461 219.639C259.438 219.639 259.417 219.632 259.399 219.618C259.381 219.604 259.369 219.585 259.364 219.563C259.358 219.541 259.361 219.518 259.37 219.498Z" fill="#263238"/>
<path d="M263.422 204.389C264.686 202.151 266.017 199.98 267.209 197.702C267.242 197.636 267.328 197.702 267.301 197.755C266.326 200.134 265.089 202.396 263.614 204.502C263.597 204.523 263.573 204.537 263.546 204.542C263.52 204.547 263.492 204.542 263.469 204.528C263.446 204.514 263.428 204.493 263.42 204.468C263.411 204.442 263.412 204.414 263.422 204.389Z" fill="#263238"/>
<path d="M262.925 205.343V205.383C262.925 205.383 262.905 205.343 262.925 205.343Z" fill="#263238"/>
<path d="M254.424 234.401C254.361 237.446 254.002 240.477 253.352 243.452C253.398 243.776 253.444 244.114 253.497 244.438C254.431 241.162 254.972 237.786 255.106 234.381C255.134 234.334 255.149 234.281 255.149 234.226C255.149 234.171 255.134 234.117 255.106 234.07C255.246 229.496 254.916 224.919 254.12 220.412C252.703 211.99 249.604 203.913 243.732 197.61C243.683 197.565 243.625 197.532 243.562 197.515C243.498 197.497 243.431 197.494 243.367 197.507C243.302 197.52 243.242 197.548 243.19 197.589C243.138 197.63 243.097 197.682 243.07 197.742C240.699 203.767 241.527 210.984 243.546 216.942C244.636 220.196 246.198 223.272 248.181 226.072C250.22 228.919 252.795 231.309 254.424 234.401Z" fill="#347683"/>
<path d="M244.42 200.417C249.982 209.448 253.855 220.153 254.351 230.819C254.351 231.005 254.04 231.058 254.014 230.859C253.881 229.906 253.736 228.952 253.583 228.006C251.279 225.801 248.916 223.477 247.267 220.723C247.267 220.67 247.313 220.617 247.346 220.657C249.251 223.001 251.291 225.232 253.457 227.337C253.06 224.98 252.586 222.658 252.034 220.372C251.882 220.206 251.736 220.028 251.59 219.855C251.445 219.683 251.657 219.577 251.756 219.69L251.888 219.842C251.107 216.708 250.136 213.623 248.982 210.606C247.565 208.918 245.983 207.455 244.95 205.422C244.95 205.376 244.99 205.336 245.023 205.376C245.85 206.541 246.658 207.713 247.598 208.792C247.969 209.222 248.386 209.626 248.77 210.043C247.48 206.77 245.948 203.596 244.188 200.549C244.122 200.417 244.334 200.291 244.42 200.417Z" fill="#263238"/>
<path d="M245.546 211.566C247.34 213.983 249.392 216.293 251.061 218.796C251.107 218.862 251.008 218.935 250.948 218.882C248.796 216.896 246.976 214.115 245.42 211.632C245.373 211.553 245.512 211.493 245.546 211.566Z" fill="#263238"/>
<path d="M251.312 219.352L251.392 219.432C251.445 219.485 251.359 219.564 251.306 219.511L251.233 219.438C251.18 219.385 251.259 219.299 251.312 219.352Z" fill="#263238"/>
<path d="M235.701 217.783C236.36 222.825 238.392 227.588 241.573 231.554C242.883 233.111 244.505 234.376 246.334 235.268C248.393 236.288 250.551 237.467 252.69 238.301C253.7 240.884 254.452 243.561 254.934 246.292C255.007 246.06 255.073 245.815 255.139 245.584C253.775 233.825 246.161 223.735 236.429 217.32C236.353 217.271 236.264 217.245 236.173 217.245C236.083 217.245 235.994 217.271 235.918 217.32C235.841 217.369 235.78 217.438 235.742 217.52C235.703 217.602 235.689 217.693 235.701 217.783Z" fill="#347683"/>
<path d="M239.064 221.259C238.998 221.193 239.064 221.074 239.163 221.127C244.513 225.104 248.779 230.36 251.57 236.414C251.637 236.573 251.418 236.718 251.325 236.553C250.875 235.765 250.412 234.99 249.942 234.236C247.724 233.819 245.618 232.249 243.983 230.766C243.937 230.727 243.983 230.66 244.049 230.7C244.897 231.478 245.84 232.146 246.856 232.686C247.763 233.143 248.737 233.435 249.683 233.799C248.856 232.475 248.002 231.243 247.108 230.025C244.699 229.103 242.44 227.827 240.408 226.238C240.342 226.191 240.408 226.092 240.467 226.132C242.479 227.343 244.551 228.447 246.678 229.442C245.319 227.654 243.855 225.947 242.295 224.331C241.54 223.934 240.772 223.537 240.044 223.106C240.036 223.103 240.03 223.099 240.024 223.093C240.018 223.087 240.014 223.081 240.011 223.073C240.008 223.066 240.006 223.058 240.006 223.05C240.006 223.042 240.007 223.034 240.011 223.027C240.014 223.019 240.018 223.013 240.024 223.007C240.029 223.001 240.036 222.997 240.043 222.994C240.051 222.991 240.059 222.989 240.067 222.989C240.075 222.989 240.083 222.991 240.09 222.994C240.697 223.207 241.277 223.492 241.818 223.841C240.937 222.987 240.037 222.113 239.064 221.259Z" fill="#263238"/>
<path d="M239.276 225.317C239.407 225.396 239.531 225.485 239.647 225.583C239.687 225.616 239.647 225.662 239.601 225.649C239.466 225.583 239.335 225.508 239.21 225.424C239.143 225.384 239.203 225.271 239.276 225.317Z" fill="#263238"/>
<path d="M270.334 271.756H243.659L245.81 247.464L246.287 242.108H267.705L268.182 247.464L270.334 271.756Z" fill="#455A64"/>
<path d="M268.182 247.464H245.811L246.287 242.108H267.705L268.182 247.464Z" fill="#263238"/>
<path d="M268.983 238.367H245.01V243.67H268.983V238.367Z" fill="#455A64"/>
<path d="M133.067 94.963C133.07 99.1919 131.898 103.338 129.68 106.939C127.462 110.54 124.286 113.452 120.507 115.351C116.729 117.25 112.496 118.06 108.284 117.691C104.071 117.323 100.044 115.789 96.6526 113.263L85.4834 116.116L90.1179 105.715C88.4809 102.659 87.5625 99.2689 87.4327 95.8039C87.3028 92.339 87.9648 88.89 89.3685 85.7195C90.7721 82.5489 92.8803 79.7402 95.5328 77.507C98.1852 75.2738 101.312 73.6749 104.675 72.832C108.039 71.9891 111.55 71.9243 114.942 72.6427C118.334 73.361 121.518 74.8434 124.251 76.9773C126.984 79.1111 129.194 81.8402 130.714 84.9568C132.234 88.0735 133.022 91.4957 133.02 94.963H133.067Z" fill="white"/>
<path d="M133.067 94.963C133.065 99.204 131.889 103.362 129.668 106.975C127.447 110.587 124.268 113.514 120.484 115.43C116.7 117.345 112.46 118.175 108.233 117.826C104.006 117.478 99.9588 115.964 96.54 113.455L96.7386 113.495L85.5826 116.394L85 116.547L85.245 115.997L89.8795 105.583V105.867C88.2094 102.775 87.2802 99.3366 87.165 95.8237C86.6883 85.1511 94.2558 75.0809 104.677 72.6908C118.918 69.0494 133.192 80.2914 133.067 94.963ZM133.067 94.963C133.113 80.3378 118.925 69.2414 104.77 73.0417C94.6729 75.4848 87.2643 85.449 87.7873 95.7972C87.9231 99.2104 88.8284 102.549 90.4356 105.563L90.5085 105.702L90.4489 105.848L85.8011 116.236L85.4701 115.832L96.6525 113.038H96.7585C100.118 115.582 104.122 117.139 108.318 117.534C112.515 117.928 116.738 117.143 120.513 115.269C124.288 113.394 127.465 110.504 129.688 106.923C131.91 103.341 133.09 99.211 133.093 94.9961L133.067 94.963Z" fill="#263238"/>
<path d="M106.571 108.529L96.3547 98.1807L99.7843 94.7909L105.756 100.836L118.157 81.3905L122.222 83.9858L106.571 108.529Z" fill="#347683"/>
<path d="M68.892 222.513C103.971 222.458 116.378 210.915 120.584 175.422C116.25 156.762 108.497 152.626 103.799 149.408C105.39 132.122 102.331 132.127 102.331 132.127C87.2976 157.269 80.7206 135.84 64.259 160.523C53.6074 140.953 35.89 152.042 26.6656 132.246C26.6656 132.246 23.4127 136.622 25.48 148.379C16.3153 153.924 13.6729 160.841 9.22081 175.597C11.5414 208.315 30.7596 225.108 68.892 222.513Z" fill="#6DDBE8"/>
<path d="M64.4632 160.519C70.2875 151.453 76.6686 147.134 86.8628 145.736C76.6141 143.89 68.7239 151.068 64.4426 151.765C60.1613 152.462 52.7963 142.797 42.402 145.806C52.3993 147.403 59.6928 153.201 64.4632 160.519Z" fill="#48929A"/>
<path d="M95.9913 211.631C80.5184 223.177 58.7971 228.733 25.0172 211.742C15.9325 251.162 38.1976 265.875 65.9346 265.832C93.6715 265.788 122.371 241.316 95.9913 211.631Z" fill="#6DDBE8"/>
<path d="M46.3641 269.319C44.7314 268.861 43.0879 263.794 44.5073 260.335C45.8995 258.875 47.3594 258.948 49.4021 260.327C49.4179 267.01 47.9968 269.777 46.3641 269.319Z" fill="#F99224"/>
<path d="M51.6038 269.915C49.9711 269.457 48.3276 264.39 49.7471 260.931C51.1392 259.471 52.5991 259.544 54.6418 260.924C54.6576 267.606 53.2365 270.374 51.6038 269.915Z" fill="#F99224"/>
<path d="M56.9728 270.685C55.3821 270.267 53.6543 264.908 55.0378 261.752C56.3945 260.419 57.8169 260.486 59.807 261.744C60.2289 267.684 58.5635 271.103 56.9728 270.685Z" fill="#F99224"/>
<path d="M83.2021 269.442C84.7907 268.977 86.3685 263.886 84.9693 260.419C83.606 258.958 82.184 259.036 80.2001 260.427C80.2159 267.134 81.6134 269.908 83.2021 269.442Z" fill="#F7921E"/>
<path d="M77.8998 269.912C79.4885 269.446 81.0662 264.355 79.667 260.888C78.3038 259.427 76.8817 259.505 74.8979 260.896C74.9137 267.604 76.3112 270.377 77.8998 269.912Z" fill="#F7921E"/>
<path d="M72.5137 270.856C74.0904 270.424 75.7796 264.954 74.3916 261.74C73.0389 260.386 71.6276 260.458 69.6586 261.748C69.2681 267.806 70.937 271.287 72.5137 270.856Z" fill="#F7921E"/>
<path d="M135.216 186.848C122.215 207.861 111.833 209.403 92.1196 216.178C92.2126 255.617 132.802 227.564 137.803 219.923C142.804 212.281 122.761 226.308 125.757 219.942C131.771 216.116 143.765 193.832 137.758 200.839C131.752 207.846 125.733 209.764 125.733 209.764C129.436 200.815 142.23 181.748 135.216 186.848Z" fill="#48929A"/>
<path d="M17.1811 251.226C8.73288 227.711 20.2748 207.36 26.4547 212.057C37.9094 222.029 19.9392 234.329 39.8803 254.549C34.3092 253.561 30.4293 251.051 27.1345 244.862C27.1345 244.862 26.7318 250.254 30.5943 253.19C34.4567 256.125 25.9431 255.353 22.4887 245.13C16.9598 238.396 29.6514 267.035 17.1811 251.226Z" fill="#48929A"/>
<ellipse cx="22.8423" cy="25.8093" rx="22.8423" ry="25.8093" transform="matrix(0.999999 -0.00157418 0.00235806 0.999997 19.3652 152.997)" fill="white"/>
<ellipse cx="22.8423" cy="25.8093" rx="22.8423" ry="25.8093" transform="matrix(0.999999 -0.00157418 0.00235806 0.999997 64.6418 152.925)" fill="#FEFFFF"/>
<ellipse cx="16.3159" cy="18.4352" rx="16.3159" ry="18.4352" transform="matrix(0.999999 -0.00157418 0.00235806 0.999997 71.1851 160.29)" fill="#120C0E"/>
<ellipse cx="6.11846" cy="6.91321" rx="6.11846" ry="6.91321" transform="matrix(0.999999 -0.00157418 0.00235806 0.999997 89.1404 163.487)" fill="#FEFFFF"/>
<ellipse cx="16.3159" cy="18.4352" rx="16.3159" ry="18.4352" transform="matrix(0.999999 -0.00157418 0.00235806 0.999997 26.3169 160.36)" fill="#120C0E"/>
<ellipse cx="6.11846" cy="6.91321" rx="6.11846" ry="6.91321" transform="matrix(0.999999 -0.00157418 0.00235806 0.999997 45.0876 163.557)" fill="#FEFFFF"/>
<path d="M44.3501 231.837L40.2491 220.249L51.4144 222.261L44.3501 231.837Z" fill="#48929A"/>
<path d="M63.2977 233.302L57.5554 223.651L68.7692 223.468L63.2977 233.302Z" fill="#48929A"/>
<path d="M56.8016 245.755L51.0593 236.105L62.2731 235.922L56.8016 245.755Z" fill="#48929A"/>
<path d="M82.9746 231.071L75.0522 223.648L85.7578 219.887L82.9746 231.071Z" fill="#48929A"/>
<path d="M76.4783 243.525L68.5558 236.102L79.2614 232.341L76.4783 243.525Z" fill="#48929A"/>
<path d="M64.9148 181.961C64.8757 182.508 64.8074 183.06 64.7136 183.614C65.5175 188.134 72.3789 199.448 73.4371 199.073L73.5209 199C73.4992 199.037 73.4712 199.061 73.4371 199.073L65.5832 205.926L56.1898 199.031C56.1882 199.03 56.1867 199.029 56.1852 199.027L56.1898 199.031C56.9736 199.581 63.3876 191.438 64.7136 183.614C64.5723 182.82 64.618 182.236 64.9148 181.961Z" fill="#F6931E"/>
<path d="M38.2463 146.138V136.685L63.5371 141.961L88.5588 136.685V146.138L66.2276 152.293L38.2463 146.138Z" fill="#0F0B0C"/>
<path d="M63.2677 145.039L14.3005 132.289L63.2677 118L112.235 132.289L63.2677 145.039Z" fill="#0F0B0C"/>
<path d="M97.1689 156.47C93.4021 155.591 99.5903 143.94 97.707 133.388L100.397 132.729C99.8594 143.72 104.702 154.931 101.743 156.47H97.1689Z" fill="#0F0B0C"/>
<ellipse cx="99.3206" cy="139.543" rx="3.22861" ry="2.63794" fill="#0F0B0C"/>
</svg>
